M48
;GenerationSoftware,Autodesk,EAGLE,9.3.1*%
;CreationDate,2019-07-21T13:08:14Z*%
FMAT,2
ICI,OFF
METRIC,TZ,000.000
T7C0.350
T6C0.800
T5C0.813
T4C1.016
T3C1.321
T2C1.397
T1C3.500
%
G90
M71
T1
X3810Y3810
X80010Y3810
X3810Y87630
X80010Y87630
T2
X31750Y86360
X63500Y5080
X50800Y5080
X45720Y5080
X38100Y5080
X33020Y5080
X27940Y5080
X20320Y5080
X15240Y5080
X10160Y5080
X11430Y81280
X16510Y81280
X26670Y86360
X73660Y5080
X68580Y5080
X55880Y5080
X72390Y86360
X67310Y86360
X62230Y86360
X54610Y86360
X49530Y86360
X44450Y86360
X36830Y86360
T3
X27762Y19050
X27762Y69850
X5258Y69850
X5258Y19050
T4
X66599Y65761
X73101Y61239
X66599Y61239
X73101Y65761
T5
X77470Y15240
X77470Y17780
X68580Y49530
X71120Y49530
X64770Y55880
X74930Y55880
T6
X46990Y66040
X49530Y66040
X52070Y66040
X54610Y66040
X40640Y63500
X40640Y60960
X40640Y58420
X40640Y55880
X40640Y53340
X40640Y50800
X40640Y48260
X40640Y45720
X40640Y43180
X40640Y40640
X40640Y38100
X40640Y35560
X55880Y63500
X55880Y60960
X55880Y58420
X55880Y55880
X55880Y53340
X55880Y50800
X55880Y48260
X55880Y45720
X55880Y43180
X55880Y40640
X55880Y38100
X55880Y35560
X52070Y35560
X49530Y35560
X46990Y35560
X52070Y54610
X52070Y52070
X13580Y61300
X19480Y61300
X7580Y27700
X72390Y14590
X72390Y16590
X72390Y18590
X72390Y20590
X72390Y22590
X72390Y24590
X72390Y26590
X72390Y28590
X41910Y66040
X44450Y66040
X25580Y27700
T7
X43180Y45720
X49530Y54610
X59690Y76200
X49530Y45720
X41910Y24130
X49530Y46990
X40640Y24130
X49530Y48260
X39370Y24130
X59690Y33020
X55880Y69850
X34290Y69850
X46990Y54610
M30