G04 EAGLE Gerber RS-274X export*
G75*
%MOMM*%
%FSLAX34Y34*%
%LPD*%
%INSoldermask Top*%
%IPPOS*%
%AMOC8*
5,1,8,0,0,1.08239X$1,22.5*%
G01*
%ADD10C,3.703200*%
%ADD11P,1.951982X8X202.500000*%
%ADD12C,1.803400*%
%ADD13C,2.743200*%
%ADD14C,1.625600*%
%ADD15P,1.649562X8X22.500000*%
%ADD16P,1.649562X8X202.500000*%
%ADD17C,1.625600*%
%ADD18C,1.511200*%
%ADD19C,1.511200*%
%ADD20R,1.511200X1.511200*%
%ADD21P,2.034460X8X22.500000*%
%ADD22C,2.298700*%
%ADD23C,1.611200*%
%ADD24C,1.879600*%
%ADD25C,0.959600*%

G36*
X97069Y411418D02*
X97069Y411418D01*
X97117Y411432D01*
X97207Y411450D01*
X98116Y411771D01*
X98160Y411796D01*
X98244Y411833D01*
X99059Y412348D01*
X99096Y412382D01*
X99169Y412437D01*
X99849Y413121D01*
X99878Y413162D01*
X99937Y413232D01*
X100448Y414050D01*
X100466Y414097D01*
X100509Y414178D01*
X100824Y415089D01*
X100832Y415139D01*
X100856Y415228D01*
X100961Y416186D01*
X100958Y416216D01*
X100964Y416255D01*
X100964Y416356D01*
X100959Y416384D01*
X100961Y416420D01*
X100862Y417393D01*
X100849Y417442D01*
X100832Y417532D01*
X100520Y418459D01*
X100495Y418503D01*
X100460Y418588D01*
X99949Y419422D01*
X99915Y419460D01*
X99861Y419534D01*
X99177Y420234D01*
X99136Y420263D01*
X99067Y420323D01*
X98245Y420853D01*
X98198Y420873D01*
X98118Y420917D01*
X97198Y421250D01*
X97149Y421259D01*
X97060Y421284D01*
X96089Y421404D01*
X96079Y421404D01*
X96067Y421407D01*
X95764Y421434D01*
X95714Y421429D01*
X95615Y421429D01*
X94658Y421287D01*
X94610Y421271D01*
X94520Y421251D01*
X93618Y420899D01*
X93575Y420873D01*
X93493Y420833D01*
X92692Y420290D01*
X92656Y420254D01*
X92584Y420197D01*
X91924Y419489D01*
X91897Y419447D01*
X91840Y419375D01*
X91354Y418538D01*
X91337Y418490D01*
X91297Y418407D01*
X91010Y417483D01*
X91004Y417433D01*
X90983Y417343D01*
X90917Y416478D01*
X90915Y416470D01*
X90915Y416452D01*
X90912Y416411D01*
X90908Y416382D01*
X90908Y416330D01*
X90913Y416303D01*
X91016Y415336D01*
X91030Y415288D01*
X91047Y415197D01*
X91366Y414267D01*
X91391Y414223D01*
X91427Y414138D01*
X91946Y413302D01*
X91979Y413265D01*
X92034Y413191D01*
X92725Y412491D01*
X92767Y412462D01*
X92836Y412401D01*
X93666Y411873D01*
X93713Y411854D01*
X93794Y411811D01*
X94721Y411480D01*
X94771Y411472D01*
X94859Y411448D01*
X95812Y411335D01*
X95916Y411315D01*
X95920Y411315D01*
X95923Y411313D01*
X96111Y411307D01*
X97069Y411418D01*
G37*
G36*
X32045Y411393D02*
X32045Y411393D01*
X32093Y411407D01*
X32183Y411425D01*
X33092Y411746D01*
X33136Y411771D01*
X33220Y411808D01*
X34035Y412323D01*
X34072Y412357D01*
X34145Y412412D01*
X34825Y413096D01*
X34854Y413137D01*
X34913Y413207D01*
X35424Y414025D01*
X35442Y414072D01*
X35485Y414153D01*
X35800Y415064D01*
X35808Y415114D01*
X35832Y415203D01*
X35937Y416161D01*
X35934Y416191D01*
X35940Y416230D01*
X35940Y416331D01*
X35935Y416359D01*
X35937Y416395D01*
X35838Y417368D01*
X35825Y417417D01*
X35808Y417507D01*
X35496Y418434D01*
X35471Y418478D01*
X35436Y418563D01*
X34925Y419397D01*
X34891Y419435D01*
X34837Y419509D01*
X34153Y420209D01*
X34112Y420238D01*
X34043Y420298D01*
X33221Y420828D01*
X33174Y420848D01*
X33094Y420892D01*
X32174Y421225D01*
X32125Y421234D01*
X32036Y421259D01*
X31065Y421379D01*
X31055Y421379D01*
X31043Y421382D01*
X30740Y421409D01*
X30690Y421404D01*
X30591Y421404D01*
X29634Y421262D01*
X29586Y421246D01*
X29496Y421226D01*
X28594Y420874D01*
X28551Y420848D01*
X28469Y420808D01*
X27668Y420265D01*
X27632Y420229D01*
X27560Y420172D01*
X26900Y419464D01*
X26873Y419422D01*
X26816Y419350D01*
X26330Y418513D01*
X26313Y418465D01*
X26273Y418382D01*
X25986Y417458D01*
X25980Y417408D01*
X25959Y417318D01*
X25893Y416453D01*
X25891Y416445D01*
X25891Y416427D01*
X25888Y416386D01*
X25884Y416357D01*
X25884Y416305D01*
X25889Y416278D01*
X25992Y415311D01*
X26006Y415263D01*
X26023Y415172D01*
X26342Y414242D01*
X26367Y414198D01*
X26403Y414113D01*
X26922Y413277D01*
X26955Y413240D01*
X27010Y413166D01*
X27701Y412466D01*
X27743Y412437D01*
X27812Y412376D01*
X28642Y411848D01*
X28689Y411829D01*
X28770Y411786D01*
X29697Y411455D01*
X29747Y411447D01*
X29835Y411423D01*
X30788Y411310D01*
X30892Y411290D01*
X30896Y411290D01*
X30899Y411288D01*
X31087Y411282D01*
X32045Y411393D01*
G37*
G36*
X32045Y366155D02*
X32045Y366155D01*
X32093Y366169D01*
X32183Y366187D01*
X33092Y366508D01*
X33136Y366533D01*
X33220Y366570D01*
X34035Y367085D01*
X34072Y367119D01*
X34145Y367174D01*
X34825Y367858D01*
X34854Y367899D01*
X34913Y367969D01*
X35424Y368787D01*
X35442Y368834D01*
X35485Y368915D01*
X35800Y369826D01*
X35808Y369876D01*
X35832Y369965D01*
X35937Y370923D01*
X35934Y370953D01*
X35940Y370992D01*
X35940Y371093D01*
X35935Y371121D01*
X35937Y371157D01*
X35838Y372130D01*
X35825Y372179D01*
X35808Y372269D01*
X35496Y373196D01*
X35471Y373240D01*
X35436Y373325D01*
X34925Y374159D01*
X34891Y374197D01*
X34837Y374271D01*
X34153Y374971D01*
X34112Y375000D01*
X34043Y375060D01*
X33221Y375590D01*
X33174Y375610D01*
X33094Y375654D01*
X32174Y375987D01*
X32125Y375996D01*
X32036Y376021D01*
X31065Y376141D01*
X31055Y376141D01*
X31043Y376144D01*
X30740Y376171D01*
X30690Y376166D01*
X30591Y376166D01*
X29634Y376024D01*
X29586Y376008D01*
X29496Y375988D01*
X28594Y375636D01*
X28551Y375610D01*
X28469Y375570D01*
X27668Y375027D01*
X27632Y374991D01*
X27560Y374934D01*
X26900Y374226D01*
X26873Y374184D01*
X26816Y374112D01*
X26330Y373275D01*
X26313Y373227D01*
X26273Y373144D01*
X25986Y372220D01*
X25980Y372170D01*
X25959Y372080D01*
X25893Y371215D01*
X25891Y371207D01*
X25891Y371189D01*
X25888Y371148D01*
X25884Y371119D01*
X25884Y371067D01*
X25889Y371040D01*
X25992Y370073D01*
X26006Y370025D01*
X26023Y369934D01*
X26342Y369004D01*
X26367Y368960D01*
X26403Y368875D01*
X26922Y368039D01*
X26955Y368002D01*
X27010Y367928D01*
X27701Y367228D01*
X27743Y367199D01*
X27812Y367138D01*
X28642Y366610D01*
X28689Y366591D01*
X28770Y366548D01*
X29697Y366217D01*
X29747Y366209D01*
X29835Y366185D01*
X30788Y366072D01*
X30892Y366052D01*
X30896Y366052D01*
X30899Y366050D01*
X31087Y366044D01*
X32045Y366155D01*
G37*
G36*
X97120Y366130D02*
X97120Y366130D01*
X97168Y366144D01*
X97258Y366162D01*
X98167Y366483D01*
X98211Y366508D01*
X98295Y366545D01*
X99110Y367060D01*
X99147Y367094D01*
X99220Y367149D01*
X99900Y367833D01*
X99929Y367874D01*
X99988Y367944D01*
X100499Y368762D01*
X100517Y368809D01*
X100560Y368890D01*
X100875Y369801D01*
X100883Y369851D01*
X100907Y369940D01*
X101012Y370898D01*
X101009Y370928D01*
X101015Y370967D01*
X101015Y371068D01*
X101010Y371096D01*
X101012Y371132D01*
X100913Y372105D01*
X100900Y372154D01*
X100883Y372244D01*
X100571Y373171D01*
X100546Y373215D01*
X100511Y373300D01*
X100000Y374134D01*
X99966Y374172D01*
X99912Y374246D01*
X99228Y374946D01*
X99187Y374975D01*
X99118Y375035D01*
X98296Y375565D01*
X98249Y375585D01*
X98169Y375629D01*
X97249Y375962D01*
X97200Y375971D01*
X97111Y375996D01*
X96140Y376116D01*
X96130Y376116D01*
X96118Y376119D01*
X95815Y376146D01*
X95765Y376141D01*
X95666Y376141D01*
X94709Y375999D01*
X94661Y375983D01*
X94571Y375963D01*
X93669Y375611D01*
X93626Y375585D01*
X93544Y375545D01*
X92743Y375002D01*
X92707Y374966D01*
X92635Y374909D01*
X91975Y374201D01*
X91948Y374159D01*
X91891Y374087D01*
X91405Y373250D01*
X91388Y373202D01*
X91348Y373119D01*
X91061Y372195D01*
X91055Y372145D01*
X91034Y372055D01*
X90968Y371190D01*
X90966Y371182D01*
X90966Y371164D01*
X90963Y371123D01*
X90959Y371094D01*
X90959Y371042D01*
X90964Y371015D01*
X91067Y370048D01*
X91081Y370000D01*
X91098Y369909D01*
X91417Y368979D01*
X91442Y368935D01*
X91478Y368850D01*
X91997Y368014D01*
X92030Y367977D01*
X92085Y367903D01*
X92776Y367203D01*
X92818Y367174D01*
X92887Y367113D01*
X93717Y366585D01*
X93764Y366566D01*
X93845Y366523D01*
X94772Y366192D01*
X94822Y366184D01*
X94910Y366160D01*
X95863Y366047D01*
X95967Y366027D01*
X95971Y366027D01*
X95974Y366025D01*
X96162Y366019D01*
X97120Y366130D01*
G37*
D10*
X38100Y965200D03*
X723900Y965200D03*
X38100Y38100D03*
X723900Y38100D03*
D11*
X711200Y431800D03*
D12*
X736600Y431800D03*
D13*
X139700Y751078D02*
X114300Y751078D01*
X114300Y976122D02*
X139700Y976122D01*
X622300Y976122D02*
X647700Y976122D01*
X647700Y751078D02*
X622300Y751078D01*
D14*
X70612Y304800D02*
X56388Y304800D01*
X56388Y279400D02*
X70612Y279400D01*
X70612Y254000D02*
X56388Y254000D01*
D15*
X50800Y469900D03*
X76200Y469900D03*
D16*
X203200Y469900D03*
X101600Y469900D03*
D17*
X730400Y381000D03*
X710400Y381000D03*
X690400Y381000D03*
X670400Y381000D03*
X650400Y381000D03*
X630400Y381000D03*
X610400Y381000D03*
X590400Y381000D03*
D18*
X317500Y641160D02*
X317500Y654240D01*
X342900Y654240D02*
X342900Y641160D01*
X368300Y641160D02*
X368300Y654240D01*
X393700Y654240D02*
X393700Y641160D01*
X419100Y641160D02*
X419100Y654240D01*
X444500Y654240D02*
X444500Y641160D01*
X311340Y622300D02*
X298260Y622300D01*
X298260Y596900D02*
X311340Y596900D01*
X311340Y571500D02*
X298260Y571500D01*
X298260Y546100D02*
X311340Y546100D01*
X311340Y520700D02*
X298260Y520700D01*
X298260Y495300D02*
X311340Y495300D01*
X311340Y469900D02*
X298260Y469900D01*
X298260Y444500D02*
X311340Y444500D01*
X311340Y419100D02*
X298260Y419100D01*
X298260Y393700D02*
X311340Y393700D01*
X311340Y368300D02*
X298260Y368300D01*
X298260Y342900D02*
X311340Y342900D01*
X450660Y622300D02*
X463740Y622300D01*
X463740Y596900D02*
X450660Y596900D01*
X450660Y571500D02*
X463740Y571500D01*
X463740Y546100D02*
X450660Y546100D01*
X450660Y520700D02*
X463740Y520700D01*
X463740Y495300D02*
X450660Y495300D01*
X450660Y469900D02*
X463740Y469900D01*
X463740Y444500D02*
X450660Y444500D01*
X450660Y419100D02*
X463740Y419100D01*
X463740Y393700D02*
X450660Y393700D01*
X450660Y368300D02*
X463740Y368300D01*
X463740Y342900D02*
X450660Y342900D01*
X419100Y349440D02*
X419100Y336360D01*
X393700Y336360D02*
X393700Y349440D01*
X368300Y349440D02*
X368300Y336360D01*
D19*
X419100Y533400D03*
X419100Y508000D03*
D20*
X212500Y834300D03*
X212500Y893300D03*
X548500Y954300D03*
X548500Y774300D03*
D21*
X355600Y165100D03*
X355600Y139700D03*
X533400Y165100D03*
X533400Y139700D03*
X355600Y114300D03*
X355600Y190500D03*
X533400Y190500D03*
X533400Y114300D03*
X355600Y215900D03*
X533400Y215900D03*
X355600Y88900D03*
X533400Y88900D03*
X355600Y241300D03*
X533400Y241300D03*
X355600Y63500D03*
X533400Y63500D03*
D22*
X86678Y685800D02*
X65723Y685800D01*
X65723Y635000D02*
X86678Y635000D01*
X86678Y165100D02*
X65723Y165100D01*
X65723Y114300D02*
X86678Y114300D01*
D15*
X203200Y254000D03*
X190500Y273050D03*
X177800Y254000D03*
X241300Y279400D03*
X342900Y279400D03*
D23*
X294700Y78500D03*
X174700Y198500D03*
X154700Y138500D03*
X294700Y198500D03*
X174700Y78500D03*
D24*
X114300Y88900D03*
X114300Y190500D03*
D25*
X241300Y355600D03*
M02*
