M48
;GenerationSoftware,Autodesk,EAGLE,9.3.1*%
;CreationDate,2019-07-21T13:06:47Z*%
FMAT,2
ICI,OFF
METRIC,TZ,000.000
T8C0.800
T7C0.813
T6C0.900
T5C0.914
T4C1.016
T3C1.321
T2C1.397
T1C3.500
%
G90
M71
T1
X3810Y96520
X96520Y76200
X63500Y16510
X3810Y3810
T2
X94297Y45275
X94297Y40196
X94234Y67628
X94234Y62547
X94234Y57467
X8255Y84201
X7620Y16510
X7620Y24130
X7620Y29210
X8255Y89281
X7620Y36830
X7620Y11430
X7620Y41910
X7620Y49530
X7620Y54610
X94361Y15621
X94361Y10541
X94361Y5461
X94361Y33020
X94361Y27940
X94361Y22860
X94297Y50355
T3
X17209Y97231
X17209Y74727
X69152Y97231
X69152Y74727
T4
X19761Y24727
X13259Y24727
X19761Y29248
X13259Y29248
X19761Y12281
X13259Y12281
X19761Y16802
X17729Y62700
X11227Y62700
X17729Y67221
X19698Y50127
X19698Y54648
X13195Y54648
X11227Y67221
X13259Y16802
X13195Y50127
X19698Y37173
X13195Y37173
X19698Y41694
X13195Y41694
T5
X5207Y75311
X5207Y77851
T6
X72112Y62618
X86112Y56618
X74176Y4612
X86176Y16612
X72176Y10612
X74176Y16612
X86176Y4612
X74176Y21883
X86176Y33884
X72176Y27883
X74176Y33884
X86176Y21883
X74112Y68618
X74176Y39219
X86176Y51219
X72176Y45219
X74176Y51219
X86176Y39219
X74112Y56618
X86112Y68618
T7
X48260Y38672
X48260Y41212
X77724Y95504
X77724Y92964
X82868Y95504
X82868Y92964
X77661Y80010
X77661Y90170
X82804Y79947
X82804Y90106
X10541Y70295
X3048Y70358
X5588Y70358
X65850Y43751
X58229Y43751
X58229Y53911
X65850Y46291
X58229Y51371
X58229Y56451
X58229Y58991
X58229Y46291
X58229Y48831
X58229Y64071
X58229Y61531
X65850Y51371
X65850Y53911
X65850Y56451
X65850Y58991
X65850Y61531
X65850Y64071
X65850Y48831
X87884Y80074
X87884Y90233
X92710Y80010
X92710Y90170
X87884Y95567
X87884Y93027
X92710Y95567
X92710Y93027
X20701Y70295
T8
X55514Y26670
X53514Y26670
X51514Y26670
X47514Y26670
X45514Y26670
X43514Y26670
X41514Y26670
X26987Y62039
X29527Y62039
X32067Y62039
X34608Y62039
X37148Y62039
X39688Y62039
X25717Y59499
X40958Y56959
X40958Y59499
X25717Y31559
X25717Y34100
X25717Y36640
X25717Y39180
X25717Y41720
X25717Y44259
X25717Y46799
X25717Y49339
X25717Y51879
X25717Y54419
X25717Y56959
X37148Y31559
X40958Y39180
X40958Y46799
X40958Y41720
X40958Y44259
X40958Y49339
X49514Y26670
X40958Y51879
X59930Y77430
X59930Y95430
X26330Y89330
X26330Y83430
X37148Y48069
X37148Y50609
X32067Y31559
X34608Y31559
X40958Y31559
X40958Y34100
X40958Y36640
X40958Y54419
M30