M48
;GenerationSoftware,Autodesk,EAGLE,9.4.2*%
;CreationDate,2019-08-10T20:09:07Z*%
FMAT,2
ICI,OFF
METRIC,TZ,000.000
T9C0.350
T8C0.800
T7C0.813
T6C0.914
T5C1.016
T4C1.118
T3C1.321
T2C1.397
T1C3.500
%
G90
M71
T1
X3000Y75500
X3000Y3000
X100000Y3000
X100000Y75500
T2
X88110Y7060
X83030Y7060
T3
X97652Y65430
X75148Y65430
X75678Y15070
X98182Y15070
T4
X55640Y73690
X68340Y73690
X58180Y73690
X65800Y73690
X63260Y73690
X60720Y73690
T5
X110751Y12261
X104249Y12261
X-749Y67739
X-7251Y67739
X-749Y72261
X23319Y3499
X110751Y52739
X110751Y22739
X104249Y7739
X23319Y8021
X29821Y8021
X-7251Y72261
X29821Y3499
X-7251Y57261
X110751Y7739
X-7251Y42261
X-749Y42261
X-7251Y37739
X-749Y37739
X-7251Y12261
X-749Y57261
X-7251Y52739
X-749Y52739
X-7251Y27261
X-749Y27261
X-7251Y22739
X-749Y22739
X-749Y12261
X-7251Y7739
X-749Y7739
X104249Y72261
X110751Y72261
X104249Y67739
X110751Y67739
X104249Y57261
X110751Y57261
X104249Y52739
X104249Y42261
X110751Y42261
X104249Y37739
X110751Y37739
X104249Y27261
X110751Y27261
X104249Y22739
T6
X4130Y46840
X4130Y44300
X49420Y67130
X46880Y67130
X4130Y29150
X4130Y31690
X4130Y34230
X4130Y36770
X4130Y39220
X4130Y41760
X44340Y67130
T7
X22090Y23620
X22090Y21080
X22090Y18540
X22090Y16000
X22090Y31240
X39430Y3250
X45870Y3250
X48410Y3250
X47870Y44987
X47870Y49813
X59250Y46410
X59250Y36250
X41750Y8390
X41750Y18550
X45750Y6190
X45750Y16350
X41970Y3250
X66170Y36480
X68710Y36480
X55010Y50370
X52470Y50370
X55090Y44370
X52550Y44370
X37330Y46480
X37330Y16000
X37330Y18540
X37330Y31240
X37330Y33780
X37330Y21080
X37330Y23620
X37330Y28700
X37330Y26160
X37330Y36320
X37330Y38860
X37330Y41400
X37330Y43940
X37330Y49020
X37330Y51560
X37330Y54100
X37330Y56640
X37330Y59180
X37330Y61720
X37330Y64260
X22090Y64260
X22090Y61720
X22090Y59180
X22090Y56640
X22090Y54100
X22090Y51560
X22090Y49020
X39320Y73780
X22090Y46480
X22090Y43940
X22090Y41400
X22090Y38860
X22090Y36320
X22090Y33780
X22090Y28700
X22090Y26160
X65860Y66660
X63320Y66660
X41860Y73780
T8
X56590Y32400
X54590Y32400
X89730Y23630
X83830Y23630
X77730Y57230
X95730Y57230
X68590Y32400
X66590Y32400
X64590Y32400
X62590Y32400
X60590Y32400
X58590Y32400
T9
X9500Y55500
X9500Y50500
X52000Y68000
X28000Y40500
X35000Y35000
X27000Y22500
M30