G04 EAGLE Gerber RS-274X export*
G75*
%MOMM*%
%FSLAX34Y34*%
%LPD*%
%INTop Copper*%
%IPPOS*%
%AMOC8*
5,1,8,0,0,1.08239X$1,22.5*%
G01*
%ADD10P,1.732040X8X112.500000*%
%ADD11C,1.600200*%
%ADD12C,1.879600*%
%ADD13C,2.540000*%
%ADD14P,1.429621X8X22.500000*%
%ADD15C,1.422400*%
%ADD16C,1.308000*%
%ADD17C,1.308000*%
%ADD18R,1.308000X1.308000*%
%ADD19C,2.095500*%
%ADD20C,0.254000*%
%ADD21C,0.756400*%
%ADD22C,1.016000*%


D10*
X774700Y177800D03*
D11*
X774700Y152400D03*
D12*
X665988Y657606D03*
X731012Y657606D03*
X665988Y612394D03*
X731012Y612394D03*
D13*
X52578Y685800D02*
X52578Y711200D01*
X277622Y711200D02*
X277622Y685800D01*
X52578Y203200D02*
X52578Y177800D01*
X277622Y177800D02*
X277622Y203200D01*
D14*
X685800Y495300D03*
X711200Y495300D03*
X647700Y558800D03*
X749300Y558800D03*
D15*
X723900Y145900D03*
X723900Y165900D03*
X723900Y185900D03*
X723900Y205900D03*
X723900Y225900D03*
X723900Y245900D03*
X723900Y265900D03*
X723900Y285900D03*
D16*
X419100Y653860D02*
X419100Y666940D01*
X444500Y666940D02*
X444500Y653860D01*
X469900Y653860D02*
X469900Y666940D01*
X495300Y666940D02*
X495300Y653860D01*
X520700Y653860D02*
X520700Y666940D01*
X546100Y666940D02*
X546100Y653860D01*
X412940Y635000D02*
X399860Y635000D01*
X399860Y609600D02*
X412940Y609600D01*
X412940Y584200D02*
X399860Y584200D01*
X399860Y558800D02*
X412940Y558800D01*
X412940Y533400D02*
X399860Y533400D01*
X399860Y508000D02*
X412940Y508000D01*
X412940Y482600D02*
X399860Y482600D01*
X399860Y457200D02*
X412940Y457200D01*
X412940Y431800D02*
X399860Y431800D01*
X399860Y406400D02*
X412940Y406400D01*
X412940Y381000D02*
X399860Y381000D01*
X399860Y355600D02*
X412940Y355600D01*
X552260Y635000D02*
X565340Y635000D01*
X565340Y609600D02*
X552260Y609600D01*
X552260Y584200D02*
X565340Y584200D01*
X565340Y558800D02*
X552260Y558800D01*
X552260Y533400D02*
X565340Y533400D01*
X565340Y508000D02*
X552260Y508000D01*
X552260Y482600D02*
X565340Y482600D01*
X565340Y457200D02*
X552260Y457200D01*
X552260Y431800D02*
X565340Y431800D01*
X565340Y406400D02*
X552260Y406400D01*
X552260Y381000D02*
X565340Y381000D01*
X565340Y355600D02*
X552260Y355600D01*
X520700Y362140D02*
X520700Y349060D01*
X495300Y349060D02*
X495300Y362140D01*
X469900Y362140D02*
X469900Y349060D01*
D17*
X520700Y546100D03*
X520700Y520700D03*
D18*
X135800Y613000D03*
X194800Y613000D03*
X255800Y277000D03*
X75800Y277000D03*
D19*
X165100Y802323D02*
X165100Y823278D01*
X114300Y823278D02*
X114300Y802323D01*
X101600Y61278D02*
X101600Y40323D01*
X152400Y40323D02*
X152400Y61278D01*
X203200Y61278D02*
X203200Y40323D01*
X279400Y40323D02*
X279400Y61278D01*
X330200Y61278D02*
X330200Y40323D01*
X381000Y40323D02*
X381000Y61278D01*
X457200Y61278D02*
X457200Y40323D01*
X508000Y40323D02*
X508000Y61278D01*
X558800Y61278D02*
X558800Y40323D01*
X635000Y40323D02*
X635000Y61278D01*
X685800Y61278D02*
X685800Y40323D01*
X736600Y40323D02*
X736600Y61278D01*
X723900Y853123D02*
X723900Y874078D01*
X673100Y874078D02*
X673100Y853123D01*
X622300Y853123D02*
X622300Y874078D01*
X546100Y874078D02*
X546100Y853123D01*
X495300Y853123D02*
X495300Y874078D01*
X444500Y874078D02*
X444500Y853123D01*
X368300Y853123D02*
X368300Y874078D01*
X317500Y874078D02*
X317500Y853123D01*
X266700Y853123D02*
X266700Y874078D01*
D20*
X203200Y50800D02*
X203200Y38100D01*
X228600Y12700D01*
X355600Y12700D01*
X381000Y38100D01*
X381000Y50800D01*
X381000Y38100D02*
X406400Y12700D01*
X533400Y12700D01*
X558800Y38100D01*
X558800Y50800D01*
X736600Y50800D02*
X736600Y38100D01*
X711200Y12700D01*
X584200Y12700D01*
X558800Y38100D01*
X406400Y558800D02*
X292100Y558800D01*
X255800Y522500D02*
X255800Y277000D01*
X255800Y522500D02*
X292100Y558800D01*
X255800Y277000D02*
X203200Y224400D01*
X203200Y50800D01*
X330200Y558800D02*
X406400Y558800D01*
X330200Y558800D02*
X317500Y571500D01*
X317500Y749300D01*
X266700Y800100D01*
X266700Y863600D01*
X637794Y612394D02*
X665988Y612394D01*
X637794Y612394D02*
X596900Y571500D01*
X444500Y571500D01*
X419100Y546100D02*
X381000Y546100D01*
X368300Y533400D01*
X368300Y482600D01*
X381000Y469900D01*
X419100Y469900D01*
X431800Y457200D01*
D21*
X431800Y457200D03*
D20*
X419100Y546100D02*
X444500Y571500D01*
D21*
X495300Y546100D03*
D20*
X469900Y546100D01*
D21*
X469900Y546100D03*
X342900Y698500D03*
D20*
X558800Y698500D01*
D21*
X558800Y698500D03*
D22*
X277622Y698500D02*
X239522Y660400D01*
X165100Y660400D01*
X135800Y631100D01*
X135800Y613000D01*
D20*
X406400Y533400D02*
X533400Y533400D01*
X546100Y520700D01*
X584200Y520700D01*
X635000Y469900D01*
X635000Y406400D01*
X660400Y381000D01*
X673100Y381000D01*
X762000Y292100D01*
X762000Y279400D01*
X748500Y265900D02*
X723900Y265900D01*
X748500Y265900D02*
X762000Y279400D01*
D21*
X596900Y330200D03*
D20*
X596900Y393700D01*
X584200Y406400D01*
X558800Y406400D01*
X558800Y431800D02*
X584200Y431800D01*
X698500Y317500D01*
X698500Y228600D01*
X721200Y205900D02*
X723900Y205900D01*
X721200Y205900D02*
X698500Y228600D01*
D22*
X165100Y698500D02*
X165100Y812800D01*
X165100Y698500D02*
X52578Y698500D01*
D21*
X393700Y241300D03*
D20*
X393700Y304800D01*
X431800Y342900D01*
X431800Y431800D01*
X482600Y482600D01*
X495300Y482600D01*
D21*
X495300Y482600D03*
X406400Y241300D03*
D20*
X406400Y304800D01*
X444500Y342900D01*
X444500Y431800D01*
X482600Y469900D01*
X495300Y469900D01*
D21*
X495300Y469900D03*
X419100Y241300D03*
D20*
X419100Y304800D01*
X457200Y342900D01*
X457200Y431800D01*
X482600Y457200D01*
X495300Y457200D01*
D21*
X495300Y457200D03*
D20*
X533400Y508000D02*
X520700Y520700D01*
X533400Y508000D02*
X533400Y317500D01*
X635000Y215900D01*
X635000Y50800D01*
D21*
X596900Y762000D03*
D20*
X711200Y762000D01*
X723900Y774700D01*
X723900Y863600D01*
X406400Y457200D02*
X368300Y457200D01*
X330200Y419100D02*
X330200Y50800D01*
X330200Y419100D02*
X368300Y457200D01*
X317500Y863600D02*
X317500Y876300D01*
X340870Y899670D01*
X469900Y899670D01*
X493270Y876300D01*
X495300Y876300D01*
X495300Y863600D01*
X673100Y863600D02*
X673100Y876300D01*
X649730Y899670D01*
X518670Y899670D02*
X495300Y876300D01*
X518670Y899670D02*
X649730Y899670D01*
M02*
