G04 EAGLE Gerber RS-274X export*
G75*
%MOMM*%
%FSLAX34Y34*%
%LPD*%
%INSilkscreen Bottom*%
%IPPOS*%
%AMOC8*
5,1,8,0,0,1.08239X$1,22.5*%
G01*
%ADD10C,0.203200*%


D10*
X318516Y102616D02*
X318516Y125984D01*
X318516Y115598D02*
X331498Y115598D01*
X331498Y125984D02*
X331498Y102616D01*
X340934Y115598D02*
X347425Y115598D01*
X347584Y115596D01*
X347743Y115590D01*
X347903Y115580D01*
X348061Y115567D01*
X348220Y115549D01*
X348377Y115528D01*
X348535Y115502D01*
X348691Y115473D01*
X348847Y115440D01*
X349002Y115403D01*
X349156Y115363D01*
X349309Y115318D01*
X349461Y115270D01*
X349612Y115219D01*
X349761Y115163D01*
X349909Y115104D01*
X350055Y115041D01*
X350200Y114975D01*
X350343Y114905D01*
X350485Y114832D01*
X350624Y114755D01*
X350762Y114675D01*
X350898Y114591D01*
X351031Y114504D01*
X351163Y114414D01*
X351292Y114321D01*
X351418Y114224D01*
X351543Y114125D01*
X351665Y114022D01*
X351784Y113917D01*
X351901Y113808D01*
X352015Y113697D01*
X352126Y113583D01*
X352235Y113466D01*
X352340Y113347D01*
X352443Y113225D01*
X352542Y113100D01*
X352639Y112974D01*
X352732Y112845D01*
X352822Y112713D01*
X352909Y112580D01*
X352993Y112444D01*
X353073Y112306D01*
X353150Y112167D01*
X353223Y112025D01*
X353293Y111882D01*
X353359Y111737D01*
X353422Y111591D01*
X353481Y111443D01*
X353537Y111294D01*
X353588Y111143D01*
X353636Y110991D01*
X353681Y110838D01*
X353721Y110684D01*
X353758Y110529D01*
X353791Y110373D01*
X353820Y110217D01*
X353846Y110059D01*
X353867Y109902D01*
X353885Y109743D01*
X353898Y109585D01*
X353908Y109425D01*
X353914Y109266D01*
X353916Y109107D01*
X353914Y108948D01*
X353908Y108789D01*
X353898Y108629D01*
X353885Y108471D01*
X353867Y108312D01*
X353846Y108155D01*
X353820Y107997D01*
X353791Y107841D01*
X353758Y107685D01*
X353721Y107530D01*
X353681Y107376D01*
X353636Y107223D01*
X353588Y107071D01*
X353537Y106920D01*
X353481Y106771D01*
X353422Y106623D01*
X353359Y106477D01*
X353293Y106332D01*
X353223Y106189D01*
X353150Y106047D01*
X353073Y105908D01*
X352993Y105770D01*
X352909Y105634D01*
X352822Y105501D01*
X352732Y105369D01*
X352639Y105240D01*
X352542Y105114D01*
X352443Y104989D01*
X352340Y104867D01*
X352235Y104748D01*
X352126Y104631D01*
X352015Y104517D01*
X351901Y104406D01*
X351784Y104297D01*
X351665Y104192D01*
X351543Y104089D01*
X351418Y103990D01*
X351292Y103893D01*
X351163Y103800D01*
X351031Y103710D01*
X350898Y103623D01*
X350762Y103539D01*
X350624Y103459D01*
X350485Y103382D01*
X350343Y103309D01*
X350200Y103239D01*
X350055Y103173D01*
X349909Y103110D01*
X349761Y103051D01*
X349612Y102995D01*
X349461Y102944D01*
X349309Y102896D01*
X349156Y102851D01*
X349002Y102811D01*
X348847Y102774D01*
X348691Y102741D01*
X348535Y102712D01*
X348377Y102686D01*
X348220Y102665D01*
X348061Y102647D01*
X347903Y102634D01*
X347743Y102624D01*
X347584Y102618D01*
X347425Y102616D01*
X340934Y102616D01*
X340934Y125984D01*
X347425Y125984D01*
X347568Y125982D01*
X347711Y125976D01*
X347854Y125966D01*
X347996Y125952D01*
X348138Y125935D01*
X348280Y125913D01*
X348421Y125888D01*
X348561Y125858D01*
X348700Y125825D01*
X348838Y125788D01*
X348975Y125747D01*
X349111Y125703D01*
X349246Y125654D01*
X349379Y125602D01*
X349511Y125547D01*
X349641Y125487D01*
X349770Y125424D01*
X349897Y125358D01*
X350022Y125288D01*
X350144Y125215D01*
X350265Y125138D01*
X350384Y125058D01*
X350500Y124975D01*
X350615Y124889D01*
X350726Y124800D01*
X350836Y124707D01*
X350942Y124612D01*
X351046Y124513D01*
X351147Y124412D01*
X351246Y124308D01*
X351341Y124202D01*
X351434Y124092D01*
X351523Y123981D01*
X351609Y123866D01*
X351692Y123750D01*
X351772Y123631D01*
X351849Y123510D01*
X351922Y123387D01*
X351992Y123263D01*
X352058Y123136D01*
X352121Y123007D01*
X352181Y122877D01*
X352236Y122745D01*
X352288Y122612D01*
X352337Y122477D01*
X352381Y122341D01*
X352422Y122204D01*
X352459Y122066D01*
X352492Y121927D01*
X352522Y121787D01*
X352547Y121646D01*
X352569Y121504D01*
X352586Y121362D01*
X352600Y121220D01*
X352610Y121077D01*
X352616Y120934D01*
X352618Y120791D01*
X352616Y120648D01*
X352610Y120505D01*
X352600Y120362D01*
X352586Y120220D01*
X352569Y120078D01*
X352547Y119936D01*
X352522Y119795D01*
X352492Y119655D01*
X352459Y119516D01*
X352422Y119378D01*
X352381Y119241D01*
X352337Y119105D01*
X352288Y118970D01*
X352236Y118837D01*
X352181Y118705D01*
X352121Y118575D01*
X352058Y118446D01*
X351992Y118319D01*
X351922Y118194D01*
X351849Y118072D01*
X351772Y117951D01*
X351692Y117832D01*
X351609Y117716D01*
X351523Y117601D01*
X351434Y117490D01*
X351341Y117380D01*
X351246Y117274D01*
X351147Y117170D01*
X351046Y117069D01*
X350942Y116970D01*
X350836Y116875D01*
X350726Y116782D01*
X350615Y116693D01*
X350500Y116607D01*
X350384Y116524D01*
X350265Y116444D01*
X350144Y116367D01*
X350022Y116294D01*
X349897Y116224D01*
X349770Y116158D01*
X349641Y116095D01*
X349511Y116035D01*
X349379Y115980D01*
X349246Y115928D01*
X349111Y115879D01*
X348975Y115835D01*
X348838Y115794D01*
X348700Y115757D01*
X348561Y115724D01*
X348421Y115694D01*
X348280Y115669D01*
X348138Y115647D01*
X347996Y115630D01*
X347854Y115616D01*
X347711Y115606D01*
X347568Y115600D01*
X347425Y115598D01*
X361063Y111704D02*
X376642Y111704D01*
X385328Y109107D02*
X385328Y125984D01*
X385328Y109107D02*
X385330Y108948D01*
X385336Y108789D01*
X385346Y108629D01*
X385359Y108471D01*
X385377Y108312D01*
X385398Y108155D01*
X385424Y107997D01*
X385453Y107841D01*
X385486Y107685D01*
X385523Y107530D01*
X385563Y107376D01*
X385608Y107223D01*
X385656Y107071D01*
X385707Y106920D01*
X385763Y106771D01*
X385822Y106623D01*
X385885Y106477D01*
X385951Y106332D01*
X386021Y106189D01*
X386094Y106047D01*
X386171Y105908D01*
X386251Y105770D01*
X386335Y105634D01*
X386422Y105501D01*
X386512Y105369D01*
X386605Y105240D01*
X386702Y105114D01*
X386801Y104989D01*
X386904Y104867D01*
X387009Y104748D01*
X387118Y104631D01*
X387229Y104517D01*
X387343Y104406D01*
X387460Y104297D01*
X387579Y104192D01*
X387701Y104089D01*
X387826Y103990D01*
X387952Y103893D01*
X388081Y103800D01*
X388213Y103710D01*
X388346Y103623D01*
X388482Y103539D01*
X388620Y103459D01*
X388759Y103382D01*
X388901Y103309D01*
X389044Y103239D01*
X389189Y103173D01*
X389335Y103110D01*
X389483Y103051D01*
X389632Y102995D01*
X389783Y102944D01*
X389935Y102896D01*
X390088Y102851D01*
X390242Y102811D01*
X390397Y102774D01*
X390553Y102741D01*
X390709Y102712D01*
X390867Y102686D01*
X391024Y102665D01*
X391183Y102647D01*
X391341Y102634D01*
X391501Y102624D01*
X391660Y102618D01*
X391819Y102616D01*
X391978Y102618D01*
X392137Y102624D01*
X392297Y102634D01*
X392455Y102647D01*
X392614Y102665D01*
X392771Y102686D01*
X392929Y102712D01*
X393085Y102741D01*
X393241Y102774D01*
X393396Y102811D01*
X393550Y102851D01*
X393703Y102896D01*
X393855Y102944D01*
X394006Y102995D01*
X394155Y103051D01*
X394303Y103110D01*
X394449Y103173D01*
X394594Y103239D01*
X394737Y103309D01*
X394879Y103382D01*
X395018Y103459D01*
X395156Y103539D01*
X395292Y103623D01*
X395425Y103710D01*
X395557Y103800D01*
X395686Y103893D01*
X395812Y103990D01*
X395937Y104089D01*
X396059Y104192D01*
X396178Y104297D01*
X396295Y104406D01*
X396409Y104517D01*
X396520Y104631D01*
X396629Y104748D01*
X396734Y104867D01*
X396837Y104989D01*
X396936Y105114D01*
X397033Y105240D01*
X397126Y105369D01*
X397216Y105501D01*
X397303Y105634D01*
X397387Y105770D01*
X397467Y105908D01*
X397544Y106047D01*
X397617Y106189D01*
X397687Y106332D01*
X397753Y106477D01*
X397816Y106623D01*
X397875Y106771D01*
X397931Y106920D01*
X397982Y107071D01*
X398030Y107223D01*
X398075Y107376D01*
X398115Y107530D01*
X398152Y107685D01*
X398185Y107841D01*
X398214Y107997D01*
X398240Y108155D01*
X398261Y108312D01*
X398279Y108471D01*
X398292Y108629D01*
X398302Y108789D01*
X398308Y108948D01*
X398310Y109107D01*
X398310Y125984D01*
X407599Y125984D02*
X407599Y102616D01*
X420581Y102616D02*
X407599Y125984D01*
X420581Y125984D02*
X420581Y102616D01*
X431489Y102616D02*
X431489Y125984D01*
X428892Y102616D02*
X434085Y102616D01*
X434085Y125984D02*
X428892Y125984D01*
X441794Y111704D02*
X457373Y111704D01*
X472457Y102616D02*
X472600Y102618D01*
X472743Y102624D01*
X472886Y102634D01*
X473028Y102648D01*
X473170Y102665D01*
X473312Y102687D01*
X473453Y102712D01*
X473593Y102742D01*
X473732Y102775D01*
X473870Y102812D01*
X474007Y102853D01*
X474143Y102897D01*
X474278Y102946D01*
X474411Y102998D01*
X474543Y103053D01*
X474673Y103113D01*
X474802Y103176D01*
X474929Y103242D01*
X475054Y103312D01*
X475176Y103385D01*
X475297Y103462D01*
X475416Y103542D01*
X475532Y103625D01*
X475647Y103711D01*
X475758Y103800D01*
X475868Y103893D01*
X475974Y103988D01*
X476078Y104087D01*
X476179Y104188D01*
X476278Y104292D01*
X476373Y104398D01*
X476466Y104508D01*
X476555Y104619D01*
X476641Y104734D01*
X476724Y104850D01*
X476804Y104969D01*
X476881Y105090D01*
X476954Y105212D01*
X477024Y105337D01*
X477090Y105464D01*
X477153Y105593D01*
X477213Y105723D01*
X477268Y105855D01*
X477320Y105988D01*
X477369Y106123D01*
X477413Y106259D01*
X477454Y106396D01*
X477491Y106534D01*
X477524Y106673D01*
X477554Y106813D01*
X477579Y106954D01*
X477601Y107096D01*
X477618Y107238D01*
X477632Y107380D01*
X477642Y107523D01*
X477648Y107666D01*
X477650Y107809D01*
X472457Y102616D02*
X472195Y102619D01*
X471932Y102629D01*
X471670Y102644D01*
X471409Y102666D01*
X471148Y102694D01*
X470888Y102729D01*
X470628Y102770D01*
X470370Y102816D01*
X470113Y102869D01*
X469857Y102929D01*
X469603Y102994D01*
X469350Y103065D01*
X469100Y103142D01*
X468851Y103226D01*
X468604Y103315D01*
X468359Y103410D01*
X468117Y103511D01*
X467877Y103618D01*
X467640Y103730D01*
X467406Y103848D01*
X467174Y103972D01*
X466946Y104101D01*
X466720Y104236D01*
X466498Y104376D01*
X466279Y104521D01*
X466064Y104671D01*
X465853Y104827D01*
X465645Y104987D01*
X465441Y105153D01*
X465242Y105323D01*
X465046Y105498D01*
X464855Y105677D01*
X464668Y105862D01*
X465316Y120791D02*
X465318Y120934D01*
X465324Y121077D01*
X465334Y121220D01*
X465348Y121362D01*
X465365Y121504D01*
X465387Y121646D01*
X465412Y121787D01*
X465442Y121927D01*
X465475Y122066D01*
X465512Y122204D01*
X465553Y122341D01*
X465597Y122477D01*
X465646Y122612D01*
X465698Y122745D01*
X465753Y122877D01*
X465813Y123007D01*
X465876Y123136D01*
X465942Y123263D01*
X466012Y123388D01*
X466085Y123510D01*
X466162Y123631D01*
X466242Y123750D01*
X466325Y123866D01*
X466411Y123981D01*
X466500Y124092D01*
X466593Y124202D01*
X466688Y124308D01*
X466787Y124412D01*
X466888Y124513D01*
X466992Y124612D01*
X467098Y124707D01*
X467208Y124800D01*
X467319Y124889D01*
X467434Y124975D01*
X467550Y125059D01*
X467669Y125138D01*
X467790Y125215D01*
X467913Y125288D01*
X468037Y125358D01*
X468164Y125424D01*
X468293Y125487D01*
X468423Y125547D01*
X468555Y125602D01*
X468688Y125654D01*
X468823Y125703D01*
X468959Y125747D01*
X469096Y125788D01*
X469234Y125825D01*
X469373Y125858D01*
X469513Y125888D01*
X469654Y125913D01*
X469796Y125935D01*
X469938Y125952D01*
X470080Y125966D01*
X470223Y125976D01*
X470366Y125982D01*
X470509Y125984D01*
X470741Y125981D01*
X470973Y125973D01*
X471205Y125959D01*
X471436Y125940D01*
X471667Y125915D01*
X471897Y125885D01*
X472126Y125849D01*
X472354Y125808D01*
X472582Y125761D01*
X472808Y125709D01*
X473033Y125651D01*
X473256Y125588D01*
X473478Y125520D01*
X473698Y125447D01*
X473916Y125368D01*
X474133Y125285D01*
X474347Y125196D01*
X474559Y125102D01*
X474769Y125003D01*
X474977Y124899D01*
X475181Y124790D01*
X475384Y124676D01*
X475583Y124557D01*
X475780Y124434D01*
X475973Y124306D01*
X476164Y124174D01*
X476351Y124037D01*
X467912Y116247D02*
X467789Y116322D01*
X467668Y116400D01*
X467549Y116482D01*
X467433Y116566D01*
X467319Y116654D01*
X467207Y116745D01*
X467097Y116839D01*
X466991Y116936D01*
X466887Y117036D01*
X466786Y117138D01*
X466687Y117244D01*
X466592Y117352D01*
X466499Y117462D01*
X466410Y117575D01*
X466324Y117691D01*
X466240Y117808D01*
X466161Y117928D01*
X466084Y118050D01*
X466011Y118174D01*
X465941Y118300D01*
X465875Y118428D01*
X465812Y118558D01*
X465753Y118689D01*
X465697Y118822D01*
X465645Y118957D01*
X465597Y119093D01*
X465552Y119230D01*
X465512Y119368D01*
X465475Y119507D01*
X465441Y119647D01*
X465412Y119788D01*
X465387Y119930D01*
X465365Y120073D01*
X465347Y120216D01*
X465334Y120359D01*
X465324Y120503D01*
X465318Y120647D01*
X465316Y120791D01*
X475053Y112353D02*
X475176Y112278D01*
X475297Y112200D01*
X475416Y112118D01*
X475532Y112034D01*
X475646Y111946D01*
X475758Y111855D01*
X475867Y111761D01*
X475974Y111664D01*
X476078Y111564D01*
X476179Y111462D01*
X476278Y111356D01*
X476373Y111248D01*
X476466Y111138D01*
X476555Y111025D01*
X476641Y110910D01*
X476724Y110792D01*
X476804Y110672D01*
X476881Y110550D01*
X476954Y110426D01*
X477024Y110300D01*
X477090Y110172D01*
X477153Y110042D01*
X477212Y109911D01*
X477268Y109778D01*
X477320Y109643D01*
X477368Y109507D01*
X477413Y109370D01*
X477453Y109232D01*
X477490Y109093D01*
X477524Y108953D01*
X477553Y108812D01*
X477578Y108670D01*
X477600Y108527D01*
X477618Y108384D01*
X477631Y108241D01*
X477641Y108097D01*
X477647Y107953D01*
X477649Y107809D01*
X475053Y112353D02*
X467913Y116247D01*
X485570Y102616D02*
X495956Y102616D01*
X485570Y102616D02*
X485570Y125984D01*
X495956Y125984D01*
X493360Y115598D02*
X485570Y115598D01*
X503641Y125984D02*
X503641Y102616D01*
X516623Y102616D02*
X503641Y125984D01*
X516623Y125984D02*
X516623Y102616D01*
X525309Y111704D02*
X540888Y111704D01*
X554047Y102616D02*
X559240Y102616D01*
X554047Y102616D02*
X553904Y102618D01*
X553761Y102624D01*
X553618Y102634D01*
X553476Y102648D01*
X553334Y102665D01*
X553192Y102687D01*
X553051Y102712D01*
X552911Y102742D01*
X552772Y102775D01*
X552634Y102812D01*
X552497Y102853D01*
X552361Y102897D01*
X552226Y102946D01*
X552093Y102998D01*
X551961Y103053D01*
X551831Y103113D01*
X551702Y103176D01*
X551575Y103242D01*
X551451Y103312D01*
X551328Y103385D01*
X551207Y103462D01*
X551088Y103542D01*
X550972Y103625D01*
X550857Y103711D01*
X550746Y103800D01*
X550636Y103893D01*
X550530Y103988D01*
X550426Y104087D01*
X550325Y104188D01*
X550226Y104292D01*
X550131Y104398D01*
X550038Y104508D01*
X549949Y104619D01*
X549863Y104734D01*
X549780Y104850D01*
X549700Y104969D01*
X549623Y105090D01*
X549550Y105213D01*
X549480Y105337D01*
X549414Y105464D01*
X549351Y105593D01*
X549291Y105723D01*
X549236Y105855D01*
X549184Y105988D01*
X549135Y106123D01*
X549091Y106259D01*
X549050Y106396D01*
X549013Y106534D01*
X548980Y106673D01*
X548950Y106813D01*
X548925Y106954D01*
X548903Y107096D01*
X548886Y107238D01*
X548872Y107380D01*
X548862Y107523D01*
X548856Y107666D01*
X548854Y107809D01*
X548855Y107809D02*
X548855Y120791D01*
X548857Y120934D01*
X548863Y121077D01*
X548873Y121220D01*
X548887Y121362D01*
X548904Y121504D01*
X548926Y121646D01*
X548951Y121787D01*
X548981Y121927D01*
X549014Y122066D01*
X549051Y122204D01*
X549092Y122341D01*
X549136Y122477D01*
X549185Y122612D01*
X549237Y122745D01*
X549292Y122877D01*
X549352Y123007D01*
X549415Y123136D01*
X549481Y123263D01*
X549551Y123387D01*
X549624Y123510D01*
X549701Y123631D01*
X549781Y123750D01*
X549864Y123866D01*
X549950Y123981D01*
X550039Y124092D01*
X550132Y124202D01*
X550227Y124308D01*
X550326Y124412D01*
X550427Y124513D01*
X550531Y124612D01*
X550637Y124707D01*
X550747Y124800D01*
X550858Y124889D01*
X550973Y124975D01*
X551089Y125058D01*
X551208Y125138D01*
X551329Y125215D01*
X551451Y125288D01*
X551576Y125358D01*
X551703Y125424D01*
X551832Y125487D01*
X551962Y125547D01*
X552094Y125602D01*
X552227Y125654D01*
X552362Y125703D01*
X552498Y125747D01*
X552635Y125788D01*
X552773Y125825D01*
X552912Y125858D01*
X553052Y125888D01*
X553193Y125913D01*
X553335Y125935D01*
X553477Y125952D01*
X553619Y125966D01*
X553762Y125976D01*
X553905Y125982D01*
X554048Y125984D01*
X554047Y125984D02*
X559240Y125984D01*
X572768Y125984D02*
X564979Y102616D01*
X580558Y102616D02*
X572768Y125984D01*
X578610Y108458D02*
X566926Y108458D01*
X587999Y102616D02*
X587999Y125984D01*
X594491Y125984D01*
X594650Y125982D01*
X594809Y125976D01*
X594969Y125966D01*
X595127Y125953D01*
X595286Y125935D01*
X595443Y125914D01*
X595601Y125888D01*
X595757Y125859D01*
X595913Y125826D01*
X596068Y125789D01*
X596222Y125749D01*
X596375Y125704D01*
X596527Y125656D01*
X596678Y125605D01*
X596827Y125549D01*
X596975Y125490D01*
X597121Y125427D01*
X597266Y125361D01*
X597409Y125291D01*
X597551Y125218D01*
X597690Y125141D01*
X597828Y125061D01*
X597964Y124977D01*
X598097Y124890D01*
X598229Y124800D01*
X598358Y124707D01*
X598484Y124610D01*
X598609Y124511D01*
X598731Y124408D01*
X598850Y124303D01*
X598967Y124194D01*
X599081Y124083D01*
X599192Y123969D01*
X599301Y123852D01*
X599406Y123733D01*
X599509Y123611D01*
X599608Y123486D01*
X599705Y123360D01*
X599798Y123231D01*
X599888Y123099D01*
X599975Y122966D01*
X600059Y122830D01*
X600139Y122692D01*
X600216Y122553D01*
X600289Y122411D01*
X600359Y122268D01*
X600425Y122123D01*
X600488Y121977D01*
X600547Y121829D01*
X600603Y121680D01*
X600654Y121529D01*
X600702Y121377D01*
X600747Y121224D01*
X600787Y121070D01*
X600824Y120915D01*
X600857Y120759D01*
X600886Y120603D01*
X600912Y120445D01*
X600933Y120288D01*
X600951Y120129D01*
X600964Y119971D01*
X600974Y119811D01*
X600980Y119652D01*
X600982Y119493D01*
X600980Y119334D01*
X600974Y119175D01*
X600964Y119015D01*
X600951Y118857D01*
X600933Y118698D01*
X600912Y118541D01*
X600886Y118383D01*
X600857Y118227D01*
X600824Y118071D01*
X600787Y117916D01*
X600747Y117762D01*
X600702Y117609D01*
X600654Y117457D01*
X600603Y117306D01*
X600547Y117157D01*
X600488Y117009D01*
X600425Y116863D01*
X600359Y116718D01*
X600289Y116575D01*
X600216Y116433D01*
X600139Y116294D01*
X600059Y116156D01*
X599975Y116020D01*
X599888Y115887D01*
X599798Y115755D01*
X599705Y115626D01*
X599608Y115500D01*
X599509Y115375D01*
X599406Y115253D01*
X599301Y115134D01*
X599192Y115017D01*
X599081Y114903D01*
X598967Y114792D01*
X598850Y114683D01*
X598731Y114578D01*
X598609Y114475D01*
X598484Y114376D01*
X598358Y114279D01*
X598229Y114186D01*
X598097Y114096D01*
X597964Y114009D01*
X597828Y113925D01*
X597690Y113845D01*
X597551Y113768D01*
X597409Y113695D01*
X597266Y113625D01*
X597121Y113559D01*
X596975Y113496D01*
X596827Y113437D01*
X596678Y113381D01*
X596527Y113330D01*
X596375Y113282D01*
X596222Y113237D01*
X596068Y113197D01*
X595913Y113160D01*
X595757Y113127D01*
X595601Y113098D01*
X595443Y113072D01*
X595286Y113051D01*
X595127Y113033D01*
X594969Y113020D01*
X594809Y113010D01*
X594650Y113004D01*
X594491Y113002D01*
X587999Y113002D01*
X608128Y111704D02*
X623707Y111704D01*
X632487Y102616D02*
X632487Y125984D01*
X640276Y113002D01*
X648066Y125984D01*
X648066Y102616D01*
X656752Y109107D02*
X656752Y119493D01*
X656754Y119652D01*
X656760Y119811D01*
X656770Y119971D01*
X656783Y120129D01*
X656801Y120288D01*
X656822Y120445D01*
X656848Y120603D01*
X656877Y120759D01*
X656910Y120915D01*
X656947Y121070D01*
X656987Y121224D01*
X657032Y121377D01*
X657080Y121529D01*
X657131Y121680D01*
X657187Y121829D01*
X657246Y121977D01*
X657309Y122123D01*
X657375Y122268D01*
X657445Y122411D01*
X657518Y122553D01*
X657595Y122692D01*
X657675Y122830D01*
X657759Y122966D01*
X657846Y123099D01*
X657936Y123231D01*
X658029Y123360D01*
X658126Y123486D01*
X658225Y123611D01*
X658328Y123733D01*
X658433Y123852D01*
X658542Y123969D01*
X658653Y124083D01*
X658767Y124194D01*
X658884Y124303D01*
X659003Y124408D01*
X659125Y124511D01*
X659250Y124610D01*
X659376Y124707D01*
X659505Y124800D01*
X659637Y124890D01*
X659770Y124977D01*
X659906Y125061D01*
X660044Y125141D01*
X660183Y125218D01*
X660325Y125291D01*
X660468Y125361D01*
X660613Y125427D01*
X660759Y125490D01*
X660907Y125549D01*
X661056Y125605D01*
X661207Y125656D01*
X661359Y125704D01*
X661512Y125749D01*
X661666Y125789D01*
X661821Y125826D01*
X661977Y125859D01*
X662133Y125888D01*
X662291Y125914D01*
X662448Y125935D01*
X662607Y125953D01*
X662765Y125966D01*
X662925Y125976D01*
X663084Y125982D01*
X663243Y125984D01*
X663402Y125982D01*
X663561Y125976D01*
X663721Y125966D01*
X663879Y125953D01*
X664038Y125935D01*
X664195Y125914D01*
X664353Y125888D01*
X664509Y125859D01*
X664665Y125826D01*
X664820Y125789D01*
X664974Y125749D01*
X665127Y125704D01*
X665279Y125656D01*
X665430Y125605D01*
X665579Y125549D01*
X665727Y125490D01*
X665873Y125427D01*
X666018Y125361D01*
X666161Y125291D01*
X666303Y125218D01*
X666442Y125141D01*
X666580Y125061D01*
X666716Y124977D01*
X666849Y124890D01*
X666981Y124800D01*
X667110Y124707D01*
X667236Y124610D01*
X667361Y124511D01*
X667483Y124408D01*
X667602Y124303D01*
X667719Y124194D01*
X667833Y124083D01*
X667944Y123969D01*
X668053Y123852D01*
X668158Y123733D01*
X668261Y123611D01*
X668360Y123486D01*
X668457Y123360D01*
X668550Y123231D01*
X668640Y123099D01*
X668727Y122966D01*
X668811Y122830D01*
X668891Y122692D01*
X668968Y122553D01*
X669041Y122411D01*
X669111Y122268D01*
X669177Y122123D01*
X669240Y121977D01*
X669299Y121829D01*
X669355Y121680D01*
X669406Y121529D01*
X669454Y121377D01*
X669499Y121224D01*
X669539Y121070D01*
X669576Y120915D01*
X669609Y120759D01*
X669638Y120603D01*
X669664Y120445D01*
X669685Y120288D01*
X669703Y120129D01*
X669716Y119971D01*
X669726Y119811D01*
X669732Y119652D01*
X669734Y119493D01*
X669734Y109107D01*
X669732Y108948D01*
X669726Y108789D01*
X669716Y108629D01*
X669703Y108471D01*
X669685Y108312D01*
X669664Y108155D01*
X669638Y107997D01*
X669609Y107841D01*
X669576Y107685D01*
X669539Y107530D01*
X669499Y107376D01*
X669454Y107223D01*
X669406Y107071D01*
X669355Y106920D01*
X669299Y106771D01*
X669240Y106623D01*
X669177Y106477D01*
X669111Y106332D01*
X669041Y106189D01*
X668968Y106047D01*
X668891Y105908D01*
X668811Y105770D01*
X668727Y105634D01*
X668640Y105501D01*
X668550Y105369D01*
X668457Y105240D01*
X668360Y105114D01*
X668261Y104989D01*
X668158Y104867D01*
X668053Y104748D01*
X667944Y104631D01*
X667833Y104517D01*
X667719Y104406D01*
X667602Y104297D01*
X667483Y104192D01*
X667361Y104089D01*
X667236Y103990D01*
X667110Y103893D01*
X666981Y103800D01*
X666849Y103710D01*
X666716Y103623D01*
X666580Y103539D01*
X666442Y103459D01*
X666303Y103382D01*
X666161Y103309D01*
X666018Y103239D01*
X665873Y103173D01*
X665727Y103110D01*
X665579Y103051D01*
X665430Y102995D01*
X665279Y102944D01*
X665127Y102896D01*
X664974Y102851D01*
X664820Y102811D01*
X664665Y102774D01*
X664509Y102741D01*
X664353Y102712D01*
X664195Y102686D01*
X664038Y102665D01*
X663879Y102647D01*
X663721Y102634D01*
X663561Y102624D01*
X663402Y102618D01*
X663243Y102616D01*
X663084Y102618D01*
X662925Y102624D01*
X662765Y102634D01*
X662607Y102647D01*
X662448Y102665D01*
X662291Y102686D01*
X662133Y102712D01*
X661977Y102741D01*
X661821Y102774D01*
X661666Y102811D01*
X661512Y102851D01*
X661359Y102896D01*
X661207Y102944D01*
X661056Y102995D01*
X660907Y103051D01*
X660759Y103110D01*
X660613Y103173D01*
X660468Y103239D01*
X660325Y103309D01*
X660183Y103382D01*
X660044Y103459D01*
X659906Y103539D01*
X659770Y103623D01*
X659637Y103710D01*
X659505Y103800D01*
X659376Y103893D01*
X659250Y103990D01*
X659125Y104089D01*
X659003Y104192D01*
X658884Y104297D01*
X658767Y104406D01*
X658653Y104517D01*
X658542Y104631D01*
X658433Y104748D01*
X658328Y104867D01*
X658225Y104989D01*
X658126Y105114D01*
X658029Y105240D01*
X657936Y105369D01*
X657846Y105501D01*
X657759Y105634D01*
X657675Y105770D01*
X657595Y105908D01*
X657518Y106047D01*
X657445Y106189D01*
X657375Y106332D01*
X657309Y106477D01*
X657246Y106623D01*
X657187Y106771D01*
X657131Y106920D01*
X657080Y107071D01*
X657032Y107223D01*
X656987Y107376D01*
X656947Y107530D01*
X656910Y107685D01*
X656877Y107841D01*
X656848Y107997D01*
X656822Y108155D01*
X656801Y108312D01*
X656783Y108471D01*
X656770Y108629D01*
X656760Y108789D01*
X656754Y108948D01*
X656752Y109107D01*
X679946Y102616D02*
X679946Y125984D01*
X677350Y102616D02*
X682542Y102616D01*
X682542Y125984D02*
X677350Y125984D01*
X697251Y102616D02*
X697394Y102618D01*
X697537Y102624D01*
X697680Y102634D01*
X697822Y102648D01*
X697964Y102665D01*
X698106Y102687D01*
X698247Y102712D01*
X698387Y102742D01*
X698526Y102775D01*
X698664Y102812D01*
X698801Y102853D01*
X698937Y102897D01*
X699072Y102946D01*
X699205Y102998D01*
X699337Y103053D01*
X699467Y103113D01*
X699596Y103176D01*
X699723Y103242D01*
X699848Y103312D01*
X699970Y103385D01*
X700091Y103462D01*
X700210Y103542D01*
X700326Y103625D01*
X700441Y103711D01*
X700552Y103800D01*
X700662Y103893D01*
X700768Y103988D01*
X700872Y104087D01*
X700973Y104188D01*
X701072Y104292D01*
X701167Y104398D01*
X701260Y104508D01*
X701349Y104619D01*
X701435Y104734D01*
X701518Y104850D01*
X701598Y104969D01*
X701675Y105090D01*
X701748Y105212D01*
X701818Y105337D01*
X701884Y105464D01*
X701947Y105593D01*
X702007Y105723D01*
X702062Y105855D01*
X702114Y105988D01*
X702163Y106123D01*
X702207Y106259D01*
X702248Y106396D01*
X702285Y106534D01*
X702318Y106673D01*
X702348Y106813D01*
X702373Y106954D01*
X702395Y107096D01*
X702412Y107238D01*
X702426Y107380D01*
X702436Y107523D01*
X702442Y107666D01*
X702444Y107809D01*
X697251Y102616D02*
X696989Y102619D01*
X696726Y102629D01*
X696464Y102644D01*
X696203Y102666D01*
X695942Y102694D01*
X695682Y102729D01*
X695422Y102770D01*
X695164Y102816D01*
X694907Y102869D01*
X694651Y102929D01*
X694397Y102994D01*
X694144Y103065D01*
X693894Y103142D01*
X693645Y103226D01*
X693398Y103315D01*
X693153Y103410D01*
X692911Y103511D01*
X692671Y103618D01*
X692434Y103730D01*
X692200Y103848D01*
X691968Y103972D01*
X691740Y104101D01*
X691514Y104236D01*
X691292Y104376D01*
X691073Y104521D01*
X690858Y104671D01*
X690647Y104827D01*
X690439Y104987D01*
X690235Y105153D01*
X690036Y105323D01*
X689840Y105498D01*
X689649Y105677D01*
X689462Y105862D01*
X690111Y120791D02*
X690113Y120934D01*
X690119Y121077D01*
X690129Y121220D01*
X690143Y121362D01*
X690160Y121504D01*
X690182Y121646D01*
X690207Y121787D01*
X690237Y121927D01*
X690270Y122066D01*
X690307Y122204D01*
X690348Y122341D01*
X690392Y122477D01*
X690441Y122612D01*
X690493Y122745D01*
X690548Y122877D01*
X690608Y123007D01*
X690671Y123136D01*
X690737Y123263D01*
X690807Y123388D01*
X690880Y123510D01*
X690957Y123631D01*
X691037Y123750D01*
X691120Y123866D01*
X691206Y123981D01*
X691295Y124092D01*
X691388Y124202D01*
X691483Y124308D01*
X691582Y124412D01*
X691683Y124513D01*
X691787Y124612D01*
X691893Y124707D01*
X692003Y124800D01*
X692114Y124889D01*
X692229Y124975D01*
X692345Y125059D01*
X692464Y125138D01*
X692585Y125215D01*
X692708Y125288D01*
X692832Y125358D01*
X692959Y125424D01*
X693088Y125487D01*
X693218Y125547D01*
X693350Y125602D01*
X693483Y125654D01*
X693618Y125703D01*
X693754Y125747D01*
X693891Y125788D01*
X694029Y125825D01*
X694168Y125858D01*
X694308Y125888D01*
X694449Y125913D01*
X694591Y125935D01*
X694733Y125952D01*
X694875Y125966D01*
X695018Y125976D01*
X695161Y125982D01*
X695304Y125984D01*
X695536Y125981D01*
X695768Y125973D01*
X696000Y125959D01*
X696231Y125940D01*
X696462Y125915D01*
X696692Y125885D01*
X696921Y125849D01*
X697149Y125808D01*
X697377Y125761D01*
X697603Y125709D01*
X697828Y125651D01*
X698051Y125588D01*
X698273Y125520D01*
X698493Y125447D01*
X698711Y125368D01*
X698928Y125285D01*
X699142Y125196D01*
X699354Y125102D01*
X699564Y125003D01*
X699772Y124899D01*
X699976Y124790D01*
X700179Y124676D01*
X700378Y124557D01*
X700575Y124434D01*
X700768Y124306D01*
X700959Y124174D01*
X701146Y124037D01*
X692707Y116247D02*
X692584Y116322D01*
X692463Y116400D01*
X692344Y116482D01*
X692228Y116566D01*
X692114Y116654D01*
X692002Y116745D01*
X691892Y116839D01*
X691786Y116936D01*
X691682Y117036D01*
X691581Y117138D01*
X691482Y117244D01*
X691387Y117352D01*
X691294Y117462D01*
X691205Y117575D01*
X691119Y117691D01*
X691035Y117808D01*
X690956Y117928D01*
X690879Y118050D01*
X690806Y118174D01*
X690736Y118300D01*
X690670Y118428D01*
X690607Y118558D01*
X690548Y118689D01*
X690492Y118822D01*
X690440Y118957D01*
X690392Y119093D01*
X690347Y119230D01*
X690307Y119368D01*
X690270Y119507D01*
X690236Y119647D01*
X690207Y119788D01*
X690182Y119930D01*
X690160Y120073D01*
X690142Y120216D01*
X690129Y120359D01*
X690119Y120503D01*
X690113Y120647D01*
X690111Y120791D01*
X699848Y112353D02*
X699971Y112278D01*
X700092Y112200D01*
X700211Y112118D01*
X700327Y112034D01*
X700441Y111946D01*
X700553Y111855D01*
X700662Y111761D01*
X700769Y111664D01*
X700873Y111564D01*
X700974Y111462D01*
X701073Y111356D01*
X701168Y111248D01*
X701261Y111138D01*
X701350Y111025D01*
X701436Y110910D01*
X701519Y110792D01*
X701599Y110672D01*
X701676Y110550D01*
X701749Y110426D01*
X701819Y110300D01*
X701885Y110172D01*
X701948Y110042D01*
X702007Y109911D01*
X702063Y109778D01*
X702115Y109643D01*
X702163Y109507D01*
X702208Y109370D01*
X702248Y109232D01*
X702285Y109093D01*
X702319Y108953D01*
X702348Y108812D01*
X702373Y108670D01*
X702395Y108527D01*
X702413Y108384D01*
X702426Y108241D01*
X702436Y108097D01*
X702442Y107953D01*
X702444Y107809D01*
X699848Y112353D02*
X692707Y116247D01*
X714744Y125984D02*
X714744Y102616D01*
X708253Y125984D02*
X721235Y125984D01*
M02*
