G04 EAGLE Gerber RS-274X export*
G75*
%MOMM*%
%FSLAX34Y34*%
%LPD*%
%INSilkscreen Top*%
%IPPOS*%
%AMOC8*
5,1,8,0,0,1.08239X$1,22.5*%
G01*
%ADD10C,0.203200*%
%ADD11C,0.152400*%
%ADD12C,0.127000*%
%ADD13C,0.050800*%
%ADD14R,0.635000X1.143000*%
%ADD15R,0.635000X4.064000*%
%ADD16R,10.160000X0.508000*%
%ADD17R,3.937000X0.127000*%
%ADD18R,4.826000X0.508000*%
%ADD19C,0.177800*%
%ADD20C,0.254000*%
%ADD21R,0.508000X0.508000*%
%ADD22C,0.101600*%
%ADD23C,0.076200*%


D10*
X737616Y735584D02*
X745405Y712216D01*
X753195Y735584D01*
X759793Y730391D02*
X766284Y735584D01*
X766284Y712216D01*
X759793Y712216D02*
X772775Y712216D01*
X780250Y712216D02*
X780250Y713514D01*
X781548Y713514D01*
X781548Y712216D01*
X780250Y712216D01*
X789023Y723900D02*
X789028Y724360D01*
X789045Y724819D01*
X789072Y725278D01*
X789111Y725736D01*
X789160Y726193D01*
X789220Y726649D01*
X789291Y727103D01*
X789373Y727556D01*
X789466Y728006D01*
X789569Y728454D01*
X789683Y728899D01*
X789808Y729342D01*
X789943Y729781D01*
X790089Y730217D01*
X790245Y730649D01*
X790411Y731078D01*
X790587Y731503D01*
X790774Y731923D01*
X790970Y732338D01*
X790971Y732339D02*
X791016Y732466D01*
X791066Y732592D01*
X791118Y732717D01*
X791175Y732840D01*
X791235Y732962D01*
X791298Y733081D01*
X791364Y733199D01*
X791434Y733315D01*
X791507Y733429D01*
X791583Y733541D01*
X791663Y733651D01*
X791745Y733758D01*
X791831Y733863D01*
X791919Y733966D01*
X792010Y734066D01*
X792104Y734164D01*
X792201Y734258D01*
X792300Y734350D01*
X792402Y734440D01*
X792506Y734526D01*
X792613Y734609D01*
X792722Y734689D01*
X792834Y734767D01*
X792947Y734840D01*
X793062Y734911D01*
X793180Y734979D01*
X793299Y735043D01*
X793420Y735104D01*
X793543Y735161D01*
X793667Y735215D01*
X793793Y735265D01*
X793920Y735312D01*
X794048Y735355D01*
X794178Y735394D01*
X794308Y735430D01*
X794440Y735462D01*
X794572Y735491D01*
X794705Y735515D01*
X794839Y735536D01*
X794974Y735553D01*
X795108Y735567D01*
X795243Y735576D01*
X795379Y735582D01*
X795514Y735584D01*
X795649Y735582D01*
X795785Y735576D01*
X795920Y735567D01*
X796055Y735553D01*
X796189Y735536D01*
X796323Y735515D01*
X796456Y735491D01*
X796588Y735462D01*
X796720Y735430D01*
X796850Y735394D01*
X796980Y735355D01*
X797108Y735312D01*
X797235Y735265D01*
X797361Y735215D01*
X797485Y735161D01*
X797608Y735104D01*
X797729Y735043D01*
X797848Y734979D01*
X797966Y734911D01*
X798081Y734840D01*
X798194Y734766D01*
X798306Y734689D01*
X798415Y734609D01*
X798522Y734526D01*
X798626Y734440D01*
X798728Y734350D01*
X798827Y734258D01*
X798924Y734164D01*
X799018Y734066D01*
X799109Y733966D01*
X799197Y733863D01*
X799283Y733758D01*
X799365Y733651D01*
X799445Y733541D01*
X799521Y733429D01*
X799594Y733315D01*
X799664Y733199D01*
X799730Y733081D01*
X799793Y732962D01*
X799853Y732840D01*
X799910Y732717D01*
X799962Y732592D01*
X800012Y732466D01*
X800057Y732339D01*
X800059Y732339D02*
X800255Y731923D01*
X800442Y731503D01*
X800618Y731078D01*
X800784Y730650D01*
X800940Y730217D01*
X801086Y729781D01*
X801221Y729342D01*
X801346Y728899D01*
X801460Y728454D01*
X801563Y728006D01*
X801656Y727556D01*
X801738Y727103D01*
X801809Y726649D01*
X801869Y726193D01*
X801918Y725736D01*
X801957Y725278D01*
X801984Y724819D01*
X802001Y724360D01*
X802006Y723900D01*
X789024Y723900D02*
X789029Y723440D01*
X789046Y722981D01*
X789073Y722522D01*
X789112Y722064D01*
X789161Y721607D01*
X789221Y721151D01*
X789292Y720697D01*
X789374Y720245D01*
X789467Y719794D01*
X789570Y719346D01*
X789684Y718901D01*
X789809Y718458D01*
X789944Y718019D01*
X790090Y717583D01*
X790246Y717151D01*
X790412Y716722D01*
X790588Y716297D01*
X790775Y715877D01*
X790971Y715462D01*
X790971Y715461D02*
X791016Y715334D01*
X791066Y715208D01*
X791118Y715083D01*
X791175Y714960D01*
X791235Y714838D01*
X791298Y714719D01*
X791364Y714601D01*
X791434Y714485D01*
X791507Y714371D01*
X791583Y714259D01*
X791663Y714149D01*
X791745Y714042D01*
X791831Y713937D01*
X791919Y713834D01*
X792010Y713734D01*
X792104Y713636D01*
X792201Y713542D01*
X792300Y713450D01*
X792402Y713360D01*
X792507Y713274D01*
X792613Y713191D01*
X792722Y713111D01*
X792834Y713033D01*
X792947Y712960D01*
X793062Y712889D01*
X793180Y712821D01*
X793299Y712757D01*
X793420Y712696D01*
X793543Y712639D01*
X793667Y712585D01*
X793793Y712535D01*
X793920Y712488D01*
X794048Y712445D01*
X794178Y712406D01*
X794308Y712370D01*
X794440Y712338D01*
X794572Y712309D01*
X794705Y712285D01*
X794839Y712264D01*
X794974Y712247D01*
X795108Y712233D01*
X795243Y712224D01*
X795379Y712218D01*
X795514Y712216D01*
X800058Y715462D02*
X800254Y715877D01*
X800441Y716297D01*
X800617Y716722D01*
X800783Y717150D01*
X800939Y717583D01*
X801085Y718019D01*
X801220Y718458D01*
X801345Y718901D01*
X801459Y719346D01*
X801562Y719794D01*
X801655Y720244D01*
X801737Y720697D01*
X801808Y721151D01*
X801868Y721607D01*
X801917Y722064D01*
X801956Y722522D01*
X801983Y722981D01*
X802000Y723440D01*
X802005Y723900D01*
X800057Y715461D02*
X800012Y715334D01*
X799962Y715208D01*
X799910Y715083D01*
X799853Y714960D01*
X799793Y714838D01*
X799730Y714719D01*
X799664Y714601D01*
X799594Y714485D01*
X799521Y714371D01*
X799445Y714259D01*
X799365Y714149D01*
X799283Y714042D01*
X799197Y713937D01*
X799109Y713834D01*
X799018Y713734D01*
X798924Y713636D01*
X798827Y713542D01*
X798728Y713450D01*
X798626Y713360D01*
X798522Y713274D01*
X798415Y713191D01*
X798306Y713111D01*
X798194Y713033D01*
X798081Y712960D01*
X797966Y712889D01*
X797848Y712821D01*
X797729Y712757D01*
X797608Y712696D01*
X797485Y712639D01*
X797361Y712585D01*
X797235Y712535D01*
X797108Y712488D01*
X796980Y712445D01*
X796850Y712406D01*
X796720Y712370D01*
X796588Y712338D01*
X796456Y712309D01*
X796323Y712285D01*
X796189Y712264D01*
X796054Y712247D01*
X795920Y712233D01*
X795785Y712224D01*
X795649Y712218D01*
X795514Y712216D01*
X790321Y717409D02*
X800707Y730391D01*
D11*
X762000Y151130D02*
X762000Y148590D01*
X762000Y151130D02*
X764540Y151130D01*
X762000Y151130D02*
X762000Y153670D01*
X762000Y151130D02*
X759460Y151130D01*
X749300Y165100D02*
X749308Y165723D01*
X749331Y166346D01*
X749369Y166969D01*
X749422Y167590D01*
X749491Y168209D01*
X749575Y168827D01*
X749674Y169442D01*
X749788Y170055D01*
X749917Y170665D01*
X750061Y171272D01*
X750220Y171875D01*
X750394Y172473D01*
X750582Y173068D01*
X750785Y173657D01*
X751002Y174241D01*
X751233Y174820D01*
X751479Y175393D01*
X751739Y175960D01*
X752012Y176520D01*
X752299Y177073D01*
X752600Y177620D01*
X752914Y178158D01*
X753241Y178689D01*
X753581Y179211D01*
X753933Y179726D01*
X754299Y180231D01*
X754676Y180727D01*
X755066Y181214D01*
X755467Y181691D01*
X755880Y182158D01*
X756304Y182614D01*
X756739Y183061D01*
X757186Y183496D01*
X757642Y183920D01*
X758109Y184333D01*
X758586Y184734D01*
X759073Y185124D01*
X759569Y185501D01*
X760074Y185867D01*
X760589Y186219D01*
X761111Y186559D01*
X761642Y186886D01*
X762180Y187200D01*
X762727Y187501D01*
X763280Y187788D01*
X763840Y188061D01*
X764407Y188321D01*
X764980Y188567D01*
X765559Y188798D01*
X766143Y189015D01*
X766732Y189218D01*
X767327Y189406D01*
X767925Y189580D01*
X768528Y189739D01*
X769135Y189883D01*
X769745Y190012D01*
X770358Y190126D01*
X770973Y190225D01*
X771591Y190309D01*
X772210Y190378D01*
X772831Y190431D01*
X773454Y190469D01*
X774077Y190492D01*
X774700Y190500D01*
X775323Y190492D01*
X775946Y190469D01*
X776569Y190431D01*
X777190Y190378D01*
X777809Y190309D01*
X778427Y190225D01*
X779042Y190126D01*
X779655Y190012D01*
X780265Y189883D01*
X780872Y189739D01*
X781475Y189580D01*
X782073Y189406D01*
X782668Y189218D01*
X783257Y189015D01*
X783841Y188798D01*
X784420Y188567D01*
X784993Y188321D01*
X785560Y188061D01*
X786120Y187788D01*
X786673Y187501D01*
X787220Y187200D01*
X787758Y186886D01*
X788289Y186559D01*
X788811Y186219D01*
X789326Y185867D01*
X789831Y185501D01*
X790327Y185124D01*
X790814Y184734D01*
X791291Y184333D01*
X791758Y183920D01*
X792214Y183496D01*
X792661Y183061D01*
X793096Y182614D01*
X793520Y182158D01*
X793933Y181691D01*
X794334Y181214D01*
X794724Y180727D01*
X795101Y180231D01*
X795467Y179726D01*
X795819Y179211D01*
X796159Y178689D01*
X796486Y178158D01*
X796800Y177620D01*
X797101Y177073D01*
X797388Y176520D01*
X797661Y175960D01*
X797921Y175393D01*
X798167Y174820D01*
X798398Y174241D01*
X798615Y173657D01*
X798818Y173068D01*
X799006Y172473D01*
X799180Y171875D01*
X799339Y171272D01*
X799483Y170665D01*
X799612Y170055D01*
X799726Y169442D01*
X799825Y168827D01*
X799909Y168209D01*
X799978Y167590D01*
X800031Y166969D01*
X800069Y166346D01*
X800092Y165723D01*
X800100Y165100D01*
X800092Y164477D01*
X800069Y163854D01*
X800031Y163231D01*
X799978Y162610D01*
X799909Y161991D01*
X799825Y161373D01*
X799726Y160758D01*
X799612Y160145D01*
X799483Y159535D01*
X799339Y158928D01*
X799180Y158325D01*
X799006Y157727D01*
X798818Y157132D01*
X798615Y156543D01*
X798398Y155959D01*
X798167Y155380D01*
X797921Y154807D01*
X797661Y154240D01*
X797388Y153680D01*
X797101Y153127D01*
X796800Y152580D01*
X796486Y152042D01*
X796159Y151511D01*
X795819Y150989D01*
X795467Y150474D01*
X795101Y149969D01*
X794724Y149473D01*
X794334Y148986D01*
X793933Y148509D01*
X793520Y148042D01*
X793096Y147586D01*
X792661Y147139D01*
X792214Y146704D01*
X791758Y146280D01*
X791291Y145867D01*
X790814Y145466D01*
X790327Y145076D01*
X789831Y144699D01*
X789326Y144333D01*
X788811Y143981D01*
X788289Y143641D01*
X787758Y143314D01*
X787220Y143000D01*
X786673Y142699D01*
X786120Y142412D01*
X785560Y142139D01*
X784993Y141879D01*
X784420Y141633D01*
X783841Y141402D01*
X783257Y141185D01*
X782668Y140982D01*
X782073Y140794D01*
X781475Y140620D01*
X780872Y140461D01*
X780265Y140317D01*
X779655Y140188D01*
X779042Y140074D01*
X778427Y139975D01*
X777809Y139891D01*
X777190Y139822D01*
X776569Y139769D01*
X775946Y139731D01*
X775323Y139708D01*
X774700Y139700D01*
X774077Y139708D01*
X773454Y139731D01*
X772831Y139769D01*
X772210Y139822D01*
X771591Y139891D01*
X770973Y139975D01*
X770358Y140074D01*
X769745Y140188D01*
X769135Y140317D01*
X768528Y140461D01*
X767925Y140620D01*
X767327Y140794D01*
X766732Y140982D01*
X766143Y141185D01*
X765559Y141402D01*
X764980Y141633D01*
X764407Y141879D01*
X763840Y142139D01*
X763280Y142412D01*
X762727Y142699D01*
X762180Y143000D01*
X761642Y143314D01*
X761111Y143641D01*
X760589Y143981D01*
X760074Y144333D01*
X759569Y144699D01*
X759073Y145076D01*
X758586Y145466D01*
X758109Y145867D01*
X757642Y146280D01*
X757186Y146704D01*
X756739Y147139D01*
X756304Y147586D01*
X755880Y148042D01*
X755467Y148509D01*
X755066Y148986D01*
X754676Y149473D01*
X754299Y149969D01*
X753933Y150474D01*
X753581Y150989D01*
X753241Y151511D01*
X752914Y152042D01*
X752600Y152580D01*
X752299Y153127D01*
X752012Y153680D01*
X751739Y154240D01*
X751479Y154807D01*
X751233Y155380D01*
X751002Y155959D01*
X750785Y156543D01*
X750582Y157132D01*
X750394Y157727D01*
X750220Y158325D01*
X750061Y158928D01*
X749917Y159535D01*
X749788Y160145D01*
X749674Y160758D01*
X749575Y161373D01*
X749491Y161991D01*
X749422Y162610D01*
X749369Y163231D01*
X749331Y163854D01*
X749308Y164477D01*
X749300Y165100D01*
D12*
X774663Y191135D02*
X777203Y191135D01*
X774663Y191135D02*
X774563Y191137D01*
X774464Y191143D01*
X774364Y191153D01*
X774266Y191166D01*
X774167Y191184D01*
X774070Y191205D01*
X773974Y191230D01*
X773878Y191259D01*
X773784Y191292D01*
X773691Y191328D01*
X773600Y191368D01*
X773510Y191412D01*
X773422Y191459D01*
X773336Y191509D01*
X773252Y191563D01*
X773170Y191620D01*
X773091Y191680D01*
X773013Y191744D01*
X772939Y191810D01*
X772867Y191879D01*
X772798Y191951D01*
X772732Y192025D01*
X772668Y192103D01*
X772608Y192182D01*
X772551Y192264D01*
X772497Y192348D01*
X772447Y192434D01*
X772400Y192522D01*
X772356Y192612D01*
X772316Y192703D01*
X772280Y192796D01*
X772247Y192890D01*
X772218Y192986D01*
X772193Y193082D01*
X772172Y193179D01*
X772154Y193278D01*
X772141Y193376D01*
X772131Y193476D01*
X772125Y193575D01*
X772123Y193675D01*
X772123Y200025D01*
X772125Y200125D01*
X772131Y200224D01*
X772141Y200324D01*
X772154Y200422D01*
X772172Y200521D01*
X772193Y200618D01*
X772218Y200714D01*
X772247Y200810D01*
X772280Y200904D01*
X772316Y200997D01*
X772356Y201088D01*
X772400Y201178D01*
X772447Y201266D01*
X772497Y201352D01*
X772551Y201436D01*
X772608Y201518D01*
X772668Y201597D01*
X772732Y201675D01*
X772798Y201749D01*
X772867Y201821D01*
X772939Y201890D01*
X773013Y201956D01*
X773091Y202020D01*
X773170Y202080D01*
X773252Y202137D01*
X773336Y202191D01*
X773422Y202241D01*
X773510Y202288D01*
X773600Y202332D01*
X773691Y202372D01*
X773784Y202408D01*
X773878Y202441D01*
X773974Y202470D01*
X774070Y202495D01*
X774167Y202516D01*
X774266Y202534D01*
X774364Y202547D01*
X774464Y202557D01*
X774563Y202563D01*
X774663Y202565D01*
X777203Y202565D01*
X781685Y200025D02*
X784860Y202565D01*
X784860Y191135D01*
X781685Y191135D02*
X788035Y191135D01*
D10*
X720090Y665480D02*
X676910Y665480D01*
X676910Y604520D02*
X720090Y604520D01*
X728980Y624840D02*
X728980Y644980D01*
X668020Y645280D02*
X668020Y624840D01*
X680720Y635000D02*
X680725Y635436D01*
X680741Y635872D01*
X680768Y636308D01*
X680806Y636743D01*
X680854Y637176D01*
X680912Y637609D01*
X680982Y638040D01*
X681062Y638469D01*
X681152Y638896D01*
X681253Y639320D01*
X681364Y639742D01*
X681486Y640161D01*
X681617Y640577D01*
X681759Y640990D01*
X681911Y641399D01*
X682073Y641804D01*
X682245Y642205D01*
X682427Y642602D01*
X682618Y642994D01*
X682819Y643381D01*
X683030Y643764D01*
X683250Y644141D01*
X683479Y644512D01*
X683716Y644878D01*
X683963Y645238D01*
X684219Y645592D01*
X684483Y645939D01*
X684756Y646280D01*
X685037Y646613D01*
X685326Y646940D01*
X685623Y647260D01*
X685928Y647572D01*
X686240Y647877D01*
X686560Y648174D01*
X686887Y648463D01*
X687220Y648744D01*
X687561Y649017D01*
X687908Y649281D01*
X688262Y649537D01*
X688622Y649784D01*
X688988Y650021D01*
X689359Y650250D01*
X689736Y650470D01*
X690119Y650681D01*
X690506Y650882D01*
X690898Y651073D01*
X691295Y651255D01*
X691696Y651427D01*
X692101Y651589D01*
X692510Y651741D01*
X692923Y651883D01*
X693339Y652014D01*
X693758Y652136D01*
X694180Y652247D01*
X694604Y652348D01*
X695031Y652438D01*
X695460Y652518D01*
X695891Y652588D01*
X696324Y652646D01*
X696757Y652694D01*
X697192Y652732D01*
X697628Y652759D01*
X698064Y652775D01*
X698500Y652780D01*
X698936Y652775D01*
X699372Y652759D01*
X699808Y652732D01*
X700243Y652694D01*
X700676Y652646D01*
X701109Y652588D01*
X701540Y652518D01*
X701969Y652438D01*
X702396Y652348D01*
X702820Y652247D01*
X703242Y652136D01*
X703661Y652014D01*
X704077Y651883D01*
X704490Y651741D01*
X704899Y651589D01*
X705304Y651427D01*
X705705Y651255D01*
X706102Y651073D01*
X706494Y650882D01*
X706881Y650681D01*
X707264Y650470D01*
X707641Y650250D01*
X708012Y650021D01*
X708378Y649784D01*
X708738Y649537D01*
X709092Y649281D01*
X709439Y649017D01*
X709780Y648744D01*
X710113Y648463D01*
X710440Y648174D01*
X710760Y647877D01*
X711072Y647572D01*
X711377Y647260D01*
X711674Y646940D01*
X711963Y646613D01*
X712244Y646280D01*
X712517Y645939D01*
X712781Y645592D01*
X713037Y645238D01*
X713284Y644878D01*
X713521Y644512D01*
X713750Y644141D01*
X713970Y643764D01*
X714181Y643381D01*
X714382Y642994D01*
X714573Y642602D01*
X714755Y642205D01*
X714927Y641804D01*
X715089Y641399D01*
X715241Y640990D01*
X715383Y640577D01*
X715514Y640161D01*
X715636Y639742D01*
X715747Y639320D01*
X715848Y638896D01*
X715938Y638469D01*
X716018Y638040D01*
X716088Y637609D01*
X716146Y637176D01*
X716194Y636743D01*
X716232Y636308D01*
X716259Y635872D01*
X716275Y635436D01*
X716280Y635000D01*
X716275Y634564D01*
X716259Y634128D01*
X716232Y633692D01*
X716194Y633257D01*
X716146Y632824D01*
X716088Y632391D01*
X716018Y631960D01*
X715938Y631531D01*
X715848Y631104D01*
X715747Y630680D01*
X715636Y630258D01*
X715514Y629839D01*
X715383Y629423D01*
X715241Y629010D01*
X715089Y628601D01*
X714927Y628196D01*
X714755Y627795D01*
X714573Y627398D01*
X714382Y627006D01*
X714181Y626619D01*
X713970Y626236D01*
X713750Y625859D01*
X713521Y625488D01*
X713284Y625122D01*
X713037Y624762D01*
X712781Y624408D01*
X712517Y624061D01*
X712244Y623720D01*
X711963Y623387D01*
X711674Y623060D01*
X711377Y622740D01*
X711072Y622428D01*
X710760Y622123D01*
X710440Y621826D01*
X710113Y621537D01*
X709780Y621256D01*
X709439Y620983D01*
X709092Y620719D01*
X708738Y620463D01*
X708378Y620216D01*
X708012Y619979D01*
X707641Y619750D01*
X707264Y619530D01*
X706881Y619319D01*
X706494Y619118D01*
X706102Y618927D01*
X705705Y618745D01*
X705304Y618573D01*
X704899Y618411D01*
X704490Y618259D01*
X704077Y618117D01*
X703661Y617986D01*
X703242Y617864D01*
X702820Y617753D01*
X702396Y617652D01*
X701969Y617562D01*
X701540Y617482D01*
X701109Y617412D01*
X700676Y617354D01*
X700243Y617306D01*
X699808Y617268D01*
X699372Y617241D01*
X698936Y617225D01*
X698500Y617220D01*
X698064Y617225D01*
X697628Y617241D01*
X697192Y617268D01*
X696757Y617306D01*
X696324Y617354D01*
X695891Y617412D01*
X695460Y617482D01*
X695031Y617562D01*
X694604Y617652D01*
X694180Y617753D01*
X693758Y617864D01*
X693339Y617986D01*
X692923Y618117D01*
X692510Y618259D01*
X692101Y618411D01*
X691696Y618573D01*
X691295Y618745D01*
X690898Y618927D01*
X690506Y619118D01*
X690119Y619319D01*
X689736Y619530D01*
X689359Y619750D01*
X688988Y619979D01*
X688622Y620216D01*
X688262Y620463D01*
X687908Y620719D01*
X687561Y620983D01*
X687220Y621256D01*
X686887Y621537D01*
X686560Y621826D01*
X686240Y622123D01*
X685928Y622428D01*
X685623Y622740D01*
X685326Y623060D01*
X685037Y623387D01*
X684756Y623720D01*
X684483Y624061D01*
X684219Y624408D01*
X683963Y624762D01*
X683716Y625122D01*
X683479Y625488D01*
X683250Y625859D01*
X683030Y626236D01*
X682819Y626619D01*
X682618Y627006D01*
X682427Y627398D01*
X682245Y627795D01*
X682073Y628196D01*
X681911Y628601D01*
X681759Y629010D01*
X681617Y629423D01*
X681486Y629839D01*
X681364Y630258D01*
X681253Y630680D01*
X681152Y631104D01*
X681062Y631531D01*
X680982Y631960D01*
X680912Y632391D01*
X680854Y632824D01*
X680806Y633257D01*
X680768Y633692D01*
X680741Y634128D01*
X680725Y634564D01*
X680720Y635000D01*
D11*
X290830Y643890D02*
X39370Y643890D01*
X39370Y753110D02*
X290830Y753110D01*
D13*
X215900Y669290D02*
X114300Y669290D01*
X114300Y727710D02*
X215900Y727710D01*
D11*
X107950Y735330D02*
X57150Y735330D01*
X57150Y666750D02*
X57150Y661670D01*
X57150Y673100D02*
X107950Y673100D01*
X57150Y723900D02*
X57150Y735330D01*
X57150Y723900D02*
X107950Y723900D01*
X107950Y661670D02*
X57150Y661670D01*
X107950Y661670D02*
X107950Y673100D01*
X57150Y661670D02*
X50800Y661670D01*
X50800Y678180D01*
X53340Y678180D02*
X53340Y666750D01*
X57150Y666750D01*
X57150Y673100D01*
X107950Y723900D02*
X107950Y735330D01*
X222250Y661670D02*
X273050Y661670D01*
X273050Y730250D02*
X273050Y735330D01*
X273050Y723900D02*
X222250Y723900D01*
X273050Y673100D02*
X273050Y661670D01*
X273050Y673100D02*
X222250Y673100D01*
X222250Y735330D02*
X273050Y735330D01*
X222250Y735330D02*
X222250Y723900D01*
X273050Y735330D02*
X279400Y735330D01*
X279400Y718820D01*
X276860Y718820D02*
X276860Y730250D01*
X273050Y730250D01*
X273050Y723900D01*
X222250Y673100D02*
X222250Y661670D01*
D13*
X217170Y698500D02*
X113030Y698500D01*
D11*
X290830Y715010D02*
X290830Y753110D01*
X290830Y681990D02*
X290830Y643890D01*
X39370Y715010D02*
X39370Y753110D01*
X39370Y681990D02*
X39370Y643890D01*
D14*
X111125Y672465D03*
X111125Y724535D03*
D15*
X111125Y698500D03*
D14*
X219075Y724535D03*
X219075Y672465D03*
D15*
X219075Y698500D03*
D16*
X165100Y722630D03*
X165100Y674370D03*
D17*
X241935Y678815D03*
X241935Y718185D03*
X88265Y718185D03*
X88265Y678815D03*
D18*
X83820Y675640D03*
X83820Y721360D03*
X246380Y721360D03*
X246380Y675640D03*
D19*
X51689Y762889D02*
X51689Y778891D01*
X58801Y778891D01*
X58801Y771779D02*
X51689Y771779D01*
X64682Y775335D02*
X69127Y778891D01*
X69127Y762889D01*
X64682Y762889D02*
X73572Y762889D01*
D11*
X39370Y135890D02*
X290830Y135890D01*
X290830Y245110D02*
X39370Y245110D01*
D13*
X114300Y161290D02*
X215900Y161290D01*
X215900Y219710D02*
X114300Y219710D01*
D11*
X107950Y227330D02*
X57150Y227330D01*
X57150Y158750D02*
X57150Y153670D01*
X57150Y165100D02*
X107950Y165100D01*
X57150Y215900D02*
X57150Y227330D01*
X57150Y215900D02*
X107950Y215900D01*
X107950Y153670D02*
X57150Y153670D01*
X107950Y153670D02*
X107950Y165100D01*
X57150Y153670D02*
X50800Y153670D01*
X50800Y170180D01*
X53340Y170180D02*
X53340Y158750D01*
X57150Y158750D01*
X57150Y165100D01*
X107950Y215900D02*
X107950Y227330D01*
X222250Y153670D02*
X273050Y153670D01*
X273050Y222250D02*
X273050Y227330D01*
X273050Y215900D02*
X222250Y215900D01*
X273050Y165100D02*
X273050Y153670D01*
X273050Y165100D02*
X222250Y165100D01*
X222250Y227330D02*
X273050Y227330D01*
X222250Y227330D02*
X222250Y215900D01*
X273050Y227330D02*
X279400Y227330D01*
X279400Y210820D01*
X276860Y210820D02*
X276860Y222250D01*
X273050Y222250D01*
X273050Y215900D01*
X222250Y165100D02*
X222250Y153670D01*
D13*
X217170Y190500D02*
X113030Y190500D01*
D11*
X290830Y207010D02*
X290830Y245110D01*
X290830Y173990D02*
X290830Y135890D01*
X39370Y207010D02*
X39370Y245110D01*
X39370Y173990D02*
X39370Y135890D01*
D14*
X111125Y164465D03*
X111125Y216535D03*
D15*
X111125Y190500D03*
D14*
X219075Y216535D03*
X219075Y164465D03*
D15*
X219075Y190500D03*
D16*
X165100Y214630D03*
X165100Y166370D03*
D17*
X241935Y170815D03*
X241935Y210185D03*
X88265Y210185D03*
X88265Y170815D03*
D18*
X83820Y167640D03*
X83820Y213360D03*
X246380Y213360D03*
X246380Y167640D03*
D19*
X51689Y131191D02*
X51689Y115189D01*
X51689Y131191D02*
X58801Y131191D01*
X58801Y124079D02*
X51689Y124079D01*
X69572Y131192D02*
X69698Y131190D01*
X69823Y131184D01*
X69949Y131174D01*
X70073Y131160D01*
X70198Y131143D01*
X70322Y131121D01*
X70445Y131096D01*
X70567Y131066D01*
X70688Y131033D01*
X70808Y130996D01*
X70927Y130955D01*
X71045Y130911D01*
X71161Y130863D01*
X71276Y130811D01*
X71388Y130756D01*
X71499Y130697D01*
X71609Y130635D01*
X71716Y130569D01*
X71821Y130500D01*
X71924Y130428D01*
X72024Y130352D01*
X72122Y130274D01*
X72218Y130192D01*
X72311Y130108D01*
X72401Y130020D01*
X72489Y129930D01*
X72573Y129837D01*
X72655Y129741D01*
X72733Y129643D01*
X72809Y129543D01*
X72881Y129440D01*
X72950Y129335D01*
X73016Y129228D01*
X73078Y129118D01*
X73137Y129007D01*
X73192Y128895D01*
X73244Y128780D01*
X73292Y128664D01*
X73336Y128546D01*
X73377Y128427D01*
X73414Y128307D01*
X73447Y128186D01*
X73477Y128064D01*
X73502Y127941D01*
X73524Y127817D01*
X73541Y127692D01*
X73555Y127568D01*
X73565Y127442D01*
X73571Y127317D01*
X73573Y127191D01*
X69572Y131191D02*
X69431Y131189D01*
X69291Y131183D01*
X69151Y131174D01*
X69011Y131160D01*
X68872Y131143D01*
X68733Y131122D01*
X68594Y131097D01*
X68457Y131069D01*
X68320Y131036D01*
X68184Y131000D01*
X68049Y130960D01*
X67916Y130917D01*
X67783Y130870D01*
X67652Y130819D01*
X67523Y130765D01*
X67395Y130707D01*
X67268Y130646D01*
X67143Y130581D01*
X67021Y130513D01*
X66900Y130442D01*
X66780Y130367D01*
X66664Y130289D01*
X66549Y130208D01*
X66436Y130124D01*
X66326Y130036D01*
X66218Y129946D01*
X66113Y129853D01*
X66011Y129757D01*
X65911Y129658D01*
X65813Y129557D01*
X65719Y129453D01*
X65627Y129346D01*
X65539Y129237D01*
X65453Y129126D01*
X65371Y129012D01*
X65291Y128896D01*
X65215Y128778D01*
X65142Y128658D01*
X65073Y128536D01*
X65006Y128412D01*
X64943Y128286D01*
X64884Y128159D01*
X64828Y128030D01*
X64776Y127900D01*
X64727Y127768D01*
X64682Y127635D01*
X72238Y124079D02*
X72330Y124170D01*
X72420Y124263D01*
X72506Y124358D01*
X72590Y124456D01*
X72670Y124557D01*
X72748Y124660D01*
X72822Y124765D01*
X72893Y124873D01*
X72961Y124982D01*
X73025Y125094D01*
X73087Y125207D01*
X73144Y125322D01*
X73199Y125439D01*
X73250Y125558D01*
X73297Y125678D01*
X73340Y125799D01*
X73380Y125921D01*
X73416Y126045D01*
X73449Y126170D01*
X73478Y126295D01*
X73503Y126422D01*
X73524Y126549D01*
X73541Y126677D01*
X73555Y126805D01*
X73564Y126933D01*
X73570Y127062D01*
X73572Y127191D01*
X72239Y124079D02*
X64682Y115189D01*
X73572Y115189D01*
D11*
X698500Y510540D02*
X698872Y510535D01*
X699243Y510522D01*
X699614Y510499D01*
X699984Y510468D01*
X700353Y510427D01*
X700721Y510377D01*
X701088Y510319D01*
X701453Y510251D01*
X701817Y510175D01*
X702178Y510090D01*
X702537Y509995D01*
X702894Y509893D01*
X703249Y509781D01*
X703600Y509661D01*
X703949Y509533D01*
X704294Y509396D01*
X704636Y509250D01*
X704974Y509097D01*
X705308Y508935D01*
X705638Y508765D01*
X705964Y508587D01*
X706286Y508401D01*
X706603Y508207D01*
X706915Y508006D01*
X707222Y507797D01*
X707524Y507581D01*
X707821Y507357D01*
X708112Y507127D01*
X708397Y506889D01*
X708677Y506644D01*
X708950Y506393D01*
X709217Y506135D01*
X709478Y505871D01*
X709733Y505600D01*
X709980Y505323D01*
X710221Y505040D01*
X710455Y504752D01*
X710682Y504458D01*
X710901Y504158D01*
X698500Y510540D02*
X698128Y510535D01*
X697757Y510522D01*
X697385Y510499D01*
X697015Y510467D01*
X696645Y510427D01*
X696277Y510377D01*
X695909Y510318D01*
X695544Y510251D01*
X695180Y510174D01*
X694818Y510088D01*
X694458Y509994D01*
X694101Y509891D01*
X693746Y509780D01*
X693394Y509659D01*
X693045Y509530D01*
X692700Y509393D01*
X692358Y509247D01*
X692019Y509093D01*
X691684Y508931D01*
X691354Y508761D01*
X691028Y508582D01*
X690706Y508396D01*
X690388Y508202D01*
X690076Y508000D01*
X689769Y507791D01*
X689467Y507574D01*
X689170Y507350D01*
X688878Y507119D01*
X688593Y506881D01*
X688313Y506635D01*
X688040Y506383D01*
X687772Y506125D01*
X687512Y505860D01*
X687257Y505589D01*
X687009Y505311D01*
X686769Y505028D01*
X686535Y504739D01*
X686308Y504444D01*
X698500Y480060D02*
X698865Y480064D01*
X699230Y480077D01*
X699594Y480099D01*
X699957Y480130D01*
X700320Y480169D01*
X700682Y480217D01*
X701042Y480274D01*
X701401Y480339D01*
X701759Y480412D01*
X702114Y480495D01*
X702467Y480585D01*
X702819Y480685D01*
X703167Y480792D01*
X703513Y480908D01*
X703856Y481032D01*
X704196Y481165D01*
X704533Y481305D01*
X704866Y481453D01*
X705196Y481610D01*
X705522Y481774D01*
X705844Y481946D01*
X706161Y482126D01*
X706474Y482313D01*
X706783Y482507D01*
X707087Y482709D01*
X707386Y482919D01*
X707680Y483135D01*
X707968Y483358D01*
X708251Y483588D01*
X708529Y483825D01*
X708801Y484068D01*
X709067Y484318D01*
X709327Y484574D01*
X709580Y484837D01*
X709828Y485105D01*
X710068Y485379D01*
X710303Y485659D01*
X710530Y485944D01*
X698500Y480060D02*
X698135Y480064D01*
X697770Y480077D01*
X697406Y480099D01*
X697043Y480130D01*
X696680Y480169D01*
X696318Y480217D01*
X695958Y480274D01*
X695599Y480339D01*
X695241Y480412D01*
X694886Y480495D01*
X694533Y480585D01*
X694181Y480685D01*
X693833Y480792D01*
X693487Y480908D01*
X693144Y481032D01*
X692804Y481165D01*
X692467Y481305D01*
X692134Y481453D01*
X691804Y481610D01*
X691478Y481774D01*
X691156Y481946D01*
X690839Y482126D01*
X690526Y482313D01*
X690217Y482507D01*
X689913Y482709D01*
X689614Y482919D01*
X689320Y483135D01*
X689032Y483358D01*
X688749Y483588D01*
X688471Y483825D01*
X688199Y484068D01*
X687933Y484318D01*
X687673Y484574D01*
X687420Y484837D01*
X687172Y485105D01*
X686932Y485379D01*
X686697Y485659D01*
X686470Y485944D01*
D20*
X698500Y515620D02*
X698994Y515614D01*
X699488Y515596D01*
X699982Y515566D01*
X700475Y515524D01*
X700966Y515470D01*
X701456Y515404D01*
X701944Y515326D01*
X702431Y515236D01*
X702915Y515135D01*
X703396Y515021D01*
X703874Y514896D01*
X704350Y514760D01*
X704821Y514612D01*
X705289Y514452D01*
X705753Y514281D01*
X706213Y514099D01*
X706668Y513906D01*
X707119Y513702D01*
X707564Y513487D01*
X708004Y513261D01*
X708438Y513024D01*
X708866Y512777D01*
X709288Y512520D01*
X709704Y512252D01*
X710113Y511974D01*
X710515Y511687D01*
X710911Y511390D01*
X711298Y511083D01*
X711679Y510767D01*
X712051Y510442D01*
X712416Y510107D01*
X712772Y509764D01*
X713119Y509413D01*
X713459Y509053D01*
X713789Y508685D01*
X714110Y508309D01*
X698500Y515620D02*
X698012Y515614D01*
X697525Y515597D01*
X697038Y515567D01*
X696551Y515526D01*
X696066Y515474D01*
X695582Y515409D01*
X695100Y515333D01*
X694620Y515246D01*
X694142Y515147D01*
X693667Y515037D01*
X693194Y514915D01*
X692725Y514782D01*
X692258Y514637D01*
X691796Y514482D01*
X691337Y514315D01*
X690882Y514138D01*
X690432Y513949D01*
X689987Y513750D01*
X689546Y513540D01*
X689110Y513320D01*
X688680Y513089D01*
X688256Y512848D01*
X687838Y512597D01*
X687425Y512336D01*
X687019Y512065D01*
X686620Y511785D01*
X686227Y511495D01*
X685842Y511195D01*
X685464Y510886D01*
X685093Y510569D01*
X684731Y510242D01*
X684376Y509907D01*
X684029Y509564D01*
X683691Y509212D01*
X683361Y508853D01*
X683040Y508485D01*
X682727Y508110D01*
X682424Y507727D01*
X682130Y507338D01*
X681846Y506941D01*
X681571Y506538D01*
X681306Y506128D01*
X681051Y505712D01*
X680806Y505290D01*
X680571Y504862D01*
X698500Y474980D02*
X698990Y474986D01*
X699480Y475004D01*
X699969Y475033D01*
X700458Y475075D01*
X700945Y475128D01*
X701431Y475192D01*
X701915Y475269D01*
X702397Y475357D01*
X702877Y475457D01*
X703355Y475568D01*
X703829Y475691D01*
X704301Y475826D01*
X704769Y475971D01*
X705233Y476128D01*
X705694Y476296D01*
X706150Y476475D01*
X706602Y476665D01*
X707049Y476866D01*
X707491Y477078D01*
X707928Y477300D01*
X708360Y477532D01*
X708786Y477775D01*
X709205Y478029D01*
X709619Y478292D01*
X710026Y478565D01*
X710426Y478848D01*
X710820Y479141D01*
X711206Y479442D01*
X711585Y479754D01*
X711956Y480074D01*
X712319Y480403D01*
X712675Y480740D01*
X713022Y481087D01*
X713360Y481441D01*
X713690Y481804D01*
X714012Y482174D01*
X698500Y474980D02*
X698003Y474986D01*
X697506Y475004D01*
X697010Y475035D01*
X696515Y475077D01*
X696021Y475132D01*
X695528Y475198D01*
X695038Y475277D01*
X694549Y475368D01*
X694063Y475470D01*
X693579Y475585D01*
X693099Y475711D01*
X692621Y475849D01*
X692147Y475998D01*
X691677Y476159D01*
X691211Y476332D01*
X690749Y476516D01*
X690292Y476711D01*
X689840Y476917D01*
X689393Y477134D01*
X688952Y477363D01*
X688516Y477601D01*
X688086Y477851D01*
X687663Y478111D01*
X687245Y478381D01*
X686835Y478661D01*
X686432Y478951D01*
X686035Y479251D01*
X685647Y479561D01*
X685266Y479880D01*
X684893Y480208D01*
X684528Y480545D01*
X684171Y480891D01*
X683823Y481246D01*
X683484Y481609D01*
X683153Y481980D01*
X682832Y482360D01*
X682520Y482747D01*
X682218Y483141D01*
X681926Y483543D01*
X681643Y483952D01*
X681371Y484367D01*
X681108Y484790D01*
X680857Y485218D01*
D12*
X692785Y460375D02*
X692785Y448945D01*
X697865Y448945D01*
X702691Y448945D02*
X707771Y448945D01*
X702691Y448945D02*
X702691Y460375D01*
X707771Y460375D01*
X706501Y455295D02*
X702691Y455295D01*
X712572Y460375D02*
X712572Y448945D01*
X712572Y460375D02*
X715747Y460375D01*
X715858Y460373D01*
X715968Y460367D01*
X716079Y460358D01*
X716189Y460344D01*
X716298Y460327D01*
X716407Y460306D01*
X716515Y460281D01*
X716622Y460252D01*
X716728Y460220D01*
X716833Y460184D01*
X716936Y460144D01*
X717038Y460101D01*
X717139Y460054D01*
X717238Y460003D01*
X717335Y459950D01*
X717429Y459893D01*
X717522Y459832D01*
X717613Y459769D01*
X717702Y459702D01*
X717788Y459632D01*
X717871Y459559D01*
X717953Y459484D01*
X718031Y459406D01*
X718106Y459324D01*
X718179Y459241D01*
X718249Y459155D01*
X718316Y459066D01*
X718379Y458975D01*
X718440Y458882D01*
X718497Y458788D01*
X718550Y458691D01*
X718601Y458592D01*
X718648Y458491D01*
X718691Y458389D01*
X718731Y458286D01*
X718767Y458181D01*
X718799Y458075D01*
X718828Y457968D01*
X718853Y457860D01*
X718874Y457751D01*
X718891Y457642D01*
X718905Y457532D01*
X718914Y457421D01*
X718920Y457311D01*
X718922Y457200D01*
X718922Y452120D01*
X718920Y452009D01*
X718914Y451899D01*
X718905Y451788D01*
X718891Y451678D01*
X718874Y451569D01*
X718853Y451460D01*
X718828Y451352D01*
X718799Y451245D01*
X718767Y451139D01*
X718731Y451034D01*
X718691Y450931D01*
X718648Y450829D01*
X718601Y450728D01*
X718550Y450629D01*
X718497Y450532D01*
X718440Y450438D01*
X718379Y450345D01*
X718316Y450254D01*
X718249Y450165D01*
X718179Y450079D01*
X718106Y449996D01*
X718031Y449914D01*
X717953Y449836D01*
X717871Y449761D01*
X717788Y449688D01*
X717702Y449618D01*
X717613Y449551D01*
X717522Y449488D01*
X717429Y449427D01*
X717335Y449370D01*
X717238Y449317D01*
X717139Y449266D01*
X717038Y449219D01*
X716936Y449176D01*
X716833Y449136D01*
X716728Y449100D01*
X716622Y449068D01*
X716515Y449039D01*
X716407Y449014D01*
X716298Y448993D01*
X716189Y448976D01*
X716079Y448962D01*
X715968Y448953D01*
X715858Y448947D01*
X715747Y448945D01*
X712572Y448945D01*
X724383Y448945D02*
X728193Y448945D01*
X728293Y448947D01*
X728392Y448953D01*
X728492Y448963D01*
X728590Y448976D01*
X728689Y448994D01*
X728786Y449015D01*
X728882Y449040D01*
X728978Y449069D01*
X729072Y449102D01*
X729165Y449138D01*
X729256Y449178D01*
X729346Y449222D01*
X729434Y449269D01*
X729520Y449319D01*
X729604Y449373D01*
X729686Y449430D01*
X729765Y449490D01*
X729843Y449554D01*
X729917Y449620D01*
X729989Y449689D01*
X730058Y449761D01*
X730124Y449835D01*
X730188Y449913D01*
X730248Y449992D01*
X730305Y450074D01*
X730359Y450158D01*
X730409Y450244D01*
X730456Y450332D01*
X730500Y450422D01*
X730540Y450513D01*
X730576Y450606D01*
X730609Y450700D01*
X730638Y450796D01*
X730663Y450892D01*
X730684Y450989D01*
X730702Y451088D01*
X730715Y451186D01*
X730725Y451286D01*
X730731Y451385D01*
X730733Y451485D01*
X730733Y452755D01*
X730731Y452855D01*
X730725Y452954D01*
X730715Y453054D01*
X730702Y453152D01*
X730684Y453251D01*
X730663Y453348D01*
X730638Y453444D01*
X730609Y453540D01*
X730576Y453634D01*
X730540Y453727D01*
X730500Y453818D01*
X730456Y453908D01*
X730409Y453996D01*
X730359Y454082D01*
X730305Y454166D01*
X730248Y454248D01*
X730188Y454327D01*
X730124Y454405D01*
X730058Y454479D01*
X729989Y454551D01*
X729917Y454620D01*
X729843Y454686D01*
X729765Y454750D01*
X729686Y454810D01*
X729604Y454867D01*
X729520Y454921D01*
X729434Y454971D01*
X729346Y455018D01*
X729256Y455062D01*
X729165Y455102D01*
X729072Y455138D01*
X728978Y455171D01*
X728882Y455200D01*
X728786Y455225D01*
X728689Y455246D01*
X728590Y455264D01*
X728492Y455277D01*
X728392Y455287D01*
X728293Y455293D01*
X728193Y455295D01*
X724383Y455295D01*
X724383Y460375D01*
X730733Y460375D01*
D11*
X655320Y571500D02*
X655322Y571600D01*
X655328Y571699D01*
X655338Y571799D01*
X655351Y571897D01*
X655369Y571996D01*
X655390Y572093D01*
X655415Y572189D01*
X655444Y572285D01*
X655477Y572379D01*
X655513Y572472D01*
X655553Y572563D01*
X655597Y572653D01*
X655644Y572741D01*
X655694Y572827D01*
X655748Y572911D01*
X655805Y572993D01*
X655865Y573072D01*
X655929Y573150D01*
X655995Y573224D01*
X656064Y573296D01*
X656136Y573365D01*
X656210Y573431D01*
X656288Y573495D01*
X656367Y573555D01*
X656449Y573612D01*
X656533Y573666D01*
X656619Y573716D01*
X656707Y573763D01*
X656797Y573807D01*
X656888Y573847D01*
X656981Y573883D01*
X657075Y573916D01*
X657171Y573945D01*
X657267Y573970D01*
X657364Y573991D01*
X657463Y574009D01*
X657561Y574022D01*
X657661Y574032D01*
X657760Y574038D01*
X657860Y574040D01*
X655320Y546100D02*
X655322Y546000D01*
X655328Y545901D01*
X655338Y545801D01*
X655351Y545703D01*
X655369Y545604D01*
X655390Y545507D01*
X655415Y545411D01*
X655444Y545315D01*
X655477Y545221D01*
X655513Y545128D01*
X655553Y545037D01*
X655597Y544947D01*
X655644Y544859D01*
X655694Y544773D01*
X655748Y544689D01*
X655805Y544607D01*
X655865Y544528D01*
X655929Y544450D01*
X655995Y544376D01*
X656064Y544304D01*
X656136Y544235D01*
X656210Y544169D01*
X656288Y544105D01*
X656367Y544045D01*
X656449Y543988D01*
X656533Y543934D01*
X656619Y543884D01*
X656707Y543837D01*
X656797Y543793D01*
X656888Y543753D01*
X656981Y543717D01*
X657075Y543684D01*
X657171Y543655D01*
X657267Y543630D01*
X657364Y543609D01*
X657463Y543591D01*
X657561Y543578D01*
X657661Y543568D01*
X657760Y543562D01*
X657860Y543560D01*
X739140Y543560D02*
X739240Y543562D01*
X739339Y543568D01*
X739439Y543578D01*
X739537Y543591D01*
X739636Y543609D01*
X739733Y543630D01*
X739829Y543655D01*
X739925Y543684D01*
X740019Y543717D01*
X740112Y543753D01*
X740203Y543793D01*
X740293Y543837D01*
X740381Y543884D01*
X740467Y543934D01*
X740551Y543988D01*
X740633Y544045D01*
X740712Y544105D01*
X740790Y544169D01*
X740864Y544235D01*
X740936Y544304D01*
X741005Y544376D01*
X741071Y544450D01*
X741135Y544528D01*
X741195Y544607D01*
X741252Y544689D01*
X741306Y544773D01*
X741356Y544859D01*
X741403Y544947D01*
X741447Y545037D01*
X741487Y545128D01*
X741523Y545221D01*
X741556Y545315D01*
X741585Y545411D01*
X741610Y545507D01*
X741631Y545604D01*
X741649Y545703D01*
X741662Y545801D01*
X741672Y545901D01*
X741678Y546000D01*
X741680Y546100D01*
X741680Y571500D02*
X741678Y571600D01*
X741672Y571699D01*
X741662Y571799D01*
X741649Y571897D01*
X741631Y571996D01*
X741610Y572093D01*
X741585Y572189D01*
X741556Y572285D01*
X741523Y572379D01*
X741487Y572472D01*
X741447Y572563D01*
X741403Y572653D01*
X741356Y572741D01*
X741306Y572827D01*
X741252Y572911D01*
X741195Y572993D01*
X741135Y573072D01*
X741071Y573150D01*
X741005Y573224D01*
X740936Y573296D01*
X740864Y573365D01*
X740790Y573431D01*
X740712Y573495D01*
X740633Y573555D01*
X740551Y573612D01*
X740467Y573666D01*
X740381Y573716D01*
X740293Y573763D01*
X740203Y573807D01*
X740112Y573847D01*
X740019Y573883D01*
X739925Y573916D01*
X739829Y573945D01*
X739733Y573970D01*
X739636Y573991D01*
X739537Y574009D01*
X739439Y574022D01*
X739339Y574032D01*
X739240Y574038D01*
X739140Y574040D01*
X664210Y574040D02*
X657860Y574040D01*
X664210Y574040D02*
X665480Y572770D01*
X664210Y543560D02*
X657860Y543560D01*
X664210Y543560D02*
X665480Y544830D01*
X731520Y572770D02*
X732790Y574040D01*
X731520Y572770D02*
X665480Y572770D01*
X731520Y544830D02*
X732790Y543560D01*
X731520Y544830D02*
X665480Y544830D01*
X732790Y574040D02*
X739140Y574040D01*
X739140Y543560D02*
X732790Y543560D01*
D12*
X708025Y553085D02*
X708025Y564515D01*
X711200Y564515D01*
X711311Y564513D01*
X711421Y564507D01*
X711532Y564498D01*
X711642Y564484D01*
X711751Y564467D01*
X711860Y564446D01*
X711968Y564421D01*
X712075Y564392D01*
X712181Y564360D01*
X712286Y564324D01*
X712389Y564284D01*
X712491Y564241D01*
X712592Y564194D01*
X712691Y564143D01*
X712788Y564090D01*
X712882Y564033D01*
X712975Y563972D01*
X713066Y563909D01*
X713155Y563842D01*
X713241Y563772D01*
X713324Y563699D01*
X713406Y563624D01*
X713484Y563546D01*
X713559Y563464D01*
X713632Y563381D01*
X713702Y563295D01*
X713769Y563206D01*
X713832Y563115D01*
X713893Y563022D01*
X713950Y562927D01*
X714003Y562831D01*
X714054Y562732D01*
X714101Y562631D01*
X714144Y562529D01*
X714184Y562426D01*
X714220Y562321D01*
X714252Y562215D01*
X714281Y562108D01*
X714306Y562000D01*
X714327Y561891D01*
X714344Y561782D01*
X714358Y561672D01*
X714367Y561561D01*
X714373Y561451D01*
X714375Y561340D01*
X714373Y561229D01*
X714367Y561119D01*
X714358Y561008D01*
X714344Y560898D01*
X714327Y560789D01*
X714306Y560680D01*
X714281Y560572D01*
X714252Y560465D01*
X714220Y560359D01*
X714184Y560254D01*
X714144Y560151D01*
X714101Y560049D01*
X714054Y559948D01*
X714003Y559849D01*
X713950Y559753D01*
X713893Y559658D01*
X713832Y559565D01*
X713769Y559474D01*
X713702Y559385D01*
X713632Y559299D01*
X713559Y559216D01*
X713484Y559134D01*
X713406Y559056D01*
X713324Y558981D01*
X713241Y558908D01*
X713155Y558838D01*
X713066Y558771D01*
X712975Y558708D01*
X712882Y558647D01*
X712788Y558590D01*
X712691Y558537D01*
X712592Y558486D01*
X712491Y558439D01*
X712389Y558396D01*
X712286Y558356D01*
X712181Y558320D01*
X712075Y558288D01*
X711968Y558259D01*
X711860Y558234D01*
X711751Y558213D01*
X711642Y558196D01*
X711532Y558182D01*
X711421Y558173D01*
X711311Y558167D01*
X711200Y558165D01*
X708025Y558165D01*
X711835Y558165D02*
X714375Y553085D01*
X719372Y553085D02*
X723182Y553085D01*
X723282Y553087D01*
X723381Y553093D01*
X723481Y553103D01*
X723579Y553116D01*
X723678Y553134D01*
X723775Y553155D01*
X723871Y553180D01*
X723967Y553209D01*
X724061Y553242D01*
X724154Y553278D01*
X724245Y553318D01*
X724335Y553362D01*
X724423Y553409D01*
X724509Y553459D01*
X724593Y553513D01*
X724675Y553570D01*
X724754Y553630D01*
X724832Y553694D01*
X724906Y553760D01*
X724978Y553829D01*
X725047Y553901D01*
X725113Y553975D01*
X725177Y554053D01*
X725237Y554132D01*
X725294Y554214D01*
X725348Y554298D01*
X725398Y554384D01*
X725445Y554472D01*
X725489Y554562D01*
X725529Y554653D01*
X725565Y554746D01*
X725598Y554840D01*
X725627Y554936D01*
X725652Y555032D01*
X725673Y555129D01*
X725691Y555228D01*
X725704Y555326D01*
X725714Y555426D01*
X725720Y555525D01*
X725722Y555625D01*
X725722Y556895D01*
X725720Y556995D01*
X725714Y557094D01*
X725704Y557194D01*
X725691Y557292D01*
X725673Y557391D01*
X725652Y557488D01*
X725627Y557584D01*
X725598Y557680D01*
X725565Y557774D01*
X725529Y557867D01*
X725489Y557958D01*
X725445Y558048D01*
X725398Y558136D01*
X725348Y558222D01*
X725294Y558306D01*
X725237Y558388D01*
X725177Y558467D01*
X725113Y558545D01*
X725047Y558619D01*
X724978Y558691D01*
X724906Y558760D01*
X724832Y558826D01*
X724754Y558890D01*
X724675Y558950D01*
X724593Y559007D01*
X724509Y559061D01*
X724423Y559111D01*
X724335Y559158D01*
X724245Y559202D01*
X724154Y559242D01*
X724061Y559278D01*
X723967Y559311D01*
X723871Y559340D01*
X723775Y559365D01*
X723678Y559386D01*
X723579Y559404D01*
X723481Y559417D01*
X723381Y559427D01*
X723282Y559433D01*
X723182Y559435D01*
X719372Y559435D01*
X719372Y564515D01*
X725722Y564515D01*
D21*
X723900Y145900D03*
X723900Y165900D03*
X723900Y185900D03*
X723900Y205900D03*
X723900Y225900D03*
X723900Y245900D03*
X723900Y265900D03*
X723900Y285900D03*
D12*
X281100Y634500D02*
X51100Y634500D01*
X51100Y254500D01*
X281100Y254500D01*
X281100Y634500D01*
D22*
X173292Y394824D02*
X161608Y394824D01*
X166801Y394824D02*
X166801Y401315D01*
X161608Y401315D02*
X173292Y401315D01*
X173292Y407039D02*
X161608Y407039D01*
X173292Y407039D02*
X173292Y412231D01*
X173292Y417091D02*
X161608Y417091D01*
X161608Y423582D02*
X168748Y417091D01*
X166152Y419688D02*
X173292Y423582D01*
X168748Y428084D02*
X168748Y435873D01*
X173292Y440925D02*
X173292Y444820D01*
X173290Y444919D01*
X173284Y445019D01*
X173275Y445118D01*
X173262Y445216D01*
X173245Y445314D01*
X173224Y445412D01*
X173199Y445508D01*
X173171Y445603D01*
X173139Y445697D01*
X173104Y445790D01*
X173065Y445882D01*
X173022Y445972D01*
X172977Y446060D01*
X172927Y446147D01*
X172875Y446231D01*
X172819Y446314D01*
X172761Y446394D01*
X172699Y446472D01*
X172634Y446547D01*
X172566Y446620D01*
X172496Y446690D01*
X172423Y446758D01*
X172348Y446823D01*
X172270Y446885D01*
X172190Y446943D01*
X172107Y446999D01*
X172023Y447051D01*
X171936Y447101D01*
X171848Y447146D01*
X171758Y447189D01*
X171666Y447228D01*
X171573Y447263D01*
X171479Y447295D01*
X171384Y447323D01*
X171288Y447348D01*
X171190Y447369D01*
X171092Y447386D01*
X170994Y447399D01*
X170895Y447408D01*
X170795Y447414D01*
X170696Y447416D01*
X169397Y447416D01*
X169298Y447414D01*
X169198Y447408D01*
X169099Y447399D01*
X169001Y447386D01*
X168903Y447369D01*
X168805Y447348D01*
X168709Y447323D01*
X168614Y447295D01*
X168520Y447263D01*
X168427Y447228D01*
X168335Y447189D01*
X168245Y447146D01*
X168157Y447101D01*
X168070Y447051D01*
X167986Y446999D01*
X167903Y446943D01*
X167823Y446885D01*
X167745Y446823D01*
X167670Y446758D01*
X167597Y446690D01*
X167527Y446620D01*
X167459Y446547D01*
X167394Y446472D01*
X167332Y446394D01*
X167274Y446314D01*
X167218Y446231D01*
X167166Y446147D01*
X167116Y446060D01*
X167071Y445972D01*
X167028Y445882D01*
X166989Y445790D01*
X166954Y445697D01*
X166922Y445603D01*
X166894Y445508D01*
X166869Y445412D01*
X166848Y445314D01*
X166831Y445216D01*
X166818Y445118D01*
X166809Y445019D01*
X166803Y444919D01*
X166801Y444820D01*
X166801Y440925D01*
X161608Y440925D01*
X161608Y447416D01*
X161608Y452849D02*
X173292Y452849D01*
X168099Y456744D02*
X161608Y452849D01*
X168099Y456744D02*
X161608Y460638D01*
X173292Y460638D01*
X167450Y466071D02*
X167220Y466074D01*
X166990Y466082D01*
X166761Y466096D01*
X166532Y466115D01*
X166303Y466140D01*
X166075Y466170D01*
X165848Y466205D01*
X165622Y466246D01*
X165397Y466292D01*
X165173Y466344D01*
X164950Y466401D01*
X164729Y466463D01*
X164509Y466531D01*
X164291Y466604D01*
X164075Y466682D01*
X163861Y466765D01*
X163649Y466853D01*
X163438Y466946D01*
X163231Y467045D01*
X163231Y467044D02*
X163141Y467077D01*
X163052Y467113D01*
X162964Y467153D01*
X162879Y467197D01*
X162795Y467244D01*
X162713Y467294D01*
X162633Y467348D01*
X162556Y467404D01*
X162480Y467464D01*
X162407Y467527D01*
X162337Y467592D01*
X162269Y467661D01*
X162205Y467732D01*
X162143Y467805D01*
X162084Y467881D01*
X162028Y467959D01*
X161975Y468040D01*
X161926Y468122D01*
X161880Y468206D01*
X161837Y468293D01*
X161798Y468380D01*
X161762Y468470D01*
X161730Y468560D01*
X161702Y468652D01*
X161677Y468745D01*
X161656Y468839D01*
X161639Y468933D01*
X161625Y469028D01*
X161616Y469124D01*
X161610Y469220D01*
X161608Y469316D01*
X161610Y469412D01*
X161616Y469508D01*
X161625Y469604D01*
X161639Y469699D01*
X161656Y469793D01*
X161677Y469887D01*
X161702Y469980D01*
X161730Y470072D01*
X161762Y470162D01*
X161798Y470252D01*
X161837Y470340D01*
X161880Y470426D01*
X161926Y470510D01*
X161975Y470592D01*
X162028Y470673D01*
X162084Y470751D01*
X162143Y470827D01*
X162205Y470900D01*
X162269Y470971D01*
X162337Y471040D01*
X162407Y471105D01*
X162480Y471168D01*
X162556Y471228D01*
X162633Y471284D01*
X162713Y471338D01*
X162795Y471388D01*
X162879Y471435D01*
X162964Y471479D01*
X163052Y471519D01*
X163141Y471555D01*
X163231Y471588D01*
X163438Y471687D01*
X163649Y471780D01*
X163861Y471868D01*
X164075Y471951D01*
X164291Y472029D01*
X164509Y472102D01*
X164729Y472170D01*
X164950Y472232D01*
X165173Y472289D01*
X165397Y472341D01*
X165622Y472387D01*
X165848Y472428D01*
X166075Y472463D01*
X166303Y472493D01*
X166532Y472518D01*
X166761Y472537D01*
X166990Y472551D01*
X167220Y472559D01*
X167450Y472562D01*
X167450Y466071D02*
X167680Y466074D01*
X167910Y466082D01*
X168139Y466096D01*
X168368Y466115D01*
X168597Y466140D01*
X168825Y466170D01*
X169052Y466205D01*
X169278Y466246D01*
X169503Y466292D01*
X169727Y466344D01*
X169950Y466401D01*
X170171Y466463D01*
X170391Y466531D01*
X170609Y466604D01*
X170825Y466682D01*
X171039Y466765D01*
X171251Y466853D01*
X171462Y466946D01*
X171669Y467045D01*
X171669Y467044D02*
X171759Y467077D01*
X171848Y467113D01*
X171936Y467154D01*
X172021Y467197D01*
X172105Y467244D01*
X172187Y467294D01*
X172267Y467348D01*
X172344Y467404D01*
X172420Y467464D01*
X172493Y467527D01*
X172563Y467592D01*
X172631Y467661D01*
X172695Y467732D01*
X172757Y467805D01*
X172816Y467881D01*
X172872Y467959D01*
X172925Y468040D01*
X172974Y468122D01*
X173020Y468206D01*
X173063Y468293D01*
X173102Y468380D01*
X173138Y468470D01*
X173170Y468560D01*
X173198Y468652D01*
X173223Y468745D01*
X173244Y468839D01*
X173261Y468933D01*
X173275Y469028D01*
X173284Y469124D01*
X173290Y469220D01*
X173292Y469316D01*
X171669Y471588D02*
X171462Y471687D01*
X171251Y471780D01*
X171039Y471868D01*
X170825Y471951D01*
X170609Y472029D01*
X170391Y472102D01*
X170171Y472170D01*
X169950Y472232D01*
X169727Y472289D01*
X169503Y472341D01*
X169278Y472387D01*
X169052Y472428D01*
X168825Y472463D01*
X168597Y472493D01*
X168368Y472518D01*
X168139Y472537D01*
X167910Y472551D01*
X167680Y472559D01*
X167450Y472562D01*
X171669Y471588D02*
X171759Y471555D01*
X171848Y471519D01*
X171936Y471479D01*
X172021Y471435D01*
X172105Y471388D01*
X172187Y471338D01*
X172267Y471284D01*
X172344Y471228D01*
X172420Y471168D01*
X172493Y471105D01*
X172563Y471040D01*
X172631Y470971D01*
X172695Y470900D01*
X172757Y470827D01*
X172816Y470751D01*
X172872Y470673D01*
X172925Y470592D01*
X172974Y470510D01*
X173020Y470426D01*
X173063Y470339D01*
X173102Y470252D01*
X173138Y470162D01*
X173170Y470072D01*
X173198Y469980D01*
X173223Y469887D01*
X173244Y469793D01*
X173261Y469699D01*
X173275Y469604D01*
X173284Y469508D01*
X173290Y469412D01*
X173292Y469316D01*
X170696Y466720D02*
X164204Y471913D01*
X173292Y477501D02*
X173292Y481396D01*
X173290Y481495D01*
X173284Y481595D01*
X173275Y481694D01*
X173262Y481792D01*
X173245Y481890D01*
X173224Y481988D01*
X173199Y482084D01*
X173171Y482179D01*
X173139Y482273D01*
X173104Y482366D01*
X173065Y482458D01*
X173022Y482548D01*
X172977Y482636D01*
X172927Y482723D01*
X172875Y482807D01*
X172819Y482890D01*
X172761Y482970D01*
X172699Y483048D01*
X172634Y483123D01*
X172566Y483196D01*
X172496Y483266D01*
X172423Y483334D01*
X172348Y483399D01*
X172270Y483461D01*
X172190Y483519D01*
X172107Y483575D01*
X172023Y483627D01*
X171936Y483677D01*
X171848Y483722D01*
X171758Y483765D01*
X171666Y483804D01*
X171573Y483839D01*
X171479Y483871D01*
X171384Y483899D01*
X171288Y483924D01*
X171190Y483945D01*
X171092Y483962D01*
X170994Y483975D01*
X170895Y483984D01*
X170795Y483990D01*
X170696Y483992D01*
X169397Y483992D01*
X169298Y483990D01*
X169198Y483984D01*
X169099Y483975D01*
X169001Y483962D01*
X168903Y483945D01*
X168805Y483924D01*
X168709Y483899D01*
X168614Y483871D01*
X168520Y483839D01*
X168427Y483804D01*
X168335Y483765D01*
X168245Y483722D01*
X168157Y483677D01*
X168070Y483627D01*
X167986Y483575D01*
X167903Y483519D01*
X167823Y483461D01*
X167745Y483399D01*
X167670Y483334D01*
X167597Y483266D01*
X167527Y483196D01*
X167459Y483123D01*
X167394Y483048D01*
X167332Y482970D01*
X167274Y482890D01*
X167218Y482807D01*
X167166Y482723D01*
X167116Y482636D01*
X167071Y482548D01*
X167028Y482458D01*
X166989Y482366D01*
X166954Y482273D01*
X166922Y482179D01*
X166894Y482084D01*
X166869Y481988D01*
X166848Y481890D01*
X166831Y481792D01*
X166818Y481694D01*
X166809Y481595D01*
X166803Y481495D01*
X166801Y481396D01*
X166801Y477501D01*
X161608Y477501D01*
X161608Y483992D01*
D23*
X193569Y556803D02*
X191481Y559414D01*
X200879Y559414D01*
X200879Y562024D02*
X200879Y556803D01*
X200879Y570302D02*
X191481Y573434D01*
X200879Y576567D01*
X198530Y575784D02*
X198530Y571085D01*
X200879Y582031D02*
X200879Y584119D01*
X200879Y582031D02*
X200877Y581942D01*
X200871Y581854D01*
X200862Y581766D01*
X200849Y581678D01*
X200832Y581591D01*
X200812Y581505D01*
X200787Y581420D01*
X200760Y581335D01*
X200728Y581252D01*
X200694Y581171D01*
X200655Y581091D01*
X200614Y581013D01*
X200569Y580936D01*
X200521Y580862D01*
X200470Y580789D01*
X200416Y580719D01*
X200358Y580652D01*
X200298Y580586D01*
X200236Y580524D01*
X200170Y580464D01*
X200103Y580406D01*
X200033Y580352D01*
X199960Y580301D01*
X199886Y580253D01*
X199809Y580208D01*
X199731Y580167D01*
X199651Y580128D01*
X199570Y580094D01*
X199487Y580062D01*
X199402Y580035D01*
X199317Y580010D01*
X199231Y579990D01*
X199144Y579973D01*
X199056Y579960D01*
X198968Y579951D01*
X198880Y579945D01*
X198791Y579943D01*
X198791Y579942D02*
X193569Y579942D01*
X193478Y579944D01*
X193387Y579950D01*
X193296Y579960D01*
X193206Y579974D01*
X193117Y579992D01*
X193028Y580013D01*
X192941Y580039D01*
X192855Y580068D01*
X192770Y580101D01*
X192686Y580138D01*
X192604Y580178D01*
X192525Y580222D01*
X192447Y580269D01*
X192371Y580320D01*
X192297Y580374D01*
X192226Y580431D01*
X192158Y580491D01*
X192092Y580554D01*
X192029Y580620D01*
X191969Y580688D01*
X191912Y580759D01*
X191858Y580833D01*
X191807Y580909D01*
X191760Y580986D01*
X191716Y581066D01*
X191676Y581148D01*
X191639Y581232D01*
X191606Y581316D01*
X191577Y581403D01*
X191551Y581490D01*
X191530Y581579D01*
X191512Y581668D01*
X191498Y581758D01*
X191488Y581849D01*
X191482Y581940D01*
X191480Y582031D01*
X191481Y582031D02*
X191481Y584119D01*
X133831Y562025D02*
X133736Y562023D01*
X133642Y562017D01*
X133548Y562008D01*
X133454Y561995D01*
X133361Y561978D01*
X133269Y561957D01*
X133177Y561932D01*
X133087Y561904D01*
X132998Y561872D01*
X132910Y561837D01*
X132824Y561798D01*
X132739Y561756D01*
X132656Y561710D01*
X132575Y561661D01*
X132496Y561609D01*
X132419Y561554D01*
X132345Y561495D01*
X132273Y561434D01*
X132203Y561370D01*
X132136Y561303D01*
X132072Y561233D01*
X132011Y561161D01*
X131952Y561087D01*
X131897Y561010D01*
X131845Y560931D01*
X131796Y560850D01*
X131750Y560767D01*
X131708Y560682D01*
X131669Y560596D01*
X131634Y560508D01*
X131602Y560419D01*
X131574Y560329D01*
X131549Y560237D01*
X131528Y560145D01*
X131511Y560052D01*
X131498Y559958D01*
X131489Y559864D01*
X131483Y559770D01*
X131481Y559675D01*
X131483Y559567D01*
X131489Y559458D01*
X131499Y559350D01*
X131512Y559243D01*
X131530Y559136D01*
X131551Y559029D01*
X131576Y558924D01*
X131605Y558819D01*
X131637Y558716D01*
X131674Y558614D01*
X131714Y558513D01*
X131757Y558414D01*
X131804Y558316D01*
X131855Y558220D01*
X131909Y558126D01*
X131966Y558034D01*
X132027Y557944D01*
X132091Y557856D01*
X132157Y557771D01*
X132227Y557688D01*
X132300Y557608D01*
X132376Y557530D01*
X132454Y557455D01*
X132535Y557383D01*
X132619Y557314D01*
X132705Y557248D01*
X132793Y557185D01*
X132884Y557126D01*
X132976Y557069D01*
X133071Y557016D01*
X133168Y556967D01*
X133266Y556921D01*
X133365Y556878D01*
X133467Y556839D01*
X133569Y556804D01*
X135659Y561242D02*
X135590Y561311D01*
X135519Y561377D01*
X135446Y561441D01*
X135370Y561502D01*
X135291Y561560D01*
X135211Y561614D01*
X135128Y561666D01*
X135044Y561714D01*
X134958Y561760D01*
X134870Y561801D01*
X134780Y561840D01*
X134689Y561875D01*
X134597Y561906D01*
X134504Y561934D01*
X134410Y561958D01*
X134315Y561978D01*
X134219Y561995D01*
X134122Y562008D01*
X134025Y562017D01*
X133928Y562023D01*
X133831Y562025D01*
X135658Y561241D02*
X140879Y556803D01*
X140879Y562024D01*
X140879Y570302D02*
X131481Y573434D01*
X140879Y576567D01*
X138530Y575784D02*
X138530Y571085D01*
X140879Y582031D02*
X140879Y584119D01*
X140879Y582031D02*
X140877Y581942D01*
X140871Y581854D01*
X140862Y581766D01*
X140849Y581678D01*
X140832Y581591D01*
X140812Y581505D01*
X140787Y581420D01*
X140760Y581335D01*
X140728Y581252D01*
X140694Y581171D01*
X140655Y581091D01*
X140614Y581013D01*
X140569Y580936D01*
X140521Y580862D01*
X140470Y580789D01*
X140416Y580719D01*
X140358Y580652D01*
X140298Y580586D01*
X140236Y580524D01*
X140170Y580464D01*
X140103Y580406D01*
X140033Y580352D01*
X139960Y580301D01*
X139886Y580253D01*
X139809Y580208D01*
X139731Y580167D01*
X139651Y580128D01*
X139570Y580094D01*
X139487Y580062D01*
X139402Y580035D01*
X139317Y580010D01*
X139231Y579990D01*
X139144Y579973D01*
X139056Y579960D01*
X138968Y579951D01*
X138880Y579945D01*
X138791Y579943D01*
X138791Y579942D02*
X133569Y579942D01*
X133478Y579944D01*
X133387Y579950D01*
X133296Y579960D01*
X133206Y579974D01*
X133117Y579992D01*
X133028Y580013D01*
X132941Y580039D01*
X132855Y580068D01*
X132770Y580101D01*
X132686Y580138D01*
X132604Y580178D01*
X132525Y580222D01*
X132447Y580269D01*
X132371Y580320D01*
X132297Y580374D01*
X132226Y580431D01*
X132158Y580491D01*
X132092Y580554D01*
X132029Y580620D01*
X131969Y580688D01*
X131912Y580759D01*
X131858Y580833D01*
X131807Y580909D01*
X131760Y580986D01*
X131716Y581066D01*
X131676Y581148D01*
X131639Y581232D01*
X131606Y581316D01*
X131577Y581403D01*
X131551Y581490D01*
X131530Y581579D01*
X131512Y581668D01*
X131498Y581758D01*
X131488Y581849D01*
X131482Y581940D01*
X131480Y582031D01*
X131481Y582031D02*
X131481Y584119D01*
X257224Y311999D02*
X257224Y305733D01*
X251481Y320364D02*
X260879Y323496D01*
X251481Y326629D01*
X256702Y329942D02*
X258791Y329942D01*
X256702Y329943D02*
X256612Y329945D01*
X256523Y329951D01*
X256433Y329960D01*
X256344Y329974D01*
X256256Y329991D01*
X256169Y330012D01*
X256082Y330037D01*
X255997Y330066D01*
X255913Y330098D01*
X255831Y330133D01*
X255750Y330173D01*
X255671Y330215D01*
X255594Y330261D01*
X255519Y330311D01*
X255446Y330363D01*
X255375Y330419D01*
X255307Y330477D01*
X255242Y330539D01*
X255179Y330603D01*
X255119Y330670D01*
X255062Y330739D01*
X255008Y330811D01*
X254957Y330885D01*
X254909Y330961D01*
X254865Y331039D01*
X254824Y331119D01*
X254786Y331201D01*
X254752Y331284D01*
X254722Y331369D01*
X254695Y331455D01*
X254672Y331541D01*
X254653Y331629D01*
X254638Y331718D01*
X254626Y331807D01*
X254618Y331896D01*
X254614Y331986D01*
X254614Y332076D01*
X254618Y332166D01*
X254626Y332255D01*
X254638Y332344D01*
X254653Y332433D01*
X254672Y332521D01*
X254695Y332607D01*
X254722Y332693D01*
X254752Y332778D01*
X254786Y332861D01*
X254824Y332943D01*
X254865Y333023D01*
X254909Y333101D01*
X254957Y333177D01*
X255008Y333251D01*
X255062Y333323D01*
X255119Y333392D01*
X255179Y333459D01*
X255242Y333523D01*
X255307Y333585D01*
X255375Y333643D01*
X255446Y333699D01*
X255519Y333751D01*
X255594Y333801D01*
X255671Y333847D01*
X255750Y333889D01*
X255831Y333929D01*
X255913Y333964D01*
X255997Y333996D01*
X256082Y334025D01*
X256169Y334050D01*
X256256Y334071D01*
X256344Y334088D01*
X256433Y334102D01*
X256523Y334111D01*
X256612Y334117D01*
X256702Y334119D01*
X258791Y334119D01*
X258881Y334117D01*
X258970Y334111D01*
X259060Y334102D01*
X259149Y334088D01*
X259237Y334071D01*
X259324Y334050D01*
X259411Y334025D01*
X259496Y333996D01*
X259580Y333964D01*
X259662Y333929D01*
X259743Y333889D01*
X259822Y333847D01*
X259899Y333801D01*
X259974Y333751D01*
X260047Y333699D01*
X260118Y333643D01*
X260186Y333585D01*
X260251Y333523D01*
X260314Y333459D01*
X260374Y333392D01*
X260431Y333323D01*
X260485Y333251D01*
X260536Y333177D01*
X260584Y333101D01*
X260628Y333023D01*
X260669Y332943D01*
X260707Y332861D01*
X260741Y332778D01*
X260771Y332693D01*
X260798Y332607D01*
X260821Y332521D01*
X260840Y332433D01*
X260855Y332344D01*
X260867Y332255D01*
X260875Y332166D01*
X260879Y332076D01*
X260879Y331986D01*
X260875Y331896D01*
X260867Y331807D01*
X260855Y331718D01*
X260840Y331629D01*
X260821Y331541D01*
X260798Y331455D01*
X260771Y331369D01*
X260741Y331284D01*
X260707Y331201D01*
X260669Y331119D01*
X260628Y331039D01*
X260584Y330961D01*
X260536Y330885D01*
X260485Y330811D01*
X260431Y330739D01*
X260374Y330670D01*
X260314Y330603D01*
X260251Y330539D01*
X260186Y330477D01*
X260118Y330419D01*
X260047Y330363D01*
X259974Y330311D01*
X259899Y330261D01*
X259822Y330215D01*
X259743Y330173D01*
X259662Y330133D01*
X259580Y330098D01*
X259496Y330066D01*
X259411Y330037D01*
X259324Y330012D01*
X259237Y329991D01*
X259149Y329974D01*
X259060Y329960D01*
X258970Y329951D01*
X258881Y329945D01*
X258791Y329943D01*
X77224Y311999D02*
X77224Y305733D01*
X80357Y308866D02*
X74092Y308866D01*
X71481Y320364D02*
X80879Y323496D01*
X71481Y326629D01*
X76702Y329942D02*
X78791Y329942D01*
X76702Y329943D02*
X76612Y329945D01*
X76523Y329951D01*
X76433Y329960D01*
X76344Y329974D01*
X76256Y329991D01*
X76169Y330012D01*
X76082Y330037D01*
X75997Y330066D01*
X75913Y330098D01*
X75831Y330133D01*
X75750Y330173D01*
X75671Y330215D01*
X75594Y330261D01*
X75519Y330311D01*
X75446Y330363D01*
X75375Y330419D01*
X75307Y330477D01*
X75242Y330539D01*
X75179Y330603D01*
X75119Y330670D01*
X75062Y330739D01*
X75008Y330811D01*
X74957Y330885D01*
X74909Y330961D01*
X74865Y331039D01*
X74824Y331119D01*
X74786Y331201D01*
X74752Y331284D01*
X74722Y331369D01*
X74695Y331455D01*
X74672Y331541D01*
X74653Y331629D01*
X74638Y331718D01*
X74626Y331807D01*
X74618Y331896D01*
X74614Y331986D01*
X74614Y332076D01*
X74618Y332166D01*
X74626Y332255D01*
X74638Y332344D01*
X74653Y332433D01*
X74672Y332521D01*
X74695Y332607D01*
X74722Y332693D01*
X74752Y332778D01*
X74786Y332861D01*
X74824Y332943D01*
X74865Y333023D01*
X74909Y333101D01*
X74957Y333177D01*
X75008Y333251D01*
X75062Y333323D01*
X75119Y333392D01*
X75179Y333459D01*
X75242Y333523D01*
X75307Y333585D01*
X75375Y333643D01*
X75446Y333699D01*
X75519Y333751D01*
X75594Y333801D01*
X75671Y333847D01*
X75750Y333889D01*
X75831Y333929D01*
X75913Y333964D01*
X75997Y333996D01*
X76082Y334025D01*
X76169Y334050D01*
X76256Y334071D01*
X76344Y334088D01*
X76433Y334102D01*
X76523Y334111D01*
X76612Y334117D01*
X76702Y334119D01*
X78791Y334119D01*
X78881Y334117D01*
X78970Y334111D01*
X79060Y334102D01*
X79149Y334088D01*
X79237Y334071D01*
X79324Y334050D01*
X79411Y334025D01*
X79496Y333996D01*
X79580Y333964D01*
X79662Y333929D01*
X79743Y333889D01*
X79822Y333847D01*
X79899Y333801D01*
X79974Y333751D01*
X80047Y333699D01*
X80118Y333643D01*
X80186Y333585D01*
X80251Y333523D01*
X80314Y333459D01*
X80374Y333392D01*
X80431Y333323D01*
X80485Y333251D01*
X80536Y333177D01*
X80584Y333101D01*
X80628Y333023D01*
X80669Y332943D01*
X80707Y332861D01*
X80741Y332778D01*
X80771Y332693D01*
X80798Y332607D01*
X80821Y332521D01*
X80840Y332433D01*
X80855Y332344D01*
X80867Y332255D01*
X80875Y332166D01*
X80879Y332076D01*
X80879Y331986D01*
X80875Y331896D01*
X80867Y331807D01*
X80855Y331718D01*
X80840Y331629D01*
X80821Y331541D01*
X80798Y331455D01*
X80771Y331369D01*
X80741Y331284D01*
X80707Y331201D01*
X80669Y331119D01*
X80628Y331039D01*
X80584Y330961D01*
X80536Y330885D01*
X80485Y330811D01*
X80431Y330739D01*
X80374Y330670D01*
X80314Y330603D01*
X80251Y330539D01*
X80186Y330477D01*
X80118Y330419D01*
X80047Y330363D01*
X79974Y330311D01*
X79899Y330261D01*
X79822Y330215D01*
X79743Y330173D01*
X79662Y330133D01*
X79580Y330098D01*
X79496Y330066D01*
X79411Y330037D01*
X79324Y330012D01*
X79237Y329991D01*
X79149Y329974D01*
X79060Y329960D01*
X78970Y329951D01*
X78881Y329945D01*
X78791Y329943D01*
D11*
X200660Y792480D02*
X200660Y882650D01*
X200660Y792480D02*
X171450Y792480D01*
X158750Y792480D02*
X120650Y792480D01*
X107950Y792480D02*
X78740Y792480D01*
X78740Y882650D02*
X200660Y882650D01*
X78740Y882650D02*
X78740Y792480D01*
X173990Y913130D02*
X200660Y913130D01*
X200660Y882650D01*
X78740Y882650D02*
X78740Y913130D01*
X156210Y913130D02*
X160020Y900430D01*
X156210Y913130D02*
X123190Y913130D01*
X160020Y900430D02*
X170180Y900430D01*
X173990Y913130D01*
X156210Y913130D01*
X109220Y900430D02*
X105410Y913130D01*
X78740Y913130D01*
X119380Y900430D02*
X123190Y913130D01*
X105410Y913130D01*
X109220Y900430D02*
X119380Y900430D01*
D12*
X181610Y818515D02*
X178435Y815975D01*
X181610Y818515D02*
X181610Y807085D01*
X178435Y807085D02*
X184785Y807085D01*
X136526Y815658D02*
X136524Y815762D01*
X136518Y815867D01*
X136509Y815971D01*
X136496Y816074D01*
X136478Y816177D01*
X136458Y816279D01*
X136433Y816381D01*
X136405Y816481D01*
X136373Y816581D01*
X136337Y816679D01*
X136298Y816776D01*
X136256Y816871D01*
X136210Y816965D01*
X136160Y817057D01*
X136108Y817147D01*
X136052Y817235D01*
X135992Y817321D01*
X135930Y817405D01*
X135865Y817486D01*
X135797Y817565D01*
X135725Y817642D01*
X135652Y817715D01*
X135575Y817787D01*
X135496Y817855D01*
X135415Y817920D01*
X135331Y817982D01*
X135245Y818042D01*
X135157Y818098D01*
X135067Y818150D01*
X134975Y818200D01*
X134881Y818246D01*
X134786Y818288D01*
X134689Y818327D01*
X134591Y818363D01*
X134491Y818395D01*
X134391Y818423D01*
X134289Y818448D01*
X134187Y818468D01*
X134084Y818486D01*
X133981Y818499D01*
X133877Y818508D01*
X133772Y818514D01*
X133668Y818516D01*
X133668Y818515D02*
X133550Y818513D01*
X133431Y818507D01*
X133313Y818498D01*
X133196Y818485D01*
X133079Y818467D01*
X132962Y818447D01*
X132846Y818422D01*
X132731Y818394D01*
X132618Y818361D01*
X132505Y818326D01*
X132393Y818286D01*
X132283Y818244D01*
X132174Y818197D01*
X132066Y818147D01*
X131961Y818094D01*
X131857Y818037D01*
X131755Y817977D01*
X131655Y817914D01*
X131557Y817847D01*
X131461Y817778D01*
X131368Y817705D01*
X131277Y817629D01*
X131188Y817551D01*
X131102Y817469D01*
X131019Y817385D01*
X130938Y817299D01*
X130861Y817209D01*
X130786Y817118D01*
X130714Y817024D01*
X130645Y816927D01*
X130580Y816829D01*
X130517Y816728D01*
X130458Y816625D01*
X130402Y816521D01*
X130350Y816415D01*
X130301Y816307D01*
X130256Y816198D01*
X130214Y816087D01*
X130176Y815975D01*
X135573Y813436D02*
X135649Y813511D01*
X135724Y813590D01*
X135795Y813671D01*
X135864Y813755D01*
X135929Y813841D01*
X135991Y813929D01*
X136051Y814019D01*
X136107Y814111D01*
X136160Y814206D01*
X136209Y814302D01*
X136255Y814400D01*
X136298Y814499D01*
X136337Y814600D01*
X136372Y814702D01*
X136404Y814805D01*
X136432Y814909D01*
X136457Y815014D01*
X136478Y815121D01*
X136495Y815227D01*
X136508Y815334D01*
X136517Y815442D01*
X136523Y815550D01*
X136525Y815658D01*
X135573Y813435D02*
X130175Y807085D01*
X136525Y807085D01*
D11*
X69850Y12700D02*
X234950Y12700D01*
X234950Y91440D01*
X234950Y96520D01*
X69850Y96520D02*
X69850Y91440D01*
X69850Y12700D01*
X76200Y25400D02*
X76200Y78740D01*
X76200Y81280D01*
X228600Y81280D02*
X228600Y78740D01*
X228600Y25400D01*
X101600Y15240D02*
X100949Y15248D01*
X100299Y15272D01*
X99649Y15311D01*
X99001Y15367D01*
X98354Y15438D01*
X97709Y15525D01*
X97066Y15628D01*
X96426Y15747D01*
X95790Y15881D01*
X95156Y16030D01*
X94527Y16195D01*
X93901Y16375D01*
X93281Y16571D01*
X92665Y16781D01*
X92054Y17007D01*
X91450Y17247D01*
X90851Y17502D01*
X90258Y17772D01*
X89673Y18056D01*
X89094Y18354D01*
X88523Y18666D01*
X87960Y18992D01*
X87405Y19332D01*
X86858Y19685D01*
X86320Y20051D01*
X85791Y20430D01*
X85272Y20822D01*
X84762Y21227D01*
X84263Y21644D01*
X83773Y22073D01*
X83295Y22514D01*
X82827Y22966D01*
X82370Y23430D01*
X81925Y23905D01*
X81492Y24390D01*
X81070Y24886D01*
X80661Y25392D01*
X80264Y25908D01*
X101600Y15240D02*
X102251Y15248D01*
X102901Y15272D01*
X103551Y15311D01*
X104199Y15367D01*
X104846Y15438D01*
X105491Y15525D01*
X106134Y15628D01*
X106774Y15747D01*
X107410Y15881D01*
X108044Y16030D01*
X108673Y16195D01*
X109299Y16375D01*
X109919Y16571D01*
X110535Y16781D01*
X111146Y17007D01*
X111750Y17247D01*
X112349Y17502D01*
X112942Y17772D01*
X113527Y18056D01*
X114106Y18354D01*
X114677Y18666D01*
X115240Y18992D01*
X115795Y19332D01*
X116342Y19685D01*
X116880Y20051D01*
X117409Y20430D01*
X117928Y20822D01*
X118438Y21227D01*
X118937Y21644D01*
X119427Y22073D01*
X119905Y22514D01*
X120373Y22966D01*
X120830Y23430D01*
X121275Y23905D01*
X121708Y24390D01*
X122130Y24886D01*
X122539Y25392D01*
X122936Y25908D01*
X123190Y25400D02*
X130810Y25400D01*
X80518Y25400D02*
X76200Y25400D01*
X181864Y25908D02*
X182261Y25392D01*
X182670Y24886D01*
X183092Y24390D01*
X183525Y23905D01*
X183970Y23430D01*
X184427Y22966D01*
X184895Y22514D01*
X185373Y22073D01*
X185863Y21644D01*
X186362Y21227D01*
X186872Y20822D01*
X187391Y20430D01*
X187920Y20051D01*
X188458Y19685D01*
X189005Y19332D01*
X189560Y18992D01*
X190123Y18666D01*
X190694Y18354D01*
X191273Y18056D01*
X191858Y17772D01*
X192451Y17502D01*
X193050Y17247D01*
X193654Y17007D01*
X194265Y16781D01*
X194881Y16571D01*
X195501Y16375D01*
X196127Y16195D01*
X196756Y16030D01*
X197390Y15881D01*
X198026Y15747D01*
X198666Y15628D01*
X199309Y15525D01*
X199954Y15438D01*
X200601Y15367D01*
X201249Y15311D01*
X201899Y15272D01*
X202549Y15248D01*
X203200Y15240D01*
X203851Y15248D01*
X204501Y15272D01*
X205151Y15311D01*
X205799Y15367D01*
X206446Y15438D01*
X207091Y15525D01*
X207734Y15628D01*
X208374Y15747D01*
X209010Y15881D01*
X209644Y16030D01*
X210273Y16195D01*
X210899Y16375D01*
X211519Y16571D01*
X212135Y16781D01*
X212746Y17007D01*
X213350Y17247D01*
X213949Y17502D01*
X214542Y17772D01*
X215127Y18056D01*
X215706Y18354D01*
X216277Y18666D01*
X216840Y18992D01*
X217395Y19332D01*
X217942Y19685D01*
X218480Y20051D01*
X219009Y20430D01*
X219528Y20822D01*
X220038Y21227D01*
X220537Y21644D01*
X221027Y22073D01*
X221505Y22514D01*
X221973Y22966D01*
X222430Y23430D01*
X222875Y23905D01*
X223308Y24390D01*
X223730Y24886D01*
X224139Y25392D01*
X224536Y25908D01*
X224282Y25400D02*
X228600Y25400D01*
X96520Y78740D02*
X76200Y78740D01*
X96520Y78740D02*
X106680Y78740D01*
X147320Y78740D01*
X157480Y78740D01*
X198120Y78740D01*
X208280Y78740D01*
X228600Y78740D01*
X96520Y96520D02*
X69850Y96520D01*
X96520Y96520D02*
X106680Y96520D01*
X147320Y96520D01*
X157480Y96520D01*
X198120Y96520D01*
X208280Y96520D01*
X234950Y96520D01*
X198120Y96520D02*
X198120Y78740D01*
X208280Y78740D02*
X208280Y96520D01*
X93980Y91440D02*
X69850Y91440D01*
X109220Y91440D02*
X144780Y91440D01*
X160020Y91440D02*
X195580Y91440D01*
X198120Y96520D01*
X195580Y91440D02*
X195580Y81280D01*
X198120Y78740D01*
X195580Y81280D02*
X160020Y81280D01*
X144780Y81280D02*
X109220Y81280D01*
X93980Y81280D02*
X76200Y81280D01*
X208280Y96520D02*
X210820Y91440D01*
X234950Y91440D01*
X210820Y91440D02*
X210820Y81280D01*
X208280Y78740D01*
X210820Y81280D02*
X228600Y81280D01*
X106680Y78740D02*
X106680Y96520D01*
X96520Y96520D02*
X96520Y78740D01*
X93980Y81280D02*
X93980Y91440D01*
X109220Y91440D02*
X109220Y81280D01*
X109220Y91440D02*
X106680Y96520D01*
X96520Y96520D02*
X93980Y91440D01*
X93980Y81280D02*
X96520Y78740D01*
X106680Y78740D02*
X109220Y81280D01*
X131064Y25908D02*
X131461Y25392D01*
X131870Y24886D01*
X132292Y24390D01*
X132725Y23905D01*
X133170Y23430D01*
X133627Y22966D01*
X134095Y22514D01*
X134573Y22073D01*
X135063Y21644D01*
X135562Y21227D01*
X136072Y20822D01*
X136591Y20430D01*
X137120Y20051D01*
X137658Y19685D01*
X138205Y19332D01*
X138760Y18992D01*
X139323Y18666D01*
X139894Y18354D01*
X140473Y18056D01*
X141058Y17772D01*
X141651Y17502D01*
X142250Y17247D01*
X142854Y17007D01*
X143465Y16781D01*
X144081Y16571D01*
X144701Y16375D01*
X145327Y16195D01*
X145956Y16030D01*
X146590Y15881D01*
X147226Y15747D01*
X147866Y15628D01*
X148509Y15525D01*
X149154Y15438D01*
X149801Y15367D01*
X150449Y15311D01*
X151099Y15272D01*
X151749Y15248D01*
X152400Y15240D01*
X153051Y15248D01*
X153701Y15272D01*
X154351Y15311D01*
X154999Y15367D01*
X155646Y15438D01*
X156291Y15525D01*
X156934Y15628D01*
X157574Y15747D01*
X158210Y15881D01*
X158844Y16030D01*
X159473Y16195D01*
X160099Y16375D01*
X160719Y16571D01*
X161335Y16781D01*
X161946Y17007D01*
X162550Y17247D01*
X163149Y17502D01*
X163742Y17772D01*
X164327Y18056D01*
X164906Y18354D01*
X165477Y18666D01*
X166040Y18992D01*
X166595Y19332D01*
X167142Y19685D01*
X167680Y20051D01*
X168209Y20430D01*
X168728Y20822D01*
X169238Y21227D01*
X169737Y21644D01*
X170227Y22073D01*
X170705Y22514D01*
X171173Y22966D01*
X171630Y23430D01*
X172075Y23905D01*
X172508Y24390D01*
X172930Y24886D01*
X173339Y25392D01*
X173736Y25908D01*
X173990Y25400D02*
X181610Y25400D01*
X147320Y78740D02*
X147320Y96520D01*
X157480Y96520D02*
X157480Y78740D01*
X160020Y81280D02*
X160020Y91440D01*
X157480Y96520D01*
X160020Y81280D02*
X157480Y78740D01*
X144780Y91440D02*
X147320Y96520D01*
X144780Y91440D02*
X144780Y81280D01*
X147320Y78740D01*
D12*
X83820Y41275D02*
X80645Y38735D01*
X83820Y41275D02*
X83820Y29845D01*
X80645Y29845D02*
X86995Y29845D01*
X131128Y41276D02*
X131232Y41274D01*
X131337Y41268D01*
X131441Y41259D01*
X131544Y41246D01*
X131647Y41228D01*
X131749Y41208D01*
X131851Y41183D01*
X131951Y41155D01*
X132051Y41123D01*
X132149Y41087D01*
X132246Y41048D01*
X132341Y41006D01*
X132435Y40960D01*
X132527Y40910D01*
X132617Y40858D01*
X132705Y40802D01*
X132791Y40742D01*
X132875Y40680D01*
X132956Y40615D01*
X133035Y40547D01*
X133112Y40475D01*
X133185Y40402D01*
X133257Y40325D01*
X133325Y40246D01*
X133390Y40165D01*
X133452Y40081D01*
X133512Y39995D01*
X133568Y39907D01*
X133620Y39817D01*
X133670Y39725D01*
X133716Y39631D01*
X133758Y39536D01*
X133797Y39439D01*
X133833Y39341D01*
X133865Y39241D01*
X133893Y39141D01*
X133918Y39039D01*
X133938Y38937D01*
X133956Y38834D01*
X133969Y38731D01*
X133978Y38627D01*
X133984Y38522D01*
X133986Y38418D01*
X131128Y41275D02*
X131010Y41273D01*
X130891Y41267D01*
X130773Y41258D01*
X130656Y41245D01*
X130539Y41227D01*
X130422Y41207D01*
X130306Y41182D01*
X130191Y41154D01*
X130078Y41121D01*
X129965Y41086D01*
X129853Y41046D01*
X129743Y41004D01*
X129634Y40957D01*
X129526Y40907D01*
X129421Y40854D01*
X129317Y40797D01*
X129215Y40737D01*
X129115Y40674D01*
X129017Y40607D01*
X128921Y40538D01*
X128828Y40465D01*
X128737Y40389D01*
X128648Y40311D01*
X128562Y40229D01*
X128479Y40145D01*
X128398Y40059D01*
X128321Y39969D01*
X128246Y39878D01*
X128174Y39784D01*
X128105Y39687D01*
X128040Y39589D01*
X127977Y39488D01*
X127918Y39385D01*
X127862Y39281D01*
X127810Y39175D01*
X127761Y39067D01*
X127716Y38958D01*
X127674Y38847D01*
X127636Y38735D01*
X133033Y36196D02*
X133109Y36271D01*
X133184Y36350D01*
X133255Y36431D01*
X133324Y36515D01*
X133389Y36601D01*
X133451Y36689D01*
X133511Y36779D01*
X133567Y36871D01*
X133620Y36966D01*
X133669Y37062D01*
X133715Y37160D01*
X133758Y37259D01*
X133797Y37360D01*
X133832Y37462D01*
X133864Y37565D01*
X133892Y37669D01*
X133917Y37774D01*
X133938Y37881D01*
X133955Y37987D01*
X133968Y38094D01*
X133977Y38202D01*
X133983Y38310D01*
X133985Y38418D01*
X133033Y36195D02*
X127635Y29845D01*
X133985Y29845D01*
X178435Y29845D02*
X181610Y29845D01*
X181721Y29847D01*
X181831Y29853D01*
X181942Y29862D01*
X182052Y29876D01*
X182161Y29893D01*
X182270Y29914D01*
X182378Y29939D01*
X182485Y29968D01*
X182591Y30000D01*
X182696Y30036D01*
X182799Y30076D01*
X182901Y30119D01*
X183002Y30166D01*
X183101Y30217D01*
X183197Y30270D01*
X183292Y30327D01*
X183385Y30388D01*
X183476Y30451D01*
X183565Y30518D01*
X183651Y30588D01*
X183734Y30661D01*
X183816Y30736D01*
X183894Y30814D01*
X183969Y30896D01*
X184042Y30979D01*
X184112Y31065D01*
X184179Y31154D01*
X184242Y31245D01*
X184303Y31338D01*
X184360Y31432D01*
X184413Y31529D01*
X184464Y31628D01*
X184511Y31729D01*
X184554Y31831D01*
X184594Y31934D01*
X184630Y32039D01*
X184662Y32145D01*
X184691Y32252D01*
X184716Y32360D01*
X184737Y32469D01*
X184754Y32578D01*
X184768Y32688D01*
X184777Y32799D01*
X184783Y32909D01*
X184785Y33020D01*
X184783Y33131D01*
X184777Y33241D01*
X184768Y33352D01*
X184754Y33462D01*
X184737Y33571D01*
X184716Y33680D01*
X184691Y33788D01*
X184662Y33895D01*
X184630Y34001D01*
X184594Y34106D01*
X184554Y34209D01*
X184511Y34311D01*
X184464Y34412D01*
X184413Y34511D01*
X184360Y34607D01*
X184303Y34702D01*
X184242Y34795D01*
X184179Y34886D01*
X184112Y34975D01*
X184042Y35061D01*
X183969Y35144D01*
X183894Y35226D01*
X183816Y35304D01*
X183734Y35379D01*
X183651Y35452D01*
X183565Y35522D01*
X183476Y35589D01*
X183385Y35652D01*
X183292Y35713D01*
X183198Y35770D01*
X183101Y35823D01*
X183002Y35874D01*
X182901Y35921D01*
X182799Y35964D01*
X182696Y36004D01*
X182591Y36040D01*
X182485Y36072D01*
X182378Y36101D01*
X182270Y36126D01*
X182161Y36147D01*
X182052Y36164D01*
X181942Y36178D01*
X181831Y36187D01*
X181721Y36193D01*
X181610Y36195D01*
X182245Y41275D02*
X178435Y41275D01*
X182245Y41275D02*
X182345Y41273D01*
X182444Y41267D01*
X182544Y41257D01*
X182642Y41244D01*
X182741Y41226D01*
X182838Y41205D01*
X182934Y41180D01*
X183030Y41151D01*
X183124Y41118D01*
X183217Y41082D01*
X183308Y41042D01*
X183398Y40998D01*
X183486Y40951D01*
X183572Y40901D01*
X183656Y40847D01*
X183738Y40790D01*
X183817Y40730D01*
X183895Y40666D01*
X183969Y40600D01*
X184041Y40531D01*
X184110Y40459D01*
X184176Y40385D01*
X184240Y40307D01*
X184300Y40228D01*
X184357Y40146D01*
X184411Y40062D01*
X184461Y39976D01*
X184508Y39888D01*
X184552Y39798D01*
X184592Y39707D01*
X184628Y39614D01*
X184661Y39520D01*
X184690Y39424D01*
X184715Y39328D01*
X184736Y39231D01*
X184754Y39132D01*
X184767Y39034D01*
X184777Y38934D01*
X184783Y38835D01*
X184785Y38735D01*
X184783Y38635D01*
X184777Y38536D01*
X184767Y38436D01*
X184754Y38338D01*
X184736Y38239D01*
X184715Y38142D01*
X184690Y38046D01*
X184661Y37950D01*
X184628Y37856D01*
X184592Y37763D01*
X184552Y37672D01*
X184508Y37582D01*
X184461Y37494D01*
X184411Y37408D01*
X184357Y37324D01*
X184300Y37242D01*
X184240Y37163D01*
X184176Y37085D01*
X184110Y37011D01*
X184041Y36939D01*
X183969Y36870D01*
X183895Y36804D01*
X183817Y36740D01*
X183738Y36680D01*
X183656Y36623D01*
X183572Y36569D01*
X183486Y36519D01*
X183398Y36472D01*
X183308Y36428D01*
X183217Y36388D01*
X183124Y36352D01*
X183030Y36319D01*
X182934Y36290D01*
X182838Y36265D01*
X182741Y36244D01*
X182642Y36226D01*
X182544Y36213D01*
X182444Y36203D01*
X182345Y36197D01*
X182245Y36195D01*
X179705Y36195D01*
D11*
X247650Y12700D02*
X412750Y12700D01*
X412750Y91440D01*
X412750Y96520D01*
X247650Y96520D02*
X247650Y91440D01*
X247650Y12700D01*
X254000Y25400D02*
X254000Y78740D01*
X254000Y81280D01*
X406400Y81280D02*
X406400Y78740D01*
X406400Y25400D01*
X279400Y15240D02*
X278749Y15248D01*
X278099Y15272D01*
X277449Y15311D01*
X276801Y15367D01*
X276154Y15438D01*
X275509Y15525D01*
X274866Y15628D01*
X274226Y15747D01*
X273590Y15881D01*
X272956Y16030D01*
X272327Y16195D01*
X271701Y16375D01*
X271081Y16571D01*
X270465Y16781D01*
X269854Y17007D01*
X269250Y17247D01*
X268651Y17502D01*
X268058Y17772D01*
X267473Y18056D01*
X266894Y18354D01*
X266323Y18666D01*
X265760Y18992D01*
X265205Y19332D01*
X264658Y19685D01*
X264120Y20051D01*
X263591Y20430D01*
X263072Y20822D01*
X262562Y21227D01*
X262063Y21644D01*
X261573Y22073D01*
X261095Y22514D01*
X260627Y22966D01*
X260170Y23430D01*
X259725Y23905D01*
X259292Y24390D01*
X258870Y24886D01*
X258461Y25392D01*
X258064Y25908D01*
X279400Y15240D02*
X280051Y15248D01*
X280701Y15272D01*
X281351Y15311D01*
X281999Y15367D01*
X282646Y15438D01*
X283291Y15525D01*
X283934Y15628D01*
X284574Y15747D01*
X285210Y15881D01*
X285844Y16030D01*
X286473Y16195D01*
X287099Y16375D01*
X287719Y16571D01*
X288335Y16781D01*
X288946Y17007D01*
X289550Y17247D01*
X290149Y17502D01*
X290742Y17772D01*
X291327Y18056D01*
X291906Y18354D01*
X292477Y18666D01*
X293040Y18992D01*
X293595Y19332D01*
X294142Y19685D01*
X294680Y20051D01*
X295209Y20430D01*
X295728Y20822D01*
X296238Y21227D01*
X296737Y21644D01*
X297227Y22073D01*
X297705Y22514D01*
X298173Y22966D01*
X298630Y23430D01*
X299075Y23905D01*
X299508Y24390D01*
X299930Y24886D01*
X300339Y25392D01*
X300736Y25908D01*
X300990Y25400D02*
X308610Y25400D01*
X258318Y25400D02*
X254000Y25400D01*
X359664Y25908D02*
X360061Y25392D01*
X360470Y24886D01*
X360892Y24390D01*
X361325Y23905D01*
X361770Y23430D01*
X362227Y22966D01*
X362695Y22514D01*
X363173Y22073D01*
X363663Y21644D01*
X364162Y21227D01*
X364672Y20822D01*
X365191Y20430D01*
X365720Y20051D01*
X366258Y19685D01*
X366805Y19332D01*
X367360Y18992D01*
X367923Y18666D01*
X368494Y18354D01*
X369073Y18056D01*
X369658Y17772D01*
X370251Y17502D01*
X370850Y17247D01*
X371454Y17007D01*
X372065Y16781D01*
X372681Y16571D01*
X373301Y16375D01*
X373927Y16195D01*
X374556Y16030D01*
X375190Y15881D01*
X375826Y15747D01*
X376466Y15628D01*
X377109Y15525D01*
X377754Y15438D01*
X378401Y15367D01*
X379049Y15311D01*
X379699Y15272D01*
X380349Y15248D01*
X381000Y15240D01*
X381651Y15248D01*
X382301Y15272D01*
X382951Y15311D01*
X383599Y15367D01*
X384246Y15438D01*
X384891Y15525D01*
X385534Y15628D01*
X386174Y15747D01*
X386810Y15881D01*
X387444Y16030D01*
X388073Y16195D01*
X388699Y16375D01*
X389319Y16571D01*
X389935Y16781D01*
X390546Y17007D01*
X391150Y17247D01*
X391749Y17502D01*
X392342Y17772D01*
X392927Y18056D01*
X393506Y18354D01*
X394077Y18666D01*
X394640Y18992D01*
X395195Y19332D01*
X395742Y19685D01*
X396280Y20051D01*
X396809Y20430D01*
X397328Y20822D01*
X397838Y21227D01*
X398337Y21644D01*
X398827Y22073D01*
X399305Y22514D01*
X399773Y22966D01*
X400230Y23430D01*
X400675Y23905D01*
X401108Y24390D01*
X401530Y24886D01*
X401939Y25392D01*
X402336Y25908D01*
X402082Y25400D02*
X406400Y25400D01*
X274320Y78740D02*
X254000Y78740D01*
X274320Y78740D02*
X284480Y78740D01*
X325120Y78740D01*
X335280Y78740D01*
X375920Y78740D01*
X386080Y78740D01*
X406400Y78740D01*
X274320Y96520D02*
X247650Y96520D01*
X274320Y96520D02*
X284480Y96520D01*
X325120Y96520D01*
X335280Y96520D01*
X375920Y96520D01*
X386080Y96520D01*
X412750Y96520D01*
X375920Y96520D02*
X375920Y78740D01*
X386080Y78740D02*
X386080Y96520D01*
X271780Y91440D02*
X247650Y91440D01*
X287020Y91440D02*
X322580Y91440D01*
X337820Y91440D02*
X373380Y91440D01*
X375920Y96520D01*
X373380Y91440D02*
X373380Y81280D01*
X375920Y78740D01*
X373380Y81280D02*
X337820Y81280D01*
X322580Y81280D02*
X287020Y81280D01*
X271780Y81280D02*
X254000Y81280D01*
X386080Y96520D02*
X388620Y91440D01*
X412750Y91440D01*
X388620Y91440D02*
X388620Y81280D01*
X386080Y78740D01*
X388620Y81280D02*
X406400Y81280D01*
X284480Y78740D02*
X284480Y96520D01*
X274320Y96520D02*
X274320Y78740D01*
X271780Y81280D02*
X271780Y91440D01*
X287020Y91440D02*
X287020Y81280D01*
X287020Y91440D02*
X284480Y96520D01*
X274320Y96520D02*
X271780Y91440D01*
X271780Y81280D02*
X274320Y78740D01*
X284480Y78740D02*
X287020Y81280D01*
X308864Y25908D02*
X309261Y25392D01*
X309670Y24886D01*
X310092Y24390D01*
X310525Y23905D01*
X310970Y23430D01*
X311427Y22966D01*
X311895Y22514D01*
X312373Y22073D01*
X312863Y21644D01*
X313362Y21227D01*
X313872Y20822D01*
X314391Y20430D01*
X314920Y20051D01*
X315458Y19685D01*
X316005Y19332D01*
X316560Y18992D01*
X317123Y18666D01*
X317694Y18354D01*
X318273Y18056D01*
X318858Y17772D01*
X319451Y17502D01*
X320050Y17247D01*
X320654Y17007D01*
X321265Y16781D01*
X321881Y16571D01*
X322501Y16375D01*
X323127Y16195D01*
X323756Y16030D01*
X324390Y15881D01*
X325026Y15747D01*
X325666Y15628D01*
X326309Y15525D01*
X326954Y15438D01*
X327601Y15367D01*
X328249Y15311D01*
X328899Y15272D01*
X329549Y15248D01*
X330200Y15240D01*
X330851Y15248D01*
X331501Y15272D01*
X332151Y15311D01*
X332799Y15367D01*
X333446Y15438D01*
X334091Y15525D01*
X334734Y15628D01*
X335374Y15747D01*
X336010Y15881D01*
X336644Y16030D01*
X337273Y16195D01*
X337899Y16375D01*
X338519Y16571D01*
X339135Y16781D01*
X339746Y17007D01*
X340350Y17247D01*
X340949Y17502D01*
X341542Y17772D01*
X342127Y18056D01*
X342706Y18354D01*
X343277Y18666D01*
X343840Y18992D01*
X344395Y19332D01*
X344942Y19685D01*
X345480Y20051D01*
X346009Y20430D01*
X346528Y20822D01*
X347038Y21227D01*
X347537Y21644D01*
X348027Y22073D01*
X348505Y22514D01*
X348973Y22966D01*
X349430Y23430D01*
X349875Y23905D01*
X350308Y24390D01*
X350730Y24886D01*
X351139Y25392D01*
X351536Y25908D01*
X351790Y25400D02*
X359410Y25400D01*
X325120Y78740D02*
X325120Y96520D01*
X335280Y96520D02*
X335280Y78740D01*
X337820Y81280D02*
X337820Y91440D01*
X335280Y96520D01*
X337820Y81280D02*
X335280Y78740D01*
X322580Y91440D02*
X325120Y96520D01*
X322580Y91440D02*
X322580Y81280D01*
X325120Y78740D01*
D12*
X261620Y41275D02*
X258445Y38735D01*
X261620Y41275D02*
X261620Y29845D01*
X258445Y29845D02*
X264795Y29845D01*
X308928Y41276D02*
X309032Y41274D01*
X309137Y41268D01*
X309241Y41259D01*
X309344Y41246D01*
X309447Y41228D01*
X309549Y41208D01*
X309651Y41183D01*
X309751Y41155D01*
X309851Y41123D01*
X309949Y41087D01*
X310046Y41048D01*
X310141Y41006D01*
X310235Y40960D01*
X310327Y40910D01*
X310417Y40858D01*
X310505Y40802D01*
X310591Y40742D01*
X310675Y40680D01*
X310756Y40615D01*
X310835Y40547D01*
X310912Y40475D01*
X310985Y40402D01*
X311057Y40325D01*
X311125Y40246D01*
X311190Y40165D01*
X311252Y40081D01*
X311312Y39995D01*
X311368Y39907D01*
X311420Y39817D01*
X311470Y39725D01*
X311516Y39631D01*
X311558Y39536D01*
X311597Y39439D01*
X311633Y39341D01*
X311665Y39241D01*
X311693Y39141D01*
X311718Y39039D01*
X311738Y38937D01*
X311756Y38834D01*
X311769Y38731D01*
X311778Y38627D01*
X311784Y38522D01*
X311786Y38418D01*
X308928Y41275D02*
X308810Y41273D01*
X308691Y41267D01*
X308573Y41258D01*
X308456Y41245D01*
X308339Y41227D01*
X308222Y41207D01*
X308106Y41182D01*
X307991Y41154D01*
X307878Y41121D01*
X307765Y41086D01*
X307653Y41046D01*
X307543Y41004D01*
X307434Y40957D01*
X307326Y40907D01*
X307221Y40854D01*
X307117Y40797D01*
X307015Y40737D01*
X306915Y40674D01*
X306817Y40607D01*
X306721Y40538D01*
X306628Y40465D01*
X306537Y40389D01*
X306448Y40311D01*
X306362Y40229D01*
X306279Y40145D01*
X306198Y40059D01*
X306121Y39969D01*
X306046Y39878D01*
X305974Y39784D01*
X305905Y39687D01*
X305840Y39589D01*
X305777Y39488D01*
X305718Y39385D01*
X305662Y39281D01*
X305610Y39175D01*
X305561Y39067D01*
X305516Y38958D01*
X305474Y38847D01*
X305436Y38735D01*
X310833Y36196D02*
X310909Y36271D01*
X310984Y36350D01*
X311055Y36431D01*
X311124Y36515D01*
X311189Y36601D01*
X311251Y36689D01*
X311311Y36779D01*
X311367Y36871D01*
X311420Y36966D01*
X311469Y37062D01*
X311515Y37160D01*
X311558Y37259D01*
X311597Y37360D01*
X311632Y37462D01*
X311664Y37565D01*
X311692Y37669D01*
X311717Y37774D01*
X311738Y37881D01*
X311755Y37987D01*
X311768Y38094D01*
X311777Y38202D01*
X311783Y38310D01*
X311785Y38418D01*
X310833Y36195D02*
X305435Y29845D01*
X311785Y29845D01*
X356235Y29845D02*
X359410Y29845D01*
X359521Y29847D01*
X359631Y29853D01*
X359742Y29862D01*
X359852Y29876D01*
X359961Y29893D01*
X360070Y29914D01*
X360178Y29939D01*
X360285Y29968D01*
X360391Y30000D01*
X360496Y30036D01*
X360599Y30076D01*
X360701Y30119D01*
X360802Y30166D01*
X360901Y30217D01*
X360998Y30270D01*
X361092Y30327D01*
X361185Y30388D01*
X361276Y30451D01*
X361365Y30518D01*
X361451Y30588D01*
X361534Y30661D01*
X361616Y30736D01*
X361694Y30814D01*
X361769Y30896D01*
X361842Y30979D01*
X361912Y31065D01*
X361979Y31154D01*
X362042Y31245D01*
X362103Y31338D01*
X362160Y31432D01*
X362213Y31529D01*
X362264Y31628D01*
X362311Y31729D01*
X362354Y31831D01*
X362394Y31934D01*
X362430Y32039D01*
X362462Y32145D01*
X362491Y32252D01*
X362516Y32360D01*
X362537Y32469D01*
X362554Y32578D01*
X362568Y32688D01*
X362577Y32799D01*
X362583Y32909D01*
X362585Y33020D01*
X362583Y33131D01*
X362577Y33241D01*
X362568Y33352D01*
X362554Y33462D01*
X362537Y33571D01*
X362516Y33680D01*
X362491Y33788D01*
X362462Y33895D01*
X362430Y34001D01*
X362394Y34106D01*
X362354Y34209D01*
X362311Y34311D01*
X362264Y34412D01*
X362213Y34511D01*
X362160Y34607D01*
X362103Y34702D01*
X362042Y34795D01*
X361979Y34886D01*
X361912Y34975D01*
X361842Y35061D01*
X361769Y35144D01*
X361694Y35226D01*
X361616Y35304D01*
X361534Y35379D01*
X361451Y35452D01*
X361365Y35522D01*
X361276Y35589D01*
X361185Y35652D01*
X361092Y35713D01*
X360998Y35770D01*
X360901Y35823D01*
X360802Y35874D01*
X360701Y35921D01*
X360599Y35964D01*
X360496Y36004D01*
X360391Y36040D01*
X360285Y36072D01*
X360178Y36101D01*
X360070Y36126D01*
X359961Y36147D01*
X359852Y36164D01*
X359742Y36178D01*
X359631Y36187D01*
X359521Y36193D01*
X359410Y36195D01*
X360045Y41275D02*
X356235Y41275D01*
X360045Y41275D02*
X360145Y41273D01*
X360244Y41267D01*
X360344Y41257D01*
X360442Y41244D01*
X360541Y41226D01*
X360638Y41205D01*
X360734Y41180D01*
X360830Y41151D01*
X360924Y41118D01*
X361017Y41082D01*
X361108Y41042D01*
X361198Y40998D01*
X361286Y40951D01*
X361372Y40901D01*
X361456Y40847D01*
X361538Y40790D01*
X361617Y40730D01*
X361695Y40666D01*
X361769Y40600D01*
X361841Y40531D01*
X361910Y40459D01*
X361976Y40385D01*
X362040Y40307D01*
X362100Y40228D01*
X362157Y40146D01*
X362211Y40062D01*
X362261Y39976D01*
X362308Y39888D01*
X362352Y39798D01*
X362392Y39707D01*
X362428Y39614D01*
X362461Y39520D01*
X362490Y39424D01*
X362515Y39328D01*
X362536Y39231D01*
X362554Y39132D01*
X362567Y39034D01*
X362577Y38934D01*
X362583Y38835D01*
X362585Y38735D01*
X362583Y38635D01*
X362577Y38536D01*
X362567Y38436D01*
X362554Y38338D01*
X362536Y38239D01*
X362515Y38142D01*
X362490Y38046D01*
X362461Y37950D01*
X362428Y37856D01*
X362392Y37763D01*
X362352Y37672D01*
X362308Y37582D01*
X362261Y37494D01*
X362211Y37408D01*
X362157Y37324D01*
X362100Y37242D01*
X362040Y37163D01*
X361976Y37085D01*
X361910Y37011D01*
X361841Y36939D01*
X361769Y36870D01*
X361695Y36804D01*
X361617Y36740D01*
X361538Y36680D01*
X361456Y36623D01*
X361372Y36569D01*
X361286Y36519D01*
X361198Y36472D01*
X361108Y36428D01*
X361017Y36388D01*
X360924Y36352D01*
X360830Y36319D01*
X360734Y36290D01*
X360638Y36265D01*
X360541Y36244D01*
X360442Y36226D01*
X360344Y36213D01*
X360244Y36203D01*
X360145Y36197D01*
X360045Y36195D01*
X357505Y36195D01*
D11*
X425450Y12700D02*
X590550Y12700D01*
X590550Y91440D01*
X590550Y96520D01*
X425450Y96520D02*
X425450Y91440D01*
X425450Y12700D01*
X431800Y25400D02*
X431800Y78740D01*
X431800Y81280D01*
X584200Y81280D02*
X584200Y78740D01*
X584200Y25400D01*
X457200Y15240D02*
X456549Y15248D01*
X455899Y15272D01*
X455249Y15311D01*
X454601Y15367D01*
X453954Y15438D01*
X453309Y15525D01*
X452666Y15628D01*
X452026Y15747D01*
X451390Y15881D01*
X450756Y16030D01*
X450127Y16195D01*
X449501Y16375D01*
X448881Y16571D01*
X448265Y16781D01*
X447654Y17007D01*
X447050Y17247D01*
X446451Y17502D01*
X445858Y17772D01*
X445273Y18056D01*
X444694Y18354D01*
X444123Y18666D01*
X443560Y18992D01*
X443005Y19332D01*
X442458Y19685D01*
X441920Y20051D01*
X441391Y20430D01*
X440872Y20822D01*
X440362Y21227D01*
X439863Y21644D01*
X439373Y22073D01*
X438895Y22514D01*
X438427Y22966D01*
X437970Y23430D01*
X437525Y23905D01*
X437092Y24390D01*
X436670Y24886D01*
X436261Y25392D01*
X435864Y25908D01*
X457200Y15240D02*
X457851Y15248D01*
X458501Y15272D01*
X459151Y15311D01*
X459799Y15367D01*
X460446Y15438D01*
X461091Y15525D01*
X461734Y15628D01*
X462374Y15747D01*
X463010Y15881D01*
X463644Y16030D01*
X464273Y16195D01*
X464899Y16375D01*
X465519Y16571D01*
X466135Y16781D01*
X466746Y17007D01*
X467350Y17247D01*
X467949Y17502D01*
X468542Y17772D01*
X469127Y18056D01*
X469706Y18354D01*
X470277Y18666D01*
X470840Y18992D01*
X471395Y19332D01*
X471942Y19685D01*
X472480Y20051D01*
X473009Y20430D01*
X473528Y20822D01*
X474038Y21227D01*
X474537Y21644D01*
X475027Y22073D01*
X475505Y22514D01*
X475973Y22966D01*
X476430Y23430D01*
X476875Y23905D01*
X477308Y24390D01*
X477730Y24886D01*
X478139Y25392D01*
X478536Y25908D01*
X478790Y25400D02*
X486410Y25400D01*
X436118Y25400D02*
X431800Y25400D01*
X537464Y25908D02*
X537861Y25392D01*
X538270Y24886D01*
X538692Y24390D01*
X539125Y23905D01*
X539570Y23430D01*
X540027Y22966D01*
X540495Y22514D01*
X540973Y22073D01*
X541463Y21644D01*
X541962Y21227D01*
X542472Y20822D01*
X542991Y20430D01*
X543520Y20051D01*
X544058Y19685D01*
X544605Y19332D01*
X545160Y18992D01*
X545723Y18666D01*
X546294Y18354D01*
X546873Y18056D01*
X547458Y17772D01*
X548051Y17502D01*
X548650Y17247D01*
X549254Y17007D01*
X549865Y16781D01*
X550481Y16571D01*
X551101Y16375D01*
X551727Y16195D01*
X552356Y16030D01*
X552990Y15881D01*
X553626Y15747D01*
X554266Y15628D01*
X554909Y15525D01*
X555554Y15438D01*
X556201Y15367D01*
X556849Y15311D01*
X557499Y15272D01*
X558149Y15248D01*
X558800Y15240D01*
X559451Y15248D01*
X560101Y15272D01*
X560751Y15311D01*
X561399Y15367D01*
X562046Y15438D01*
X562691Y15525D01*
X563334Y15628D01*
X563974Y15747D01*
X564610Y15881D01*
X565244Y16030D01*
X565873Y16195D01*
X566499Y16375D01*
X567119Y16571D01*
X567735Y16781D01*
X568346Y17007D01*
X568950Y17247D01*
X569549Y17502D01*
X570142Y17772D01*
X570727Y18056D01*
X571306Y18354D01*
X571877Y18666D01*
X572440Y18992D01*
X572995Y19332D01*
X573542Y19685D01*
X574080Y20051D01*
X574609Y20430D01*
X575128Y20822D01*
X575638Y21227D01*
X576137Y21644D01*
X576627Y22073D01*
X577105Y22514D01*
X577573Y22966D01*
X578030Y23430D01*
X578475Y23905D01*
X578908Y24390D01*
X579330Y24886D01*
X579739Y25392D01*
X580136Y25908D01*
X579882Y25400D02*
X584200Y25400D01*
X452120Y78740D02*
X431800Y78740D01*
X452120Y78740D02*
X462280Y78740D01*
X502920Y78740D01*
X513080Y78740D01*
X553720Y78740D01*
X563880Y78740D01*
X584200Y78740D01*
X452120Y96520D02*
X425450Y96520D01*
X452120Y96520D02*
X462280Y96520D01*
X502920Y96520D01*
X513080Y96520D01*
X553720Y96520D01*
X563880Y96520D01*
X590550Y96520D01*
X553720Y96520D02*
X553720Y78740D01*
X563880Y78740D02*
X563880Y96520D01*
X449580Y91440D02*
X425450Y91440D01*
X464820Y91440D02*
X500380Y91440D01*
X515620Y91440D02*
X551180Y91440D01*
X553720Y96520D01*
X551180Y91440D02*
X551180Y81280D01*
X553720Y78740D01*
X551180Y81280D02*
X515620Y81280D01*
X500380Y81280D02*
X464820Y81280D01*
X449580Y81280D02*
X431800Y81280D01*
X563880Y96520D02*
X566420Y91440D01*
X590550Y91440D01*
X566420Y91440D02*
X566420Y81280D01*
X563880Y78740D01*
X566420Y81280D02*
X584200Y81280D01*
X462280Y78740D02*
X462280Y96520D01*
X452120Y96520D02*
X452120Y78740D01*
X449580Y81280D02*
X449580Y91440D01*
X464820Y91440D02*
X464820Y81280D01*
X464820Y91440D02*
X462280Y96520D01*
X452120Y96520D02*
X449580Y91440D01*
X449580Y81280D02*
X452120Y78740D01*
X462280Y78740D02*
X464820Y81280D01*
X486664Y25908D02*
X487061Y25392D01*
X487470Y24886D01*
X487892Y24390D01*
X488325Y23905D01*
X488770Y23430D01*
X489227Y22966D01*
X489695Y22514D01*
X490173Y22073D01*
X490663Y21644D01*
X491162Y21227D01*
X491672Y20822D01*
X492191Y20430D01*
X492720Y20051D01*
X493258Y19685D01*
X493805Y19332D01*
X494360Y18992D01*
X494923Y18666D01*
X495494Y18354D01*
X496073Y18056D01*
X496658Y17772D01*
X497251Y17502D01*
X497850Y17247D01*
X498454Y17007D01*
X499065Y16781D01*
X499681Y16571D01*
X500301Y16375D01*
X500927Y16195D01*
X501556Y16030D01*
X502190Y15881D01*
X502826Y15747D01*
X503466Y15628D01*
X504109Y15525D01*
X504754Y15438D01*
X505401Y15367D01*
X506049Y15311D01*
X506699Y15272D01*
X507349Y15248D01*
X508000Y15240D01*
X508651Y15248D01*
X509301Y15272D01*
X509951Y15311D01*
X510599Y15367D01*
X511246Y15438D01*
X511891Y15525D01*
X512534Y15628D01*
X513174Y15747D01*
X513810Y15881D01*
X514444Y16030D01*
X515073Y16195D01*
X515699Y16375D01*
X516319Y16571D01*
X516935Y16781D01*
X517546Y17007D01*
X518150Y17247D01*
X518749Y17502D01*
X519342Y17772D01*
X519927Y18056D01*
X520506Y18354D01*
X521077Y18666D01*
X521640Y18992D01*
X522195Y19332D01*
X522742Y19685D01*
X523280Y20051D01*
X523809Y20430D01*
X524328Y20822D01*
X524838Y21227D01*
X525337Y21644D01*
X525827Y22073D01*
X526305Y22514D01*
X526773Y22966D01*
X527230Y23430D01*
X527675Y23905D01*
X528108Y24390D01*
X528530Y24886D01*
X528939Y25392D01*
X529336Y25908D01*
X529590Y25400D02*
X537210Y25400D01*
X502920Y78740D02*
X502920Y96520D01*
X513080Y96520D02*
X513080Y78740D01*
X515620Y81280D02*
X515620Y91440D01*
X513080Y96520D01*
X515620Y81280D02*
X513080Y78740D01*
X500380Y91440D02*
X502920Y96520D01*
X500380Y91440D02*
X500380Y81280D01*
X502920Y78740D01*
D12*
X439420Y41275D02*
X436245Y38735D01*
X439420Y41275D02*
X439420Y29845D01*
X436245Y29845D02*
X442595Y29845D01*
X486728Y41276D02*
X486832Y41274D01*
X486937Y41268D01*
X487041Y41259D01*
X487144Y41246D01*
X487247Y41228D01*
X487349Y41208D01*
X487451Y41183D01*
X487551Y41155D01*
X487651Y41123D01*
X487749Y41087D01*
X487846Y41048D01*
X487941Y41006D01*
X488035Y40960D01*
X488127Y40910D01*
X488217Y40858D01*
X488305Y40802D01*
X488391Y40742D01*
X488475Y40680D01*
X488556Y40615D01*
X488635Y40547D01*
X488712Y40475D01*
X488785Y40402D01*
X488857Y40325D01*
X488925Y40246D01*
X488990Y40165D01*
X489052Y40081D01*
X489112Y39995D01*
X489168Y39907D01*
X489220Y39817D01*
X489270Y39725D01*
X489316Y39631D01*
X489358Y39536D01*
X489397Y39439D01*
X489433Y39341D01*
X489465Y39241D01*
X489493Y39141D01*
X489518Y39039D01*
X489538Y38937D01*
X489556Y38834D01*
X489569Y38731D01*
X489578Y38627D01*
X489584Y38522D01*
X489586Y38418D01*
X486728Y41275D02*
X486610Y41273D01*
X486491Y41267D01*
X486373Y41258D01*
X486256Y41245D01*
X486139Y41227D01*
X486022Y41207D01*
X485906Y41182D01*
X485791Y41154D01*
X485678Y41121D01*
X485565Y41086D01*
X485453Y41046D01*
X485343Y41004D01*
X485234Y40957D01*
X485126Y40907D01*
X485021Y40854D01*
X484917Y40797D01*
X484815Y40737D01*
X484715Y40674D01*
X484617Y40607D01*
X484521Y40538D01*
X484428Y40465D01*
X484337Y40389D01*
X484248Y40311D01*
X484162Y40229D01*
X484079Y40145D01*
X483998Y40059D01*
X483921Y39969D01*
X483846Y39878D01*
X483774Y39784D01*
X483705Y39687D01*
X483640Y39589D01*
X483577Y39488D01*
X483518Y39385D01*
X483462Y39281D01*
X483410Y39175D01*
X483361Y39067D01*
X483316Y38958D01*
X483274Y38847D01*
X483236Y38735D01*
X488633Y36196D02*
X488709Y36271D01*
X488784Y36350D01*
X488855Y36431D01*
X488924Y36515D01*
X488989Y36601D01*
X489051Y36689D01*
X489111Y36779D01*
X489167Y36871D01*
X489220Y36966D01*
X489269Y37062D01*
X489315Y37160D01*
X489358Y37259D01*
X489397Y37360D01*
X489432Y37462D01*
X489464Y37565D01*
X489492Y37669D01*
X489517Y37774D01*
X489538Y37881D01*
X489555Y37987D01*
X489568Y38094D01*
X489577Y38202D01*
X489583Y38310D01*
X489585Y38418D01*
X488633Y36195D02*
X483235Y29845D01*
X489585Y29845D01*
X534035Y29845D02*
X537210Y29845D01*
X537321Y29847D01*
X537431Y29853D01*
X537542Y29862D01*
X537652Y29876D01*
X537761Y29893D01*
X537870Y29914D01*
X537978Y29939D01*
X538085Y29968D01*
X538191Y30000D01*
X538296Y30036D01*
X538399Y30076D01*
X538501Y30119D01*
X538602Y30166D01*
X538701Y30217D01*
X538798Y30270D01*
X538892Y30327D01*
X538985Y30388D01*
X539076Y30451D01*
X539165Y30518D01*
X539251Y30588D01*
X539334Y30661D01*
X539416Y30736D01*
X539494Y30814D01*
X539569Y30896D01*
X539642Y30979D01*
X539712Y31065D01*
X539779Y31154D01*
X539842Y31245D01*
X539903Y31338D01*
X539960Y31432D01*
X540013Y31529D01*
X540064Y31628D01*
X540111Y31729D01*
X540154Y31831D01*
X540194Y31934D01*
X540230Y32039D01*
X540262Y32145D01*
X540291Y32252D01*
X540316Y32360D01*
X540337Y32469D01*
X540354Y32578D01*
X540368Y32688D01*
X540377Y32799D01*
X540383Y32909D01*
X540385Y33020D01*
X540383Y33131D01*
X540377Y33241D01*
X540368Y33352D01*
X540354Y33462D01*
X540337Y33571D01*
X540316Y33680D01*
X540291Y33788D01*
X540262Y33895D01*
X540230Y34001D01*
X540194Y34106D01*
X540154Y34209D01*
X540111Y34311D01*
X540064Y34412D01*
X540013Y34511D01*
X539960Y34607D01*
X539903Y34702D01*
X539842Y34795D01*
X539779Y34886D01*
X539712Y34975D01*
X539642Y35061D01*
X539569Y35144D01*
X539494Y35226D01*
X539416Y35304D01*
X539334Y35379D01*
X539251Y35452D01*
X539165Y35522D01*
X539076Y35589D01*
X538985Y35652D01*
X538892Y35713D01*
X538798Y35770D01*
X538701Y35823D01*
X538602Y35874D01*
X538501Y35921D01*
X538399Y35964D01*
X538296Y36004D01*
X538191Y36040D01*
X538085Y36072D01*
X537978Y36101D01*
X537870Y36126D01*
X537761Y36147D01*
X537652Y36164D01*
X537542Y36178D01*
X537431Y36187D01*
X537321Y36193D01*
X537210Y36195D01*
X537845Y41275D02*
X534035Y41275D01*
X537845Y41275D02*
X537945Y41273D01*
X538044Y41267D01*
X538144Y41257D01*
X538242Y41244D01*
X538341Y41226D01*
X538438Y41205D01*
X538534Y41180D01*
X538630Y41151D01*
X538724Y41118D01*
X538817Y41082D01*
X538908Y41042D01*
X538998Y40998D01*
X539086Y40951D01*
X539172Y40901D01*
X539256Y40847D01*
X539338Y40790D01*
X539417Y40730D01*
X539495Y40666D01*
X539569Y40600D01*
X539641Y40531D01*
X539710Y40459D01*
X539776Y40385D01*
X539840Y40307D01*
X539900Y40228D01*
X539957Y40146D01*
X540011Y40062D01*
X540061Y39976D01*
X540108Y39888D01*
X540152Y39798D01*
X540192Y39707D01*
X540228Y39614D01*
X540261Y39520D01*
X540290Y39424D01*
X540315Y39328D01*
X540336Y39231D01*
X540354Y39132D01*
X540367Y39034D01*
X540377Y38934D01*
X540383Y38835D01*
X540385Y38735D01*
X540383Y38635D01*
X540377Y38536D01*
X540367Y38436D01*
X540354Y38338D01*
X540336Y38239D01*
X540315Y38142D01*
X540290Y38046D01*
X540261Y37950D01*
X540228Y37856D01*
X540192Y37763D01*
X540152Y37672D01*
X540108Y37582D01*
X540061Y37494D01*
X540011Y37408D01*
X539957Y37324D01*
X539900Y37242D01*
X539840Y37163D01*
X539776Y37085D01*
X539710Y37011D01*
X539641Y36939D01*
X539569Y36870D01*
X539495Y36804D01*
X539417Y36740D01*
X539338Y36680D01*
X539256Y36623D01*
X539172Y36569D01*
X539086Y36519D01*
X538998Y36472D01*
X538908Y36428D01*
X538817Y36388D01*
X538724Y36352D01*
X538630Y36319D01*
X538534Y36290D01*
X538438Y36265D01*
X538341Y36244D01*
X538242Y36226D01*
X538144Y36213D01*
X538044Y36203D01*
X537945Y36197D01*
X537845Y36195D01*
X535305Y36195D01*
D11*
X603250Y12700D02*
X768350Y12700D01*
X768350Y91440D01*
X768350Y96520D01*
X603250Y96520D02*
X603250Y91440D01*
X603250Y12700D01*
X609600Y25400D02*
X609600Y78740D01*
X609600Y81280D01*
X762000Y81280D02*
X762000Y78740D01*
X762000Y25400D01*
X635000Y15240D02*
X634349Y15248D01*
X633699Y15272D01*
X633049Y15311D01*
X632401Y15367D01*
X631754Y15438D01*
X631109Y15525D01*
X630466Y15628D01*
X629826Y15747D01*
X629190Y15881D01*
X628556Y16030D01*
X627927Y16195D01*
X627301Y16375D01*
X626681Y16571D01*
X626065Y16781D01*
X625454Y17007D01*
X624850Y17247D01*
X624251Y17502D01*
X623658Y17772D01*
X623073Y18056D01*
X622494Y18354D01*
X621923Y18666D01*
X621360Y18992D01*
X620805Y19332D01*
X620258Y19685D01*
X619720Y20051D01*
X619191Y20430D01*
X618672Y20822D01*
X618162Y21227D01*
X617663Y21644D01*
X617173Y22073D01*
X616695Y22514D01*
X616227Y22966D01*
X615770Y23430D01*
X615325Y23905D01*
X614892Y24390D01*
X614470Y24886D01*
X614061Y25392D01*
X613664Y25908D01*
X635000Y15240D02*
X635651Y15248D01*
X636301Y15272D01*
X636951Y15311D01*
X637599Y15367D01*
X638246Y15438D01*
X638891Y15525D01*
X639534Y15628D01*
X640174Y15747D01*
X640810Y15881D01*
X641444Y16030D01*
X642073Y16195D01*
X642699Y16375D01*
X643319Y16571D01*
X643935Y16781D01*
X644546Y17007D01*
X645150Y17247D01*
X645749Y17502D01*
X646342Y17772D01*
X646927Y18056D01*
X647506Y18354D01*
X648077Y18666D01*
X648640Y18992D01*
X649195Y19332D01*
X649742Y19685D01*
X650280Y20051D01*
X650809Y20430D01*
X651328Y20822D01*
X651838Y21227D01*
X652337Y21644D01*
X652827Y22073D01*
X653305Y22514D01*
X653773Y22966D01*
X654230Y23430D01*
X654675Y23905D01*
X655108Y24390D01*
X655530Y24886D01*
X655939Y25392D01*
X656336Y25908D01*
X656590Y25400D02*
X664210Y25400D01*
X613918Y25400D02*
X609600Y25400D01*
X715264Y25908D02*
X715661Y25392D01*
X716070Y24886D01*
X716492Y24390D01*
X716925Y23905D01*
X717370Y23430D01*
X717827Y22966D01*
X718295Y22514D01*
X718773Y22073D01*
X719263Y21644D01*
X719762Y21227D01*
X720272Y20822D01*
X720791Y20430D01*
X721320Y20051D01*
X721858Y19685D01*
X722405Y19332D01*
X722960Y18992D01*
X723523Y18666D01*
X724094Y18354D01*
X724673Y18056D01*
X725258Y17772D01*
X725851Y17502D01*
X726450Y17247D01*
X727054Y17007D01*
X727665Y16781D01*
X728281Y16571D01*
X728901Y16375D01*
X729527Y16195D01*
X730156Y16030D01*
X730790Y15881D01*
X731426Y15747D01*
X732066Y15628D01*
X732709Y15525D01*
X733354Y15438D01*
X734001Y15367D01*
X734649Y15311D01*
X735299Y15272D01*
X735949Y15248D01*
X736600Y15240D01*
X737251Y15248D01*
X737901Y15272D01*
X738551Y15311D01*
X739199Y15367D01*
X739846Y15438D01*
X740491Y15525D01*
X741134Y15628D01*
X741774Y15747D01*
X742410Y15881D01*
X743044Y16030D01*
X743673Y16195D01*
X744299Y16375D01*
X744919Y16571D01*
X745535Y16781D01*
X746146Y17007D01*
X746750Y17247D01*
X747349Y17502D01*
X747942Y17772D01*
X748527Y18056D01*
X749106Y18354D01*
X749677Y18666D01*
X750240Y18992D01*
X750795Y19332D01*
X751342Y19685D01*
X751880Y20051D01*
X752409Y20430D01*
X752928Y20822D01*
X753438Y21227D01*
X753937Y21644D01*
X754427Y22073D01*
X754905Y22514D01*
X755373Y22966D01*
X755830Y23430D01*
X756275Y23905D01*
X756708Y24390D01*
X757130Y24886D01*
X757539Y25392D01*
X757936Y25908D01*
X757682Y25400D02*
X762000Y25400D01*
X629920Y78740D02*
X609600Y78740D01*
X629920Y78740D02*
X640080Y78740D01*
X680720Y78740D01*
X690880Y78740D01*
X731520Y78740D01*
X741680Y78740D01*
X762000Y78740D01*
X629920Y96520D02*
X603250Y96520D01*
X629920Y96520D02*
X640080Y96520D01*
X680720Y96520D01*
X690880Y96520D01*
X731520Y96520D01*
X741680Y96520D01*
X768350Y96520D01*
X731520Y96520D02*
X731520Y78740D01*
X741680Y78740D02*
X741680Y96520D01*
X627380Y91440D02*
X603250Y91440D01*
X642620Y91440D02*
X678180Y91440D01*
X693420Y91440D02*
X728980Y91440D01*
X731520Y96520D01*
X728980Y91440D02*
X728980Y81280D01*
X731520Y78740D01*
X728980Y81280D02*
X693420Y81280D01*
X678180Y81280D02*
X642620Y81280D01*
X627380Y81280D02*
X609600Y81280D01*
X741680Y96520D02*
X744220Y91440D01*
X768350Y91440D01*
X744220Y91440D02*
X744220Y81280D01*
X741680Y78740D01*
X744220Y81280D02*
X762000Y81280D01*
X640080Y78740D02*
X640080Y96520D01*
X629920Y96520D02*
X629920Y78740D01*
X627380Y81280D02*
X627380Y91440D01*
X642620Y91440D02*
X642620Y81280D01*
X642620Y91440D02*
X640080Y96520D01*
X629920Y96520D02*
X627380Y91440D01*
X627380Y81280D02*
X629920Y78740D01*
X640080Y78740D02*
X642620Y81280D01*
X664464Y25908D02*
X664861Y25392D01*
X665270Y24886D01*
X665692Y24390D01*
X666125Y23905D01*
X666570Y23430D01*
X667027Y22966D01*
X667495Y22514D01*
X667973Y22073D01*
X668463Y21644D01*
X668962Y21227D01*
X669472Y20822D01*
X669991Y20430D01*
X670520Y20051D01*
X671058Y19685D01*
X671605Y19332D01*
X672160Y18992D01*
X672723Y18666D01*
X673294Y18354D01*
X673873Y18056D01*
X674458Y17772D01*
X675051Y17502D01*
X675650Y17247D01*
X676254Y17007D01*
X676865Y16781D01*
X677481Y16571D01*
X678101Y16375D01*
X678727Y16195D01*
X679356Y16030D01*
X679990Y15881D01*
X680626Y15747D01*
X681266Y15628D01*
X681909Y15525D01*
X682554Y15438D01*
X683201Y15367D01*
X683849Y15311D01*
X684499Y15272D01*
X685149Y15248D01*
X685800Y15240D01*
X686451Y15248D01*
X687101Y15272D01*
X687751Y15311D01*
X688399Y15367D01*
X689046Y15438D01*
X689691Y15525D01*
X690334Y15628D01*
X690974Y15747D01*
X691610Y15881D01*
X692244Y16030D01*
X692873Y16195D01*
X693499Y16375D01*
X694119Y16571D01*
X694735Y16781D01*
X695346Y17007D01*
X695950Y17247D01*
X696549Y17502D01*
X697142Y17772D01*
X697727Y18056D01*
X698306Y18354D01*
X698877Y18666D01*
X699440Y18992D01*
X699995Y19332D01*
X700542Y19685D01*
X701080Y20051D01*
X701609Y20430D01*
X702128Y20822D01*
X702638Y21227D01*
X703137Y21644D01*
X703627Y22073D01*
X704105Y22514D01*
X704573Y22966D01*
X705030Y23430D01*
X705475Y23905D01*
X705908Y24390D01*
X706330Y24886D01*
X706739Y25392D01*
X707136Y25908D01*
X707390Y25400D02*
X715010Y25400D01*
X680720Y78740D02*
X680720Y96520D01*
X690880Y96520D02*
X690880Y78740D01*
X693420Y81280D02*
X693420Y91440D01*
X690880Y96520D01*
X693420Y81280D02*
X690880Y78740D01*
X678180Y91440D02*
X680720Y96520D01*
X678180Y91440D02*
X678180Y81280D01*
X680720Y78740D01*
D12*
X617220Y41275D02*
X614045Y38735D01*
X617220Y41275D02*
X617220Y29845D01*
X614045Y29845D02*
X620395Y29845D01*
X664528Y41276D02*
X664632Y41274D01*
X664737Y41268D01*
X664841Y41259D01*
X664944Y41246D01*
X665047Y41228D01*
X665149Y41208D01*
X665251Y41183D01*
X665351Y41155D01*
X665451Y41123D01*
X665549Y41087D01*
X665646Y41048D01*
X665741Y41006D01*
X665835Y40960D01*
X665927Y40910D01*
X666017Y40858D01*
X666105Y40802D01*
X666191Y40742D01*
X666275Y40680D01*
X666356Y40615D01*
X666435Y40547D01*
X666512Y40475D01*
X666585Y40402D01*
X666657Y40325D01*
X666725Y40246D01*
X666790Y40165D01*
X666852Y40081D01*
X666912Y39995D01*
X666968Y39907D01*
X667020Y39817D01*
X667070Y39725D01*
X667116Y39631D01*
X667158Y39536D01*
X667197Y39439D01*
X667233Y39341D01*
X667265Y39241D01*
X667293Y39141D01*
X667318Y39039D01*
X667338Y38937D01*
X667356Y38834D01*
X667369Y38731D01*
X667378Y38627D01*
X667384Y38522D01*
X667386Y38418D01*
X664528Y41275D02*
X664410Y41273D01*
X664291Y41267D01*
X664173Y41258D01*
X664056Y41245D01*
X663939Y41227D01*
X663822Y41207D01*
X663706Y41182D01*
X663591Y41154D01*
X663478Y41121D01*
X663365Y41086D01*
X663253Y41046D01*
X663143Y41004D01*
X663034Y40957D01*
X662926Y40907D01*
X662821Y40854D01*
X662717Y40797D01*
X662615Y40737D01*
X662515Y40674D01*
X662417Y40607D01*
X662321Y40538D01*
X662228Y40465D01*
X662137Y40389D01*
X662048Y40311D01*
X661962Y40229D01*
X661879Y40145D01*
X661798Y40059D01*
X661721Y39969D01*
X661646Y39878D01*
X661574Y39784D01*
X661505Y39687D01*
X661440Y39589D01*
X661377Y39488D01*
X661318Y39385D01*
X661262Y39281D01*
X661210Y39175D01*
X661161Y39067D01*
X661116Y38958D01*
X661074Y38847D01*
X661036Y38735D01*
X666433Y36196D02*
X666509Y36271D01*
X666584Y36350D01*
X666655Y36431D01*
X666724Y36515D01*
X666789Y36601D01*
X666851Y36689D01*
X666911Y36779D01*
X666967Y36871D01*
X667020Y36966D01*
X667069Y37062D01*
X667115Y37160D01*
X667158Y37259D01*
X667197Y37360D01*
X667232Y37462D01*
X667264Y37565D01*
X667292Y37669D01*
X667317Y37774D01*
X667338Y37881D01*
X667355Y37987D01*
X667368Y38094D01*
X667377Y38202D01*
X667383Y38310D01*
X667385Y38418D01*
X666433Y36195D02*
X661035Y29845D01*
X667385Y29845D01*
X711835Y29845D02*
X715010Y29845D01*
X715121Y29847D01*
X715231Y29853D01*
X715342Y29862D01*
X715452Y29876D01*
X715561Y29893D01*
X715670Y29914D01*
X715778Y29939D01*
X715885Y29968D01*
X715991Y30000D01*
X716096Y30036D01*
X716199Y30076D01*
X716301Y30119D01*
X716402Y30166D01*
X716501Y30217D01*
X716598Y30270D01*
X716692Y30327D01*
X716785Y30388D01*
X716876Y30451D01*
X716965Y30518D01*
X717051Y30588D01*
X717134Y30661D01*
X717216Y30736D01*
X717294Y30814D01*
X717369Y30896D01*
X717442Y30979D01*
X717512Y31065D01*
X717579Y31154D01*
X717642Y31245D01*
X717703Y31338D01*
X717760Y31432D01*
X717813Y31529D01*
X717864Y31628D01*
X717911Y31729D01*
X717954Y31831D01*
X717994Y31934D01*
X718030Y32039D01*
X718062Y32145D01*
X718091Y32252D01*
X718116Y32360D01*
X718137Y32469D01*
X718154Y32578D01*
X718168Y32688D01*
X718177Y32799D01*
X718183Y32909D01*
X718185Y33020D01*
X718183Y33131D01*
X718177Y33241D01*
X718168Y33352D01*
X718154Y33462D01*
X718137Y33571D01*
X718116Y33680D01*
X718091Y33788D01*
X718062Y33895D01*
X718030Y34001D01*
X717994Y34106D01*
X717954Y34209D01*
X717911Y34311D01*
X717864Y34412D01*
X717813Y34511D01*
X717760Y34607D01*
X717703Y34702D01*
X717642Y34795D01*
X717579Y34886D01*
X717512Y34975D01*
X717442Y35061D01*
X717369Y35144D01*
X717294Y35226D01*
X717216Y35304D01*
X717134Y35379D01*
X717051Y35452D01*
X716965Y35522D01*
X716876Y35589D01*
X716785Y35652D01*
X716692Y35713D01*
X716598Y35770D01*
X716501Y35823D01*
X716402Y35874D01*
X716301Y35921D01*
X716199Y35964D01*
X716096Y36004D01*
X715991Y36040D01*
X715885Y36072D01*
X715778Y36101D01*
X715670Y36126D01*
X715561Y36147D01*
X715452Y36164D01*
X715342Y36178D01*
X715231Y36187D01*
X715121Y36193D01*
X715010Y36195D01*
X715645Y41275D02*
X711835Y41275D01*
X715645Y41275D02*
X715745Y41273D01*
X715844Y41267D01*
X715944Y41257D01*
X716042Y41244D01*
X716141Y41226D01*
X716238Y41205D01*
X716334Y41180D01*
X716430Y41151D01*
X716524Y41118D01*
X716617Y41082D01*
X716708Y41042D01*
X716798Y40998D01*
X716886Y40951D01*
X716972Y40901D01*
X717056Y40847D01*
X717138Y40790D01*
X717217Y40730D01*
X717295Y40666D01*
X717369Y40600D01*
X717441Y40531D01*
X717510Y40459D01*
X717576Y40385D01*
X717640Y40307D01*
X717700Y40228D01*
X717757Y40146D01*
X717811Y40062D01*
X717861Y39976D01*
X717908Y39888D01*
X717952Y39798D01*
X717992Y39707D01*
X718028Y39614D01*
X718061Y39520D01*
X718090Y39424D01*
X718115Y39328D01*
X718136Y39231D01*
X718154Y39132D01*
X718167Y39034D01*
X718177Y38934D01*
X718183Y38835D01*
X718185Y38735D01*
X718183Y38635D01*
X718177Y38536D01*
X718167Y38436D01*
X718154Y38338D01*
X718136Y38239D01*
X718115Y38142D01*
X718090Y38046D01*
X718061Y37950D01*
X718028Y37856D01*
X717992Y37763D01*
X717952Y37672D01*
X717908Y37582D01*
X717861Y37494D01*
X717811Y37408D01*
X717757Y37324D01*
X717700Y37242D01*
X717640Y37163D01*
X717576Y37085D01*
X717510Y37011D01*
X717441Y36939D01*
X717369Y36870D01*
X717295Y36804D01*
X717217Y36740D01*
X717138Y36680D01*
X717056Y36623D01*
X716972Y36569D01*
X716886Y36519D01*
X716798Y36472D01*
X716708Y36428D01*
X716617Y36388D01*
X716524Y36352D01*
X716430Y36319D01*
X716334Y36290D01*
X716238Y36265D01*
X716141Y36244D01*
X716042Y36226D01*
X715944Y36213D01*
X715844Y36203D01*
X715745Y36197D01*
X715645Y36195D01*
X713105Y36195D01*
D11*
X755650Y901700D02*
X590550Y901700D01*
X590550Y822960D01*
X590550Y817880D01*
X755650Y817880D02*
X755650Y822960D01*
X755650Y901700D01*
X749300Y889000D02*
X749300Y835660D01*
X749300Y833120D01*
X596900Y833120D02*
X596900Y835660D01*
X596900Y889000D01*
X723900Y899160D02*
X724551Y899152D01*
X725201Y899128D01*
X725851Y899089D01*
X726499Y899033D01*
X727146Y898962D01*
X727791Y898875D01*
X728434Y898772D01*
X729074Y898653D01*
X729710Y898519D01*
X730344Y898370D01*
X730973Y898205D01*
X731599Y898025D01*
X732219Y897829D01*
X732835Y897619D01*
X733446Y897393D01*
X734050Y897153D01*
X734649Y896898D01*
X735242Y896628D01*
X735827Y896344D01*
X736406Y896046D01*
X736977Y895734D01*
X737540Y895408D01*
X738095Y895068D01*
X738642Y894715D01*
X739180Y894349D01*
X739709Y893970D01*
X740228Y893578D01*
X740738Y893173D01*
X741237Y892756D01*
X741727Y892327D01*
X742205Y891886D01*
X742673Y891434D01*
X743130Y890970D01*
X743575Y890495D01*
X744008Y890010D01*
X744430Y889514D01*
X744839Y889008D01*
X745236Y888492D01*
X723900Y899160D02*
X723249Y899152D01*
X722599Y899128D01*
X721949Y899089D01*
X721301Y899033D01*
X720654Y898962D01*
X720009Y898875D01*
X719366Y898772D01*
X718726Y898653D01*
X718090Y898519D01*
X717456Y898370D01*
X716827Y898205D01*
X716201Y898025D01*
X715581Y897829D01*
X714965Y897619D01*
X714354Y897393D01*
X713750Y897153D01*
X713151Y896898D01*
X712558Y896628D01*
X711973Y896344D01*
X711394Y896046D01*
X710823Y895734D01*
X710260Y895408D01*
X709705Y895068D01*
X709158Y894715D01*
X708620Y894349D01*
X708091Y893970D01*
X707572Y893578D01*
X707062Y893173D01*
X706563Y892756D01*
X706073Y892327D01*
X705595Y891886D01*
X705127Y891434D01*
X704670Y890970D01*
X704225Y890495D01*
X703792Y890010D01*
X703370Y889514D01*
X702961Y889008D01*
X702564Y888492D01*
X702310Y889000D02*
X694690Y889000D01*
X744982Y889000D02*
X749300Y889000D01*
X643636Y888492D02*
X643239Y889008D01*
X642830Y889514D01*
X642408Y890010D01*
X641975Y890495D01*
X641530Y890970D01*
X641073Y891434D01*
X640605Y891886D01*
X640127Y892327D01*
X639637Y892756D01*
X639138Y893173D01*
X638628Y893578D01*
X638109Y893970D01*
X637580Y894349D01*
X637042Y894715D01*
X636495Y895068D01*
X635940Y895408D01*
X635377Y895734D01*
X634806Y896046D01*
X634227Y896344D01*
X633642Y896628D01*
X633049Y896898D01*
X632450Y897153D01*
X631846Y897393D01*
X631235Y897619D01*
X630619Y897829D01*
X629999Y898025D01*
X629373Y898205D01*
X628744Y898370D01*
X628110Y898519D01*
X627474Y898653D01*
X626834Y898772D01*
X626191Y898875D01*
X625546Y898962D01*
X624899Y899033D01*
X624251Y899089D01*
X623601Y899128D01*
X622951Y899152D01*
X622300Y899160D01*
X621649Y899152D01*
X620999Y899128D01*
X620349Y899089D01*
X619701Y899033D01*
X619054Y898962D01*
X618409Y898875D01*
X617766Y898772D01*
X617126Y898653D01*
X616490Y898519D01*
X615856Y898370D01*
X615227Y898205D01*
X614601Y898025D01*
X613981Y897829D01*
X613365Y897619D01*
X612754Y897393D01*
X612150Y897153D01*
X611551Y896898D01*
X610958Y896628D01*
X610373Y896344D01*
X609794Y896046D01*
X609223Y895734D01*
X608660Y895408D01*
X608105Y895068D01*
X607558Y894715D01*
X607020Y894349D01*
X606491Y893970D01*
X605972Y893578D01*
X605462Y893173D01*
X604963Y892756D01*
X604473Y892327D01*
X603995Y891886D01*
X603527Y891434D01*
X603070Y890970D01*
X602625Y890495D01*
X602192Y890010D01*
X601770Y889514D01*
X601361Y889008D01*
X600964Y888492D01*
X601218Y889000D02*
X596900Y889000D01*
X728980Y835660D02*
X749300Y835660D01*
X728980Y835660D02*
X718820Y835660D01*
X678180Y835660D01*
X668020Y835660D01*
X627380Y835660D01*
X617220Y835660D01*
X596900Y835660D01*
X728980Y817880D02*
X755650Y817880D01*
X728980Y817880D02*
X718820Y817880D01*
X678180Y817880D01*
X668020Y817880D01*
X627380Y817880D01*
X617220Y817880D01*
X590550Y817880D01*
X627380Y817880D02*
X627380Y835660D01*
X617220Y835660D02*
X617220Y817880D01*
X731520Y822960D02*
X755650Y822960D01*
X716280Y822960D02*
X680720Y822960D01*
X665480Y822960D02*
X629920Y822960D01*
X627380Y817880D01*
X629920Y822960D02*
X629920Y833120D01*
X627380Y835660D01*
X629920Y833120D02*
X665480Y833120D01*
X680720Y833120D02*
X716280Y833120D01*
X731520Y833120D02*
X749300Y833120D01*
X617220Y817880D02*
X614680Y822960D01*
X590550Y822960D01*
X614680Y822960D02*
X614680Y833120D01*
X617220Y835660D01*
X614680Y833120D02*
X596900Y833120D01*
X718820Y835660D02*
X718820Y817880D01*
X728980Y817880D02*
X728980Y835660D01*
X731520Y833120D02*
X731520Y822960D01*
X716280Y822960D02*
X716280Y833120D01*
X716280Y822960D02*
X718820Y817880D01*
X728980Y817880D02*
X731520Y822960D01*
X731520Y833120D02*
X728980Y835660D01*
X718820Y835660D02*
X716280Y833120D01*
X694436Y888492D02*
X694039Y889008D01*
X693630Y889514D01*
X693208Y890010D01*
X692775Y890495D01*
X692330Y890970D01*
X691873Y891434D01*
X691405Y891886D01*
X690927Y892327D01*
X690437Y892756D01*
X689938Y893173D01*
X689428Y893578D01*
X688909Y893970D01*
X688380Y894349D01*
X687842Y894715D01*
X687295Y895068D01*
X686740Y895408D01*
X686177Y895734D01*
X685606Y896046D01*
X685027Y896344D01*
X684442Y896628D01*
X683849Y896898D01*
X683250Y897153D01*
X682646Y897393D01*
X682035Y897619D01*
X681419Y897829D01*
X680799Y898025D01*
X680173Y898205D01*
X679544Y898370D01*
X678910Y898519D01*
X678274Y898653D01*
X677634Y898772D01*
X676991Y898875D01*
X676346Y898962D01*
X675699Y899033D01*
X675051Y899089D01*
X674401Y899128D01*
X673751Y899152D01*
X673100Y899160D01*
X672449Y899152D01*
X671799Y899128D01*
X671149Y899089D01*
X670501Y899033D01*
X669854Y898962D01*
X669209Y898875D01*
X668566Y898772D01*
X667926Y898653D01*
X667290Y898519D01*
X666656Y898370D01*
X666027Y898205D01*
X665401Y898025D01*
X664781Y897829D01*
X664165Y897619D01*
X663554Y897393D01*
X662950Y897153D01*
X662351Y896898D01*
X661758Y896628D01*
X661173Y896344D01*
X660594Y896046D01*
X660023Y895734D01*
X659460Y895408D01*
X658905Y895068D01*
X658358Y894715D01*
X657820Y894349D01*
X657291Y893970D01*
X656772Y893578D01*
X656262Y893173D01*
X655763Y892756D01*
X655273Y892327D01*
X654795Y891886D01*
X654327Y891434D01*
X653870Y890970D01*
X653425Y890495D01*
X652992Y890010D01*
X652570Y889514D01*
X652161Y889008D01*
X651764Y888492D01*
X651510Y889000D02*
X643890Y889000D01*
X678180Y835660D02*
X678180Y817880D01*
X668020Y817880D02*
X668020Y835660D01*
X665480Y833120D02*
X665480Y822960D01*
X668020Y817880D01*
X665480Y833120D02*
X668020Y835660D01*
X680720Y822960D02*
X678180Y817880D01*
X680720Y822960D02*
X680720Y833120D01*
X678180Y835660D01*
D12*
X738505Y882015D02*
X741680Y884555D01*
X741680Y873125D01*
X738505Y873125D02*
X744855Y873125D01*
X697866Y881698D02*
X697864Y881802D01*
X697858Y881907D01*
X697849Y882011D01*
X697836Y882114D01*
X697818Y882217D01*
X697798Y882319D01*
X697773Y882421D01*
X697745Y882521D01*
X697713Y882621D01*
X697677Y882719D01*
X697638Y882816D01*
X697596Y882911D01*
X697550Y883005D01*
X697500Y883097D01*
X697448Y883187D01*
X697392Y883275D01*
X697332Y883361D01*
X697270Y883445D01*
X697205Y883526D01*
X697137Y883605D01*
X697065Y883682D01*
X696992Y883755D01*
X696915Y883827D01*
X696836Y883895D01*
X696755Y883960D01*
X696671Y884022D01*
X696585Y884082D01*
X696497Y884138D01*
X696407Y884190D01*
X696315Y884240D01*
X696221Y884286D01*
X696126Y884328D01*
X696029Y884367D01*
X695931Y884403D01*
X695831Y884435D01*
X695731Y884463D01*
X695629Y884488D01*
X695527Y884508D01*
X695424Y884526D01*
X695321Y884539D01*
X695217Y884548D01*
X695112Y884554D01*
X695008Y884556D01*
X695008Y884555D02*
X694890Y884553D01*
X694771Y884547D01*
X694653Y884538D01*
X694536Y884525D01*
X694419Y884507D01*
X694302Y884487D01*
X694186Y884462D01*
X694071Y884434D01*
X693958Y884401D01*
X693845Y884366D01*
X693733Y884326D01*
X693623Y884284D01*
X693514Y884237D01*
X693406Y884187D01*
X693301Y884134D01*
X693197Y884077D01*
X693095Y884017D01*
X692995Y883954D01*
X692897Y883887D01*
X692801Y883818D01*
X692708Y883745D01*
X692617Y883669D01*
X692528Y883591D01*
X692442Y883509D01*
X692359Y883425D01*
X692278Y883339D01*
X692201Y883249D01*
X692126Y883158D01*
X692054Y883064D01*
X691985Y882967D01*
X691920Y882869D01*
X691857Y882768D01*
X691798Y882665D01*
X691742Y882561D01*
X691690Y882455D01*
X691641Y882347D01*
X691596Y882238D01*
X691554Y882127D01*
X691516Y882015D01*
X696913Y879476D02*
X696989Y879551D01*
X697064Y879630D01*
X697135Y879711D01*
X697204Y879795D01*
X697269Y879881D01*
X697331Y879969D01*
X697391Y880059D01*
X697447Y880151D01*
X697500Y880246D01*
X697549Y880342D01*
X697595Y880440D01*
X697638Y880539D01*
X697677Y880640D01*
X697712Y880742D01*
X697744Y880845D01*
X697772Y880949D01*
X697797Y881054D01*
X697818Y881161D01*
X697835Y881267D01*
X697848Y881374D01*
X697857Y881482D01*
X697863Y881590D01*
X697865Y881698D01*
X696913Y879475D02*
X691515Y873125D01*
X697865Y873125D01*
X643890Y873125D02*
X640715Y873125D01*
X643890Y873125D02*
X644001Y873127D01*
X644111Y873133D01*
X644222Y873142D01*
X644332Y873156D01*
X644441Y873173D01*
X644550Y873194D01*
X644658Y873219D01*
X644765Y873248D01*
X644871Y873280D01*
X644976Y873316D01*
X645079Y873356D01*
X645181Y873399D01*
X645282Y873446D01*
X645381Y873497D01*
X645478Y873550D01*
X645572Y873607D01*
X645665Y873668D01*
X645756Y873731D01*
X645845Y873798D01*
X645931Y873868D01*
X646014Y873941D01*
X646096Y874016D01*
X646174Y874094D01*
X646249Y874176D01*
X646322Y874259D01*
X646392Y874345D01*
X646459Y874434D01*
X646522Y874525D01*
X646583Y874618D01*
X646640Y874713D01*
X646693Y874809D01*
X646744Y874908D01*
X646791Y875009D01*
X646834Y875111D01*
X646874Y875214D01*
X646910Y875319D01*
X646942Y875425D01*
X646971Y875532D01*
X646996Y875640D01*
X647017Y875749D01*
X647034Y875858D01*
X647048Y875968D01*
X647057Y876079D01*
X647063Y876189D01*
X647065Y876300D01*
X647063Y876411D01*
X647057Y876521D01*
X647048Y876632D01*
X647034Y876742D01*
X647017Y876851D01*
X646996Y876960D01*
X646971Y877068D01*
X646942Y877175D01*
X646910Y877281D01*
X646874Y877386D01*
X646834Y877489D01*
X646791Y877591D01*
X646744Y877692D01*
X646693Y877791D01*
X646640Y877887D01*
X646583Y877982D01*
X646522Y878075D01*
X646459Y878166D01*
X646392Y878255D01*
X646322Y878341D01*
X646249Y878424D01*
X646174Y878506D01*
X646096Y878584D01*
X646014Y878659D01*
X645931Y878732D01*
X645845Y878802D01*
X645756Y878869D01*
X645665Y878932D01*
X645572Y878993D01*
X645478Y879050D01*
X645381Y879103D01*
X645282Y879154D01*
X645181Y879201D01*
X645079Y879244D01*
X644976Y879284D01*
X644871Y879320D01*
X644765Y879352D01*
X644658Y879381D01*
X644550Y879406D01*
X644441Y879427D01*
X644332Y879444D01*
X644222Y879458D01*
X644111Y879467D01*
X644001Y879473D01*
X643890Y879475D01*
X644525Y884555D02*
X640715Y884555D01*
X644525Y884555D02*
X644625Y884553D01*
X644724Y884547D01*
X644824Y884537D01*
X644922Y884524D01*
X645021Y884506D01*
X645118Y884485D01*
X645214Y884460D01*
X645310Y884431D01*
X645404Y884398D01*
X645497Y884362D01*
X645588Y884322D01*
X645678Y884278D01*
X645766Y884231D01*
X645852Y884181D01*
X645936Y884127D01*
X646018Y884070D01*
X646097Y884010D01*
X646175Y883946D01*
X646249Y883880D01*
X646321Y883811D01*
X646390Y883739D01*
X646456Y883665D01*
X646520Y883587D01*
X646580Y883508D01*
X646637Y883426D01*
X646691Y883342D01*
X646741Y883256D01*
X646788Y883168D01*
X646832Y883078D01*
X646872Y882987D01*
X646908Y882894D01*
X646941Y882800D01*
X646970Y882704D01*
X646995Y882608D01*
X647016Y882511D01*
X647034Y882412D01*
X647047Y882314D01*
X647057Y882214D01*
X647063Y882115D01*
X647065Y882015D01*
X647063Y881915D01*
X647057Y881816D01*
X647047Y881716D01*
X647034Y881618D01*
X647016Y881519D01*
X646995Y881422D01*
X646970Y881326D01*
X646941Y881230D01*
X646908Y881136D01*
X646872Y881043D01*
X646832Y880952D01*
X646788Y880862D01*
X646741Y880774D01*
X646691Y880688D01*
X646637Y880604D01*
X646580Y880522D01*
X646520Y880443D01*
X646456Y880365D01*
X646390Y880291D01*
X646321Y880219D01*
X646249Y880150D01*
X646175Y880084D01*
X646097Y880020D01*
X646018Y879960D01*
X645936Y879903D01*
X645852Y879849D01*
X645766Y879799D01*
X645678Y879752D01*
X645588Y879708D01*
X645497Y879668D01*
X645404Y879632D01*
X645310Y879599D01*
X645214Y879570D01*
X645118Y879545D01*
X645021Y879524D01*
X644922Y879506D01*
X644824Y879493D01*
X644724Y879483D01*
X644625Y879477D01*
X644525Y879475D01*
X641985Y879475D01*
D11*
X577850Y901700D02*
X412750Y901700D01*
X412750Y822960D01*
X412750Y817880D01*
X577850Y817880D02*
X577850Y822960D01*
X577850Y901700D01*
X571500Y889000D02*
X571500Y835660D01*
X571500Y833120D01*
X419100Y833120D02*
X419100Y835660D01*
X419100Y889000D01*
X546100Y899160D02*
X546751Y899152D01*
X547401Y899128D01*
X548051Y899089D01*
X548699Y899033D01*
X549346Y898962D01*
X549991Y898875D01*
X550634Y898772D01*
X551274Y898653D01*
X551910Y898519D01*
X552544Y898370D01*
X553173Y898205D01*
X553799Y898025D01*
X554419Y897829D01*
X555035Y897619D01*
X555646Y897393D01*
X556250Y897153D01*
X556849Y896898D01*
X557442Y896628D01*
X558027Y896344D01*
X558606Y896046D01*
X559177Y895734D01*
X559740Y895408D01*
X560295Y895068D01*
X560842Y894715D01*
X561380Y894349D01*
X561909Y893970D01*
X562428Y893578D01*
X562938Y893173D01*
X563437Y892756D01*
X563927Y892327D01*
X564405Y891886D01*
X564873Y891434D01*
X565330Y890970D01*
X565775Y890495D01*
X566208Y890010D01*
X566630Y889514D01*
X567039Y889008D01*
X567436Y888492D01*
X546100Y899160D02*
X545449Y899152D01*
X544799Y899128D01*
X544149Y899089D01*
X543501Y899033D01*
X542854Y898962D01*
X542209Y898875D01*
X541566Y898772D01*
X540926Y898653D01*
X540290Y898519D01*
X539656Y898370D01*
X539027Y898205D01*
X538401Y898025D01*
X537781Y897829D01*
X537165Y897619D01*
X536554Y897393D01*
X535950Y897153D01*
X535351Y896898D01*
X534758Y896628D01*
X534173Y896344D01*
X533594Y896046D01*
X533023Y895734D01*
X532460Y895408D01*
X531905Y895068D01*
X531358Y894715D01*
X530820Y894349D01*
X530291Y893970D01*
X529772Y893578D01*
X529262Y893173D01*
X528763Y892756D01*
X528273Y892327D01*
X527795Y891886D01*
X527327Y891434D01*
X526870Y890970D01*
X526425Y890495D01*
X525992Y890010D01*
X525570Y889514D01*
X525161Y889008D01*
X524764Y888492D01*
X524510Y889000D02*
X516890Y889000D01*
X567182Y889000D02*
X571500Y889000D01*
X465836Y888492D02*
X465439Y889008D01*
X465030Y889514D01*
X464608Y890010D01*
X464175Y890495D01*
X463730Y890970D01*
X463273Y891434D01*
X462805Y891886D01*
X462327Y892327D01*
X461837Y892756D01*
X461338Y893173D01*
X460828Y893578D01*
X460309Y893970D01*
X459780Y894349D01*
X459242Y894715D01*
X458695Y895068D01*
X458140Y895408D01*
X457577Y895734D01*
X457006Y896046D01*
X456427Y896344D01*
X455842Y896628D01*
X455249Y896898D01*
X454650Y897153D01*
X454046Y897393D01*
X453435Y897619D01*
X452819Y897829D01*
X452199Y898025D01*
X451573Y898205D01*
X450944Y898370D01*
X450310Y898519D01*
X449674Y898653D01*
X449034Y898772D01*
X448391Y898875D01*
X447746Y898962D01*
X447099Y899033D01*
X446451Y899089D01*
X445801Y899128D01*
X445151Y899152D01*
X444500Y899160D01*
X443849Y899152D01*
X443199Y899128D01*
X442549Y899089D01*
X441901Y899033D01*
X441254Y898962D01*
X440609Y898875D01*
X439966Y898772D01*
X439326Y898653D01*
X438690Y898519D01*
X438056Y898370D01*
X437427Y898205D01*
X436801Y898025D01*
X436181Y897829D01*
X435565Y897619D01*
X434954Y897393D01*
X434350Y897153D01*
X433751Y896898D01*
X433158Y896628D01*
X432573Y896344D01*
X431994Y896046D01*
X431423Y895734D01*
X430860Y895408D01*
X430305Y895068D01*
X429758Y894715D01*
X429220Y894349D01*
X428691Y893970D01*
X428172Y893578D01*
X427662Y893173D01*
X427163Y892756D01*
X426673Y892327D01*
X426195Y891886D01*
X425727Y891434D01*
X425270Y890970D01*
X424825Y890495D01*
X424392Y890010D01*
X423970Y889514D01*
X423561Y889008D01*
X423164Y888492D01*
X423418Y889000D02*
X419100Y889000D01*
X551180Y835660D02*
X571500Y835660D01*
X551180Y835660D02*
X541020Y835660D01*
X500380Y835660D01*
X490220Y835660D01*
X449580Y835660D01*
X439420Y835660D01*
X419100Y835660D01*
X551180Y817880D02*
X577850Y817880D01*
X551180Y817880D02*
X541020Y817880D01*
X500380Y817880D01*
X490220Y817880D01*
X449580Y817880D01*
X439420Y817880D01*
X412750Y817880D01*
X449580Y817880D02*
X449580Y835660D01*
X439420Y835660D02*
X439420Y817880D01*
X553720Y822960D02*
X577850Y822960D01*
X538480Y822960D02*
X502920Y822960D01*
X487680Y822960D02*
X452120Y822960D01*
X449580Y817880D01*
X452120Y822960D02*
X452120Y833120D01*
X449580Y835660D01*
X452120Y833120D02*
X487680Y833120D01*
X502920Y833120D02*
X538480Y833120D01*
X553720Y833120D02*
X571500Y833120D01*
X439420Y817880D02*
X436880Y822960D01*
X412750Y822960D01*
X436880Y822960D02*
X436880Y833120D01*
X439420Y835660D01*
X436880Y833120D02*
X419100Y833120D01*
X541020Y835660D02*
X541020Y817880D01*
X551180Y817880D02*
X551180Y835660D01*
X553720Y833120D02*
X553720Y822960D01*
X538480Y822960D02*
X538480Y833120D01*
X538480Y822960D02*
X541020Y817880D01*
X551180Y817880D02*
X553720Y822960D01*
X553720Y833120D02*
X551180Y835660D01*
X541020Y835660D02*
X538480Y833120D01*
X516636Y888492D02*
X516239Y889008D01*
X515830Y889514D01*
X515408Y890010D01*
X514975Y890495D01*
X514530Y890970D01*
X514073Y891434D01*
X513605Y891886D01*
X513127Y892327D01*
X512637Y892756D01*
X512138Y893173D01*
X511628Y893578D01*
X511109Y893970D01*
X510580Y894349D01*
X510042Y894715D01*
X509495Y895068D01*
X508940Y895408D01*
X508377Y895734D01*
X507806Y896046D01*
X507227Y896344D01*
X506642Y896628D01*
X506049Y896898D01*
X505450Y897153D01*
X504846Y897393D01*
X504235Y897619D01*
X503619Y897829D01*
X502999Y898025D01*
X502373Y898205D01*
X501744Y898370D01*
X501110Y898519D01*
X500474Y898653D01*
X499834Y898772D01*
X499191Y898875D01*
X498546Y898962D01*
X497899Y899033D01*
X497251Y899089D01*
X496601Y899128D01*
X495951Y899152D01*
X495300Y899160D01*
X494649Y899152D01*
X493999Y899128D01*
X493349Y899089D01*
X492701Y899033D01*
X492054Y898962D01*
X491409Y898875D01*
X490766Y898772D01*
X490126Y898653D01*
X489490Y898519D01*
X488856Y898370D01*
X488227Y898205D01*
X487601Y898025D01*
X486981Y897829D01*
X486365Y897619D01*
X485754Y897393D01*
X485150Y897153D01*
X484551Y896898D01*
X483958Y896628D01*
X483373Y896344D01*
X482794Y896046D01*
X482223Y895734D01*
X481660Y895408D01*
X481105Y895068D01*
X480558Y894715D01*
X480020Y894349D01*
X479491Y893970D01*
X478972Y893578D01*
X478462Y893173D01*
X477963Y892756D01*
X477473Y892327D01*
X476995Y891886D01*
X476527Y891434D01*
X476070Y890970D01*
X475625Y890495D01*
X475192Y890010D01*
X474770Y889514D01*
X474361Y889008D01*
X473964Y888492D01*
X473710Y889000D02*
X466090Y889000D01*
X500380Y835660D02*
X500380Y817880D01*
X490220Y817880D02*
X490220Y835660D01*
X487680Y833120D02*
X487680Y822960D01*
X490220Y817880D01*
X487680Y833120D02*
X490220Y835660D01*
X502920Y822960D02*
X500380Y817880D01*
X502920Y822960D02*
X502920Y833120D01*
X500380Y835660D01*
D12*
X560705Y882015D02*
X563880Y884555D01*
X563880Y873125D01*
X560705Y873125D02*
X567055Y873125D01*
X520066Y881698D02*
X520064Y881802D01*
X520058Y881907D01*
X520049Y882011D01*
X520036Y882114D01*
X520018Y882217D01*
X519998Y882319D01*
X519973Y882421D01*
X519945Y882521D01*
X519913Y882621D01*
X519877Y882719D01*
X519838Y882816D01*
X519796Y882911D01*
X519750Y883005D01*
X519700Y883097D01*
X519648Y883187D01*
X519592Y883275D01*
X519532Y883361D01*
X519470Y883445D01*
X519405Y883526D01*
X519337Y883605D01*
X519265Y883682D01*
X519192Y883755D01*
X519115Y883827D01*
X519036Y883895D01*
X518955Y883960D01*
X518871Y884022D01*
X518785Y884082D01*
X518697Y884138D01*
X518607Y884190D01*
X518515Y884240D01*
X518421Y884286D01*
X518326Y884328D01*
X518229Y884367D01*
X518131Y884403D01*
X518031Y884435D01*
X517931Y884463D01*
X517829Y884488D01*
X517727Y884508D01*
X517624Y884526D01*
X517521Y884539D01*
X517417Y884548D01*
X517312Y884554D01*
X517208Y884556D01*
X517208Y884555D02*
X517090Y884553D01*
X516971Y884547D01*
X516853Y884538D01*
X516736Y884525D01*
X516619Y884507D01*
X516502Y884487D01*
X516386Y884462D01*
X516271Y884434D01*
X516158Y884401D01*
X516045Y884366D01*
X515933Y884326D01*
X515823Y884284D01*
X515714Y884237D01*
X515606Y884187D01*
X515501Y884134D01*
X515397Y884077D01*
X515295Y884017D01*
X515195Y883954D01*
X515097Y883887D01*
X515001Y883818D01*
X514908Y883745D01*
X514817Y883669D01*
X514728Y883591D01*
X514642Y883509D01*
X514559Y883425D01*
X514478Y883339D01*
X514401Y883249D01*
X514326Y883158D01*
X514254Y883064D01*
X514185Y882967D01*
X514120Y882869D01*
X514057Y882768D01*
X513998Y882665D01*
X513942Y882561D01*
X513890Y882455D01*
X513841Y882347D01*
X513796Y882238D01*
X513754Y882127D01*
X513716Y882015D01*
X519113Y879476D02*
X519189Y879551D01*
X519264Y879630D01*
X519335Y879711D01*
X519404Y879795D01*
X519469Y879881D01*
X519531Y879969D01*
X519591Y880059D01*
X519647Y880151D01*
X519700Y880246D01*
X519749Y880342D01*
X519795Y880440D01*
X519838Y880539D01*
X519877Y880640D01*
X519912Y880742D01*
X519944Y880845D01*
X519972Y880949D01*
X519997Y881054D01*
X520018Y881161D01*
X520035Y881267D01*
X520048Y881374D01*
X520057Y881482D01*
X520063Y881590D01*
X520065Y881698D01*
X519113Y879475D02*
X513715Y873125D01*
X520065Y873125D01*
X466090Y873125D02*
X462915Y873125D01*
X466090Y873125D02*
X466201Y873127D01*
X466311Y873133D01*
X466422Y873142D01*
X466532Y873156D01*
X466641Y873173D01*
X466750Y873194D01*
X466858Y873219D01*
X466965Y873248D01*
X467071Y873280D01*
X467176Y873316D01*
X467279Y873356D01*
X467381Y873399D01*
X467482Y873446D01*
X467581Y873497D01*
X467678Y873550D01*
X467772Y873607D01*
X467865Y873668D01*
X467956Y873731D01*
X468045Y873798D01*
X468131Y873868D01*
X468214Y873941D01*
X468296Y874016D01*
X468374Y874094D01*
X468449Y874176D01*
X468522Y874259D01*
X468592Y874345D01*
X468659Y874434D01*
X468722Y874525D01*
X468783Y874618D01*
X468840Y874713D01*
X468893Y874809D01*
X468944Y874908D01*
X468991Y875009D01*
X469034Y875111D01*
X469074Y875214D01*
X469110Y875319D01*
X469142Y875425D01*
X469171Y875532D01*
X469196Y875640D01*
X469217Y875749D01*
X469234Y875858D01*
X469248Y875968D01*
X469257Y876079D01*
X469263Y876189D01*
X469265Y876300D01*
X469263Y876411D01*
X469257Y876521D01*
X469248Y876632D01*
X469234Y876742D01*
X469217Y876851D01*
X469196Y876960D01*
X469171Y877068D01*
X469142Y877175D01*
X469110Y877281D01*
X469074Y877386D01*
X469034Y877489D01*
X468991Y877591D01*
X468944Y877692D01*
X468893Y877791D01*
X468840Y877887D01*
X468783Y877982D01*
X468722Y878075D01*
X468659Y878166D01*
X468592Y878255D01*
X468522Y878341D01*
X468449Y878424D01*
X468374Y878506D01*
X468296Y878584D01*
X468214Y878659D01*
X468131Y878732D01*
X468045Y878802D01*
X467956Y878869D01*
X467865Y878932D01*
X467772Y878993D01*
X467678Y879050D01*
X467581Y879103D01*
X467482Y879154D01*
X467381Y879201D01*
X467279Y879244D01*
X467176Y879284D01*
X467071Y879320D01*
X466965Y879352D01*
X466858Y879381D01*
X466750Y879406D01*
X466641Y879427D01*
X466532Y879444D01*
X466422Y879458D01*
X466311Y879467D01*
X466201Y879473D01*
X466090Y879475D01*
X466725Y884555D02*
X462915Y884555D01*
X466725Y884555D02*
X466825Y884553D01*
X466924Y884547D01*
X467024Y884537D01*
X467122Y884524D01*
X467221Y884506D01*
X467318Y884485D01*
X467414Y884460D01*
X467510Y884431D01*
X467604Y884398D01*
X467697Y884362D01*
X467788Y884322D01*
X467878Y884278D01*
X467966Y884231D01*
X468052Y884181D01*
X468136Y884127D01*
X468218Y884070D01*
X468297Y884010D01*
X468375Y883946D01*
X468449Y883880D01*
X468521Y883811D01*
X468590Y883739D01*
X468656Y883665D01*
X468720Y883587D01*
X468780Y883508D01*
X468837Y883426D01*
X468891Y883342D01*
X468941Y883256D01*
X468988Y883168D01*
X469032Y883078D01*
X469072Y882987D01*
X469108Y882894D01*
X469141Y882800D01*
X469170Y882704D01*
X469195Y882608D01*
X469216Y882511D01*
X469234Y882412D01*
X469247Y882314D01*
X469257Y882214D01*
X469263Y882115D01*
X469265Y882015D01*
X469263Y881915D01*
X469257Y881816D01*
X469247Y881716D01*
X469234Y881618D01*
X469216Y881519D01*
X469195Y881422D01*
X469170Y881326D01*
X469141Y881230D01*
X469108Y881136D01*
X469072Y881043D01*
X469032Y880952D01*
X468988Y880862D01*
X468941Y880774D01*
X468891Y880688D01*
X468837Y880604D01*
X468780Y880522D01*
X468720Y880443D01*
X468656Y880365D01*
X468590Y880291D01*
X468521Y880219D01*
X468449Y880150D01*
X468375Y880084D01*
X468297Y880020D01*
X468218Y879960D01*
X468136Y879903D01*
X468052Y879849D01*
X467966Y879799D01*
X467878Y879752D01*
X467788Y879708D01*
X467697Y879668D01*
X467604Y879632D01*
X467510Y879599D01*
X467414Y879570D01*
X467318Y879545D01*
X467221Y879524D01*
X467122Y879506D01*
X467024Y879493D01*
X466924Y879483D01*
X466825Y879477D01*
X466725Y879475D01*
X464185Y879475D01*
D11*
X400050Y901700D02*
X234950Y901700D01*
X234950Y822960D01*
X234950Y817880D01*
X400050Y817880D02*
X400050Y822960D01*
X400050Y901700D01*
X393700Y889000D02*
X393700Y835660D01*
X393700Y833120D01*
X241300Y833120D02*
X241300Y835660D01*
X241300Y889000D01*
X368300Y899160D02*
X368951Y899152D01*
X369601Y899128D01*
X370251Y899089D01*
X370899Y899033D01*
X371546Y898962D01*
X372191Y898875D01*
X372834Y898772D01*
X373474Y898653D01*
X374110Y898519D01*
X374744Y898370D01*
X375373Y898205D01*
X375999Y898025D01*
X376619Y897829D01*
X377235Y897619D01*
X377846Y897393D01*
X378450Y897153D01*
X379049Y896898D01*
X379642Y896628D01*
X380227Y896344D01*
X380806Y896046D01*
X381377Y895734D01*
X381940Y895408D01*
X382495Y895068D01*
X383042Y894715D01*
X383580Y894349D01*
X384109Y893970D01*
X384628Y893578D01*
X385138Y893173D01*
X385637Y892756D01*
X386127Y892327D01*
X386605Y891886D01*
X387073Y891434D01*
X387530Y890970D01*
X387975Y890495D01*
X388408Y890010D01*
X388830Y889514D01*
X389239Y889008D01*
X389636Y888492D01*
X368300Y899160D02*
X367649Y899152D01*
X366999Y899128D01*
X366349Y899089D01*
X365701Y899033D01*
X365054Y898962D01*
X364409Y898875D01*
X363766Y898772D01*
X363126Y898653D01*
X362490Y898519D01*
X361856Y898370D01*
X361227Y898205D01*
X360601Y898025D01*
X359981Y897829D01*
X359365Y897619D01*
X358754Y897393D01*
X358150Y897153D01*
X357551Y896898D01*
X356958Y896628D01*
X356373Y896344D01*
X355794Y896046D01*
X355223Y895734D01*
X354660Y895408D01*
X354105Y895068D01*
X353558Y894715D01*
X353020Y894349D01*
X352491Y893970D01*
X351972Y893578D01*
X351462Y893173D01*
X350963Y892756D01*
X350473Y892327D01*
X349995Y891886D01*
X349527Y891434D01*
X349070Y890970D01*
X348625Y890495D01*
X348192Y890010D01*
X347770Y889514D01*
X347361Y889008D01*
X346964Y888492D01*
X346710Y889000D02*
X339090Y889000D01*
X389382Y889000D02*
X393700Y889000D01*
X288036Y888492D02*
X287639Y889008D01*
X287230Y889514D01*
X286808Y890010D01*
X286375Y890495D01*
X285930Y890970D01*
X285473Y891434D01*
X285005Y891886D01*
X284527Y892327D01*
X284037Y892756D01*
X283538Y893173D01*
X283028Y893578D01*
X282509Y893970D01*
X281980Y894349D01*
X281442Y894715D01*
X280895Y895068D01*
X280340Y895408D01*
X279777Y895734D01*
X279206Y896046D01*
X278627Y896344D01*
X278042Y896628D01*
X277449Y896898D01*
X276850Y897153D01*
X276246Y897393D01*
X275635Y897619D01*
X275019Y897829D01*
X274399Y898025D01*
X273773Y898205D01*
X273144Y898370D01*
X272510Y898519D01*
X271874Y898653D01*
X271234Y898772D01*
X270591Y898875D01*
X269946Y898962D01*
X269299Y899033D01*
X268651Y899089D01*
X268001Y899128D01*
X267351Y899152D01*
X266700Y899160D01*
X266049Y899152D01*
X265399Y899128D01*
X264749Y899089D01*
X264101Y899033D01*
X263454Y898962D01*
X262809Y898875D01*
X262166Y898772D01*
X261526Y898653D01*
X260890Y898519D01*
X260256Y898370D01*
X259627Y898205D01*
X259001Y898025D01*
X258381Y897829D01*
X257765Y897619D01*
X257154Y897393D01*
X256550Y897153D01*
X255951Y896898D01*
X255358Y896628D01*
X254773Y896344D01*
X254194Y896046D01*
X253623Y895734D01*
X253060Y895408D01*
X252505Y895068D01*
X251958Y894715D01*
X251420Y894349D01*
X250891Y893970D01*
X250372Y893578D01*
X249862Y893173D01*
X249363Y892756D01*
X248873Y892327D01*
X248395Y891886D01*
X247927Y891434D01*
X247470Y890970D01*
X247025Y890495D01*
X246592Y890010D01*
X246170Y889514D01*
X245761Y889008D01*
X245364Y888492D01*
X245618Y889000D02*
X241300Y889000D01*
X373380Y835660D02*
X393700Y835660D01*
X373380Y835660D02*
X363220Y835660D01*
X322580Y835660D01*
X312420Y835660D01*
X271780Y835660D01*
X261620Y835660D01*
X241300Y835660D01*
X373380Y817880D02*
X400050Y817880D01*
X373380Y817880D02*
X363220Y817880D01*
X322580Y817880D01*
X312420Y817880D01*
X271780Y817880D01*
X261620Y817880D01*
X234950Y817880D01*
X271780Y817880D02*
X271780Y835660D01*
X261620Y835660D02*
X261620Y817880D01*
X375920Y822960D02*
X400050Y822960D01*
X360680Y822960D02*
X325120Y822960D01*
X309880Y822960D02*
X274320Y822960D01*
X271780Y817880D01*
X274320Y822960D02*
X274320Y833120D01*
X271780Y835660D01*
X274320Y833120D02*
X309880Y833120D01*
X325120Y833120D02*
X360680Y833120D01*
X375920Y833120D02*
X393700Y833120D01*
X261620Y817880D02*
X259080Y822960D01*
X234950Y822960D01*
X259080Y822960D02*
X259080Y833120D01*
X261620Y835660D01*
X259080Y833120D02*
X241300Y833120D01*
X363220Y835660D02*
X363220Y817880D01*
X373380Y817880D02*
X373380Y835660D01*
X375920Y833120D02*
X375920Y822960D01*
X360680Y822960D02*
X360680Y833120D01*
X360680Y822960D02*
X363220Y817880D01*
X373380Y817880D02*
X375920Y822960D01*
X375920Y833120D02*
X373380Y835660D01*
X363220Y835660D02*
X360680Y833120D01*
X338836Y888492D02*
X338439Y889008D01*
X338030Y889514D01*
X337608Y890010D01*
X337175Y890495D01*
X336730Y890970D01*
X336273Y891434D01*
X335805Y891886D01*
X335327Y892327D01*
X334837Y892756D01*
X334338Y893173D01*
X333828Y893578D01*
X333309Y893970D01*
X332780Y894349D01*
X332242Y894715D01*
X331695Y895068D01*
X331140Y895408D01*
X330577Y895734D01*
X330006Y896046D01*
X329427Y896344D01*
X328842Y896628D01*
X328249Y896898D01*
X327650Y897153D01*
X327046Y897393D01*
X326435Y897619D01*
X325819Y897829D01*
X325199Y898025D01*
X324573Y898205D01*
X323944Y898370D01*
X323310Y898519D01*
X322674Y898653D01*
X322034Y898772D01*
X321391Y898875D01*
X320746Y898962D01*
X320099Y899033D01*
X319451Y899089D01*
X318801Y899128D01*
X318151Y899152D01*
X317500Y899160D01*
X316849Y899152D01*
X316199Y899128D01*
X315549Y899089D01*
X314901Y899033D01*
X314254Y898962D01*
X313609Y898875D01*
X312966Y898772D01*
X312326Y898653D01*
X311690Y898519D01*
X311056Y898370D01*
X310427Y898205D01*
X309801Y898025D01*
X309181Y897829D01*
X308565Y897619D01*
X307954Y897393D01*
X307350Y897153D01*
X306751Y896898D01*
X306158Y896628D01*
X305573Y896344D01*
X304994Y896046D01*
X304423Y895734D01*
X303860Y895408D01*
X303305Y895068D01*
X302758Y894715D01*
X302220Y894349D01*
X301691Y893970D01*
X301172Y893578D01*
X300662Y893173D01*
X300163Y892756D01*
X299673Y892327D01*
X299195Y891886D01*
X298727Y891434D01*
X298270Y890970D01*
X297825Y890495D01*
X297392Y890010D01*
X296970Y889514D01*
X296561Y889008D01*
X296164Y888492D01*
X295910Y889000D02*
X288290Y889000D01*
X322580Y835660D02*
X322580Y817880D01*
X312420Y817880D02*
X312420Y835660D01*
X309880Y833120D02*
X309880Y822960D01*
X312420Y817880D01*
X309880Y833120D02*
X312420Y835660D01*
X325120Y822960D02*
X322580Y817880D01*
X325120Y822960D02*
X325120Y833120D01*
X322580Y835660D01*
D12*
X382905Y882015D02*
X386080Y884555D01*
X386080Y873125D01*
X382905Y873125D02*
X389255Y873125D01*
X342266Y881698D02*
X342264Y881802D01*
X342258Y881907D01*
X342249Y882011D01*
X342236Y882114D01*
X342218Y882217D01*
X342198Y882319D01*
X342173Y882421D01*
X342145Y882521D01*
X342113Y882621D01*
X342077Y882719D01*
X342038Y882816D01*
X341996Y882911D01*
X341950Y883005D01*
X341900Y883097D01*
X341848Y883187D01*
X341792Y883275D01*
X341732Y883361D01*
X341670Y883445D01*
X341605Y883526D01*
X341537Y883605D01*
X341465Y883682D01*
X341392Y883755D01*
X341315Y883827D01*
X341236Y883895D01*
X341155Y883960D01*
X341071Y884022D01*
X340985Y884082D01*
X340897Y884138D01*
X340807Y884190D01*
X340715Y884240D01*
X340621Y884286D01*
X340526Y884328D01*
X340429Y884367D01*
X340331Y884403D01*
X340231Y884435D01*
X340131Y884463D01*
X340029Y884488D01*
X339927Y884508D01*
X339824Y884526D01*
X339721Y884539D01*
X339617Y884548D01*
X339512Y884554D01*
X339408Y884556D01*
X339408Y884555D02*
X339290Y884553D01*
X339171Y884547D01*
X339053Y884538D01*
X338936Y884525D01*
X338819Y884507D01*
X338702Y884487D01*
X338586Y884462D01*
X338471Y884434D01*
X338358Y884401D01*
X338245Y884366D01*
X338133Y884326D01*
X338023Y884284D01*
X337914Y884237D01*
X337806Y884187D01*
X337701Y884134D01*
X337597Y884077D01*
X337495Y884017D01*
X337395Y883954D01*
X337297Y883887D01*
X337201Y883818D01*
X337108Y883745D01*
X337017Y883669D01*
X336928Y883591D01*
X336842Y883509D01*
X336759Y883425D01*
X336678Y883339D01*
X336601Y883249D01*
X336526Y883158D01*
X336454Y883064D01*
X336385Y882967D01*
X336320Y882869D01*
X336257Y882768D01*
X336198Y882665D01*
X336142Y882561D01*
X336090Y882455D01*
X336041Y882347D01*
X335996Y882238D01*
X335954Y882127D01*
X335916Y882015D01*
X341313Y879476D02*
X341389Y879551D01*
X341464Y879630D01*
X341535Y879711D01*
X341604Y879795D01*
X341669Y879881D01*
X341731Y879969D01*
X341791Y880059D01*
X341847Y880151D01*
X341900Y880246D01*
X341949Y880342D01*
X341995Y880440D01*
X342038Y880539D01*
X342077Y880640D01*
X342112Y880742D01*
X342144Y880845D01*
X342172Y880949D01*
X342197Y881054D01*
X342218Y881161D01*
X342235Y881267D01*
X342248Y881374D01*
X342257Y881482D01*
X342263Y881590D01*
X342265Y881698D01*
X341313Y879475D02*
X335915Y873125D01*
X342265Y873125D01*
X288290Y873125D02*
X285115Y873125D01*
X288290Y873125D02*
X288401Y873127D01*
X288511Y873133D01*
X288622Y873142D01*
X288732Y873156D01*
X288841Y873173D01*
X288950Y873194D01*
X289058Y873219D01*
X289165Y873248D01*
X289271Y873280D01*
X289376Y873316D01*
X289479Y873356D01*
X289581Y873399D01*
X289682Y873446D01*
X289781Y873497D01*
X289878Y873550D01*
X289972Y873607D01*
X290065Y873668D01*
X290156Y873731D01*
X290245Y873798D01*
X290331Y873868D01*
X290414Y873941D01*
X290496Y874016D01*
X290574Y874094D01*
X290649Y874176D01*
X290722Y874259D01*
X290792Y874345D01*
X290859Y874434D01*
X290922Y874525D01*
X290983Y874618D01*
X291040Y874713D01*
X291093Y874809D01*
X291144Y874908D01*
X291191Y875009D01*
X291234Y875111D01*
X291274Y875214D01*
X291310Y875319D01*
X291342Y875425D01*
X291371Y875532D01*
X291396Y875640D01*
X291417Y875749D01*
X291434Y875858D01*
X291448Y875968D01*
X291457Y876079D01*
X291463Y876189D01*
X291465Y876300D01*
X291463Y876411D01*
X291457Y876521D01*
X291448Y876632D01*
X291434Y876742D01*
X291417Y876851D01*
X291396Y876960D01*
X291371Y877068D01*
X291342Y877175D01*
X291310Y877281D01*
X291274Y877386D01*
X291234Y877489D01*
X291191Y877591D01*
X291144Y877692D01*
X291093Y877791D01*
X291040Y877887D01*
X290983Y877982D01*
X290922Y878075D01*
X290859Y878166D01*
X290792Y878255D01*
X290722Y878341D01*
X290649Y878424D01*
X290574Y878506D01*
X290496Y878584D01*
X290414Y878659D01*
X290331Y878732D01*
X290245Y878802D01*
X290156Y878869D01*
X290065Y878932D01*
X289972Y878993D01*
X289878Y879050D01*
X289781Y879103D01*
X289682Y879154D01*
X289581Y879201D01*
X289479Y879244D01*
X289376Y879284D01*
X289271Y879320D01*
X289165Y879352D01*
X289058Y879381D01*
X288950Y879406D01*
X288841Y879427D01*
X288732Y879444D01*
X288622Y879458D01*
X288511Y879467D01*
X288401Y879473D01*
X288290Y879475D01*
X288925Y884555D02*
X285115Y884555D01*
X288925Y884555D02*
X289025Y884553D01*
X289124Y884547D01*
X289224Y884537D01*
X289322Y884524D01*
X289421Y884506D01*
X289518Y884485D01*
X289614Y884460D01*
X289710Y884431D01*
X289804Y884398D01*
X289897Y884362D01*
X289988Y884322D01*
X290078Y884278D01*
X290166Y884231D01*
X290252Y884181D01*
X290336Y884127D01*
X290418Y884070D01*
X290497Y884010D01*
X290575Y883946D01*
X290649Y883880D01*
X290721Y883811D01*
X290790Y883739D01*
X290856Y883665D01*
X290920Y883587D01*
X290980Y883508D01*
X291037Y883426D01*
X291091Y883342D01*
X291141Y883256D01*
X291188Y883168D01*
X291232Y883078D01*
X291272Y882987D01*
X291308Y882894D01*
X291341Y882800D01*
X291370Y882704D01*
X291395Y882608D01*
X291416Y882511D01*
X291434Y882412D01*
X291447Y882314D01*
X291457Y882214D01*
X291463Y882115D01*
X291465Y882015D01*
X291463Y881915D01*
X291457Y881816D01*
X291447Y881716D01*
X291434Y881618D01*
X291416Y881519D01*
X291395Y881422D01*
X291370Y881326D01*
X291341Y881230D01*
X291308Y881136D01*
X291272Y881043D01*
X291232Y880952D01*
X291188Y880862D01*
X291141Y880774D01*
X291091Y880688D01*
X291037Y880604D01*
X290980Y880522D01*
X290920Y880443D01*
X290856Y880365D01*
X290790Y880291D01*
X290721Y880219D01*
X290649Y880150D01*
X290575Y880084D01*
X290497Y880020D01*
X290418Y879960D01*
X290336Y879903D01*
X290252Y879849D01*
X290166Y879799D01*
X290078Y879752D01*
X289988Y879708D01*
X289897Y879668D01*
X289804Y879632D01*
X289710Y879599D01*
X289614Y879570D01*
X289518Y879545D01*
X289421Y879524D01*
X289322Y879506D01*
X289224Y879493D01*
X289124Y879483D01*
X289025Y879477D01*
X288925Y879475D01*
X286385Y879475D01*
M02*
