G04 EAGLE Gerber RS-274X export*
G75*
%MOMM*%
%FSLAX34Y34*%
%LPD*%
%INSoldermask Bottom*%
%IPPOS*%
%AMOC8*
5,1,8,0,0,1.08239X$1,22.5*%
G01*
%ADD10C,3.703200*%
%ADD11P,1.951982X8X112.500000*%
%ADD12C,1.803400*%
%ADD13C,2.743200*%
%ADD14P,1.649562X8X22.500000*%
%ADD15C,1.625600*%
%ADD16C,1.511200*%
%ADD17C,1.511200*%
%ADD18R,1.511200X1.511200*%
%ADD19C,2.298700*%
%ADD20C,0.959600*%

G36*
X667749Y648390D02*
X667749Y648390D01*
X667796Y648403D01*
X667871Y648413D01*
X669488Y648891D01*
X669516Y648905D01*
X669537Y648909D01*
X669561Y648923D01*
X669603Y648937D01*
X671095Y649721D01*
X671133Y649751D01*
X671199Y649789D01*
X672510Y650849D01*
X672541Y650885D01*
X672598Y650936D01*
X673677Y652231D01*
X673701Y652273D01*
X673747Y652334D01*
X674553Y653815D01*
X674568Y653860D01*
X674601Y653929D01*
X675102Y655538D01*
X675108Y655586D01*
X675127Y655660D01*
X675302Y657313D01*
X675349Y657569D01*
X675349Y657591D01*
X675356Y657751D01*
X675171Y659469D01*
X675158Y659515D01*
X675146Y659590D01*
X674630Y661239D01*
X674608Y661282D01*
X674582Y661353D01*
X673754Y662870D01*
X673724Y662908D01*
X673684Y662973D01*
X672577Y664299D01*
X672540Y664330D01*
X672488Y664386D01*
X671143Y665470D01*
X671101Y665493D01*
X671039Y665539D01*
X669508Y666340D01*
X669462Y666354D01*
X669393Y666386D01*
X667736Y666874D01*
X667688Y666879D01*
X667614Y666897D01*
X666145Y667029D01*
X666117Y667045D01*
X666078Y667051D01*
X666041Y667066D01*
X665945Y667071D01*
X665895Y667079D01*
X665875Y667076D01*
X665854Y667077D01*
X664163Y666925D01*
X664117Y666912D01*
X664041Y666902D01*
X662412Y666423D01*
X662369Y666402D01*
X662297Y666376D01*
X660793Y665589D01*
X660755Y665560D01*
X660689Y665521D01*
X659367Y664455D01*
X659335Y664419D01*
X659278Y664368D01*
X658189Y663065D01*
X658166Y663024D01*
X658119Y662963D01*
X657306Y661472D01*
X657291Y661427D01*
X657257Y661358D01*
X656750Y659738D01*
X656744Y659690D01*
X656725Y659616D01*
X656544Y657933D01*
X656520Y657735D01*
X656522Y657684D01*
X656518Y657593D01*
X656691Y655884D01*
X656705Y655838D01*
X656716Y655762D01*
X657219Y654120D01*
X657241Y654077D01*
X657267Y654005D01*
X658081Y652492D01*
X658111Y652455D01*
X658151Y652389D01*
X659244Y651065D01*
X659281Y651033D01*
X659332Y650977D01*
X660663Y649891D01*
X660706Y649868D01*
X660767Y649822D01*
X662284Y649017D01*
X662330Y649002D01*
X662399Y648970D01*
X662642Y648897D01*
X662643Y648897D01*
X664045Y648476D01*
X664092Y648470D01*
X664167Y648452D01*
X665754Y648300D01*
X665771Y648294D01*
X665865Y648252D01*
X665875Y648252D01*
X665883Y648248D01*
X666070Y648237D01*
X667749Y648390D01*
G37*
G36*
X732824Y648365D02*
X732824Y648365D01*
X732871Y648378D01*
X732946Y648388D01*
X734563Y648866D01*
X734591Y648880D01*
X734612Y648884D01*
X734636Y648898D01*
X734678Y648912D01*
X736170Y649696D01*
X736208Y649726D01*
X736274Y649764D01*
X737585Y650824D01*
X737616Y650860D01*
X737673Y650911D01*
X738752Y652206D01*
X738776Y652248D01*
X738822Y652309D01*
X739628Y653790D01*
X739643Y653835D01*
X739676Y653904D01*
X740177Y655513D01*
X740183Y655561D01*
X740202Y655635D01*
X740377Y657288D01*
X740424Y657544D01*
X740424Y657566D01*
X740431Y657726D01*
X740246Y659444D01*
X740233Y659490D01*
X740221Y659565D01*
X739705Y661214D01*
X739683Y661257D01*
X739657Y661328D01*
X738829Y662845D01*
X738799Y662883D01*
X738759Y662948D01*
X737652Y664274D01*
X737615Y664305D01*
X737563Y664361D01*
X736218Y665445D01*
X736176Y665468D01*
X736114Y665514D01*
X734583Y666315D01*
X734537Y666329D01*
X734468Y666361D01*
X732811Y666849D01*
X732763Y666854D01*
X732689Y666872D01*
X731220Y667004D01*
X731192Y667020D01*
X731153Y667026D01*
X731116Y667041D01*
X731020Y667046D01*
X730970Y667054D01*
X730950Y667051D01*
X730929Y667052D01*
X729238Y666900D01*
X729192Y666887D01*
X729116Y666877D01*
X727487Y666398D01*
X727444Y666377D01*
X727372Y666351D01*
X725868Y665564D01*
X725830Y665535D01*
X725764Y665496D01*
X724442Y664430D01*
X724410Y664394D01*
X724353Y664343D01*
X723264Y663040D01*
X723241Y662999D01*
X723194Y662938D01*
X722381Y661447D01*
X722366Y661402D01*
X722332Y661333D01*
X721825Y659713D01*
X721819Y659665D01*
X721800Y659591D01*
X721619Y657908D01*
X721595Y657710D01*
X721597Y657659D01*
X721593Y657568D01*
X721766Y655859D01*
X721780Y655813D01*
X721791Y655737D01*
X722294Y654095D01*
X722316Y654052D01*
X722342Y653980D01*
X723156Y652467D01*
X723186Y652430D01*
X723226Y652364D01*
X724319Y651040D01*
X724356Y651008D01*
X724407Y650952D01*
X725738Y649866D01*
X725781Y649843D01*
X725842Y649797D01*
X727359Y648992D01*
X727405Y648977D01*
X727474Y648945D01*
X727717Y648872D01*
X727718Y648872D01*
X729120Y648451D01*
X729167Y648445D01*
X729242Y648427D01*
X730829Y648275D01*
X730846Y648269D01*
X730940Y648227D01*
X730950Y648227D01*
X730958Y648223D01*
X731145Y648212D01*
X732824Y648365D01*
G37*
G36*
X732824Y603127D02*
X732824Y603127D01*
X732871Y603140D01*
X732946Y603150D01*
X734563Y603628D01*
X734591Y603642D01*
X734612Y603646D01*
X734636Y603660D01*
X734678Y603674D01*
X736170Y604458D01*
X736208Y604488D01*
X736274Y604526D01*
X737585Y605586D01*
X737616Y605622D01*
X737673Y605673D01*
X738752Y606968D01*
X738776Y607010D01*
X738822Y607071D01*
X739628Y608552D01*
X739643Y608597D01*
X739676Y608666D01*
X740177Y610275D01*
X740183Y610323D01*
X740202Y610397D01*
X740377Y612050D01*
X740424Y612306D01*
X740424Y612328D01*
X740431Y612488D01*
X740246Y614206D01*
X740233Y614252D01*
X740221Y614327D01*
X739705Y615976D01*
X739683Y616019D01*
X739657Y616090D01*
X738829Y617607D01*
X738799Y617645D01*
X738759Y617710D01*
X737652Y619036D01*
X737615Y619067D01*
X737563Y619123D01*
X736218Y620207D01*
X736176Y620230D01*
X736114Y620276D01*
X734583Y621077D01*
X734537Y621091D01*
X734468Y621123D01*
X732811Y621611D01*
X732763Y621616D01*
X732689Y621634D01*
X731220Y621766D01*
X731192Y621782D01*
X731153Y621788D01*
X731116Y621803D01*
X731020Y621808D01*
X730970Y621816D01*
X730950Y621813D01*
X730929Y621814D01*
X729238Y621662D01*
X729192Y621649D01*
X729116Y621639D01*
X727487Y621160D01*
X727444Y621139D01*
X727372Y621113D01*
X725868Y620326D01*
X725830Y620297D01*
X725764Y620258D01*
X724442Y619192D01*
X724410Y619156D01*
X724353Y619105D01*
X723264Y617802D01*
X723241Y617761D01*
X723194Y617700D01*
X722381Y616209D01*
X722366Y616164D01*
X722332Y616095D01*
X721825Y614475D01*
X721819Y614427D01*
X721800Y614353D01*
X721619Y612670D01*
X721595Y612472D01*
X721597Y612421D01*
X721593Y612330D01*
X721766Y610621D01*
X721780Y610575D01*
X721791Y610499D01*
X722294Y608857D01*
X722316Y608814D01*
X722342Y608742D01*
X723156Y607229D01*
X723186Y607192D01*
X723226Y607126D01*
X724319Y605802D01*
X724356Y605770D01*
X724407Y605714D01*
X725738Y604628D01*
X725781Y604605D01*
X725842Y604559D01*
X727359Y603754D01*
X727405Y603739D01*
X727474Y603707D01*
X727717Y603634D01*
X727718Y603634D01*
X729120Y603213D01*
X729167Y603207D01*
X729242Y603189D01*
X730829Y603037D01*
X730846Y603031D01*
X730940Y602989D01*
X730950Y602989D01*
X730958Y602985D01*
X731145Y602974D01*
X732824Y603127D01*
G37*
G36*
X667800Y603102D02*
X667800Y603102D01*
X667847Y603115D01*
X667922Y603125D01*
X669539Y603603D01*
X669567Y603617D01*
X669588Y603621D01*
X669612Y603635D01*
X669654Y603649D01*
X671146Y604433D01*
X671184Y604463D01*
X671250Y604501D01*
X672561Y605561D01*
X672592Y605597D01*
X672649Y605648D01*
X673728Y606943D01*
X673752Y606985D01*
X673798Y607046D01*
X674604Y608527D01*
X674619Y608572D01*
X674652Y608641D01*
X675153Y610250D01*
X675159Y610298D01*
X675178Y610372D01*
X675353Y612025D01*
X675400Y612281D01*
X675400Y612303D01*
X675407Y612463D01*
X675222Y614181D01*
X675209Y614227D01*
X675197Y614302D01*
X674681Y615951D01*
X674659Y615994D01*
X674633Y616065D01*
X673805Y617582D01*
X673775Y617620D01*
X673735Y617685D01*
X672628Y619011D01*
X672591Y619042D01*
X672539Y619098D01*
X671194Y620182D01*
X671152Y620205D01*
X671090Y620251D01*
X669559Y621052D01*
X669513Y621066D01*
X669444Y621098D01*
X667787Y621586D01*
X667739Y621591D01*
X667665Y621609D01*
X666196Y621741D01*
X666168Y621757D01*
X666129Y621763D01*
X666092Y621778D01*
X665996Y621783D01*
X665946Y621791D01*
X665926Y621788D01*
X665905Y621789D01*
X664214Y621637D01*
X664168Y621624D01*
X664092Y621614D01*
X662463Y621135D01*
X662420Y621114D01*
X662348Y621088D01*
X660844Y620301D01*
X660806Y620272D01*
X660740Y620233D01*
X659418Y619167D01*
X659386Y619131D01*
X659329Y619080D01*
X658240Y617777D01*
X658217Y617736D01*
X658170Y617675D01*
X657357Y616184D01*
X657342Y616139D01*
X657308Y616070D01*
X656801Y614450D01*
X656795Y614402D01*
X656776Y614328D01*
X656595Y612645D01*
X656571Y612447D01*
X656573Y612396D01*
X656569Y612305D01*
X656742Y610596D01*
X656756Y610550D01*
X656767Y610474D01*
X657270Y608832D01*
X657292Y608789D01*
X657318Y608717D01*
X658132Y607204D01*
X658162Y607167D01*
X658202Y607101D01*
X659295Y605777D01*
X659332Y605745D01*
X659383Y605689D01*
X660714Y604603D01*
X660757Y604580D01*
X660818Y604534D01*
X662335Y603729D01*
X662381Y603714D01*
X662450Y603682D01*
X662693Y603609D01*
X662694Y603609D01*
X664096Y603188D01*
X664143Y603182D01*
X664218Y603164D01*
X665805Y603012D01*
X665822Y603006D01*
X665916Y602964D01*
X665926Y602964D01*
X665934Y602960D01*
X666121Y602949D01*
X667800Y603102D01*
G37*
D10*
X38100Y38100D03*
X800100Y38100D03*
X38100Y876300D03*
X800100Y876300D03*
D11*
X774700Y177800D03*
D12*
X774700Y152400D03*
D13*
X52578Y685800D02*
X52578Y711200D01*
X277622Y711200D02*
X277622Y685800D01*
X52578Y203200D02*
X52578Y177800D01*
X277622Y177800D02*
X277622Y203200D01*
D14*
X685800Y495300D03*
X711200Y495300D03*
X647700Y558800D03*
X749300Y558800D03*
D15*
X723900Y145900D03*
X723900Y165900D03*
X723900Y185900D03*
X723900Y205900D03*
X723900Y225900D03*
X723900Y245900D03*
X723900Y265900D03*
X723900Y285900D03*
D16*
X419100Y653860D02*
X419100Y666940D01*
X444500Y666940D02*
X444500Y653860D01*
X469900Y653860D02*
X469900Y666940D01*
X495300Y666940D02*
X495300Y653860D01*
X520700Y653860D02*
X520700Y666940D01*
X546100Y666940D02*
X546100Y653860D01*
X412940Y635000D02*
X399860Y635000D01*
X399860Y609600D02*
X412940Y609600D01*
X412940Y584200D02*
X399860Y584200D01*
X399860Y558800D02*
X412940Y558800D01*
X412940Y533400D02*
X399860Y533400D01*
X399860Y508000D02*
X412940Y508000D01*
X412940Y482600D02*
X399860Y482600D01*
X399860Y457200D02*
X412940Y457200D01*
X412940Y431800D02*
X399860Y431800D01*
X399860Y406400D02*
X412940Y406400D01*
X412940Y381000D02*
X399860Y381000D01*
X399860Y355600D02*
X412940Y355600D01*
X552260Y635000D02*
X565340Y635000D01*
X565340Y609600D02*
X552260Y609600D01*
X552260Y584200D02*
X565340Y584200D01*
X565340Y558800D02*
X552260Y558800D01*
X552260Y533400D02*
X565340Y533400D01*
X565340Y508000D02*
X552260Y508000D01*
X552260Y482600D02*
X565340Y482600D01*
X565340Y457200D02*
X552260Y457200D01*
X552260Y431800D02*
X565340Y431800D01*
X565340Y406400D02*
X552260Y406400D01*
X552260Y381000D02*
X565340Y381000D01*
X565340Y355600D02*
X552260Y355600D01*
X520700Y362140D02*
X520700Y349060D01*
X495300Y349060D02*
X495300Y362140D01*
X469900Y362140D02*
X469900Y349060D01*
D17*
X520700Y546100D03*
X520700Y520700D03*
D18*
X135800Y613000D03*
X194800Y613000D03*
X255800Y277000D03*
X75800Y277000D03*
D19*
X165100Y802323D02*
X165100Y823278D01*
X114300Y823278D02*
X114300Y802323D01*
X101600Y61278D02*
X101600Y40323D01*
X152400Y40323D02*
X152400Y61278D01*
X203200Y61278D02*
X203200Y40323D01*
X279400Y40323D02*
X279400Y61278D01*
X330200Y61278D02*
X330200Y40323D01*
X381000Y40323D02*
X381000Y61278D01*
X457200Y61278D02*
X457200Y40323D01*
X508000Y40323D02*
X508000Y61278D01*
X558800Y61278D02*
X558800Y40323D01*
X635000Y40323D02*
X635000Y61278D01*
X685800Y61278D02*
X685800Y40323D01*
X736600Y40323D02*
X736600Y61278D01*
X723900Y853123D02*
X723900Y874078D01*
X673100Y874078D02*
X673100Y853123D01*
X622300Y853123D02*
X622300Y874078D01*
X546100Y874078D02*
X546100Y853123D01*
X495300Y853123D02*
X495300Y874078D01*
X444500Y874078D02*
X444500Y853123D01*
X368300Y853123D02*
X368300Y874078D01*
X317500Y874078D02*
X317500Y853123D01*
X266700Y853123D02*
X266700Y874078D01*
D20*
X431800Y457200D03*
X495300Y546100D03*
X469900Y546100D03*
X342900Y698500D03*
X558800Y698500D03*
X596900Y330200D03*
X393700Y241300D03*
X495300Y482600D03*
X406400Y241300D03*
X495300Y469900D03*
X419100Y241300D03*
X495300Y457200D03*
X596900Y762000D03*
M02*
