M48
;GenerationSoftware,Autodesk,EAGLE,9.3.1*%
;CreationDate,2019-07-21T13:42:37Z*%
FMAT,2
ICI,OFF
METRIC,TZ,000.000
T7C0.800
T6C0.813
T5C0.914
T4C1.016
T3C1.321
T2C1.397
T1C3.500
%
G90
M71
T1
X3810Y96520
X72390Y96520
X3810Y3810
X72390Y3810
T2
X7620Y11430
X7620Y68580
X7620Y63500
X7620Y16510
T3
X12700Y75108
X12700Y97612
X63500Y97612
X63500Y75108
T4
X9601Y37109
X3099Y37109
X9601Y41631
X3099Y41631
T5
X6350Y30480
X6350Y27940
X6350Y25400
T6
X66040Y43180
X68580Y43180
X5080Y46990
X7620Y46990
X20320Y46990
X10160Y46990
T7
X59960Y38100
X57960Y38100
X55960Y38100
X53960Y38100
X31750Y64770
X34290Y64770
X36830Y64770
X39370Y64770
X41910Y64770
X44450Y64770
X30480Y62230
X30480Y59690
X30480Y57150
X30480Y54610
X30480Y52070
X30480Y49530
X30480Y46990
X30480Y44450
X30480Y41910
X30480Y39370
X30480Y36830
X30480Y34290
X45720Y62230
X45720Y59690
X45720Y57150
X45720Y54610
X45720Y52070
X45720Y49530
X45720Y46990
X45720Y44450
X45720Y41910
X45720Y39370
X45720Y36830
X45720Y34290
X41910Y34290
X39370Y34290
X36830Y34290
X41910Y53340
X41910Y50800
X21250Y83430
X67960Y38100
X54850Y95430
X54850Y77430
X40640Y16510
X40640Y13970
X58420Y16510
X58420Y13970
X40640Y11430
X40640Y19050
X58420Y19050
X58420Y11430
X21250Y89330
X58420Y21590
X40640Y8890
X58420Y8890
X40640Y24130
X58420Y24130
X40640Y6350
X58420Y6350
X65960Y38100
X63960Y38100
X61960Y38100
X40640Y21590
M30