G04 EAGLE Gerber RS-274X export*
G75*
%MOMM*%
%FSLAX34Y34*%
%LPD*%
%INSilkscreen Top*%
%IPPOS*%
%AMOC8*
5,1,8,0,0,1.08239X$1,22.5*%
G01*
%ADD10C,0.152400*%
%ADD11C,0.050800*%
%ADD12R,10.160000X0.508000*%
%ADD13R,0.635000X1.651000*%
%ADD14R,0.254000X4.064000*%
%ADD15R,4.826000X1.143000*%
%ADD16R,1.016000X0.762000*%
%ADD17R,1.016000X0.127000*%
%ADD18R,1.778000X0.127000*%
%ADD19C,0.177800*%
%ADD20C,0.660400*%
%ADD21C,0.127000*%
%ADD22R,0.609600X0.508000*%
%ADD23C,0.203200*%
%ADD24C,0.254000*%
%ADD25R,0.863600X0.609600*%
%ADD26R,1.524000X1.905000*%
%ADD27C,0.101600*%
%ADD28C,0.076200*%
%ADD29R,0.508000X0.508000*%


D10*
X52070Y157480D02*
X52070Y248920D01*
X303530Y248920D02*
X303530Y157480D01*
D11*
X228600Y232410D02*
X127000Y232410D01*
D10*
X93980Y240030D02*
X63500Y240030D01*
X63500Y166370D01*
X292100Y166370D02*
X292100Y240030D01*
D11*
X229870Y203200D02*
X125730Y203200D01*
D10*
X228600Y157480D02*
X303530Y157480D01*
X228600Y166370D02*
X228600Y172720D01*
X127000Y172720D01*
X127000Y157480D02*
X52070Y157480D01*
X52070Y248920D02*
X127000Y248920D01*
X127000Y233680D02*
X228600Y233680D01*
X228600Y240030D02*
X228600Y248920D01*
X303530Y248920D01*
X246380Y166370D02*
X228600Y166370D01*
X246380Y166370D02*
X246380Y161290D01*
X261620Y161290D01*
X261620Y166370D01*
X292100Y166370D01*
X246380Y240030D02*
X228600Y240030D01*
X246380Y240030D02*
X246380Y245110D01*
X261620Y245110D01*
X261620Y240030D01*
X292100Y240030D01*
X228600Y240030D02*
X228600Y233680D01*
X228600Y166370D02*
X228600Y157480D01*
X127000Y233680D02*
X127000Y240030D01*
X127000Y248920D01*
X127000Y166370D02*
X127000Y157480D01*
X127000Y166370D02*
X127000Y172720D01*
X127000Y240030D02*
X109220Y240030D01*
X109220Y245110D01*
X93980Y245110D01*
X93980Y240030D01*
X109220Y166370D02*
X127000Y166370D01*
X109220Y166370D02*
X109220Y161290D01*
X93980Y161290D01*
X93980Y166370D01*
X63500Y166370D01*
D12*
X177800Y222250D03*
X177800Y184150D03*
D13*
X231775Y179705D03*
X231775Y226695D03*
D14*
X281940Y203200D03*
D15*
X259080Y229235D03*
X259080Y177165D03*
D16*
X254000Y167640D03*
X254000Y238760D03*
D13*
X123825Y226695D03*
X123825Y179705D03*
D15*
X96520Y177165D03*
D14*
X73660Y203200D03*
D15*
X96520Y229235D03*
D16*
X101600Y238760D03*
X101600Y167640D03*
D17*
X240030Y183515D03*
X240030Y222885D03*
D18*
X271780Y222885D03*
X271780Y183515D03*
X83820Y222885D03*
D17*
X115570Y222885D03*
X115570Y183515D03*
D18*
X83820Y183515D03*
D19*
X134493Y240157D02*
X134493Y256159D01*
X141605Y256159D01*
X141605Y249047D02*
X134493Y249047D01*
X147486Y252603D02*
X151931Y256159D01*
X151931Y240157D01*
X147486Y240157D02*
X156376Y240157D01*
D10*
X303530Y665480D02*
X303530Y756920D01*
X52070Y756920D02*
X52070Y665480D01*
D11*
X127000Y681990D02*
X228600Y681990D01*
D10*
X261620Y674370D02*
X292100Y674370D01*
X292100Y748030D01*
X63500Y748030D02*
X63500Y674370D01*
D11*
X125730Y711200D02*
X229870Y711200D01*
D10*
X127000Y756920D02*
X52070Y756920D01*
X127000Y748030D02*
X127000Y741680D01*
X228600Y741680D01*
X228600Y756920D02*
X303530Y756920D01*
X303530Y665480D02*
X228600Y665480D01*
X228600Y680720D02*
X127000Y680720D01*
X127000Y674370D02*
X127000Y665480D01*
X52070Y665480D01*
X109220Y748030D02*
X127000Y748030D01*
X109220Y748030D02*
X109220Y753110D01*
X93980Y753110D01*
X93980Y748030D01*
X63500Y748030D01*
X109220Y674370D02*
X127000Y674370D01*
X109220Y674370D02*
X109220Y669290D01*
X93980Y669290D01*
X93980Y674370D01*
X63500Y674370D01*
X127000Y674370D02*
X127000Y680720D01*
X127000Y748030D02*
X127000Y756920D01*
X228600Y680720D02*
X228600Y674370D01*
X228600Y665480D01*
X228600Y748030D02*
X228600Y756920D01*
X228600Y748030D02*
X228600Y741680D01*
X228600Y674370D02*
X246380Y674370D01*
X246380Y669290D01*
X261620Y669290D01*
X261620Y674370D01*
X246380Y748030D02*
X228600Y748030D01*
X246380Y748030D02*
X246380Y753110D01*
X261620Y753110D01*
X261620Y748030D01*
X292100Y748030D01*
D12*
X177800Y692150D03*
X177800Y730250D03*
D13*
X123825Y734695D03*
X123825Y687705D03*
D14*
X73660Y711200D03*
D15*
X96520Y685165D03*
X96520Y737235D03*
D16*
X101600Y746760D03*
X101600Y675640D03*
D13*
X231775Y687705D03*
X231775Y734695D03*
D15*
X259080Y737235D03*
D14*
X281940Y711200D03*
D15*
X259080Y685165D03*
D16*
X254000Y675640D03*
X254000Y746760D03*
D17*
X115570Y730885D03*
X115570Y691515D03*
D18*
X83820Y691515D03*
X83820Y730885D03*
X271780Y691515D03*
D17*
X240030Y691515D03*
X240030Y730885D03*
D18*
X271780Y730885D03*
D19*
X199224Y674243D02*
X199224Y658241D01*
X199224Y674243D02*
X206336Y674243D01*
X206336Y667131D02*
X199224Y667131D01*
X217107Y674244D02*
X217233Y674242D01*
X217358Y674236D01*
X217484Y674226D01*
X217608Y674212D01*
X217733Y674195D01*
X217857Y674173D01*
X217980Y674148D01*
X218102Y674118D01*
X218223Y674085D01*
X218343Y674048D01*
X218462Y674007D01*
X218580Y673963D01*
X218696Y673915D01*
X218811Y673863D01*
X218923Y673808D01*
X219034Y673749D01*
X219144Y673687D01*
X219251Y673621D01*
X219356Y673552D01*
X219459Y673480D01*
X219559Y673404D01*
X219657Y673326D01*
X219753Y673244D01*
X219846Y673160D01*
X219936Y673072D01*
X220024Y672982D01*
X220108Y672889D01*
X220190Y672793D01*
X220268Y672695D01*
X220344Y672595D01*
X220416Y672492D01*
X220485Y672387D01*
X220551Y672280D01*
X220613Y672170D01*
X220672Y672059D01*
X220727Y671947D01*
X220779Y671832D01*
X220827Y671716D01*
X220871Y671598D01*
X220912Y671479D01*
X220949Y671359D01*
X220982Y671238D01*
X221012Y671116D01*
X221037Y670993D01*
X221059Y670869D01*
X221076Y670744D01*
X221090Y670620D01*
X221100Y670494D01*
X221106Y670369D01*
X221108Y670243D01*
X217107Y674243D02*
X216966Y674241D01*
X216826Y674235D01*
X216686Y674226D01*
X216546Y674212D01*
X216407Y674195D01*
X216268Y674174D01*
X216129Y674149D01*
X215992Y674121D01*
X215855Y674088D01*
X215719Y674052D01*
X215584Y674012D01*
X215451Y673969D01*
X215318Y673922D01*
X215187Y673871D01*
X215058Y673817D01*
X214930Y673759D01*
X214803Y673698D01*
X214678Y673633D01*
X214556Y673565D01*
X214435Y673494D01*
X214315Y673419D01*
X214199Y673341D01*
X214084Y673260D01*
X213971Y673176D01*
X213861Y673088D01*
X213753Y672998D01*
X213648Y672905D01*
X213546Y672809D01*
X213446Y672710D01*
X213348Y672609D01*
X213254Y672505D01*
X213162Y672398D01*
X213074Y672289D01*
X212988Y672178D01*
X212906Y672064D01*
X212826Y671948D01*
X212750Y671830D01*
X212677Y671710D01*
X212608Y671588D01*
X212541Y671464D01*
X212478Y671338D01*
X212419Y671211D01*
X212363Y671082D01*
X212311Y670952D01*
X212262Y670820D01*
X212217Y670687D01*
X219773Y667131D02*
X219865Y667222D01*
X219955Y667315D01*
X220041Y667410D01*
X220125Y667508D01*
X220205Y667609D01*
X220283Y667712D01*
X220357Y667817D01*
X220428Y667925D01*
X220496Y668034D01*
X220560Y668146D01*
X220622Y668259D01*
X220679Y668374D01*
X220734Y668491D01*
X220785Y668610D01*
X220832Y668730D01*
X220875Y668851D01*
X220915Y668973D01*
X220951Y669097D01*
X220984Y669222D01*
X221013Y669347D01*
X221038Y669474D01*
X221059Y669601D01*
X221076Y669729D01*
X221090Y669857D01*
X221099Y669985D01*
X221105Y670114D01*
X221107Y670243D01*
X219774Y667131D02*
X212217Y658241D01*
X221107Y658241D01*
D10*
X702945Y921385D02*
X723265Y921385D01*
X702945Y921385D02*
X700405Y918845D01*
X702945Y895985D02*
X723265Y895985D01*
X702945Y895985D02*
X700405Y898525D01*
X700405Y918845D01*
X723265Y895985D02*
X725805Y898525D01*
X725805Y918845D02*
X723265Y921385D01*
X725805Y918845D02*
X725805Y898525D01*
X675005Y898525D02*
X675005Y918845D01*
X675005Y898525D02*
X677545Y895985D01*
X675005Y898525D02*
X672465Y895985D01*
X652145Y895985D02*
X649605Y898525D01*
X649605Y918845D01*
X677545Y895985D02*
X697865Y895985D01*
X700405Y898525D01*
X672465Y895985D02*
X652145Y895985D01*
X677545Y921385D02*
X697865Y921385D01*
X672465Y921385D02*
X652145Y921385D01*
X675005Y918845D02*
X677545Y921385D01*
X652145Y921385D02*
X649605Y918845D01*
X697865Y921385D02*
X700405Y918845D01*
X675005Y918845D02*
X672465Y921385D01*
D20*
X713105Y926465D02*
X713105Y975995D01*
X687705Y975995D02*
X687705Y926465D01*
X662305Y926465D02*
X662305Y975995D01*
D21*
X662799Y915416D02*
X660400Y913497D01*
X662799Y915416D02*
X662799Y906780D01*
X660400Y906780D02*
X665198Y906780D01*
X687169Y915416D02*
X687261Y915414D01*
X687352Y915408D01*
X687443Y915399D01*
X687534Y915385D01*
X687624Y915368D01*
X687713Y915346D01*
X687801Y915321D01*
X687888Y915293D01*
X687974Y915260D01*
X688058Y915224D01*
X688141Y915185D01*
X688222Y915142D01*
X688301Y915095D01*
X688378Y915046D01*
X688453Y914993D01*
X688525Y914937D01*
X688595Y914878D01*
X688663Y914816D01*
X688728Y914751D01*
X688790Y914683D01*
X688849Y914613D01*
X688905Y914541D01*
X688958Y914466D01*
X689007Y914389D01*
X689054Y914310D01*
X689097Y914229D01*
X689136Y914146D01*
X689172Y914062D01*
X689205Y913976D01*
X689233Y913889D01*
X689258Y913801D01*
X689280Y913712D01*
X689297Y913622D01*
X689311Y913531D01*
X689320Y913440D01*
X689326Y913349D01*
X689328Y913257D01*
X687169Y915416D02*
X687066Y915414D01*
X686964Y915408D01*
X686862Y915399D01*
X686760Y915386D01*
X686659Y915369D01*
X686558Y915348D01*
X686459Y915324D01*
X686360Y915295D01*
X686263Y915264D01*
X686166Y915228D01*
X686071Y915190D01*
X685978Y915147D01*
X685886Y915101D01*
X685796Y915052D01*
X685708Y915000D01*
X685621Y914944D01*
X685537Y914885D01*
X685456Y914824D01*
X685376Y914759D01*
X685299Y914691D01*
X685224Y914620D01*
X685153Y914547D01*
X685084Y914471D01*
X685017Y914393D01*
X684954Y914312D01*
X684894Y914229D01*
X684837Y914144D01*
X684783Y914057D01*
X684732Y913967D01*
X684685Y913876D01*
X684641Y913784D01*
X684600Y913689D01*
X684563Y913594D01*
X684530Y913497D01*
X688608Y911578D02*
X688675Y911644D01*
X688739Y911713D01*
X688800Y911784D01*
X688858Y911858D01*
X688913Y911934D01*
X688965Y912012D01*
X689014Y912092D01*
X689060Y912174D01*
X689102Y912258D01*
X689141Y912344D01*
X689176Y912431D01*
X689207Y912519D01*
X689235Y912609D01*
X689260Y912699D01*
X689281Y912791D01*
X689298Y912883D01*
X689311Y912976D01*
X689320Y913069D01*
X689326Y913163D01*
X689328Y913257D01*
X688608Y911578D02*
X684530Y906780D01*
X689328Y906780D01*
X708660Y906780D02*
X711059Y906780D01*
X711156Y906782D01*
X711252Y906788D01*
X711348Y906797D01*
X711444Y906811D01*
X711539Y906828D01*
X711633Y906850D01*
X711726Y906875D01*
X711819Y906903D01*
X711910Y906936D01*
X711999Y906972D01*
X712087Y907012D01*
X712174Y907055D01*
X712259Y907101D01*
X712341Y907151D01*
X712422Y907205D01*
X712500Y907261D01*
X712576Y907321D01*
X712650Y907383D01*
X712721Y907449D01*
X712789Y907517D01*
X712855Y907588D01*
X712917Y907662D01*
X712977Y907738D01*
X713033Y907816D01*
X713087Y907897D01*
X713137Y907980D01*
X713183Y908064D01*
X713226Y908151D01*
X713266Y908239D01*
X713302Y908328D01*
X713335Y908419D01*
X713363Y908512D01*
X713388Y908605D01*
X713410Y908699D01*
X713427Y908794D01*
X713441Y908890D01*
X713450Y908986D01*
X713456Y909082D01*
X713458Y909179D01*
X713456Y909276D01*
X713450Y909372D01*
X713441Y909468D01*
X713427Y909564D01*
X713410Y909659D01*
X713388Y909753D01*
X713363Y909846D01*
X713335Y909939D01*
X713302Y910030D01*
X713266Y910119D01*
X713226Y910207D01*
X713183Y910294D01*
X713137Y910379D01*
X713087Y910461D01*
X713033Y910542D01*
X712977Y910620D01*
X712917Y910696D01*
X712855Y910770D01*
X712789Y910841D01*
X712721Y910909D01*
X712650Y910975D01*
X712576Y911037D01*
X712500Y911097D01*
X712422Y911153D01*
X712341Y911207D01*
X712259Y911257D01*
X712174Y911303D01*
X712087Y911346D01*
X711999Y911386D01*
X711910Y911422D01*
X711819Y911455D01*
X711726Y911483D01*
X711633Y911508D01*
X711539Y911530D01*
X711444Y911547D01*
X711348Y911561D01*
X711252Y911570D01*
X711156Y911576D01*
X711059Y911578D01*
X711539Y915416D02*
X708660Y915416D01*
X711539Y915416D02*
X711625Y915414D01*
X711711Y915408D01*
X711797Y915399D01*
X711882Y915385D01*
X711966Y915368D01*
X712050Y915347D01*
X712132Y915322D01*
X712213Y915294D01*
X712293Y915262D01*
X712372Y915226D01*
X712448Y915187D01*
X712523Y915144D01*
X712596Y915099D01*
X712667Y915050D01*
X712735Y914997D01*
X712802Y914942D01*
X712865Y914884D01*
X712926Y914823D01*
X712984Y914760D01*
X713039Y914693D01*
X713092Y914625D01*
X713141Y914554D01*
X713186Y914481D01*
X713229Y914406D01*
X713268Y914330D01*
X713304Y914251D01*
X713336Y914171D01*
X713364Y914090D01*
X713389Y914008D01*
X713410Y913924D01*
X713427Y913840D01*
X713441Y913755D01*
X713450Y913669D01*
X713456Y913583D01*
X713458Y913497D01*
X713456Y913411D01*
X713450Y913325D01*
X713441Y913239D01*
X713427Y913154D01*
X713410Y913070D01*
X713389Y912986D01*
X713364Y912904D01*
X713336Y912823D01*
X713304Y912743D01*
X713268Y912664D01*
X713229Y912588D01*
X713186Y912513D01*
X713141Y912440D01*
X713092Y912369D01*
X713039Y912301D01*
X712984Y912234D01*
X712926Y912171D01*
X712865Y912110D01*
X712802Y912052D01*
X712735Y911997D01*
X712667Y911944D01*
X712596Y911895D01*
X712523Y911850D01*
X712448Y911807D01*
X712372Y911768D01*
X712293Y911732D01*
X712213Y911700D01*
X712132Y911672D01*
X712050Y911647D01*
X711966Y911626D01*
X711882Y911609D01*
X711797Y911595D01*
X711711Y911586D01*
X711625Y911580D01*
X711539Y911578D01*
X709620Y911578D01*
D22*
X713105Y923925D03*
X713105Y893445D03*
X687705Y893445D03*
X662305Y893445D03*
X687705Y923925D03*
X662305Y923925D03*
D21*
X642620Y900430D02*
X633730Y900430D01*
X642620Y900430D02*
X642720Y900428D01*
X642819Y900422D01*
X642919Y900412D01*
X643017Y900399D01*
X643116Y900381D01*
X643213Y900360D01*
X643309Y900335D01*
X643405Y900306D01*
X643499Y900273D01*
X643592Y900237D01*
X643683Y900197D01*
X643773Y900153D01*
X643861Y900106D01*
X643947Y900056D01*
X644031Y900002D01*
X644113Y899945D01*
X644192Y899885D01*
X644270Y899821D01*
X644344Y899755D01*
X644416Y899686D01*
X644485Y899614D01*
X644551Y899540D01*
X644615Y899462D01*
X644675Y899383D01*
X644732Y899301D01*
X644786Y899217D01*
X644836Y899131D01*
X644883Y899043D01*
X644927Y898953D01*
X644967Y898862D01*
X645003Y898769D01*
X645036Y898675D01*
X645065Y898579D01*
X645090Y898483D01*
X645111Y898386D01*
X645129Y898287D01*
X645142Y898189D01*
X645152Y898089D01*
X645158Y897990D01*
X645160Y897890D01*
X645160Y896620D01*
X645160Y906410D02*
X633730Y906410D01*
X633730Y909585D01*
X633732Y909696D01*
X633738Y909806D01*
X633747Y909917D01*
X633761Y910027D01*
X633778Y910136D01*
X633799Y910245D01*
X633824Y910353D01*
X633853Y910460D01*
X633885Y910566D01*
X633921Y910671D01*
X633961Y910774D01*
X634004Y910876D01*
X634051Y910977D01*
X634102Y911076D01*
X634155Y911173D01*
X634212Y911267D01*
X634273Y911360D01*
X634336Y911451D01*
X634403Y911540D01*
X634473Y911626D01*
X634546Y911709D01*
X634621Y911791D01*
X634699Y911869D01*
X634781Y911944D01*
X634864Y912017D01*
X634950Y912087D01*
X635039Y912154D01*
X635130Y912217D01*
X635223Y912278D01*
X635318Y912335D01*
X635414Y912388D01*
X635513Y912439D01*
X635614Y912486D01*
X635716Y912529D01*
X635819Y912569D01*
X635924Y912605D01*
X636030Y912637D01*
X636137Y912666D01*
X636245Y912691D01*
X636354Y912712D01*
X636463Y912729D01*
X636573Y912743D01*
X636684Y912752D01*
X636794Y912758D01*
X636905Y912760D01*
X637016Y912758D01*
X637126Y912752D01*
X637237Y912743D01*
X637347Y912729D01*
X637456Y912712D01*
X637565Y912691D01*
X637673Y912666D01*
X637780Y912637D01*
X637886Y912605D01*
X637991Y912569D01*
X638094Y912529D01*
X638196Y912486D01*
X638297Y912439D01*
X638396Y912388D01*
X638493Y912335D01*
X638587Y912278D01*
X638680Y912217D01*
X638771Y912154D01*
X638860Y912087D01*
X638946Y912017D01*
X639029Y911944D01*
X639111Y911869D01*
X639189Y911791D01*
X639264Y911709D01*
X639337Y911626D01*
X639407Y911540D01*
X639474Y911451D01*
X639537Y911360D01*
X639598Y911267D01*
X639655Y911173D01*
X639708Y911076D01*
X639759Y910977D01*
X639806Y910876D01*
X639849Y910774D01*
X639889Y910671D01*
X639925Y910566D01*
X639957Y910460D01*
X639986Y910353D01*
X640011Y910245D01*
X640032Y910136D01*
X640049Y910027D01*
X640063Y909917D01*
X640072Y909806D01*
X640078Y909696D01*
X640080Y909585D01*
X640080Y906410D01*
X636270Y917269D02*
X633730Y920444D01*
X645160Y920444D01*
X645160Y917269D02*
X645160Y923619D01*
D10*
X701040Y803275D02*
X721360Y803275D01*
X701040Y803275D02*
X698500Y800735D01*
X701040Y777875D02*
X721360Y777875D01*
X701040Y777875D02*
X698500Y780415D01*
X698500Y800735D01*
X721360Y777875D02*
X723900Y780415D01*
X723900Y800735D02*
X721360Y803275D01*
X723900Y800735D02*
X723900Y780415D01*
X673100Y780415D02*
X673100Y800735D01*
X673100Y780415D02*
X675640Y777875D01*
X673100Y780415D02*
X670560Y777875D01*
X650240Y777875D02*
X647700Y780415D01*
X647700Y800735D01*
X675640Y777875D02*
X695960Y777875D01*
X698500Y780415D01*
X670560Y777875D02*
X650240Y777875D01*
X675640Y803275D02*
X695960Y803275D01*
X670560Y803275D02*
X650240Y803275D01*
X673100Y800735D02*
X675640Y803275D01*
X650240Y803275D02*
X647700Y800735D01*
X695960Y803275D02*
X698500Y800735D01*
X673100Y800735D02*
X670560Y803275D01*
D20*
X711200Y808355D02*
X711200Y857885D01*
X685800Y857885D02*
X685800Y808355D01*
X660400Y808355D02*
X660400Y857885D01*
D21*
X660894Y797306D02*
X658495Y795387D01*
X660894Y797306D02*
X660894Y788670D01*
X658495Y788670D02*
X663293Y788670D01*
X685264Y797306D02*
X685356Y797304D01*
X685447Y797298D01*
X685538Y797289D01*
X685629Y797275D01*
X685719Y797258D01*
X685808Y797236D01*
X685896Y797211D01*
X685983Y797183D01*
X686069Y797150D01*
X686153Y797114D01*
X686236Y797075D01*
X686317Y797032D01*
X686396Y796985D01*
X686473Y796936D01*
X686548Y796883D01*
X686620Y796827D01*
X686690Y796768D01*
X686758Y796706D01*
X686823Y796641D01*
X686885Y796573D01*
X686944Y796503D01*
X687000Y796431D01*
X687053Y796356D01*
X687102Y796279D01*
X687149Y796200D01*
X687192Y796119D01*
X687231Y796036D01*
X687267Y795952D01*
X687300Y795866D01*
X687328Y795779D01*
X687353Y795691D01*
X687375Y795602D01*
X687392Y795512D01*
X687406Y795421D01*
X687415Y795330D01*
X687421Y795239D01*
X687423Y795147D01*
X685264Y797306D02*
X685161Y797304D01*
X685059Y797298D01*
X684957Y797289D01*
X684855Y797276D01*
X684754Y797259D01*
X684653Y797238D01*
X684554Y797214D01*
X684455Y797185D01*
X684358Y797154D01*
X684261Y797118D01*
X684166Y797080D01*
X684073Y797037D01*
X683981Y796991D01*
X683891Y796942D01*
X683803Y796890D01*
X683716Y796834D01*
X683632Y796775D01*
X683551Y796714D01*
X683471Y796649D01*
X683394Y796581D01*
X683319Y796510D01*
X683248Y796437D01*
X683179Y796361D01*
X683112Y796283D01*
X683049Y796202D01*
X682989Y796119D01*
X682932Y796034D01*
X682878Y795947D01*
X682827Y795857D01*
X682780Y795766D01*
X682736Y795674D01*
X682695Y795579D01*
X682658Y795484D01*
X682625Y795387D01*
X686703Y793468D02*
X686770Y793534D01*
X686834Y793603D01*
X686895Y793674D01*
X686953Y793748D01*
X687008Y793824D01*
X687060Y793902D01*
X687109Y793982D01*
X687155Y794064D01*
X687197Y794148D01*
X687236Y794234D01*
X687271Y794321D01*
X687302Y794409D01*
X687330Y794499D01*
X687355Y794589D01*
X687376Y794681D01*
X687393Y794773D01*
X687406Y794866D01*
X687415Y794959D01*
X687421Y795053D01*
X687423Y795147D01*
X686703Y793468D02*
X682625Y788670D01*
X687423Y788670D01*
X706755Y788670D02*
X709154Y788670D01*
X709251Y788672D01*
X709347Y788678D01*
X709443Y788687D01*
X709539Y788701D01*
X709634Y788718D01*
X709728Y788740D01*
X709821Y788765D01*
X709914Y788793D01*
X710005Y788826D01*
X710094Y788862D01*
X710182Y788902D01*
X710269Y788945D01*
X710354Y788991D01*
X710436Y789041D01*
X710517Y789095D01*
X710595Y789151D01*
X710671Y789211D01*
X710745Y789273D01*
X710816Y789339D01*
X710884Y789407D01*
X710950Y789478D01*
X711012Y789552D01*
X711072Y789628D01*
X711128Y789706D01*
X711182Y789787D01*
X711232Y789870D01*
X711278Y789954D01*
X711321Y790041D01*
X711361Y790129D01*
X711397Y790218D01*
X711430Y790309D01*
X711458Y790402D01*
X711483Y790495D01*
X711505Y790589D01*
X711522Y790684D01*
X711536Y790780D01*
X711545Y790876D01*
X711551Y790972D01*
X711553Y791069D01*
X711551Y791166D01*
X711545Y791262D01*
X711536Y791358D01*
X711522Y791454D01*
X711505Y791549D01*
X711483Y791643D01*
X711458Y791736D01*
X711430Y791829D01*
X711397Y791920D01*
X711361Y792009D01*
X711321Y792097D01*
X711278Y792184D01*
X711232Y792269D01*
X711182Y792351D01*
X711128Y792432D01*
X711072Y792510D01*
X711012Y792586D01*
X710950Y792660D01*
X710884Y792731D01*
X710816Y792799D01*
X710745Y792865D01*
X710671Y792927D01*
X710595Y792987D01*
X710517Y793043D01*
X710436Y793097D01*
X710354Y793147D01*
X710269Y793193D01*
X710182Y793236D01*
X710094Y793276D01*
X710005Y793312D01*
X709914Y793345D01*
X709821Y793373D01*
X709728Y793398D01*
X709634Y793420D01*
X709539Y793437D01*
X709443Y793451D01*
X709347Y793460D01*
X709251Y793466D01*
X709154Y793468D01*
X709634Y797306D02*
X706755Y797306D01*
X709634Y797306D02*
X709720Y797304D01*
X709806Y797298D01*
X709892Y797289D01*
X709977Y797275D01*
X710061Y797258D01*
X710145Y797237D01*
X710227Y797212D01*
X710308Y797184D01*
X710388Y797152D01*
X710467Y797116D01*
X710543Y797077D01*
X710618Y797034D01*
X710691Y796989D01*
X710762Y796940D01*
X710830Y796887D01*
X710897Y796832D01*
X710960Y796774D01*
X711021Y796713D01*
X711079Y796650D01*
X711134Y796583D01*
X711187Y796515D01*
X711236Y796444D01*
X711281Y796371D01*
X711324Y796296D01*
X711363Y796220D01*
X711399Y796141D01*
X711431Y796061D01*
X711459Y795980D01*
X711484Y795898D01*
X711505Y795814D01*
X711522Y795730D01*
X711536Y795645D01*
X711545Y795559D01*
X711551Y795473D01*
X711553Y795387D01*
X711551Y795301D01*
X711545Y795215D01*
X711536Y795129D01*
X711522Y795044D01*
X711505Y794960D01*
X711484Y794876D01*
X711459Y794794D01*
X711431Y794713D01*
X711399Y794633D01*
X711363Y794554D01*
X711324Y794478D01*
X711281Y794403D01*
X711236Y794330D01*
X711187Y794259D01*
X711134Y794191D01*
X711079Y794124D01*
X711021Y794061D01*
X710960Y794000D01*
X710897Y793942D01*
X710830Y793887D01*
X710762Y793834D01*
X710691Y793785D01*
X710618Y793740D01*
X710543Y793697D01*
X710467Y793658D01*
X710388Y793622D01*
X710308Y793590D01*
X710227Y793562D01*
X710145Y793537D01*
X710061Y793516D01*
X709977Y793499D01*
X709892Y793485D01*
X709806Y793476D01*
X709720Y793470D01*
X709634Y793468D01*
X707715Y793468D01*
D22*
X711200Y805815D03*
X711200Y775335D03*
X685800Y775335D03*
X660400Y775335D03*
X685800Y805815D03*
X660400Y805815D03*
D21*
X640715Y782320D02*
X631825Y782320D01*
X640715Y782320D02*
X640815Y782318D01*
X640914Y782312D01*
X641014Y782302D01*
X641112Y782289D01*
X641211Y782271D01*
X641308Y782250D01*
X641404Y782225D01*
X641500Y782196D01*
X641594Y782163D01*
X641687Y782127D01*
X641778Y782087D01*
X641868Y782043D01*
X641956Y781996D01*
X642042Y781946D01*
X642126Y781892D01*
X642208Y781835D01*
X642287Y781775D01*
X642365Y781711D01*
X642439Y781645D01*
X642511Y781576D01*
X642580Y781504D01*
X642646Y781430D01*
X642710Y781352D01*
X642770Y781273D01*
X642827Y781191D01*
X642881Y781107D01*
X642931Y781021D01*
X642978Y780933D01*
X643022Y780843D01*
X643062Y780752D01*
X643098Y780659D01*
X643131Y780565D01*
X643160Y780469D01*
X643185Y780373D01*
X643206Y780276D01*
X643224Y780177D01*
X643237Y780079D01*
X643247Y779979D01*
X643253Y779880D01*
X643255Y779780D01*
X643255Y778510D01*
X643255Y788300D02*
X631825Y788300D01*
X631825Y791475D01*
X631827Y791586D01*
X631833Y791696D01*
X631842Y791807D01*
X631856Y791917D01*
X631873Y792026D01*
X631894Y792135D01*
X631919Y792243D01*
X631948Y792350D01*
X631980Y792456D01*
X632016Y792561D01*
X632056Y792664D01*
X632099Y792766D01*
X632146Y792867D01*
X632197Y792966D01*
X632250Y793063D01*
X632307Y793157D01*
X632368Y793250D01*
X632431Y793341D01*
X632498Y793430D01*
X632568Y793516D01*
X632641Y793599D01*
X632716Y793681D01*
X632794Y793759D01*
X632876Y793834D01*
X632959Y793907D01*
X633045Y793977D01*
X633134Y794044D01*
X633225Y794107D01*
X633318Y794168D01*
X633413Y794225D01*
X633509Y794278D01*
X633608Y794329D01*
X633709Y794376D01*
X633811Y794419D01*
X633914Y794459D01*
X634019Y794495D01*
X634125Y794527D01*
X634232Y794556D01*
X634340Y794581D01*
X634449Y794602D01*
X634558Y794619D01*
X634668Y794633D01*
X634779Y794642D01*
X634889Y794648D01*
X635000Y794650D01*
X635111Y794648D01*
X635221Y794642D01*
X635332Y794633D01*
X635442Y794619D01*
X635551Y794602D01*
X635660Y794581D01*
X635768Y794556D01*
X635875Y794527D01*
X635981Y794495D01*
X636086Y794459D01*
X636189Y794419D01*
X636291Y794376D01*
X636392Y794329D01*
X636491Y794278D01*
X636588Y794225D01*
X636682Y794168D01*
X636775Y794107D01*
X636866Y794044D01*
X636955Y793977D01*
X637041Y793907D01*
X637124Y793834D01*
X637206Y793759D01*
X637284Y793681D01*
X637359Y793599D01*
X637432Y793516D01*
X637502Y793430D01*
X637569Y793341D01*
X637632Y793250D01*
X637693Y793157D01*
X637750Y793063D01*
X637803Y792966D01*
X637854Y792867D01*
X637901Y792766D01*
X637944Y792664D01*
X637984Y792561D01*
X638020Y792456D01*
X638052Y792350D01*
X638081Y792243D01*
X638106Y792135D01*
X638127Y792026D01*
X638144Y791917D01*
X638158Y791807D01*
X638167Y791696D01*
X638173Y791586D01*
X638175Y791475D01*
X638175Y788300D01*
X631825Y802651D02*
X631827Y802755D01*
X631833Y802860D01*
X631842Y802964D01*
X631855Y803067D01*
X631873Y803170D01*
X631893Y803272D01*
X631918Y803374D01*
X631946Y803474D01*
X631978Y803574D01*
X632014Y803672D01*
X632053Y803769D01*
X632095Y803864D01*
X632141Y803958D01*
X632191Y804050D01*
X632243Y804140D01*
X632299Y804228D01*
X632359Y804314D01*
X632421Y804398D01*
X632486Y804479D01*
X632554Y804558D01*
X632626Y804635D01*
X632699Y804708D01*
X632776Y804780D01*
X632855Y804848D01*
X632936Y804913D01*
X633020Y804975D01*
X633106Y805035D01*
X633194Y805091D01*
X633284Y805143D01*
X633376Y805193D01*
X633470Y805239D01*
X633565Y805281D01*
X633662Y805320D01*
X633760Y805356D01*
X633860Y805388D01*
X633960Y805416D01*
X634062Y805441D01*
X634164Y805461D01*
X634267Y805479D01*
X634370Y805492D01*
X634474Y805501D01*
X634579Y805507D01*
X634683Y805509D01*
X631825Y802651D02*
X631827Y802533D01*
X631833Y802414D01*
X631842Y802296D01*
X631855Y802179D01*
X631873Y802062D01*
X631893Y801945D01*
X631918Y801829D01*
X631946Y801714D01*
X631979Y801601D01*
X632014Y801488D01*
X632054Y801376D01*
X632096Y801266D01*
X632143Y801157D01*
X632193Y801049D01*
X632246Y800944D01*
X632303Y800840D01*
X632363Y800738D01*
X632426Y800638D01*
X632493Y800540D01*
X632562Y800444D01*
X632635Y800351D01*
X632711Y800260D01*
X632789Y800171D01*
X632871Y800085D01*
X632955Y800002D01*
X633041Y799921D01*
X633131Y799844D01*
X633222Y799769D01*
X633316Y799697D01*
X633413Y799628D01*
X633511Y799563D01*
X633612Y799500D01*
X633715Y799441D01*
X633819Y799385D01*
X633925Y799333D01*
X634033Y799284D01*
X634142Y799239D01*
X634253Y799197D01*
X634365Y799159D01*
X636905Y804557D02*
X636830Y804633D01*
X636751Y804708D01*
X636670Y804779D01*
X636586Y804848D01*
X636500Y804913D01*
X636412Y804975D01*
X636322Y805035D01*
X636230Y805091D01*
X636135Y805144D01*
X636039Y805193D01*
X635941Y805239D01*
X635842Y805282D01*
X635741Y805321D01*
X635639Y805356D01*
X635536Y805388D01*
X635432Y805416D01*
X635327Y805441D01*
X635220Y805462D01*
X635114Y805479D01*
X635007Y805492D01*
X634899Y805501D01*
X634791Y805507D01*
X634683Y805509D01*
X636905Y804556D02*
X643255Y799159D01*
X643255Y805509D01*
D10*
X701040Y688340D02*
X721360Y688340D01*
X701040Y688340D02*
X698500Y685800D01*
X701040Y662940D02*
X721360Y662940D01*
X701040Y662940D02*
X698500Y665480D01*
X698500Y685800D01*
X721360Y662940D02*
X723900Y665480D01*
X723900Y685800D02*
X721360Y688340D01*
X723900Y685800D02*
X723900Y665480D01*
X673100Y665480D02*
X673100Y685800D01*
X673100Y665480D02*
X675640Y662940D01*
X673100Y665480D02*
X670560Y662940D01*
X650240Y662940D02*
X647700Y665480D01*
X647700Y685800D01*
X675640Y662940D02*
X695960Y662940D01*
X698500Y665480D01*
X670560Y662940D02*
X650240Y662940D01*
X675640Y688340D02*
X695960Y688340D01*
X670560Y688340D02*
X650240Y688340D01*
X673100Y685800D02*
X675640Y688340D01*
X650240Y688340D02*
X647700Y685800D01*
X695960Y688340D02*
X698500Y685800D01*
X673100Y685800D02*
X670560Y688340D01*
D20*
X711200Y693420D02*
X711200Y742950D01*
X685800Y742950D02*
X685800Y693420D01*
X660400Y693420D02*
X660400Y742950D01*
D21*
X660894Y682371D02*
X658495Y680452D01*
X660894Y682371D02*
X660894Y673735D01*
X658495Y673735D02*
X663293Y673735D01*
X685264Y682371D02*
X685356Y682369D01*
X685447Y682363D01*
X685538Y682354D01*
X685629Y682340D01*
X685719Y682323D01*
X685808Y682301D01*
X685896Y682276D01*
X685983Y682248D01*
X686069Y682215D01*
X686153Y682179D01*
X686236Y682140D01*
X686317Y682097D01*
X686396Y682050D01*
X686473Y682001D01*
X686548Y681948D01*
X686620Y681892D01*
X686690Y681833D01*
X686758Y681771D01*
X686823Y681706D01*
X686885Y681638D01*
X686944Y681568D01*
X687000Y681496D01*
X687053Y681421D01*
X687102Y681344D01*
X687149Y681265D01*
X687192Y681184D01*
X687231Y681101D01*
X687267Y681017D01*
X687300Y680931D01*
X687328Y680844D01*
X687353Y680756D01*
X687375Y680667D01*
X687392Y680577D01*
X687406Y680486D01*
X687415Y680395D01*
X687421Y680304D01*
X687423Y680212D01*
X685264Y682371D02*
X685161Y682369D01*
X685059Y682363D01*
X684957Y682354D01*
X684855Y682341D01*
X684754Y682324D01*
X684653Y682303D01*
X684554Y682279D01*
X684455Y682250D01*
X684358Y682219D01*
X684261Y682183D01*
X684166Y682145D01*
X684073Y682102D01*
X683981Y682056D01*
X683891Y682007D01*
X683803Y681955D01*
X683716Y681899D01*
X683632Y681840D01*
X683551Y681779D01*
X683471Y681714D01*
X683394Y681646D01*
X683319Y681575D01*
X683248Y681502D01*
X683179Y681426D01*
X683112Y681348D01*
X683049Y681267D01*
X682989Y681184D01*
X682932Y681099D01*
X682878Y681012D01*
X682827Y680922D01*
X682780Y680831D01*
X682736Y680739D01*
X682695Y680644D01*
X682658Y680549D01*
X682625Y680452D01*
X686703Y678533D02*
X686770Y678599D01*
X686834Y678668D01*
X686895Y678739D01*
X686953Y678813D01*
X687008Y678889D01*
X687060Y678967D01*
X687109Y679047D01*
X687155Y679129D01*
X687197Y679213D01*
X687236Y679299D01*
X687271Y679386D01*
X687302Y679474D01*
X687330Y679564D01*
X687355Y679654D01*
X687376Y679746D01*
X687393Y679838D01*
X687406Y679931D01*
X687415Y680024D01*
X687421Y680118D01*
X687423Y680212D01*
X686703Y678533D02*
X682625Y673735D01*
X687423Y673735D01*
X706755Y673735D02*
X709154Y673735D01*
X709251Y673737D01*
X709347Y673743D01*
X709443Y673752D01*
X709539Y673766D01*
X709634Y673783D01*
X709728Y673805D01*
X709821Y673830D01*
X709914Y673858D01*
X710005Y673891D01*
X710094Y673927D01*
X710182Y673967D01*
X710269Y674010D01*
X710354Y674056D01*
X710436Y674106D01*
X710517Y674160D01*
X710595Y674216D01*
X710671Y674276D01*
X710745Y674338D01*
X710816Y674404D01*
X710884Y674472D01*
X710950Y674543D01*
X711012Y674617D01*
X711072Y674693D01*
X711128Y674771D01*
X711182Y674852D01*
X711232Y674935D01*
X711278Y675019D01*
X711321Y675106D01*
X711361Y675194D01*
X711397Y675283D01*
X711430Y675374D01*
X711458Y675467D01*
X711483Y675560D01*
X711505Y675654D01*
X711522Y675749D01*
X711536Y675845D01*
X711545Y675941D01*
X711551Y676037D01*
X711553Y676134D01*
X711551Y676231D01*
X711545Y676327D01*
X711536Y676423D01*
X711522Y676519D01*
X711505Y676614D01*
X711483Y676708D01*
X711458Y676801D01*
X711430Y676894D01*
X711397Y676985D01*
X711361Y677074D01*
X711321Y677162D01*
X711278Y677249D01*
X711232Y677334D01*
X711182Y677416D01*
X711128Y677497D01*
X711072Y677575D01*
X711012Y677651D01*
X710950Y677725D01*
X710884Y677796D01*
X710816Y677864D01*
X710745Y677930D01*
X710671Y677992D01*
X710595Y678052D01*
X710517Y678108D01*
X710436Y678162D01*
X710354Y678212D01*
X710269Y678258D01*
X710182Y678301D01*
X710094Y678341D01*
X710005Y678377D01*
X709914Y678410D01*
X709821Y678438D01*
X709728Y678463D01*
X709634Y678485D01*
X709539Y678502D01*
X709443Y678516D01*
X709347Y678525D01*
X709251Y678531D01*
X709154Y678533D01*
X709634Y682371D02*
X706755Y682371D01*
X709634Y682371D02*
X709720Y682369D01*
X709806Y682363D01*
X709892Y682354D01*
X709977Y682340D01*
X710061Y682323D01*
X710145Y682302D01*
X710227Y682277D01*
X710308Y682249D01*
X710388Y682217D01*
X710467Y682181D01*
X710543Y682142D01*
X710618Y682099D01*
X710691Y682054D01*
X710762Y682005D01*
X710830Y681952D01*
X710897Y681897D01*
X710960Y681839D01*
X711021Y681778D01*
X711079Y681715D01*
X711134Y681648D01*
X711187Y681580D01*
X711236Y681509D01*
X711281Y681436D01*
X711324Y681361D01*
X711363Y681285D01*
X711399Y681206D01*
X711431Y681126D01*
X711459Y681045D01*
X711484Y680963D01*
X711505Y680879D01*
X711522Y680795D01*
X711536Y680710D01*
X711545Y680624D01*
X711551Y680538D01*
X711553Y680452D01*
X711551Y680366D01*
X711545Y680280D01*
X711536Y680194D01*
X711522Y680109D01*
X711505Y680025D01*
X711484Y679941D01*
X711459Y679859D01*
X711431Y679778D01*
X711399Y679698D01*
X711363Y679619D01*
X711324Y679543D01*
X711281Y679468D01*
X711236Y679395D01*
X711187Y679324D01*
X711134Y679256D01*
X711079Y679189D01*
X711021Y679126D01*
X710960Y679065D01*
X710897Y679007D01*
X710830Y678952D01*
X710762Y678899D01*
X710691Y678850D01*
X710618Y678805D01*
X710543Y678762D01*
X710467Y678723D01*
X710388Y678687D01*
X710308Y678655D01*
X710227Y678627D01*
X710145Y678602D01*
X710061Y678581D01*
X709977Y678564D01*
X709892Y678550D01*
X709806Y678541D01*
X709720Y678535D01*
X709634Y678533D01*
X707715Y678533D01*
D22*
X711200Y690880D03*
X711200Y660400D03*
X685800Y660400D03*
X660400Y660400D03*
X685800Y690880D03*
X660400Y690880D03*
D21*
X640715Y667385D02*
X631825Y667385D01*
X640715Y667385D02*
X640815Y667383D01*
X640914Y667377D01*
X641014Y667367D01*
X641112Y667354D01*
X641211Y667336D01*
X641308Y667315D01*
X641404Y667290D01*
X641500Y667261D01*
X641594Y667228D01*
X641687Y667192D01*
X641778Y667152D01*
X641868Y667108D01*
X641956Y667061D01*
X642042Y667011D01*
X642126Y666957D01*
X642208Y666900D01*
X642287Y666840D01*
X642365Y666776D01*
X642439Y666710D01*
X642511Y666641D01*
X642580Y666569D01*
X642646Y666495D01*
X642710Y666417D01*
X642770Y666338D01*
X642827Y666256D01*
X642881Y666172D01*
X642931Y666086D01*
X642978Y665998D01*
X643022Y665908D01*
X643062Y665817D01*
X643098Y665724D01*
X643131Y665630D01*
X643160Y665534D01*
X643185Y665438D01*
X643206Y665341D01*
X643224Y665242D01*
X643237Y665144D01*
X643247Y665044D01*
X643253Y664945D01*
X643255Y664845D01*
X643255Y663575D01*
X643255Y673365D02*
X631825Y673365D01*
X631825Y676540D01*
X631827Y676651D01*
X631833Y676761D01*
X631842Y676872D01*
X631856Y676982D01*
X631873Y677091D01*
X631894Y677200D01*
X631919Y677308D01*
X631948Y677415D01*
X631980Y677521D01*
X632016Y677626D01*
X632056Y677729D01*
X632099Y677831D01*
X632146Y677932D01*
X632197Y678031D01*
X632250Y678128D01*
X632307Y678222D01*
X632368Y678315D01*
X632431Y678406D01*
X632498Y678495D01*
X632568Y678581D01*
X632641Y678664D01*
X632716Y678746D01*
X632794Y678824D01*
X632876Y678899D01*
X632959Y678972D01*
X633045Y679042D01*
X633134Y679109D01*
X633225Y679172D01*
X633318Y679233D01*
X633413Y679290D01*
X633509Y679343D01*
X633608Y679394D01*
X633709Y679441D01*
X633811Y679484D01*
X633914Y679524D01*
X634019Y679560D01*
X634125Y679592D01*
X634232Y679621D01*
X634340Y679646D01*
X634449Y679667D01*
X634558Y679684D01*
X634668Y679698D01*
X634779Y679707D01*
X634889Y679713D01*
X635000Y679715D01*
X635111Y679713D01*
X635221Y679707D01*
X635332Y679698D01*
X635442Y679684D01*
X635551Y679667D01*
X635660Y679646D01*
X635768Y679621D01*
X635875Y679592D01*
X635981Y679560D01*
X636086Y679524D01*
X636189Y679484D01*
X636291Y679441D01*
X636392Y679394D01*
X636491Y679343D01*
X636588Y679290D01*
X636682Y679233D01*
X636775Y679172D01*
X636866Y679109D01*
X636955Y679042D01*
X637041Y678972D01*
X637124Y678899D01*
X637206Y678824D01*
X637284Y678746D01*
X637359Y678664D01*
X637432Y678581D01*
X637502Y678495D01*
X637569Y678406D01*
X637632Y678315D01*
X637693Y678222D01*
X637750Y678128D01*
X637803Y678031D01*
X637854Y677932D01*
X637901Y677831D01*
X637944Y677729D01*
X637984Y677626D01*
X638020Y677521D01*
X638052Y677415D01*
X638081Y677308D01*
X638106Y677200D01*
X638127Y677091D01*
X638144Y676982D01*
X638158Y676872D01*
X638167Y676761D01*
X638173Y676651D01*
X638175Y676540D01*
X638175Y673365D01*
X643255Y684224D02*
X643255Y687399D01*
X643253Y687510D01*
X643247Y687620D01*
X643238Y687731D01*
X643224Y687841D01*
X643207Y687950D01*
X643186Y688059D01*
X643161Y688167D01*
X643132Y688274D01*
X643100Y688380D01*
X643064Y688485D01*
X643024Y688588D01*
X642981Y688690D01*
X642934Y688791D01*
X642883Y688890D01*
X642830Y688987D01*
X642773Y689081D01*
X642712Y689174D01*
X642649Y689265D01*
X642582Y689354D01*
X642512Y689440D01*
X642439Y689523D01*
X642364Y689605D01*
X642286Y689683D01*
X642204Y689758D01*
X642121Y689831D01*
X642035Y689901D01*
X641946Y689968D01*
X641855Y690031D01*
X641762Y690092D01*
X641668Y690149D01*
X641571Y690202D01*
X641472Y690253D01*
X641371Y690300D01*
X641269Y690343D01*
X641166Y690383D01*
X641061Y690419D01*
X640955Y690451D01*
X640848Y690480D01*
X640740Y690505D01*
X640631Y690526D01*
X640522Y690543D01*
X640412Y690557D01*
X640301Y690566D01*
X640191Y690572D01*
X640080Y690574D01*
X639969Y690572D01*
X639859Y690566D01*
X639748Y690557D01*
X639638Y690543D01*
X639529Y690526D01*
X639420Y690505D01*
X639312Y690480D01*
X639205Y690451D01*
X639099Y690419D01*
X638994Y690383D01*
X638891Y690343D01*
X638789Y690300D01*
X638688Y690253D01*
X638589Y690202D01*
X638493Y690149D01*
X638398Y690092D01*
X638305Y690031D01*
X638214Y689968D01*
X638125Y689901D01*
X638039Y689831D01*
X637956Y689758D01*
X637874Y689683D01*
X637796Y689605D01*
X637721Y689523D01*
X637648Y689440D01*
X637578Y689354D01*
X637511Y689265D01*
X637448Y689174D01*
X637387Y689081D01*
X637330Y688987D01*
X637277Y688890D01*
X637226Y688791D01*
X637179Y688690D01*
X637136Y688588D01*
X637096Y688485D01*
X637060Y688380D01*
X637028Y688274D01*
X636999Y688167D01*
X636974Y688059D01*
X636953Y687950D01*
X636936Y687841D01*
X636922Y687731D01*
X636913Y687620D01*
X636907Y687510D01*
X636905Y687399D01*
X631825Y688034D02*
X631825Y684224D01*
X631825Y688034D02*
X631827Y688134D01*
X631833Y688233D01*
X631843Y688333D01*
X631856Y688431D01*
X631874Y688530D01*
X631895Y688627D01*
X631920Y688723D01*
X631949Y688819D01*
X631982Y688913D01*
X632018Y689006D01*
X632058Y689097D01*
X632102Y689187D01*
X632149Y689275D01*
X632199Y689361D01*
X632253Y689445D01*
X632310Y689527D01*
X632370Y689606D01*
X632434Y689684D01*
X632500Y689758D01*
X632569Y689830D01*
X632641Y689899D01*
X632715Y689965D01*
X632793Y690029D01*
X632872Y690089D01*
X632954Y690146D01*
X633038Y690200D01*
X633124Y690250D01*
X633212Y690297D01*
X633302Y690341D01*
X633393Y690381D01*
X633486Y690417D01*
X633580Y690450D01*
X633676Y690479D01*
X633772Y690504D01*
X633869Y690525D01*
X633968Y690543D01*
X634066Y690556D01*
X634166Y690566D01*
X634265Y690572D01*
X634365Y690574D01*
X634465Y690572D01*
X634564Y690566D01*
X634664Y690556D01*
X634762Y690543D01*
X634861Y690525D01*
X634958Y690504D01*
X635054Y690479D01*
X635150Y690450D01*
X635244Y690417D01*
X635337Y690381D01*
X635428Y690341D01*
X635518Y690297D01*
X635606Y690250D01*
X635692Y690200D01*
X635776Y690146D01*
X635858Y690089D01*
X635937Y690029D01*
X636015Y689965D01*
X636089Y689899D01*
X636161Y689830D01*
X636230Y689758D01*
X636296Y689684D01*
X636360Y689606D01*
X636420Y689527D01*
X636477Y689445D01*
X636531Y689361D01*
X636581Y689275D01*
X636628Y689187D01*
X636672Y689097D01*
X636712Y689006D01*
X636748Y688913D01*
X636781Y688819D01*
X636810Y688723D01*
X636835Y688627D01*
X636856Y688530D01*
X636874Y688431D01*
X636887Y688333D01*
X636897Y688233D01*
X636903Y688134D01*
X636905Y688034D01*
X636905Y685494D01*
D10*
X701040Y574040D02*
X721360Y574040D01*
X701040Y574040D02*
X698500Y571500D01*
X701040Y548640D02*
X721360Y548640D01*
X701040Y548640D02*
X698500Y551180D01*
X698500Y571500D01*
X721360Y548640D02*
X723900Y551180D01*
X723900Y571500D02*
X721360Y574040D01*
X723900Y571500D02*
X723900Y551180D01*
X673100Y551180D02*
X673100Y571500D01*
X673100Y551180D02*
X675640Y548640D01*
X673100Y551180D02*
X670560Y548640D01*
X650240Y548640D02*
X647700Y551180D01*
X647700Y571500D01*
X675640Y548640D02*
X695960Y548640D01*
X698500Y551180D01*
X670560Y548640D02*
X650240Y548640D01*
X675640Y574040D02*
X695960Y574040D01*
X670560Y574040D02*
X650240Y574040D01*
X673100Y571500D02*
X675640Y574040D01*
X650240Y574040D02*
X647700Y571500D01*
X695960Y574040D02*
X698500Y571500D01*
X673100Y571500D02*
X670560Y574040D01*
D20*
X711200Y579120D02*
X711200Y628650D01*
X685800Y628650D02*
X685800Y579120D01*
X660400Y579120D02*
X660400Y628650D01*
D21*
X660894Y568071D02*
X658495Y566152D01*
X660894Y568071D02*
X660894Y559435D01*
X658495Y559435D02*
X663293Y559435D01*
X685264Y568071D02*
X685356Y568069D01*
X685447Y568063D01*
X685538Y568054D01*
X685629Y568040D01*
X685719Y568023D01*
X685808Y568001D01*
X685896Y567976D01*
X685983Y567948D01*
X686069Y567915D01*
X686153Y567879D01*
X686236Y567840D01*
X686317Y567797D01*
X686396Y567750D01*
X686473Y567701D01*
X686548Y567648D01*
X686620Y567592D01*
X686690Y567533D01*
X686758Y567471D01*
X686823Y567406D01*
X686885Y567338D01*
X686944Y567268D01*
X687000Y567196D01*
X687053Y567121D01*
X687102Y567044D01*
X687149Y566965D01*
X687192Y566884D01*
X687231Y566801D01*
X687267Y566717D01*
X687300Y566631D01*
X687328Y566544D01*
X687353Y566456D01*
X687375Y566367D01*
X687392Y566277D01*
X687406Y566186D01*
X687415Y566095D01*
X687421Y566004D01*
X687423Y565912D01*
X685264Y568071D02*
X685161Y568069D01*
X685059Y568063D01*
X684957Y568054D01*
X684855Y568041D01*
X684754Y568024D01*
X684653Y568003D01*
X684554Y567979D01*
X684455Y567950D01*
X684358Y567919D01*
X684261Y567883D01*
X684166Y567845D01*
X684073Y567802D01*
X683981Y567756D01*
X683891Y567707D01*
X683803Y567655D01*
X683716Y567599D01*
X683632Y567540D01*
X683551Y567479D01*
X683471Y567414D01*
X683394Y567346D01*
X683319Y567275D01*
X683248Y567202D01*
X683179Y567126D01*
X683112Y567048D01*
X683049Y566967D01*
X682989Y566884D01*
X682932Y566799D01*
X682878Y566712D01*
X682827Y566622D01*
X682780Y566531D01*
X682736Y566439D01*
X682695Y566344D01*
X682658Y566249D01*
X682625Y566152D01*
X686703Y564233D02*
X686770Y564299D01*
X686834Y564368D01*
X686895Y564439D01*
X686953Y564513D01*
X687008Y564589D01*
X687060Y564667D01*
X687109Y564747D01*
X687155Y564829D01*
X687197Y564913D01*
X687236Y564999D01*
X687271Y565086D01*
X687302Y565174D01*
X687330Y565264D01*
X687355Y565354D01*
X687376Y565446D01*
X687393Y565538D01*
X687406Y565631D01*
X687415Y565724D01*
X687421Y565818D01*
X687423Y565912D01*
X686703Y564233D02*
X682625Y559435D01*
X687423Y559435D01*
X706755Y559435D02*
X709154Y559435D01*
X709251Y559437D01*
X709347Y559443D01*
X709443Y559452D01*
X709539Y559466D01*
X709634Y559483D01*
X709728Y559505D01*
X709821Y559530D01*
X709914Y559558D01*
X710005Y559591D01*
X710094Y559627D01*
X710182Y559667D01*
X710269Y559710D01*
X710354Y559756D01*
X710436Y559806D01*
X710517Y559860D01*
X710595Y559916D01*
X710671Y559976D01*
X710745Y560038D01*
X710816Y560104D01*
X710884Y560172D01*
X710950Y560243D01*
X711012Y560317D01*
X711072Y560393D01*
X711128Y560471D01*
X711182Y560552D01*
X711232Y560635D01*
X711278Y560719D01*
X711321Y560806D01*
X711361Y560894D01*
X711397Y560983D01*
X711430Y561074D01*
X711458Y561167D01*
X711483Y561260D01*
X711505Y561354D01*
X711522Y561449D01*
X711536Y561545D01*
X711545Y561641D01*
X711551Y561737D01*
X711553Y561834D01*
X711551Y561931D01*
X711545Y562027D01*
X711536Y562123D01*
X711522Y562219D01*
X711505Y562314D01*
X711483Y562408D01*
X711458Y562501D01*
X711430Y562594D01*
X711397Y562685D01*
X711361Y562774D01*
X711321Y562862D01*
X711278Y562949D01*
X711232Y563034D01*
X711182Y563116D01*
X711128Y563197D01*
X711072Y563275D01*
X711012Y563351D01*
X710950Y563425D01*
X710884Y563496D01*
X710816Y563564D01*
X710745Y563630D01*
X710671Y563692D01*
X710595Y563752D01*
X710517Y563808D01*
X710436Y563862D01*
X710354Y563912D01*
X710269Y563958D01*
X710182Y564001D01*
X710094Y564041D01*
X710005Y564077D01*
X709914Y564110D01*
X709821Y564138D01*
X709728Y564163D01*
X709634Y564185D01*
X709539Y564202D01*
X709443Y564216D01*
X709347Y564225D01*
X709251Y564231D01*
X709154Y564233D01*
X709634Y568071D02*
X706755Y568071D01*
X709634Y568071D02*
X709720Y568069D01*
X709806Y568063D01*
X709892Y568054D01*
X709977Y568040D01*
X710061Y568023D01*
X710145Y568002D01*
X710227Y567977D01*
X710308Y567949D01*
X710388Y567917D01*
X710467Y567881D01*
X710543Y567842D01*
X710618Y567799D01*
X710691Y567754D01*
X710762Y567705D01*
X710830Y567652D01*
X710897Y567597D01*
X710960Y567539D01*
X711021Y567478D01*
X711079Y567415D01*
X711134Y567348D01*
X711187Y567280D01*
X711236Y567209D01*
X711281Y567136D01*
X711324Y567061D01*
X711363Y566985D01*
X711399Y566906D01*
X711431Y566826D01*
X711459Y566745D01*
X711484Y566663D01*
X711505Y566579D01*
X711522Y566495D01*
X711536Y566410D01*
X711545Y566324D01*
X711551Y566238D01*
X711553Y566152D01*
X711551Y566066D01*
X711545Y565980D01*
X711536Y565894D01*
X711522Y565809D01*
X711505Y565725D01*
X711484Y565641D01*
X711459Y565559D01*
X711431Y565478D01*
X711399Y565398D01*
X711363Y565319D01*
X711324Y565243D01*
X711281Y565168D01*
X711236Y565095D01*
X711187Y565024D01*
X711134Y564956D01*
X711079Y564889D01*
X711021Y564826D01*
X710960Y564765D01*
X710897Y564707D01*
X710830Y564652D01*
X710762Y564599D01*
X710691Y564550D01*
X710618Y564505D01*
X710543Y564462D01*
X710467Y564423D01*
X710388Y564387D01*
X710308Y564355D01*
X710227Y564327D01*
X710145Y564302D01*
X710061Y564281D01*
X709977Y564264D01*
X709892Y564250D01*
X709806Y564241D01*
X709720Y564235D01*
X709634Y564233D01*
X707715Y564233D01*
D22*
X711200Y576580D03*
X711200Y546100D03*
X685800Y546100D03*
X660400Y546100D03*
X685800Y576580D03*
X660400Y576580D03*
D21*
X640715Y553085D02*
X631825Y553085D01*
X640715Y553085D02*
X640815Y553083D01*
X640914Y553077D01*
X641014Y553067D01*
X641112Y553054D01*
X641211Y553036D01*
X641308Y553015D01*
X641404Y552990D01*
X641500Y552961D01*
X641594Y552928D01*
X641687Y552892D01*
X641778Y552852D01*
X641868Y552808D01*
X641956Y552761D01*
X642042Y552711D01*
X642126Y552657D01*
X642208Y552600D01*
X642287Y552540D01*
X642365Y552476D01*
X642439Y552410D01*
X642511Y552341D01*
X642580Y552269D01*
X642646Y552195D01*
X642710Y552117D01*
X642770Y552038D01*
X642827Y551956D01*
X642881Y551872D01*
X642931Y551786D01*
X642978Y551698D01*
X643022Y551608D01*
X643062Y551517D01*
X643098Y551424D01*
X643131Y551330D01*
X643160Y551234D01*
X643185Y551138D01*
X643206Y551041D01*
X643224Y550942D01*
X643237Y550844D01*
X643247Y550744D01*
X643253Y550645D01*
X643255Y550545D01*
X643255Y549275D01*
X643255Y559065D02*
X631825Y559065D01*
X631825Y562240D01*
X631827Y562351D01*
X631833Y562461D01*
X631842Y562572D01*
X631856Y562682D01*
X631873Y562791D01*
X631894Y562900D01*
X631919Y563008D01*
X631948Y563115D01*
X631980Y563221D01*
X632016Y563326D01*
X632056Y563429D01*
X632099Y563531D01*
X632146Y563632D01*
X632197Y563731D01*
X632250Y563828D01*
X632307Y563922D01*
X632368Y564015D01*
X632431Y564106D01*
X632498Y564195D01*
X632568Y564281D01*
X632641Y564364D01*
X632716Y564446D01*
X632794Y564524D01*
X632876Y564599D01*
X632959Y564672D01*
X633045Y564742D01*
X633134Y564809D01*
X633225Y564872D01*
X633318Y564933D01*
X633413Y564990D01*
X633509Y565043D01*
X633608Y565094D01*
X633709Y565141D01*
X633811Y565184D01*
X633914Y565224D01*
X634019Y565260D01*
X634125Y565292D01*
X634232Y565321D01*
X634340Y565346D01*
X634449Y565367D01*
X634558Y565384D01*
X634668Y565398D01*
X634779Y565407D01*
X634889Y565413D01*
X635000Y565415D01*
X635111Y565413D01*
X635221Y565407D01*
X635332Y565398D01*
X635442Y565384D01*
X635551Y565367D01*
X635660Y565346D01*
X635768Y565321D01*
X635875Y565292D01*
X635981Y565260D01*
X636086Y565224D01*
X636189Y565184D01*
X636291Y565141D01*
X636392Y565094D01*
X636491Y565043D01*
X636588Y564990D01*
X636682Y564933D01*
X636775Y564872D01*
X636866Y564809D01*
X636955Y564742D01*
X637041Y564672D01*
X637124Y564599D01*
X637206Y564524D01*
X637284Y564446D01*
X637359Y564364D01*
X637432Y564281D01*
X637502Y564195D01*
X637569Y564106D01*
X637632Y564015D01*
X637693Y563922D01*
X637750Y563828D01*
X637803Y563731D01*
X637854Y563632D01*
X637901Y563531D01*
X637944Y563429D01*
X637984Y563326D01*
X638020Y563221D01*
X638052Y563115D01*
X638081Y563008D01*
X638106Y562900D01*
X638127Y562791D01*
X638144Y562682D01*
X638158Y562572D01*
X638167Y562461D01*
X638173Y562351D01*
X638175Y562240D01*
X638175Y559065D01*
X640715Y569924D02*
X631825Y572464D01*
X640715Y569924D02*
X640715Y576274D01*
X638175Y574369D02*
X643255Y574369D01*
D10*
X701040Y459740D02*
X721360Y459740D01*
X701040Y459740D02*
X698500Y457200D01*
X701040Y434340D02*
X721360Y434340D01*
X701040Y434340D02*
X698500Y436880D01*
X698500Y457200D01*
X721360Y434340D02*
X723900Y436880D01*
X723900Y457200D02*
X721360Y459740D01*
X723900Y457200D02*
X723900Y436880D01*
X673100Y436880D02*
X673100Y457200D01*
X673100Y436880D02*
X675640Y434340D01*
X673100Y436880D02*
X670560Y434340D01*
X650240Y434340D02*
X647700Y436880D01*
X647700Y457200D01*
X675640Y434340D02*
X695960Y434340D01*
X698500Y436880D01*
X670560Y434340D02*
X650240Y434340D01*
X675640Y459740D02*
X695960Y459740D01*
X670560Y459740D02*
X650240Y459740D01*
X673100Y457200D02*
X675640Y459740D01*
X650240Y459740D02*
X647700Y457200D01*
X695960Y459740D02*
X698500Y457200D01*
X673100Y457200D02*
X670560Y459740D01*
D20*
X711200Y464820D02*
X711200Y514350D01*
X685800Y514350D02*
X685800Y464820D01*
X660400Y464820D02*
X660400Y514350D01*
D21*
X660894Y453771D02*
X658495Y451852D01*
X660894Y453771D02*
X660894Y445135D01*
X658495Y445135D02*
X663293Y445135D01*
X685264Y453771D02*
X685356Y453769D01*
X685447Y453763D01*
X685538Y453754D01*
X685629Y453740D01*
X685719Y453723D01*
X685808Y453701D01*
X685896Y453676D01*
X685983Y453648D01*
X686069Y453615D01*
X686153Y453579D01*
X686236Y453540D01*
X686317Y453497D01*
X686396Y453450D01*
X686473Y453401D01*
X686548Y453348D01*
X686620Y453292D01*
X686690Y453233D01*
X686758Y453171D01*
X686823Y453106D01*
X686885Y453038D01*
X686944Y452968D01*
X687000Y452896D01*
X687053Y452821D01*
X687102Y452744D01*
X687149Y452665D01*
X687192Y452584D01*
X687231Y452501D01*
X687267Y452417D01*
X687300Y452331D01*
X687328Y452244D01*
X687353Y452156D01*
X687375Y452067D01*
X687392Y451977D01*
X687406Y451886D01*
X687415Y451795D01*
X687421Y451704D01*
X687423Y451612D01*
X685264Y453771D02*
X685161Y453769D01*
X685059Y453763D01*
X684957Y453754D01*
X684855Y453741D01*
X684754Y453724D01*
X684653Y453703D01*
X684554Y453679D01*
X684455Y453650D01*
X684358Y453619D01*
X684261Y453583D01*
X684166Y453545D01*
X684073Y453502D01*
X683981Y453456D01*
X683891Y453407D01*
X683803Y453355D01*
X683716Y453299D01*
X683632Y453240D01*
X683551Y453179D01*
X683471Y453114D01*
X683394Y453046D01*
X683319Y452975D01*
X683248Y452902D01*
X683179Y452826D01*
X683112Y452748D01*
X683049Y452667D01*
X682989Y452584D01*
X682932Y452499D01*
X682878Y452412D01*
X682827Y452322D01*
X682780Y452231D01*
X682736Y452139D01*
X682695Y452044D01*
X682658Y451949D01*
X682625Y451852D01*
X686703Y449933D02*
X686770Y449999D01*
X686834Y450068D01*
X686895Y450139D01*
X686953Y450213D01*
X687008Y450289D01*
X687060Y450367D01*
X687109Y450447D01*
X687155Y450529D01*
X687197Y450613D01*
X687236Y450699D01*
X687271Y450786D01*
X687302Y450874D01*
X687330Y450964D01*
X687355Y451054D01*
X687376Y451146D01*
X687393Y451238D01*
X687406Y451331D01*
X687415Y451424D01*
X687421Y451518D01*
X687423Y451612D01*
X686703Y449933D02*
X682625Y445135D01*
X687423Y445135D01*
X706755Y445135D02*
X709154Y445135D01*
X709251Y445137D01*
X709347Y445143D01*
X709443Y445152D01*
X709539Y445166D01*
X709634Y445183D01*
X709728Y445205D01*
X709821Y445230D01*
X709914Y445258D01*
X710005Y445291D01*
X710094Y445327D01*
X710182Y445367D01*
X710269Y445410D01*
X710354Y445456D01*
X710436Y445506D01*
X710517Y445560D01*
X710595Y445616D01*
X710671Y445676D01*
X710745Y445738D01*
X710816Y445804D01*
X710884Y445872D01*
X710950Y445943D01*
X711012Y446017D01*
X711072Y446093D01*
X711128Y446171D01*
X711182Y446252D01*
X711232Y446335D01*
X711278Y446419D01*
X711321Y446506D01*
X711361Y446594D01*
X711397Y446683D01*
X711430Y446774D01*
X711458Y446867D01*
X711483Y446960D01*
X711505Y447054D01*
X711522Y447149D01*
X711536Y447245D01*
X711545Y447341D01*
X711551Y447437D01*
X711553Y447534D01*
X711551Y447631D01*
X711545Y447727D01*
X711536Y447823D01*
X711522Y447919D01*
X711505Y448014D01*
X711483Y448108D01*
X711458Y448201D01*
X711430Y448294D01*
X711397Y448385D01*
X711361Y448474D01*
X711321Y448562D01*
X711278Y448649D01*
X711232Y448734D01*
X711182Y448816D01*
X711128Y448897D01*
X711072Y448975D01*
X711012Y449051D01*
X710950Y449125D01*
X710884Y449196D01*
X710816Y449264D01*
X710745Y449330D01*
X710671Y449392D01*
X710595Y449452D01*
X710517Y449508D01*
X710436Y449562D01*
X710354Y449612D01*
X710269Y449658D01*
X710182Y449701D01*
X710094Y449741D01*
X710005Y449777D01*
X709914Y449810D01*
X709821Y449838D01*
X709728Y449863D01*
X709634Y449885D01*
X709539Y449902D01*
X709443Y449916D01*
X709347Y449925D01*
X709251Y449931D01*
X709154Y449933D01*
X709634Y453771D02*
X706755Y453771D01*
X709634Y453771D02*
X709720Y453769D01*
X709806Y453763D01*
X709892Y453754D01*
X709977Y453740D01*
X710061Y453723D01*
X710145Y453702D01*
X710227Y453677D01*
X710308Y453649D01*
X710388Y453617D01*
X710467Y453581D01*
X710543Y453542D01*
X710618Y453499D01*
X710691Y453454D01*
X710762Y453405D01*
X710830Y453352D01*
X710897Y453297D01*
X710960Y453239D01*
X711021Y453178D01*
X711079Y453115D01*
X711134Y453048D01*
X711187Y452980D01*
X711236Y452909D01*
X711281Y452836D01*
X711324Y452761D01*
X711363Y452685D01*
X711399Y452606D01*
X711431Y452526D01*
X711459Y452445D01*
X711484Y452363D01*
X711505Y452279D01*
X711522Y452195D01*
X711536Y452110D01*
X711545Y452024D01*
X711551Y451938D01*
X711553Y451852D01*
X711551Y451766D01*
X711545Y451680D01*
X711536Y451594D01*
X711522Y451509D01*
X711505Y451425D01*
X711484Y451341D01*
X711459Y451259D01*
X711431Y451178D01*
X711399Y451098D01*
X711363Y451019D01*
X711324Y450943D01*
X711281Y450868D01*
X711236Y450795D01*
X711187Y450724D01*
X711134Y450656D01*
X711079Y450589D01*
X711021Y450526D01*
X710960Y450465D01*
X710897Y450407D01*
X710830Y450352D01*
X710762Y450299D01*
X710691Y450250D01*
X710618Y450205D01*
X710543Y450162D01*
X710467Y450123D01*
X710388Y450087D01*
X710308Y450055D01*
X710227Y450027D01*
X710145Y450002D01*
X710061Y449981D01*
X709977Y449964D01*
X709892Y449950D01*
X709806Y449941D01*
X709720Y449935D01*
X709634Y449933D01*
X707715Y449933D01*
D22*
X711200Y462280D03*
X711200Y431800D03*
X685800Y431800D03*
X660400Y431800D03*
X685800Y462280D03*
X660400Y462280D03*
D21*
X640715Y438785D02*
X631825Y438785D01*
X640715Y438785D02*
X640815Y438783D01*
X640914Y438777D01*
X641014Y438767D01*
X641112Y438754D01*
X641211Y438736D01*
X641308Y438715D01*
X641404Y438690D01*
X641500Y438661D01*
X641594Y438628D01*
X641687Y438592D01*
X641778Y438552D01*
X641868Y438508D01*
X641956Y438461D01*
X642042Y438411D01*
X642126Y438357D01*
X642208Y438300D01*
X642287Y438240D01*
X642365Y438176D01*
X642439Y438110D01*
X642511Y438041D01*
X642580Y437969D01*
X642646Y437895D01*
X642710Y437817D01*
X642770Y437738D01*
X642827Y437656D01*
X642881Y437572D01*
X642931Y437486D01*
X642978Y437398D01*
X643022Y437308D01*
X643062Y437217D01*
X643098Y437124D01*
X643131Y437030D01*
X643160Y436934D01*
X643185Y436838D01*
X643206Y436741D01*
X643224Y436642D01*
X643237Y436544D01*
X643247Y436444D01*
X643253Y436345D01*
X643255Y436245D01*
X643255Y434975D01*
X643255Y444765D02*
X631825Y444765D01*
X631825Y447940D01*
X631827Y448051D01*
X631833Y448161D01*
X631842Y448272D01*
X631856Y448382D01*
X631873Y448491D01*
X631894Y448600D01*
X631919Y448708D01*
X631948Y448815D01*
X631980Y448921D01*
X632016Y449026D01*
X632056Y449129D01*
X632099Y449231D01*
X632146Y449332D01*
X632197Y449431D01*
X632250Y449528D01*
X632307Y449622D01*
X632368Y449715D01*
X632431Y449806D01*
X632498Y449895D01*
X632568Y449981D01*
X632641Y450064D01*
X632716Y450146D01*
X632794Y450224D01*
X632876Y450299D01*
X632959Y450372D01*
X633045Y450442D01*
X633134Y450509D01*
X633225Y450572D01*
X633318Y450633D01*
X633413Y450690D01*
X633509Y450743D01*
X633608Y450794D01*
X633709Y450841D01*
X633811Y450884D01*
X633914Y450924D01*
X634019Y450960D01*
X634125Y450992D01*
X634232Y451021D01*
X634340Y451046D01*
X634449Y451067D01*
X634558Y451084D01*
X634668Y451098D01*
X634779Y451107D01*
X634889Y451113D01*
X635000Y451115D01*
X635111Y451113D01*
X635221Y451107D01*
X635332Y451098D01*
X635442Y451084D01*
X635551Y451067D01*
X635660Y451046D01*
X635768Y451021D01*
X635875Y450992D01*
X635981Y450960D01*
X636086Y450924D01*
X636189Y450884D01*
X636291Y450841D01*
X636392Y450794D01*
X636491Y450743D01*
X636588Y450690D01*
X636682Y450633D01*
X636775Y450572D01*
X636866Y450509D01*
X636955Y450442D01*
X637041Y450372D01*
X637124Y450299D01*
X637206Y450224D01*
X637284Y450146D01*
X637359Y450064D01*
X637432Y449981D01*
X637502Y449895D01*
X637569Y449806D01*
X637632Y449715D01*
X637693Y449622D01*
X637750Y449528D01*
X637803Y449431D01*
X637854Y449332D01*
X637901Y449231D01*
X637944Y449129D01*
X637984Y449026D01*
X638020Y448921D01*
X638052Y448815D01*
X638081Y448708D01*
X638106Y448600D01*
X638127Y448491D01*
X638144Y448382D01*
X638158Y448272D01*
X638167Y448161D01*
X638173Y448051D01*
X638175Y447940D01*
X638175Y444765D01*
X643255Y455624D02*
X643255Y459434D01*
X643253Y459534D01*
X643247Y459633D01*
X643237Y459733D01*
X643224Y459831D01*
X643206Y459930D01*
X643185Y460027D01*
X643160Y460123D01*
X643131Y460219D01*
X643098Y460313D01*
X643062Y460406D01*
X643022Y460497D01*
X642978Y460587D01*
X642931Y460675D01*
X642881Y460761D01*
X642827Y460845D01*
X642770Y460927D01*
X642710Y461006D01*
X642646Y461084D01*
X642580Y461158D01*
X642511Y461230D01*
X642439Y461299D01*
X642365Y461365D01*
X642287Y461429D01*
X642208Y461489D01*
X642126Y461546D01*
X642042Y461600D01*
X641956Y461650D01*
X641868Y461697D01*
X641778Y461741D01*
X641687Y461781D01*
X641594Y461817D01*
X641500Y461850D01*
X641404Y461879D01*
X641308Y461904D01*
X641211Y461925D01*
X641112Y461943D01*
X641014Y461956D01*
X640914Y461966D01*
X640815Y461972D01*
X640715Y461974D01*
X639445Y461974D01*
X639345Y461972D01*
X639246Y461966D01*
X639146Y461956D01*
X639048Y461943D01*
X638949Y461925D01*
X638852Y461904D01*
X638756Y461879D01*
X638660Y461850D01*
X638566Y461817D01*
X638473Y461781D01*
X638382Y461741D01*
X638292Y461697D01*
X638204Y461650D01*
X638118Y461600D01*
X638034Y461546D01*
X637952Y461489D01*
X637873Y461429D01*
X637795Y461365D01*
X637721Y461299D01*
X637649Y461230D01*
X637580Y461158D01*
X637514Y461084D01*
X637450Y461006D01*
X637390Y460927D01*
X637333Y460845D01*
X637279Y460761D01*
X637229Y460675D01*
X637182Y460587D01*
X637138Y460497D01*
X637098Y460406D01*
X637062Y460313D01*
X637029Y460219D01*
X637000Y460123D01*
X636975Y460027D01*
X636954Y459930D01*
X636936Y459831D01*
X636923Y459733D01*
X636913Y459633D01*
X636907Y459534D01*
X636905Y459434D01*
X636905Y455624D01*
X631825Y455624D01*
X631825Y461974D01*
D10*
X701040Y345440D02*
X721360Y345440D01*
X701040Y345440D02*
X698500Y342900D01*
X701040Y320040D02*
X721360Y320040D01*
X701040Y320040D02*
X698500Y322580D01*
X698500Y342900D01*
X721360Y320040D02*
X723900Y322580D01*
X723900Y342900D02*
X721360Y345440D01*
X723900Y342900D02*
X723900Y322580D01*
X673100Y322580D02*
X673100Y342900D01*
X673100Y322580D02*
X675640Y320040D01*
X673100Y322580D02*
X670560Y320040D01*
X650240Y320040D02*
X647700Y322580D01*
X647700Y342900D01*
X675640Y320040D02*
X695960Y320040D01*
X698500Y322580D01*
X670560Y320040D02*
X650240Y320040D01*
X675640Y345440D02*
X695960Y345440D01*
X670560Y345440D02*
X650240Y345440D01*
X673100Y342900D02*
X675640Y345440D01*
X650240Y345440D02*
X647700Y342900D01*
X695960Y345440D02*
X698500Y342900D01*
X673100Y342900D02*
X670560Y345440D01*
D20*
X711200Y350520D02*
X711200Y400050D01*
X685800Y400050D02*
X685800Y350520D01*
X660400Y350520D02*
X660400Y400050D01*
D21*
X660894Y339471D02*
X658495Y337552D01*
X660894Y339471D02*
X660894Y330835D01*
X658495Y330835D02*
X663293Y330835D01*
X685264Y339471D02*
X685356Y339469D01*
X685447Y339463D01*
X685538Y339454D01*
X685629Y339440D01*
X685719Y339423D01*
X685808Y339401D01*
X685896Y339376D01*
X685983Y339348D01*
X686069Y339315D01*
X686153Y339279D01*
X686236Y339240D01*
X686317Y339197D01*
X686396Y339150D01*
X686473Y339101D01*
X686548Y339048D01*
X686620Y338992D01*
X686690Y338933D01*
X686758Y338871D01*
X686823Y338806D01*
X686885Y338738D01*
X686944Y338668D01*
X687000Y338596D01*
X687053Y338521D01*
X687102Y338444D01*
X687149Y338365D01*
X687192Y338284D01*
X687231Y338201D01*
X687267Y338117D01*
X687300Y338031D01*
X687328Y337944D01*
X687353Y337856D01*
X687375Y337767D01*
X687392Y337677D01*
X687406Y337586D01*
X687415Y337495D01*
X687421Y337404D01*
X687423Y337312D01*
X685264Y339471D02*
X685161Y339469D01*
X685059Y339463D01*
X684957Y339454D01*
X684855Y339441D01*
X684754Y339424D01*
X684653Y339403D01*
X684554Y339379D01*
X684455Y339350D01*
X684358Y339319D01*
X684261Y339283D01*
X684166Y339245D01*
X684073Y339202D01*
X683981Y339156D01*
X683891Y339107D01*
X683803Y339055D01*
X683716Y338999D01*
X683632Y338940D01*
X683551Y338879D01*
X683471Y338814D01*
X683394Y338746D01*
X683319Y338675D01*
X683248Y338602D01*
X683179Y338526D01*
X683112Y338448D01*
X683049Y338367D01*
X682989Y338284D01*
X682932Y338199D01*
X682878Y338112D01*
X682827Y338022D01*
X682780Y337931D01*
X682736Y337839D01*
X682695Y337744D01*
X682658Y337649D01*
X682625Y337552D01*
X686703Y335633D02*
X686770Y335699D01*
X686834Y335768D01*
X686895Y335839D01*
X686953Y335913D01*
X687008Y335989D01*
X687060Y336067D01*
X687109Y336147D01*
X687155Y336229D01*
X687197Y336313D01*
X687236Y336399D01*
X687271Y336486D01*
X687302Y336574D01*
X687330Y336664D01*
X687355Y336754D01*
X687376Y336846D01*
X687393Y336938D01*
X687406Y337031D01*
X687415Y337124D01*
X687421Y337218D01*
X687423Y337312D01*
X686703Y335633D02*
X682625Y330835D01*
X687423Y330835D01*
X706755Y330835D02*
X709154Y330835D01*
X709251Y330837D01*
X709347Y330843D01*
X709443Y330852D01*
X709539Y330866D01*
X709634Y330883D01*
X709728Y330905D01*
X709821Y330930D01*
X709914Y330958D01*
X710005Y330991D01*
X710094Y331027D01*
X710182Y331067D01*
X710269Y331110D01*
X710354Y331156D01*
X710436Y331206D01*
X710517Y331260D01*
X710595Y331316D01*
X710671Y331376D01*
X710745Y331438D01*
X710816Y331504D01*
X710884Y331572D01*
X710950Y331643D01*
X711012Y331717D01*
X711072Y331793D01*
X711128Y331871D01*
X711182Y331952D01*
X711232Y332035D01*
X711278Y332119D01*
X711321Y332206D01*
X711361Y332294D01*
X711397Y332383D01*
X711430Y332474D01*
X711458Y332567D01*
X711483Y332660D01*
X711505Y332754D01*
X711522Y332849D01*
X711536Y332945D01*
X711545Y333041D01*
X711551Y333137D01*
X711553Y333234D01*
X711551Y333331D01*
X711545Y333427D01*
X711536Y333523D01*
X711522Y333619D01*
X711505Y333714D01*
X711483Y333808D01*
X711458Y333901D01*
X711430Y333994D01*
X711397Y334085D01*
X711361Y334174D01*
X711321Y334262D01*
X711278Y334349D01*
X711232Y334434D01*
X711182Y334516D01*
X711128Y334597D01*
X711072Y334675D01*
X711012Y334751D01*
X710950Y334825D01*
X710884Y334896D01*
X710816Y334964D01*
X710745Y335030D01*
X710671Y335092D01*
X710595Y335152D01*
X710517Y335208D01*
X710436Y335262D01*
X710354Y335312D01*
X710269Y335358D01*
X710182Y335401D01*
X710094Y335441D01*
X710005Y335477D01*
X709914Y335510D01*
X709821Y335538D01*
X709728Y335563D01*
X709634Y335585D01*
X709539Y335602D01*
X709443Y335616D01*
X709347Y335625D01*
X709251Y335631D01*
X709154Y335633D01*
X709634Y339471D02*
X706755Y339471D01*
X709634Y339471D02*
X709720Y339469D01*
X709806Y339463D01*
X709892Y339454D01*
X709977Y339440D01*
X710061Y339423D01*
X710145Y339402D01*
X710227Y339377D01*
X710308Y339349D01*
X710388Y339317D01*
X710467Y339281D01*
X710543Y339242D01*
X710618Y339199D01*
X710691Y339154D01*
X710762Y339105D01*
X710830Y339052D01*
X710897Y338997D01*
X710960Y338939D01*
X711021Y338878D01*
X711079Y338815D01*
X711134Y338748D01*
X711187Y338680D01*
X711236Y338609D01*
X711281Y338536D01*
X711324Y338461D01*
X711363Y338385D01*
X711399Y338306D01*
X711431Y338226D01*
X711459Y338145D01*
X711484Y338063D01*
X711505Y337979D01*
X711522Y337895D01*
X711536Y337810D01*
X711545Y337724D01*
X711551Y337638D01*
X711553Y337552D01*
X711551Y337466D01*
X711545Y337380D01*
X711536Y337294D01*
X711522Y337209D01*
X711505Y337125D01*
X711484Y337041D01*
X711459Y336959D01*
X711431Y336878D01*
X711399Y336798D01*
X711363Y336719D01*
X711324Y336643D01*
X711281Y336568D01*
X711236Y336495D01*
X711187Y336424D01*
X711134Y336356D01*
X711079Y336289D01*
X711021Y336226D01*
X710960Y336165D01*
X710897Y336107D01*
X710830Y336052D01*
X710762Y335999D01*
X710691Y335950D01*
X710618Y335905D01*
X710543Y335862D01*
X710467Y335823D01*
X710388Y335787D01*
X710308Y335755D01*
X710227Y335727D01*
X710145Y335702D01*
X710061Y335681D01*
X709977Y335664D01*
X709892Y335650D01*
X709806Y335641D01*
X709720Y335635D01*
X709634Y335633D01*
X707715Y335633D01*
D22*
X711200Y347980D03*
X711200Y317500D03*
X685800Y317500D03*
X660400Y317500D03*
X685800Y347980D03*
X660400Y347980D03*
D21*
X640715Y324485D02*
X631825Y324485D01*
X640715Y324485D02*
X640815Y324483D01*
X640914Y324477D01*
X641014Y324467D01*
X641112Y324454D01*
X641211Y324436D01*
X641308Y324415D01*
X641404Y324390D01*
X641500Y324361D01*
X641594Y324328D01*
X641687Y324292D01*
X641778Y324252D01*
X641868Y324208D01*
X641956Y324161D01*
X642042Y324111D01*
X642126Y324057D01*
X642208Y324000D01*
X642287Y323940D01*
X642365Y323876D01*
X642439Y323810D01*
X642511Y323741D01*
X642580Y323669D01*
X642646Y323595D01*
X642710Y323517D01*
X642770Y323438D01*
X642827Y323356D01*
X642881Y323272D01*
X642931Y323186D01*
X642978Y323098D01*
X643022Y323008D01*
X643062Y322917D01*
X643098Y322824D01*
X643131Y322730D01*
X643160Y322634D01*
X643185Y322538D01*
X643206Y322441D01*
X643224Y322342D01*
X643237Y322244D01*
X643247Y322144D01*
X643253Y322045D01*
X643255Y321945D01*
X643255Y320675D01*
X643255Y330465D02*
X631825Y330465D01*
X631825Y333640D01*
X631827Y333751D01*
X631833Y333861D01*
X631842Y333972D01*
X631856Y334082D01*
X631873Y334191D01*
X631894Y334300D01*
X631919Y334408D01*
X631948Y334515D01*
X631980Y334621D01*
X632016Y334726D01*
X632056Y334829D01*
X632099Y334931D01*
X632146Y335032D01*
X632197Y335131D01*
X632250Y335228D01*
X632307Y335322D01*
X632368Y335415D01*
X632431Y335506D01*
X632498Y335595D01*
X632568Y335681D01*
X632641Y335764D01*
X632716Y335846D01*
X632794Y335924D01*
X632876Y335999D01*
X632959Y336072D01*
X633045Y336142D01*
X633134Y336209D01*
X633225Y336272D01*
X633318Y336333D01*
X633413Y336390D01*
X633509Y336443D01*
X633608Y336494D01*
X633709Y336541D01*
X633811Y336584D01*
X633914Y336624D01*
X634019Y336660D01*
X634125Y336692D01*
X634232Y336721D01*
X634340Y336746D01*
X634449Y336767D01*
X634558Y336784D01*
X634668Y336798D01*
X634779Y336807D01*
X634889Y336813D01*
X635000Y336815D01*
X635111Y336813D01*
X635221Y336807D01*
X635332Y336798D01*
X635442Y336784D01*
X635551Y336767D01*
X635660Y336746D01*
X635768Y336721D01*
X635875Y336692D01*
X635981Y336660D01*
X636086Y336624D01*
X636189Y336584D01*
X636291Y336541D01*
X636392Y336494D01*
X636491Y336443D01*
X636588Y336390D01*
X636682Y336333D01*
X636775Y336272D01*
X636866Y336209D01*
X636955Y336142D01*
X637041Y336072D01*
X637124Y335999D01*
X637206Y335924D01*
X637284Y335846D01*
X637359Y335764D01*
X637432Y335681D01*
X637502Y335595D01*
X637569Y335506D01*
X637632Y335415D01*
X637693Y335322D01*
X637750Y335228D01*
X637803Y335131D01*
X637854Y335032D01*
X637901Y334931D01*
X637944Y334829D01*
X637984Y334726D01*
X638020Y334621D01*
X638052Y334515D01*
X638081Y334408D01*
X638106Y334300D01*
X638127Y334191D01*
X638144Y334082D01*
X638158Y333972D01*
X638167Y333861D01*
X638173Y333751D01*
X638175Y333640D01*
X638175Y330465D01*
X636905Y341324D02*
X636905Y345134D01*
X636907Y345234D01*
X636913Y345333D01*
X636923Y345433D01*
X636936Y345531D01*
X636954Y345630D01*
X636975Y345727D01*
X637000Y345823D01*
X637029Y345919D01*
X637062Y346013D01*
X637098Y346106D01*
X637138Y346197D01*
X637182Y346287D01*
X637229Y346375D01*
X637279Y346461D01*
X637333Y346545D01*
X637390Y346627D01*
X637450Y346706D01*
X637514Y346784D01*
X637580Y346858D01*
X637649Y346930D01*
X637721Y346999D01*
X637795Y347065D01*
X637873Y347129D01*
X637952Y347189D01*
X638034Y347246D01*
X638118Y347300D01*
X638204Y347350D01*
X638292Y347397D01*
X638382Y347441D01*
X638473Y347481D01*
X638566Y347517D01*
X638660Y347550D01*
X638756Y347579D01*
X638852Y347604D01*
X638949Y347625D01*
X639048Y347643D01*
X639146Y347656D01*
X639246Y347666D01*
X639345Y347672D01*
X639445Y347674D01*
X640080Y347674D01*
X640191Y347672D01*
X640301Y347666D01*
X640412Y347657D01*
X640522Y347643D01*
X640631Y347626D01*
X640740Y347605D01*
X640848Y347580D01*
X640955Y347551D01*
X641061Y347519D01*
X641166Y347483D01*
X641269Y347443D01*
X641371Y347400D01*
X641472Y347353D01*
X641571Y347302D01*
X641668Y347249D01*
X641762Y347192D01*
X641855Y347131D01*
X641946Y347068D01*
X642035Y347001D01*
X642121Y346931D01*
X642204Y346858D01*
X642286Y346783D01*
X642364Y346705D01*
X642439Y346623D01*
X642512Y346540D01*
X642582Y346454D01*
X642649Y346365D01*
X642712Y346274D01*
X642773Y346181D01*
X642830Y346086D01*
X642883Y345990D01*
X642934Y345891D01*
X642981Y345790D01*
X643024Y345688D01*
X643064Y345585D01*
X643100Y345480D01*
X643132Y345374D01*
X643161Y345267D01*
X643186Y345159D01*
X643207Y345050D01*
X643224Y344941D01*
X643238Y344831D01*
X643247Y344720D01*
X643253Y344610D01*
X643255Y344499D01*
X643253Y344388D01*
X643247Y344278D01*
X643238Y344167D01*
X643224Y344057D01*
X643207Y343948D01*
X643186Y343839D01*
X643161Y343731D01*
X643132Y343624D01*
X643100Y343518D01*
X643064Y343413D01*
X643024Y343310D01*
X642981Y343208D01*
X642934Y343107D01*
X642883Y343008D01*
X642830Y342911D01*
X642773Y342817D01*
X642712Y342724D01*
X642649Y342633D01*
X642582Y342544D01*
X642512Y342458D01*
X642439Y342375D01*
X642364Y342293D01*
X642286Y342215D01*
X642204Y342140D01*
X642121Y342067D01*
X642035Y341997D01*
X641946Y341930D01*
X641855Y341867D01*
X641762Y341806D01*
X641668Y341749D01*
X641571Y341696D01*
X641472Y341645D01*
X641371Y341598D01*
X641269Y341555D01*
X641166Y341515D01*
X641061Y341479D01*
X640955Y341447D01*
X640848Y341418D01*
X640740Y341393D01*
X640631Y341372D01*
X640522Y341355D01*
X640412Y341341D01*
X640301Y341332D01*
X640191Y341326D01*
X640080Y341324D01*
X636905Y341324D01*
X636765Y341326D01*
X636625Y341332D01*
X636485Y341341D01*
X636346Y341355D01*
X636207Y341372D01*
X636069Y341393D01*
X635931Y341418D01*
X635794Y341447D01*
X635658Y341479D01*
X635523Y341516D01*
X635389Y341556D01*
X635256Y341599D01*
X635124Y341647D01*
X634993Y341697D01*
X634864Y341752D01*
X634737Y341810D01*
X634611Y341871D01*
X634487Y341936D01*
X634365Y342005D01*
X634245Y342076D01*
X634127Y342151D01*
X634010Y342229D01*
X633896Y342311D01*
X633785Y342395D01*
X633676Y342483D01*
X633569Y342573D01*
X633464Y342667D01*
X633363Y342763D01*
X633264Y342862D01*
X633168Y342963D01*
X633074Y343068D01*
X632984Y343175D01*
X632896Y343284D01*
X632812Y343395D01*
X632730Y343509D01*
X632652Y343626D01*
X632577Y343744D01*
X632506Y343864D01*
X632437Y343986D01*
X632372Y344110D01*
X632311Y344236D01*
X632253Y344363D01*
X632198Y344492D01*
X632148Y344623D01*
X632100Y344755D01*
X632057Y344888D01*
X632017Y345022D01*
X631980Y345157D01*
X631948Y345293D01*
X631919Y345430D01*
X631894Y345568D01*
X631873Y345706D01*
X631856Y345845D01*
X631842Y345984D01*
X631833Y346124D01*
X631827Y346264D01*
X631825Y346404D01*
D10*
X701040Y231140D02*
X721360Y231140D01*
X701040Y231140D02*
X698500Y228600D01*
X701040Y205740D02*
X721360Y205740D01*
X701040Y205740D02*
X698500Y208280D01*
X698500Y228600D01*
X721360Y205740D02*
X723900Y208280D01*
X723900Y228600D02*
X721360Y231140D01*
X723900Y228600D02*
X723900Y208280D01*
X673100Y208280D02*
X673100Y228600D01*
X673100Y208280D02*
X675640Y205740D01*
X673100Y208280D02*
X670560Y205740D01*
X650240Y205740D02*
X647700Y208280D01*
X647700Y228600D01*
X675640Y205740D02*
X695960Y205740D01*
X698500Y208280D01*
X670560Y205740D02*
X650240Y205740D01*
X675640Y231140D02*
X695960Y231140D01*
X670560Y231140D02*
X650240Y231140D01*
X673100Y228600D02*
X675640Y231140D01*
X650240Y231140D02*
X647700Y228600D01*
X695960Y231140D02*
X698500Y228600D01*
X673100Y228600D02*
X670560Y231140D01*
D20*
X711200Y236220D02*
X711200Y285750D01*
X685800Y285750D02*
X685800Y236220D01*
X660400Y236220D02*
X660400Y285750D01*
D21*
X660894Y225171D02*
X658495Y223252D01*
X660894Y225171D02*
X660894Y216535D01*
X658495Y216535D02*
X663293Y216535D01*
X685264Y225171D02*
X685356Y225169D01*
X685447Y225163D01*
X685538Y225154D01*
X685629Y225140D01*
X685719Y225123D01*
X685808Y225101D01*
X685896Y225076D01*
X685983Y225048D01*
X686069Y225015D01*
X686153Y224979D01*
X686236Y224940D01*
X686317Y224897D01*
X686396Y224850D01*
X686473Y224801D01*
X686548Y224748D01*
X686620Y224692D01*
X686690Y224633D01*
X686758Y224571D01*
X686823Y224506D01*
X686885Y224438D01*
X686944Y224368D01*
X687000Y224296D01*
X687053Y224221D01*
X687102Y224144D01*
X687149Y224065D01*
X687192Y223984D01*
X687231Y223901D01*
X687267Y223817D01*
X687300Y223731D01*
X687328Y223644D01*
X687353Y223556D01*
X687375Y223467D01*
X687392Y223377D01*
X687406Y223286D01*
X687415Y223195D01*
X687421Y223104D01*
X687423Y223012D01*
X685264Y225171D02*
X685161Y225169D01*
X685059Y225163D01*
X684957Y225154D01*
X684855Y225141D01*
X684754Y225124D01*
X684653Y225103D01*
X684554Y225079D01*
X684455Y225050D01*
X684358Y225019D01*
X684261Y224983D01*
X684166Y224945D01*
X684073Y224902D01*
X683981Y224856D01*
X683891Y224807D01*
X683803Y224755D01*
X683716Y224699D01*
X683632Y224640D01*
X683551Y224579D01*
X683471Y224514D01*
X683394Y224446D01*
X683319Y224375D01*
X683248Y224302D01*
X683179Y224226D01*
X683112Y224148D01*
X683049Y224067D01*
X682989Y223984D01*
X682932Y223899D01*
X682878Y223812D01*
X682827Y223722D01*
X682780Y223631D01*
X682736Y223539D01*
X682695Y223444D01*
X682658Y223349D01*
X682625Y223252D01*
X686703Y221333D02*
X686770Y221399D01*
X686834Y221468D01*
X686895Y221539D01*
X686953Y221613D01*
X687008Y221689D01*
X687060Y221767D01*
X687109Y221847D01*
X687155Y221929D01*
X687197Y222013D01*
X687236Y222099D01*
X687271Y222186D01*
X687302Y222274D01*
X687330Y222364D01*
X687355Y222454D01*
X687376Y222546D01*
X687393Y222638D01*
X687406Y222731D01*
X687415Y222824D01*
X687421Y222918D01*
X687423Y223012D01*
X686703Y221333D02*
X682625Y216535D01*
X687423Y216535D01*
X706755Y216535D02*
X709154Y216535D01*
X709251Y216537D01*
X709347Y216543D01*
X709443Y216552D01*
X709539Y216566D01*
X709634Y216583D01*
X709728Y216605D01*
X709821Y216630D01*
X709914Y216658D01*
X710005Y216691D01*
X710094Y216727D01*
X710182Y216767D01*
X710269Y216810D01*
X710354Y216856D01*
X710436Y216906D01*
X710517Y216960D01*
X710595Y217016D01*
X710671Y217076D01*
X710745Y217138D01*
X710816Y217204D01*
X710884Y217272D01*
X710950Y217343D01*
X711012Y217417D01*
X711072Y217493D01*
X711128Y217571D01*
X711182Y217652D01*
X711232Y217735D01*
X711278Y217819D01*
X711321Y217906D01*
X711361Y217994D01*
X711397Y218083D01*
X711430Y218174D01*
X711458Y218267D01*
X711483Y218360D01*
X711505Y218454D01*
X711522Y218549D01*
X711536Y218645D01*
X711545Y218741D01*
X711551Y218837D01*
X711553Y218934D01*
X711551Y219031D01*
X711545Y219127D01*
X711536Y219223D01*
X711522Y219319D01*
X711505Y219414D01*
X711483Y219508D01*
X711458Y219601D01*
X711430Y219694D01*
X711397Y219785D01*
X711361Y219874D01*
X711321Y219962D01*
X711278Y220049D01*
X711232Y220133D01*
X711182Y220216D01*
X711128Y220297D01*
X711072Y220375D01*
X711012Y220451D01*
X710950Y220525D01*
X710884Y220596D01*
X710816Y220664D01*
X710745Y220730D01*
X710671Y220792D01*
X710595Y220852D01*
X710517Y220908D01*
X710436Y220962D01*
X710354Y221012D01*
X710269Y221058D01*
X710182Y221101D01*
X710094Y221141D01*
X710005Y221177D01*
X709914Y221210D01*
X709821Y221238D01*
X709728Y221263D01*
X709634Y221285D01*
X709539Y221302D01*
X709443Y221316D01*
X709347Y221325D01*
X709251Y221331D01*
X709154Y221333D01*
X709634Y225171D02*
X706755Y225171D01*
X709634Y225171D02*
X709720Y225169D01*
X709806Y225163D01*
X709892Y225154D01*
X709977Y225140D01*
X710061Y225123D01*
X710145Y225102D01*
X710227Y225077D01*
X710308Y225049D01*
X710388Y225017D01*
X710467Y224981D01*
X710543Y224942D01*
X710618Y224899D01*
X710691Y224854D01*
X710762Y224805D01*
X710830Y224752D01*
X710897Y224697D01*
X710960Y224639D01*
X711021Y224578D01*
X711079Y224515D01*
X711134Y224448D01*
X711187Y224380D01*
X711236Y224309D01*
X711281Y224236D01*
X711324Y224161D01*
X711363Y224085D01*
X711399Y224006D01*
X711431Y223926D01*
X711459Y223845D01*
X711484Y223763D01*
X711505Y223679D01*
X711522Y223595D01*
X711536Y223510D01*
X711545Y223424D01*
X711551Y223338D01*
X711553Y223252D01*
X711551Y223166D01*
X711545Y223080D01*
X711536Y222994D01*
X711522Y222909D01*
X711505Y222825D01*
X711484Y222741D01*
X711459Y222659D01*
X711431Y222578D01*
X711399Y222498D01*
X711363Y222419D01*
X711324Y222343D01*
X711281Y222268D01*
X711236Y222195D01*
X711187Y222124D01*
X711134Y222056D01*
X711079Y221989D01*
X711021Y221926D01*
X710960Y221865D01*
X710897Y221807D01*
X710830Y221752D01*
X710762Y221699D01*
X710691Y221650D01*
X710618Y221605D01*
X710543Y221562D01*
X710467Y221523D01*
X710388Y221487D01*
X710308Y221455D01*
X710227Y221427D01*
X710145Y221402D01*
X710061Y221381D01*
X709977Y221364D01*
X709892Y221350D01*
X709806Y221341D01*
X709720Y221335D01*
X709634Y221333D01*
X707715Y221333D01*
D22*
X711200Y233680D03*
X711200Y203200D03*
X685800Y203200D03*
X660400Y203200D03*
X685800Y233680D03*
X660400Y233680D03*
D21*
X640715Y210185D02*
X631825Y210185D01*
X640715Y210185D02*
X640815Y210183D01*
X640914Y210177D01*
X641014Y210167D01*
X641112Y210154D01*
X641211Y210136D01*
X641308Y210115D01*
X641404Y210090D01*
X641500Y210061D01*
X641594Y210028D01*
X641687Y209992D01*
X641778Y209952D01*
X641868Y209908D01*
X641956Y209861D01*
X642042Y209811D01*
X642126Y209757D01*
X642208Y209700D01*
X642287Y209640D01*
X642365Y209576D01*
X642439Y209510D01*
X642511Y209441D01*
X642580Y209369D01*
X642646Y209295D01*
X642710Y209217D01*
X642770Y209138D01*
X642827Y209056D01*
X642881Y208972D01*
X642931Y208886D01*
X642978Y208798D01*
X643022Y208708D01*
X643062Y208617D01*
X643098Y208524D01*
X643131Y208430D01*
X643160Y208334D01*
X643185Y208238D01*
X643206Y208141D01*
X643224Y208042D01*
X643237Y207944D01*
X643247Y207844D01*
X643253Y207745D01*
X643255Y207645D01*
X643255Y206375D01*
X643255Y216165D02*
X631825Y216165D01*
X631825Y219340D01*
X631827Y219451D01*
X631833Y219561D01*
X631842Y219672D01*
X631856Y219782D01*
X631873Y219891D01*
X631894Y220000D01*
X631919Y220108D01*
X631948Y220215D01*
X631980Y220321D01*
X632016Y220426D01*
X632056Y220529D01*
X632099Y220631D01*
X632146Y220732D01*
X632197Y220831D01*
X632250Y220928D01*
X632307Y221022D01*
X632368Y221115D01*
X632431Y221206D01*
X632498Y221295D01*
X632568Y221381D01*
X632641Y221464D01*
X632716Y221546D01*
X632794Y221624D01*
X632876Y221699D01*
X632959Y221772D01*
X633045Y221842D01*
X633134Y221909D01*
X633225Y221972D01*
X633318Y222033D01*
X633413Y222090D01*
X633509Y222143D01*
X633608Y222194D01*
X633709Y222241D01*
X633811Y222284D01*
X633914Y222324D01*
X634019Y222360D01*
X634125Y222392D01*
X634232Y222421D01*
X634340Y222446D01*
X634449Y222467D01*
X634558Y222484D01*
X634668Y222498D01*
X634779Y222507D01*
X634889Y222513D01*
X635000Y222515D01*
X635111Y222513D01*
X635221Y222507D01*
X635332Y222498D01*
X635442Y222484D01*
X635551Y222467D01*
X635660Y222446D01*
X635768Y222421D01*
X635875Y222392D01*
X635981Y222360D01*
X636086Y222324D01*
X636189Y222284D01*
X636291Y222241D01*
X636392Y222194D01*
X636491Y222143D01*
X636588Y222090D01*
X636682Y222033D01*
X636775Y221972D01*
X636866Y221909D01*
X636955Y221842D01*
X637041Y221772D01*
X637124Y221699D01*
X637206Y221624D01*
X637284Y221546D01*
X637359Y221464D01*
X637432Y221381D01*
X637502Y221295D01*
X637569Y221206D01*
X637632Y221115D01*
X637693Y221022D01*
X637750Y220928D01*
X637803Y220831D01*
X637854Y220732D01*
X637901Y220631D01*
X637944Y220529D01*
X637984Y220426D01*
X638020Y220321D01*
X638052Y220215D01*
X638081Y220108D01*
X638106Y220000D01*
X638127Y219891D01*
X638144Y219782D01*
X638158Y219672D01*
X638167Y219561D01*
X638173Y219451D01*
X638175Y219340D01*
X638175Y216165D01*
X633095Y227024D02*
X631825Y227024D01*
X631825Y233374D01*
X643255Y230199D01*
D10*
X701040Y116840D02*
X721360Y116840D01*
X701040Y116840D02*
X698500Y114300D01*
X701040Y91440D02*
X721360Y91440D01*
X701040Y91440D02*
X698500Y93980D01*
X698500Y114300D01*
X721360Y91440D02*
X723900Y93980D01*
X723900Y114300D02*
X721360Y116840D01*
X723900Y114300D02*
X723900Y93980D01*
X673100Y93980D02*
X673100Y114300D01*
X673100Y93980D02*
X675640Y91440D01*
X673100Y93980D02*
X670560Y91440D01*
X650240Y91440D02*
X647700Y93980D01*
X647700Y114300D01*
X675640Y91440D02*
X695960Y91440D01*
X698500Y93980D01*
X670560Y91440D02*
X650240Y91440D01*
X675640Y116840D02*
X695960Y116840D01*
X670560Y116840D02*
X650240Y116840D01*
X673100Y114300D02*
X675640Y116840D01*
X650240Y116840D02*
X647700Y114300D01*
X695960Y116840D02*
X698500Y114300D01*
X673100Y114300D02*
X670560Y116840D01*
D20*
X711200Y121920D02*
X711200Y171450D01*
X685800Y171450D02*
X685800Y121920D01*
X660400Y121920D02*
X660400Y171450D01*
D21*
X660894Y110871D02*
X658495Y108952D01*
X660894Y110871D02*
X660894Y102235D01*
X658495Y102235D02*
X663293Y102235D01*
X685264Y110871D02*
X685356Y110869D01*
X685447Y110863D01*
X685538Y110854D01*
X685629Y110840D01*
X685719Y110823D01*
X685808Y110801D01*
X685896Y110776D01*
X685983Y110748D01*
X686069Y110715D01*
X686153Y110679D01*
X686236Y110640D01*
X686317Y110597D01*
X686396Y110550D01*
X686473Y110501D01*
X686548Y110448D01*
X686620Y110392D01*
X686690Y110333D01*
X686758Y110271D01*
X686823Y110206D01*
X686885Y110138D01*
X686944Y110068D01*
X687000Y109996D01*
X687053Y109921D01*
X687102Y109844D01*
X687149Y109765D01*
X687192Y109684D01*
X687231Y109601D01*
X687267Y109517D01*
X687300Y109431D01*
X687328Y109344D01*
X687353Y109256D01*
X687375Y109167D01*
X687392Y109077D01*
X687406Y108986D01*
X687415Y108895D01*
X687421Y108804D01*
X687423Y108712D01*
X685264Y110871D02*
X685161Y110869D01*
X685059Y110863D01*
X684957Y110854D01*
X684855Y110841D01*
X684754Y110824D01*
X684653Y110803D01*
X684554Y110779D01*
X684455Y110750D01*
X684358Y110719D01*
X684261Y110683D01*
X684166Y110645D01*
X684073Y110602D01*
X683981Y110556D01*
X683891Y110507D01*
X683803Y110455D01*
X683716Y110399D01*
X683632Y110340D01*
X683551Y110279D01*
X683471Y110214D01*
X683394Y110146D01*
X683319Y110075D01*
X683248Y110002D01*
X683179Y109926D01*
X683112Y109848D01*
X683049Y109767D01*
X682989Y109684D01*
X682932Y109599D01*
X682878Y109512D01*
X682827Y109422D01*
X682780Y109331D01*
X682736Y109239D01*
X682695Y109144D01*
X682658Y109049D01*
X682625Y108952D01*
X686703Y107033D02*
X686770Y107099D01*
X686834Y107168D01*
X686895Y107239D01*
X686953Y107313D01*
X687008Y107389D01*
X687060Y107467D01*
X687109Y107547D01*
X687155Y107629D01*
X687197Y107713D01*
X687236Y107799D01*
X687271Y107886D01*
X687302Y107974D01*
X687330Y108064D01*
X687355Y108154D01*
X687376Y108246D01*
X687393Y108338D01*
X687406Y108431D01*
X687415Y108524D01*
X687421Y108618D01*
X687423Y108712D01*
X686703Y107033D02*
X682625Y102235D01*
X687423Y102235D01*
X706755Y102235D02*
X709154Y102235D01*
X709251Y102237D01*
X709347Y102243D01*
X709443Y102252D01*
X709539Y102266D01*
X709634Y102283D01*
X709728Y102305D01*
X709821Y102330D01*
X709914Y102358D01*
X710005Y102391D01*
X710094Y102427D01*
X710182Y102467D01*
X710269Y102510D01*
X710354Y102556D01*
X710436Y102606D01*
X710517Y102660D01*
X710595Y102716D01*
X710671Y102776D01*
X710745Y102838D01*
X710816Y102904D01*
X710884Y102972D01*
X710950Y103043D01*
X711012Y103117D01*
X711072Y103193D01*
X711128Y103271D01*
X711182Y103352D01*
X711232Y103434D01*
X711278Y103519D01*
X711321Y103606D01*
X711361Y103694D01*
X711397Y103783D01*
X711430Y103874D01*
X711458Y103967D01*
X711483Y104060D01*
X711505Y104154D01*
X711522Y104249D01*
X711536Y104345D01*
X711545Y104441D01*
X711551Y104537D01*
X711553Y104634D01*
X711551Y104731D01*
X711545Y104827D01*
X711536Y104923D01*
X711522Y105019D01*
X711505Y105114D01*
X711483Y105208D01*
X711458Y105301D01*
X711430Y105394D01*
X711397Y105485D01*
X711361Y105574D01*
X711321Y105662D01*
X711278Y105749D01*
X711232Y105833D01*
X711182Y105916D01*
X711128Y105997D01*
X711072Y106075D01*
X711012Y106151D01*
X710950Y106225D01*
X710884Y106296D01*
X710816Y106364D01*
X710745Y106430D01*
X710671Y106492D01*
X710595Y106552D01*
X710517Y106608D01*
X710436Y106662D01*
X710354Y106712D01*
X710269Y106758D01*
X710182Y106801D01*
X710094Y106841D01*
X710005Y106877D01*
X709914Y106910D01*
X709821Y106938D01*
X709728Y106963D01*
X709634Y106985D01*
X709539Y107002D01*
X709443Y107016D01*
X709347Y107025D01*
X709251Y107031D01*
X709154Y107033D01*
X709634Y110871D02*
X706755Y110871D01*
X709634Y110871D02*
X709720Y110869D01*
X709806Y110863D01*
X709892Y110854D01*
X709977Y110840D01*
X710061Y110823D01*
X710145Y110802D01*
X710227Y110777D01*
X710308Y110749D01*
X710388Y110717D01*
X710467Y110681D01*
X710543Y110642D01*
X710618Y110599D01*
X710691Y110554D01*
X710762Y110505D01*
X710830Y110452D01*
X710897Y110397D01*
X710960Y110339D01*
X711021Y110278D01*
X711079Y110215D01*
X711134Y110148D01*
X711187Y110080D01*
X711236Y110009D01*
X711281Y109936D01*
X711324Y109861D01*
X711363Y109785D01*
X711399Y109706D01*
X711431Y109626D01*
X711459Y109545D01*
X711484Y109463D01*
X711505Y109379D01*
X711522Y109295D01*
X711536Y109210D01*
X711545Y109124D01*
X711551Y109038D01*
X711553Y108952D01*
X711551Y108866D01*
X711545Y108780D01*
X711536Y108694D01*
X711522Y108609D01*
X711505Y108525D01*
X711484Y108441D01*
X711459Y108359D01*
X711431Y108278D01*
X711399Y108198D01*
X711363Y108119D01*
X711324Y108043D01*
X711281Y107968D01*
X711236Y107895D01*
X711187Y107824D01*
X711134Y107756D01*
X711079Y107689D01*
X711021Y107626D01*
X710960Y107565D01*
X710897Y107507D01*
X710830Y107452D01*
X710762Y107399D01*
X710691Y107350D01*
X710618Y107305D01*
X710543Y107262D01*
X710467Y107223D01*
X710388Y107187D01*
X710308Y107155D01*
X710227Y107127D01*
X710145Y107102D01*
X710061Y107081D01*
X709977Y107064D01*
X709892Y107050D01*
X709806Y107041D01*
X709720Y107035D01*
X709634Y107033D01*
X707715Y107033D01*
D22*
X711200Y119380D03*
X711200Y88900D03*
X685800Y88900D03*
X660400Y88900D03*
X685800Y119380D03*
X660400Y119380D03*
D21*
X640715Y95885D02*
X631825Y95885D01*
X640715Y95885D02*
X640815Y95883D01*
X640914Y95877D01*
X641014Y95867D01*
X641112Y95854D01*
X641211Y95836D01*
X641308Y95815D01*
X641404Y95790D01*
X641500Y95761D01*
X641594Y95728D01*
X641687Y95692D01*
X641778Y95652D01*
X641868Y95608D01*
X641956Y95561D01*
X642042Y95511D01*
X642126Y95457D01*
X642208Y95400D01*
X642287Y95340D01*
X642365Y95276D01*
X642439Y95210D01*
X642511Y95141D01*
X642580Y95069D01*
X642646Y94995D01*
X642710Y94917D01*
X642770Y94838D01*
X642827Y94756D01*
X642881Y94672D01*
X642931Y94586D01*
X642978Y94498D01*
X643022Y94408D01*
X643062Y94317D01*
X643098Y94224D01*
X643131Y94130D01*
X643160Y94034D01*
X643185Y93938D01*
X643206Y93841D01*
X643224Y93742D01*
X643237Y93644D01*
X643247Y93544D01*
X643253Y93445D01*
X643255Y93345D01*
X643255Y92075D01*
X643255Y101865D02*
X631825Y101865D01*
X631825Y105040D01*
X631827Y105151D01*
X631833Y105261D01*
X631842Y105372D01*
X631856Y105482D01*
X631873Y105591D01*
X631894Y105700D01*
X631919Y105808D01*
X631948Y105915D01*
X631980Y106021D01*
X632016Y106126D01*
X632056Y106229D01*
X632099Y106331D01*
X632146Y106432D01*
X632197Y106531D01*
X632250Y106627D01*
X632307Y106722D01*
X632368Y106815D01*
X632431Y106906D01*
X632498Y106995D01*
X632568Y107081D01*
X632641Y107164D01*
X632716Y107246D01*
X632794Y107324D01*
X632876Y107399D01*
X632959Y107472D01*
X633045Y107542D01*
X633134Y107609D01*
X633225Y107672D01*
X633318Y107733D01*
X633413Y107790D01*
X633509Y107843D01*
X633608Y107894D01*
X633709Y107941D01*
X633811Y107984D01*
X633914Y108024D01*
X634019Y108060D01*
X634125Y108092D01*
X634232Y108121D01*
X634340Y108146D01*
X634449Y108167D01*
X634558Y108184D01*
X634668Y108198D01*
X634779Y108207D01*
X634889Y108213D01*
X635000Y108215D01*
X635111Y108213D01*
X635221Y108207D01*
X635332Y108198D01*
X635442Y108184D01*
X635551Y108167D01*
X635660Y108146D01*
X635768Y108121D01*
X635875Y108092D01*
X635981Y108060D01*
X636086Y108024D01*
X636189Y107984D01*
X636291Y107941D01*
X636392Y107894D01*
X636491Y107843D01*
X636588Y107790D01*
X636682Y107733D01*
X636775Y107672D01*
X636866Y107609D01*
X636955Y107542D01*
X637041Y107472D01*
X637124Y107399D01*
X637206Y107324D01*
X637284Y107246D01*
X637359Y107164D01*
X637432Y107081D01*
X637502Y106995D01*
X637569Y106906D01*
X637632Y106815D01*
X637693Y106722D01*
X637750Y106628D01*
X637803Y106531D01*
X637854Y106432D01*
X637901Y106331D01*
X637944Y106229D01*
X637984Y106126D01*
X638020Y106021D01*
X638052Y105915D01*
X638081Y105808D01*
X638106Y105700D01*
X638127Y105591D01*
X638144Y105482D01*
X638158Y105372D01*
X638167Y105261D01*
X638173Y105151D01*
X638175Y105040D01*
X638175Y101865D01*
X640080Y112724D02*
X639969Y112726D01*
X639859Y112732D01*
X639748Y112741D01*
X639638Y112755D01*
X639529Y112772D01*
X639420Y112793D01*
X639312Y112818D01*
X639205Y112847D01*
X639099Y112879D01*
X638994Y112915D01*
X638891Y112955D01*
X638789Y112998D01*
X638688Y113045D01*
X638589Y113096D01*
X638493Y113149D01*
X638398Y113206D01*
X638305Y113267D01*
X638214Y113330D01*
X638125Y113397D01*
X638039Y113467D01*
X637956Y113540D01*
X637874Y113615D01*
X637796Y113693D01*
X637721Y113775D01*
X637648Y113858D01*
X637578Y113944D01*
X637511Y114033D01*
X637448Y114124D01*
X637387Y114217D01*
X637330Y114311D01*
X637277Y114408D01*
X637226Y114507D01*
X637179Y114608D01*
X637136Y114710D01*
X637096Y114813D01*
X637060Y114918D01*
X637028Y115024D01*
X636999Y115131D01*
X636974Y115239D01*
X636953Y115348D01*
X636936Y115457D01*
X636922Y115567D01*
X636913Y115678D01*
X636907Y115788D01*
X636905Y115899D01*
X636907Y116010D01*
X636913Y116120D01*
X636922Y116231D01*
X636936Y116341D01*
X636953Y116450D01*
X636974Y116559D01*
X636999Y116667D01*
X637028Y116774D01*
X637060Y116880D01*
X637096Y116985D01*
X637136Y117088D01*
X637179Y117190D01*
X637226Y117291D01*
X637277Y117390D01*
X637330Y117487D01*
X637387Y117581D01*
X637448Y117674D01*
X637511Y117765D01*
X637578Y117854D01*
X637648Y117940D01*
X637721Y118023D01*
X637796Y118105D01*
X637874Y118183D01*
X637956Y118258D01*
X638039Y118331D01*
X638125Y118401D01*
X638214Y118468D01*
X638305Y118531D01*
X638398Y118592D01*
X638493Y118649D01*
X638589Y118702D01*
X638688Y118753D01*
X638789Y118800D01*
X638891Y118843D01*
X638994Y118883D01*
X639099Y118919D01*
X639205Y118951D01*
X639312Y118980D01*
X639420Y119005D01*
X639529Y119026D01*
X639638Y119043D01*
X639748Y119057D01*
X639859Y119066D01*
X639969Y119072D01*
X640080Y119074D01*
X640191Y119072D01*
X640301Y119066D01*
X640412Y119057D01*
X640522Y119043D01*
X640631Y119026D01*
X640740Y119005D01*
X640848Y118980D01*
X640955Y118951D01*
X641061Y118919D01*
X641166Y118883D01*
X641269Y118843D01*
X641371Y118800D01*
X641472Y118753D01*
X641571Y118702D01*
X641668Y118649D01*
X641762Y118592D01*
X641855Y118531D01*
X641946Y118468D01*
X642035Y118401D01*
X642121Y118331D01*
X642204Y118258D01*
X642286Y118183D01*
X642364Y118105D01*
X642439Y118023D01*
X642512Y117940D01*
X642582Y117854D01*
X642649Y117765D01*
X642712Y117674D01*
X642773Y117581D01*
X642830Y117486D01*
X642883Y117390D01*
X642934Y117291D01*
X642981Y117190D01*
X643024Y117088D01*
X643064Y116985D01*
X643100Y116880D01*
X643132Y116774D01*
X643161Y116667D01*
X643186Y116559D01*
X643207Y116450D01*
X643224Y116341D01*
X643238Y116231D01*
X643247Y116120D01*
X643253Y116010D01*
X643255Y115899D01*
X643253Y115788D01*
X643247Y115678D01*
X643238Y115567D01*
X643224Y115457D01*
X643207Y115348D01*
X643186Y115239D01*
X643161Y115131D01*
X643132Y115024D01*
X643100Y114918D01*
X643064Y114813D01*
X643024Y114710D01*
X642981Y114608D01*
X642934Y114507D01*
X642883Y114408D01*
X642830Y114311D01*
X642773Y114217D01*
X642712Y114124D01*
X642649Y114033D01*
X642582Y113944D01*
X642512Y113858D01*
X642439Y113775D01*
X642364Y113693D01*
X642286Y113615D01*
X642204Y113540D01*
X642121Y113467D01*
X642035Y113397D01*
X641946Y113330D01*
X641855Y113267D01*
X641762Y113206D01*
X641668Y113149D01*
X641571Y113096D01*
X641472Y113045D01*
X641371Y112998D01*
X641269Y112955D01*
X641166Y112915D01*
X641061Y112879D01*
X640955Y112847D01*
X640848Y112818D01*
X640740Y112793D01*
X640631Y112772D01*
X640522Y112755D01*
X640412Y112741D01*
X640301Y112732D01*
X640191Y112726D01*
X640080Y112724D01*
X634365Y113359D02*
X634265Y113361D01*
X634166Y113367D01*
X634066Y113377D01*
X633968Y113390D01*
X633869Y113408D01*
X633772Y113429D01*
X633676Y113454D01*
X633580Y113483D01*
X633486Y113516D01*
X633393Y113552D01*
X633302Y113592D01*
X633212Y113636D01*
X633124Y113683D01*
X633038Y113733D01*
X632954Y113787D01*
X632872Y113844D01*
X632793Y113904D01*
X632715Y113968D01*
X632641Y114034D01*
X632569Y114103D01*
X632500Y114175D01*
X632434Y114249D01*
X632370Y114327D01*
X632310Y114406D01*
X632253Y114488D01*
X632199Y114572D01*
X632149Y114658D01*
X632102Y114746D01*
X632058Y114836D01*
X632018Y114927D01*
X631982Y115020D01*
X631949Y115114D01*
X631920Y115210D01*
X631895Y115306D01*
X631874Y115403D01*
X631856Y115502D01*
X631843Y115600D01*
X631833Y115700D01*
X631827Y115799D01*
X631825Y115899D01*
X631827Y115999D01*
X631833Y116098D01*
X631843Y116198D01*
X631856Y116296D01*
X631874Y116395D01*
X631895Y116492D01*
X631920Y116588D01*
X631949Y116684D01*
X631982Y116778D01*
X632018Y116871D01*
X632058Y116962D01*
X632102Y117052D01*
X632149Y117140D01*
X632199Y117226D01*
X632253Y117310D01*
X632310Y117392D01*
X632370Y117471D01*
X632434Y117549D01*
X632500Y117623D01*
X632569Y117695D01*
X632641Y117764D01*
X632715Y117830D01*
X632793Y117894D01*
X632872Y117954D01*
X632954Y118011D01*
X633038Y118065D01*
X633124Y118115D01*
X633212Y118162D01*
X633302Y118206D01*
X633393Y118246D01*
X633486Y118282D01*
X633580Y118315D01*
X633676Y118344D01*
X633772Y118369D01*
X633869Y118390D01*
X633968Y118408D01*
X634066Y118421D01*
X634166Y118431D01*
X634265Y118437D01*
X634365Y118439D01*
X634465Y118437D01*
X634564Y118431D01*
X634664Y118421D01*
X634762Y118408D01*
X634861Y118390D01*
X634958Y118369D01*
X635054Y118344D01*
X635150Y118315D01*
X635244Y118282D01*
X635337Y118246D01*
X635428Y118206D01*
X635518Y118162D01*
X635606Y118115D01*
X635692Y118065D01*
X635776Y118011D01*
X635858Y117954D01*
X635937Y117894D01*
X636015Y117830D01*
X636089Y117764D01*
X636161Y117695D01*
X636230Y117623D01*
X636296Y117549D01*
X636360Y117471D01*
X636420Y117392D01*
X636477Y117310D01*
X636531Y117226D01*
X636581Y117140D01*
X636628Y117052D01*
X636672Y116962D01*
X636712Y116871D01*
X636748Y116778D01*
X636781Y116684D01*
X636810Y116588D01*
X636835Y116492D01*
X636856Y116395D01*
X636874Y116296D01*
X636887Y116198D01*
X636897Y116098D01*
X636903Y115999D01*
X636905Y115899D01*
X636903Y115799D01*
X636897Y115700D01*
X636887Y115600D01*
X636874Y115502D01*
X636856Y115403D01*
X636835Y115306D01*
X636810Y115210D01*
X636781Y115114D01*
X636748Y115020D01*
X636712Y114927D01*
X636672Y114836D01*
X636628Y114746D01*
X636581Y114658D01*
X636531Y114572D01*
X636477Y114488D01*
X636420Y114406D01*
X636360Y114327D01*
X636296Y114249D01*
X636230Y114175D01*
X636161Y114103D01*
X636089Y114034D01*
X636015Y113968D01*
X635937Y113904D01*
X635858Y113844D01*
X635776Y113787D01*
X635692Y113733D01*
X635606Y113683D01*
X635518Y113636D01*
X635428Y113592D01*
X635337Y113552D01*
X635244Y113516D01*
X635150Y113483D01*
X635054Y113454D01*
X634958Y113429D01*
X634861Y113408D01*
X634762Y113390D01*
X634664Y113377D01*
X634564Y113367D01*
X634465Y113361D01*
X634365Y113359D01*
D10*
X330200Y86360D02*
X330200Y66040D01*
X383540Y88900D02*
X403860Y88900D01*
X383540Y88900D02*
X381000Y86360D01*
X383540Y63500D02*
X403860Y63500D01*
X383540Y63500D02*
X381000Y66040D01*
X403860Y63500D02*
X406400Y66040D01*
X406400Y86360D02*
X403860Y88900D01*
X381000Y86360D02*
X378460Y88900D01*
X358140Y88900D01*
X355600Y86360D01*
X353060Y88900D01*
X332740Y88900D02*
X330200Y86360D01*
X332740Y88900D02*
X353060Y88900D01*
X378460Y63500D02*
X381000Y66040D01*
X358140Y63500D02*
X355600Y66040D01*
X353060Y63500D01*
X332740Y63500D02*
X330200Y66040D01*
X358140Y63500D02*
X378460Y63500D01*
X353060Y63500D02*
X332740Y63500D01*
X431800Y66040D02*
X431800Y86360D01*
X429260Y88900D01*
X431800Y66040D02*
X429260Y63500D01*
X408940Y63500D02*
X406400Y66040D01*
X406400Y86360D02*
X408940Y88900D01*
X429260Y88900D01*
X429260Y63500D02*
X408940Y63500D01*
D21*
X345934Y58801D02*
X343535Y56882D01*
X345934Y58801D02*
X345934Y50165D01*
X343535Y50165D02*
X348333Y50165D01*
X371574Y58801D02*
X371666Y58799D01*
X371757Y58793D01*
X371848Y58784D01*
X371939Y58770D01*
X372029Y58753D01*
X372118Y58731D01*
X372206Y58706D01*
X372293Y58678D01*
X372379Y58645D01*
X372463Y58609D01*
X372546Y58570D01*
X372627Y58527D01*
X372706Y58480D01*
X372783Y58431D01*
X372858Y58378D01*
X372930Y58322D01*
X373000Y58263D01*
X373068Y58201D01*
X373133Y58136D01*
X373195Y58068D01*
X373254Y57998D01*
X373310Y57926D01*
X373363Y57851D01*
X373412Y57774D01*
X373459Y57695D01*
X373502Y57614D01*
X373541Y57531D01*
X373577Y57447D01*
X373610Y57361D01*
X373638Y57274D01*
X373663Y57186D01*
X373685Y57097D01*
X373702Y57007D01*
X373716Y56916D01*
X373725Y56825D01*
X373731Y56734D01*
X373733Y56642D01*
X371574Y58801D02*
X371471Y58799D01*
X371369Y58793D01*
X371267Y58784D01*
X371165Y58771D01*
X371064Y58754D01*
X370963Y58733D01*
X370864Y58709D01*
X370765Y58680D01*
X370668Y58649D01*
X370571Y58613D01*
X370476Y58575D01*
X370383Y58532D01*
X370291Y58486D01*
X370201Y58437D01*
X370113Y58385D01*
X370026Y58329D01*
X369942Y58270D01*
X369861Y58209D01*
X369781Y58144D01*
X369704Y58076D01*
X369629Y58005D01*
X369558Y57932D01*
X369489Y57856D01*
X369422Y57778D01*
X369359Y57697D01*
X369299Y57614D01*
X369242Y57529D01*
X369188Y57442D01*
X369137Y57352D01*
X369090Y57261D01*
X369046Y57169D01*
X369005Y57074D01*
X368968Y56979D01*
X368935Y56882D01*
X373013Y54963D02*
X373080Y55029D01*
X373144Y55098D01*
X373205Y55169D01*
X373263Y55243D01*
X373318Y55319D01*
X373370Y55397D01*
X373419Y55477D01*
X373465Y55559D01*
X373507Y55643D01*
X373546Y55729D01*
X373581Y55816D01*
X373612Y55904D01*
X373640Y55994D01*
X373665Y56084D01*
X373686Y56176D01*
X373703Y56268D01*
X373716Y56361D01*
X373725Y56454D01*
X373731Y56548D01*
X373733Y56642D01*
X373013Y54963D02*
X368935Y50165D01*
X373733Y50165D01*
X394335Y50165D02*
X396734Y50165D01*
X396831Y50167D01*
X396927Y50173D01*
X397023Y50182D01*
X397119Y50196D01*
X397214Y50213D01*
X397308Y50235D01*
X397401Y50260D01*
X397494Y50288D01*
X397585Y50321D01*
X397674Y50357D01*
X397762Y50397D01*
X397849Y50440D01*
X397934Y50486D01*
X398016Y50536D01*
X398097Y50590D01*
X398175Y50646D01*
X398251Y50706D01*
X398325Y50768D01*
X398396Y50834D01*
X398464Y50902D01*
X398530Y50973D01*
X398592Y51047D01*
X398652Y51123D01*
X398708Y51201D01*
X398762Y51282D01*
X398812Y51364D01*
X398858Y51449D01*
X398901Y51536D01*
X398941Y51624D01*
X398977Y51713D01*
X399010Y51804D01*
X399038Y51897D01*
X399063Y51990D01*
X399085Y52084D01*
X399102Y52179D01*
X399116Y52275D01*
X399125Y52371D01*
X399131Y52467D01*
X399133Y52564D01*
X399131Y52661D01*
X399125Y52757D01*
X399116Y52853D01*
X399102Y52949D01*
X399085Y53044D01*
X399063Y53138D01*
X399038Y53231D01*
X399010Y53324D01*
X398977Y53415D01*
X398941Y53504D01*
X398901Y53592D01*
X398858Y53679D01*
X398812Y53763D01*
X398762Y53846D01*
X398708Y53927D01*
X398652Y54005D01*
X398592Y54081D01*
X398530Y54155D01*
X398464Y54226D01*
X398396Y54294D01*
X398325Y54360D01*
X398251Y54422D01*
X398175Y54482D01*
X398097Y54538D01*
X398016Y54592D01*
X397934Y54642D01*
X397849Y54688D01*
X397762Y54731D01*
X397674Y54771D01*
X397585Y54807D01*
X397494Y54840D01*
X397401Y54868D01*
X397308Y54893D01*
X397214Y54915D01*
X397119Y54932D01*
X397023Y54946D01*
X396927Y54955D01*
X396831Y54961D01*
X396734Y54963D01*
X397214Y58801D02*
X394335Y58801D01*
X397214Y58801D02*
X397300Y58799D01*
X397386Y58793D01*
X397472Y58784D01*
X397557Y58770D01*
X397641Y58753D01*
X397725Y58732D01*
X397807Y58707D01*
X397888Y58679D01*
X397968Y58647D01*
X398047Y58611D01*
X398123Y58572D01*
X398198Y58529D01*
X398271Y58484D01*
X398342Y58435D01*
X398410Y58382D01*
X398477Y58327D01*
X398540Y58269D01*
X398601Y58208D01*
X398659Y58145D01*
X398714Y58078D01*
X398767Y58010D01*
X398816Y57939D01*
X398861Y57866D01*
X398904Y57791D01*
X398943Y57715D01*
X398979Y57636D01*
X399011Y57556D01*
X399039Y57475D01*
X399064Y57393D01*
X399085Y57309D01*
X399102Y57225D01*
X399116Y57140D01*
X399125Y57054D01*
X399131Y56968D01*
X399133Y56882D01*
X399131Y56796D01*
X399125Y56710D01*
X399116Y56624D01*
X399102Y56539D01*
X399085Y56455D01*
X399064Y56371D01*
X399039Y56289D01*
X399011Y56208D01*
X398979Y56128D01*
X398943Y56049D01*
X398904Y55973D01*
X398861Y55898D01*
X398816Y55825D01*
X398767Y55754D01*
X398714Y55686D01*
X398659Y55619D01*
X398601Y55556D01*
X398540Y55495D01*
X398477Y55437D01*
X398410Y55382D01*
X398342Y55329D01*
X398271Y55280D01*
X398198Y55235D01*
X398123Y55192D01*
X398047Y55153D01*
X397968Y55117D01*
X397888Y55085D01*
X397807Y55057D01*
X397725Y55032D01*
X397641Y55011D01*
X397557Y54994D01*
X397472Y54980D01*
X397386Y54971D01*
X397300Y54965D01*
X397214Y54963D01*
X395295Y54963D01*
X419735Y52084D02*
X421654Y58801D01*
X419735Y52084D02*
X424533Y52084D01*
X423093Y54003D02*
X423093Y50165D01*
X334645Y95885D02*
X334645Y104775D01*
X334645Y95885D02*
X334643Y95785D01*
X334637Y95686D01*
X334627Y95586D01*
X334614Y95488D01*
X334596Y95389D01*
X334575Y95292D01*
X334550Y95196D01*
X334521Y95100D01*
X334488Y95006D01*
X334452Y94913D01*
X334412Y94822D01*
X334368Y94732D01*
X334321Y94644D01*
X334271Y94558D01*
X334217Y94474D01*
X334160Y94392D01*
X334100Y94313D01*
X334036Y94235D01*
X333970Y94161D01*
X333901Y94089D01*
X333829Y94020D01*
X333755Y93954D01*
X333677Y93890D01*
X333598Y93830D01*
X333516Y93773D01*
X333432Y93719D01*
X333346Y93669D01*
X333258Y93622D01*
X333168Y93578D01*
X333077Y93538D01*
X332984Y93502D01*
X332890Y93469D01*
X332794Y93440D01*
X332698Y93415D01*
X332601Y93394D01*
X332502Y93376D01*
X332404Y93363D01*
X332304Y93353D01*
X332205Y93347D01*
X332105Y93345D01*
X330835Y93345D01*
X340625Y93345D02*
X340625Y104775D01*
X343800Y104775D01*
X343911Y104773D01*
X344021Y104767D01*
X344132Y104758D01*
X344242Y104744D01*
X344351Y104727D01*
X344460Y104706D01*
X344568Y104681D01*
X344675Y104652D01*
X344781Y104620D01*
X344886Y104584D01*
X344989Y104544D01*
X345091Y104501D01*
X345192Y104454D01*
X345291Y104403D01*
X345388Y104350D01*
X345482Y104293D01*
X345575Y104232D01*
X345666Y104169D01*
X345755Y104102D01*
X345841Y104032D01*
X345924Y103959D01*
X346006Y103884D01*
X346084Y103806D01*
X346159Y103724D01*
X346232Y103641D01*
X346302Y103555D01*
X346369Y103466D01*
X346432Y103375D01*
X346493Y103282D01*
X346550Y103187D01*
X346603Y103091D01*
X346654Y102992D01*
X346701Y102891D01*
X346744Y102789D01*
X346784Y102686D01*
X346820Y102581D01*
X346852Y102475D01*
X346881Y102368D01*
X346906Y102260D01*
X346927Y102151D01*
X346944Y102042D01*
X346958Y101932D01*
X346967Y101821D01*
X346973Y101711D01*
X346975Y101600D01*
X346973Y101489D01*
X346967Y101379D01*
X346958Y101268D01*
X346944Y101158D01*
X346927Y101049D01*
X346906Y100940D01*
X346881Y100832D01*
X346852Y100725D01*
X346820Y100619D01*
X346784Y100514D01*
X346744Y100411D01*
X346701Y100309D01*
X346654Y100208D01*
X346603Y100109D01*
X346550Y100012D01*
X346493Y99918D01*
X346432Y99825D01*
X346369Y99734D01*
X346302Y99645D01*
X346232Y99559D01*
X346159Y99476D01*
X346084Y99394D01*
X346006Y99316D01*
X345924Y99241D01*
X345841Y99168D01*
X345755Y99098D01*
X345666Y99031D01*
X345575Y98968D01*
X345482Y98907D01*
X345388Y98850D01*
X345291Y98797D01*
X345192Y98746D01*
X345091Y98699D01*
X344989Y98656D01*
X344886Y98616D01*
X344781Y98580D01*
X344675Y98548D01*
X344568Y98519D01*
X344460Y98494D01*
X344351Y98473D01*
X344242Y98456D01*
X344132Y98442D01*
X344021Y98433D01*
X343911Y98427D01*
X343800Y98425D01*
X340625Y98425D01*
X354024Y98425D02*
X357834Y98425D01*
X354024Y98425D02*
X353924Y98427D01*
X353825Y98433D01*
X353725Y98443D01*
X353627Y98456D01*
X353528Y98474D01*
X353431Y98495D01*
X353335Y98520D01*
X353239Y98549D01*
X353145Y98582D01*
X353052Y98618D01*
X352961Y98658D01*
X352871Y98702D01*
X352783Y98749D01*
X352697Y98799D01*
X352613Y98853D01*
X352531Y98910D01*
X352452Y98970D01*
X352374Y99034D01*
X352300Y99100D01*
X352228Y99169D01*
X352159Y99241D01*
X352093Y99315D01*
X352029Y99393D01*
X351969Y99472D01*
X351912Y99554D01*
X351858Y99638D01*
X351808Y99724D01*
X351761Y99812D01*
X351717Y99902D01*
X351677Y99993D01*
X351641Y100086D01*
X351608Y100180D01*
X351579Y100276D01*
X351554Y100372D01*
X351533Y100469D01*
X351515Y100568D01*
X351502Y100666D01*
X351492Y100766D01*
X351486Y100865D01*
X351484Y100965D01*
X351484Y101600D01*
X351486Y101711D01*
X351492Y101821D01*
X351501Y101932D01*
X351515Y102042D01*
X351532Y102151D01*
X351553Y102260D01*
X351578Y102368D01*
X351607Y102475D01*
X351639Y102581D01*
X351675Y102686D01*
X351715Y102789D01*
X351758Y102891D01*
X351805Y102992D01*
X351856Y103091D01*
X351909Y103187D01*
X351966Y103282D01*
X352027Y103375D01*
X352090Y103466D01*
X352157Y103555D01*
X352227Y103641D01*
X352300Y103724D01*
X352375Y103806D01*
X352453Y103884D01*
X352535Y103959D01*
X352618Y104032D01*
X352704Y104102D01*
X352793Y104169D01*
X352884Y104232D01*
X352977Y104293D01*
X353072Y104350D01*
X353168Y104403D01*
X353267Y104454D01*
X353368Y104501D01*
X353470Y104544D01*
X353573Y104584D01*
X353678Y104620D01*
X353784Y104652D01*
X353891Y104681D01*
X353999Y104706D01*
X354108Y104727D01*
X354217Y104744D01*
X354327Y104758D01*
X354438Y104767D01*
X354548Y104773D01*
X354659Y104775D01*
X354770Y104773D01*
X354880Y104767D01*
X354991Y104758D01*
X355101Y104744D01*
X355210Y104727D01*
X355319Y104706D01*
X355427Y104681D01*
X355534Y104652D01*
X355640Y104620D01*
X355745Y104584D01*
X355848Y104544D01*
X355950Y104501D01*
X356051Y104454D01*
X356150Y104403D01*
X356247Y104350D01*
X356341Y104293D01*
X356434Y104232D01*
X356525Y104169D01*
X356614Y104102D01*
X356700Y104032D01*
X356783Y103959D01*
X356865Y103884D01*
X356943Y103806D01*
X357018Y103724D01*
X357091Y103641D01*
X357161Y103555D01*
X357228Y103466D01*
X357291Y103375D01*
X357352Y103282D01*
X357409Y103188D01*
X357462Y103091D01*
X357513Y102992D01*
X357560Y102891D01*
X357603Y102789D01*
X357643Y102686D01*
X357679Y102581D01*
X357711Y102475D01*
X357740Y102368D01*
X357765Y102260D01*
X357786Y102151D01*
X357803Y102042D01*
X357817Y101932D01*
X357826Y101821D01*
X357832Y101711D01*
X357834Y101600D01*
X357834Y98425D01*
X357832Y98285D01*
X357826Y98145D01*
X357817Y98005D01*
X357803Y97866D01*
X357786Y97727D01*
X357765Y97589D01*
X357740Y97451D01*
X357711Y97314D01*
X357679Y97178D01*
X357642Y97043D01*
X357602Y96909D01*
X357559Y96776D01*
X357511Y96644D01*
X357461Y96513D01*
X357406Y96384D01*
X357348Y96257D01*
X357287Y96131D01*
X357222Y96007D01*
X357153Y95885D01*
X357082Y95765D01*
X357007Y95647D01*
X356929Y95530D01*
X356847Y95416D01*
X356763Y95305D01*
X356675Y95196D01*
X356585Y95089D01*
X356491Y94984D01*
X356395Y94883D01*
X356296Y94784D01*
X356195Y94688D01*
X356090Y94594D01*
X355983Y94504D01*
X355874Y94416D01*
X355763Y94332D01*
X355649Y94250D01*
X355532Y94172D01*
X355414Y94097D01*
X355294Y94026D01*
X355172Y93957D01*
X355048Y93892D01*
X354922Y93831D01*
X354795Y93773D01*
X354666Y93718D01*
X354535Y93668D01*
X354403Y93620D01*
X354270Y93577D01*
X354136Y93537D01*
X354001Y93500D01*
X353865Y93468D01*
X353728Y93439D01*
X353590Y93414D01*
X353452Y93393D01*
X353313Y93376D01*
X353174Y93362D01*
X353034Y93353D01*
X352894Y93347D01*
X352754Y93345D01*
D23*
X63500Y882650D02*
X63500Y920750D01*
D24*
X63974Y921366D01*
X64463Y921971D01*
X64967Y922563D01*
X65485Y923143D01*
X66017Y923710D01*
X66563Y924264D01*
X67122Y924804D01*
X67695Y925330D01*
X68280Y925843D01*
X68877Y926340D01*
X69486Y926823D01*
X70107Y927291D01*
X70740Y927744D01*
X71383Y928181D01*
X72037Y928602D01*
X72701Y929006D01*
X73374Y929395D01*
X74057Y929767D01*
X74749Y930122D01*
X75449Y930460D01*
X76157Y930781D01*
X76873Y931084D01*
X77597Y931370D01*
X78326Y931638D01*
X79063Y931888D01*
X79805Y932119D01*
X80553Y932333D01*
X81305Y932528D01*
X82063Y932705D01*
X82824Y932863D01*
X83589Y933003D01*
X84357Y933123D01*
X85128Y933225D01*
X85901Y933308D01*
X86676Y933372D01*
X87452Y933417D01*
X88229Y933443D01*
X89007Y933450D01*
X89784Y933438D01*
X90561Y933407D01*
X91337Y933356D01*
X92112Y933287D01*
X92884Y933199D01*
X93654Y933092D01*
X94422Y932966D01*
X95186Y932822D01*
X95946Y932658D01*
X96702Y932476D01*
X97453Y932276D01*
X98200Y932058D01*
X98940Y931821D01*
X99675Y931566D01*
X100403Y931293D01*
X101124Y931002D01*
X101838Y930694D01*
X102544Y930369D01*
X103242Y930026D01*
X103932Y929666D01*
X104612Y929290D01*
X105283Y928897D01*
X105944Y928487D01*
X106595Y928062D01*
X107235Y927621D01*
X107864Y927164D01*
X108482Y926692D01*
X109088Y926205D01*
X109682Y925703D01*
X110264Y925187D01*
X110833Y924657D01*
X111388Y924113D01*
X111931Y923555D01*
X112459Y922985D01*
X112973Y922402D01*
X113473Y921806D01*
X113958Y921198D01*
X114428Y920579D01*
X114882Y919948D01*
X115321Y919306D01*
X115745Y918654D01*
X116152Y917991D01*
X116543Y917319D01*
X116917Y916637D01*
X117274Y915947D01*
X117614Y915248D01*
X117938Y914540D01*
X118243Y913826D01*
X118532Y913103D01*
X118802Y912374D01*
X119054Y911639D01*
X119289Y910897D01*
X119505Y910150D01*
X119703Y909398D01*
X119882Y908642D01*
X120043Y907881D01*
X120185Y907117D01*
X120308Y906349D01*
X120412Y905578D01*
X120498Y904805D01*
X120564Y904031D01*
X120612Y903255D01*
X120640Y902478D01*
X120650Y901700D01*
X120640Y900922D01*
X120612Y900145D01*
X120564Y899369D01*
X120498Y898595D01*
X120412Y897822D01*
X120308Y897051D01*
X120185Y896283D01*
X120043Y895519D01*
X119882Y894758D01*
X119703Y894002D01*
X119505Y893250D01*
X119289Y892503D01*
X119054Y891761D01*
X118802Y891026D01*
X118532Y890297D01*
X118243Y889574D01*
X117938Y888860D01*
X117614Y888152D01*
X117274Y887453D01*
X116917Y886763D01*
X116543Y886081D01*
X116152Y885409D01*
X115745Y884746D01*
X115321Y884094D01*
X114882Y883452D01*
X114428Y882821D01*
X113958Y882202D01*
X113473Y881594D01*
X112973Y880998D01*
X112459Y880415D01*
X111931Y879845D01*
X111388Y879287D01*
X110833Y878743D01*
X110264Y878213D01*
X109682Y877697D01*
X109088Y877195D01*
X108482Y876708D01*
X107864Y876236D01*
X107235Y875779D01*
X106595Y875338D01*
X105944Y874913D01*
X105283Y874503D01*
X104612Y874110D01*
X103932Y873734D01*
X103242Y873374D01*
X102544Y873031D01*
X101838Y872706D01*
X101124Y872398D01*
X100403Y872107D01*
X99675Y871834D01*
X98940Y871579D01*
X98200Y871342D01*
X97453Y871124D01*
X96702Y870924D01*
X95946Y870742D01*
X95186Y870578D01*
X94422Y870434D01*
X93654Y870308D01*
X92884Y870201D01*
X92112Y870113D01*
X91337Y870044D01*
X90561Y869993D01*
X89784Y869962D01*
X89007Y869950D01*
X88229Y869957D01*
X87452Y869983D01*
X86676Y870028D01*
X85901Y870092D01*
X85128Y870175D01*
X84357Y870277D01*
X83589Y870397D01*
X82824Y870537D01*
X82063Y870695D01*
X81305Y870872D01*
X80553Y871067D01*
X79805Y871281D01*
X79063Y871512D01*
X78326Y871762D01*
X77597Y872030D01*
X76873Y872316D01*
X76157Y872619D01*
X75449Y872940D01*
X74749Y873278D01*
X74057Y873633D01*
X73374Y874005D01*
X72701Y874394D01*
X72037Y874798D01*
X71383Y875219D01*
X70740Y875656D01*
X70107Y876109D01*
X69486Y876577D01*
X68877Y877060D01*
X68280Y877557D01*
X67695Y878070D01*
X67122Y878596D01*
X66563Y879136D01*
X66017Y879690D01*
X65485Y880257D01*
X64967Y880837D01*
X64463Y881429D01*
X63974Y882034D01*
X63500Y882650D01*
D10*
X63500Y901700D02*
X63508Y902323D01*
X63531Y902946D01*
X63569Y903569D01*
X63622Y904190D01*
X63691Y904809D01*
X63775Y905427D01*
X63874Y906042D01*
X63988Y906655D01*
X64117Y907265D01*
X64261Y907872D01*
X64420Y908475D01*
X64594Y909073D01*
X64782Y909668D01*
X64985Y910257D01*
X65202Y910841D01*
X65433Y911420D01*
X65679Y911993D01*
X65939Y912560D01*
X66212Y913120D01*
X66499Y913673D01*
X66800Y914220D01*
X67114Y914758D01*
X67441Y915289D01*
X67781Y915811D01*
X68133Y916326D01*
X68499Y916831D01*
X68876Y917327D01*
X69266Y917814D01*
X69667Y918291D01*
X70080Y918758D01*
X70504Y919214D01*
X70939Y919661D01*
X71386Y920096D01*
X71842Y920520D01*
X72309Y920933D01*
X72786Y921334D01*
X73273Y921724D01*
X73769Y922101D01*
X74274Y922467D01*
X74789Y922819D01*
X75311Y923159D01*
X75842Y923486D01*
X76380Y923800D01*
X76927Y924101D01*
X77480Y924388D01*
X78040Y924661D01*
X78607Y924921D01*
X79180Y925167D01*
X79759Y925398D01*
X80343Y925615D01*
X80932Y925818D01*
X81527Y926006D01*
X82125Y926180D01*
X82728Y926339D01*
X83335Y926483D01*
X83945Y926612D01*
X84558Y926726D01*
X85173Y926825D01*
X85791Y926909D01*
X86410Y926978D01*
X87031Y927031D01*
X87654Y927069D01*
X88277Y927092D01*
X88900Y927100D01*
X89523Y927092D01*
X90146Y927069D01*
X90769Y927031D01*
X91390Y926978D01*
X92009Y926909D01*
X92627Y926825D01*
X93242Y926726D01*
X93855Y926612D01*
X94465Y926483D01*
X95072Y926339D01*
X95675Y926180D01*
X96273Y926006D01*
X96868Y925818D01*
X97457Y925615D01*
X98041Y925398D01*
X98620Y925167D01*
X99193Y924921D01*
X99760Y924661D01*
X100320Y924388D01*
X100873Y924101D01*
X101420Y923800D01*
X101958Y923486D01*
X102489Y923159D01*
X103011Y922819D01*
X103526Y922467D01*
X104031Y922101D01*
X104527Y921724D01*
X105014Y921334D01*
X105491Y920933D01*
X105958Y920520D01*
X106414Y920096D01*
X106861Y919661D01*
X107296Y919214D01*
X107720Y918758D01*
X108133Y918291D01*
X108534Y917814D01*
X108924Y917327D01*
X109301Y916831D01*
X109667Y916326D01*
X110019Y915811D01*
X110359Y915289D01*
X110686Y914758D01*
X111000Y914220D01*
X111301Y913673D01*
X111588Y913120D01*
X111861Y912560D01*
X112121Y911993D01*
X112367Y911420D01*
X112598Y910841D01*
X112815Y910257D01*
X113018Y909668D01*
X113206Y909073D01*
X113380Y908475D01*
X113539Y907872D01*
X113683Y907265D01*
X113812Y906655D01*
X113926Y906042D01*
X114025Y905427D01*
X114109Y904809D01*
X114178Y904190D01*
X114231Y903569D01*
X114269Y902946D01*
X114292Y902323D01*
X114300Y901700D01*
X114292Y901077D01*
X114269Y900454D01*
X114231Y899831D01*
X114178Y899210D01*
X114109Y898591D01*
X114025Y897973D01*
X113926Y897358D01*
X113812Y896745D01*
X113683Y896135D01*
X113539Y895528D01*
X113380Y894925D01*
X113206Y894327D01*
X113018Y893732D01*
X112815Y893143D01*
X112598Y892559D01*
X112367Y891980D01*
X112121Y891407D01*
X111861Y890840D01*
X111588Y890280D01*
X111301Y889727D01*
X111000Y889180D01*
X110686Y888642D01*
X110359Y888111D01*
X110019Y887589D01*
X109667Y887074D01*
X109301Y886569D01*
X108924Y886073D01*
X108534Y885586D01*
X108133Y885109D01*
X107720Y884642D01*
X107296Y884186D01*
X106861Y883739D01*
X106414Y883304D01*
X105958Y882880D01*
X105491Y882467D01*
X105014Y882066D01*
X104527Y881676D01*
X104031Y881299D01*
X103526Y880933D01*
X103011Y880581D01*
X102489Y880241D01*
X101958Y879914D01*
X101420Y879600D01*
X100873Y879299D01*
X100320Y879012D01*
X99760Y878739D01*
X99193Y878479D01*
X98620Y878233D01*
X98041Y878002D01*
X97457Y877785D01*
X96868Y877582D01*
X96273Y877394D01*
X95675Y877220D01*
X95072Y877061D01*
X94465Y876917D01*
X93855Y876788D01*
X93242Y876674D01*
X92627Y876575D01*
X92009Y876491D01*
X91390Y876422D01*
X90769Y876369D01*
X90146Y876331D01*
X89523Y876308D01*
X88900Y876300D01*
X88277Y876308D01*
X87654Y876331D01*
X87031Y876369D01*
X86410Y876422D01*
X85791Y876491D01*
X85173Y876575D01*
X84558Y876674D01*
X83945Y876788D01*
X83335Y876917D01*
X82728Y877061D01*
X82125Y877220D01*
X81527Y877394D01*
X80932Y877582D01*
X80343Y877785D01*
X79759Y878002D01*
X79180Y878233D01*
X78607Y878479D01*
X78040Y878739D01*
X77480Y879012D01*
X76927Y879299D01*
X76380Y879600D01*
X75842Y879914D01*
X75311Y880241D01*
X74789Y880581D01*
X74274Y880933D01*
X73769Y881299D01*
X73273Y881676D01*
X72786Y882066D01*
X72309Y882467D01*
X71842Y882880D01*
X71386Y883304D01*
X70939Y883739D01*
X70504Y884186D01*
X70080Y884642D01*
X69667Y885109D01*
X69266Y885586D01*
X68876Y886073D01*
X68499Y886569D01*
X68133Y887074D01*
X67781Y887589D01*
X67441Y888111D01*
X67114Y888642D01*
X66800Y889180D01*
X66499Y889727D01*
X66212Y890280D01*
X65939Y890840D01*
X65679Y891407D01*
X65433Y891980D01*
X65202Y892559D01*
X64985Y893143D01*
X64782Y893732D01*
X64594Y894327D01*
X64420Y894925D01*
X64261Y895528D01*
X64117Y896135D01*
X63988Y896745D01*
X63874Y897358D01*
X63775Y897973D01*
X63691Y898591D01*
X63622Y899210D01*
X63569Y899831D01*
X63531Y900454D01*
X63508Y901077D01*
X63500Y901700D01*
D21*
X18567Y895731D02*
X18567Y884301D01*
X23647Y884301D01*
X28473Y884301D02*
X33553Y884301D01*
X28473Y884301D02*
X28473Y895731D01*
X33553Y895731D01*
X32283Y890651D02*
X28473Y890651D01*
X38354Y895731D02*
X38354Y884301D01*
X38354Y895731D02*
X41529Y895731D01*
X41640Y895729D01*
X41750Y895723D01*
X41861Y895714D01*
X41971Y895700D01*
X42080Y895683D01*
X42189Y895662D01*
X42297Y895637D01*
X42404Y895608D01*
X42510Y895576D01*
X42615Y895540D01*
X42718Y895500D01*
X42820Y895457D01*
X42921Y895410D01*
X43020Y895359D01*
X43117Y895306D01*
X43211Y895249D01*
X43304Y895188D01*
X43395Y895125D01*
X43484Y895058D01*
X43570Y894988D01*
X43653Y894915D01*
X43735Y894840D01*
X43813Y894762D01*
X43888Y894680D01*
X43961Y894597D01*
X44031Y894511D01*
X44098Y894422D01*
X44161Y894331D01*
X44222Y894238D01*
X44279Y894144D01*
X44332Y894047D01*
X44383Y893948D01*
X44430Y893847D01*
X44473Y893745D01*
X44513Y893642D01*
X44549Y893537D01*
X44581Y893431D01*
X44610Y893324D01*
X44635Y893216D01*
X44656Y893107D01*
X44673Y892998D01*
X44687Y892888D01*
X44696Y892777D01*
X44702Y892667D01*
X44704Y892556D01*
X44704Y887476D01*
X44702Y887365D01*
X44696Y887255D01*
X44687Y887144D01*
X44673Y887034D01*
X44656Y886925D01*
X44635Y886816D01*
X44610Y886708D01*
X44581Y886601D01*
X44549Y886495D01*
X44513Y886390D01*
X44473Y886287D01*
X44430Y886185D01*
X44383Y886084D01*
X44332Y885985D01*
X44279Y885889D01*
X44222Y885794D01*
X44161Y885701D01*
X44098Y885610D01*
X44031Y885521D01*
X43961Y885435D01*
X43888Y885352D01*
X43813Y885270D01*
X43735Y885192D01*
X43653Y885117D01*
X43570Y885044D01*
X43484Y884974D01*
X43395Y884907D01*
X43304Y884844D01*
X43211Y884783D01*
X43116Y884726D01*
X43020Y884673D01*
X42921Y884622D01*
X42820Y884575D01*
X42718Y884532D01*
X42615Y884492D01*
X42510Y884456D01*
X42404Y884424D01*
X42297Y884395D01*
X42189Y884370D01*
X42080Y884349D01*
X41971Y884332D01*
X41861Y884318D01*
X41750Y884309D01*
X41640Y884303D01*
X41529Y884301D01*
X38354Y884301D01*
X50165Y893191D02*
X53340Y895731D01*
X53340Y884301D01*
X50165Y884301D02*
X56515Y884301D01*
D23*
X63500Y844550D02*
X63500Y806450D01*
D24*
X63974Y805834D01*
X64463Y805229D01*
X64967Y804637D01*
X65485Y804057D01*
X66017Y803490D01*
X66563Y802936D01*
X67122Y802396D01*
X67695Y801870D01*
X68280Y801357D01*
X68877Y800860D01*
X69486Y800377D01*
X70107Y799909D01*
X70740Y799456D01*
X71383Y799019D01*
X72037Y798598D01*
X72701Y798194D01*
X73374Y797805D01*
X74057Y797433D01*
X74749Y797078D01*
X75449Y796740D01*
X76157Y796419D01*
X76873Y796116D01*
X77597Y795830D01*
X78326Y795562D01*
X79063Y795312D01*
X79805Y795081D01*
X80553Y794867D01*
X81305Y794672D01*
X82063Y794495D01*
X82824Y794337D01*
X83589Y794197D01*
X84357Y794077D01*
X85128Y793975D01*
X85901Y793892D01*
X86676Y793828D01*
X87452Y793783D01*
X88229Y793757D01*
X89007Y793750D01*
X89784Y793762D01*
X90561Y793793D01*
X91337Y793844D01*
X92112Y793913D01*
X92884Y794001D01*
X93654Y794108D01*
X94422Y794234D01*
X95186Y794378D01*
X95946Y794542D01*
X96702Y794724D01*
X97453Y794924D01*
X98200Y795142D01*
X98940Y795379D01*
X99675Y795634D01*
X100403Y795907D01*
X101124Y796198D01*
X101838Y796506D01*
X102544Y796831D01*
X103242Y797174D01*
X103932Y797534D01*
X104612Y797910D01*
X105283Y798303D01*
X105944Y798713D01*
X106595Y799138D01*
X107235Y799579D01*
X107864Y800036D01*
X108482Y800508D01*
X109088Y800995D01*
X109682Y801497D01*
X110264Y802013D01*
X110833Y802543D01*
X111388Y803087D01*
X111931Y803645D01*
X112459Y804215D01*
X112973Y804798D01*
X113473Y805394D01*
X113958Y806002D01*
X114428Y806621D01*
X114882Y807252D01*
X115321Y807894D01*
X115745Y808546D01*
X116152Y809209D01*
X116543Y809881D01*
X116917Y810563D01*
X117274Y811253D01*
X117614Y811952D01*
X117938Y812660D01*
X118243Y813374D01*
X118532Y814097D01*
X118802Y814826D01*
X119054Y815561D01*
X119289Y816303D01*
X119505Y817050D01*
X119703Y817802D01*
X119882Y818558D01*
X120043Y819319D01*
X120185Y820083D01*
X120308Y820851D01*
X120412Y821622D01*
X120498Y822395D01*
X120564Y823169D01*
X120612Y823945D01*
X120640Y824722D01*
X120650Y825500D01*
X120640Y826278D01*
X120612Y827055D01*
X120564Y827831D01*
X120498Y828605D01*
X120412Y829378D01*
X120308Y830149D01*
X120185Y830917D01*
X120043Y831681D01*
X119882Y832442D01*
X119703Y833198D01*
X119505Y833950D01*
X119289Y834697D01*
X119054Y835439D01*
X118802Y836174D01*
X118532Y836903D01*
X118243Y837626D01*
X117938Y838340D01*
X117614Y839048D01*
X117274Y839747D01*
X116917Y840437D01*
X116543Y841119D01*
X116152Y841791D01*
X115745Y842454D01*
X115321Y843106D01*
X114882Y843748D01*
X114428Y844379D01*
X113958Y844998D01*
X113473Y845606D01*
X112973Y846202D01*
X112459Y846785D01*
X111931Y847355D01*
X111388Y847913D01*
X110833Y848457D01*
X110264Y848987D01*
X109682Y849503D01*
X109088Y850005D01*
X108482Y850492D01*
X107864Y850964D01*
X107235Y851421D01*
X106595Y851862D01*
X105944Y852287D01*
X105283Y852697D01*
X104612Y853090D01*
X103932Y853466D01*
X103242Y853826D01*
X102544Y854169D01*
X101838Y854494D01*
X101124Y854802D01*
X100403Y855093D01*
X99675Y855366D01*
X98940Y855621D01*
X98200Y855858D01*
X97453Y856076D01*
X96702Y856276D01*
X95946Y856458D01*
X95186Y856622D01*
X94422Y856766D01*
X93654Y856892D01*
X92884Y856999D01*
X92112Y857087D01*
X91337Y857156D01*
X90561Y857207D01*
X89784Y857238D01*
X89007Y857250D01*
X88229Y857243D01*
X87452Y857217D01*
X86676Y857172D01*
X85901Y857108D01*
X85128Y857025D01*
X84357Y856923D01*
X83589Y856803D01*
X82824Y856663D01*
X82063Y856505D01*
X81305Y856328D01*
X80553Y856133D01*
X79805Y855919D01*
X79063Y855688D01*
X78326Y855438D01*
X77597Y855170D01*
X76873Y854884D01*
X76157Y854581D01*
X75449Y854260D01*
X74749Y853922D01*
X74057Y853567D01*
X73374Y853195D01*
X72701Y852806D01*
X72037Y852402D01*
X71383Y851981D01*
X70740Y851544D01*
X70107Y851091D01*
X69486Y850623D01*
X68877Y850140D01*
X68280Y849643D01*
X67695Y849130D01*
X67122Y848604D01*
X66563Y848064D01*
X66017Y847510D01*
X65485Y846943D01*
X64967Y846363D01*
X64463Y845771D01*
X63974Y845166D01*
X63500Y844550D01*
D10*
X63500Y825500D02*
X63508Y826123D01*
X63531Y826746D01*
X63569Y827369D01*
X63622Y827990D01*
X63691Y828609D01*
X63775Y829227D01*
X63874Y829842D01*
X63988Y830455D01*
X64117Y831065D01*
X64261Y831672D01*
X64420Y832275D01*
X64594Y832873D01*
X64782Y833468D01*
X64985Y834057D01*
X65202Y834641D01*
X65433Y835220D01*
X65679Y835793D01*
X65939Y836360D01*
X66212Y836920D01*
X66499Y837473D01*
X66800Y838020D01*
X67114Y838558D01*
X67441Y839089D01*
X67781Y839611D01*
X68133Y840126D01*
X68499Y840631D01*
X68876Y841127D01*
X69266Y841614D01*
X69667Y842091D01*
X70080Y842558D01*
X70504Y843014D01*
X70939Y843461D01*
X71386Y843896D01*
X71842Y844320D01*
X72309Y844733D01*
X72786Y845134D01*
X73273Y845524D01*
X73769Y845901D01*
X74274Y846267D01*
X74789Y846619D01*
X75311Y846959D01*
X75842Y847286D01*
X76380Y847600D01*
X76927Y847901D01*
X77480Y848188D01*
X78040Y848461D01*
X78607Y848721D01*
X79180Y848967D01*
X79759Y849198D01*
X80343Y849415D01*
X80932Y849618D01*
X81527Y849806D01*
X82125Y849980D01*
X82728Y850139D01*
X83335Y850283D01*
X83945Y850412D01*
X84558Y850526D01*
X85173Y850625D01*
X85791Y850709D01*
X86410Y850778D01*
X87031Y850831D01*
X87654Y850869D01*
X88277Y850892D01*
X88900Y850900D01*
X89523Y850892D01*
X90146Y850869D01*
X90769Y850831D01*
X91390Y850778D01*
X92009Y850709D01*
X92627Y850625D01*
X93242Y850526D01*
X93855Y850412D01*
X94465Y850283D01*
X95072Y850139D01*
X95675Y849980D01*
X96273Y849806D01*
X96868Y849618D01*
X97457Y849415D01*
X98041Y849198D01*
X98620Y848967D01*
X99193Y848721D01*
X99760Y848461D01*
X100320Y848188D01*
X100873Y847901D01*
X101420Y847600D01*
X101958Y847286D01*
X102489Y846959D01*
X103011Y846619D01*
X103526Y846267D01*
X104031Y845901D01*
X104527Y845524D01*
X105014Y845134D01*
X105491Y844733D01*
X105958Y844320D01*
X106414Y843896D01*
X106861Y843461D01*
X107296Y843014D01*
X107720Y842558D01*
X108133Y842091D01*
X108534Y841614D01*
X108924Y841127D01*
X109301Y840631D01*
X109667Y840126D01*
X110019Y839611D01*
X110359Y839089D01*
X110686Y838558D01*
X111000Y838020D01*
X111301Y837473D01*
X111588Y836920D01*
X111861Y836360D01*
X112121Y835793D01*
X112367Y835220D01*
X112598Y834641D01*
X112815Y834057D01*
X113018Y833468D01*
X113206Y832873D01*
X113380Y832275D01*
X113539Y831672D01*
X113683Y831065D01*
X113812Y830455D01*
X113926Y829842D01*
X114025Y829227D01*
X114109Y828609D01*
X114178Y827990D01*
X114231Y827369D01*
X114269Y826746D01*
X114292Y826123D01*
X114300Y825500D01*
X114292Y824877D01*
X114269Y824254D01*
X114231Y823631D01*
X114178Y823010D01*
X114109Y822391D01*
X114025Y821773D01*
X113926Y821158D01*
X113812Y820545D01*
X113683Y819935D01*
X113539Y819328D01*
X113380Y818725D01*
X113206Y818127D01*
X113018Y817532D01*
X112815Y816943D01*
X112598Y816359D01*
X112367Y815780D01*
X112121Y815207D01*
X111861Y814640D01*
X111588Y814080D01*
X111301Y813527D01*
X111000Y812980D01*
X110686Y812442D01*
X110359Y811911D01*
X110019Y811389D01*
X109667Y810874D01*
X109301Y810369D01*
X108924Y809873D01*
X108534Y809386D01*
X108133Y808909D01*
X107720Y808442D01*
X107296Y807986D01*
X106861Y807539D01*
X106414Y807104D01*
X105958Y806680D01*
X105491Y806267D01*
X105014Y805866D01*
X104527Y805476D01*
X104031Y805099D01*
X103526Y804733D01*
X103011Y804381D01*
X102489Y804041D01*
X101958Y803714D01*
X101420Y803400D01*
X100873Y803099D01*
X100320Y802812D01*
X99760Y802539D01*
X99193Y802279D01*
X98620Y802033D01*
X98041Y801802D01*
X97457Y801585D01*
X96868Y801382D01*
X96273Y801194D01*
X95675Y801020D01*
X95072Y800861D01*
X94465Y800717D01*
X93855Y800588D01*
X93242Y800474D01*
X92627Y800375D01*
X92009Y800291D01*
X91390Y800222D01*
X90769Y800169D01*
X90146Y800131D01*
X89523Y800108D01*
X88900Y800100D01*
X88277Y800108D01*
X87654Y800131D01*
X87031Y800169D01*
X86410Y800222D01*
X85791Y800291D01*
X85173Y800375D01*
X84558Y800474D01*
X83945Y800588D01*
X83335Y800717D01*
X82728Y800861D01*
X82125Y801020D01*
X81527Y801194D01*
X80932Y801382D01*
X80343Y801585D01*
X79759Y801802D01*
X79180Y802033D01*
X78607Y802279D01*
X78040Y802539D01*
X77480Y802812D01*
X76927Y803099D01*
X76380Y803400D01*
X75842Y803714D01*
X75311Y804041D01*
X74789Y804381D01*
X74274Y804733D01*
X73769Y805099D01*
X73273Y805476D01*
X72786Y805866D01*
X72309Y806267D01*
X71842Y806680D01*
X71386Y807104D01*
X70939Y807539D01*
X70504Y807986D01*
X70080Y808442D01*
X69667Y808909D01*
X69266Y809386D01*
X68876Y809873D01*
X68499Y810369D01*
X68133Y810874D01*
X67781Y811389D01*
X67441Y811911D01*
X67114Y812442D01*
X66800Y812980D01*
X66499Y813527D01*
X66212Y814080D01*
X65939Y814640D01*
X65679Y815207D01*
X65433Y815780D01*
X65202Y816359D01*
X64985Y816943D01*
X64782Y817532D01*
X64594Y818127D01*
X64420Y818725D01*
X64261Y819328D01*
X64117Y819935D01*
X63988Y820545D01*
X63874Y821158D01*
X63775Y821773D01*
X63691Y822391D01*
X63622Y823010D01*
X63569Y823631D01*
X63531Y824254D01*
X63508Y824877D01*
X63500Y825500D01*
D21*
X18567Y819531D02*
X18567Y808101D01*
X23647Y808101D01*
X28473Y808101D02*
X33553Y808101D01*
X28473Y808101D02*
X28473Y819531D01*
X33553Y819531D01*
X32283Y814451D02*
X28473Y814451D01*
X38354Y819531D02*
X38354Y808101D01*
X38354Y819531D02*
X41529Y819531D01*
X41640Y819529D01*
X41750Y819523D01*
X41861Y819514D01*
X41971Y819500D01*
X42080Y819483D01*
X42189Y819462D01*
X42297Y819437D01*
X42404Y819408D01*
X42510Y819376D01*
X42615Y819340D01*
X42718Y819300D01*
X42820Y819257D01*
X42921Y819210D01*
X43020Y819159D01*
X43117Y819106D01*
X43211Y819049D01*
X43304Y818988D01*
X43395Y818925D01*
X43484Y818858D01*
X43570Y818788D01*
X43653Y818715D01*
X43735Y818640D01*
X43813Y818562D01*
X43888Y818480D01*
X43961Y818397D01*
X44031Y818311D01*
X44098Y818222D01*
X44161Y818131D01*
X44222Y818038D01*
X44279Y817944D01*
X44332Y817847D01*
X44383Y817748D01*
X44430Y817647D01*
X44473Y817545D01*
X44513Y817442D01*
X44549Y817337D01*
X44581Y817231D01*
X44610Y817124D01*
X44635Y817016D01*
X44656Y816907D01*
X44673Y816798D01*
X44687Y816688D01*
X44696Y816577D01*
X44702Y816467D01*
X44704Y816356D01*
X44704Y811276D01*
X44702Y811165D01*
X44696Y811055D01*
X44687Y810944D01*
X44673Y810834D01*
X44656Y810725D01*
X44635Y810616D01*
X44610Y810508D01*
X44581Y810401D01*
X44549Y810295D01*
X44513Y810190D01*
X44473Y810087D01*
X44430Y809985D01*
X44383Y809884D01*
X44332Y809785D01*
X44279Y809689D01*
X44222Y809594D01*
X44161Y809501D01*
X44098Y809410D01*
X44031Y809321D01*
X43961Y809235D01*
X43888Y809152D01*
X43813Y809070D01*
X43735Y808992D01*
X43653Y808917D01*
X43570Y808844D01*
X43484Y808774D01*
X43395Y808707D01*
X43304Y808644D01*
X43211Y808583D01*
X43116Y808526D01*
X43020Y808473D01*
X42921Y808422D01*
X42820Y808375D01*
X42718Y808332D01*
X42615Y808292D01*
X42510Y808256D01*
X42404Y808224D01*
X42297Y808195D01*
X42189Y808170D01*
X42080Y808149D01*
X41971Y808132D01*
X41861Y808118D01*
X41750Y808109D01*
X41640Y808103D01*
X41529Y808101D01*
X38354Y808101D01*
X53658Y819532D02*
X53762Y819530D01*
X53867Y819524D01*
X53971Y819515D01*
X54074Y819502D01*
X54177Y819484D01*
X54279Y819464D01*
X54381Y819439D01*
X54481Y819411D01*
X54581Y819379D01*
X54679Y819343D01*
X54776Y819304D01*
X54871Y819262D01*
X54965Y819216D01*
X55057Y819166D01*
X55147Y819114D01*
X55235Y819058D01*
X55321Y818998D01*
X55405Y818936D01*
X55486Y818871D01*
X55565Y818803D01*
X55642Y818731D01*
X55715Y818658D01*
X55787Y818581D01*
X55855Y818502D01*
X55920Y818421D01*
X55982Y818337D01*
X56042Y818251D01*
X56098Y818163D01*
X56150Y818073D01*
X56200Y817981D01*
X56246Y817887D01*
X56288Y817792D01*
X56327Y817695D01*
X56363Y817597D01*
X56395Y817497D01*
X56423Y817397D01*
X56448Y817295D01*
X56468Y817193D01*
X56486Y817090D01*
X56499Y816987D01*
X56508Y816883D01*
X56514Y816778D01*
X56516Y816674D01*
X53658Y819531D02*
X53540Y819529D01*
X53421Y819523D01*
X53303Y819514D01*
X53186Y819501D01*
X53069Y819483D01*
X52952Y819463D01*
X52836Y819438D01*
X52721Y819410D01*
X52608Y819377D01*
X52495Y819342D01*
X52383Y819302D01*
X52273Y819260D01*
X52164Y819213D01*
X52056Y819163D01*
X51951Y819110D01*
X51847Y819053D01*
X51745Y818993D01*
X51645Y818930D01*
X51547Y818863D01*
X51451Y818794D01*
X51358Y818721D01*
X51267Y818645D01*
X51178Y818567D01*
X51092Y818485D01*
X51009Y818401D01*
X50928Y818315D01*
X50851Y818225D01*
X50776Y818134D01*
X50704Y818040D01*
X50635Y817943D01*
X50570Y817845D01*
X50507Y817744D01*
X50448Y817641D01*
X50392Y817537D01*
X50340Y817431D01*
X50291Y817323D01*
X50246Y817214D01*
X50204Y817103D01*
X50166Y816991D01*
X55563Y814452D02*
X55639Y814527D01*
X55714Y814606D01*
X55785Y814687D01*
X55854Y814771D01*
X55919Y814857D01*
X55981Y814945D01*
X56041Y815035D01*
X56097Y815127D01*
X56150Y815222D01*
X56199Y815318D01*
X56245Y815416D01*
X56288Y815515D01*
X56327Y815616D01*
X56362Y815718D01*
X56394Y815821D01*
X56422Y815925D01*
X56447Y816030D01*
X56468Y816137D01*
X56485Y816243D01*
X56498Y816350D01*
X56507Y816458D01*
X56513Y816566D01*
X56515Y816674D01*
X55563Y814451D02*
X50165Y808101D01*
X56515Y808101D01*
D10*
X184150Y910590D02*
X184152Y910690D01*
X184158Y910789D01*
X184168Y910889D01*
X184181Y910987D01*
X184199Y911086D01*
X184220Y911183D01*
X184245Y911279D01*
X184274Y911375D01*
X184307Y911469D01*
X184343Y911562D01*
X184383Y911653D01*
X184427Y911743D01*
X184474Y911831D01*
X184524Y911917D01*
X184578Y912001D01*
X184635Y912083D01*
X184695Y912162D01*
X184759Y912240D01*
X184825Y912314D01*
X184894Y912386D01*
X184966Y912455D01*
X185040Y912521D01*
X185118Y912585D01*
X185197Y912645D01*
X185279Y912702D01*
X185363Y912756D01*
X185449Y912806D01*
X185537Y912853D01*
X185627Y912897D01*
X185718Y912937D01*
X185811Y912973D01*
X185905Y913006D01*
X186001Y913035D01*
X186097Y913060D01*
X186194Y913081D01*
X186293Y913099D01*
X186391Y913112D01*
X186491Y913122D01*
X186590Y913128D01*
X186690Y913130D01*
X184150Y892810D02*
X184152Y892710D01*
X184158Y892611D01*
X184168Y892511D01*
X184181Y892413D01*
X184199Y892314D01*
X184220Y892217D01*
X184245Y892121D01*
X184274Y892025D01*
X184307Y891931D01*
X184343Y891838D01*
X184383Y891747D01*
X184427Y891657D01*
X184474Y891569D01*
X184524Y891483D01*
X184578Y891399D01*
X184635Y891317D01*
X184695Y891238D01*
X184759Y891160D01*
X184825Y891086D01*
X184894Y891014D01*
X184966Y890945D01*
X185040Y890879D01*
X185118Y890815D01*
X185197Y890755D01*
X185279Y890698D01*
X185363Y890644D01*
X185449Y890594D01*
X185537Y890547D01*
X185627Y890503D01*
X185718Y890463D01*
X185811Y890427D01*
X185905Y890394D01*
X186001Y890365D01*
X186097Y890340D01*
X186194Y890319D01*
X186293Y890301D01*
X186391Y890288D01*
X186491Y890278D01*
X186590Y890272D01*
X186690Y890270D01*
X245110Y890270D02*
X245210Y890272D01*
X245309Y890278D01*
X245409Y890288D01*
X245507Y890301D01*
X245606Y890319D01*
X245703Y890340D01*
X245799Y890365D01*
X245895Y890394D01*
X245989Y890427D01*
X246082Y890463D01*
X246173Y890503D01*
X246263Y890547D01*
X246351Y890594D01*
X246437Y890644D01*
X246521Y890698D01*
X246603Y890755D01*
X246682Y890815D01*
X246760Y890879D01*
X246834Y890945D01*
X246906Y891014D01*
X246975Y891086D01*
X247041Y891160D01*
X247105Y891238D01*
X247165Y891317D01*
X247222Y891399D01*
X247276Y891483D01*
X247326Y891569D01*
X247373Y891657D01*
X247417Y891747D01*
X247457Y891838D01*
X247493Y891931D01*
X247526Y892025D01*
X247555Y892121D01*
X247580Y892217D01*
X247601Y892314D01*
X247619Y892413D01*
X247632Y892511D01*
X247642Y892611D01*
X247648Y892710D01*
X247650Y892810D01*
X247650Y910590D02*
X247648Y910690D01*
X247642Y910789D01*
X247632Y910889D01*
X247619Y910987D01*
X247601Y911086D01*
X247580Y911183D01*
X247555Y911279D01*
X247526Y911375D01*
X247493Y911469D01*
X247457Y911562D01*
X247417Y911653D01*
X247373Y911743D01*
X247326Y911831D01*
X247276Y911917D01*
X247222Y912001D01*
X247165Y912083D01*
X247105Y912162D01*
X247041Y912240D01*
X246975Y912314D01*
X246906Y912386D01*
X246834Y912455D01*
X246760Y912521D01*
X246682Y912585D01*
X246603Y912645D01*
X246521Y912702D01*
X246437Y912756D01*
X246351Y912806D01*
X246263Y912853D01*
X246173Y912897D01*
X246082Y912937D01*
X245989Y912973D01*
X245895Y913006D01*
X245799Y913035D01*
X245703Y913060D01*
X245606Y913081D01*
X245507Y913099D01*
X245409Y913112D01*
X245309Y913122D01*
X245210Y913128D01*
X245110Y913130D01*
X184150Y910590D02*
X184150Y892810D01*
X186690Y913130D02*
X190500Y913130D01*
X191770Y911860D01*
X190500Y890270D02*
X186690Y890270D01*
X190500Y890270D02*
X191770Y891540D01*
X240030Y911860D02*
X241300Y913130D01*
X240030Y911860D02*
X191770Y911860D01*
X240030Y891540D02*
X241300Y890270D01*
X240030Y891540D02*
X191770Y891540D01*
X241300Y913130D02*
X245110Y913130D01*
X245110Y890270D02*
X241300Y890270D01*
X247650Y892810D02*
X247650Y910590D01*
D25*
X251968Y901700D03*
X179832Y901700D03*
D21*
X186055Y917575D02*
X186055Y929005D01*
X189230Y929005D01*
X189341Y929003D01*
X189451Y928997D01*
X189562Y928988D01*
X189672Y928974D01*
X189781Y928957D01*
X189890Y928936D01*
X189998Y928911D01*
X190105Y928882D01*
X190211Y928850D01*
X190316Y928814D01*
X190419Y928774D01*
X190521Y928731D01*
X190622Y928684D01*
X190721Y928633D01*
X190818Y928580D01*
X190912Y928523D01*
X191005Y928462D01*
X191096Y928399D01*
X191185Y928332D01*
X191271Y928262D01*
X191354Y928189D01*
X191436Y928114D01*
X191514Y928036D01*
X191589Y927954D01*
X191662Y927871D01*
X191732Y927785D01*
X191799Y927696D01*
X191862Y927605D01*
X191923Y927512D01*
X191980Y927417D01*
X192033Y927321D01*
X192084Y927222D01*
X192131Y927121D01*
X192174Y927019D01*
X192214Y926916D01*
X192250Y926811D01*
X192282Y926705D01*
X192311Y926598D01*
X192336Y926490D01*
X192357Y926381D01*
X192374Y926272D01*
X192388Y926162D01*
X192397Y926051D01*
X192403Y925941D01*
X192405Y925830D01*
X192403Y925719D01*
X192397Y925609D01*
X192388Y925498D01*
X192374Y925388D01*
X192357Y925279D01*
X192336Y925170D01*
X192311Y925062D01*
X192282Y924955D01*
X192250Y924849D01*
X192214Y924744D01*
X192174Y924641D01*
X192131Y924539D01*
X192084Y924438D01*
X192033Y924339D01*
X191980Y924243D01*
X191923Y924148D01*
X191862Y924055D01*
X191799Y923964D01*
X191732Y923875D01*
X191662Y923789D01*
X191589Y923706D01*
X191514Y923624D01*
X191436Y923546D01*
X191354Y923471D01*
X191271Y923398D01*
X191185Y923328D01*
X191096Y923261D01*
X191005Y923198D01*
X190912Y923137D01*
X190817Y923080D01*
X190721Y923027D01*
X190622Y922976D01*
X190521Y922929D01*
X190419Y922886D01*
X190316Y922846D01*
X190211Y922810D01*
X190105Y922778D01*
X189998Y922749D01*
X189890Y922724D01*
X189781Y922703D01*
X189672Y922686D01*
X189562Y922672D01*
X189451Y922663D01*
X189341Y922657D01*
X189230Y922655D01*
X186055Y922655D01*
X189865Y922655D02*
X192405Y917575D01*
X197402Y926465D02*
X200577Y929005D01*
X200577Y917575D01*
X197402Y917575D02*
X203752Y917575D01*
D10*
X186690Y836930D02*
X186590Y836928D01*
X186491Y836922D01*
X186391Y836912D01*
X186293Y836899D01*
X186194Y836881D01*
X186097Y836860D01*
X186001Y836835D01*
X185905Y836806D01*
X185811Y836773D01*
X185718Y836737D01*
X185627Y836697D01*
X185537Y836653D01*
X185449Y836606D01*
X185363Y836556D01*
X185279Y836502D01*
X185197Y836445D01*
X185118Y836385D01*
X185040Y836321D01*
X184966Y836255D01*
X184894Y836186D01*
X184825Y836114D01*
X184759Y836040D01*
X184695Y835962D01*
X184635Y835883D01*
X184578Y835801D01*
X184524Y835717D01*
X184474Y835631D01*
X184427Y835543D01*
X184383Y835453D01*
X184343Y835362D01*
X184307Y835269D01*
X184274Y835175D01*
X184245Y835079D01*
X184220Y834983D01*
X184199Y834886D01*
X184181Y834787D01*
X184168Y834689D01*
X184158Y834589D01*
X184152Y834490D01*
X184150Y834390D01*
X184150Y816610D02*
X184152Y816510D01*
X184158Y816411D01*
X184168Y816311D01*
X184181Y816213D01*
X184199Y816114D01*
X184220Y816017D01*
X184245Y815921D01*
X184274Y815825D01*
X184307Y815731D01*
X184343Y815638D01*
X184383Y815547D01*
X184427Y815457D01*
X184474Y815369D01*
X184524Y815283D01*
X184578Y815199D01*
X184635Y815117D01*
X184695Y815038D01*
X184759Y814960D01*
X184825Y814886D01*
X184894Y814814D01*
X184966Y814745D01*
X185040Y814679D01*
X185118Y814615D01*
X185197Y814555D01*
X185279Y814498D01*
X185363Y814444D01*
X185449Y814394D01*
X185537Y814347D01*
X185627Y814303D01*
X185718Y814263D01*
X185811Y814227D01*
X185905Y814194D01*
X186001Y814165D01*
X186097Y814140D01*
X186194Y814119D01*
X186293Y814101D01*
X186391Y814088D01*
X186491Y814078D01*
X186590Y814072D01*
X186690Y814070D01*
X245110Y814070D02*
X245210Y814072D01*
X245309Y814078D01*
X245409Y814088D01*
X245507Y814101D01*
X245606Y814119D01*
X245703Y814140D01*
X245799Y814165D01*
X245895Y814194D01*
X245989Y814227D01*
X246082Y814263D01*
X246173Y814303D01*
X246263Y814347D01*
X246351Y814394D01*
X246437Y814444D01*
X246521Y814498D01*
X246603Y814555D01*
X246682Y814615D01*
X246760Y814679D01*
X246834Y814745D01*
X246906Y814814D01*
X246975Y814886D01*
X247041Y814960D01*
X247105Y815038D01*
X247165Y815117D01*
X247222Y815199D01*
X247276Y815283D01*
X247326Y815369D01*
X247373Y815457D01*
X247417Y815547D01*
X247457Y815638D01*
X247493Y815731D01*
X247526Y815825D01*
X247555Y815921D01*
X247580Y816017D01*
X247601Y816114D01*
X247619Y816213D01*
X247632Y816311D01*
X247642Y816411D01*
X247648Y816510D01*
X247650Y816610D01*
X247650Y834390D02*
X247648Y834490D01*
X247642Y834589D01*
X247632Y834689D01*
X247619Y834787D01*
X247601Y834886D01*
X247580Y834983D01*
X247555Y835079D01*
X247526Y835175D01*
X247493Y835269D01*
X247457Y835362D01*
X247417Y835453D01*
X247373Y835543D01*
X247326Y835631D01*
X247276Y835717D01*
X247222Y835801D01*
X247165Y835883D01*
X247105Y835962D01*
X247041Y836040D01*
X246975Y836114D01*
X246906Y836186D01*
X246834Y836255D01*
X246760Y836321D01*
X246682Y836385D01*
X246603Y836445D01*
X246521Y836502D01*
X246437Y836556D01*
X246351Y836606D01*
X246263Y836653D01*
X246173Y836697D01*
X246082Y836737D01*
X245989Y836773D01*
X245895Y836806D01*
X245799Y836835D01*
X245703Y836860D01*
X245606Y836881D01*
X245507Y836899D01*
X245409Y836912D01*
X245309Y836922D01*
X245210Y836928D01*
X245110Y836930D01*
X184150Y834390D02*
X184150Y816610D01*
X186690Y836930D02*
X190500Y836930D01*
X191770Y835660D01*
X190500Y814070D02*
X186690Y814070D01*
X190500Y814070D02*
X191770Y815340D01*
X240030Y835660D02*
X241300Y836930D01*
X240030Y835660D02*
X191770Y835660D01*
X240030Y815340D02*
X241300Y814070D01*
X240030Y815340D02*
X191770Y815340D01*
X241300Y836930D02*
X245110Y836930D01*
X245110Y814070D02*
X241300Y814070D01*
X247650Y816610D02*
X247650Y834390D01*
D25*
X251968Y825500D03*
X179832Y825500D03*
D21*
X186055Y841375D02*
X186055Y852805D01*
X189230Y852805D01*
X189341Y852803D01*
X189451Y852797D01*
X189562Y852788D01*
X189672Y852774D01*
X189781Y852757D01*
X189890Y852736D01*
X189998Y852711D01*
X190105Y852682D01*
X190211Y852650D01*
X190316Y852614D01*
X190419Y852574D01*
X190521Y852531D01*
X190622Y852484D01*
X190721Y852433D01*
X190818Y852380D01*
X190912Y852323D01*
X191005Y852262D01*
X191096Y852199D01*
X191185Y852132D01*
X191271Y852062D01*
X191354Y851989D01*
X191436Y851914D01*
X191514Y851836D01*
X191589Y851754D01*
X191662Y851671D01*
X191732Y851585D01*
X191799Y851496D01*
X191862Y851405D01*
X191923Y851312D01*
X191980Y851217D01*
X192033Y851121D01*
X192084Y851022D01*
X192131Y850921D01*
X192174Y850819D01*
X192214Y850716D01*
X192250Y850611D01*
X192282Y850505D01*
X192311Y850398D01*
X192336Y850290D01*
X192357Y850181D01*
X192374Y850072D01*
X192388Y849962D01*
X192397Y849851D01*
X192403Y849741D01*
X192405Y849630D01*
X192403Y849519D01*
X192397Y849409D01*
X192388Y849298D01*
X192374Y849188D01*
X192357Y849079D01*
X192336Y848970D01*
X192311Y848862D01*
X192282Y848755D01*
X192250Y848649D01*
X192214Y848544D01*
X192174Y848441D01*
X192131Y848339D01*
X192084Y848238D01*
X192033Y848139D01*
X191980Y848043D01*
X191923Y847948D01*
X191862Y847855D01*
X191799Y847764D01*
X191732Y847675D01*
X191662Y847589D01*
X191589Y847506D01*
X191514Y847424D01*
X191436Y847346D01*
X191354Y847271D01*
X191271Y847198D01*
X191185Y847128D01*
X191096Y847061D01*
X191005Y846998D01*
X190912Y846937D01*
X190817Y846880D01*
X190721Y846827D01*
X190622Y846776D01*
X190521Y846729D01*
X190419Y846686D01*
X190316Y846646D01*
X190211Y846610D01*
X190105Y846578D01*
X189998Y846549D01*
X189890Y846524D01*
X189781Y846503D01*
X189672Y846486D01*
X189562Y846472D01*
X189451Y846463D01*
X189341Y846457D01*
X189230Y846455D01*
X186055Y846455D01*
X189865Y846455D02*
X192405Y841375D01*
X203753Y849948D02*
X203751Y850052D01*
X203745Y850157D01*
X203736Y850261D01*
X203723Y850364D01*
X203705Y850467D01*
X203685Y850569D01*
X203660Y850671D01*
X203632Y850771D01*
X203600Y850871D01*
X203564Y850969D01*
X203525Y851066D01*
X203483Y851161D01*
X203437Y851255D01*
X203387Y851347D01*
X203335Y851437D01*
X203279Y851525D01*
X203219Y851611D01*
X203157Y851695D01*
X203092Y851776D01*
X203024Y851855D01*
X202952Y851932D01*
X202879Y852005D01*
X202802Y852077D01*
X202723Y852145D01*
X202642Y852210D01*
X202558Y852272D01*
X202472Y852332D01*
X202384Y852388D01*
X202294Y852440D01*
X202202Y852490D01*
X202108Y852536D01*
X202013Y852578D01*
X201916Y852617D01*
X201818Y852653D01*
X201718Y852685D01*
X201618Y852713D01*
X201516Y852738D01*
X201414Y852758D01*
X201311Y852776D01*
X201208Y852789D01*
X201104Y852798D01*
X200999Y852804D01*
X200895Y852806D01*
X200895Y852805D02*
X200777Y852803D01*
X200658Y852797D01*
X200540Y852788D01*
X200423Y852775D01*
X200306Y852757D01*
X200189Y852737D01*
X200073Y852712D01*
X199958Y852684D01*
X199845Y852651D01*
X199732Y852616D01*
X199620Y852576D01*
X199510Y852534D01*
X199401Y852487D01*
X199293Y852437D01*
X199188Y852384D01*
X199084Y852327D01*
X198982Y852267D01*
X198882Y852204D01*
X198784Y852137D01*
X198688Y852068D01*
X198595Y851995D01*
X198504Y851919D01*
X198415Y851841D01*
X198329Y851759D01*
X198246Y851675D01*
X198165Y851589D01*
X198088Y851499D01*
X198013Y851408D01*
X197941Y851314D01*
X197872Y851217D01*
X197807Y851119D01*
X197744Y851018D01*
X197685Y850915D01*
X197629Y850811D01*
X197577Y850705D01*
X197528Y850597D01*
X197483Y850488D01*
X197441Y850377D01*
X197403Y850265D01*
X202800Y847726D02*
X202876Y847801D01*
X202951Y847880D01*
X203022Y847961D01*
X203091Y848045D01*
X203156Y848131D01*
X203218Y848219D01*
X203278Y848309D01*
X203334Y848401D01*
X203387Y848496D01*
X203436Y848592D01*
X203482Y848690D01*
X203525Y848789D01*
X203564Y848890D01*
X203599Y848992D01*
X203631Y849095D01*
X203659Y849199D01*
X203684Y849304D01*
X203705Y849411D01*
X203722Y849517D01*
X203735Y849624D01*
X203744Y849732D01*
X203750Y849840D01*
X203752Y849948D01*
X202800Y847725D02*
X197402Y841375D01*
X203752Y841375D01*
D10*
X631190Y163830D02*
X631090Y163828D01*
X630991Y163822D01*
X630891Y163812D01*
X630793Y163799D01*
X630694Y163781D01*
X630597Y163760D01*
X630501Y163735D01*
X630405Y163706D01*
X630311Y163673D01*
X630218Y163637D01*
X630127Y163597D01*
X630037Y163553D01*
X629949Y163506D01*
X629863Y163456D01*
X629779Y163402D01*
X629697Y163345D01*
X629618Y163285D01*
X629540Y163221D01*
X629466Y163155D01*
X629394Y163086D01*
X629325Y163014D01*
X629259Y162940D01*
X629195Y162862D01*
X629135Y162783D01*
X629078Y162701D01*
X629024Y162617D01*
X628974Y162531D01*
X628927Y162443D01*
X628883Y162353D01*
X628843Y162262D01*
X628807Y162169D01*
X628774Y162075D01*
X628745Y161979D01*
X628720Y161883D01*
X628699Y161786D01*
X628681Y161687D01*
X628668Y161589D01*
X628658Y161489D01*
X628652Y161390D01*
X628650Y161290D01*
X628650Y143510D02*
X628652Y143410D01*
X628658Y143311D01*
X628668Y143211D01*
X628681Y143113D01*
X628699Y143014D01*
X628720Y142917D01*
X628745Y142821D01*
X628774Y142725D01*
X628807Y142631D01*
X628843Y142538D01*
X628883Y142447D01*
X628927Y142357D01*
X628974Y142269D01*
X629024Y142183D01*
X629078Y142099D01*
X629135Y142017D01*
X629195Y141938D01*
X629259Y141860D01*
X629325Y141786D01*
X629394Y141714D01*
X629466Y141645D01*
X629540Y141579D01*
X629618Y141515D01*
X629697Y141455D01*
X629779Y141398D01*
X629863Y141344D01*
X629949Y141294D01*
X630037Y141247D01*
X630127Y141203D01*
X630218Y141163D01*
X630311Y141127D01*
X630405Y141094D01*
X630501Y141065D01*
X630597Y141040D01*
X630694Y141019D01*
X630793Y141001D01*
X630891Y140988D01*
X630991Y140978D01*
X631090Y140972D01*
X631190Y140970D01*
X689610Y140970D02*
X689710Y140972D01*
X689809Y140978D01*
X689909Y140988D01*
X690007Y141001D01*
X690106Y141019D01*
X690203Y141040D01*
X690299Y141065D01*
X690395Y141094D01*
X690489Y141127D01*
X690582Y141163D01*
X690673Y141203D01*
X690763Y141247D01*
X690851Y141294D01*
X690937Y141344D01*
X691021Y141398D01*
X691103Y141455D01*
X691182Y141515D01*
X691260Y141579D01*
X691334Y141645D01*
X691406Y141714D01*
X691475Y141786D01*
X691541Y141860D01*
X691605Y141938D01*
X691665Y142017D01*
X691722Y142099D01*
X691776Y142183D01*
X691826Y142269D01*
X691873Y142357D01*
X691917Y142447D01*
X691957Y142538D01*
X691993Y142631D01*
X692026Y142725D01*
X692055Y142821D01*
X692080Y142917D01*
X692101Y143014D01*
X692119Y143113D01*
X692132Y143211D01*
X692142Y143311D01*
X692148Y143410D01*
X692150Y143510D01*
X692150Y161290D02*
X692148Y161390D01*
X692142Y161489D01*
X692132Y161589D01*
X692119Y161687D01*
X692101Y161786D01*
X692080Y161883D01*
X692055Y161979D01*
X692026Y162075D01*
X691993Y162169D01*
X691957Y162262D01*
X691917Y162353D01*
X691873Y162443D01*
X691826Y162531D01*
X691776Y162617D01*
X691722Y162701D01*
X691665Y162783D01*
X691605Y162862D01*
X691541Y162940D01*
X691475Y163014D01*
X691406Y163086D01*
X691334Y163155D01*
X691260Y163221D01*
X691182Y163285D01*
X691103Y163345D01*
X691021Y163402D01*
X690937Y163456D01*
X690851Y163506D01*
X690763Y163553D01*
X690673Y163597D01*
X690582Y163637D01*
X690489Y163673D01*
X690395Y163706D01*
X690299Y163735D01*
X690203Y163760D01*
X690106Y163781D01*
X690007Y163799D01*
X689909Y163812D01*
X689809Y163822D01*
X689710Y163828D01*
X689610Y163830D01*
X628650Y161290D02*
X628650Y143510D01*
X631190Y163830D02*
X635000Y163830D01*
X636270Y162560D01*
X635000Y140970D02*
X631190Y140970D01*
X635000Y140970D02*
X636270Y142240D01*
X684530Y162560D02*
X685800Y163830D01*
X684530Y162560D02*
X636270Y162560D01*
X684530Y142240D02*
X685800Y140970D01*
X684530Y142240D02*
X636270Y142240D01*
X685800Y163830D02*
X689610Y163830D01*
X689610Y140970D02*
X685800Y140970D01*
X692150Y143510D02*
X692150Y161290D01*
D25*
X696468Y152400D03*
X624332Y152400D03*
D21*
X630555Y168275D02*
X630555Y179705D01*
X633730Y179705D01*
X633841Y179703D01*
X633951Y179697D01*
X634062Y179688D01*
X634172Y179674D01*
X634281Y179657D01*
X634390Y179636D01*
X634498Y179611D01*
X634605Y179582D01*
X634711Y179550D01*
X634816Y179514D01*
X634919Y179474D01*
X635021Y179431D01*
X635122Y179384D01*
X635221Y179333D01*
X635318Y179280D01*
X635412Y179223D01*
X635505Y179162D01*
X635596Y179099D01*
X635685Y179032D01*
X635771Y178962D01*
X635854Y178889D01*
X635936Y178814D01*
X636014Y178736D01*
X636089Y178654D01*
X636162Y178571D01*
X636232Y178485D01*
X636299Y178396D01*
X636362Y178305D01*
X636423Y178212D01*
X636480Y178117D01*
X636533Y178021D01*
X636584Y177922D01*
X636631Y177821D01*
X636674Y177719D01*
X636714Y177616D01*
X636750Y177511D01*
X636782Y177405D01*
X636811Y177298D01*
X636836Y177190D01*
X636857Y177081D01*
X636874Y176972D01*
X636888Y176862D01*
X636897Y176751D01*
X636903Y176641D01*
X636905Y176530D01*
X636903Y176419D01*
X636897Y176309D01*
X636888Y176198D01*
X636874Y176088D01*
X636857Y175979D01*
X636836Y175870D01*
X636811Y175762D01*
X636782Y175655D01*
X636750Y175549D01*
X636714Y175444D01*
X636674Y175341D01*
X636631Y175239D01*
X636584Y175138D01*
X636533Y175039D01*
X636480Y174942D01*
X636423Y174848D01*
X636362Y174755D01*
X636299Y174664D01*
X636232Y174575D01*
X636162Y174489D01*
X636089Y174406D01*
X636014Y174324D01*
X635936Y174246D01*
X635854Y174171D01*
X635771Y174098D01*
X635685Y174028D01*
X635596Y173961D01*
X635505Y173898D01*
X635412Y173837D01*
X635318Y173780D01*
X635221Y173727D01*
X635122Y173676D01*
X635021Y173629D01*
X634919Y173586D01*
X634816Y173546D01*
X634711Y173510D01*
X634605Y173478D01*
X634498Y173449D01*
X634390Y173424D01*
X634281Y173403D01*
X634172Y173386D01*
X634062Y173372D01*
X633951Y173363D01*
X633841Y173357D01*
X633730Y173355D01*
X630555Y173355D01*
X634365Y173355D02*
X636905Y168275D01*
X641902Y168275D02*
X645077Y168275D01*
X645188Y168277D01*
X645298Y168283D01*
X645409Y168292D01*
X645519Y168306D01*
X645628Y168323D01*
X645737Y168344D01*
X645845Y168369D01*
X645952Y168398D01*
X646058Y168430D01*
X646163Y168466D01*
X646266Y168506D01*
X646368Y168549D01*
X646469Y168596D01*
X646568Y168647D01*
X646665Y168700D01*
X646759Y168757D01*
X646852Y168818D01*
X646943Y168881D01*
X647032Y168948D01*
X647118Y169018D01*
X647201Y169091D01*
X647283Y169166D01*
X647361Y169244D01*
X647436Y169326D01*
X647509Y169409D01*
X647579Y169495D01*
X647646Y169584D01*
X647709Y169675D01*
X647770Y169768D01*
X647827Y169862D01*
X647880Y169959D01*
X647931Y170058D01*
X647978Y170159D01*
X648021Y170261D01*
X648061Y170364D01*
X648097Y170469D01*
X648129Y170575D01*
X648158Y170682D01*
X648183Y170790D01*
X648204Y170899D01*
X648221Y171008D01*
X648235Y171118D01*
X648244Y171229D01*
X648250Y171339D01*
X648252Y171450D01*
X648250Y171561D01*
X648244Y171671D01*
X648235Y171782D01*
X648221Y171892D01*
X648204Y172001D01*
X648183Y172110D01*
X648158Y172218D01*
X648129Y172325D01*
X648097Y172431D01*
X648061Y172536D01*
X648021Y172639D01*
X647978Y172741D01*
X647931Y172842D01*
X647880Y172941D01*
X647827Y173037D01*
X647770Y173132D01*
X647709Y173225D01*
X647646Y173316D01*
X647579Y173405D01*
X647509Y173491D01*
X647436Y173574D01*
X647361Y173656D01*
X647283Y173734D01*
X647201Y173809D01*
X647118Y173882D01*
X647032Y173952D01*
X646943Y174019D01*
X646852Y174082D01*
X646759Y174143D01*
X646665Y174200D01*
X646568Y174253D01*
X646469Y174304D01*
X646368Y174351D01*
X646266Y174394D01*
X646163Y174434D01*
X646058Y174470D01*
X645952Y174502D01*
X645845Y174531D01*
X645737Y174556D01*
X645628Y174577D01*
X645519Y174594D01*
X645409Y174608D01*
X645298Y174617D01*
X645188Y174623D01*
X645077Y174625D01*
X645712Y179705D02*
X641902Y179705D01*
X645712Y179705D02*
X645812Y179703D01*
X645911Y179697D01*
X646011Y179687D01*
X646109Y179674D01*
X646208Y179656D01*
X646305Y179635D01*
X646401Y179610D01*
X646497Y179581D01*
X646591Y179548D01*
X646684Y179512D01*
X646775Y179472D01*
X646865Y179428D01*
X646953Y179381D01*
X647039Y179331D01*
X647123Y179277D01*
X647205Y179220D01*
X647284Y179160D01*
X647362Y179096D01*
X647436Y179030D01*
X647508Y178961D01*
X647577Y178889D01*
X647643Y178815D01*
X647707Y178737D01*
X647767Y178658D01*
X647824Y178576D01*
X647878Y178492D01*
X647928Y178406D01*
X647975Y178318D01*
X648019Y178228D01*
X648059Y178137D01*
X648095Y178044D01*
X648128Y177950D01*
X648157Y177854D01*
X648182Y177758D01*
X648203Y177661D01*
X648221Y177562D01*
X648234Y177464D01*
X648244Y177364D01*
X648250Y177265D01*
X648252Y177165D01*
X648250Y177065D01*
X648244Y176966D01*
X648234Y176866D01*
X648221Y176768D01*
X648203Y176669D01*
X648182Y176572D01*
X648157Y176476D01*
X648128Y176380D01*
X648095Y176286D01*
X648059Y176193D01*
X648019Y176102D01*
X647975Y176012D01*
X647928Y175924D01*
X647878Y175838D01*
X647824Y175754D01*
X647767Y175672D01*
X647707Y175593D01*
X647643Y175515D01*
X647577Y175441D01*
X647508Y175369D01*
X647436Y175300D01*
X647362Y175234D01*
X647284Y175170D01*
X647205Y175110D01*
X647123Y175053D01*
X647039Y174999D01*
X646953Y174949D01*
X646865Y174902D01*
X646775Y174858D01*
X646684Y174818D01*
X646591Y174782D01*
X646497Y174749D01*
X646401Y174720D01*
X646305Y174695D01*
X646208Y174674D01*
X646109Y174656D01*
X646011Y174643D01*
X645911Y174633D01*
X645812Y174627D01*
X645712Y174625D01*
X643172Y174625D01*
D10*
X375920Y495300D02*
X335280Y495300D01*
X335280Y596900D02*
X375920Y596900D01*
X335280Y596900D02*
X335280Y565150D01*
X335280Y527050D01*
X335280Y495300D01*
X375920Y495300D02*
X375920Y596900D01*
X347980Y565150D02*
X347980Y527050D01*
X347980Y565150D02*
X363220Y565150D01*
X363220Y527050D01*
X347980Y527050D01*
X341630Y565150D02*
X335280Y565150D01*
X341630Y565150D02*
X341630Y527050D01*
X335280Y527050D01*
D26*
X355600Y536575D03*
D21*
X339725Y601345D02*
X339825Y601347D01*
X339924Y601353D01*
X340024Y601363D01*
X340122Y601376D01*
X340221Y601394D01*
X340318Y601415D01*
X340414Y601440D01*
X340510Y601469D01*
X340604Y601502D01*
X340697Y601538D01*
X340788Y601578D01*
X340878Y601622D01*
X340966Y601669D01*
X341052Y601719D01*
X341136Y601773D01*
X341218Y601830D01*
X341297Y601890D01*
X341375Y601954D01*
X341449Y602020D01*
X341521Y602089D01*
X341590Y602161D01*
X341656Y602235D01*
X341720Y602313D01*
X341780Y602392D01*
X341837Y602474D01*
X341891Y602558D01*
X341941Y602644D01*
X341988Y602732D01*
X342032Y602822D01*
X342072Y602913D01*
X342108Y603006D01*
X342141Y603100D01*
X342170Y603196D01*
X342195Y603292D01*
X342216Y603389D01*
X342234Y603488D01*
X342247Y603586D01*
X342257Y603686D01*
X342263Y603785D01*
X342265Y603885D01*
X339725Y601345D02*
X339584Y601347D01*
X339443Y601352D01*
X339302Y601362D01*
X339161Y601375D01*
X339021Y601391D01*
X338881Y601412D01*
X338742Y601436D01*
X338603Y601464D01*
X338466Y601495D01*
X338329Y601530D01*
X338193Y601568D01*
X338058Y601610D01*
X337925Y601656D01*
X337792Y601705D01*
X337661Y601758D01*
X337532Y601814D01*
X337403Y601873D01*
X337277Y601936D01*
X337152Y602002D01*
X337029Y602071D01*
X336908Y602144D01*
X336789Y602220D01*
X336671Y602299D01*
X336556Y602380D01*
X336444Y602465D01*
X336333Y602553D01*
X336225Y602644D01*
X336119Y602737D01*
X336016Y602834D01*
X335915Y602933D01*
X336233Y610235D02*
X336235Y610335D01*
X336241Y610434D01*
X336251Y610534D01*
X336264Y610632D01*
X336282Y610731D01*
X336303Y610828D01*
X336328Y610924D01*
X336357Y611020D01*
X336390Y611114D01*
X336426Y611207D01*
X336466Y611298D01*
X336510Y611388D01*
X336557Y611476D01*
X336607Y611562D01*
X336661Y611646D01*
X336718Y611728D01*
X336778Y611807D01*
X336842Y611885D01*
X336908Y611959D01*
X336977Y612031D01*
X337049Y612100D01*
X337123Y612166D01*
X337201Y612230D01*
X337280Y612290D01*
X337362Y612347D01*
X337446Y612401D01*
X337532Y612451D01*
X337620Y612498D01*
X337710Y612542D01*
X337801Y612582D01*
X337894Y612618D01*
X337988Y612651D01*
X338084Y612680D01*
X338180Y612705D01*
X338277Y612726D01*
X338376Y612744D01*
X338474Y612757D01*
X338574Y612767D01*
X338673Y612773D01*
X338773Y612775D01*
X338773Y612776D02*
X338906Y612774D01*
X339039Y612769D01*
X339172Y612759D01*
X339305Y612746D01*
X339437Y612729D01*
X339569Y612709D01*
X339700Y612685D01*
X339830Y612657D01*
X339960Y612626D01*
X340088Y612591D01*
X340216Y612552D01*
X340342Y612510D01*
X340467Y612464D01*
X340591Y612415D01*
X340714Y612363D01*
X340835Y612307D01*
X340954Y612247D01*
X341072Y612185D01*
X341187Y612119D01*
X341301Y612050D01*
X341413Y611977D01*
X341523Y611902D01*
X341631Y611823D01*
X337502Y608012D02*
X337418Y608064D01*
X337335Y608119D01*
X337255Y608178D01*
X337177Y608239D01*
X337102Y608303D01*
X337029Y608371D01*
X336958Y608441D01*
X336891Y608513D01*
X336826Y608588D01*
X336764Y608666D01*
X336705Y608746D01*
X336649Y608828D01*
X336597Y608912D01*
X336548Y608998D01*
X336502Y609086D01*
X336459Y609176D01*
X336420Y609267D01*
X336385Y609360D01*
X336353Y609454D01*
X336325Y609549D01*
X336300Y609645D01*
X336280Y609742D01*
X336262Y609840D01*
X336249Y609938D01*
X336240Y610037D01*
X336234Y610136D01*
X336232Y610235D01*
X340995Y606108D02*
X341079Y606056D01*
X341162Y606001D01*
X341242Y605942D01*
X341320Y605881D01*
X341395Y605817D01*
X341468Y605749D01*
X341539Y605679D01*
X341606Y605607D01*
X341671Y605532D01*
X341733Y605454D01*
X341792Y605374D01*
X341848Y605292D01*
X341900Y605208D01*
X341949Y605122D01*
X341995Y605034D01*
X342038Y604944D01*
X342077Y604853D01*
X342112Y604760D01*
X342144Y604666D01*
X342172Y604571D01*
X342197Y604475D01*
X342217Y604378D01*
X342235Y604280D01*
X342248Y604182D01*
X342257Y604083D01*
X342263Y603984D01*
X342265Y603885D01*
X340995Y606108D02*
X337503Y608013D01*
X350457Y612776D02*
X350561Y612774D01*
X350666Y612768D01*
X350770Y612759D01*
X350873Y612746D01*
X350976Y612728D01*
X351078Y612708D01*
X351180Y612683D01*
X351280Y612655D01*
X351380Y612623D01*
X351478Y612587D01*
X351575Y612548D01*
X351670Y612506D01*
X351764Y612460D01*
X351856Y612410D01*
X351946Y612358D01*
X352034Y612302D01*
X352120Y612242D01*
X352204Y612180D01*
X352285Y612115D01*
X352364Y612047D01*
X352441Y611975D01*
X352514Y611902D01*
X352586Y611825D01*
X352654Y611746D01*
X352719Y611665D01*
X352781Y611581D01*
X352841Y611495D01*
X352897Y611407D01*
X352949Y611317D01*
X352999Y611225D01*
X353045Y611131D01*
X353087Y611036D01*
X353126Y610939D01*
X353162Y610841D01*
X353194Y610741D01*
X353222Y610641D01*
X353247Y610539D01*
X353267Y610437D01*
X353285Y610334D01*
X353298Y610231D01*
X353307Y610127D01*
X353313Y610022D01*
X353315Y609918D01*
X350457Y612775D02*
X350339Y612773D01*
X350220Y612767D01*
X350102Y612758D01*
X349985Y612745D01*
X349868Y612727D01*
X349751Y612707D01*
X349635Y612682D01*
X349520Y612654D01*
X349407Y612621D01*
X349294Y612586D01*
X349182Y612546D01*
X349072Y612504D01*
X348963Y612457D01*
X348855Y612407D01*
X348750Y612354D01*
X348646Y612297D01*
X348544Y612237D01*
X348444Y612174D01*
X348346Y612107D01*
X348250Y612038D01*
X348157Y611965D01*
X348066Y611889D01*
X347977Y611811D01*
X347891Y611729D01*
X347808Y611645D01*
X347727Y611559D01*
X347650Y611469D01*
X347575Y611378D01*
X347503Y611284D01*
X347434Y611187D01*
X347369Y611089D01*
X347306Y610988D01*
X347247Y610885D01*
X347191Y610781D01*
X347139Y610675D01*
X347090Y610567D01*
X347045Y610458D01*
X347003Y610347D01*
X346965Y610235D01*
X352362Y607696D02*
X352438Y607771D01*
X352513Y607850D01*
X352584Y607931D01*
X352653Y608015D01*
X352718Y608101D01*
X352780Y608189D01*
X352840Y608279D01*
X352896Y608371D01*
X352949Y608466D01*
X352998Y608562D01*
X353044Y608660D01*
X353087Y608759D01*
X353126Y608860D01*
X353161Y608962D01*
X353193Y609065D01*
X353221Y609169D01*
X353246Y609274D01*
X353267Y609381D01*
X353284Y609487D01*
X353297Y609594D01*
X353306Y609702D01*
X353312Y609810D01*
X353314Y609918D01*
X352362Y607695D02*
X346964Y601345D01*
X353314Y601345D01*
X291800Y267200D02*
X61800Y267200D01*
X291800Y267200D02*
X291800Y647200D01*
X61800Y647200D01*
X61800Y267200D01*
D27*
X169608Y417708D02*
X181292Y417708D01*
X174801Y417708D02*
X174801Y424199D01*
X169608Y424199D02*
X181292Y424199D01*
X181292Y429923D02*
X169608Y429923D01*
X181292Y429923D02*
X181292Y435115D01*
X181292Y439975D02*
X169608Y439975D01*
X169608Y446466D02*
X176748Y439975D01*
X174152Y442572D02*
X181292Y446466D01*
X176748Y450968D02*
X176748Y458757D01*
X181292Y463809D02*
X181292Y467704D01*
X181290Y467803D01*
X181284Y467903D01*
X181275Y468002D01*
X181262Y468100D01*
X181245Y468198D01*
X181224Y468296D01*
X181199Y468392D01*
X181171Y468487D01*
X181139Y468581D01*
X181104Y468674D01*
X181065Y468766D01*
X181022Y468856D01*
X180977Y468944D01*
X180927Y469031D01*
X180875Y469115D01*
X180819Y469198D01*
X180761Y469278D01*
X180699Y469356D01*
X180634Y469431D01*
X180566Y469504D01*
X180496Y469574D01*
X180423Y469642D01*
X180348Y469707D01*
X180270Y469769D01*
X180190Y469827D01*
X180107Y469883D01*
X180023Y469935D01*
X179936Y469985D01*
X179848Y470030D01*
X179758Y470073D01*
X179666Y470112D01*
X179573Y470147D01*
X179479Y470179D01*
X179384Y470207D01*
X179288Y470232D01*
X179190Y470253D01*
X179092Y470270D01*
X178994Y470283D01*
X178895Y470292D01*
X178795Y470298D01*
X178696Y470300D01*
X177397Y470300D01*
X177298Y470298D01*
X177198Y470292D01*
X177099Y470283D01*
X177001Y470270D01*
X176903Y470253D01*
X176805Y470232D01*
X176709Y470207D01*
X176614Y470179D01*
X176520Y470147D01*
X176427Y470112D01*
X176335Y470073D01*
X176245Y470030D01*
X176157Y469985D01*
X176070Y469935D01*
X175986Y469883D01*
X175903Y469827D01*
X175823Y469769D01*
X175745Y469707D01*
X175670Y469642D01*
X175597Y469574D01*
X175527Y469504D01*
X175459Y469431D01*
X175394Y469356D01*
X175332Y469278D01*
X175274Y469198D01*
X175218Y469115D01*
X175166Y469031D01*
X175116Y468944D01*
X175071Y468856D01*
X175028Y468766D01*
X174989Y468674D01*
X174954Y468581D01*
X174922Y468487D01*
X174894Y468392D01*
X174869Y468296D01*
X174848Y468198D01*
X174831Y468100D01*
X174818Y468002D01*
X174809Y467903D01*
X174803Y467803D01*
X174801Y467704D01*
X174801Y463809D01*
X169608Y463809D01*
X169608Y470300D01*
X169608Y475733D02*
X181292Y475733D01*
X176099Y479627D02*
X169608Y475733D01*
X176099Y479627D02*
X169608Y483522D01*
X181292Y483522D01*
X175450Y488955D02*
X175220Y488958D01*
X174990Y488966D01*
X174761Y488980D01*
X174532Y488999D01*
X174303Y489024D01*
X174075Y489054D01*
X173848Y489089D01*
X173622Y489130D01*
X173397Y489176D01*
X173173Y489228D01*
X172950Y489285D01*
X172729Y489347D01*
X172509Y489415D01*
X172291Y489488D01*
X172075Y489566D01*
X171861Y489649D01*
X171649Y489737D01*
X171438Y489830D01*
X171231Y489929D01*
X171231Y489928D02*
X171141Y489961D01*
X171052Y489997D01*
X170964Y490037D01*
X170879Y490081D01*
X170795Y490128D01*
X170713Y490178D01*
X170633Y490232D01*
X170556Y490288D01*
X170480Y490348D01*
X170407Y490411D01*
X170337Y490476D01*
X170269Y490545D01*
X170205Y490616D01*
X170143Y490689D01*
X170084Y490765D01*
X170028Y490843D01*
X169975Y490924D01*
X169926Y491006D01*
X169880Y491090D01*
X169837Y491177D01*
X169798Y491264D01*
X169762Y491354D01*
X169730Y491444D01*
X169702Y491536D01*
X169677Y491629D01*
X169656Y491723D01*
X169639Y491817D01*
X169625Y491912D01*
X169616Y492008D01*
X169610Y492104D01*
X169608Y492200D01*
X169610Y492296D01*
X169616Y492392D01*
X169625Y492488D01*
X169639Y492583D01*
X169656Y492677D01*
X169677Y492771D01*
X169702Y492864D01*
X169730Y492956D01*
X169762Y493046D01*
X169798Y493136D01*
X169837Y493224D01*
X169880Y493310D01*
X169926Y493394D01*
X169975Y493476D01*
X170028Y493557D01*
X170084Y493635D01*
X170143Y493711D01*
X170205Y493784D01*
X170269Y493855D01*
X170337Y493924D01*
X170407Y493989D01*
X170480Y494052D01*
X170556Y494112D01*
X170633Y494168D01*
X170713Y494222D01*
X170795Y494272D01*
X170879Y494319D01*
X170964Y494363D01*
X171052Y494403D01*
X171141Y494439D01*
X171231Y494472D01*
X171438Y494571D01*
X171649Y494664D01*
X171861Y494752D01*
X172075Y494835D01*
X172291Y494913D01*
X172509Y494986D01*
X172729Y495054D01*
X172950Y495116D01*
X173173Y495173D01*
X173397Y495225D01*
X173622Y495271D01*
X173848Y495312D01*
X174075Y495347D01*
X174303Y495377D01*
X174532Y495402D01*
X174761Y495421D01*
X174990Y495435D01*
X175220Y495443D01*
X175450Y495446D01*
X175450Y488955D02*
X175680Y488958D01*
X175910Y488966D01*
X176139Y488980D01*
X176368Y488999D01*
X176597Y489024D01*
X176825Y489054D01*
X177052Y489089D01*
X177278Y489130D01*
X177503Y489176D01*
X177727Y489228D01*
X177950Y489285D01*
X178171Y489347D01*
X178391Y489415D01*
X178609Y489488D01*
X178825Y489566D01*
X179039Y489649D01*
X179251Y489737D01*
X179462Y489830D01*
X179669Y489929D01*
X179669Y489928D02*
X179759Y489961D01*
X179848Y489997D01*
X179936Y490038D01*
X180021Y490081D01*
X180105Y490128D01*
X180187Y490178D01*
X180267Y490232D01*
X180344Y490288D01*
X180420Y490348D01*
X180493Y490411D01*
X180563Y490476D01*
X180631Y490545D01*
X180695Y490616D01*
X180757Y490689D01*
X180816Y490765D01*
X180872Y490843D01*
X180925Y490924D01*
X180974Y491006D01*
X181020Y491090D01*
X181063Y491177D01*
X181102Y491264D01*
X181138Y491354D01*
X181170Y491444D01*
X181198Y491536D01*
X181223Y491629D01*
X181244Y491723D01*
X181261Y491817D01*
X181275Y491912D01*
X181284Y492008D01*
X181290Y492104D01*
X181292Y492200D01*
X179669Y494472D02*
X179462Y494571D01*
X179251Y494664D01*
X179039Y494752D01*
X178825Y494835D01*
X178609Y494913D01*
X178391Y494986D01*
X178171Y495054D01*
X177950Y495116D01*
X177727Y495173D01*
X177503Y495225D01*
X177278Y495271D01*
X177052Y495312D01*
X176825Y495347D01*
X176597Y495377D01*
X176368Y495402D01*
X176139Y495421D01*
X175910Y495435D01*
X175680Y495443D01*
X175450Y495446D01*
X179669Y494472D02*
X179759Y494439D01*
X179848Y494403D01*
X179936Y494363D01*
X180021Y494319D01*
X180105Y494272D01*
X180187Y494222D01*
X180267Y494168D01*
X180344Y494112D01*
X180420Y494052D01*
X180493Y493989D01*
X180563Y493924D01*
X180631Y493855D01*
X180695Y493784D01*
X180757Y493711D01*
X180816Y493635D01*
X180872Y493557D01*
X180925Y493476D01*
X180974Y493394D01*
X181020Y493310D01*
X181063Y493223D01*
X181102Y493136D01*
X181138Y493046D01*
X181170Y492956D01*
X181198Y492864D01*
X181223Y492771D01*
X181244Y492677D01*
X181261Y492583D01*
X181275Y492488D01*
X181284Y492392D01*
X181290Y492296D01*
X181292Y492200D01*
X178696Y489604D02*
X172204Y494797D01*
X181292Y500385D02*
X181292Y504280D01*
X181290Y504379D01*
X181284Y504479D01*
X181275Y504578D01*
X181262Y504676D01*
X181245Y504774D01*
X181224Y504872D01*
X181199Y504968D01*
X181171Y505063D01*
X181139Y505157D01*
X181104Y505250D01*
X181065Y505342D01*
X181022Y505432D01*
X180977Y505520D01*
X180927Y505607D01*
X180875Y505691D01*
X180819Y505774D01*
X180761Y505854D01*
X180699Y505932D01*
X180634Y506007D01*
X180566Y506080D01*
X180496Y506150D01*
X180423Y506218D01*
X180348Y506283D01*
X180270Y506345D01*
X180190Y506403D01*
X180107Y506459D01*
X180023Y506511D01*
X179936Y506561D01*
X179848Y506606D01*
X179758Y506649D01*
X179666Y506688D01*
X179573Y506723D01*
X179479Y506755D01*
X179384Y506783D01*
X179288Y506808D01*
X179190Y506829D01*
X179092Y506846D01*
X178994Y506859D01*
X178895Y506868D01*
X178795Y506874D01*
X178696Y506876D01*
X177397Y506876D01*
X177298Y506874D01*
X177198Y506868D01*
X177099Y506859D01*
X177001Y506846D01*
X176903Y506829D01*
X176805Y506808D01*
X176709Y506783D01*
X176614Y506755D01*
X176520Y506723D01*
X176427Y506688D01*
X176335Y506649D01*
X176245Y506606D01*
X176157Y506561D01*
X176070Y506511D01*
X175986Y506459D01*
X175903Y506403D01*
X175823Y506345D01*
X175745Y506283D01*
X175670Y506218D01*
X175597Y506150D01*
X175527Y506080D01*
X175459Y506007D01*
X175394Y505932D01*
X175332Y505854D01*
X175274Y505774D01*
X175218Y505691D01*
X175166Y505607D01*
X175116Y505520D01*
X175071Y505432D01*
X175028Y505342D01*
X174989Y505250D01*
X174954Y505157D01*
X174922Y505063D01*
X174894Y504968D01*
X174869Y504872D01*
X174848Y504774D01*
X174831Y504676D01*
X174818Y504578D01*
X174809Y504479D01*
X174803Y504379D01*
X174801Y504280D01*
X174801Y500385D01*
X169608Y500385D01*
X169608Y506876D01*
D28*
X142021Y320192D02*
X144109Y317581D01*
X142021Y320192D02*
X151419Y320192D01*
X151419Y322802D02*
X151419Y317581D01*
X151419Y331080D02*
X142021Y334212D01*
X151419Y337345D01*
X149070Y336562D02*
X149070Y331863D01*
X151419Y342808D02*
X151419Y344897D01*
X151419Y342808D02*
X151417Y342719D01*
X151411Y342631D01*
X151402Y342543D01*
X151389Y342455D01*
X151372Y342368D01*
X151352Y342282D01*
X151327Y342197D01*
X151300Y342112D01*
X151268Y342029D01*
X151234Y341948D01*
X151195Y341868D01*
X151154Y341790D01*
X151109Y341713D01*
X151061Y341639D01*
X151010Y341566D01*
X150956Y341496D01*
X150898Y341429D01*
X150838Y341363D01*
X150776Y341301D01*
X150710Y341241D01*
X150643Y341183D01*
X150573Y341129D01*
X150500Y341078D01*
X150426Y341030D01*
X150349Y340985D01*
X150271Y340944D01*
X150191Y340905D01*
X150110Y340871D01*
X150027Y340839D01*
X149942Y340812D01*
X149857Y340787D01*
X149771Y340767D01*
X149684Y340750D01*
X149596Y340737D01*
X149508Y340728D01*
X149420Y340722D01*
X149331Y340720D01*
X144109Y340720D01*
X144109Y340719D02*
X144018Y340721D01*
X143927Y340727D01*
X143836Y340737D01*
X143746Y340751D01*
X143657Y340769D01*
X143568Y340790D01*
X143481Y340816D01*
X143395Y340845D01*
X143310Y340878D01*
X143226Y340915D01*
X143144Y340955D01*
X143065Y340999D01*
X142987Y341046D01*
X142911Y341097D01*
X142837Y341151D01*
X142766Y341208D01*
X142698Y341268D01*
X142632Y341331D01*
X142569Y341397D01*
X142509Y341465D01*
X142452Y341536D01*
X142398Y341610D01*
X142347Y341686D01*
X142300Y341763D01*
X142256Y341843D01*
X142216Y341925D01*
X142179Y342009D01*
X142146Y342093D01*
X142117Y342180D01*
X142091Y342267D01*
X142070Y342356D01*
X142052Y342445D01*
X142038Y342535D01*
X142028Y342626D01*
X142022Y342717D01*
X142020Y342808D01*
X142021Y342808D02*
X142021Y344897D01*
X202021Y320453D02*
X202023Y320548D01*
X202029Y320642D01*
X202038Y320736D01*
X202051Y320830D01*
X202068Y320923D01*
X202089Y321015D01*
X202114Y321107D01*
X202142Y321197D01*
X202174Y321286D01*
X202209Y321374D01*
X202248Y321460D01*
X202290Y321545D01*
X202336Y321628D01*
X202385Y321709D01*
X202437Y321788D01*
X202492Y321865D01*
X202551Y321939D01*
X202612Y322011D01*
X202676Y322081D01*
X202743Y322148D01*
X202813Y322212D01*
X202885Y322273D01*
X202959Y322332D01*
X203036Y322387D01*
X203115Y322439D01*
X203196Y322488D01*
X203279Y322534D01*
X203364Y322576D01*
X203450Y322615D01*
X203538Y322650D01*
X203627Y322682D01*
X203717Y322710D01*
X203809Y322735D01*
X203901Y322756D01*
X203994Y322773D01*
X204088Y322786D01*
X204182Y322795D01*
X204276Y322801D01*
X204371Y322803D01*
X202021Y320453D02*
X202023Y320345D01*
X202029Y320236D01*
X202039Y320128D01*
X202052Y320021D01*
X202070Y319914D01*
X202091Y319807D01*
X202116Y319702D01*
X202145Y319597D01*
X202177Y319494D01*
X202214Y319392D01*
X202254Y319291D01*
X202297Y319192D01*
X202344Y319094D01*
X202395Y318998D01*
X202449Y318904D01*
X202506Y318812D01*
X202567Y318722D01*
X202631Y318634D01*
X202697Y318549D01*
X202767Y318466D01*
X202840Y318386D01*
X202916Y318308D01*
X202994Y318233D01*
X203075Y318161D01*
X203159Y318092D01*
X203245Y318026D01*
X203333Y317963D01*
X203424Y317904D01*
X203516Y317847D01*
X203611Y317794D01*
X203708Y317745D01*
X203806Y317699D01*
X203905Y317656D01*
X204007Y317617D01*
X204109Y317582D01*
X206199Y322020D02*
X206130Y322089D01*
X206059Y322155D01*
X205986Y322219D01*
X205910Y322280D01*
X205831Y322338D01*
X205751Y322392D01*
X205668Y322444D01*
X205584Y322492D01*
X205498Y322538D01*
X205410Y322579D01*
X205320Y322618D01*
X205229Y322653D01*
X205137Y322684D01*
X205044Y322712D01*
X204950Y322736D01*
X204855Y322756D01*
X204759Y322773D01*
X204662Y322786D01*
X204565Y322795D01*
X204468Y322801D01*
X204371Y322803D01*
X206198Y322019D02*
X211419Y317581D01*
X211419Y322802D01*
X211419Y331080D02*
X202021Y334212D01*
X211419Y337345D01*
X209070Y336562D02*
X209070Y331863D01*
X211419Y342808D02*
X211419Y344897D01*
X211419Y342808D02*
X211417Y342719D01*
X211411Y342631D01*
X211402Y342543D01*
X211389Y342455D01*
X211372Y342368D01*
X211352Y342282D01*
X211327Y342197D01*
X211300Y342112D01*
X211268Y342029D01*
X211234Y341948D01*
X211195Y341868D01*
X211154Y341790D01*
X211109Y341713D01*
X211061Y341639D01*
X211010Y341566D01*
X210956Y341496D01*
X210898Y341429D01*
X210838Y341363D01*
X210776Y341301D01*
X210710Y341241D01*
X210643Y341183D01*
X210573Y341129D01*
X210500Y341078D01*
X210426Y341030D01*
X210349Y340985D01*
X210271Y340944D01*
X210191Y340905D01*
X210110Y340871D01*
X210027Y340839D01*
X209942Y340812D01*
X209857Y340787D01*
X209771Y340767D01*
X209684Y340750D01*
X209596Y340737D01*
X209508Y340728D01*
X209420Y340722D01*
X209331Y340720D01*
X204109Y340720D01*
X204109Y340719D02*
X204018Y340721D01*
X203927Y340727D01*
X203836Y340737D01*
X203746Y340751D01*
X203657Y340769D01*
X203568Y340790D01*
X203481Y340816D01*
X203395Y340845D01*
X203310Y340878D01*
X203226Y340915D01*
X203144Y340955D01*
X203065Y340999D01*
X202987Y341046D01*
X202911Y341097D01*
X202837Y341151D01*
X202766Y341208D01*
X202698Y341268D01*
X202632Y341331D01*
X202569Y341397D01*
X202509Y341465D01*
X202452Y341536D01*
X202398Y341610D01*
X202347Y341686D01*
X202300Y341763D01*
X202256Y341843D01*
X202216Y341925D01*
X202179Y342009D01*
X202146Y342093D01*
X202117Y342180D01*
X202091Y342267D01*
X202070Y342356D01*
X202052Y342445D01*
X202038Y342535D01*
X202028Y342626D01*
X202022Y342717D01*
X202020Y342808D01*
X202021Y342808D02*
X202021Y344897D01*
X87764Y567581D02*
X87764Y573846D01*
X82021Y582211D02*
X91419Y585344D01*
X82021Y588477D01*
X87242Y591790D02*
X89331Y591790D01*
X87242Y591790D02*
X87152Y591792D01*
X87063Y591798D01*
X86973Y591807D01*
X86884Y591821D01*
X86796Y591838D01*
X86709Y591859D01*
X86622Y591884D01*
X86537Y591913D01*
X86453Y591945D01*
X86371Y591980D01*
X86290Y592020D01*
X86211Y592062D01*
X86134Y592108D01*
X86059Y592158D01*
X85986Y592210D01*
X85915Y592266D01*
X85847Y592324D01*
X85782Y592386D01*
X85719Y592450D01*
X85659Y592517D01*
X85602Y592586D01*
X85548Y592658D01*
X85497Y592732D01*
X85449Y592808D01*
X85405Y592886D01*
X85364Y592966D01*
X85326Y593048D01*
X85292Y593131D01*
X85262Y593216D01*
X85235Y593302D01*
X85212Y593388D01*
X85193Y593476D01*
X85178Y593565D01*
X85166Y593654D01*
X85158Y593743D01*
X85154Y593833D01*
X85154Y593923D01*
X85158Y594013D01*
X85166Y594102D01*
X85178Y594191D01*
X85193Y594280D01*
X85212Y594368D01*
X85235Y594454D01*
X85262Y594540D01*
X85292Y594625D01*
X85326Y594708D01*
X85364Y594790D01*
X85405Y594870D01*
X85449Y594948D01*
X85497Y595024D01*
X85548Y595098D01*
X85602Y595170D01*
X85659Y595239D01*
X85719Y595306D01*
X85782Y595370D01*
X85847Y595432D01*
X85915Y595490D01*
X85986Y595546D01*
X86059Y595598D01*
X86134Y595648D01*
X86211Y595694D01*
X86290Y595736D01*
X86371Y595776D01*
X86453Y595811D01*
X86537Y595843D01*
X86622Y595872D01*
X86709Y595897D01*
X86796Y595918D01*
X86884Y595935D01*
X86973Y595949D01*
X87063Y595958D01*
X87152Y595964D01*
X87242Y595966D01*
X87242Y595967D02*
X89331Y595967D01*
X89331Y595966D02*
X89421Y595964D01*
X89510Y595958D01*
X89600Y595949D01*
X89689Y595935D01*
X89777Y595918D01*
X89864Y595897D01*
X89951Y595872D01*
X90036Y595843D01*
X90120Y595811D01*
X90202Y595776D01*
X90283Y595736D01*
X90362Y595694D01*
X90439Y595648D01*
X90514Y595598D01*
X90587Y595546D01*
X90658Y595490D01*
X90726Y595432D01*
X90791Y595370D01*
X90854Y595306D01*
X90914Y595239D01*
X90971Y595170D01*
X91025Y595098D01*
X91076Y595024D01*
X91124Y594948D01*
X91168Y594870D01*
X91209Y594790D01*
X91247Y594708D01*
X91281Y594625D01*
X91311Y594540D01*
X91338Y594454D01*
X91361Y594368D01*
X91380Y594280D01*
X91395Y594191D01*
X91407Y594102D01*
X91415Y594013D01*
X91419Y593923D01*
X91419Y593833D01*
X91415Y593743D01*
X91407Y593654D01*
X91395Y593565D01*
X91380Y593476D01*
X91361Y593388D01*
X91338Y593302D01*
X91311Y593216D01*
X91281Y593131D01*
X91247Y593048D01*
X91209Y592966D01*
X91168Y592886D01*
X91124Y592808D01*
X91076Y592732D01*
X91025Y592658D01*
X90971Y592586D01*
X90914Y592517D01*
X90854Y592450D01*
X90791Y592386D01*
X90726Y592324D01*
X90658Y592266D01*
X90587Y592210D01*
X90514Y592158D01*
X90439Y592108D01*
X90362Y592062D01*
X90283Y592020D01*
X90202Y591980D01*
X90120Y591945D01*
X90036Y591913D01*
X89951Y591884D01*
X89864Y591859D01*
X89777Y591838D01*
X89689Y591821D01*
X89600Y591807D01*
X89510Y591798D01*
X89421Y591792D01*
X89331Y591790D01*
X267764Y573846D02*
X267764Y567581D01*
X270897Y570714D02*
X264632Y570714D01*
X262021Y582211D02*
X271419Y585344D01*
X262021Y588477D01*
X267242Y591790D02*
X269331Y591790D01*
X267242Y591790D02*
X267152Y591792D01*
X267063Y591798D01*
X266973Y591807D01*
X266884Y591821D01*
X266796Y591838D01*
X266709Y591859D01*
X266622Y591884D01*
X266537Y591913D01*
X266453Y591945D01*
X266371Y591980D01*
X266290Y592020D01*
X266211Y592062D01*
X266134Y592108D01*
X266059Y592158D01*
X265986Y592210D01*
X265915Y592266D01*
X265847Y592324D01*
X265782Y592386D01*
X265719Y592450D01*
X265659Y592517D01*
X265602Y592586D01*
X265548Y592658D01*
X265497Y592732D01*
X265449Y592808D01*
X265405Y592886D01*
X265364Y592966D01*
X265326Y593048D01*
X265292Y593131D01*
X265262Y593216D01*
X265235Y593302D01*
X265212Y593388D01*
X265193Y593476D01*
X265178Y593565D01*
X265166Y593654D01*
X265158Y593743D01*
X265154Y593833D01*
X265154Y593923D01*
X265158Y594013D01*
X265166Y594102D01*
X265178Y594191D01*
X265193Y594280D01*
X265212Y594368D01*
X265235Y594454D01*
X265262Y594540D01*
X265292Y594625D01*
X265326Y594708D01*
X265364Y594790D01*
X265405Y594870D01*
X265449Y594948D01*
X265497Y595024D01*
X265548Y595098D01*
X265602Y595170D01*
X265659Y595239D01*
X265719Y595306D01*
X265782Y595370D01*
X265847Y595432D01*
X265915Y595490D01*
X265986Y595546D01*
X266059Y595598D01*
X266134Y595648D01*
X266211Y595694D01*
X266290Y595736D01*
X266371Y595776D01*
X266453Y595811D01*
X266537Y595843D01*
X266622Y595872D01*
X266709Y595897D01*
X266796Y595918D01*
X266884Y595935D01*
X266973Y595949D01*
X267063Y595958D01*
X267152Y595964D01*
X267242Y595966D01*
X267242Y595967D02*
X269331Y595967D01*
X269331Y595966D02*
X269421Y595964D01*
X269510Y595958D01*
X269600Y595949D01*
X269689Y595935D01*
X269777Y595918D01*
X269864Y595897D01*
X269951Y595872D01*
X270036Y595843D01*
X270120Y595811D01*
X270202Y595776D01*
X270283Y595736D01*
X270362Y595694D01*
X270439Y595648D01*
X270514Y595598D01*
X270587Y595546D01*
X270658Y595490D01*
X270726Y595432D01*
X270791Y595370D01*
X270854Y595306D01*
X270914Y595239D01*
X270971Y595170D01*
X271025Y595098D01*
X271076Y595024D01*
X271124Y594948D01*
X271168Y594870D01*
X271209Y594790D01*
X271247Y594708D01*
X271281Y594625D01*
X271311Y594540D01*
X271338Y594454D01*
X271361Y594368D01*
X271380Y594280D01*
X271395Y594191D01*
X271407Y594102D01*
X271415Y594013D01*
X271419Y593923D01*
X271419Y593833D01*
X271415Y593743D01*
X271407Y593654D01*
X271395Y593565D01*
X271380Y593476D01*
X271361Y593388D01*
X271338Y593302D01*
X271311Y593216D01*
X271281Y593131D01*
X271247Y593048D01*
X271209Y592966D01*
X271168Y592886D01*
X271124Y592808D01*
X271076Y592732D01*
X271025Y592658D01*
X270971Y592586D01*
X270914Y592517D01*
X270854Y592450D01*
X270791Y592386D01*
X270726Y592324D01*
X270658Y592266D01*
X270587Y592210D01*
X270514Y592158D01*
X270439Y592108D01*
X270362Y592062D01*
X270283Y592020D01*
X270202Y591980D01*
X270120Y591945D01*
X270036Y591913D01*
X269951Y591884D01*
X269864Y591859D01*
X269777Y591838D01*
X269689Y591821D01*
X269600Y591807D01*
X269510Y591798D01*
X269421Y591792D01*
X269331Y591790D01*
D10*
X254000Y-10160D02*
X101600Y-10160D01*
X101600Y13970D01*
X101600Y80010D01*
X101600Y13970D02*
X116840Y13970D01*
X137160Y13970D02*
X167640Y13970D01*
X187960Y13970D02*
X218440Y13970D01*
X238760Y13970D02*
X254000Y13970D01*
X254000Y80010D02*
X101600Y80010D01*
X101600Y82550D01*
X254000Y82550D02*
X254000Y80010D01*
X254000Y82550D02*
X101600Y82550D01*
X254000Y13970D02*
X254000Y-10160D01*
X254000Y13970D02*
X254000Y80010D01*
X121920Y66548D02*
X121922Y66690D01*
X121928Y66833D01*
X121938Y66975D01*
X121952Y67117D01*
X121970Y67258D01*
X121992Y67399D01*
X122018Y67539D01*
X122047Y67678D01*
X122081Y67817D01*
X122119Y67954D01*
X122160Y68091D01*
X122205Y68226D01*
X122254Y68360D01*
X122307Y68492D01*
X122363Y68623D01*
X122423Y68752D01*
X122487Y68880D01*
X122554Y69005D01*
X122625Y69129D01*
X122699Y69251D01*
X122776Y69370D01*
X122857Y69488D01*
X122941Y69603D01*
X123028Y69715D01*
X123119Y69825D01*
X123212Y69933D01*
X123309Y70038D01*
X123408Y70140D01*
X123510Y70239D01*
X123615Y70336D01*
X123723Y70429D01*
X123833Y70520D01*
X123945Y70607D01*
X124060Y70691D01*
X124178Y70772D01*
X124297Y70849D01*
X124419Y70923D01*
X124543Y70994D01*
X124668Y71061D01*
X124796Y71125D01*
X124925Y71185D01*
X125056Y71241D01*
X125188Y71294D01*
X125322Y71343D01*
X125457Y71388D01*
X125594Y71429D01*
X125731Y71467D01*
X125870Y71501D01*
X126009Y71530D01*
X126149Y71556D01*
X126290Y71578D01*
X126431Y71596D01*
X126573Y71610D01*
X126715Y71620D01*
X126858Y71626D01*
X127000Y71628D01*
X127142Y71626D01*
X127285Y71620D01*
X127427Y71610D01*
X127569Y71596D01*
X127710Y71578D01*
X127851Y71556D01*
X127991Y71530D01*
X128130Y71501D01*
X128269Y71467D01*
X128406Y71429D01*
X128543Y71388D01*
X128678Y71343D01*
X128812Y71294D01*
X128944Y71241D01*
X129075Y71185D01*
X129204Y71125D01*
X129332Y71061D01*
X129457Y70994D01*
X129581Y70923D01*
X129703Y70849D01*
X129822Y70772D01*
X129940Y70691D01*
X130055Y70607D01*
X130167Y70520D01*
X130277Y70429D01*
X130385Y70336D01*
X130490Y70239D01*
X130592Y70140D01*
X130691Y70038D01*
X130788Y69933D01*
X130881Y69825D01*
X130972Y69715D01*
X131059Y69603D01*
X131143Y69488D01*
X131224Y69370D01*
X131301Y69251D01*
X131375Y69129D01*
X131446Y69005D01*
X131513Y68880D01*
X131577Y68752D01*
X131637Y68623D01*
X131693Y68492D01*
X131746Y68360D01*
X131795Y68226D01*
X131840Y68091D01*
X131881Y67954D01*
X131919Y67817D01*
X131953Y67678D01*
X131982Y67539D01*
X132008Y67399D01*
X132030Y67258D01*
X132048Y67117D01*
X132062Y66975D01*
X132072Y66833D01*
X132078Y66690D01*
X132080Y66548D01*
X132078Y66406D01*
X132072Y66263D01*
X132062Y66121D01*
X132048Y65979D01*
X132030Y65838D01*
X132008Y65697D01*
X131982Y65557D01*
X131953Y65418D01*
X131919Y65279D01*
X131881Y65142D01*
X131840Y65005D01*
X131795Y64870D01*
X131746Y64736D01*
X131693Y64604D01*
X131637Y64473D01*
X131577Y64344D01*
X131513Y64216D01*
X131446Y64091D01*
X131375Y63967D01*
X131301Y63845D01*
X131224Y63726D01*
X131143Y63608D01*
X131059Y63493D01*
X130972Y63381D01*
X130881Y63271D01*
X130788Y63163D01*
X130691Y63058D01*
X130592Y62956D01*
X130490Y62857D01*
X130385Y62760D01*
X130277Y62667D01*
X130167Y62576D01*
X130055Y62489D01*
X129940Y62405D01*
X129822Y62324D01*
X129703Y62247D01*
X129581Y62173D01*
X129457Y62102D01*
X129332Y62035D01*
X129204Y61971D01*
X129075Y61911D01*
X128944Y61855D01*
X128812Y61802D01*
X128678Y61753D01*
X128543Y61708D01*
X128406Y61667D01*
X128269Y61629D01*
X128130Y61595D01*
X127991Y61566D01*
X127851Y61540D01*
X127710Y61518D01*
X127569Y61500D01*
X127427Y61486D01*
X127285Y61476D01*
X127142Y61470D01*
X127000Y61468D01*
X126858Y61470D01*
X126715Y61476D01*
X126573Y61486D01*
X126431Y61500D01*
X126290Y61518D01*
X126149Y61540D01*
X126009Y61566D01*
X125870Y61595D01*
X125731Y61629D01*
X125594Y61667D01*
X125457Y61708D01*
X125322Y61753D01*
X125188Y61802D01*
X125056Y61855D01*
X124925Y61911D01*
X124796Y61971D01*
X124668Y62035D01*
X124543Y62102D01*
X124419Y62173D01*
X124297Y62247D01*
X124178Y62324D01*
X124060Y62405D01*
X123945Y62489D01*
X123833Y62576D01*
X123723Y62667D01*
X123615Y62760D01*
X123510Y62857D01*
X123408Y62956D01*
X123309Y63058D01*
X123212Y63163D01*
X123119Y63271D01*
X123028Y63381D01*
X122941Y63493D01*
X122857Y63608D01*
X122776Y63726D01*
X122699Y63845D01*
X122625Y63967D01*
X122554Y64091D01*
X122487Y64216D01*
X122423Y64344D01*
X122363Y64473D01*
X122307Y64604D01*
X122254Y64736D01*
X122205Y64870D01*
X122160Y65005D01*
X122119Y65142D01*
X122081Y65279D01*
X122047Y65418D01*
X122018Y65557D01*
X121992Y65697D01*
X121970Y65838D01*
X121952Y65979D01*
X121938Y66121D01*
X121928Y66263D01*
X121922Y66406D01*
X121920Y66548D01*
X172720Y66548D02*
X172722Y66690D01*
X172728Y66833D01*
X172738Y66975D01*
X172752Y67117D01*
X172770Y67258D01*
X172792Y67399D01*
X172818Y67539D01*
X172847Y67678D01*
X172881Y67817D01*
X172919Y67954D01*
X172960Y68091D01*
X173005Y68226D01*
X173054Y68360D01*
X173107Y68492D01*
X173163Y68623D01*
X173223Y68752D01*
X173287Y68880D01*
X173354Y69005D01*
X173425Y69129D01*
X173499Y69251D01*
X173576Y69370D01*
X173657Y69488D01*
X173741Y69603D01*
X173828Y69715D01*
X173919Y69825D01*
X174012Y69933D01*
X174109Y70038D01*
X174208Y70140D01*
X174310Y70239D01*
X174415Y70336D01*
X174523Y70429D01*
X174633Y70520D01*
X174745Y70607D01*
X174860Y70691D01*
X174978Y70772D01*
X175097Y70849D01*
X175219Y70923D01*
X175343Y70994D01*
X175468Y71061D01*
X175596Y71125D01*
X175725Y71185D01*
X175856Y71241D01*
X175988Y71294D01*
X176122Y71343D01*
X176257Y71388D01*
X176394Y71429D01*
X176531Y71467D01*
X176670Y71501D01*
X176809Y71530D01*
X176949Y71556D01*
X177090Y71578D01*
X177231Y71596D01*
X177373Y71610D01*
X177515Y71620D01*
X177658Y71626D01*
X177800Y71628D01*
X177942Y71626D01*
X178085Y71620D01*
X178227Y71610D01*
X178369Y71596D01*
X178510Y71578D01*
X178651Y71556D01*
X178791Y71530D01*
X178930Y71501D01*
X179069Y71467D01*
X179206Y71429D01*
X179343Y71388D01*
X179478Y71343D01*
X179612Y71294D01*
X179744Y71241D01*
X179875Y71185D01*
X180004Y71125D01*
X180132Y71061D01*
X180257Y70994D01*
X180381Y70923D01*
X180503Y70849D01*
X180622Y70772D01*
X180740Y70691D01*
X180855Y70607D01*
X180967Y70520D01*
X181077Y70429D01*
X181185Y70336D01*
X181290Y70239D01*
X181392Y70140D01*
X181491Y70038D01*
X181588Y69933D01*
X181681Y69825D01*
X181772Y69715D01*
X181859Y69603D01*
X181943Y69488D01*
X182024Y69370D01*
X182101Y69251D01*
X182175Y69129D01*
X182246Y69005D01*
X182313Y68880D01*
X182377Y68752D01*
X182437Y68623D01*
X182493Y68492D01*
X182546Y68360D01*
X182595Y68226D01*
X182640Y68091D01*
X182681Y67954D01*
X182719Y67817D01*
X182753Y67678D01*
X182782Y67539D01*
X182808Y67399D01*
X182830Y67258D01*
X182848Y67117D01*
X182862Y66975D01*
X182872Y66833D01*
X182878Y66690D01*
X182880Y66548D01*
X182878Y66406D01*
X182872Y66263D01*
X182862Y66121D01*
X182848Y65979D01*
X182830Y65838D01*
X182808Y65697D01*
X182782Y65557D01*
X182753Y65418D01*
X182719Y65279D01*
X182681Y65142D01*
X182640Y65005D01*
X182595Y64870D01*
X182546Y64736D01*
X182493Y64604D01*
X182437Y64473D01*
X182377Y64344D01*
X182313Y64216D01*
X182246Y64091D01*
X182175Y63967D01*
X182101Y63845D01*
X182024Y63726D01*
X181943Y63608D01*
X181859Y63493D01*
X181772Y63381D01*
X181681Y63271D01*
X181588Y63163D01*
X181491Y63058D01*
X181392Y62956D01*
X181290Y62857D01*
X181185Y62760D01*
X181077Y62667D01*
X180967Y62576D01*
X180855Y62489D01*
X180740Y62405D01*
X180622Y62324D01*
X180503Y62247D01*
X180381Y62173D01*
X180257Y62102D01*
X180132Y62035D01*
X180004Y61971D01*
X179875Y61911D01*
X179744Y61855D01*
X179612Y61802D01*
X179478Y61753D01*
X179343Y61708D01*
X179206Y61667D01*
X179069Y61629D01*
X178930Y61595D01*
X178791Y61566D01*
X178651Y61540D01*
X178510Y61518D01*
X178369Y61500D01*
X178227Y61486D01*
X178085Y61476D01*
X177942Y61470D01*
X177800Y61468D01*
X177658Y61470D01*
X177515Y61476D01*
X177373Y61486D01*
X177231Y61500D01*
X177090Y61518D01*
X176949Y61540D01*
X176809Y61566D01*
X176670Y61595D01*
X176531Y61629D01*
X176394Y61667D01*
X176257Y61708D01*
X176122Y61753D01*
X175988Y61802D01*
X175856Y61855D01*
X175725Y61911D01*
X175596Y61971D01*
X175468Y62035D01*
X175343Y62102D01*
X175219Y62173D01*
X175097Y62247D01*
X174978Y62324D01*
X174860Y62405D01*
X174745Y62489D01*
X174633Y62576D01*
X174523Y62667D01*
X174415Y62760D01*
X174310Y62857D01*
X174208Y62956D01*
X174109Y63058D01*
X174012Y63163D01*
X173919Y63271D01*
X173828Y63381D01*
X173741Y63493D01*
X173657Y63608D01*
X173576Y63726D01*
X173499Y63845D01*
X173425Y63967D01*
X173354Y64091D01*
X173287Y64216D01*
X173223Y64344D01*
X173163Y64473D01*
X173107Y64604D01*
X173054Y64736D01*
X173005Y64870D01*
X172960Y65005D01*
X172919Y65142D01*
X172881Y65279D01*
X172847Y65418D01*
X172818Y65557D01*
X172792Y65697D01*
X172770Y65838D01*
X172752Y65979D01*
X172738Y66121D01*
X172728Y66263D01*
X172722Y66406D01*
X172720Y66548D01*
X223520Y66548D02*
X223522Y66690D01*
X223528Y66833D01*
X223538Y66975D01*
X223552Y67117D01*
X223570Y67258D01*
X223592Y67399D01*
X223618Y67539D01*
X223647Y67678D01*
X223681Y67817D01*
X223719Y67954D01*
X223760Y68091D01*
X223805Y68226D01*
X223854Y68360D01*
X223907Y68492D01*
X223963Y68623D01*
X224023Y68752D01*
X224087Y68880D01*
X224154Y69005D01*
X224225Y69129D01*
X224299Y69251D01*
X224376Y69370D01*
X224457Y69488D01*
X224541Y69603D01*
X224628Y69715D01*
X224719Y69825D01*
X224812Y69933D01*
X224909Y70038D01*
X225008Y70140D01*
X225110Y70239D01*
X225215Y70336D01*
X225323Y70429D01*
X225433Y70520D01*
X225545Y70607D01*
X225660Y70691D01*
X225778Y70772D01*
X225897Y70849D01*
X226019Y70923D01*
X226143Y70994D01*
X226268Y71061D01*
X226396Y71125D01*
X226525Y71185D01*
X226656Y71241D01*
X226788Y71294D01*
X226922Y71343D01*
X227057Y71388D01*
X227194Y71429D01*
X227331Y71467D01*
X227470Y71501D01*
X227609Y71530D01*
X227749Y71556D01*
X227890Y71578D01*
X228031Y71596D01*
X228173Y71610D01*
X228315Y71620D01*
X228458Y71626D01*
X228600Y71628D01*
X228742Y71626D01*
X228885Y71620D01*
X229027Y71610D01*
X229169Y71596D01*
X229310Y71578D01*
X229451Y71556D01*
X229591Y71530D01*
X229730Y71501D01*
X229869Y71467D01*
X230006Y71429D01*
X230143Y71388D01*
X230278Y71343D01*
X230412Y71294D01*
X230544Y71241D01*
X230675Y71185D01*
X230804Y71125D01*
X230932Y71061D01*
X231057Y70994D01*
X231181Y70923D01*
X231303Y70849D01*
X231422Y70772D01*
X231540Y70691D01*
X231655Y70607D01*
X231767Y70520D01*
X231877Y70429D01*
X231985Y70336D01*
X232090Y70239D01*
X232192Y70140D01*
X232291Y70038D01*
X232388Y69933D01*
X232481Y69825D01*
X232572Y69715D01*
X232659Y69603D01*
X232743Y69488D01*
X232824Y69370D01*
X232901Y69251D01*
X232975Y69129D01*
X233046Y69005D01*
X233113Y68880D01*
X233177Y68752D01*
X233237Y68623D01*
X233293Y68492D01*
X233346Y68360D01*
X233395Y68226D01*
X233440Y68091D01*
X233481Y67954D01*
X233519Y67817D01*
X233553Y67678D01*
X233582Y67539D01*
X233608Y67399D01*
X233630Y67258D01*
X233648Y67117D01*
X233662Y66975D01*
X233672Y66833D01*
X233678Y66690D01*
X233680Y66548D01*
X233678Y66406D01*
X233672Y66263D01*
X233662Y66121D01*
X233648Y65979D01*
X233630Y65838D01*
X233608Y65697D01*
X233582Y65557D01*
X233553Y65418D01*
X233519Y65279D01*
X233481Y65142D01*
X233440Y65005D01*
X233395Y64870D01*
X233346Y64736D01*
X233293Y64604D01*
X233237Y64473D01*
X233177Y64344D01*
X233113Y64216D01*
X233046Y64091D01*
X232975Y63967D01*
X232901Y63845D01*
X232824Y63726D01*
X232743Y63608D01*
X232659Y63493D01*
X232572Y63381D01*
X232481Y63271D01*
X232388Y63163D01*
X232291Y63058D01*
X232192Y62956D01*
X232090Y62857D01*
X231985Y62760D01*
X231877Y62667D01*
X231767Y62576D01*
X231655Y62489D01*
X231540Y62405D01*
X231422Y62324D01*
X231303Y62247D01*
X231181Y62173D01*
X231057Y62102D01*
X230932Y62035D01*
X230804Y61971D01*
X230675Y61911D01*
X230544Y61855D01*
X230412Y61802D01*
X230278Y61753D01*
X230143Y61708D01*
X230006Y61667D01*
X229869Y61629D01*
X229730Y61595D01*
X229591Y61566D01*
X229451Y61540D01*
X229310Y61518D01*
X229169Y61500D01*
X229027Y61486D01*
X228885Y61476D01*
X228742Y61470D01*
X228600Y61468D01*
X228458Y61470D01*
X228315Y61476D01*
X228173Y61486D01*
X228031Y61500D01*
X227890Y61518D01*
X227749Y61540D01*
X227609Y61566D01*
X227470Y61595D01*
X227331Y61629D01*
X227194Y61667D01*
X227057Y61708D01*
X226922Y61753D01*
X226788Y61802D01*
X226656Y61855D01*
X226525Y61911D01*
X226396Y61971D01*
X226268Y62035D01*
X226143Y62102D01*
X226019Y62173D01*
X225897Y62247D01*
X225778Y62324D01*
X225660Y62405D01*
X225545Y62489D01*
X225433Y62576D01*
X225323Y62667D01*
X225215Y62760D01*
X225110Y62857D01*
X225008Y62956D01*
X224909Y63058D01*
X224812Y63163D01*
X224719Y63271D01*
X224628Y63381D01*
X224541Y63493D01*
X224457Y63608D01*
X224376Y63726D01*
X224299Y63845D01*
X224225Y63967D01*
X224154Y64091D01*
X224087Y64216D01*
X224023Y64344D01*
X223963Y64473D01*
X223907Y64604D01*
X223854Y64736D01*
X223805Y64870D01*
X223760Y65005D01*
X223719Y65142D01*
X223681Y65279D01*
X223647Y65418D01*
X223618Y65557D01*
X223592Y65697D01*
X223570Y65838D01*
X223552Y65979D01*
X223538Y66121D01*
X223528Y66263D01*
X223522Y66406D01*
X223520Y66548D01*
D21*
X122555Y-18415D02*
X114935Y-29845D01*
X122555Y-29845D02*
X114935Y-18415D01*
X127000Y-20955D02*
X130175Y-18415D01*
X130175Y-29845D01*
X127000Y-29845D02*
X133350Y-29845D01*
D29*
X546250Y444500D03*
X526250Y444500D03*
X506250Y444500D03*
X486250Y444500D03*
X466250Y444500D03*
X446250Y444500D03*
X426250Y444500D03*
X406250Y444500D03*
M02*
