G04 EAGLE Gerber RS-274X export*
G75*
%MOMM*%
%FSLAX34Y34*%
%LPD*%
%INTop Copper*%
%IPPOS*%
%AMOC8*
5,1,8,0,0,1.08239X$1,22.5*%
G01*
%ADD10P,1.732040X8X202.500000*%
%ADD11C,1.600200*%
%ADD12C,1.879600*%
%ADD13C,2.540000*%
%ADD14C,1.422400*%
%ADD15P,1.429621X8X22.500000*%
%ADD16P,1.429621X8X202.500000*%
%ADD17C,1.422400*%
%ADD18C,1.308000*%
%ADD19C,1.308000*%
%ADD20R,1.308000X1.308000*%
%ADD21P,1.814519X8X22.500000*%
%ADD22C,2.095500*%
%ADD23C,0.254000*%


D10*
X660400Y431800D03*
D11*
X685800Y431800D03*
D12*
X96012Y371094D03*
X30988Y371094D03*
X96012Y416306D03*
X30988Y416306D03*
D13*
X114300Y751078D02*
X139700Y751078D01*
X139700Y976122D02*
X114300Y976122D01*
X622300Y976122D02*
X647700Y976122D01*
X647700Y751078D02*
X622300Y751078D01*
D14*
X70612Y304800D02*
X56388Y304800D01*
X56388Y279400D02*
X70612Y279400D01*
X70612Y254000D02*
X56388Y254000D01*
D15*
X50800Y469900D03*
X76200Y469900D03*
D16*
X203200Y469900D03*
X101600Y469900D03*
D17*
X679600Y381000D03*
X659600Y381000D03*
X639600Y381000D03*
X619600Y381000D03*
X599600Y381000D03*
X579600Y381000D03*
X559600Y381000D03*
X539600Y381000D03*
D18*
X317500Y641160D02*
X317500Y654240D01*
X342900Y654240D02*
X342900Y641160D01*
X368300Y641160D02*
X368300Y654240D01*
X393700Y654240D02*
X393700Y641160D01*
X419100Y641160D02*
X419100Y654240D01*
X444500Y654240D02*
X444500Y641160D01*
X311340Y622300D02*
X298260Y622300D01*
X298260Y596900D02*
X311340Y596900D01*
X311340Y571500D02*
X298260Y571500D01*
X298260Y546100D02*
X311340Y546100D01*
X311340Y520700D02*
X298260Y520700D01*
X298260Y495300D02*
X311340Y495300D01*
X311340Y469900D02*
X298260Y469900D01*
X298260Y444500D02*
X311340Y444500D01*
X311340Y419100D02*
X298260Y419100D01*
X298260Y393700D02*
X311340Y393700D01*
X311340Y368300D02*
X298260Y368300D01*
X298260Y342900D02*
X311340Y342900D01*
X450660Y622300D02*
X463740Y622300D01*
X463740Y596900D02*
X450660Y596900D01*
X450660Y571500D02*
X463740Y571500D01*
X463740Y546100D02*
X450660Y546100D01*
X450660Y520700D02*
X463740Y520700D01*
X463740Y495300D02*
X450660Y495300D01*
X450660Y469900D02*
X463740Y469900D01*
X463740Y444500D02*
X450660Y444500D01*
X450660Y419100D02*
X463740Y419100D01*
X463740Y393700D02*
X450660Y393700D01*
X450660Y368300D02*
X463740Y368300D01*
X463740Y342900D02*
X450660Y342900D01*
X419100Y349440D02*
X419100Y336360D01*
X393700Y336360D02*
X393700Y349440D01*
X368300Y349440D02*
X368300Y336360D01*
D19*
X419100Y533400D03*
X419100Y508000D03*
D20*
X212500Y834300D03*
X212500Y893300D03*
X548500Y954300D03*
X548500Y774300D03*
D21*
X406400Y165100D03*
X406400Y139700D03*
X584200Y165100D03*
X584200Y139700D03*
X406400Y114300D03*
X406400Y190500D03*
X584200Y190500D03*
X584200Y114300D03*
X406400Y215900D03*
X584200Y215900D03*
X406400Y88900D03*
X584200Y88900D03*
X406400Y241300D03*
X584200Y241300D03*
X406400Y63500D03*
X584200Y63500D03*
D22*
X86678Y685800D02*
X65723Y685800D01*
X65723Y635000D02*
X86678Y635000D01*
X86678Y165100D02*
X65723Y165100D01*
X65723Y114300D02*
X86678Y114300D01*
D23*
X63500Y279400D02*
X165100Y279400D01*
X241300Y355600D01*
X241300Y596900D01*
X254000Y609600D01*
X431800Y609600D02*
X444500Y622300D01*
X457200Y622300D01*
X431800Y609600D02*
X254000Y609600D01*
X679600Y381000D02*
X679600Y336700D01*
X622300Y279400D01*
X457200Y279400D01*
X419100Y241300D01*
X406400Y241300D01*
X457200Y546100D02*
X635000Y546100D01*
X685800Y495300D01*
X685800Y431800D01*
X559600Y381000D02*
X558800Y380200D01*
X558800Y342900D01*
X520700Y304800D01*
X393700Y304800D01*
X381000Y317500D01*
X381000Y508000D02*
X368300Y520700D01*
X304800Y520700D01*
X381000Y508000D02*
X381000Y317500D01*
M02*
