G04 EAGLE Gerber RS-274X export*
G75*
%MOMM*%
%FSLAX34Y34*%
%LPD*%
%INSilkscreen Top*%
%IPPOS*%
%AMOC8*
5,1,8,0,0,1.08239X$1,22.5*%
G01*
%ADD10C,0.152400*%
%ADD11C,0.127000*%
%ADD12C,0.050800*%
%ADD13R,1.143000X0.635000*%
%ADD14R,4.064000X0.635000*%
%ADD15R,0.508000X10.160000*%
%ADD16R,0.127000X3.937000*%
%ADD17R,0.508000X4.826000*%
%ADD18C,0.254000*%
%ADD19C,0.203200*%
%ADD20R,0.508000X0.508000*%
%ADD21C,0.101600*%
%ADD22C,0.076200*%


D10*
X495300Y415925D02*
X495300Y413385D01*
X492760Y413385D01*
X495300Y413385D02*
X495300Y410845D01*
X495300Y413385D02*
X497840Y413385D01*
X457200Y399415D02*
X457208Y400038D01*
X457231Y400661D01*
X457269Y401284D01*
X457322Y401905D01*
X457391Y402524D01*
X457475Y403142D01*
X457574Y403757D01*
X457688Y404370D01*
X457817Y404980D01*
X457961Y405587D01*
X458120Y406190D01*
X458294Y406788D01*
X458482Y407383D01*
X458685Y407972D01*
X458902Y408556D01*
X459133Y409135D01*
X459379Y409708D01*
X459639Y410275D01*
X459912Y410835D01*
X460199Y411388D01*
X460500Y411935D01*
X460814Y412473D01*
X461141Y413004D01*
X461481Y413526D01*
X461833Y414041D01*
X462199Y414546D01*
X462576Y415042D01*
X462966Y415529D01*
X463367Y416006D01*
X463780Y416473D01*
X464204Y416929D01*
X464639Y417376D01*
X465086Y417811D01*
X465542Y418235D01*
X466009Y418648D01*
X466486Y419049D01*
X466973Y419439D01*
X467469Y419816D01*
X467974Y420182D01*
X468489Y420534D01*
X469011Y420874D01*
X469542Y421201D01*
X470080Y421515D01*
X470627Y421816D01*
X471180Y422103D01*
X471740Y422376D01*
X472307Y422636D01*
X472880Y422882D01*
X473459Y423113D01*
X474043Y423330D01*
X474632Y423533D01*
X475227Y423721D01*
X475825Y423895D01*
X476428Y424054D01*
X477035Y424198D01*
X477645Y424327D01*
X478258Y424441D01*
X478873Y424540D01*
X479491Y424624D01*
X480110Y424693D01*
X480731Y424746D01*
X481354Y424784D01*
X481977Y424807D01*
X482600Y424815D01*
X483223Y424807D01*
X483846Y424784D01*
X484469Y424746D01*
X485090Y424693D01*
X485709Y424624D01*
X486327Y424540D01*
X486942Y424441D01*
X487555Y424327D01*
X488165Y424198D01*
X488772Y424054D01*
X489375Y423895D01*
X489973Y423721D01*
X490568Y423533D01*
X491157Y423330D01*
X491741Y423113D01*
X492320Y422882D01*
X492893Y422636D01*
X493460Y422376D01*
X494020Y422103D01*
X494573Y421816D01*
X495120Y421515D01*
X495658Y421201D01*
X496189Y420874D01*
X496711Y420534D01*
X497226Y420182D01*
X497731Y419816D01*
X498227Y419439D01*
X498714Y419049D01*
X499191Y418648D01*
X499658Y418235D01*
X500114Y417811D01*
X500561Y417376D01*
X500996Y416929D01*
X501420Y416473D01*
X501833Y416006D01*
X502234Y415529D01*
X502624Y415042D01*
X503001Y414546D01*
X503367Y414041D01*
X503719Y413526D01*
X504059Y413004D01*
X504386Y412473D01*
X504700Y411935D01*
X505001Y411388D01*
X505288Y410835D01*
X505561Y410275D01*
X505821Y409708D01*
X506067Y409135D01*
X506298Y408556D01*
X506515Y407972D01*
X506718Y407383D01*
X506906Y406788D01*
X507080Y406190D01*
X507239Y405587D01*
X507383Y404980D01*
X507512Y404370D01*
X507626Y403757D01*
X507725Y403142D01*
X507809Y402524D01*
X507878Y401905D01*
X507931Y401284D01*
X507969Y400661D01*
X507992Y400038D01*
X508000Y399415D01*
X507992Y398792D01*
X507969Y398169D01*
X507931Y397546D01*
X507878Y396925D01*
X507809Y396306D01*
X507725Y395688D01*
X507626Y395073D01*
X507512Y394460D01*
X507383Y393850D01*
X507239Y393243D01*
X507080Y392640D01*
X506906Y392042D01*
X506718Y391447D01*
X506515Y390858D01*
X506298Y390274D01*
X506067Y389695D01*
X505821Y389122D01*
X505561Y388555D01*
X505288Y387995D01*
X505001Y387442D01*
X504700Y386895D01*
X504386Y386357D01*
X504059Y385826D01*
X503719Y385304D01*
X503367Y384789D01*
X503001Y384284D01*
X502624Y383788D01*
X502234Y383301D01*
X501833Y382824D01*
X501420Y382357D01*
X500996Y381901D01*
X500561Y381454D01*
X500114Y381019D01*
X499658Y380595D01*
X499191Y380182D01*
X498714Y379781D01*
X498227Y379391D01*
X497731Y379014D01*
X497226Y378648D01*
X496711Y378296D01*
X496189Y377956D01*
X495658Y377629D01*
X495120Y377315D01*
X494573Y377014D01*
X494020Y376727D01*
X493460Y376454D01*
X492893Y376194D01*
X492320Y375948D01*
X491741Y375717D01*
X491157Y375500D01*
X490568Y375297D01*
X489973Y375109D01*
X489375Y374935D01*
X488772Y374776D01*
X488165Y374632D01*
X487555Y374503D01*
X486942Y374389D01*
X486327Y374290D01*
X485709Y374206D01*
X485090Y374137D01*
X484469Y374084D01*
X483846Y374046D01*
X483223Y374023D01*
X482600Y374015D01*
X481977Y374023D01*
X481354Y374046D01*
X480731Y374084D01*
X480110Y374137D01*
X479491Y374206D01*
X478873Y374290D01*
X478258Y374389D01*
X477645Y374503D01*
X477035Y374632D01*
X476428Y374776D01*
X475825Y374935D01*
X475227Y375109D01*
X474632Y375297D01*
X474043Y375500D01*
X473459Y375717D01*
X472880Y375948D01*
X472307Y376194D01*
X471740Y376454D01*
X471180Y376727D01*
X470627Y377014D01*
X470080Y377315D01*
X469542Y377629D01*
X469011Y377956D01*
X468489Y378296D01*
X467974Y378648D01*
X467469Y379014D01*
X466973Y379391D01*
X466486Y379781D01*
X466009Y380182D01*
X465542Y380595D01*
X465086Y381019D01*
X464639Y381454D01*
X464204Y381901D01*
X463780Y382357D01*
X463367Y382824D01*
X462966Y383301D01*
X462576Y383788D01*
X462199Y384284D01*
X461833Y384789D01*
X461481Y385304D01*
X461141Y385826D01*
X460814Y386357D01*
X460500Y386895D01*
X460199Y387442D01*
X459912Y387995D01*
X459639Y388555D01*
X459379Y389122D01*
X459133Y389695D01*
X458902Y390274D01*
X458685Y390858D01*
X458482Y391447D01*
X458294Y392042D01*
X458120Y392640D01*
X457961Y393243D01*
X457817Y393850D01*
X457688Y394460D01*
X457574Y395073D01*
X457475Y395688D01*
X457391Y396306D01*
X457322Y396925D01*
X457269Y397546D01*
X457231Y398169D01*
X457208Y398792D01*
X457200Y399415D01*
D11*
X507365Y363818D02*
X507365Y361278D01*
X507363Y361178D01*
X507357Y361079D01*
X507347Y360979D01*
X507334Y360881D01*
X507316Y360782D01*
X507295Y360685D01*
X507270Y360589D01*
X507241Y360493D01*
X507208Y360399D01*
X507172Y360306D01*
X507132Y360215D01*
X507088Y360125D01*
X507041Y360037D01*
X506991Y359951D01*
X506937Y359867D01*
X506880Y359785D01*
X506820Y359706D01*
X506756Y359628D01*
X506690Y359554D01*
X506621Y359482D01*
X506549Y359413D01*
X506475Y359347D01*
X506397Y359283D01*
X506318Y359223D01*
X506236Y359166D01*
X506152Y359112D01*
X506066Y359062D01*
X505978Y359015D01*
X505888Y358971D01*
X505797Y358931D01*
X505704Y358895D01*
X505610Y358862D01*
X505514Y358833D01*
X505418Y358808D01*
X505321Y358787D01*
X505222Y358769D01*
X505124Y358756D01*
X505024Y358746D01*
X504925Y358740D01*
X504825Y358738D01*
X498475Y358738D01*
X498375Y358740D01*
X498276Y358746D01*
X498176Y358756D01*
X498078Y358769D01*
X497979Y358787D01*
X497882Y358808D01*
X497786Y358833D01*
X497690Y358862D01*
X497596Y358895D01*
X497503Y358931D01*
X497412Y358971D01*
X497322Y359015D01*
X497234Y359062D01*
X497148Y359112D01*
X497064Y359166D01*
X496982Y359223D01*
X496903Y359283D01*
X496825Y359347D01*
X496751Y359413D01*
X496679Y359482D01*
X496610Y359554D01*
X496544Y359628D01*
X496480Y359706D01*
X496420Y359785D01*
X496363Y359867D01*
X496309Y359951D01*
X496259Y360037D01*
X496212Y360125D01*
X496168Y360215D01*
X496128Y360306D01*
X496092Y360399D01*
X496059Y360493D01*
X496030Y360589D01*
X496005Y360685D01*
X495984Y360782D01*
X495966Y360881D01*
X495953Y360979D01*
X495943Y361079D01*
X495937Y361178D01*
X495935Y361278D01*
X495935Y363818D01*
X498475Y368300D02*
X495935Y371475D01*
X507365Y371475D01*
X507365Y368300D02*
X507365Y374650D01*
D10*
X117475Y734060D02*
X117475Y985520D01*
X226695Y985520D02*
X226695Y734060D01*
D12*
X142875Y808990D02*
X142875Y910590D01*
X201295Y910590D02*
X201295Y808990D01*
D10*
X208915Y916940D02*
X208915Y967740D01*
X140335Y967740D02*
X135255Y967740D01*
X146685Y967740D02*
X146685Y916940D01*
X197485Y967740D02*
X208915Y967740D01*
X197485Y967740D02*
X197485Y916940D01*
X135255Y916940D02*
X135255Y967740D01*
X135255Y916940D02*
X146685Y916940D01*
X135255Y967740D02*
X135255Y974090D01*
X151765Y974090D01*
X151765Y971550D02*
X140335Y971550D01*
X140335Y967740D01*
X146685Y967740D01*
X197485Y916940D02*
X208915Y916940D01*
X135255Y802640D02*
X135255Y751840D01*
X203835Y751840D02*
X208915Y751840D01*
X197485Y751840D02*
X197485Y802640D01*
X146685Y751840D02*
X135255Y751840D01*
X146685Y751840D02*
X146685Y802640D01*
X208915Y802640D02*
X208915Y751840D01*
X208915Y802640D02*
X197485Y802640D01*
X208915Y751840D02*
X208915Y745490D01*
X192405Y745490D01*
X192405Y748030D02*
X203835Y748030D01*
X203835Y751840D01*
X197485Y751840D01*
X146685Y802640D02*
X135255Y802640D01*
D12*
X172085Y807720D02*
X172085Y911860D01*
D10*
X188595Y734060D02*
X226695Y734060D01*
X155575Y734060D02*
X117475Y734060D01*
X188595Y985520D02*
X226695Y985520D01*
X155575Y985520D02*
X117475Y985520D01*
D13*
X146050Y913765D03*
X198120Y913765D03*
D14*
X172085Y913765D03*
D13*
X198120Y805815D03*
X146050Y805815D03*
D14*
X172085Y805815D03*
D15*
X196215Y859790D03*
X147955Y859790D03*
D16*
X152400Y782955D03*
X191770Y782955D03*
X191770Y936625D03*
X152400Y936625D03*
D17*
X149225Y941070D03*
X194945Y941070D03*
X194945Y778510D03*
X149225Y778510D03*
D10*
X636905Y734060D02*
X636905Y985520D01*
X746125Y985520D02*
X746125Y734060D01*
D12*
X662305Y808990D02*
X662305Y910590D01*
X720725Y910590D02*
X720725Y808990D01*
D10*
X728345Y916940D02*
X728345Y967740D01*
X659765Y967740D02*
X654685Y967740D01*
X666115Y967740D02*
X666115Y916940D01*
X716915Y967740D02*
X728345Y967740D01*
X716915Y967740D02*
X716915Y916940D01*
X654685Y916940D02*
X654685Y967740D01*
X654685Y916940D02*
X666115Y916940D01*
X654685Y967740D02*
X654685Y974090D01*
X671195Y974090D01*
X671195Y971550D02*
X659765Y971550D01*
X659765Y967740D01*
X666115Y967740D01*
X716915Y916940D02*
X728345Y916940D01*
X654685Y802640D02*
X654685Y751840D01*
X723265Y751840D02*
X728345Y751840D01*
X716915Y751840D02*
X716915Y802640D01*
X666115Y751840D02*
X654685Y751840D01*
X666115Y751840D02*
X666115Y802640D01*
X728345Y802640D02*
X728345Y751840D01*
X728345Y802640D02*
X716915Y802640D01*
X728345Y751840D02*
X728345Y745490D01*
X711835Y745490D01*
X711835Y748030D02*
X723265Y748030D01*
X723265Y751840D01*
X716915Y751840D01*
X666115Y802640D02*
X654685Y802640D01*
D12*
X691515Y807720D02*
X691515Y911860D01*
D10*
X708025Y734060D02*
X746125Y734060D01*
X675005Y734060D02*
X636905Y734060D01*
X708025Y985520D02*
X746125Y985520D01*
X675005Y985520D02*
X636905Y985520D01*
D13*
X665480Y913765D03*
X717550Y913765D03*
D14*
X691515Y913765D03*
D13*
X717550Y805815D03*
X665480Y805815D03*
D14*
X691515Y805815D03*
D15*
X715645Y859790D03*
X667385Y859790D03*
D16*
X671830Y782955D03*
X711200Y782955D03*
X711200Y936625D03*
X671830Y936625D03*
D17*
X668655Y941070D03*
X714375Y941070D03*
X714375Y778510D03*
X668655Y778510D03*
D10*
X786098Y929939D02*
X786398Y930158D01*
X786692Y930385D01*
X786980Y930619D01*
X787263Y930860D01*
X787540Y931107D01*
X787811Y931362D01*
X788075Y931623D01*
X788333Y931890D01*
X788584Y932163D01*
X788829Y932443D01*
X789067Y932728D01*
X789297Y933019D01*
X789521Y933316D01*
X789737Y933618D01*
X789946Y933925D01*
X790147Y934237D01*
X790341Y934554D01*
X790527Y934876D01*
X790705Y935202D01*
X790875Y935532D01*
X791037Y935866D01*
X791190Y936204D01*
X791336Y936546D01*
X791473Y936891D01*
X791601Y937240D01*
X791721Y937591D01*
X791833Y937946D01*
X791935Y938303D01*
X792030Y938662D01*
X792115Y939023D01*
X792191Y939387D01*
X792259Y939752D01*
X792317Y940119D01*
X792367Y940487D01*
X792408Y940856D01*
X792439Y941226D01*
X792462Y941597D01*
X792475Y941968D01*
X792480Y942340D01*
X792475Y942712D01*
X792462Y943083D01*
X792439Y943455D01*
X792407Y943825D01*
X792367Y944195D01*
X792317Y944563D01*
X792258Y944931D01*
X792191Y945296D01*
X792114Y945660D01*
X792028Y946022D01*
X791934Y946382D01*
X791831Y946739D01*
X791720Y947094D01*
X791599Y947446D01*
X791470Y947795D01*
X791333Y948140D01*
X791187Y948482D01*
X791033Y948821D01*
X790871Y949156D01*
X790701Y949486D01*
X790522Y949812D01*
X790336Y950134D01*
X790142Y950452D01*
X789940Y950764D01*
X789731Y951071D01*
X789514Y951373D01*
X789290Y951670D01*
X789059Y951962D01*
X788821Y952247D01*
X788575Y952527D01*
X788323Y952800D01*
X788065Y953068D01*
X787800Y953328D01*
X787529Y953583D01*
X787251Y953831D01*
X786968Y954071D01*
X786679Y954305D01*
X786384Y954532D01*
X762000Y942340D02*
X762004Y941975D01*
X762017Y941610D01*
X762039Y941246D01*
X762070Y940883D01*
X762109Y940520D01*
X762157Y940158D01*
X762214Y939798D01*
X762279Y939439D01*
X762352Y939081D01*
X762435Y938726D01*
X762525Y938373D01*
X762625Y938021D01*
X762732Y937673D01*
X762848Y937327D01*
X762972Y936984D01*
X763105Y936644D01*
X763245Y936307D01*
X763393Y935974D01*
X763550Y935644D01*
X763714Y935318D01*
X763886Y934996D01*
X764066Y934679D01*
X764253Y934366D01*
X764447Y934057D01*
X764649Y933753D01*
X764859Y933454D01*
X765075Y933160D01*
X765298Y932872D01*
X765528Y932589D01*
X765765Y932311D01*
X766008Y932039D01*
X766258Y931773D01*
X766514Y931513D01*
X766777Y931260D01*
X767045Y931012D01*
X767319Y930772D01*
X767599Y930537D01*
X767884Y930310D01*
X762000Y942340D02*
X762004Y942705D01*
X762017Y943070D01*
X762039Y943434D01*
X762070Y943797D01*
X762109Y944160D01*
X762157Y944522D01*
X762214Y944882D01*
X762279Y945241D01*
X762352Y945599D01*
X762435Y945954D01*
X762525Y946307D01*
X762625Y946659D01*
X762732Y947007D01*
X762848Y947353D01*
X762972Y947696D01*
X763105Y948036D01*
X763245Y948373D01*
X763393Y948706D01*
X763550Y949036D01*
X763714Y949362D01*
X763886Y949684D01*
X764066Y950001D01*
X764253Y950314D01*
X764447Y950623D01*
X764649Y950927D01*
X764859Y951226D01*
X765075Y951520D01*
X765298Y951808D01*
X765528Y952091D01*
X765765Y952369D01*
X766008Y952641D01*
X766258Y952907D01*
X766514Y953167D01*
X766777Y953420D01*
X767045Y953668D01*
X767319Y953908D01*
X767599Y954143D01*
X767884Y954370D01*
D18*
X797560Y942340D02*
X797554Y941846D01*
X797536Y941352D01*
X797506Y940858D01*
X797464Y940365D01*
X797410Y939874D01*
X797344Y939384D01*
X797266Y938896D01*
X797176Y938409D01*
X797075Y937925D01*
X796961Y937444D01*
X796836Y936966D01*
X796700Y936490D01*
X796552Y936019D01*
X796392Y935551D01*
X796221Y935087D01*
X796039Y934627D01*
X795846Y934172D01*
X795642Y933721D01*
X795427Y933276D01*
X795201Y932836D01*
X794964Y932402D01*
X794717Y931974D01*
X794460Y931552D01*
X794192Y931136D01*
X793914Y930727D01*
X793627Y930325D01*
X793330Y929929D01*
X793023Y929542D01*
X792707Y929161D01*
X792382Y928789D01*
X792047Y928424D01*
X791704Y928068D01*
X791353Y927721D01*
X790993Y927381D01*
X790625Y927051D01*
X790249Y926730D01*
X797560Y942340D02*
X797554Y942828D01*
X797537Y943315D01*
X797507Y943802D01*
X797466Y944289D01*
X797414Y944774D01*
X797349Y945258D01*
X797273Y945740D01*
X797186Y946220D01*
X797087Y946698D01*
X796977Y947173D01*
X796855Y947646D01*
X796722Y948115D01*
X796577Y948582D01*
X796422Y949044D01*
X796255Y949503D01*
X796078Y949958D01*
X795889Y950408D01*
X795690Y950853D01*
X795480Y951294D01*
X795260Y951730D01*
X795029Y952160D01*
X794788Y952584D01*
X794537Y953002D01*
X794276Y953415D01*
X794005Y953821D01*
X793725Y954220D01*
X793435Y954613D01*
X793135Y954998D01*
X792826Y955376D01*
X792509Y955747D01*
X792182Y956109D01*
X791847Y956464D01*
X791504Y956811D01*
X791152Y957149D01*
X790793Y957479D01*
X790425Y957800D01*
X790050Y958113D01*
X789667Y958416D01*
X789278Y958710D01*
X788881Y958994D01*
X788478Y959269D01*
X788068Y959534D01*
X787652Y959789D01*
X787230Y960034D01*
X786802Y960269D01*
X756920Y942340D02*
X756926Y941850D01*
X756944Y941360D01*
X756973Y940871D01*
X757015Y940382D01*
X757068Y939895D01*
X757132Y939409D01*
X757209Y938925D01*
X757297Y938443D01*
X757397Y937963D01*
X757508Y937485D01*
X757631Y937011D01*
X757766Y936539D01*
X757911Y936071D01*
X758068Y935607D01*
X758236Y935146D01*
X758415Y934690D01*
X758605Y934238D01*
X758806Y933791D01*
X759018Y933349D01*
X759240Y932912D01*
X759472Y932480D01*
X759715Y932054D01*
X759969Y931635D01*
X760232Y931221D01*
X760505Y930814D01*
X760788Y930414D01*
X761081Y930020D01*
X761382Y929634D01*
X761694Y929255D01*
X762014Y928884D01*
X762343Y928521D01*
X762680Y928165D01*
X763027Y927818D01*
X763381Y927480D01*
X763744Y927150D01*
X764114Y926828D01*
X756920Y942340D02*
X756926Y942837D01*
X756944Y943334D01*
X756975Y943830D01*
X757017Y944325D01*
X757072Y944819D01*
X757138Y945312D01*
X757217Y945802D01*
X757308Y946291D01*
X757410Y946777D01*
X757525Y947261D01*
X757651Y947741D01*
X757789Y948219D01*
X757938Y948693D01*
X758099Y949163D01*
X758272Y949629D01*
X758456Y950091D01*
X758651Y950548D01*
X758857Y951000D01*
X759074Y951447D01*
X759303Y951888D01*
X759541Y952324D01*
X759791Y952754D01*
X760051Y953177D01*
X760321Y953595D01*
X760601Y954005D01*
X760891Y954408D01*
X761191Y954805D01*
X761501Y955193D01*
X761820Y955574D01*
X762148Y955947D01*
X762485Y956312D01*
X762831Y956669D01*
X763186Y957017D01*
X763549Y957356D01*
X763920Y957687D01*
X764300Y958008D01*
X764687Y958320D01*
X765081Y958622D01*
X765483Y958914D01*
X765892Y959197D01*
X766307Y959469D01*
X766730Y959732D01*
X767158Y959983D01*
D11*
X781685Y884707D02*
X793115Y884707D01*
X793115Y889787D01*
X793115Y894613D02*
X793115Y899693D01*
X793115Y894613D02*
X781685Y894613D01*
X781685Y899693D01*
X786765Y898423D02*
X786765Y894613D01*
X781685Y904494D02*
X793115Y904494D01*
X781685Y904494D02*
X781685Y907669D01*
X781687Y907780D01*
X781693Y907890D01*
X781702Y908001D01*
X781716Y908111D01*
X781733Y908220D01*
X781754Y908329D01*
X781779Y908437D01*
X781808Y908544D01*
X781840Y908650D01*
X781876Y908755D01*
X781916Y908858D01*
X781959Y908960D01*
X782006Y909061D01*
X782057Y909160D01*
X782110Y909257D01*
X782167Y909351D01*
X782228Y909444D01*
X782291Y909535D01*
X782358Y909624D01*
X782428Y909710D01*
X782501Y909793D01*
X782576Y909875D01*
X782654Y909953D01*
X782736Y910028D01*
X782819Y910101D01*
X782905Y910171D01*
X782994Y910238D01*
X783085Y910301D01*
X783178Y910362D01*
X783273Y910419D01*
X783369Y910472D01*
X783468Y910523D01*
X783569Y910570D01*
X783671Y910613D01*
X783774Y910653D01*
X783879Y910689D01*
X783985Y910721D01*
X784092Y910750D01*
X784200Y910775D01*
X784309Y910796D01*
X784418Y910813D01*
X784528Y910827D01*
X784639Y910836D01*
X784749Y910842D01*
X784860Y910844D01*
X789940Y910844D01*
X790051Y910842D01*
X790161Y910836D01*
X790272Y910827D01*
X790382Y910813D01*
X790491Y910796D01*
X790600Y910775D01*
X790708Y910750D01*
X790815Y910721D01*
X790921Y910689D01*
X791026Y910653D01*
X791129Y910613D01*
X791231Y910570D01*
X791332Y910523D01*
X791431Y910472D01*
X791528Y910419D01*
X791622Y910362D01*
X791715Y910301D01*
X791806Y910238D01*
X791895Y910171D01*
X791981Y910101D01*
X792064Y910028D01*
X792146Y909953D01*
X792224Y909875D01*
X792299Y909793D01*
X792372Y909710D01*
X792442Y909624D01*
X792509Y909535D01*
X792572Y909444D01*
X792633Y909351D01*
X792690Y909257D01*
X792743Y909160D01*
X792794Y909061D01*
X792841Y908960D01*
X792884Y908858D01*
X792924Y908755D01*
X792960Y908650D01*
X792992Y908544D01*
X793021Y908437D01*
X793046Y908329D01*
X793067Y908220D01*
X793084Y908111D01*
X793098Y908001D01*
X793107Y907890D01*
X793113Y907780D01*
X793115Y907669D01*
X793115Y904494D01*
X784225Y916305D02*
X781685Y919480D01*
X793115Y919480D01*
X793115Y916305D02*
X793115Y922655D01*
D10*
X837533Y929939D02*
X837833Y930158D01*
X838127Y930385D01*
X838415Y930619D01*
X838698Y930860D01*
X838975Y931107D01*
X839246Y931362D01*
X839510Y931623D01*
X839768Y931890D01*
X840019Y932163D01*
X840264Y932443D01*
X840502Y932728D01*
X840732Y933019D01*
X840956Y933316D01*
X841172Y933618D01*
X841381Y933925D01*
X841582Y934237D01*
X841776Y934554D01*
X841962Y934876D01*
X842140Y935202D01*
X842310Y935532D01*
X842472Y935866D01*
X842625Y936204D01*
X842771Y936546D01*
X842908Y936891D01*
X843036Y937240D01*
X843156Y937591D01*
X843268Y937946D01*
X843370Y938303D01*
X843465Y938662D01*
X843550Y939023D01*
X843626Y939387D01*
X843694Y939752D01*
X843752Y940119D01*
X843802Y940487D01*
X843843Y940856D01*
X843874Y941226D01*
X843897Y941597D01*
X843910Y941968D01*
X843915Y942340D01*
X843910Y942712D01*
X843897Y943083D01*
X843874Y943455D01*
X843842Y943825D01*
X843802Y944195D01*
X843752Y944563D01*
X843693Y944931D01*
X843626Y945296D01*
X843549Y945660D01*
X843463Y946022D01*
X843369Y946382D01*
X843266Y946739D01*
X843155Y947094D01*
X843034Y947446D01*
X842905Y947795D01*
X842768Y948140D01*
X842622Y948482D01*
X842468Y948821D01*
X842306Y949156D01*
X842136Y949486D01*
X841957Y949812D01*
X841771Y950134D01*
X841577Y950452D01*
X841375Y950764D01*
X841166Y951071D01*
X840949Y951373D01*
X840725Y951670D01*
X840494Y951962D01*
X840256Y952247D01*
X840010Y952527D01*
X839758Y952800D01*
X839500Y953068D01*
X839235Y953328D01*
X838964Y953583D01*
X838686Y953831D01*
X838403Y954071D01*
X838114Y954305D01*
X837819Y954532D01*
X813435Y942340D02*
X813439Y941975D01*
X813452Y941610D01*
X813474Y941246D01*
X813505Y940883D01*
X813544Y940520D01*
X813592Y940158D01*
X813649Y939798D01*
X813714Y939439D01*
X813787Y939081D01*
X813870Y938726D01*
X813960Y938373D01*
X814060Y938021D01*
X814167Y937673D01*
X814283Y937327D01*
X814407Y936984D01*
X814540Y936644D01*
X814680Y936307D01*
X814828Y935974D01*
X814985Y935644D01*
X815149Y935318D01*
X815321Y934996D01*
X815501Y934679D01*
X815688Y934366D01*
X815882Y934057D01*
X816084Y933753D01*
X816294Y933454D01*
X816510Y933160D01*
X816733Y932872D01*
X816963Y932589D01*
X817200Y932311D01*
X817443Y932039D01*
X817693Y931773D01*
X817949Y931513D01*
X818212Y931260D01*
X818480Y931012D01*
X818754Y930772D01*
X819034Y930537D01*
X819319Y930310D01*
X813435Y942340D02*
X813439Y942705D01*
X813452Y943070D01*
X813474Y943434D01*
X813505Y943797D01*
X813544Y944160D01*
X813592Y944522D01*
X813649Y944882D01*
X813714Y945241D01*
X813787Y945599D01*
X813870Y945954D01*
X813960Y946307D01*
X814060Y946659D01*
X814167Y947007D01*
X814283Y947353D01*
X814407Y947696D01*
X814540Y948036D01*
X814680Y948373D01*
X814828Y948706D01*
X814985Y949036D01*
X815149Y949362D01*
X815321Y949684D01*
X815501Y950001D01*
X815688Y950314D01*
X815882Y950623D01*
X816084Y950927D01*
X816294Y951226D01*
X816510Y951520D01*
X816733Y951808D01*
X816963Y952091D01*
X817200Y952369D01*
X817443Y952641D01*
X817693Y952907D01*
X817949Y953167D01*
X818212Y953420D01*
X818480Y953668D01*
X818754Y953908D01*
X819034Y954143D01*
X819319Y954370D01*
D18*
X848995Y942340D02*
X848989Y941846D01*
X848971Y941352D01*
X848941Y940858D01*
X848899Y940365D01*
X848845Y939874D01*
X848779Y939384D01*
X848701Y938896D01*
X848611Y938409D01*
X848510Y937925D01*
X848396Y937444D01*
X848271Y936966D01*
X848135Y936490D01*
X847987Y936019D01*
X847827Y935551D01*
X847656Y935087D01*
X847474Y934627D01*
X847281Y934172D01*
X847077Y933721D01*
X846862Y933276D01*
X846636Y932836D01*
X846399Y932402D01*
X846152Y931974D01*
X845895Y931552D01*
X845627Y931136D01*
X845349Y930727D01*
X845062Y930325D01*
X844765Y929929D01*
X844458Y929542D01*
X844142Y929161D01*
X843817Y928789D01*
X843482Y928424D01*
X843139Y928068D01*
X842788Y927721D01*
X842428Y927381D01*
X842060Y927051D01*
X841684Y926730D01*
X848995Y942340D02*
X848989Y942828D01*
X848972Y943315D01*
X848942Y943802D01*
X848901Y944289D01*
X848849Y944774D01*
X848784Y945258D01*
X848708Y945740D01*
X848621Y946220D01*
X848522Y946698D01*
X848412Y947173D01*
X848290Y947646D01*
X848157Y948115D01*
X848012Y948582D01*
X847857Y949044D01*
X847690Y949503D01*
X847513Y949958D01*
X847324Y950408D01*
X847125Y950853D01*
X846915Y951294D01*
X846695Y951730D01*
X846464Y952160D01*
X846223Y952584D01*
X845972Y953002D01*
X845711Y953415D01*
X845440Y953821D01*
X845160Y954220D01*
X844870Y954613D01*
X844570Y954998D01*
X844261Y955376D01*
X843944Y955747D01*
X843617Y956109D01*
X843282Y956464D01*
X842939Y956811D01*
X842587Y957149D01*
X842228Y957479D01*
X841860Y957800D01*
X841485Y958113D01*
X841102Y958416D01*
X840713Y958710D01*
X840316Y958994D01*
X839913Y959269D01*
X839503Y959534D01*
X839087Y959789D01*
X838665Y960034D01*
X838237Y960269D01*
X808355Y942340D02*
X808361Y941850D01*
X808379Y941360D01*
X808408Y940871D01*
X808450Y940382D01*
X808503Y939895D01*
X808567Y939409D01*
X808644Y938925D01*
X808732Y938443D01*
X808832Y937963D01*
X808943Y937485D01*
X809066Y937011D01*
X809201Y936539D01*
X809346Y936071D01*
X809503Y935607D01*
X809671Y935146D01*
X809850Y934690D01*
X810040Y934238D01*
X810241Y933791D01*
X810453Y933349D01*
X810675Y932912D01*
X810907Y932480D01*
X811150Y932054D01*
X811404Y931635D01*
X811667Y931221D01*
X811940Y930814D01*
X812223Y930414D01*
X812516Y930020D01*
X812817Y929634D01*
X813129Y929255D01*
X813449Y928884D01*
X813778Y928521D01*
X814115Y928165D01*
X814462Y927818D01*
X814816Y927480D01*
X815179Y927150D01*
X815549Y926828D01*
X808355Y942340D02*
X808361Y942837D01*
X808379Y943334D01*
X808410Y943830D01*
X808452Y944325D01*
X808507Y944819D01*
X808573Y945312D01*
X808652Y945802D01*
X808743Y946291D01*
X808845Y946777D01*
X808960Y947261D01*
X809086Y947741D01*
X809224Y948219D01*
X809373Y948693D01*
X809534Y949163D01*
X809707Y949629D01*
X809891Y950091D01*
X810086Y950548D01*
X810292Y951000D01*
X810509Y951447D01*
X810738Y951888D01*
X810976Y952324D01*
X811226Y952754D01*
X811486Y953177D01*
X811756Y953595D01*
X812036Y954005D01*
X812326Y954408D01*
X812626Y954805D01*
X812936Y955193D01*
X813255Y955574D01*
X813583Y955947D01*
X813920Y956312D01*
X814266Y956669D01*
X814621Y957017D01*
X814984Y957356D01*
X815355Y957687D01*
X815735Y958008D01*
X816122Y958320D01*
X816516Y958622D01*
X816918Y958914D01*
X817327Y959197D01*
X817742Y959469D01*
X818165Y959732D01*
X818593Y959983D01*
D11*
X833120Y884707D02*
X844550Y884707D01*
X844550Y889787D01*
X844550Y894613D02*
X844550Y899693D01*
X844550Y894613D02*
X833120Y894613D01*
X833120Y899693D01*
X838200Y898423D02*
X838200Y894613D01*
X833120Y904494D02*
X844550Y904494D01*
X833120Y904494D02*
X833120Y907669D01*
X833122Y907780D01*
X833128Y907890D01*
X833137Y908001D01*
X833151Y908111D01*
X833168Y908220D01*
X833189Y908329D01*
X833214Y908437D01*
X833243Y908544D01*
X833275Y908650D01*
X833311Y908755D01*
X833351Y908858D01*
X833394Y908960D01*
X833441Y909061D01*
X833492Y909160D01*
X833545Y909257D01*
X833602Y909351D01*
X833663Y909444D01*
X833726Y909535D01*
X833793Y909624D01*
X833863Y909710D01*
X833936Y909793D01*
X834011Y909875D01*
X834089Y909953D01*
X834171Y910028D01*
X834254Y910101D01*
X834340Y910171D01*
X834429Y910238D01*
X834520Y910301D01*
X834613Y910362D01*
X834708Y910419D01*
X834804Y910472D01*
X834903Y910523D01*
X835004Y910570D01*
X835106Y910613D01*
X835209Y910653D01*
X835314Y910689D01*
X835420Y910721D01*
X835527Y910750D01*
X835635Y910775D01*
X835744Y910796D01*
X835853Y910813D01*
X835963Y910827D01*
X836074Y910836D01*
X836184Y910842D01*
X836295Y910844D01*
X841375Y910844D01*
X841486Y910842D01*
X841596Y910836D01*
X841707Y910827D01*
X841817Y910813D01*
X841926Y910796D01*
X842035Y910775D01*
X842143Y910750D01*
X842250Y910721D01*
X842356Y910689D01*
X842461Y910653D01*
X842564Y910613D01*
X842666Y910570D01*
X842767Y910523D01*
X842866Y910472D01*
X842963Y910419D01*
X843057Y910362D01*
X843150Y910301D01*
X843241Y910238D01*
X843330Y910171D01*
X843416Y910101D01*
X843499Y910028D01*
X843581Y909953D01*
X843659Y909875D01*
X843734Y909793D01*
X843807Y909710D01*
X843877Y909624D01*
X843944Y909535D01*
X844007Y909444D01*
X844068Y909351D01*
X844125Y909257D01*
X844178Y909160D01*
X844229Y909061D01*
X844276Y908960D01*
X844319Y908858D01*
X844359Y908755D01*
X844395Y908650D01*
X844427Y908544D01*
X844456Y908437D01*
X844481Y908329D01*
X844502Y908220D01*
X844519Y908111D01*
X844533Y908001D01*
X844542Y907890D01*
X844548Y907780D01*
X844550Y907669D01*
X844550Y904494D01*
X833120Y919798D02*
X833122Y919902D01*
X833128Y920007D01*
X833137Y920111D01*
X833150Y920214D01*
X833168Y920317D01*
X833188Y920419D01*
X833213Y920521D01*
X833241Y920621D01*
X833273Y920721D01*
X833309Y920819D01*
X833348Y920916D01*
X833390Y921011D01*
X833436Y921105D01*
X833486Y921197D01*
X833538Y921287D01*
X833594Y921375D01*
X833654Y921461D01*
X833716Y921545D01*
X833781Y921626D01*
X833849Y921705D01*
X833921Y921782D01*
X833994Y921855D01*
X834071Y921927D01*
X834150Y921995D01*
X834231Y922060D01*
X834315Y922122D01*
X834401Y922182D01*
X834489Y922238D01*
X834579Y922290D01*
X834671Y922340D01*
X834765Y922386D01*
X834860Y922428D01*
X834957Y922467D01*
X835055Y922503D01*
X835155Y922535D01*
X835255Y922563D01*
X835357Y922588D01*
X835459Y922608D01*
X835562Y922626D01*
X835665Y922639D01*
X835769Y922648D01*
X835874Y922654D01*
X835978Y922656D01*
X833120Y919798D02*
X833122Y919680D01*
X833128Y919561D01*
X833137Y919443D01*
X833150Y919326D01*
X833168Y919209D01*
X833188Y919092D01*
X833213Y918976D01*
X833241Y918861D01*
X833274Y918748D01*
X833309Y918635D01*
X833349Y918523D01*
X833391Y918413D01*
X833438Y918304D01*
X833488Y918196D01*
X833541Y918091D01*
X833598Y917987D01*
X833658Y917885D01*
X833721Y917785D01*
X833788Y917687D01*
X833857Y917591D01*
X833930Y917498D01*
X834006Y917407D01*
X834084Y917318D01*
X834166Y917232D01*
X834250Y917149D01*
X834336Y917068D01*
X834426Y916991D01*
X834517Y916916D01*
X834611Y916844D01*
X834708Y916775D01*
X834806Y916710D01*
X834907Y916647D01*
X835010Y916588D01*
X835114Y916532D01*
X835220Y916480D01*
X835328Y916431D01*
X835437Y916386D01*
X835548Y916344D01*
X835660Y916306D01*
X838200Y921703D02*
X838125Y921779D01*
X838046Y921854D01*
X837965Y921925D01*
X837881Y921994D01*
X837795Y922059D01*
X837707Y922121D01*
X837617Y922181D01*
X837525Y922237D01*
X837430Y922290D01*
X837334Y922339D01*
X837236Y922385D01*
X837137Y922428D01*
X837036Y922467D01*
X836934Y922502D01*
X836831Y922534D01*
X836727Y922562D01*
X836622Y922587D01*
X836515Y922608D01*
X836409Y922625D01*
X836302Y922638D01*
X836194Y922647D01*
X836086Y922653D01*
X835978Y922655D01*
X838200Y921703D02*
X844550Y916305D01*
X844550Y922655D01*
D10*
X761365Y810260D02*
X761367Y810160D01*
X761373Y810061D01*
X761383Y809961D01*
X761396Y809863D01*
X761414Y809764D01*
X761435Y809667D01*
X761460Y809571D01*
X761489Y809475D01*
X761522Y809381D01*
X761558Y809288D01*
X761598Y809197D01*
X761642Y809107D01*
X761689Y809019D01*
X761739Y808933D01*
X761793Y808849D01*
X761850Y808767D01*
X761910Y808688D01*
X761974Y808610D01*
X762040Y808536D01*
X762109Y808464D01*
X762181Y808395D01*
X762255Y808329D01*
X762333Y808265D01*
X762412Y808205D01*
X762494Y808148D01*
X762578Y808094D01*
X762664Y808044D01*
X762752Y807997D01*
X762842Y807953D01*
X762933Y807913D01*
X763026Y807877D01*
X763120Y807844D01*
X763216Y807815D01*
X763312Y807790D01*
X763409Y807769D01*
X763508Y807751D01*
X763606Y807738D01*
X763706Y807728D01*
X763805Y807722D01*
X763905Y807720D01*
X789305Y807720D02*
X789405Y807722D01*
X789504Y807728D01*
X789604Y807738D01*
X789702Y807751D01*
X789801Y807769D01*
X789898Y807790D01*
X789994Y807815D01*
X790090Y807844D01*
X790184Y807877D01*
X790277Y807913D01*
X790368Y807953D01*
X790458Y807997D01*
X790546Y808044D01*
X790632Y808094D01*
X790716Y808148D01*
X790798Y808205D01*
X790877Y808265D01*
X790955Y808329D01*
X791029Y808395D01*
X791101Y808464D01*
X791170Y808536D01*
X791236Y808610D01*
X791300Y808688D01*
X791360Y808767D01*
X791417Y808849D01*
X791471Y808933D01*
X791521Y809019D01*
X791568Y809107D01*
X791612Y809197D01*
X791652Y809288D01*
X791688Y809381D01*
X791721Y809475D01*
X791750Y809571D01*
X791775Y809667D01*
X791796Y809764D01*
X791814Y809863D01*
X791827Y809961D01*
X791837Y810061D01*
X791843Y810160D01*
X791845Y810260D01*
X791845Y891540D02*
X791843Y891640D01*
X791837Y891739D01*
X791827Y891839D01*
X791814Y891937D01*
X791796Y892036D01*
X791775Y892133D01*
X791750Y892229D01*
X791721Y892325D01*
X791688Y892419D01*
X791652Y892512D01*
X791612Y892603D01*
X791568Y892693D01*
X791521Y892781D01*
X791471Y892867D01*
X791417Y892951D01*
X791360Y893033D01*
X791300Y893112D01*
X791236Y893190D01*
X791170Y893264D01*
X791101Y893336D01*
X791029Y893405D01*
X790955Y893471D01*
X790877Y893535D01*
X790798Y893595D01*
X790716Y893652D01*
X790632Y893706D01*
X790546Y893756D01*
X790458Y893803D01*
X790368Y893847D01*
X790277Y893887D01*
X790184Y893923D01*
X790090Y893956D01*
X789994Y893985D01*
X789898Y894010D01*
X789801Y894031D01*
X789702Y894049D01*
X789604Y894062D01*
X789504Y894072D01*
X789405Y894078D01*
X789305Y894080D01*
X763905Y894080D02*
X763805Y894078D01*
X763706Y894072D01*
X763606Y894062D01*
X763508Y894049D01*
X763409Y894031D01*
X763312Y894010D01*
X763216Y893985D01*
X763120Y893956D01*
X763026Y893923D01*
X762933Y893887D01*
X762842Y893847D01*
X762752Y893803D01*
X762664Y893756D01*
X762578Y893706D01*
X762494Y893652D01*
X762412Y893595D01*
X762333Y893535D01*
X762255Y893471D01*
X762181Y893405D01*
X762109Y893336D01*
X762040Y893264D01*
X761974Y893190D01*
X761910Y893112D01*
X761850Y893033D01*
X761793Y892951D01*
X761739Y892867D01*
X761689Y892781D01*
X761642Y892693D01*
X761598Y892603D01*
X761558Y892512D01*
X761522Y892419D01*
X761489Y892325D01*
X761460Y892229D01*
X761435Y892133D01*
X761414Y892036D01*
X761396Y891937D01*
X761383Y891839D01*
X761373Y891739D01*
X761367Y891640D01*
X761365Y891540D01*
X761365Y816610D02*
X761365Y810260D01*
X761365Y816610D02*
X762635Y817880D01*
X791845Y816610D02*
X791845Y810260D01*
X791845Y816610D02*
X790575Y817880D01*
X762635Y883920D02*
X761365Y885190D01*
X762635Y883920D02*
X762635Y817880D01*
X790575Y883920D02*
X791845Y885190D01*
X790575Y883920D02*
X790575Y817880D01*
X761365Y885190D02*
X761365Y891540D01*
X791845Y891540D02*
X791845Y885190D01*
D11*
X756920Y809625D02*
X745490Y809625D01*
X745490Y812800D01*
X745492Y812911D01*
X745498Y813021D01*
X745507Y813132D01*
X745521Y813242D01*
X745538Y813351D01*
X745559Y813460D01*
X745584Y813568D01*
X745613Y813675D01*
X745645Y813781D01*
X745681Y813886D01*
X745721Y813989D01*
X745764Y814091D01*
X745811Y814192D01*
X745862Y814291D01*
X745915Y814388D01*
X745972Y814482D01*
X746033Y814575D01*
X746096Y814666D01*
X746163Y814755D01*
X746233Y814841D01*
X746306Y814924D01*
X746381Y815006D01*
X746459Y815084D01*
X746541Y815159D01*
X746624Y815232D01*
X746710Y815302D01*
X746799Y815369D01*
X746890Y815432D01*
X746983Y815493D01*
X747078Y815550D01*
X747174Y815603D01*
X747273Y815654D01*
X747374Y815701D01*
X747476Y815744D01*
X747579Y815784D01*
X747684Y815820D01*
X747790Y815852D01*
X747897Y815881D01*
X748005Y815906D01*
X748114Y815927D01*
X748223Y815944D01*
X748333Y815958D01*
X748444Y815967D01*
X748554Y815973D01*
X748665Y815975D01*
X748776Y815973D01*
X748886Y815967D01*
X748997Y815958D01*
X749107Y815944D01*
X749216Y815927D01*
X749325Y815906D01*
X749433Y815881D01*
X749540Y815852D01*
X749646Y815820D01*
X749751Y815784D01*
X749854Y815744D01*
X749956Y815701D01*
X750057Y815654D01*
X750156Y815603D01*
X750253Y815550D01*
X750347Y815493D01*
X750440Y815432D01*
X750531Y815369D01*
X750620Y815302D01*
X750706Y815232D01*
X750789Y815159D01*
X750871Y815084D01*
X750949Y815006D01*
X751024Y814924D01*
X751097Y814841D01*
X751167Y814755D01*
X751234Y814666D01*
X751297Y814575D01*
X751358Y814482D01*
X751415Y814388D01*
X751468Y814291D01*
X751519Y814192D01*
X751566Y814091D01*
X751609Y813989D01*
X751649Y813886D01*
X751685Y813781D01*
X751717Y813675D01*
X751746Y813568D01*
X751771Y813460D01*
X751792Y813351D01*
X751809Y813242D01*
X751823Y813132D01*
X751832Y813021D01*
X751838Y812911D01*
X751840Y812800D01*
X751840Y809625D01*
X751840Y813435D02*
X756920Y815975D01*
X748030Y820972D02*
X745490Y824147D01*
X756920Y824147D01*
X756920Y820972D02*
X756920Y827322D01*
D10*
X812800Y809625D02*
X812802Y809525D01*
X812808Y809426D01*
X812818Y809326D01*
X812831Y809228D01*
X812849Y809129D01*
X812870Y809032D01*
X812895Y808936D01*
X812924Y808840D01*
X812957Y808746D01*
X812993Y808653D01*
X813033Y808562D01*
X813077Y808472D01*
X813124Y808384D01*
X813174Y808298D01*
X813228Y808214D01*
X813285Y808132D01*
X813345Y808053D01*
X813409Y807975D01*
X813475Y807901D01*
X813544Y807829D01*
X813616Y807760D01*
X813690Y807694D01*
X813768Y807630D01*
X813847Y807570D01*
X813929Y807513D01*
X814013Y807459D01*
X814099Y807409D01*
X814187Y807362D01*
X814277Y807318D01*
X814368Y807278D01*
X814461Y807242D01*
X814555Y807209D01*
X814651Y807180D01*
X814747Y807155D01*
X814844Y807134D01*
X814943Y807116D01*
X815041Y807103D01*
X815141Y807093D01*
X815240Y807087D01*
X815340Y807085D01*
X840740Y807085D02*
X840840Y807087D01*
X840939Y807093D01*
X841039Y807103D01*
X841137Y807116D01*
X841236Y807134D01*
X841333Y807155D01*
X841429Y807180D01*
X841525Y807209D01*
X841619Y807242D01*
X841712Y807278D01*
X841803Y807318D01*
X841893Y807362D01*
X841981Y807409D01*
X842067Y807459D01*
X842151Y807513D01*
X842233Y807570D01*
X842312Y807630D01*
X842390Y807694D01*
X842464Y807760D01*
X842536Y807829D01*
X842605Y807901D01*
X842671Y807975D01*
X842735Y808053D01*
X842795Y808132D01*
X842852Y808214D01*
X842906Y808298D01*
X842956Y808384D01*
X843003Y808472D01*
X843047Y808562D01*
X843087Y808653D01*
X843123Y808746D01*
X843156Y808840D01*
X843185Y808936D01*
X843210Y809032D01*
X843231Y809129D01*
X843249Y809228D01*
X843262Y809326D01*
X843272Y809426D01*
X843278Y809525D01*
X843280Y809625D01*
X843280Y890905D02*
X843278Y891005D01*
X843272Y891104D01*
X843262Y891204D01*
X843249Y891302D01*
X843231Y891401D01*
X843210Y891498D01*
X843185Y891594D01*
X843156Y891690D01*
X843123Y891784D01*
X843087Y891877D01*
X843047Y891968D01*
X843003Y892058D01*
X842956Y892146D01*
X842906Y892232D01*
X842852Y892316D01*
X842795Y892398D01*
X842735Y892477D01*
X842671Y892555D01*
X842605Y892629D01*
X842536Y892701D01*
X842464Y892770D01*
X842390Y892836D01*
X842312Y892900D01*
X842233Y892960D01*
X842151Y893017D01*
X842067Y893071D01*
X841981Y893121D01*
X841893Y893168D01*
X841803Y893212D01*
X841712Y893252D01*
X841619Y893288D01*
X841525Y893321D01*
X841429Y893350D01*
X841333Y893375D01*
X841236Y893396D01*
X841137Y893414D01*
X841039Y893427D01*
X840939Y893437D01*
X840840Y893443D01*
X840740Y893445D01*
X815340Y893445D02*
X815240Y893443D01*
X815141Y893437D01*
X815041Y893427D01*
X814943Y893414D01*
X814844Y893396D01*
X814747Y893375D01*
X814651Y893350D01*
X814555Y893321D01*
X814461Y893288D01*
X814368Y893252D01*
X814277Y893212D01*
X814187Y893168D01*
X814099Y893121D01*
X814013Y893071D01*
X813929Y893017D01*
X813847Y892960D01*
X813768Y892900D01*
X813690Y892836D01*
X813616Y892770D01*
X813544Y892701D01*
X813475Y892629D01*
X813409Y892555D01*
X813345Y892477D01*
X813285Y892398D01*
X813228Y892316D01*
X813174Y892232D01*
X813124Y892146D01*
X813077Y892058D01*
X813033Y891968D01*
X812993Y891877D01*
X812957Y891784D01*
X812924Y891690D01*
X812895Y891594D01*
X812870Y891498D01*
X812849Y891401D01*
X812831Y891302D01*
X812818Y891204D01*
X812808Y891104D01*
X812802Y891005D01*
X812800Y890905D01*
X812800Y815975D02*
X812800Y809625D01*
X812800Y815975D02*
X814070Y817245D01*
X843280Y815975D02*
X843280Y809625D01*
X843280Y815975D02*
X842010Y817245D01*
X814070Y883285D02*
X812800Y884555D01*
X814070Y883285D02*
X814070Y817245D01*
X842010Y883285D02*
X843280Y884555D01*
X842010Y883285D02*
X842010Y817245D01*
X812800Y884555D02*
X812800Y890905D01*
X843280Y890905D02*
X843280Y884555D01*
D11*
X808355Y808990D02*
X796925Y808990D01*
X796925Y812165D01*
X796927Y812276D01*
X796933Y812386D01*
X796942Y812497D01*
X796956Y812607D01*
X796973Y812716D01*
X796994Y812825D01*
X797019Y812933D01*
X797048Y813040D01*
X797080Y813146D01*
X797116Y813251D01*
X797156Y813354D01*
X797199Y813456D01*
X797246Y813557D01*
X797297Y813656D01*
X797350Y813753D01*
X797407Y813847D01*
X797468Y813940D01*
X797531Y814031D01*
X797598Y814120D01*
X797668Y814206D01*
X797741Y814289D01*
X797816Y814371D01*
X797894Y814449D01*
X797976Y814524D01*
X798059Y814597D01*
X798145Y814667D01*
X798234Y814734D01*
X798325Y814797D01*
X798418Y814858D01*
X798513Y814915D01*
X798609Y814968D01*
X798708Y815019D01*
X798809Y815066D01*
X798911Y815109D01*
X799014Y815149D01*
X799119Y815185D01*
X799225Y815217D01*
X799332Y815246D01*
X799440Y815271D01*
X799549Y815292D01*
X799658Y815309D01*
X799768Y815323D01*
X799879Y815332D01*
X799989Y815338D01*
X800100Y815340D01*
X800211Y815338D01*
X800321Y815332D01*
X800432Y815323D01*
X800542Y815309D01*
X800651Y815292D01*
X800760Y815271D01*
X800868Y815246D01*
X800975Y815217D01*
X801081Y815185D01*
X801186Y815149D01*
X801289Y815109D01*
X801391Y815066D01*
X801492Y815019D01*
X801591Y814968D01*
X801688Y814915D01*
X801782Y814858D01*
X801875Y814797D01*
X801966Y814734D01*
X802055Y814667D01*
X802141Y814597D01*
X802224Y814524D01*
X802306Y814449D01*
X802384Y814371D01*
X802459Y814289D01*
X802532Y814206D01*
X802602Y814120D01*
X802669Y814031D01*
X802732Y813940D01*
X802793Y813847D01*
X802850Y813753D01*
X802903Y813656D01*
X802954Y813557D01*
X803001Y813456D01*
X803044Y813354D01*
X803084Y813251D01*
X803120Y813146D01*
X803152Y813040D01*
X803181Y812933D01*
X803206Y812825D01*
X803227Y812716D01*
X803244Y812607D01*
X803258Y812497D01*
X803267Y812386D01*
X803273Y812276D01*
X803275Y812165D01*
X803275Y808990D01*
X803275Y812800D02*
X808355Y815340D01*
X799783Y826688D02*
X799679Y826686D01*
X799574Y826680D01*
X799470Y826671D01*
X799367Y826658D01*
X799264Y826640D01*
X799162Y826620D01*
X799060Y826595D01*
X798960Y826567D01*
X798860Y826535D01*
X798762Y826499D01*
X798665Y826460D01*
X798570Y826418D01*
X798476Y826372D01*
X798384Y826322D01*
X798294Y826270D01*
X798206Y826214D01*
X798120Y826154D01*
X798036Y826092D01*
X797955Y826027D01*
X797876Y825959D01*
X797799Y825887D01*
X797726Y825814D01*
X797654Y825737D01*
X797586Y825658D01*
X797521Y825577D01*
X797459Y825493D01*
X797399Y825407D01*
X797343Y825319D01*
X797291Y825229D01*
X797241Y825137D01*
X797195Y825043D01*
X797153Y824948D01*
X797114Y824851D01*
X797078Y824753D01*
X797046Y824653D01*
X797018Y824553D01*
X796993Y824451D01*
X796973Y824349D01*
X796955Y824246D01*
X796942Y824143D01*
X796933Y824039D01*
X796927Y823934D01*
X796925Y823830D01*
X796927Y823712D01*
X796933Y823593D01*
X796942Y823475D01*
X796955Y823358D01*
X796973Y823241D01*
X796993Y823124D01*
X797018Y823008D01*
X797046Y822893D01*
X797079Y822780D01*
X797114Y822667D01*
X797154Y822555D01*
X797196Y822445D01*
X797243Y822336D01*
X797293Y822228D01*
X797346Y822123D01*
X797403Y822019D01*
X797463Y821917D01*
X797526Y821817D01*
X797593Y821719D01*
X797662Y821623D01*
X797735Y821530D01*
X797811Y821439D01*
X797889Y821350D01*
X797971Y821264D01*
X798055Y821181D01*
X798141Y821100D01*
X798231Y821023D01*
X798322Y820948D01*
X798416Y820876D01*
X798513Y820807D01*
X798611Y820742D01*
X798712Y820679D01*
X798815Y820620D01*
X798919Y820564D01*
X799025Y820512D01*
X799133Y820463D01*
X799242Y820418D01*
X799353Y820376D01*
X799465Y820338D01*
X802005Y825735D02*
X801930Y825811D01*
X801851Y825886D01*
X801770Y825957D01*
X801686Y826026D01*
X801600Y826091D01*
X801512Y826153D01*
X801422Y826213D01*
X801330Y826269D01*
X801235Y826322D01*
X801139Y826371D01*
X801041Y826417D01*
X800942Y826460D01*
X800841Y826499D01*
X800739Y826534D01*
X800636Y826566D01*
X800532Y826594D01*
X800427Y826619D01*
X800320Y826640D01*
X800214Y826657D01*
X800107Y826670D01*
X799999Y826679D01*
X799891Y826685D01*
X799783Y826687D01*
X802005Y825735D02*
X808355Y820337D01*
X808355Y826687D01*
D19*
X122555Y493395D02*
X79375Y493395D01*
X79375Y554355D02*
X122555Y554355D01*
X70485Y534035D02*
X70485Y513895D01*
X131445Y513595D02*
X131445Y534035D01*
X83185Y523875D02*
X83190Y524311D01*
X83206Y524747D01*
X83233Y525183D01*
X83271Y525618D01*
X83319Y526051D01*
X83377Y526484D01*
X83447Y526915D01*
X83527Y527344D01*
X83617Y527771D01*
X83718Y528195D01*
X83829Y528617D01*
X83951Y529036D01*
X84082Y529452D01*
X84224Y529865D01*
X84376Y530274D01*
X84538Y530679D01*
X84710Y531080D01*
X84892Y531477D01*
X85083Y531869D01*
X85284Y532256D01*
X85495Y532639D01*
X85715Y533016D01*
X85944Y533387D01*
X86181Y533753D01*
X86428Y534113D01*
X86684Y534467D01*
X86948Y534814D01*
X87221Y535155D01*
X87502Y535488D01*
X87791Y535815D01*
X88088Y536135D01*
X88393Y536447D01*
X88705Y536752D01*
X89025Y537049D01*
X89352Y537338D01*
X89685Y537619D01*
X90026Y537892D01*
X90373Y538156D01*
X90727Y538412D01*
X91087Y538659D01*
X91453Y538896D01*
X91824Y539125D01*
X92201Y539345D01*
X92584Y539556D01*
X92971Y539757D01*
X93363Y539948D01*
X93760Y540130D01*
X94161Y540302D01*
X94566Y540464D01*
X94975Y540616D01*
X95388Y540758D01*
X95804Y540889D01*
X96223Y541011D01*
X96645Y541122D01*
X97069Y541223D01*
X97496Y541313D01*
X97925Y541393D01*
X98356Y541463D01*
X98789Y541521D01*
X99222Y541569D01*
X99657Y541607D01*
X100093Y541634D01*
X100529Y541650D01*
X100965Y541655D01*
X101401Y541650D01*
X101837Y541634D01*
X102273Y541607D01*
X102708Y541569D01*
X103141Y541521D01*
X103574Y541463D01*
X104005Y541393D01*
X104434Y541313D01*
X104861Y541223D01*
X105285Y541122D01*
X105707Y541011D01*
X106126Y540889D01*
X106542Y540758D01*
X106955Y540616D01*
X107364Y540464D01*
X107769Y540302D01*
X108170Y540130D01*
X108567Y539948D01*
X108959Y539757D01*
X109346Y539556D01*
X109729Y539345D01*
X110106Y539125D01*
X110477Y538896D01*
X110843Y538659D01*
X111203Y538412D01*
X111557Y538156D01*
X111904Y537892D01*
X112245Y537619D01*
X112578Y537338D01*
X112905Y537049D01*
X113225Y536752D01*
X113537Y536447D01*
X113842Y536135D01*
X114139Y535815D01*
X114428Y535488D01*
X114709Y535155D01*
X114982Y534814D01*
X115246Y534467D01*
X115502Y534113D01*
X115749Y533753D01*
X115986Y533387D01*
X116215Y533016D01*
X116435Y532639D01*
X116646Y532256D01*
X116847Y531869D01*
X117038Y531477D01*
X117220Y531080D01*
X117392Y530679D01*
X117554Y530274D01*
X117706Y529865D01*
X117848Y529452D01*
X117979Y529036D01*
X118101Y528617D01*
X118212Y528195D01*
X118313Y527771D01*
X118403Y527344D01*
X118483Y526915D01*
X118553Y526484D01*
X118611Y526051D01*
X118659Y525618D01*
X118697Y525183D01*
X118724Y524747D01*
X118740Y524311D01*
X118745Y523875D01*
X118740Y523439D01*
X118724Y523003D01*
X118697Y522567D01*
X118659Y522132D01*
X118611Y521699D01*
X118553Y521266D01*
X118483Y520835D01*
X118403Y520406D01*
X118313Y519979D01*
X118212Y519555D01*
X118101Y519133D01*
X117979Y518714D01*
X117848Y518298D01*
X117706Y517885D01*
X117554Y517476D01*
X117392Y517071D01*
X117220Y516670D01*
X117038Y516273D01*
X116847Y515881D01*
X116646Y515494D01*
X116435Y515111D01*
X116215Y514734D01*
X115986Y514363D01*
X115749Y513997D01*
X115502Y513637D01*
X115246Y513283D01*
X114982Y512936D01*
X114709Y512595D01*
X114428Y512262D01*
X114139Y511935D01*
X113842Y511615D01*
X113537Y511303D01*
X113225Y510998D01*
X112905Y510701D01*
X112578Y510412D01*
X112245Y510131D01*
X111904Y509858D01*
X111557Y509594D01*
X111203Y509338D01*
X110843Y509091D01*
X110477Y508854D01*
X110106Y508625D01*
X109729Y508405D01*
X109346Y508194D01*
X108959Y507993D01*
X108567Y507802D01*
X108170Y507620D01*
X107769Y507448D01*
X107364Y507286D01*
X106955Y507134D01*
X106542Y506992D01*
X106126Y506861D01*
X105707Y506739D01*
X105285Y506628D01*
X104861Y506527D01*
X104434Y506437D01*
X104005Y506357D01*
X103574Y506287D01*
X103141Y506229D01*
X102708Y506181D01*
X102273Y506143D01*
X101837Y506116D01*
X101401Y506100D01*
X100965Y506095D01*
X100529Y506100D01*
X100093Y506116D01*
X99657Y506143D01*
X99222Y506181D01*
X98789Y506229D01*
X98356Y506287D01*
X97925Y506357D01*
X97496Y506437D01*
X97069Y506527D01*
X96645Y506628D01*
X96223Y506739D01*
X95804Y506861D01*
X95388Y506992D01*
X94975Y507134D01*
X94566Y507286D01*
X94161Y507448D01*
X93760Y507620D01*
X93363Y507802D01*
X92971Y507993D01*
X92584Y508194D01*
X92201Y508405D01*
X91824Y508625D01*
X91453Y508854D01*
X91087Y509091D01*
X90727Y509338D01*
X90373Y509594D01*
X90026Y509858D01*
X89685Y510131D01*
X89352Y510412D01*
X89025Y510701D01*
X88705Y510998D01*
X88393Y511303D01*
X88088Y511615D01*
X87791Y511935D01*
X87502Y512262D01*
X87221Y512595D01*
X86948Y512936D01*
X86684Y513283D01*
X86428Y513637D01*
X86181Y513997D01*
X85944Y514363D01*
X85715Y514734D01*
X85495Y515111D01*
X85284Y515494D01*
X85083Y515881D01*
X84892Y516273D01*
X84710Y516670D01*
X84538Y517071D01*
X84376Y517476D01*
X84224Y517885D01*
X84082Y518298D01*
X83951Y518714D01*
X83829Y519133D01*
X83718Y519555D01*
X83617Y519979D01*
X83527Y520406D01*
X83447Y520835D01*
X83377Y521266D01*
X83319Y521699D01*
X83271Y522132D01*
X83233Y522567D01*
X83206Y523003D01*
X83190Y523439D01*
X83185Y523875D01*
D20*
X546100Y377340D03*
X546100Y357340D03*
X546100Y337340D03*
X546100Y317340D03*
X546100Y297340D03*
X546100Y277340D03*
X546100Y257340D03*
X546100Y237340D03*
D11*
X241800Y749600D02*
X241800Y979600D01*
X241800Y749600D02*
X621800Y749600D01*
X621800Y979600D01*
X241800Y979600D01*
D21*
X392308Y871792D02*
X392308Y860108D01*
X392308Y866599D02*
X398799Y866599D01*
X398799Y871792D02*
X398799Y860108D01*
X404523Y860108D02*
X404523Y871792D01*
X404523Y860108D02*
X409715Y860108D01*
X414575Y860108D02*
X414575Y871792D01*
X421066Y871792D02*
X414575Y864652D01*
X417172Y867248D02*
X421066Y860108D01*
X425568Y864652D02*
X433357Y864652D01*
X438409Y860108D02*
X442304Y860108D01*
X442403Y860110D01*
X442503Y860116D01*
X442602Y860125D01*
X442700Y860138D01*
X442798Y860155D01*
X442896Y860176D01*
X442992Y860201D01*
X443087Y860229D01*
X443181Y860261D01*
X443274Y860296D01*
X443366Y860335D01*
X443456Y860378D01*
X443544Y860423D01*
X443631Y860473D01*
X443715Y860525D01*
X443798Y860581D01*
X443878Y860639D01*
X443956Y860701D01*
X444031Y860766D01*
X444104Y860834D01*
X444174Y860904D01*
X444242Y860977D01*
X444307Y861052D01*
X444369Y861130D01*
X444427Y861210D01*
X444483Y861293D01*
X444535Y861377D01*
X444585Y861464D01*
X444630Y861552D01*
X444673Y861642D01*
X444712Y861734D01*
X444747Y861827D01*
X444779Y861921D01*
X444807Y862016D01*
X444832Y862112D01*
X444853Y862210D01*
X444870Y862308D01*
X444883Y862406D01*
X444892Y862505D01*
X444898Y862605D01*
X444900Y862704D01*
X444900Y864003D01*
X444898Y864102D01*
X444892Y864202D01*
X444883Y864301D01*
X444870Y864399D01*
X444853Y864497D01*
X444832Y864595D01*
X444807Y864691D01*
X444779Y864786D01*
X444747Y864880D01*
X444712Y864973D01*
X444673Y865065D01*
X444630Y865155D01*
X444585Y865243D01*
X444535Y865330D01*
X444483Y865414D01*
X444427Y865497D01*
X444369Y865577D01*
X444307Y865655D01*
X444242Y865730D01*
X444174Y865803D01*
X444104Y865873D01*
X444031Y865941D01*
X443956Y866006D01*
X443878Y866068D01*
X443798Y866126D01*
X443715Y866182D01*
X443631Y866234D01*
X443544Y866284D01*
X443456Y866329D01*
X443366Y866372D01*
X443274Y866411D01*
X443181Y866446D01*
X443087Y866478D01*
X442992Y866506D01*
X442896Y866531D01*
X442798Y866552D01*
X442700Y866569D01*
X442602Y866582D01*
X442503Y866591D01*
X442403Y866597D01*
X442304Y866599D01*
X438409Y866599D01*
X438409Y871792D01*
X444900Y871792D01*
X450333Y871792D02*
X450333Y860108D01*
X454227Y865301D02*
X450333Y871792D01*
X454227Y865301D02*
X458122Y871792D01*
X458122Y860108D01*
X463555Y865950D02*
X463558Y866180D01*
X463566Y866410D01*
X463580Y866639D01*
X463599Y866868D01*
X463624Y867097D01*
X463654Y867324D01*
X463689Y867552D01*
X463730Y867778D01*
X463776Y868003D01*
X463828Y868227D01*
X463885Y868449D01*
X463947Y868671D01*
X464015Y868890D01*
X464088Y869108D01*
X464166Y869325D01*
X464249Y869539D01*
X464337Y869751D01*
X464430Y869961D01*
X464529Y870169D01*
X464528Y870169D02*
X464561Y870259D01*
X464597Y870348D01*
X464637Y870436D01*
X464681Y870521D01*
X464728Y870605D01*
X464778Y870687D01*
X464832Y870767D01*
X464888Y870844D01*
X464948Y870920D01*
X465011Y870993D01*
X465076Y871063D01*
X465145Y871131D01*
X465216Y871195D01*
X465289Y871257D01*
X465365Y871316D01*
X465443Y871372D01*
X465524Y871425D01*
X465606Y871474D01*
X465690Y871520D01*
X465777Y871563D01*
X465864Y871602D01*
X465954Y871638D01*
X466044Y871670D01*
X466136Y871698D01*
X466229Y871723D01*
X466323Y871744D01*
X466417Y871761D01*
X466512Y871775D01*
X466608Y871784D01*
X466704Y871790D01*
X466800Y871792D01*
X466896Y871790D01*
X466992Y871784D01*
X467088Y871775D01*
X467183Y871761D01*
X467277Y871744D01*
X467371Y871723D01*
X467464Y871698D01*
X467556Y871670D01*
X467646Y871638D01*
X467736Y871602D01*
X467823Y871563D01*
X467910Y871520D01*
X467994Y871474D01*
X468076Y871425D01*
X468157Y871372D01*
X468235Y871316D01*
X468311Y871257D01*
X468384Y871195D01*
X468455Y871131D01*
X468524Y871063D01*
X468589Y870993D01*
X468652Y870920D01*
X468712Y870844D01*
X468768Y870767D01*
X468822Y870687D01*
X468872Y870605D01*
X468919Y870521D01*
X468963Y870436D01*
X469003Y870348D01*
X469039Y870259D01*
X469072Y870169D01*
X469073Y870169D02*
X469172Y869962D01*
X469265Y869752D01*
X469353Y869539D01*
X469436Y869325D01*
X469514Y869109D01*
X469587Y868891D01*
X469655Y868671D01*
X469717Y868450D01*
X469774Y868227D01*
X469826Y868003D01*
X469872Y867778D01*
X469913Y867552D01*
X469948Y867325D01*
X469978Y867097D01*
X470003Y866868D01*
X470022Y866639D01*
X470036Y866410D01*
X470044Y866180D01*
X470047Y865950D01*
X463555Y865950D02*
X463558Y865720D01*
X463566Y865490D01*
X463580Y865261D01*
X463599Y865032D01*
X463624Y864803D01*
X463654Y864575D01*
X463689Y864348D01*
X463730Y864122D01*
X463776Y863897D01*
X463828Y863673D01*
X463885Y863450D01*
X463947Y863229D01*
X464015Y863009D01*
X464088Y862791D01*
X464166Y862575D01*
X464249Y862361D01*
X464337Y862149D01*
X464430Y861938D01*
X464529Y861731D01*
X464528Y861731D02*
X464561Y861641D01*
X464597Y861552D01*
X464638Y861464D01*
X464681Y861379D01*
X464728Y861295D01*
X464778Y861213D01*
X464832Y861133D01*
X464888Y861056D01*
X464948Y860980D01*
X465011Y860907D01*
X465076Y860837D01*
X465145Y860769D01*
X465216Y860705D01*
X465289Y860643D01*
X465365Y860584D01*
X465443Y860528D01*
X465524Y860475D01*
X465606Y860426D01*
X465690Y860380D01*
X465777Y860337D01*
X465864Y860298D01*
X465954Y860262D01*
X466044Y860230D01*
X466136Y860202D01*
X466229Y860177D01*
X466323Y860156D01*
X466417Y860139D01*
X466512Y860125D01*
X466608Y860116D01*
X466704Y860110D01*
X466800Y860108D01*
X469072Y861731D02*
X469171Y861938D01*
X469264Y862149D01*
X469352Y862361D01*
X469435Y862575D01*
X469513Y862791D01*
X469586Y863009D01*
X469654Y863229D01*
X469716Y863450D01*
X469773Y863673D01*
X469825Y863897D01*
X469871Y864122D01*
X469912Y864348D01*
X469947Y864575D01*
X469977Y864803D01*
X470002Y865032D01*
X470021Y865261D01*
X470035Y865490D01*
X470043Y865720D01*
X470046Y865950D01*
X469072Y861731D02*
X469039Y861641D01*
X469003Y861552D01*
X468963Y861464D01*
X468919Y861379D01*
X468872Y861295D01*
X468822Y861213D01*
X468768Y861133D01*
X468712Y861056D01*
X468652Y860980D01*
X468589Y860907D01*
X468524Y860837D01*
X468455Y860769D01*
X468384Y860705D01*
X468311Y860643D01*
X468235Y860584D01*
X468157Y860528D01*
X468076Y860475D01*
X467994Y860426D01*
X467910Y860380D01*
X467823Y860337D01*
X467736Y860298D01*
X467646Y860262D01*
X467556Y860230D01*
X467464Y860202D01*
X467371Y860177D01*
X467277Y860156D01*
X467183Y860139D01*
X467088Y860125D01*
X466992Y860116D01*
X466896Y860110D01*
X466800Y860108D01*
X464204Y862704D02*
X469397Y869196D01*
X474985Y860108D02*
X478880Y860108D01*
X478979Y860110D01*
X479079Y860116D01*
X479178Y860125D01*
X479276Y860138D01*
X479374Y860155D01*
X479472Y860176D01*
X479568Y860201D01*
X479663Y860229D01*
X479757Y860261D01*
X479850Y860296D01*
X479942Y860335D01*
X480032Y860378D01*
X480120Y860423D01*
X480207Y860473D01*
X480291Y860525D01*
X480374Y860581D01*
X480454Y860639D01*
X480532Y860701D01*
X480607Y860766D01*
X480680Y860834D01*
X480750Y860904D01*
X480818Y860977D01*
X480883Y861052D01*
X480945Y861130D01*
X481003Y861210D01*
X481059Y861293D01*
X481111Y861377D01*
X481161Y861464D01*
X481206Y861552D01*
X481249Y861642D01*
X481288Y861734D01*
X481323Y861827D01*
X481355Y861921D01*
X481383Y862016D01*
X481408Y862112D01*
X481429Y862210D01*
X481446Y862308D01*
X481459Y862406D01*
X481468Y862505D01*
X481474Y862605D01*
X481476Y862704D01*
X481476Y864003D01*
X481474Y864102D01*
X481468Y864202D01*
X481459Y864301D01*
X481446Y864399D01*
X481429Y864497D01*
X481408Y864595D01*
X481383Y864691D01*
X481355Y864786D01*
X481323Y864880D01*
X481288Y864973D01*
X481249Y865065D01*
X481206Y865155D01*
X481161Y865243D01*
X481111Y865330D01*
X481059Y865414D01*
X481003Y865497D01*
X480945Y865577D01*
X480883Y865655D01*
X480818Y865730D01*
X480750Y865803D01*
X480680Y865873D01*
X480607Y865941D01*
X480532Y866006D01*
X480454Y866068D01*
X480374Y866126D01*
X480291Y866182D01*
X480207Y866234D01*
X480120Y866284D01*
X480032Y866329D01*
X479942Y866372D01*
X479850Y866411D01*
X479757Y866446D01*
X479663Y866478D01*
X479568Y866506D01*
X479472Y866531D01*
X479374Y866552D01*
X479276Y866569D01*
X479178Y866582D01*
X479079Y866591D01*
X478979Y866597D01*
X478880Y866599D01*
X474985Y866599D01*
X474985Y871792D01*
X481476Y871792D01*
D22*
X294792Y899379D02*
X292181Y897291D01*
X294792Y899379D02*
X294792Y889981D01*
X297402Y889981D02*
X292181Y889981D01*
X305680Y889981D02*
X308812Y899379D01*
X311945Y889981D01*
X311162Y892331D02*
X306463Y892331D01*
X317408Y889981D02*
X319497Y889981D01*
X317408Y889981D02*
X317319Y889983D01*
X317231Y889989D01*
X317143Y889998D01*
X317055Y890011D01*
X316968Y890028D01*
X316882Y890048D01*
X316797Y890073D01*
X316712Y890100D01*
X316629Y890132D01*
X316548Y890166D01*
X316468Y890205D01*
X316390Y890246D01*
X316313Y890291D01*
X316239Y890339D01*
X316166Y890390D01*
X316096Y890444D01*
X316029Y890502D01*
X315963Y890562D01*
X315901Y890624D01*
X315841Y890690D01*
X315783Y890757D01*
X315729Y890827D01*
X315678Y890900D01*
X315630Y890974D01*
X315585Y891051D01*
X315544Y891129D01*
X315505Y891209D01*
X315471Y891290D01*
X315439Y891373D01*
X315412Y891458D01*
X315387Y891543D01*
X315367Y891629D01*
X315350Y891716D01*
X315337Y891804D01*
X315328Y891892D01*
X315322Y891980D01*
X315320Y892069D01*
X315320Y897291D01*
X315322Y897382D01*
X315328Y897473D01*
X315338Y897564D01*
X315352Y897654D01*
X315369Y897743D01*
X315391Y897831D01*
X315417Y897919D01*
X315446Y898005D01*
X315479Y898090D01*
X315516Y898173D01*
X315556Y898255D01*
X315600Y898335D01*
X315647Y898413D01*
X315698Y898489D01*
X315751Y898562D01*
X315808Y898633D01*
X315869Y898702D01*
X315932Y898767D01*
X315997Y898830D01*
X316066Y898890D01*
X316137Y898948D01*
X316210Y899001D01*
X316286Y899052D01*
X316364Y899099D01*
X316444Y899143D01*
X316526Y899183D01*
X316609Y899220D01*
X316694Y899253D01*
X316780Y899282D01*
X316868Y899308D01*
X316956Y899330D01*
X317045Y899347D01*
X317135Y899361D01*
X317226Y899371D01*
X317317Y899377D01*
X317408Y899379D01*
X319497Y899379D01*
X295053Y839380D02*
X295148Y839378D01*
X295242Y839372D01*
X295336Y839363D01*
X295430Y839350D01*
X295523Y839333D01*
X295615Y839312D01*
X295707Y839287D01*
X295797Y839259D01*
X295886Y839227D01*
X295974Y839192D01*
X296060Y839153D01*
X296145Y839111D01*
X296228Y839065D01*
X296309Y839016D01*
X296388Y838964D01*
X296465Y838909D01*
X296539Y838850D01*
X296611Y838789D01*
X296681Y838725D01*
X296748Y838658D01*
X296812Y838588D01*
X296873Y838516D01*
X296932Y838442D01*
X296987Y838365D01*
X297039Y838286D01*
X297088Y838205D01*
X297134Y838122D01*
X297176Y838037D01*
X297215Y837951D01*
X297250Y837863D01*
X297282Y837774D01*
X297310Y837684D01*
X297335Y837592D01*
X297356Y837500D01*
X297373Y837407D01*
X297386Y837313D01*
X297395Y837219D01*
X297401Y837125D01*
X297403Y837030D01*
X295053Y839379D02*
X294945Y839377D01*
X294836Y839371D01*
X294728Y839361D01*
X294621Y839348D01*
X294514Y839330D01*
X294407Y839309D01*
X294302Y839284D01*
X294197Y839255D01*
X294094Y839223D01*
X293992Y839186D01*
X293891Y839146D01*
X293792Y839103D01*
X293694Y839056D01*
X293598Y839005D01*
X293504Y838951D01*
X293412Y838894D01*
X293322Y838833D01*
X293234Y838769D01*
X293149Y838703D01*
X293066Y838633D01*
X292986Y838560D01*
X292908Y838484D01*
X292833Y838406D01*
X292761Y838325D01*
X292692Y838241D01*
X292626Y838155D01*
X292563Y838067D01*
X292504Y837976D01*
X292447Y837884D01*
X292394Y837789D01*
X292345Y837693D01*
X292299Y837594D01*
X292256Y837495D01*
X292217Y837393D01*
X292182Y837291D01*
X296619Y835202D02*
X296688Y835271D01*
X296754Y835342D01*
X296818Y835415D01*
X296879Y835491D01*
X296937Y835570D01*
X296991Y835650D01*
X297043Y835733D01*
X297091Y835817D01*
X297137Y835903D01*
X297178Y835991D01*
X297217Y836081D01*
X297252Y836172D01*
X297283Y836264D01*
X297311Y836357D01*
X297335Y836451D01*
X297355Y836546D01*
X297372Y836642D01*
X297385Y836739D01*
X297394Y836836D01*
X297400Y836933D01*
X297402Y837030D01*
X296619Y835202D02*
X292181Y829981D01*
X297402Y829981D01*
X305680Y829981D02*
X308812Y839379D01*
X311945Y829981D01*
X311162Y832331D02*
X306463Y832331D01*
X317408Y829981D02*
X319497Y829981D01*
X317408Y829981D02*
X317319Y829983D01*
X317231Y829989D01*
X317143Y829998D01*
X317055Y830011D01*
X316968Y830028D01*
X316882Y830048D01*
X316797Y830073D01*
X316712Y830100D01*
X316629Y830132D01*
X316548Y830166D01*
X316468Y830205D01*
X316390Y830246D01*
X316313Y830291D01*
X316239Y830339D01*
X316166Y830390D01*
X316096Y830444D01*
X316029Y830502D01*
X315963Y830562D01*
X315901Y830624D01*
X315841Y830690D01*
X315783Y830757D01*
X315729Y830827D01*
X315678Y830900D01*
X315630Y830974D01*
X315585Y831051D01*
X315544Y831129D01*
X315505Y831209D01*
X315471Y831290D01*
X315439Y831373D01*
X315412Y831458D01*
X315387Y831543D01*
X315367Y831629D01*
X315350Y831716D01*
X315337Y831804D01*
X315328Y831892D01*
X315322Y831980D01*
X315320Y832069D01*
X315320Y837291D01*
X315322Y837382D01*
X315328Y837473D01*
X315338Y837564D01*
X315352Y837654D01*
X315369Y837743D01*
X315391Y837831D01*
X315417Y837919D01*
X315446Y838005D01*
X315479Y838090D01*
X315516Y838173D01*
X315556Y838255D01*
X315600Y838335D01*
X315647Y838413D01*
X315698Y838489D01*
X315751Y838562D01*
X315808Y838633D01*
X315869Y838702D01*
X315932Y838767D01*
X315997Y838830D01*
X316066Y838890D01*
X316137Y838948D01*
X316210Y839001D01*
X316286Y839052D01*
X316364Y839099D01*
X316444Y839143D01*
X316526Y839183D01*
X316609Y839220D01*
X316694Y839253D01*
X316780Y839282D01*
X316868Y839308D01*
X316956Y839330D01*
X317045Y839347D01*
X317135Y839361D01*
X317226Y839371D01*
X317317Y839377D01*
X317408Y839379D01*
X319497Y839379D01*
X542181Y953636D02*
X548446Y953636D01*
X556811Y959379D02*
X559944Y949981D01*
X563077Y959379D01*
X566390Y954158D02*
X566390Y952069D01*
X566390Y954158D02*
X566392Y954248D01*
X566398Y954337D01*
X566407Y954427D01*
X566421Y954516D01*
X566438Y954604D01*
X566459Y954691D01*
X566484Y954778D01*
X566513Y954863D01*
X566545Y954947D01*
X566580Y955029D01*
X566620Y955110D01*
X566662Y955189D01*
X566708Y955266D01*
X566758Y955341D01*
X566810Y955414D01*
X566866Y955485D01*
X566924Y955553D01*
X566986Y955618D01*
X567050Y955681D01*
X567117Y955741D01*
X567186Y955798D01*
X567258Y955852D01*
X567332Y955903D01*
X567408Y955951D01*
X567486Y955995D01*
X567566Y956036D01*
X567648Y956074D01*
X567731Y956108D01*
X567816Y956138D01*
X567902Y956165D01*
X567988Y956188D01*
X568076Y956207D01*
X568165Y956222D01*
X568254Y956234D01*
X568343Y956242D01*
X568433Y956246D01*
X568523Y956246D01*
X568613Y956242D01*
X568702Y956234D01*
X568791Y956222D01*
X568880Y956207D01*
X568968Y956188D01*
X569054Y956165D01*
X569140Y956138D01*
X569225Y956108D01*
X569308Y956074D01*
X569390Y956036D01*
X569470Y955995D01*
X569548Y955951D01*
X569624Y955903D01*
X569698Y955852D01*
X569770Y955798D01*
X569839Y955741D01*
X569906Y955681D01*
X569970Y955618D01*
X570032Y955553D01*
X570090Y955485D01*
X570146Y955414D01*
X570198Y955341D01*
X570248Y955266D01*
X570294Y955189D01*
X570336Y955110D01*
X570376Y955029D01*
X570411Y954947D01*
X570443Y954863D01*
X570472Y954778D01*
X570497Y954691D01*
X570518Y954604D01*
X570535Y954516D01*
X570549Y954427D01*
X570558Y954337D01*
X570564Y954248D01*
X570566Y954158D01*
X570567Y954158D02*
X570567Y952069D01*
X570566Y952069D02*
X570564Y951979D01*
X570558Y951890D01*
X570549Y951800D01*
X570535Y951711D01*
X570518Y951623D01*
X570497Y951536D01*
X570472Y951449D01*
X570443Y951364D01*
X570411Y951280D01*
X570376Y951198D01*
X570336Y951117D01*
X570294Y951038D01*
X570248Y950961D01*
X570198Y950886D01*
X570146Y950813D01*
X570090Y950742D01*
X570032Y950674D01*
X569970Y950609D01*
X569906Y950546D01*
X569839Y950486D01*
X569770Y950429D01*
X569698Y950375D01*
X569624Y950324D01*
X569548Y950276D01*
X569470Y950232D01*
X569390Y950191D01*
X569308Y950153D01*
X569225Y950119D01*
X569140Y950089D01*
X569054Y950062D01*
X568968Y950039D01*
X568880Y950020D01*
X568791Y950005D01*
X568702Y949993D01*
X568613Y949985D01*
X568523Y949981D01*
X568433Y949981D01*
X568343Y949985D01*
X568254Y949993D01*
X568165Y950005D01*
X568076Y950020D01*
X567988Y950039D01*
X567902Y950062D01*
X567816Y950089D01*
X567731Y950119D01*
X567648Y950153D01*
X567566Y950191D01*
X567486Y950232D01*
X567408Y950276D01*
X567332Y950324D01*
X567258Y950375D01*
X567186Y950429D01*
X567117Y950486D01*
X567050Y950546D01*
X566986Y950609D01*
X566924Y950674D01*
X566866Y950742D01*
X566810Y950813D01*
X566758Y950886D01*
X566708Y950961D01*
X566662Y951038D01*
X566620Y951117D01*
X566580Y951198D01*
X566545Y951280D01*
X566513Y951364D01*
X566484Y951449D01*
X566459Y951536D01*
X566438Y951623D01*
X566421Y951711D01*
X566407Y951800D01*
X566398Y951890D01*
X566392Y951979D01*
X566390Y952069D01*
X548446Y773636D02*
X542181Y773636D01*
X545314Y770503D02*
X545314Y776768D01*
X556811Y779379D02*
X559944Y769981D01*
X563077Y779379D01*
X566390Y774158D02*
X566390Y772069D01*
X566390Y774158D02*
X566392Y774248D01*
X566398Y774337D01*
X566407Y774427D01*
X566421Y774516D01*
X566438Y774604D01*
X566459Y774691D01*
X566484Y774778D01*
X566513Y774863D01*
X566545Y774947D01*
X566580Y775029D01*
X566620Y775110D01*
X566662Y775189D01*
X566708Y775266D01*
X566758Y775341D01*
X566810Y775414D01*
X566866Y775485D01*
X566924Y775553D01*
X566986Y775618D01*
X567050Y775681D01*
X567117Y775741D01*
X567186Y775798D01*
X567258Y775852D01*
X567332Y775903D01*
X567408Y775951D01*
X567486Y775995D01*
X567566Y776036D01*
X567648Y776074D01*
X567731Y776108D01*
X567816Y776138D01*
X567902Y776165D01*
X567988Y776188D01*
X568076Y776207D01*
X568165Y776222D01*
X568254Y776234D01*
X568343Y776242D01*
X568433Y776246D01*
X568523Y776246D01*
X568613Y776242D01*
X568702Y776234D01*
X568791Y776222D01*
X568880Y776207D01*
X568968Y776188D01*
X569054Y776165D01*
X569140Y776138D01*
X569225Y776108D01*
X569308Y776074D01*
X569390Y776036D01*
X569470Y775995D01*
X569548Y775951D01*
X569624Y775903D01*
X569698Y775852D01*
X569770Y775798D01*
X569839Y775741D01*
X569906Y775681D01*
X569970Y775618D01*
X570032Y775553D01*
X570090Y775485D01*
X570146Y775414D01*
X570198Y775341D01*
X570248Y775266D01*
X570294Y775189D01*
X570336Y775110D01*
X570376Y775029D01*
X570411Y774947D01*
X570443Y774863D01*
X570472Y774778D01*
X570497Y774691D01*
X570518Y774604D01*
X570535Y774516D01*
X570549Y774427D01*
X570558Y774337D01*
X570564Y774248D01*
X570566Y774158D01*
X570567Y774158D02*
X570567Y772069D01*
X570566Y772069D02*
X570564Y771979D01*
X570558Y771890D01*
X570549Y771800D01*
X570535Y771711D01*
X570518Y771623D01*
X570497Y771536D01*
X570472Y771449D01*
X570443Y771364D01*
X570411Y771280D01*
X570376Y771198D01*
X570336Y771117D01*
X570294Y771038D01*
X570248Y770961D01*
X570198Y770886D01*
X570146Y770813D01*
X570090Y770742D01*
X570032Y770674D01*
X569970Y770609D01*
X569906Y770546D01*
X569839Y770486D01*
X569770Y770429D01*
X569698Y770375D01*
X569624Y770324D01*
X569548Y770276D01*
X569470Y770232D01*
X569390Y770191D01*
X569308Y770153D01*
X569225Y770119D01*
X569140Y770089D01*
X569054Y770062D01*
X568968Y770039D01*
X568880Y770020D01*
X568791Y770005D01*
X568702Y769993D01*
X568613Y769985D01*
X568523Y769981D01*
X568433Y769981D01*
X568343Y769985D01*
X568254Y769993D01*
X568165Y770005D01*
X568076Y770020D01*
X567988Y770039D01*
X567902Y770062D01*
X567816Y770089D01*
X567731Y770119D01*
X567648Y770153D01*
X567566Y770191D01*
X567486Y770232D01*
X567408Y770276D01*
X567332Y770324D01*
X567258Y770375D01*
X567186Y770429D01*
X567117Y770486D01*
X567050Y770546D01*
X566986Y770609D01*
X566924Y770674D01*
X566866Y770742D01*
X566810Y770813D01*
X566758Y770886D01*
X566708Y770961D01*
X566662Y771038D01*
X566620Y771117D01*
X566580Y771198D01*
X566545Y771280D01*
X566513Y771364D01*
X566484Y771449D01*
X566459Y771536D01*
X566438Y771623D01*
X566421Y771711D01*
X566407Y771800D01*
X566398Y771890D01*
X566392Y771979D01*
X566390Y772069D01*
D10*
X649605Y653415D02*
X649605Y424815D01*
X591185Y424815D02*
X591185Y653415D01*
X591185Y424815D02*
X649605Y424815D01*
X649605Y653415D02*
X630555Y653415D01*
X610235Y653415D02*
X591185Y653415D01*
X610235Y653415D02*
X610238Y653168D01*
X610247Y652920D01*
X610262Y652673D01*
X610283Y652427D01*
X610310Y652181D01*
X610343Y651936D01*
X610382Y651691D01*
X610427Y651448D01*
X610478Y651206D01*
X610535Y650965D01*
X610597Y650726D01*
X610666Y650488D01*
X610740Y650252D01*
X610820Y650018D01*
X610905Y649786D01*
X610997Y649556D01*
X611093Y649328D01*
X611196Y649103D01*
X611303Y648880D01*
X611417Y648660D01*
X611535Y648443D01*
X611659Y648228D01*
X611788Y648017D01*
X611922Y647809D01*
X612061Y647604D01*
X612205Y647403D01*
X612353Y647205D01*
X612507Y647011D01*
X612665Y646821D01*
X612828Y646635D01*
X612995Y646453D01*
X613167Y646275D01*
X613343Y646101D01*
X613523Y645931D01*
X613708Y645766D01*
X613896Y645606D01*
X614088Y645450D01*
X614284Y645298D01*
X614483Y645152D01*
X614686Y645010D01*
X614893Y644874D01*
X615102Y644742D01*
X615315Y644616D01*
X615531Y644495D01*
X615749Y644379D01*
X615971Y644269D01*
X616195Y644164D01*
X616421Y644064D01*
X616650Y643970D01*
X616881Y643882D01*
X617115Y643799D01*
X617350Y643722D01*
X617587Y643651D01*
X617825Y643585D01*
X618065Y643526D01*
X618307Y643472D01*
X618550Y643424D01*
X618793Y643382D01*
X619038Y643346D01*
X619284Y643316D01*
X619530Y643292D01*
X619777Y643274D01*
X620024Y643262D01*
X620271Y643256D01*
X620519Y643256D01*
X620766Y643262D01*
X621013Y643274D01*
X621260Y643292D01*
X621506Y643316D01*
X621752Y643346D01*
X621997Y643382D01*
X622240Y643424D01*
X622483Y643472D01*
X622725Y643526D01*
X622965Y643585D01*
X623203Y643651D01*
X623440Y643722D01*
X623675Y643799D01*
X623909Y643882D01*
X624140Y643970D01*
X624369Y644064D01*
X624595Y644164D01*
X624819Y644269D01*
X625041Y644379D01*
X625259Y644495D01*
X625475Y644616D01*
X625688Y644742D01*
X625897Y644874D01*
X626104Y645010D01*
X626307Y645152D01*
X626506Y645298D01*
X626702Y645450D01*
X626894Y645606D01*
X627082Y645766D01*
X627267Y645931D01*
X627447Y646101D01*
X627623Y646275D01*
X627795Y646453D01*
X627962Y646635D01*
X628125Y646821D01*
X628283Y647011D01*
X628437Y647205D01*
X628585Y647403D01*
X628729Y647604D01*
X628868Y647809D01*
X629002Y648017D01*
X629131Y648228D01*
X629255Y648443D01*
X629373Y648660D01*
X629487Y648880D01*
X629594Y649103D01*
X629697Y649328D01*
X629793Y649556D01*
X629885Y649786D01*
X629970Y650018D01*
X630050Y650252D01*
X630124Y650488D01*
X630193Y650726D01*
X630255Y650965D01*
X630312Y651206D01*
X630363Y651448D01*
X630408Y651691D01*
X630447Y651936D01*
X630480Y652181D01*
X630507Y652427D01*
X630528Y652673D01*
X630543Y652920D01*
X630552Y653168D01*
X630555Y653415D01*
D11*
X620395Y595630D02*
X620395Y584200D01*
X619125Y584200D02*
X621665Y584200D01*
X621665Y595630D02*
X619125Y595630D01*
X628867Y584200D02*
X631407Y584200D01*
X628867Y584200D02*
X628767Y584202D01*
X628668Y584208D01*
X628568Y584218D01*
X628470Y584231D01*
X628371Y584249D01*
X628274Y584270D01*
X628178Y584295D01*
X628082Y584324D01*
X627988Y584357D01*
X627895Y584393D01*
X627804Y584433D01*
X627714Y584477D01*
X627626Y584524D01*
X627540Y584574D01*
X627456Y584628D01*
X627374Y584685D01*
X627295Y584745D01*
X627217Y584809D01*
X627143Y584875D01*
X627071Y584944D01*
X627002Y585016D01*
X626936Y585090D01*
X626872Y585168D01*
X626812Y585247D01*
X626755Y585329D01*
X626701Y585413D01*
X626651Y585499D01*
X626604Y585587D01*
X626560Y585677D01*
X626520Y585768D01*
X626484Y585861D01*
X626451Y585955D01*
X626422Y586051D01*
X626397Y586147D01*
X626376Y586244D01*
X626358Y586343D01*
X626345Y586441D01*
X626335Y586541D01*
X626329Y586640D01*
X626327Y586740D01*
X626327Y593090D01*
X626329Y593190D01*
X626335Y593289D01*
X626345Y593389D01*
X626358Y593487D01*
X626376Y593586D01*
X626397Y593683D01*
X626422Y593779D01*
X626451Y593875D01*
X626484Y593969D01*
X626520Y594062D01*
X626560Y594153D01*
X626604Y594243D01*
X626651Y594331D01*
X626701Y594417D01*
X626755Y594501D01*
X626812Y594583D01*
X626872Y594662D01*
X626936Y594740D01*
X627002Y594814D01*
X627071Y594886D01*
X627143Y594955D01*
X627217Y595021D01*
X627295Y595085D01*
X627374Y595145D01*
X627456Y595202D01*
X627540Y595256D01*
X627626Y595306D01*
X627714Y595353D01*
X627804Y595397D01*
X627895Y595437D01*
X627988Y595473D01*
X628082Y595506D01*
X628178Y595535D01*
X628274Y595560D01*
X628371Y595581D01*
X628470Y595599D01*
X628568Y595612D01*
X628668Y595622D01*
X628767Y595628D01*
X628867Y595630D01*
X631407Y595630D01*
X635889Y593090D02*
X639064Y595630D01*
X639064Y584200D01*
X635889Y584200D02*
X642239Y584200D01*
D19*
X122555Y414655D02*
X79375Y414655D01*
X79375Y475615D02*
X122555Y475615D01*
X70485Y455295D02*
X70485Y435155D01*
X131445Y434855D02*
X131445Y455295D01*
X83185Y445135D02*
X83190Y445571D01*
X83206Y446007D01*
X83233Y446443D01*
X83271Y446878D01*
X83319Y447311D01*
X83377Y447744D01*
X83447Y448175D01*
X83527Y448604D01*
X83617Y449031D01*
X83718Y449455D01*
X83829Y449877D01*
X83951Y450296D01*
X84082Y450712D01*
X84224Y451125D01*
X84376Y451534D01*
X84538Y451939D01*
X84710Y452340D01*
X84892Y452737D01*
X85083Y453129D01*
X85284Y453516D01*
X85495Y453899D01*
X85715Y454276D01*
X85944Y454647D01*
X86181Y455013D01*
X86428Y455373D01*
X86684Y455727D01*
X86948Y456074D01*
X87221Y456415D01*
X87502Y456748D01*
X87791Y457075D01*
X88088Y457395D01*
X88393Y457707D01*
X88705Y458012D01*
X89025Y458309D01*
X89352Y458598D01*
X89685Y458879D01*
X90026Y459152D01*
X90373Y459416D01*
X90727Y459672D01*
X91087Y459919D01*
X91453Y460156D01*
X91824Y460385D01*
X92201Y460605D01*
X92584Y460816D01*
X92971Y461017D01*
X93363Y461208D01*
X93760Y461390D01*
X94161Y461562D01*
X94566Y461724D01*
X94975Y461876D01*
X95388Y462018D01*
X95804Y462149D01*
X96223Y462271D01*
X96645Y462382D01*
X97069Y462483D01*
X97496Y462573D01*
X97925Y462653D01*
X98356Y462723D01*
X98789Y462781D01*
X99222Y462829D01*
X99657Y462867D01*
X100093Y462894D01*
X100529Y462910D01*
X100965Y462915D01*
X101401Y462910D01*
X101837Y462894D01*
X102273Y462867D01*
X102708Y462829D01*
X103141Y462781D01*
X103574Y462723D01*
X104005Y462653D01*
X104434Y462573D01*
X104861Y462483D01*
X105285Y462382D01*
X105707Y462271D01*
X106126Y462149D01*
X106542Y462018D01*
X106955Y461876D01*
X107364Y461724D01*
X107769Y461562D01*
X108170Y461390D01*
X108567Y461208D01*
X108959Y461017D01*
X109346Y460816D01*
X109729Y460605D01*
X110106Y460385D01*
X110477Y460156D01*
X110843Y459919D01*
X111203Y459672D01*
X111557Y459416D01*
X111904Y459152D01*
X112245Y458879D01*
X112578Y458598D01*
X112905Y458309D01*
X113225Y458012D01*
X113537Y457707D01*
X113842Y457395D01*
X114139Y457075D01*
X114428Y456748D01*
X114709Y456415D01*
X114982Y456074D01*
X115246Y455727D01*
X115502Y455373D01*
X115749Y455013D01*
X115986Y454647D01*
X116215Y454276D01*
X116435Y453899D01*
X116646Y453516D01*
X116847Y453129D01*
X117038Y452737D01*
X117220Y452340D01*
X117392Y451939D01*
X117554Y451534D01*
X117706Y451125D01*
X117848Y450712D01*
X117979Y450296D01*
X118101Y449877D01*
X118212Y449455D01*
X118313Y449031D01*
X118403Y448604D01*
X118483Y448175D01*
X118553Y447744D01*
X118611Y447311D01*
X118659Y446878D01*
X118697Y446443D01*
X118724Y446007D01*
X118740Y445571D01*
X118745Y445135D01*
X118740Y444699D01*
X118724Y444263D01*
X118697Y443827D01*
X118659Y443392D01*
X118611Y442959D01*
X118553Y442526D01*
X118483Y442095D01*
X118403Y441666D01*
X118313Y441239D01*
X118212Y440815D01*
X118101Y440393D01*
X117979Y439974D01*
X117848Y439558D01*
X117706Y439145D01*
X117554Y438736D01*
X117392Y438331D01*
X117220Y437930D01*
X117038Y437533D01*
X116847Y437141D01*
X116646Y436754D01*
X116435Y436371D01*
X116215Y435994D01*
X115986Y435623D01*
X115749Y435257D01*
X115502Y434897D01*
X115246Y434543D01*
X114982Y434196D01*
X114709Y433855D01*
X114428Y433522D01*
X114139Y433195D01*
X113842Y432875D01*
X113537Y432563D01*
X113225Y432258D01*
X112905Y431961D01*
X112578Y431672D01*
X112245Y431391D01*
X111904Y431118D01*
X111557Y430854D01*
X111203Y430598D01*
X110843Y430351D01*
X110477Y430114D01*
X110106Y429885D01*
X109729Y429665D01*
X109346Y429454D01*
X108959Y429253D01*
X108567Y429062D01*
X108170Y428880D01*
X107769Y428708D01*
X107364Y428546D01*
X106955Y428394D01*
X106542Y428252D01*
X106126Y428121D01*
X105707Y427999D01*
X105285Y427888D01*
X104861Y427787D01*
X104434Y427697D01*
X104005Y427617D01*
X103574Y427547D01*
X103141Y427489D01*
X102708Y427441D01*
X102273Y427403D01*
X101837Y427376D01*
X101401Y427360D01*
X100965Y427355D01*
X100529Y427360D01*
X100093Y427376D01*
X99657Y427403D01*
X99222Y427441D01*
X98789Y427489D01*
X98356Y427547D01*
X97925Y427617D01*
X97496Y427697D01*
X97069Y427787D01*
X96645Y427888D01*
X96223Y427999D01*
X95804Y428121D01*
X95388Y428252D01*
X94975Y428394D01*
X94566Y428546D01*
X94161Y428708D01*
X93760Y428880D01*
X93363Y429062D01*
X92971Y429253D01*
X92584Y429454D01*
X92201Y429665D01*
X91824Y429885D01*
X91453Y430114D01*
X91087Y430351D01*
X90727Y430598D01*
X90373Y430854D01*
X90026Y431118D01*
X89685Y431391D01*
X89352Y431672D01*
X89025Y431961D01*
X88705Y432258D01*
X88393Y432563D01*
X88088Y432875D01*
X87791Y433195D01*
X87502Y433522D01*
X87221Y433855D01*
X86948Y434196D01*
X86684Y434543D01*
X86428Y434897D01*
X86181Y435257D01*
X85944Y435623D01*
X85715Y435994D01*
X85495Y436371D01*
X85284Y436754D01*
X85083Y437141D01*
X84892Y437533D01*
X84710Y437930D01*
X84538Y438331D01*
X84376Y438736D01*
X84224Y439145D01*
X84082Y439558D01*
X83951Y439974D01*
X83829Y440393D01*
X83718Y440815D01*
X83617Y441239D01*
X83527Y441666D01*
X83447Y442095D01*
X83377Y442526D01*
X83319Y442959D01*
X83271Y443392D01*
X83233Y443827D01*
X83206Y444263D01*
X83190Y444699D01*
X83185Y445135D01*
X80010Y340995D02*
X123190Y340995D01*
X123190Y401955D02*
X80010Y401955D01*
X71120Y381635D02*
X71120Y361495D01*
X132080Y361195D02*
X132080Y381635D01*
X83820Y371475D02*
X83825Y371911D01*
X83841Y372347D01*
X83868Y372783D01*
X83906Y373218D01*
X83954Y373651D01*
X84012Y374084D01*
X84082Y374515D01*
X84162Y374944D01*
X84252Y375371D01*
X84353Y375795D01*
X84464Y376217D01*
X84586Y376636D01*
X84717Y377052D01*
X84859Y377465D01*
X85011Y377874D01*
X85173Y378279D01*
X85345Y378680D01*
X85527Y379077D01*
X85718Y379469D01*
X85919Y379856D01*
X86130Y380239D01*
X86350Y380616D01*
X86579Y380987D01*
X86816Y381353D01*
X87063Y381713D01*
X87319Y382067D01*
X87583Y382414D01*
X87856Y382755D01*
X88137Y383088D01*
X88426Y383415D01*
X88723Y383735D01*
X89028Y384047D01*
X89340Y384352D01*
X89660Y384649D01*
X89987Y384938D01*
X90320Y385219D01*
X90661Y385492D01*
X91008Y385756D01*
X91362Y386012D01*
X91722Y386259D01*
X92088Y386496D01*
X92459Y386725D01*
X92836Y386945D01*
X93219Y387156D01*
X93606Y387357D01*
X93998Y387548D01*
X94395Y387730D01*
X94796Y387902D01*
X95201Y388064D01*
X95610Y388216D01*
X96023Y388358D01*
X96439Y388489D01*
X96858Y388611D01*
X97280Y388722D01*
X97704Y388823D01*
X98131Y388913D01*
X98560Y388993D01*
X98991Y389063D01*
X99424Y389121D01*
X99857Y389169D01*
X100292Y389207D01*
X100728Y389234D01*
X101164Y389250D01*
X101600Y389255D01*
X102036Y389250D01*
X102472Y389234D01*
X102908Y389207D01*
X103343Y389169D01*
X103776Y389121D01*
X104209Y389063D01*
X104640Y388993D01*
X105069Y388913D01*
X105496Y388823D01*
X105920Y388722D01*
X106342Y388611D01*
X106761Y388489D01*
X107177Y388358D01*
X107590Y388216D01*
X107999Y388064D01*
X108404Y387902D01*
X108805Y387730D01*
X109202Y387548D01*
X109594Y387357D01*
X109981Y387156D01*
X110364Y386945D01*
X110741Y386725D01*
X111112Y386496D01*
X111478Y386259D01*
X111838Y386012D01*
X112192Y385756D01*
X112539Y385492D01*
X112880Y385219D01*
X113213Y384938D01*
X113540Y384649D01*
X113860Y384352D01*
X114172Y384047D01*
X114477Y383735D01*
X114774Y383415D01*
X115063Y383088D01*
X115344Y382755D01*
X115617Y382414D01*
X115881Y382067D01*
X116137Y381713D01*
X116384Y381353D01*
X116621Y380987D01*
X116850Y380616D01*
X117070Y380239D01*
X117281Y379856D01*
X117482Y379469D01*
X117673Y379077D01*
X117855Y378680D01*
X118027Y378279D01*
X118189Y377874D01*
X118341Y377465D01*
X118483Y377052D01*
X118614Y376636D01*
X118736Y376217D01*
X118847Y375795D01*
X118948Y375371D01*
X119038Y374944D01*
X119118Y374515D01*
X119188Y374084D01*
X119246Y373651D01*
X119294Y373218D01*
X119332Y372783D01*
X119359Y372347D01*
X119375Y371911D01*
X119380Y371475D01*
X119375Y371039D01*
X119359Y370603D01*
X119332Y370167D01*
X119294Y369732D01*
X119246Y369299D01*
X119188Y368866D01*
X119118Y368435D01*
X119038Y368006D01*
X118948Y367579D01*
X118847Y367155D01*
X118736Y366733D01*
X118614Y366314D01*
X118483Y365898D01*
X118341Y365485D01*
X118189Y365076D01*
X118027Y364671D01*
X117855Y364270D01*
X117673Y363873D01*
X117482Y363481D01*
X117281Y363094D01*
X117070Y362711D01*
X116850Y362334D01*
X116621Y361963D01*
X116384Y361597D01*
X116137Y361237D01*
X115881Y360883D01*
X115617Y360536D01*
X115344Y360195D01*
X115063Y359862D01*
X114774Y359535D01*
X114477Y359215D01*
X114172Y358903D01*
X113860Y358598D01*
X113540Y358301D01*
X113213Y358012D01*
X112880Y357731D01*
X112539Y357458D01*
X112192Y357194D01*
X111838Y356938D01*
X111478Y356691D01*
X111112Y356454D01*
X110741Y356225D01*
X110364Y356005D01*
X109981Y355794D01*
X109594Y355593D01*
X109202Y355402D01*
X108805Y355220D01*
X108404Y355048D01*
X107999Y354886D01*
X107590Y354734D01*
X107177Y354592D01*
X106761Y354461D01*
X106342Y354339D01*
X105920Y354228D01*
X105496Y354127D01*
X105069Y354037D01*
X104640Y353957D01*
X104209Y353887D01*
X103776Y353829D01*
X103343Y353781D01*
X102908Y353743D01*
X102472Y353716D01*
X102036Y353700D01*
X101600Y353695D01*
X101164Y353700D01*
X100728Y353716D01*
X100292Y353743D01*
X99857Y353781D01*
X99424Y353829D01*
X98991Y353887D01*
X98560Y353957D01*
X98131Y354037D01*
X97704Y354127D01*
X97280Y354228D01*
X96858Y354339D01*
X96439Y354461D01*
X96023Y354592D01*
X95610Y354734D01*
X95201Y354886D01*
X94796Y355048D01*
X94395Y355220D01*
X93998Y355402D01*
X93606Y355593D01*
X93219Y355794D01*
X92836Y356005D01*
X92459Y356225D01*
X92088Y356454D01*
X91722Y356691D01*
X91362Y356938D01*
X91008Y357194D01*
X90661Y357458D01*
X90320Y357731D01*
X89987Y358012D01*
X89660Y358301D01*
X89340Y358598D01*
X89028Y358903D01*
X88723Y359215D01*
X88426Y359535D01*
X88137Y359862D01*
X87856Y360195D01*
X87583Y360536D01*
X87319Y360883D01*
X87063Y361237D01*
X86816Y361597D01*
X86579Y361963D01*
X86350Y362334D01*
X86130Y362711D01*
X85919Y363094D01*
X85718Y363481D01*
X85527Y363873D01*
X85345Y364270D01*
X85173Y364671D01*
X85011Y365076D01*
X84859Y365485D01*
X84717Y365898D01*
X84586Y366314D01*
X84464Y366733D01*
X84353Y367155D01*
X84252Y367579D01*
X84162Y368006D01*
X84082Y368435D01*
X84012Y368866D01*
X83954Y369299D01*
X83906Y369732D01*
X83868Y370167D01*
X83841Y370603D01*
X83825Y371039D01*
X83820Y371475D01*
X80010Y267335D02*
X123190Y267335D01*
X123190Y328295D02*
X80010Y328295D01*
X71120Y307975D02*
X71120Y287835D01*
X132080Y287535D02*
X132080Y307975D01*
X83820Y297815D02*
X83825Y298251D01*
X83841Y298687D01*
X83868Y299123D01*
X83906Y299558D01*
X83954Y299991D01*
X84012Y300424D01*
X84082Y300855D01*
X84162Y301284D01*
X84252Y301711D01*
X84353Y302135D01*
X84464Y302557D01*
X84586Y302976D01*
X84717Y303392D01*
X84859Y303805D01*
X85011Y304214D01*
X85173Y304619D01*
X85345Y305020D01*
X85527Y305417D01*
X85718Y305809D01*
X85919Y306196D01*
X86130Y306579D01*
X86350Y306956D01*
X86579Y307327D01*
X86816Y307693D01*
X87063Y308053D01*
X87319Y308407D01*
X87583Y308754D01*
X87856Y309095D01*
X88137Y309428D01*
X88426Y309755D01*
X88723Y310075D01*
X89028Y310387D01*
X89340Y310692D01*
X89660Y310989D01*
X89987Y311278D01*
X90320Y311559D01*
X90661Y311832D01*
X91008Y312096D01*
X91362Y312352D01*
X91722Y312599D01*
X92088Y312836D01*
X92459Y313065D01*
X92836Y313285D01*
X93219Y313496D01*
X93606Y313697D01*
X93998Y313888D01*
X94395Y314070D01*
X94796Y314242D01*
X95201Y314404D01*
X95610Y314556D01*
X96023Y314698D01*
X96439Y314829D01*
X96858Y314951D01*
X97280Y315062D01*
X97704Y315163D01*
X98131Y315253D01*
X98560Y315333D01*
X98991Y315403D01*
X99424Y315461D01*
X99857Y315509D01*
X100292Y315547D01*
X100728Y315574D01*
X101164Y315590D01*
X101600Y315595D01*
X102036Y315590D01*
X102472Y315574D01*
X102908Y315547D01*
X103343Y315509D01*
X103776Y315461D01*
X104209Y315403D01*
X104640Y315333D01*
X105069Y315253D01*
X105496Y315163D01*
X105920Y315062D01*
X106342Y314951D01*
X106761Y314829D01*
X107177Y314698D01*
X107590Y314556D01*
X107999Y314404D01*
X108404Y314242D01*
X108805Y314070D01*
X109202Y313888D01*
X109594Y313697D01*
X109981Y313496D01*
X110364Y313285D01*
X110741Y313065D01*
X111112Y312836D01*
X111478Y312599D01*
X111838Y312352D01*
X112192Y312096D01*
X112539Y311832D01*
X112880Y311559D01*
X113213Y311278D01*
X113540Y310989D01*
X113860Y310692D01*
X114172Y310387D01*
X114477Y310075D01*
X114774Y309755D01*
X115063Y309428D01*
X115344Y309095D01*
X115617Y308754D01*
X115881Y308407D01*
X116137Y308053D01*
X116384Y307693D01*
X116621Y307327D01*
X116850Y306956D01*
X117070Y306579D01*
X117281Y306196D01*
X117482Y305809D01*
X117673Y305417D01*
X117855Y305020D01*
X118027Y304619D01*
X118189Y304214D01*
X118341Y303805D01*
X118483Y303392D01*
X118614Y302976D01*
X118736Y302557D01*
X118847Y302135D01*
X118948Y301711D01*
X119038Y301284D01*
X119118Y300855D01*
X119188Y300424D01*
X119246Y299991D01*
X119294Y299558D01*
X119332Y299123D01*
X119359Y298687D01*
X119375Y298251D01*
X119380Y297815D01*
X119375Y297379D01*
X119359Y296943D01*
X119332Y296507D01*
X119294Y296072D01*
X119246Y295639D01*
X119188Y295206D01*
X119118Y294775D01*
X119038Y294346D01*
X118948Y293919D01*
X118847Y293495D01*
X118736Y293073D01*
X118614Y292654D01*
X118483Y292238D01*
X118341Y291825D01*
X118189Y291416D01*
X118027Y291011D01*
X117855Y290610D01*
X117673Y290213D01*
X117482Y289821D01*
X117281Y289434D01*
X117070Y289051D01*
X116850Y288674D01*
X116621Y288303D01*
X116384Y287937D01*
X116137Y287577D01*
X115881Y287223D01*
X115617Y286876D01*
X115344Y286535D01*
X115063Y286202D01*
X114774Y285875D01*
X114477Y285555D01*
X114172Y285243D01*
X113860Y284938D01*
X113540Y284641D01*
X113213Y284352D01*
X112880Y284071D01*
X112539Y283798D01*
X112192Y283534D01*
X111838Y283278D01*
X111478Y283031D01*
X111112Y282794D01*
X110741Y282565D01*
X110364Y282345D01*
X109981Y282134D01*
X109594Y281933D01*
X109202Y281742D01*
X108805Y281560D01*
X108404Y281388D01*
X107999Y281226D01*
X107590Y281074D01*
X107177Y280932D01*
X106761Y280801D01*
X106342Y280679D01*
X105920Y280568D01*
X105496Y280467D01*
X105069Y280377D01*
X104640Y280297D01*
X104209Y280227D01*
X103776Y280169D01*
X103343Y280121D01*
X102908Y280083D01*
X102472Y280056D01*
X102036Y280040D01*
X101600Y280035D01*
X101164Y280040D01*
X100728Y280056D01*
X100292Y280083D01*
X99857Y280121D01*
X99424Y280169D01*
X98991Y280227D01*
X98560Y280297D01*
X98131Y280377D01*
X97704Y280467D01*
X97280Y280568D01*
X96858Y280679D01*
X96439Y280801D01*
X96023Y280932D01*
X95610Y281074D01*
X95201Y281226D01*
X94796Y281388D01*
X94395Y281560D01*
X93998Y281742D01*
X93606Y281933D01*
X93219Y282134D01*
X92836Y282345D01*
X92459Y282565D01*
X92088Y282794D01*
X91722Y283031D01*
X91362Y283278D01*
X91008Y283534D01*
X90661Y283798D01*
X90320Y284071D01*
X89987Y284352D01*
X89660Y284641D01*
X89340Y284938D01*
X89028Y285243D01*
X88723Y285555D01*
X88426Y285875D01*
X88137Y286202D01*
X87856Y286535D01*
X87583Y286876D01*
X87319Y287223D01*
X87063Y287577D01*
X86816Y287937D01*
X86579Y288303D01*
X86350Y288674D01*
X86130Y289051D01*
X85919Y289434D01*
X85718Y289821D01*
X85527Y290213D01*
X85345Y290610D01*
X85173Y291011D01*
X85011Y291416D01*
X84859Y291825D01*
X84717Y292238D01*
X84586Y292654D01*
X84464Y293073D01*
X84353Y293495D01*
X84252Y293919D01*
X84162Y294346D01*
X84082Y294775D01*
X84012Y295206D01*
X83954Y295639D01*
X83906Y296072D01*
X83868Y296507D01*
X83841Y296943D01*
X83825Y297379D01*
X83820Y297815D01*
X72390Y568325D02*
X115570Y568325D01*
X115570Y629285D02*
X72390Y629285D01*
X63500Y608965D02*
X63500Y588825D01*
X124460Y588525D02*
X124460Y608965D01*
X76200Y598805D02*
X76205Y599241D01*
X76221Y599677D01*
X76248Y600113D01*
X76286Y600548D01*
X76334Y600981D01*
X76392Y601414D01*
X76462Y601845D01*
X76542Y602274D01*
X76632Y602701D01*
X76733Y603125D01*
X76844Y603547D01*
X76966Y603966D01*
X77097Y604382D01*
X77239Y604795D01*
X77391Y605204D01*
X77553Y605609D01*
X77725Y606010D01*
X77907Y606407D01*
X78098Y606799D01*
X78299Y607186D01*
X78510Y607569D01*
X78730Y607946D01*
X78959Y608317D01*
X79196Y608683D01*
X79443Y609043D01*
X79699Y609397D01*
X79963Y609744D01*
X80236Y610085D01*
X80517Y610418D01*
X80806Y610745D01*
X81103Y611065D01*
X81408Y611377D01*
X81720Y611682D01*
X82040Y611979D01*
X82367Y612268D01*
X82700Y612549D01*
X83041Y612822D01*
X83388Y613086D01*
X83742Y613342D01*
X84102Y613589D01*
X84468Y613826D01*
X84839Y614055D01*
X85216Y614275D01*
X85599Y614486D01*
X85986Y614687D01*
X86378Y614878D01*
X86775Y615060D01*
X87176Y615232D01*
X87581Y615394D01*
X87990Y615546D01*
X88403Y615688D01*
X88819Y615819D01*
X89238Y615941D01*
X89660Y616052D01*
X90084Y616153D01*
X90511Y616243D01*
X90940Y616323D01*
X91371Y616393D01*
X91804Y616451D01*
X92237Y616499D01*
X92672Y616537D01*
X93108Y616564D01*
X93544Y616580D01*
X93980Y616585D01*
X94416Y616580D01*
X94852Y616564D01*
X95288Y616537D01*
X95723Y616499D01*
X96156Y616451D01*
X96589Y616393D01*
X97020Y616323D01*
X97449Y616243D01*
X97876Y616153D01*
X98300Y616052D01*
X98722Y615941D01*
X99141Y615819D01*
X99557Y615688D01*
X99970Y615546D01*
X100379Y615394D01*
X100784Y615232D01*
X101185Y615060D01*
X101582Y614878D01*
X101974Y614687D01*
X102361Y614486D01*
X102744Y614275D01*
X103121Y614055D01*
X103492Y613826D01*
X103858Y613589D01*
X104218Y613342D01*
X104572Y613086D01*
X104919Y612822D01*
X105260Y612549D01*
X105593Y612268D01*
X105920Y611979D01*
X106240Y611682D01*
X106552Y611377D01*
X106857Y611065D01*
X107154Y610745D01*
X107443Y610418D01*
X107724Y610085D01*
X107997Y609744D01*
X108261Y609397D01*
X108517Y609043D01*
X108764Y608683D01*
X109001Y608317D01*
X109230Y607946D01*
X109450Y607569D01*
X109661Y607186D01*
X109862Y606799D01*
X110053Y606407D01*
X110235Y606010D01*
X110407Y605609D01*
X110569Y605204D01*
X110721Y604795D01*
X110863Y604382D01*
X110994Y603966D01*
X111116Y603547D01*
X111227Y603125D01*
X111328Y602701D01*
X111418Y602274D01*
X111498Y601845D01*
X111568Y601414D01*
X111626Y600981D01*
X111674Y600548D01*
X111712Y600113D01*
X111739Y599677D01*
X111755Y599241D01*
X111760Y598805D01*
X111755Y598369D01*
X111739Y597933D01*
X111712Y597497D01*
X111674Y597062D01*
X111626Y596629D01*
X111568Y596196D01*
X111498Y595765D01*
X111418Y595336D01*
X111328Y594909D01*
X111227Y594485D01*
X111116Y594063D01*
X110994Y593644D01*
X110863Y593228D01*
X110721Y592815D01*
X110569Y592406D01*
X110407Y592001D01*
X110235Y591600D01*
X110053Y591203D01*
X109862Y590811D01*
X109661Y590424D01*
X109450Y590041D01*
X109230Y589664D01*
X109001Y589293D01*
X108764Y588927D01*
X108517Y588567D01*
X108261Y588213D01*
X107997Y587866D01*
X107724Y587525D01*
X107443Y587192D01*
X107154Y586865D01*
X106857Y586545D01*
X106552Y586233D01*
X106240Y585928D01*
X105920Y585631D01*
X105593Y585342D01*
X105260Y585061D01*
X104919Y584788D01*
X104572Y584524D01*
X104218Y584268D01*
X103858Y584021D01*
X103492Y583784D01*
X103121Y583555D01*
X102744Y583335D01*
X102361Y583124D01*
X101974Y582923D01*
X101582Y582732D01*
X101185Y582550D01*
X100784Y582378D01*
X100379Y582216D01*
X99970Y582064D01*
X99557Y581922D01*
X99141Y581791D01*
X98722Y581669D01*
X98300Y581558D01*
X97876Y581457D01*
X97449Y581367D01*
X97020Y581287D01*
X96589Y581217D01*
X96156Y581159D01*
X95723Y581111D01*
X95288Y581073D01*
X94852Y581046D01*
X94416Y581030D01*
X93980Y581025D01*
X93544Y581030D01*
X93108Y581046D01*
X92672Y581073D01*
X92237Y581111D01*
X91804Y581159D01*
X91371Y581217D01*
X90940Y581287D01*
X90511Y581367D01*
X90084Y581457D01*
X89660Y581558D01*
X89238Y581669D01*
X88819Y581791D01*
X88403Y581922D01*
X87990Y582064D01*
X87581Y582216D01*
X87176Y582378D01*
X86775Y582550D01*
X86378Y582732D01*
X85986Y582923D01*
X85599Y583124D01*
X85216Y583335D01*
X84839Y583555D01*
X84468Y583784D01*
X84102Y584021D01*
X83742Y584268D01*
X83388Y584524D01*
X83041Y584788D01*
X82700Y585061D01*
X82367Y585342D01*
X82040Y585631D01*
X81720Y585928D01*
X81408Y586233D01*
X81103Y586545D01*
X80806Y586865D01*
X80517Y587192D01*
X80236Y587525D01*
X79963Y587866D01*
X79699Y588213D01*
X79443Y588567D01*
X79196Y588927D01*
X78959Y589293D01*
X78730Y589664D01*
X78510Y590041D01*
X78299Y590424D01*
X78098Y590811D01*
X77907Y591203D01*
X77725Y591600D01*
X77553Y592001D01*
X77391Y592406D01*
X77239Y592815D01*
X77097Y593228D01*
X76966Y593644D01*
X76844Y594063D01*
X76733Y594485D01*
X76632Y594909D01*
X76542Y595336D01*
X76462Y595765D01*
X76392Y596196D01*
X76334Y596629D01*
X76286Y597062D01*
X76248Y597497D01*
X76221Y597933D01*
X76205Y598369D01*
X76200Y598805D01*
D10*
X863600Y810895D02*
X863602Y810795D01*
X863608Y810696D01*
X863618Y810596D01*
X863631Y810498D01*
X863649Y810399D01*
X863670Y810302D01*
X863695Y810206D01*
X863724Y810110D01*
X863757Y810016D01*
X863793Y809923D01*
X863833Y809832D01*
X863877Y809742D01*
X863924Y809654D01*
X863974Y809568D01*
X864028Y809484D01*
X864085Y809402D01*
X864145Y809323D01*
X864209Y809245D01*
X864275Y809171D01*
X864344Y809099D01*
X864416Y809030D01*
X864490Y808964D01*
X864568Y808900D01*
X864647Y808840D01*
X864729Y808783D01*
X864813Y808729D01*
X864899Y808679D01*
X864987Y808632D01*
X865077Y808588D01*
X865168Y808548D01*
X865261Y808512D01*
X865355Y808479D01*
X865451Y808450D01*
X865547Y808425D01*
X865644Y808404D01*
X865743Y808386D01*
X865841Y808373D01*
X865941Y808363D01*
X866040Y808357D01*
X866140Y808355D01*
X891540Y808355D02*
X891640Y808357D01*
X891739Y808363D01*
X891839Y808373D01*
X891937Y808386D01*
X892036Y808404D01*
X892133Y808425D01*
X892229Y808450D01*
X892325Y808479D01*
X892419Y808512D01*
X892512Y808548D01*
X892603Y808588D01*
X892693Y808632D01*
X892781Y808679D01*
X892867Y808729D01*
X892951Y808783D01*
X893033Y808840D01*
X893112Y808900D01*
X893190Y808964D01*
X893264Y809030D01*
X893336Y809099D01*
X893405Y809171D01*
X893471Y809245D01*
X893535Y809323D01*
X893595Y809402D01*
X893652Y809484D01*
X893706Y809568D01*
X893756Y809654D01*
X893803Y809742D01*
X893847Y809832D01*
X893887Y809923D01*
X893923Y810016D01*
X893956Y810110D01*
X893985Y810206D01*
X894010Y810302D01*
X894031Y810399D01*
X894049Y810498D01*
X894062Y810596D01*
X894072Y810696D01*
X894078Y810795D01*
X894080Y810895D01*
X894080Y892175D02*
X894078Y892275D01*
X894072Y892374D01*
X894062Y892474D01*
X894049Y892572D01*
X894031Y892671D01*
X894010Y892768D01*
X893985Y892864D01*
X893956Y892960D01*
X893923Y893054D01*
X893887Y893147D01*
X893847Y893238D01*
X893803Y893328D01*
X893756Y893416D01*
X893706Y893502D01*
X893652Y893586D01*
X893595Y893668D01*
X893535Y893747D01*
X893471Y893825D01*
X893405Y893899D01*
X893336Y893971D01*
X893264Y894040D01*
X893190Y894106D01*
X893112Y894170D01*
X893033Y894230D01*
X892951Y894287D01*
X892867Y894341D01*
X892781Y894391D01*
X892693Y894438D01*
X892603Y894482D01*
X892512Y894522D01*
X892419Y894558D01*
X892325Y894591D01*
X892229Y894620D01*
X892133Y894645D01*
X892036Y894666D01*
X891937Y894684D01*
X891839Y894697D01*
X891739Y894707D01*
X891640Y894713D01*
X891540Y894715D01*
X866140Y894715D02*
X866040Y894713D01*
X865941Y894707D01*
X865841Y894697D01*
X865743Y894684D01*
X865644Y894666D01*
X865547Y894645D01*
X865451Y894620D01*
X865355Y894591D01*
X865261Y894558D01*
X865168Y894522D01*
X865077Y894482D01*
X864987Y894438D01*
X864899Y894391D01*
X864813Y894341D01*
X864729Y894287D01*
X864647Y894230D01*
X864568Y894170D01*
X864490Y894106D01*
X864416Y894040D01*
X864344Y893971D01*
X864275Y893899D01*
X864209Y893825D01*
X864145Y893747D01*
X864085Y893668D01*
X864028Y893586D01*
X863974Y893502D01*
X863924Y893416D01*
X863877Y893328D01*
X863833Y893238D01*
X863793Y893147D01*
X863757Y893054D01*
X863724Y892960D01*
X863695Y892864D01*
X863670Y892768D01*
X863649Y892671D01*
X863631Y892572D01*
X863618Y892474D01*
X863608Y892374D01*
X863602Y892275D01*
X863600Y892175D01*
X863600Y817245D02*
X863600Y810895D01*
X863600Y817245D02*
X864870Y818515D01*
X894080Y817245D02*
X894080Y810895D01*
X894080Y817245D02*
X892810Y818515D01*
X864870Y884555D02*
X863600Y885825D01*
X864870Y884555D02*
X864870Y818515D01*
X892810Y884555D02*
X894080Y885825D01*
X892810Y884555D02*
X892810Y818515D01*
X863600Y885825D02*
X863600Y892175D01*
X894080Y892175D02*
X894080Y885825D01*
D11*
X859155Y810260D02*
X847725Y810260D01*
X847725Y813435D01*
X847727Y813546D01*
X847733Y813656D01*
X847742Y813767D01*
X847756Y813877D01*
X847773Y813986D01*
X847794Y814095D01*
X847819Y814203D01*
X847848Y814310D01*
X847880Y814416D01*
X847916Y814521D01*
X847956Y814624D01*
X847999Y814726D01*
X848046Y814827D01*
X848097Y814926D01*
X848150Y815023D01*
X848207Y815117D01*
X848268Y815210D01*
X848331Y815301D01*
X848398Y815390D01*
X848468Y815476D01*
X848541Y815559D01*
X848616Y815641D01*
X848694Y815719D01*
X848776Y815794D01*
X848859Y815867D01*
X848945Y815937D01*
X849034Y816004D01*
X849125Y816067D01*
X849218Y816128D01*
X849313Y816185D01*
X849409Y816238D01*
X849508Y816289D01*
X849609Y816336D01*
X849711Y816379D01*
X849814Y816419D01*
X849919Y816455D01*
X850025Y816487D01*
X850132Y816516D01*
X850240Y816541D01*
X850349Y816562D01*
X850458Y816579D01*
X850568Y816593D01*
X850679Y816602D01*
X850789Y816608D01*
X850900Y816610D01*
X851011Y816608D01*
X851121Y816602D01*
X851232Y816593D01*
X851342Y816579D01*
X851451Y816562D01*
X851560Y816541D01*
X851668Y816516D01*
X851775Y816487D01*
X851881Y816455D01*
X851986Y816419D01*
X852089Y816379D01*
X852191Y816336D01*
X852292Y816289D01*
X852391Y816238D01*
X852488Y816185D01*
X852582Y816128D01*
X852675Y816067D01*
X852766Y816004D01*
X852855Y815937D01*
X852941Y815867D01*
X853024Y815794D01*
X853106Y815719D01*
X853184Y815641D01*
X853259Y815559D01*
X853332Y815476D01*
X853402Y815390D01*
X853469Y815301D01*
X853532Y815210D01*
X853593Y815117D01*
X853650Y815023D01*
X853703Y814926D01*
X853754Y814827D01*
X853801Y814726D01*
X853844Y814624D01*
X853884Y814521D01*
X853920Y814416D01*
X853952Y814310D01*
X853981Y814203D01*
X854006Y814095D01*
X854027Y813986D01*
X854044Y813877D01*
X854058Y813767D01*
X854067Y813656D01*
X854073Y813546D01*
X854075Y813435D01*
X854075Y810260D01*
X854075Y814070D02*
X859155Y816610D01*
X859155Y821607D02*
X859155Y824782D01*
X859153Y824893D01*
X859147Y825003D01*
X859138Y825114D01*
X859124Y825224D01*
X859107Y825333D01*
X859086Y825442D01*
X859061Y825550D01*
X859032Y825657D01*
X859000Y825763D01*
X858964Y825868D01*
X858924Y825971D01*
X858881Y826073D01*
X858834Y826174D01*
X858783Y826273D01*
X858730Y826370D01*
X858673Y826464D01*
X858612Y826557D01*
X858549Y826648D01*
X858482Y826737D01*
X858412Y826823D01*
X858339Y826906D01*
X858264Y826988D01*
X858186Y827066D01*
X858104Y827141D01*
X858021Y827214D01*
X857935Y827284D01*
X857846Y827351D01*
X857755Y827414D01*
X857662Y827475D01*
X857568Y827532D01*
X857471Y827585D01*
X857372Y827636D01*
X857271Y827683D01*
X857169Y827726D01*
X857066Y827766D01*
X856961Y827802D01*
X856855Y827834D01*
X856748Y827863D01*
X856640Y827888D01*
X856531Y827909D01*
X856422Y827926D01*
X856312Y827940D01*
X856201Y827949D01*
X856091Y827955D01*
X855980Y827957D01*
X855869Y827955D01*
X855759Y827949D01*
X855648Y827940D01*
X855538Y827926D01*
X855429Y827909D01*
X855320Y827888D01*
X855212Y827863D01*
X855105Y827834D01*
X854999Y827802D01*
X854894Y827766D01*
X854791Y827726D01*
X854689Y827683D01*
X854588Y827636D01*
X854489Y827585D01*
X854393Y827532D01*
X854298Y827475D01*
X854205Y827414D01*
X854114Y827351D01*
X854025Y827284D01*
X853939Y827214D01*
X853856Y827141D01*
X853774Y827066D01*
X853696Y826988D01*
X853621Y826906D01*
X853548Y826823D01*
X853478Y826737D01*
X853411Y826648D01*
X853348Y826557D01*
X853287Y826464D01*
X853230Y826370D01*
X853177Y826273D01*
X853126Y826174D01*
X853079Y826073D01*
X853036Y825971D01*
X852996Y825868D01*
X852960Y825763D01*
X852928Y825657D01*
X852899Y825550D01*
X852874Y825442D01*
X852853Y825333D01*
X852836Y825224D01*
X852822Y825114D01*
X852813Y825003D01*
X852807Y824893D01*
X852805Y824782D01*
X847725Y825417D02*
X847725Y821607D01*
X847725Y825417D02*
X847727Y825517D01*
X847733Y825616D01*
X847743Y825716D01*
X847756Y825814D01*
X847774Y825913D01*
X847795Y826010D01*
X847820Y826106D01*
X847849Y826202D01*
X847882Y826296D01*
X847918Y826389D01*
X847958Y826480D01*
X848002Y826570D01*
X848049Y826658D01*
X848099Y826744D01*
X848153Y826828D01*
X848210Y826910D01*
X848270Y826989D01*
X848334Y827067D01*
X848400Y827141D01*
X848469Y827213D01*
X848541Y827282D01*
X848615Y827348D01*
X848693Y827412D01*
X848772Y827472D01*
X848854Y827529D01*
X848938Y827583D01*
X849024Y827633D01*
X849112Y827680D01*
X849202Y827724D01*
X849293Y827764D01*
X849386Y827800D01*
X849480Y827833D01*
X849576Y827862D01*
X849672Y827887D01*
X849769Y827908D01*
X849868Y827926D01*
X849966Y827939D01*
X850066Y827949D01*
X850165Y827955D01*
X850265Y827957D01*
X850365Y827955D01*
X850464Y827949D01*
X850564Y827939D01*
X850662Y827926D01*
X850761Y827908D01*
X850858Y827887D01*
X850954Y827862D01*
X851050Y827833D01*
X851144Y827800D01*
X851237Y827764D01*
X851328Y827724D01*
X851418Y827680D01*
X851506Y827633D01*
X851592Y827583D01*
X851676Y827529D01*
X851758Y827472D01*
X851837Y827412D01*
X851915Y827348D01*
X851989Y827282D01*
X852061Y827213D01*
X852130Y827141D01*
X852196Y827067D01*
X852260Y826989D01*
X852320Y826910D01*
X852377Y826828D01*
X852431Y826744D01*
X852481Y826658D01*
X852528Y826570D01*
X852572Y826480D01*
X852612Y826389D01*
X852648Y826296D01*
X852681Y826202D01*
X852710Y826106D01*
X852735Y826010D01*
X852756Y825913D01*
X852774Y825814D01*
X852787Y825716D01*
X852797Y825616D01*
X852803Y825517D01*
X852805Y825417D01*
X852805Y822877D01*
D10*
X911860Y810260D02*
X911862Y810160D01*
X911868Y810061D01*
X911878Y809961D01*
X911891Y809863D01*
X911909Y809764D01*
X911930Y809667D01*
X911955Y809571D01*
X911984Y809475D01*
X912017Y809381D01*
X912053Y809288D01*
X912093Y809197D01*
X912137Y809107D01*
X912184Y809019D01*
X912234Y808933D01*
X912288Y808849D01*
X912345Y808767D01*
X912405Y808688D01*
X912469Y808610D01*
X912535Y808536D01*
X912604Y808464D01*
X912676Y808395D01*
X912750Y808329D01*
X912828Y808265D01*
X912907Y808205D01*
X912989Y808148D01*
X913073Y808094D01*
X913159Y808044D01*
X913247Y807997D01*
X913337Y807953D01*
X913428Y807913D01*
X913521Y807877D01*
X913615Y807844D01*
X913711Y807815D01*
X913807Y807790D01*
X913904Y807769D01*
X914003Y807751D01*
X914101Y807738D01*
X914201Y807728D01*
X914300Y807722D01*
X914400Y807720D01*
X939800Y807720D02*
X939900Y807722D01*
X939999Y807728D01*
X940099Y807738D01*
X940197Y807751D01*
X940296Y807769D01*
X940393Y807790D01*
X940489Y807815D01*
X940585Y807844D01*
X940679Y807877D01*
X940772Y807913D01*
X940863Y807953D01*
X940953Y807997D01*
X941041Y808044D01*
X941127Y808094D01*
X941211Y808148D01*
X941293Y808205D01*
X941372Y808265D01*
X941450Y808329D01*
X941524Y808395D01*
X941596Y808464D01*
X941665Y808536D01*
X941731Y808610D01*
X941795Y808688D01*
X941855Y808767D01*
X941912Y808849D01*
X941966Y808933D01*
X942016Y809019D01*
X942063Y809107D01*
X942107Y809197D01*
X942147Y809288D01*
X942183Y809381D01*
X942216Y809475D01*
X942245Y809571D01*
X942270Y809667D01*
X942291Y809764D01*
X942309Y809863D01*
X942322Y809961D01*
X942332Y810061D01*
X942338Y810160D01*
X942340Y810260D01*
X942340Y891540D02*
X942338Y891640D01*
X942332Y891739D01*
X942322Y891839D01*
X942309Y891937D01*
X942291Y892036D01*
X942270Y892133D01*
X942245Y892229D01*
X942216Y892325D01*
X942183Y892419D01*
X942147Y892512D01*
X942107Y892603D01*
X942063Y892693D01*
X942016Y892781D01*
X941966Y892867D01*
X941912Y892951D01*
X941855Y893033D01*
X941795Y893112D01*
X941731Y893190D01*
X941665Y893264D01*
X941596Y893336D01*
X941524Y893405D01*
X941450Y893471D01*
X941372Y893535D01*
X941293Y893595D01*
X941211Y893652D01*
X941127Y893706D01*
X941041Y893756D01*
X940953Y893803D01*
X940863Y893847D01*
X940772Y893887D01*
X940679Y893923D01*
X940585Y893956D01*
X940489Y893985D01*
X940393Y894010D01*
X940296Y894031D01*
X940197Y894049D01*
X940099Y894062D01*
X939999Y894072D01*
X939900Y894078D01*
X939800Y894080D01*
X914400Y894080D02*
X914300Y894078D01*
X914201Y894072D01*
X914101Y894062D01*
X914003Y894049D01*
X913904Y894031D01*
X913807Y894010D01*
X913711Y893985D01*
X913615Y893956D01*
X913521Y893923D01*
X913428Y893887D01*
X913337Y893847D01*
X913247Y893803D01*
X913159Y893756D01*
X913073Y893706D01*
X912989Y893652D01*
X912907Y893595D01*
X912828Y893535D01*
X912750Y893471D01*
X912676Y893405D01*
X912604Y893336D01*
X912535Y893264D01*
X912469Y893190D01*
X912405Y893112D01*
X912345Y893033D01*
X912288Y892951D01*
X912234Y892867D01*
X912184Y892781D01*
X912137Y892693D01*
X912093Y892603D01*
X912053Y892512D01*
X912017Y892419D01*
X911984Y892325D01*
X911955Y892229D01*
X911930Y892133D01*
X911909Y892036D01*
X911891Y891937D01*
X911878Y891839D01*
X911868Y891739D01*
X911862Y891640D01*
X911860Y891540D01*
X911860Y816610D02*
X911860Y810260D01*
X911860Y816610D02*
X913130Y817880D01*
X942340Y816610D02*
X942340Y810260D01*
X942340Y816610D02*
X941070Y817880D01*
X913130Y883920D02*
X911860Y885190D01*
X913130Y883920D02*
X913130Y817880D01*
X941070Y883920D02*
X942340Y885190D01*
X941070Y883920D02*
X941070Y817880D01*
X911860Y885190D02*
X911860Y891540D01*
X942340Y891540D02*
X942340Y885190D01*
D11*
X907415Y809625D02*
X895985Y809625D01*
X895985Y812800D01*
X895987Y812911D01*
X895993Y813021D01*
X896002Y813132D01*
X896016Y813242D01*
X896033Y813351D01*
X896054Y813460D01*
X896079Y813568D01*
X896108Y813675D01*
X896140Y813781D01*
X896176Y813886D01*
X896216Y813989D01*
X896259Y814091D01*
X896306Y814192D01*
X896357Y814291D01*
X896410Y814388D01*
X896467Y814482D01*
X896528Y814575D01*
X896591Y814666D01*
X896658Y814755D01*
X896728Y814841D01*
X896801Y814924D01*
X896876Y815006D01*
X896954Y815084D01*
X897036Y815159D01*
X897119Y815232D01*
X897205Y815302D01*
X897294Y815369D01*
X897385Y815432D01*
X897478Y815493D01*
X897573Y815550D01*
X897669Y815603D01*
X897768Y815654D01*
X897869Y815701D01*
X897971Y815744D01*
X898074Y815784D01*
X898179Y815820D01*
X898285Y815852D01*
X898392Y815881D01*
X898500Y815906D01*
X898609Y815927D01*
X898718Y815944D01*
X898828Y815958D01*
X898939Y815967D01*
X899049Y815973D01*
X899160Y815975D01*
X899271Y815973D01*
X899381Y815967D01*
X899492Y815958D01*
X899602Y815944D01*
X899711Y815927D01*
X899820Y815906D01*
X899928Y815881D01*
X900035Y815852D01*
X900141Y815820D01*
X900246Y815784D01*
X900349Y815744D01*
X900451Y815701D01*
X900552Y815654D01*
X900651Y815603D01*
X900748Y815550D01*
X900842Y815493D01*
X900935Y815432D01*
X901026Y815369D01*
X901115Y815302D01*
X901201Y815232D01*
X901284Y815159D01*
X901366Y815084D01*
X901444Y815006D01*
X901519Y814924D01*
X901592Y814841D01*
X901662Y814755D01*
X901729Y814666D01*
X901792Y814575D01*
X901853Y814482D01*
X901910Y814388D01*
X901963Y814291D01*
X902014Y814192D01*
X902061Y814091D01*
X902104Y813989D01*
X902144Y813886D01*
X902180Y813781D01*
X902212Y813675D01*
X902241Y813568D01*
X902266Y813460D01*
X902287Y813351D01*
X902304Y813242D01*
X902318Y813132D01*
X902327Y813021D01*
X902333Y812911D01*
X902335Y812800D01*
X902335Y809625D01*
X902335Y813435D02*
X907415Y815975D01*
X904875Y820972D02*
X895985Y823512D01*
X904875Y820972D02*
X904875Y827322D01*
X902335Y825417D02*
X907415Y825417D01*
D10*
X887698Y930574D02*
X887998Y930793D01*
X888292Y931020D01*
X888580Y931254D01*
X888863Y931495D01*
X889140Y931742D01*
X889411Y931997D01*
X889675Y932258D01*
X889933Y932525D01*
X890184Y932798D01*
X890429Y933078D01*
X890667Y933363D01*
X890897Y933654D01*
X891121Y933951D01*
X891337Y934253D01*
X891546Y934560D01*
X891747Y934872D01*
X891941Y935189D01*
X892127Y935511D01*
X892305Y935837D01*
X892475Y936167D01*
X892637Y936501D01*
X892790Y936839D01*
X892936Y937181D01*
X893073Y937526D01*
X893201Y937875D01*
X893321Y938226D01*
X893433Y938581D01*
X893535Y938938D01*
X893630Y939297D01*
X893715Y939658D01*
X893791Y940022D01*
X893859Y940387D01*
X893917Y940754D01*
X893967Y941122D01*
X894008Y941491D01*
X894039Y941861D01*
X894062Y942232D01*
X894075Y942603D01*
X894080Y942975D01*
X894075Y943347D01*
X894062Y943718D01*
X894039Y944090D01*
X894007Y944460D01*
X893967Y944830D01*
X893917Y945198D01*
X893858Y945566D01*
X893791Y945931D01*
X893714Y946295D01*
X893628Y946657D01*
X893534Y947017D01*
X893431Y947374D01*
X893320Y947729D01*
X893199Y948081D01*
X893070Y948430D01*
X892933Y948775D01*
X892787Y949117D01*
X892633Y949456D01*
X892471Y949791D01*
X892301Y950121D01*
X892122Y950447D01*
X891936Y950769D01*
X891742Y951087D01*
X891540Y951399D01*
X891331Y951706D01*
X891114Y952008D01*
X890890Y952305D01*
X890659Y952597D01*
X890421Y952882D01*
X890175Y953162D01*
X889923Y953435D01*
X889665Y953703D01*
X889400Y953963D01*
X889129Y954218D01*
X888851Y954466D01*
X888568Y954706D01*
X888279Y954940D01*
X887984Y955167D01*
X863600Y942975D02*
X863604Y942610D01*
X863617Y942245D01*
X863639Y941881D01*
X863670Y941518D01*
X863709Y941155D01*
X863757Y940793D01*
X863814Y940433D01*
X863879Y940074D01*
X863952Y939716D01*
X864035Y939361D01*
X864125Y939008D01*
X864225Y938656D01*
X864332Y938308D01*
X864448Y937962D01*
X864572Y937619D01*
X864705Y937279D01*
X864845Y936942D01*
X864993Y936609D01*
X865150Y936279D01*
X865314Y935953D01*
X865486Y935631D01*
X865666Y935314D01*
X865853Y935001D01*
X866047Y934692D01*
X866249Y934388D01*
X866459Y934089D01*
X866675Y933795D01*
X866898Y933507D01*
X867128Y933224D01*
X867365Y932946D01*
X867608Y932674D01*
X867858Y932408D01*
X868114Y932148D01*
X868377Y931895D01*
X868645Y931647D01*
X868919Y931407D01*
X869199Y931172D01*
X869484Y930945D01*
X863600Y942975D02*
X863604Y943340D01*
X863617Y943705D01*
X863639Y944069D01*
X863670Y944432D01*
X863709Y944795D01*
X863757Y945157D01*
X863814Y945517D01*
X863879Y945876D01*
X863952Y946234D01*
X864035Y946589D01*
X864125Y946942D01*
X864225Y947294D01*
X864332Y947642D01*
X864448Y947988D01*
X864572Y948331D01*
X864705Y948671D01*
X864845Y949008D01*
X864993Y949341D01*
X865150Y949671D01*
X865314Y949997D01*
X865486Y950319D01*
X865666Y950636D01*
X865853Y950949D01*
X866047Y951258D01*
X866249Y951562D01*
X866459Y951861D01*
X866675Y952155D01*
X866898Y952443D01*
X867128Y952726D01*
X867365Y953004D01*
X867608Y953276D01*
X867858Y953542D01*
X868114Y953802D01*
X868377Y954055D01*
X868645Y954303D01*
X868919Y954543D01*
X869199Y954778D01*
X869484Y955005D01*
D18*
X899160Y942975D02*
X899154Y942481D01*
X899136Y941987D01*
X899106Y941493D01*
X899064Y941000D01*
X899010Y940509D01*
X898944Y940019D01*
X898866Y939531D01*
X898776Y939044D01*
X898675Y938560D01*
X898561Y938079D01*
X898436Y937601D01*
X898300Y937125D01*
X898152Y936654D01*
X897992Y936186D01*
X897821Y935722D01*
X897639Y935262D01*
X897446Y934807D01*
X897242Y934356D01*
X897027Y933911D01*
X896801Y933471D01*
X896564Y933037D01*
X896317Y932609D01*
X896060Y932187D01*
X895792Y931771D01*
X895514Y931362D01*
X895227Y930960D01*
X894930Y930564D01*
X894623Y930177D01*
X894307Y929796D01*
X893982Y929424D01*
X893647Y929059D01*
X893304Y928703D01*
X892953Y928356D01*
X892593Y928016D01*
X892225Y927686D01*
X891849Y927365D01*
X899160Y942975D02*
X899154Y943463D01*
X899137Y943950D01*
X899107Y944437D01*
X899066Y944924D01*
X899014Y945409D01*
X898949Y945893D01*
X898873Y946375D01*
X898786Y946855D01*
X898687Y947333D01*
X898577Y947808D01*
X898455Y948281D01*
X898322Y948750D01*
X898177Y949217D01*
X898022Y949679D01*
X897855Y950138D01*
X897678Y950593D01*
X897489Y951043D01*
X897290Y951488D01*
X897080Y951929D01*
X896860Y952365D01*
X896629Y952795D01*
X896388Y953219D01*
X896137Y953637D01*
X895876Y954050D01*
X895605Y954456D01*
X895325Y954855D01*
X895035Y955248D01*
X894735Y955633D01*
X894426Y956011D01*
X894109Y956382D01*
X893782Y956744D01*
X893447Y957099D01*
X893104Y957446D01*
X892752Y957784D01*
X892393Y958114D01*
X892025Y958435D01*
X891650Y958748D01*
X891267Y959051D01*
X890878Y959345D01*
X890481Y959629D01*
X890078Y959904D01*
X889668Y960169D01*
X889252Y960424D01*
X888830Y960669D01*
X888402Y960904D01*
X858520Y942975D02*
X858526Y942485D01*
X858544Y941995D01*
X858573Y941506D01*
X858615Y941017D01*
X858668Y940530D01*
X858732Y940044D01*
X858809Y939560D01*
X858897Y939078D01*
X858997Y938598D01*
X859108Y938120D01*
X859231Y937646D01*
X859366Y937174D01*
X859511Y936706D01*
X859668Y936242D01*
X859836Y935781D01*
X860015Y935325D01*
X860205Y934873D01*
X860406Y934426D01*
X860618Y933984D01*
X860840Y933547D01*
X861072Y933115D01*
X861315Y932689D01*
X861569Y932270D01*
X861832Y931856D01*
X862105Y931449D01*
X862388Y931049D01*
X862681Y930655D01*
X862982Y930269D01*
X863294Y929890D01*
X863614Y929519D01*
X863943Y929156D01*
X864280Y928800D01*
X864627Y928453D01*
X864981Y928115D01*
X865344Y927785D01*
X865714Y927463D01*
X858520Y942975D02*
X858526Y943472D01*
X858544Y943969D01*
X858575Y944465D01*
X858617Y944960D01*
X858672Y945454D01*
X858738Y945947D01*
X858817Y946437D01*
X858908Y946926D01*
X859010Y947412D01*
X859125Y947896D01*
X859251Y948376D01*
X859389Y948854D01*
X859538Y949328D01*
X859699Y949798D01*
X859872Y950264D01*
X860056Y950726D01*
X860251Y951183D01*
X860457Y951635D01*
X860674Y952082D01*
X860903Y952523D01*
X861141Y952959D01*
X861391Y953389D01*
X861651Y953812D01*
X861921Y954230D01*
X862201Y954640D01*
X862491Y955043D01*
X862791Y955440D01*
X863101Y955828D01*
X863420Y956209D01*
X863748Y956582D01*
X864085Y956947D01*
X864431Y957304D01*
X864786Y957652D01*
X865149Y957991D01*
X865520Y958322D01*
X865900Y958643D01*
X866287Y958955D01*
X866681Y959257D01*
X867083Y959549D01*
X867492Y959832D01*
X867907Y960104D01*
X868330Y960367D01*
X868758Y960618D01*
D11*
X883285Y885342D02*
X894715Y885342D01*
X894715Y890422D01*
X894715Y895248D02*
X894715Y900328D01*
X894715Y895248D02*
X883285Y895248D01*
X883285Y900328D01*
X888365Y899058D02*
X888365Y895248D01*
X883285Y905129D02*
X894715Y905129D01*
X883285Y905129D02*
X883285Y908304D01*
X883287Y908415D01*
X883293Y908525D01*
X883302Y908636D01*
X883316Y908746D01*
X883333Y908855D01*
X883354Y908964D01*
X883379Y909072D01*
X883408Y909179D01*
X883440Y909285D01*
X883476Y909390D01*
X883516Y909493D01*
X883559Y909595D01*
X883606Y909696D01*
X883657Y909795D01*
X883710Y909892D01*
X883767Y909986D01*
X883828Y910079D01*
X883891Y910170D01*
X883958Y910259D01*
X884028Y910345D01*
X884101Y910428D01*
X884176Y910510D01*
X884254Y910588D01*
X884336Y910663D01*
X884419Y910736D01*
X884505Y910806D01*
X884594Y910873D01*
X884685Y910936D01*
X884778Y910997D01*
X884873Y911054D01*
X884969Y911107D01*
X885068Y911158D01*
X885169Y911205D01*
X885271Y911248D01*
X885374Y911288D01*
X885479Y911324D01*
X885585Y911356D01*
X885692Y911385D01*
X885800Y911410D01*
X885909Y911431D01*
X886018Y911448D01*
X886128Y911462D01*
X886239Y911471D01*
X886349Y911477D01*
X886460Y911479D01*
X891540Y911479D01*
X891651Y911477D01*
X891761Y911471D01*
X891872Y911462D01*
X891982Y911448D01*
X892091Y911431D01*
X892200Y911410D01*
X892308Y911385D01*
X892415Y911356D01*
X892521Y911324D01*
X892626Y911288D01*
X892729Y911248D01*
X892831Y911205D01*
X892932Y911158D01*
X893031Y911107D01*
X893128Y911054D01*
X893222Y910997D01*
X893315Y910936D01*
X893406Y910873D01*
X893495Y910806D01*
X893581Y910736D01*
X893664Y910663D01*
X893746Y910588D01*
X893824Y910510D01*
X893899Y910428D01*
X893972Y910345D01*
X894042Y910259D01*
X894109Y910170D01*
X894172Y910079D01*
X894233Y909986D01*
X894290Y909892D01*
X894343Y909795D01*
X894394Y909696D01*
X894441Y909595D01*
X894484Y909493D01*
X894524Y909390D01*
X894560Y909285D01*
X894592Y909179D01*
X894621Y909072D01*
X894646Y908964D01*
X894667Y908855D01*
X894684Y908746D01*
X894698Y908636D01*
X894707Y908525D01*
X894713Y908415D01*
X894715Y908304D01*
X894715Y905129D01*
X894715Y916940D02*
X894715Y920115D01*
X894713Y920226D01*
X894707Y920336D01*
X894698Y920447D01*
X894684Y920557D01*
X894667Y920666D01*
X894646Y920775D01*
X894621Y920883D01*
X894592Y920990D01*
X894560Y921096D01*
X894524Y921201D01*
X894484Y921304D01*
X894441Y921406D01*
X894394Y921507D01*
X894343Y921606D01*
X894290Y921703D01*
X894233Y921797D01*
X894172Y921890D01*
X894109Y921981D01*
X894042Y922070D01*
X893972Y922156D01*
X893899Y922239D01*
X893824Y922321D01*
X893746Y922399D01*
X893664Y922474D01*
X893581Y922547D01*
X893495Y922617D01*
X893406Y922684D01*
X893315Y922747D01*
X893222Y922808D01*
X893128Y922865D01*
X893031Y922918D01*
X892932Y922969D01*
X892831Y923016D01*
X892729Y923059D01*
X892626Y923099D01*
X892521Y923135D01*
X892415Y923167D01*
X892308Y923196D01*
X892200Y923221D01*
X892091Y923242D01*
X891982Y923259D01*
X891872Y923273D01*
X891761Y923282D01*
X891651Y923288D01*
X891540Y923290D01*
X891429Y923288D01*
X891319Y923282D01*
X891208Y923273D01*
X891098Y923259D01*
X890989Y923242D01*
X890880Y923221D01*
X890772Y923196D01*
X890665Y923167D01*
X890559Y923135D01*
X890454Y923099D01*
X890351Y923059D01*
X890249Y923016D01*
X890148Y922969D01*
X890049Y922918D01*
X889953Y922865D01*
X889858Y922808D01*
X889765Y922747D01*
X889674Y922684D01*
X889585Y922617D01*
X889499Y922547D01*
X889416Y922474D01*
X889334Y922399D01*
X889256Y922321D01*
X889181Y922239D01*
X889108Y922156D01*
X889038Y922070D01*
X888971Y921981D01*
X888908Y921890D01*
X888847Y921797D01*
X888790Y921703D01*
X888737Y921606D01*
X888686Y921507D01*
X888639Y921406D01*
X888596Y921304D01*
X888556Y921201D01*
X888520Y921096D01*
X888488Y920990D01*
X888459Y920883D01*
X888434Y920775D01*
X888413Y920666D01*
X888396Y920557D01*
X888382Y920447D01*
X888373Y920336D01*
X888367Y920226D01*
X888365Y920115D01*
X883285Y920750D02*
X883285Y916940D01*
X883285Y920750D02*
X883287Y920850D01*
X883293Y920949D01*
X883303Y921049D01*
X883316Y921147D01*
X883334Y921246D01*
X883355Y921343D01*
X883380Y921439D01*
X883409Y921535D01*
X883442Y921629D01*
X883478Y921722D01*
X883518Y921813D01*
X883562Y921903D01*
X883609Y921991D01*
X883659Y922077D01*
X883713Y922161D01*
X883770Y922243D01*
X883830Y922322D01*
X883894Y922400D01*
X883960Y922474D01*
X884029Y922546D01*
X884101Y922615D01*
X884175Y922681D01*
X884253Y922745D01*
X884332Y922805D01*
X884414Y922862D01*
X884498Y922916D01*
X884584Y922966D01*
X884672Y923013D01*
X884762Y923057D01*
X884853Y923097D01*
X884946Y923133D01*
X885040Y923166D01*
X885136Y923195D01*
X885232Y923220D01*
X885329Y923241D01*
X885428Y923259D01*
X885526Y923272D01*
X885626Y923282D01*
X885725Y923288D01*
X885825Y923290D01*
X885925Y923288D01*
X886024Y923282D01*
X886124Y923272D01*
X886222Y923259D01*
X886321Y923241D01*
X886418Y923220D01*
X886514Y923195D01*
X886610Y923166D01*
X886704Y923133D01*
X886797Y923097D01*
X886888Y923057D01*
X886978Y923013D01*
X887066Y922966D01*
X887152Y922916D01*
X887236Y922862D01*
X887318Y922805D01*
X887397Y922745D01*
X887475Y922681D01*
X887549Y922615D01*
X887621Y922546D01*
X887690Y922474D01*
X887756Y922400D01*
X887820Y922322D01*
X887880Y922243D01*
X887937Y922161D01*
X887991Y922077D01*
X888041Y921991D01*
X888088Y921903D01*
X888132Y921813D01*
X888172Y921722D01*
X888208Y921629D01*
X888241Y921535D01*
X888270Y921439D01*
X888295Y921343D01*
X888316Y921246D01*
X888334Y921147D01*
X888347Y921049D01*
X888357Y920949D01*
X888363Y920850D01*
X888365Y920750D01*
X888365Y918210D01*
D10*
X935958Y930574D02*
X936258Y930793D01*
X936552Y931020D01*
X936840Y931254D01*
X937123Y931495D01*
X937400Y931742D01*
X937671Y931997D01*
X937935Y932258D01*
X938193Y932525D01*
X938444Y932798D01*
X938689Y933078D01*
X938927Y933363D01*
X939157Y933654D01*
X939381Y933951D01*
X939597Y934253D01*
X939806Y934560D01*
X940007Y934872D01*
X940201Y935189D01*
X940387Y935511D01*
X940565Y935837D01*
X940735Y936167D01*
X940897Y936501D01*
X941050Y936839D01*
X941196Y937181D01*
X941333Y937526D01*
X941461Y937875D01*
X941581Y938226D01*
X941693Y938581D01*
X941795Y938938D01*
X941890Y939297D01*
X941975Y939658D01*
X942051Y940022D01*
X942119Y940387D01*
X942177Y940754D01*
X942227Y941122D01*
X942268Y941491D01*
X942299Y941861D01*
X942322Y942232D01*
X942335Y942603D01*
X942340Y942975D01*
X942335Y943347D01*
X942322Y943718D01*
X942299Y944090D01*
X942267Y944460D01*
X942227Y944830D01*
X942177Y945198D01*
X942118Y945566D01*
X942051Y945931D01*
X941974Y946295D01*
X941888Y946657D01*
X941794Y947017D01*
X941691Y947374D01*
X941580Y947729D01*
X941459Y948081D01*
X941330Y948430D01*
X941193Y948775D01*
X941047Y949117D01*
X940893Y949456D01*
X940731Y949791D01*
X940561Y950121D01*
X940382Y950447D01*
X940196Y950769D01*
X940002Y951087D01*
X939800Y951399D01*
X939591Y951706D01*
X939374Y952008D01*
X939150Y952305D01*
X938919Y952597D01*
X938681Y952882D01*
X938435Y953162D01*
X938183Y953435D01*
X937925Y953703D01*
X937660Y953963D01*
X937389Y954218D01*
X937111Y954466D01*
X936828Y954706D01*
X936539Y954940D01*
X936244Y955167D01*
X911860Y942975D02*
X911864Y942610D01*
X911877Y942245D01*
X911899Y941881D01*
X911930Y941518D01*
X911969Y941155D01*
X912017Y940793D01*
X912074Y940433D01*
X912139Y940074D01*
X912212Y939716D01*
X912295Y939361D01*
X912385Y939008D01*
X912485Y938656D01*
X912592Y938308D01*
X912708Y937962D01*
X912832Y937619D01*
X912965Y937279D01*
X913105Y936942D01*
X913253Y936609D01*
X913410Y936279D01*
X913574Y935953D01*
X913746Y935631D01*
X913926Y935314D01*
X914113Y935001D01*
X914307Y934692D01*
X914509Y934388D01*
X914719Y934089D01*
X914935Y933795D01*
X915158Y933507D01*
X915388Y933224D01*
X915625Y932946D01*
X915868Y932674D01*
X916118Y932408D01*
X916374Y932148D01*
X916637Y931895D01*
X916905Y931647D01*
X917179Y931407D01*
X917459Y931172D01*
X917744Y930945D01*
X911860Y942975D02*
X911864Y943340D01*
X911877Y943705D01*
X911899Y944069D01*
X911930Y944432D01*
X911969Y944795D01*
X912017Y945157D01*
X912074Y945517D01*
X912139Y945876D01*
X912212Y946234D01*
X912295Y946589D01*
X912385Y946942D01*
X912485Y947294D01*
X912592Y947642D01*
X912708Y947988D01*
X912832Y948331D01*
X912965Y948671D01*
X913105Y949008D01*
X913253Y949341D01*
X913410Y949671D01*
X913574Y949997D01*
X913746Y950319D01*
X913926Y950636D01*
X914113Y950949D01*
X914307Y951258D01*
X914509Y951562D01*
X914719Y951861D01*
X914935Y952155D01*
X915158Y952443D01*
X915388Y952726D01*
X915625Y953004D01*
X915868Y953276D01*
X916118Y953542D01*
X916374Y953802D01*
X916637Y954055D01*
X916905Y954303D01*
X917179Y954543D01*
X917459Y954778D01*
X917744Y955005D01*
D18*
X947420Y942975D02*
X947414Y942481D01*
X947396Y941987D01*
X947366Y941493D01*
X947324Y941000D01*
X947270Y940509D01*
X947204Y940019D01*
X947126Y939531D01*
X947036Y939044D01*
X946935Y938560D01*
X946821Y938079D01*
X946696Y937601D01*
X946560Y937125D01*
X946412Y936654D01*
X946252Y936186D01*
X946081Y935722D01*
X945899Y935262D01*
X945706Y934807D01*
X945502Y934356D01*
X945287Y933911D01*
X945061Y933471D01*
X944824Y933037D01*
X944577Y932609D01*
X944320Y932187D01*
X944052Y931771D01*
X943774Y931362D01*
X943487Y930960D01*
X943190Y930564D01*
X942883Y930177D01*
X942567Y929796D01*
X942242Y929424D01*
X941907Y929059D01*
X941564Y928703D01*
X941213Y928356D01*
X940853Y928016D01*
X940485Y927686D01*
X940109Y927365D01*
X947420Y942975D02*
X947414Y943463D01*
X947397Y943950D01*
X947367Y944437D01*
X947326Y944924D01*
X947274Y945409D01*
X947209Y945893D01*
X947133Y946375D01*
X947046Y946855D01*
X946947Y947333D01*
X946837Y947808D01*
X946715Y948281D01*
X946582Y948750D01*
X946437Y949217D01*
X946282Y949679D01*
X946115Y950138D01*
X945938Y950593D01*
X945749Y951043D01*
X945550Y951488D01*
X945340Y951929D01*
X945120Y952365D01*
X944889Y952795D01*
X944648Y953219D01*
X944397Y953637D01*
X944136Y954050D01*
X943865Y954456D01*
X943585Y954855D01*
X943295Y955248D01*
X942995Y955633D01*
X942686Y956011D01*
X942369Y956382D01*
X942042Y956744D01*
X941707Y957099D01*
X941364Y957446D01*
X941012Y957784D01*
X940653Y958114D01*
X940285Y958435D01*
X939910Y958748D01*
X939527Y959051D01*
X939138Y959345D01*
X938741Y959629D01*
X938338Y959904D01*
X937928Y960169D01*
X937512Y960424D01*
X937090Y960669D01*
X936662Y960904D01*
X906780Y942975D02*
X906786Y942485D01*
X906804Y941995D01*
X906833Y941506D01*
X906875Y941017D01*
X906928Y940530D01*
X906992Y940044D01*
X907069Y939560D01*
X907157Y939078D01*
X907257Y938598D01*
X907368Y938120D01*
X907491Y937646D01*
X907626Y937174D01*
X907771Y936706D01*
X907928Y936242D01*
X908096Y935781D01*
X908275Y935325D01*
X908465Y934873D01*
X908666Y934426D01*
X908878Y933984D01*
X909100Y933547D01*
X909332Y933115D01*
X909575Y932689D01*
X909829Y932270D01*
X910092Y931856D01*
X910365Y931449D01*
X910648Y931049D01*
X910941Y930655D01*
X911242Y930269D01*
X911554Y929890D01*
X911874Y929519D01*
X912203Y929156D01*
X912540Y928800D01*
X912887Y928453D01*
X913241Y928115D01*
X913604Y927785D01*
X913974Y927463D01*
X906780Y942975D02*
X906786Y943472D01*
X906804Y943969D01*
X906835Y944465D01*
X906877Y944960D01*
X906932Y945454D01*
X906998Y945947D01*
X907077Y946437D01*
X907168Y946926D01*
X907270Y947412D01*
X907385Y947896D01*
X907511Y948376D01*
X907649Y948854D01*
X907798Y949328D01*
X907959Y949798D01*
X908132Y950264D01*
X908316Y950726D01*
X908511Y951183D01*
X908717Y951635D01*
X908934Y952082D01*
X909163Y952523D01*
X909401Y952959D01*
X909651Y953389D01*
X909911Y953812D01*
X910181Y954230D01*
X910461Y954640D01*
X910751Y955043D01*
X911051Y955440D01*
X911361Y955828D01*
X911680Y956209D01*
X912008Y956582D01*
X912345Y956947D01*
X912691Y957304D01*
X913046Y957652D01*
X913409Y957991D01*
X913780Y958322D01*
X914160Y958643D01*
X914547Y958955D01*
X914941Y959257D01*
X915343Y959549D01*
X915752Y959832D01*
X916167Y960104D01*
X916590Y960367D01*
X917018Y960618D01*
D11*
X931545Y885342D02*
X942975Y885342D01*
X942975Y890422D01*
X942975Y895248D02*
X942975Y900328D01*
X942975Y895248D02*
X931545Y895248D01*
X931545Y900328D01*
X936625Y899058D02*
X936625Y895248D01*
X931545Y905129D02*
X942975Y905129D01*
X931545Y905129D02*
X931545Y908304D01*
X931547Y908415D01*
X931553Y908525D01*
X931562Y908636D01*
X931576Y908746D01*
X931593Y908855D01*
X931614Y908964D01*
X931639Y909072D01*
X931668Y909179D01*
X931700Y909285D01*
X931736Y909390D01*
X931776Y909493D01*
X931819Y909595D01*
X931866Y909696D01*
X931917Y909795D01*
X931970Y909892D01*
X932027Y909986D01*
X932088Y910079D01*
X932151Y910170D01*
X932218Y910259D01*
X932288Y910345D01*
X932361Y910428D01*
X932436Y910510D01*
X932514Y910588D01*
X932596Y910663D01*
X932679Y910736D01*
X932765Y910806D01*
X932854Y910873D01*
X932945Y910936D01*
X933038Y910997D01*
X933133Y911054D01*
X933229Y911107D01*
X933328Y911158D01*
X933429Y911205D01*
X933531Y911248D01*
X933634Y911288D01*
X933739Y911324D01*
X933845Y911356D01*
X933952Y911385D01*
X934060Y911410D01*
X934169Y911431D01*
X934278Y911448D01*
X934388Y911462D01*
X934499Y911471D01*
X934609Y911477D01*
X934720Y911479D01*
X939800Y911479D01*
X939911Y911477D01*
X940021Y911471D01*
X940132Y911462D01*
X940242Y911448D01*
X940351Y911431D01*
X940460Y911410D01*
X940568Y911385D01*
X940675Y911356D01*
X940781Y911324D01*
X940886Y911288D01*
X940989Y911248D01*
X941091Y911205D01*
X941192Y911158D01*
X941291Y911107D01*
X941388Y911054D01*
X941482Y910997D01*
X941575Y910936D01*
X941666Y910873D01*
X941755Y910806D01*
X941841Y910736D01*
X941924Y910663D01*
X942006Y910588D01*
X942084Y910510D01*
X942159Y910428D01*
X942232Y910345D01*
X942302Y910259D01*
X942369Y910170D01*
X942432Y910079D01*
X942493Y909986D01*
X942550Y909892D01*
X942603Y909795D01*
X942654Y909696D01*
X942701Y909595D01*
X942744Y909493D01*
X942784Y909390D01*
X942820Y909285D01*
X942852Y909179D01*
X942881Y909072D01*
X942906Y908964D01*
X942927Y908855D01*
X942944Y908746D01*
X942958Y908636D01*
X942967Y908525D01*
X942973Y908415D01*
X942975Y908304D01*
X942975Y905129D01*
X940435Y916940D02*
X931545Y919480D01*
X940435Y916940D02*
X940435Y923290D01*
X937895Y921385D02*
X942975Y921385D01*
D10*
X199390Y652145D02*
X199388Y652045D01*
X199382Y651946D01*
X199372Y651846D01*
X199359Y651748D01*
X199341Y651649D01*
X199320Y651552D01*
X199295Y651456D01*
X199266Y651360D01*
X199233Y651266D01*
X199197Y651173D01*
X199157Y651082D01*
X199113Y650992D01*
X199066Y650904D01*
X199016Y650818D01*
X198962Y650734D01*
X198905Y650652D01*
X198845Y650573D01*
X198781Y650495D01*
X198715Y650421D01*
X198646Y650349D01*
X198574Y650280D01*
X198500Y650214D01*
X198422Y650150D01*
X198343Y650090D01*
X198261Y650033D01*
X198177Y649979D01*
X198091Y649929D01*
X198003Y649882D01*
X197913Y649838D01*
X197822Y649798D01*
X197729Y649762D01*
X197635Y649729D01*
X197539Y649700D01*
X197443Y649675D01*
X197346Y649654D01*
X197247Y649636D01*
X197149Y649623D01*
X197049Y649613D01*
X196950Y649607D01*
X196850Y649605D01*
X199390Y677545D02*
X199388Y677645D01*
X199382Y677744D01*
X199372Y677844D01*
X199359Y677942D01*
X199341Y678041D01*
X199320Y678138D01*
X199295Y678234D01*
X199266Y678330D01*
X199233Y678424D01*
X199197Y678517D01*
X199157Y678608D01*
X199113Y678698D01*
X199066Y678786D01*
X199016Y678872D01*
X198962Y678956D01*
X198905Y679038D01*
X198845Y679117D01*
X198781Y679195D01*
X198715Y679269D01*
X198646Y679341D01*
X198574Y679410D01*
X198500Y679476D01*
X198422Y679540D01*
X198343Y679600D01*
X198261Y679657D01*
X198177Y679711D01*
X198091Y679761D01*
X198003Y679808D01*
X197913Y679852D01*
X197822Y679892D01*
X197729Y679928D01*
X197635Y679961D01*
X197539Y679990D01*
X197443Y680015D01*
X197346Y680036D01*
X197247Y680054D01*
X197149Y680067D01*
X197049Y680077D01*
X196950Y680083D01*
X196850Y680085D01*
X115570Y680085D02*
X115470Y680083D01*
X115371Y680077D01*
X115271Y680067D01*
X115173Y680054D01*
X115074Y680036D01*
X114977Y680015D01*
X114881Y679990D01*
X114785Y679961D01*
X114691Y679928D01*
X114598Y679892D01*
X114507Y679852D01*
X114417Y679808D01*
X114329Y679761D01*
X114243Y679711D01*
X114159Y679657D01*
X114077Y679600D01*
X113998Y679540D01*
X113920Y679476D01*
X113846Y679410D01*
X113774Y679341D01*
X113705Y679269D01*
X113639Y679195D01*
X113575Y679117D01*
X113515Y679038D01*
X113458Y678956D01*
X113404Y678872D01*
X113354Y678786D01*
X113307Y678698D01*
X113263Y678608D01*
X113223Y678517D01*
X113187Y678424D01*
X113154Y678330D01*
X113125Y678234D01*
X113100Y678138D01*
X113079Y678041D01*
X113061Y677942D01*
X113048Y677844D01*
X113038Y677744D01*
X113032Y677645D01*
X113030Y677545D01*
X113030Y652145D02*
X113032Y652045D01*
X113038Y651946D01*
X113048Y651846D01*
X113061Y651748D01*
X113079Y651649D01*
X113100Y651552D01*
X113125Y651456D01*
X113154Y651360D01*
X113187Y651266D01*
X113223Y651173D01*
X113263Y651082D01*
X113307Y650992D01*
X113354Y650904D01*
X113404Y650818D01*
X113458Y650734D01*
X113515Y650652D01*
X113575Y650573D01*
X113639Y650495D01*
X113705Y650421D01*
X113774Y650349D01*
X113846Y650280D01*
X113920Y650214D01*
X113998Y650150D01*
X114077Y650090D01*
X114159Y650033D01*
X114243Y649979D01*
X114329Y649929D01*
X114417Y649882D01*
X114507Y649838D01*
X114598Y649798D01*
X114691Y649762D01*
X114785Y649729D01*
X114881Y649700D01*
X114977Y649675D01*
X115074Y649654D01*
X115173Y649636D01*
X115271Y649623D01*
X115371Y649613D01*
X115470Y649607D01*
X115570Y649605D01*
X190500Y649605D02*
X196850Y649605D01*
X190500Y649605D02*
X189230Y650875D01*
X190500Y680085D02*
X196850Y680085D01*
X190500Y680085D02*
X189230Y678815D01*
X123190Y650875D02*
X121920Y649605D01*
X123190Y650875D02*
X189230Y650875D01*
X123190Y678815D02*
X121920Y680085D01*
X123190Y678815D02*
X189230Y678815D01*
X121920Y649605D02*
X115570Y649605D01*
X115570Y680085D02*
X121920Y680085D01*
D11*
X179788Y645160D02*
X179788Y633730D01*
X179788Y645160D02*
X182963Y645160D01*
X183074Y645158D01*
X183184Y645152D01*
X183295Y645143D01*
X183405Y645129D01*
X183514Y645112D01*
X183623Y645091D01*
X183731Y645066D01*
X183838Y645037D01*
X183944Y645005D01*
X184049Y644969D01*
X184152Y644929D01*
X184254Y644886D01*
X184355Y644839D01*
X184454Y644788D01*
X184551Y644735D01*
X184645Y644678D01*
X184738Y644617D01*
X184829Y644554D01*
X184918Y644487D01*
X185004Y644417D01*
X185087Y644344D01*
X185169Y644269D01*
X185247Y644191D01*
X185322Y644109D01*
X185395Y644026D01*
X185465Y643940D01*
X185532Y643851D01*
X185595Y643760D01*
X185656Y643667D01*
X185713Y643572D01*
X185766Y643476D01*
X185817Y643377D01*
X185864Y643276D01*
X185907Y643174D01*
X185947Y643071D01*
X185983Y642966D01*
X186015Y642860D01*
X186044Y642753D01*
X186069Y642645D01*
X186090Y642536D01*
X186107Y642427D01*
X186121Y642317D01*
X186130Y642206D01*
X186136Y642096D01*
X186138Y641985D01*
X186136Y641874D01*
X186130Y641764D01*
X186121Y641653D01*
X186107Y641543D01*
X186090Y641434D01*
X186069Y641325D01*
X186044Y641217D01*
X186015Y641110D01*
X185983Y641004D01*
X185947Y640899D01*
X185907Y640796D01*
X185864Y640694D01*
X185817Y640593D01*
X185766Y640494D01*
X185713Y640398D01*
X185656Y640303D01*
X185595Y640210D01*
X185532Y640119D01*
X185465Y640030D01*
X185395Y639944D01*
X185322Y639861D01*
X185247Y639779D01*
X185169Y639701D01*
X185087Y639626D01*
X185004Y639553D01*
X184918Y639483D01*
X184829Y639416D01*
X184738Y639353D01*
X184645Y639292D01*
X184550Y639235D01*
X184454Y639182D01*
X184355Y639131D01*
X184254Y639084D01*
X184152Y639041D01*
X184049Y639001D01*
X183944Y638965D01*
X183838Y638933D01*
X183731Y638904D01*
X183623Y638879D01*
X183514Y638858D01*
X183405Y638841D01*
X183295Y638827D01*
X183184Y638818D01*
X183074Y638812D01*
X182963Y638810D01*
X179788Y638810D01*
X183598Y638810D02*
X186138Y633730D01*
X191135Y633730D02*
X194945Y633730D01*
X195045Y633732D01*
X195144Y633738D01*
X195244Y633748D01*
X195342Y633761D01*
X195441Y633779D01*
X195538Y633800D01*
X195634Y633825D01*
X195730Y633854D01*
X195824Y633887D01*
X195917Y633923D01*
X196008Y633963D01*
X196098Y634007D01*
X196186Y634054D01*
X196272Y634104D01*
X196356Y634158D01*
X196438Y634215D01*
X196517Y634275D01*
X196595Y634339D01*
X196669Y634405D01*
X196741Y634474D01*
X196810Y634546D01*
X196876Y634620D01*
X196940Y634698D01*
X197000Y634777D01*
X197057Y634859D01*
X197111Y634943D01*
X197161Y635029D01*
X197208Y635117D01*
X197252Y635207D01*
X197292Y635298D01*
X197328Y635391D01*
X197361Y635485D01*
X197390Y635581D01*
X197415Y635677D01*
X197436Y635774D01*
X197454Y635873D01*
X197467Y635971D01*
X197477Y636071D01*
X197483Y636170D01*
X197485Y636270D01*
X197485Y637540D01*
X197483Y637640D01*
X197477Y637739D01*
X197467Y637839D01*
X197454Y637937D01*
X197436Y638036D01*
X197415Y638133D01*
X197390Y638229D01*
X197361Y638325D01*
X197328Y638419D01*
X197292Y638512D01*
X197252Y638603D01*
X197208Y638693D01*
X197161Y638781D01*
X197111Y638867D01*
X197057Y638951D01*
X197000Y639033D01*
X196940Y639112D01*
X196876Y639190D01*
X196810Y639264D01*
X196741Y639336D01*
X196669Y639405D01*
X196595Y639471D01*
X196517Y639535D01*
X196438Y639595D01*
X196356Y639652D01*
X196272Y639706D01*
X196186Y639756D01*
X196098Y639803D01*
X196008Y639847D01*
X195917Y639887D01*
X195824Y639923D01*
X195730Y639956D01*
X195634Y639985D01*
X195538Y640010D01*
X195441Y640031D01*
X195342Y640049D01*
X195244Y640062D01*
X195144Y640072D01*
X195045Y640078D01*
X194945Y640080D01*
X191135Y640080D01*
X191135Y645160D01*
X197485Y645160D01*
D10*
X80981Y674338D02*
X80762Y674638D01*
X80535Y674932D01*
X80301Y675220D01*
X80060Y675503D01*
X79813Y675780D01*
X79558Y676051D01*
X79297Y676315D01*
X79030Y676573D01*
X78757Y676824D01*
X78477Y677069D01*
X78192Y677307D01*
X77901Y677537D01*
X77604Y677761D01*
X77302Y677977D01*
X76995Y678186D01*
X76683Y678387D01*
X76366Y678581D01*
X76044Y678767D01*
X75718Y678945D01*
X75388Y679115D01*
X75054Y679277D01*
X74716Y679430D01*
X74374Y679576D01*
X74029Y679713D01*
X73680Y679841D01*
X73329Y679961D01*
X72974Y680073D01*
X72617Y680175D01*
X72258Y680270D01*
X71897Y680355D01*
X71533Y680431D01*
X71168Y680499D01*
X70801Y680557D01*
X70433Y680607D01*
X70064Y680648D01*
X69694Y680679D01*
X69323Y680702D01*
X68952Y680715D01*
X68580Y680720D01*
X68208Y680715D01*
X67837Y680702D01*
X67465Y680679D01*
X67095Y680647D01*
X66725Y680607D01*
X66357Y680557D01*
X65989Y680498D01*
X65624Y680431D01*
X65260Y680354D01*
X64898Y680268D01*
X64538Y680174D01*
X64181Y680071D01*
X63826Y679960D01*
X63474Y679839D01*
X63125Y679710D01*
X62780Y679573D01*
X62438Y679427D01*
X62099Y679273D01*
X61764Y679111D01*
X61434Y678941D01*
X61108Y678762D01*
X60786Y678576D01*
X60468Y678382D01*
X60156Y678180D01*
X59849Y677971D01*
X59547Y677754D01*
X59250Y677530D01*
X58958Y677299D01*
X58673Y677061D01*
X58393Y676815D01*
X58120Y676563D01*
X57852Y676305D01*
X57592Y676040D01*
X57337Y675769D01*
X57089Y675491D01*
X56849Y675208D01*
X56615Y674919D01*
X56388Y674624D01*
X68580Y650240D02*
X68945Y650244D01*
X69310Y650257D01*
X69674Y650279D01*
X70037Y650310D01*
X70400Y650349D01*
X70762Y650397D01*
X71122Y650454D01*
X71481Y650519D01*
X71839Y650592D01*
X72194Y650675D01*
X72547Y650765D01*
X72899Y650865D01*
X73247Y650972D01*
X73593Y651088D01*
X73936Y651212D01*
X74276Y651345D01*
X74613Y651485D01*
X74946Y651633D01*
X75276Y651790D01*
X75602Y651954D01*
X75924Y652126D01*
X76241Y652306D01*
X76554Y652493D01*
X76863Y652687D01*
X77167Y652889D01*
X77466Y653099D01*
X77760Y653315D01*
X78048Y653538D01*
X78331Y653768D01*
X78609Y654005D01*
X78881Y654248D01*
X79147Y654498D01*
X79407Y654754D01*
X79660Y655017D01*
X79908Y655285D01*
X80148Y655559D01*
X80383Y655839D01*
X80610Y656124D01*
X68580Y650240D02*
X68215Y650244D01*
X67850Y650257D01*
X67486Y650279D01*
X67123Y650310D01*
X66760Y650349D01*
X66398Y650397D01*
X66038Y650454D01*
X65679Y650519D01*
X65321Y650592D01*
X64966Y650675D01*
X64613Y650765D01*
X64261Y650865D01*
X63913Y650972D01*
X63567Y651088D01*
X63224Y651212D01*
X62884Y651345D01*
X62547Y651485D01*
X62214Y651633D01*
X61884Y651790D01*
X61558Y651954D01*
X61236Y652126D01*
X60919Y652306D01*
X60606Y652493D01*
X60297Y652687D01*
X59993Y652889D01*
X59694Y653099D01*
X59400Y653315D01*
X59112Y653538D01*
X58829Y653768D01*
X58551Y654005D01*
X58279Y654248D01*
X58013Y654498D01*
X57753Y654754D01*
X57500Y655017D01*
X57252Y655285D01*
X57012Y655559D01*
X56777Y655839D01*
X56550Y656124D01*
D18*
X68580Y685800D02*
X69074Y685794D01*
X69568Y685776D01*
X70062Y685746D01*
X70555Y685704D01*
X71046Y685650D01*
X71536Y685584D01*
X72024Y685506D01*
X72511Y685416D01*
X72995Y685315D01*
X73476Y685201D01*
X73954Y685076D01*
X74430Y684940D01*
X74901Y684792D01*
X75369Y684632D01*
X75833Y684461D01*
X76293Y684279D01*
X76748Y684086D01*
X77199Y683882D01*
X77644Y683667D01*
X78084Y683441D01*
X78518Y683204D01*
X78946Y682957D01*
X79368Y682700D01*
X79784Y682432D01*
X80193Y682154D01*
X80595Y681867D01*
X80991Y681570D01*
X81378Y681263D01*
X81759Y680947D01*
X82131Y680622D01*
X82496Y680287D01*
X82852Y679944D01*
X83199Y679593D01*
X83539Y679233D01*
X83869Y678865D01*
X84190Y678489D01*
X68580Y685800D02*
X68092Y685794D01*
X67605Y685777D01*
X67118Y685747D01*
X66631Y685706D01*
X66146Y685654D01*
X65662Y685589D01*
X65180Y685513D01*
X64700Y685426D01*
X64222Y685327D01*
X63747Y685217D01*
X63274Y685095D01*
X62805Y684962D01*
X62338Y684817D01*
X61876Y684662D01*
X61417Y684495D01*
X60962Y684318D01*
X60512Y684129D01*
X60067Y683930D01*
X59626Y683720D01*
X59190Y683500D01*
X58760Y683269D01*
X58336Y683028D01*
X57918Y682777D01*
X57505Y682516D01*
X57099Y682245D01*
X56700Y681965D01*
X56307Y681675D01*
X55922Y681375D01*
X55544Y681066D01*
X55173Y680749D01*
X54811Y680422D01*
X54456Y680087D01*
X54109Y679744D01*
X53771Y679392D01*
X53441Y679033D01*
X53120Y678665D01*
X52807Y678290D01*
X52504Y677907D01*
X52210Y677518D01*
X51926Y677121D01*
X51651Y676718D01*
X51386Y676308D01*
X51131Y675892D01*
X50886Y675470D01*
X50651Y675042D01*
X68580Y645160D02*
X69070Y645166D01*
X69560Y645184D01*
X70049Y645213D01*
X70538Y645255D01*
X71025Y645308D01*
X71511Y645372D01*
X71995Y645449D01*
X72477Y645537D01*
X72957Y645637D01*
X73435Y645748D01*
X73909Y645871D01*
X74381Y646006D01*
X74849Y646151D01*
X75313Y646308D01*
X75774Y646476D01*
X76230Y646655D01*
X76682Y646845D01*
X77129Y647046D01*
X77571Y647258D01*
X78008Y647480D01*
X78440Y647712D01*
X78866Y647955D01*
X79285Y648209D01*
X79699Y648472D01*
X80106Y648745D01*
X80506Y649028D01*
X80900Y649321D01*
X81286Y649622D01*
X81665Y649934D01*
X82036Y650254D01*
X82399Y650583D01*
X82755Y650920D01*
X83102Y651267D01*
X83440Y651621D01*
X83770Y651984D01*
X84092Y652354D01*
X68580Y645160D02*
X68083Y645166D01*
X67586Y645184D01*
X67090Y645215D01*
X66595Y645257D01*
X66101Y645312D01*
X65608Y645378D01*
X65118Y645457D01*
X64629Y645548D01*
X64143Y645650D01*
X63659Y645765D01*
X63179Y645891D01*
X62701Y646029D01*
X62227Y646178D01*
X61757Y646339D01*
X61291Y646512D01*
X60829Y646696D01*
X60372Y646891D01*
X59920Y647097D01*
X59473Y647314D01*
X59032Y647543D01*
X58596Y647781D01*
X58166Y648031D01*
X57743Y648291D01*
X57325Y648561D01*
X56915Y648841D01*
X56512Y649131D01*
X56115Y649431D01*
X55727Y649741D01*
X55346Y650060D01*
X54973Y650388D01*
X54608Y650725D01*
X54251Y651071D01*
X53903Y651426D01*
X53564Y651789D01*
X53233Y652160D01*
X52912Y652540D01*
X52600Y652927D01*
X52298Y653321D01*
X52006Y653723D01*
X51723Y654132D01*
X51451Y654547D01*
X51188Y654970D01*
X50937Y655398D01*
D11*
X88265Y669925D02*
X88265Y681355D01*
X88265Y669925D02*
X93345Y669925D01*
X98171Y669925D02*
X103251Y669925D01*
X98171Y669925D02*
X98171Y681355D01*
X103251Y681355D01*
X101981Y676275D02*
X98171Y676275D01*
X108052Y681355D02*
X108052Y669925D01*
X108052Y681355D02*
X111227Y681355D01*
X111338Y681353D01*
X111448Y681347D01*
X111559Y681338D01*
X111669Y681324D01*
X111778Y681307D01*
X111887Y681286D01*
X111995Y681261D01*
X112102Y681232D01*
X112208Y681200D01*
X112313Y681164D01*
X112416Y681124D01*
X112518Y681081D01*
X112619Y681034D01*
X112718Y680983D01*
X112815Y680930D01*
X112909Y680873D01*
X113002Y680812D01*
X113093Y680749D01*
X113182Y680682D01*
X113268Y680612D01*
X113351Y680539D01*
X113433Y680464D01*
X113511Y680386D01*
X113586Y680304D01*
X113659Y680221D01*
X113729Y680135D01*
X113796Y680046D01*
X113859Y679955D01*
X113920Y679862D01*
X113977Y679768D01*
X114030Y679671D01*
X114081Y679572D01*
X114128Y679471D01*
X114171Y679369D01*
X114211Y679266D01*
X114247Y679161D01*
X114279Y679055D01*
X114308Y678948D01*
X114333Y678840D01*
X114354Y678731D01*
X114371Y678622D01*
X114385Y678512D01*
X114394Y678401D01*
X114400Y678291D01*
X114402Y678180D01*
X114402Y673100D01*
X114400Y672989D01*
X114394Y672879D01*
X114385Y672768D01*
X114371Y672658D01*
X114354Y672549D01*
X114333Y672440D01*
X114308Y672332D01*
X114279Y672225D01*
X114247Y672119D01*
X114211Y672014D01*
X114171Y671911D01*
X114128Y671809D01*
X114081Y671708D01*
X114030Y671609D01*
X113977Y671513D01*
X113920Y671418D01*
X113859Y671325D01*
X113796Y671234D01*
X113729Y671145D01*
X113659Y671059D01*
X113586Y670976D01*
X113511Y670894D01*
X113433Y670816D01*
X113351Y670741D01*
X113268Y670668D01*
X113182Y670598D01*
X113093Y670531D01*
X113002Y670468D01*
X112909Y670407D01*
X112814Y670350D01*
X112718Y670297D01*
X112619Y670246D01*
X112518Y670199D01*
X112416Y670156D01*
X112313Y670116D01*
X112208Y670080D01*
X112102Y670048D01*
X111995Y670019D01*
X111887Y669994D01*
X111778Y669973D01*
X111669Y669956D01*
X111559Y669942D01*
X111448Y669933D01*
X111338Y669927D01*
X111227Y669925D01*
X108052Y669925D01*
X119863Y669925D02*
X123673Y669925D01*
X123773Y669927D01*
X123872Y669933D01*
X123972Y669943D01*
X124070Y669956D01*
X124169Y669974D01*
X124266Y669995D01*
X124362Y670020D01*
X124458Y670049D01*
X124552Y670082D01*
X124645Y670118D01*
X124736Y670158D01*
X124826Y670202D01*
X124914Y670249D01*
X125000Y670299D01*
X125084Y670353D01*
X125166Y670410D01*
X125245Y670470D01*
X125323Y670534D01*
X125397Y670600D01*
X125469Y670669D01*
X125538Y670741D01*
X125604Y670815D01*
X125668Y670893D01*
X125728Y670972D01*
X125785Y671054D01*
X125839Y671138D01*
X125889Y671224D01*
X125936Y671312D01*
X125980Y671402D01*
X126020Y671493D01*
X126056Y671586D01*
X126089Y671680D01*
X126118Y671776D01*
X126143Y671872D01*
X126164Y671969D01*
X126182Y672068D01*
X126195Y672166D01*
X126205Y672266D01*
X126211Y672365D01*
X126213Y672465D01*
X126213Y673735D01*
X126211Y673835D01*
X126205Y673934D01*
X126195Y674034D01*
X126182Y674132D01*
X126164Y674231D01*
X126143Y674328D01*
X126118Y674424D01*
X126089Y674520D01*
X126056Y674614D01*
X126020Y674707D01*
X125980Y674798D01*
X125936Y674888D01*
X125889Y674976D01*
X125839Y675062D01*
X125785Y675146D01*
X125728Y675228D01*
X125668Y675307D01*
X125604Y675385D01*
X125538Y675459D01*
X125469Y675531D01*
X125397Y675600D01*
X125323Y675666D01*
X125245Y675730D01*
X125166Y675790D01*
X125084Y675847D01*
X125000Y675901D01*
X124914Y675951D01*
X124826Y675998D01*
X124736Y676042D01*
X124645Y676082D01*
X124552Y676118D01*
X124458Y676151D01*
X124362Y676180D01*
X124266Y676205D01*
X124169Y676226D01*
X124070Y676244D01*
X123972Y676257D01*
X123872Y676267D01*
X123773Y676273D01*
X123673Y676275D01*
X119863Y676275D01*
X119863Y681355D01*
X126213Y681355D01*
D10*
X102870Y928370D02*
X12700Y928370D01*
X102870Y928370D02*
X102870Y899160D01*
X102870Y886460D02*
X102870Y848360D01*
X102870Y835660D02*
X102870Y806450D01*
X12700Y806450D02*
X12700Y928370D01*
X12700Y806450D02*
X102870Y806450D01*
X-17780Y901700D02*
X-17780Y928370D01*
X12700Y928370D01*
X12700Y806450D02*
X-17780Y806450D01*
X-17780Y883920D02*
X-5080Y887730D01*
X-17780Y883920D02*
X-17780Y850900D01*
X-5080Y887730D02*
X-5080Y897890D01*
X-17780Y901700D01*
X-17780Y883920D01*
X-5080Y836930D02*
X-17780Y833120D01*
X-17780Y806450D01*
X-5080Y847090D02*
X-17780Y850900D01*
X-17780Y833120D01*
X-5080Y836930D02*
X-5080Y847090D01*
D11*
X76835Y909320D02*
X79375Y906145D01*
X76835Y909320D02*
X88265Y909320D01*
X88265Y906145D02*
X88265Y912495D01*
X79693Y864236D02*
X79589Y864234D01*
X79484Y864228D01*
X79380Y864219D01*
X79277Y864206D01*
X79174Y864188D01*
X79072Y864168D01*
X78970Y864143D01*
X78870Y864115D01*
X78770Y864083D01*
X78672Y864047D01*
X78575Y864008D01*
X78480Y863966D01*
X78386Y863920D01*
X78294Y863870D01*
X78204Y863818D01*
X78116Y863762D01*
X78030Y863702D01*
X77946Y863640D01*
X77865Y863575D01*
X77786Y863507D01*
X77709Y863435D01*
X77636Y863362D01*
X77564Y863285D01*
X77496Y863206D01*
X77431Y863125D01*
X77369Y863041D01*
X77309Y862955D01*
X77253Y862867D01*
X77201Y862777D01*
X77151Y862685D01*
X77105Y862591D01*
X77063Y862496D01*
X77024Y862399D01*
X76988Y862301D01*
X76956Y862201D01*
X76928Y862101D01*
X76903Y861999D01*
X76883Y861897D01*
X76865Y861794D01*
X76852Y861691D01*
X76843Y861587D01*
X76837Y861482D01*
X76835Y861378D01*
X76837Y861260D01*
X76843Y861141D01*
X76852Y861023D01*
X76865Y860906D01*
X76883Y860789D01*
X76903Y860672D01*
X76928Y860556D01*
X76956Y860441D01*
X76989Y860328D01*
X77024Y860215D01*
X77064Y860103D01*
X77106Y859993D01*
X77153Y859884D01*
X77203Y859776D01*
X77256Y859671D01*
X77313Y859567D01*
X77373Y859465D01*
X77436Y859365D01*
X77503Y859267D01*
X77572Y859171D01*
X77645Y859078D01*
X77721Y858987D01*
X77799Y858898D01*
X77881Y858812D01*
X77965Y858729D01*
X78051Y858648D01*
X78141Y858571D01*
X78232Y858496D01*
X78326Y858424D01*
X78423Y858355D01*
X78521Y858290D01*
X78622Y858227D01*
X78725Y858168D01*
X78829Y858112D01*
X78935Y858060D01*
X79043Y858011D01*
X79152Y857966D01*
X79263Y857924D01*
X79375Y857886D01*
X81915Y863283D02*
X81840Y863359D01*
X81761Y863434D01*
X81680Y863505D01*
X81596Y863574D01*
X81510Y863639D01*
X81422Y863701D01*
X81332Y863761D01*
X81240Y863817D01*
X81145Y863870D01*
X81049Y863919D01*
X80951Y863965D01*
X80852Y864008D01*
X80751Y864047D01*
X80649Y864082D01*
X80546Y864114D01*
X80442Y864142D01*
X80337Y864167D01*
X80230Y864188D01*
X80124Y864205D01*
X80017Y864218D01*
X79909Y864227D01*
X79801Y864233D01*
X79693Y864235D01*
X81915Y863283D02*
X88265Y857885D01*
X88265Y864235D01*
D10*
X36830Y735330D02*
X39370Y732790D01*
X36830Y730250D01*
X59690Y732790D02*
X62230Y735330D01*
X59690Y732790D02*
X62230Y730250D01*
X62230Y709930D01*
X59690Y707390D01*
X62230Y755650D02*
X59690Y758190D01*
X62230Y755650D02*
X62230Y735330D01*
X59690Y758190D02*
X39370Y758190D01*
X36830Y755650D01*
X36830Y735330D01*
X36830Y730250D02*
X36830Y709930D01*
X39370Y707390D01*
X59690Y707390D01*
D11*
X32385Y711835D02*
X32383Y711935D01*
X32377Y712034D01*
X32367Y712134D01*
X32354Y712232D01*
X32336Y712331D01*
X32315Y712428D01*
X32290Y712524D01*
X32261Y712620D01*
X32228Y712714D01*
X32192Y712807D01*
X32152Y712898D01*
X32108Y712988D01*
X32061Y713076D01*
X32011Y713162D01*
X31957Y713246D01*
X31900Y713328D01*
X31840Y713407D01*
X31776Y713485D01*
X31710Y713559D01*
X31641Y713631D01*
X31569Y713700D01*
X31495Y713766D01*
X31417Y713830D01*
X31338Y713890D01*
X31256Y713947D01*
X31172Y714001D01*
X31086Y714051D01*
X30998Y714098D01*
X30908Y714142D01*
X30817Y714182D01*
X30724Y714218D01*
X30630Y714251D01*
X30534Y714280D01*
X30438Y714305D01*
X30341Y714326D01*
X30242Y714344D01*
X30144Y714357D01*
X30044Y714367D01*
X29945Y714373D01*
X29845Y714375D01*
X32385Y711835D02*
X32383Y711694D01*
X32378Y711553D01*
X32368Y711412D01*
X32355Y711271D01*
X32339Y711131D01*
X32318Y710991D01*
X32294Y710852D01*
X32266Y710713D01*
X32235Y710576D01*
X32200Y710439D01*
X32162Y710303D01*
X32120Y710168D01*
X32074Y710035D01*
X32025Y709902D01*
X31972Y709771D01*
X31916Y709642D01*
X31857Y709513D01*
X31794Y709387D01*
X31728Y709262D01*
X31659Y709139D01*
X31586Y709018D01*
X31510Y708899D01*
X31431Y708781D01*
X31350Y708666D01*
X31265Y708554D01*
X31177Y708443D01*
X31086Y708335D01*
X30993Y708229D01*
X30896Y708126D01*
X30797Y708025D01*
X23495Y708343D02*
X23395Y708345D01*
X23296Y708351D01*
X23196Y708361D01*
X23098Y708374D01*
X22999Y708392D01*
X22902Y708413D01*
X22806Y708438D01*
X22710Y708467D01*
X22616Y708500D01*
X22523Y708536D01*
X22432Y708576D01*
X22342Y708620D01*
X22254Y708667D01*
X22168Y708717D01*
X22084Y708771D01*
X22002Y708828D01*
X21923Y708888D01*
X21845Y708952D01*
X21771Y709018D01*
X21699Y709087D01*
X21630Y709159D01*
X21564Y709233D01*
X21500Y709311D01*
X21440Y709390D01*
X21383Y709472D01*
X21329Y709556D01*
X21279Y709642D01*
X21232Y709730D01*
X21188Y709820D01*
X21148Y709911D01*
X21112Y710004D01*
X21079Y710098D01*
X21050Y710194D01*
X21025Y710290D01*
X21004Y710387D01*
X20986Y710486D01*
X20973Y710584D01*
X20963Y710684D01*
X20957Y710783D01*
X20955Y710883D01*
X20957Y711016D01*
X20962Y711149D01*
X20972Y711282D01*
X20985Y711415D01*
X21002Y711547D01*
X21022Y711679D01*
X21046Y711810D01*
X21074Y711940D01*
X21105Y712070D01*
X21140Y712198D01*
X21179Y712326D01*
X21221Y712452D01*
X21267Y712577D01*
X21316Y712701D01*
X21368Y712824D01*
X21424Y712945D01*
X21484Y713064D01*
X21546Y713182D01*
X21612Y713297D01*
X21681Y713411D01*
X21754Y713523D01*
X21829Y713633D01*
X21908Y713741D01*
X25718Y709612D02*
X25666Y709528D01*
X25611Y709445D01*
X25552Y709365D01*
X25491Y709287D01*
X25427Y709212D01*
X25359Y709139D01*
X25289Y709068D01*
X25217Y709001D01*
X25142Y708936D01*
X25064Y708874D01*
X24984Y708815D01*
X24902Y708759D01*
X24818Y708707D01*
X24732Y708658D01*
X24644Y708612D01*
X24554Y708569D01*
X24463Y708530D01*
X24370Y708495D01*
X24276Y708463D01*
X24181Y708435D01*
X24085Y708410D01*
X23988Y708390D01*
X23890Y708372D01*
X23792Y708359D01*
X23693Y708350D01*
X23594Y708344D01*
X23495Y708342D01*
X27622Y713105D02*
X27674Y713189D01*
X27729Y713272D01*
X27788Y713352D01*
X27849Y713430D01*
X27913Y713505D01*
X27981Y713578D01*
X28051Y713649D01*
X28123Y713716D01*
X28198Y713781D01*
X28276Y713843D01*
X28356Y713902D01*
X28438Y713958D01*
X28522Y714010D01*
X28608Y714059D01*
X28696Y714105D01*
X28786Y714148D01*
X28877Y714187D01*
X28970Y714222D01*
X29064Y714254D01*
X29159Y714282D01*
X29255Y714307D01*
X29352Y714327D01*
X29450Y714345D01*
X29548Y714358D01*
X29647Y714367D01*
X29746Y714373D01*
X29845Y714375D01*
X27623Y713105D02*
X25718Y709613D01*
X32385Y718439D02*
X20955Y722249D01*
X32385Y726059D01*
X29528Y725107D02*
X29528Y719392D01*
X26035Y731076D02*
X26035Y734251D01*
X26037Y734362D01*
X26043Y734472D01*
X26052Y734583D01*
X26066Y734693D01*
X26083Y734802D01*
X26104Y734911D01*
X26129Y735019D01*
X26158Y735126D01*
X26190Y735232D01*
X26226Y735337D01*
X26266Y735440D01*
X26309Y735542D01*
X26356Y735643D01*
X26407Y735742D01*
X26460Y735839D01*
X26517Y735933D01*
X26578Y736026D01*
X26641Y736117D01*
X26708Y736206D01*
X26778Y736292D01*
X26851Y736375D01*
X26926Y736457D01*
X27004Y736535D01*
X27086Y736610D01*
X27169Y736683D01*
X27255Y736753D01*
X27344Y736820D01*
X27435Y736883D01*
X27528Y736944D01*
X27622Y737001D01*
X27719Y737054D01*
X27818Y737105D01*
X27919Y737152D01*
X28021Y737195D01*
X28124Y737235D01*
X28229Y737271D01*
X28335Y737303D01*
X28442Y737332D01*
X28550Y737357D01*
X28659Y737378D01*
X28768Y737395D01*
X28878Y737409D01*
X28989Y737418D01*
X29099Y737424D01*
X29210Y737426D01*
X29321Y737424D01*
X29431Y737418D01*
X29542Y737409D01*
X29652Y737395D01*
X29761Y737378D01*
X29870Y737357D01*
X29978Y737332D01*
X30085Y737303D01*
X30191Y737271D01*
X30296Y737235D01*
X30399Y737195D01*
X30501Y737152D01*
X30602Y737105D01*
X30701Y737054D01*
X30798Y737001D01*
X30892Y736944D01*
X30985Y736883D01*
X31076Y736820D01*
X31165Y736753D01*
X31251Y736683D01*
X31334Y736610D01*
X31416Y736535D01*
X31494Y736457D01*
X31569Y736375D01*
X31642Y736292D01*
X31712Y736206D01*
X31779Y736117D01*
X31842Y736026D01*
X31903Y735933D01*
X31960Y735839D01*
X32013Y735742D01*
X32064Y735643D01*
X32111Y735542D01*
X32154Y735440D01*
X32194Y735337D01*
X32230Y735232D01*
X32262Y735126D01*
X32291Y735019D01*
X32316Y734911D01*
X32337Y734802D01*
X32354Y734693D01*
X32368Y734583D01*
X32377Y734472D01*
X32383Y734362D01*
X32385Y734251D01*
X32385Y731076D01*
X20955Y731076D01*
X20955Y734251D01*
X20957Y734351D01*
X20963Y734450D01*
X20973Y734550D01*
X20986Y734648D01*
X21004Y734747D01*
X21025Y734844D01*
X21050Y734940D01*
X21079Y735036D01*
X21112Y735130D01*
X21148Y735223D01*
X21188Y735314D01*
X21232Y735404D01*
X21279Y735492D01*
X21329Y735578D01*
X21383Y735662D01*
X21440Y735744D01*
X21500Y735823D01*
X21564Y735901D01*
X21630Y735975D01*
X21699Y736047D01*
X21771Y736116D01*
X21845Y736182D01*
X21923Y736246D01*
X22002Y736306D01*
X22084Y736363D01*
X22168Y736417D01*
X22254Y736467D01*
X22342Y736514D01*
X22432Y736558D01*
X22523Y736598D01*
X22616Y736634D01*
X22710Y736667D01*
X22806Y736696D01*
X22902Y736721D01*
X22999Y736742D01*
X23098Y736760D01*
X23196Y736773D01*
X23296Y736783D01*
X23395Y736789D01*
X23495Y736791D01*
X23595Y736789D01*
X23694Y736783D01*
X23794Y736773D01*
X23892Y736760D01*
X23991Y736742D01*
X24088Y736721D01*
X24184Y736696D01*
X24280Y736667D01*
X24374Y736634D01*
X24467Y736598D01*
X24558Y736558D01*
X24648Y736514D01*
X24736Y736467D01*
X24822Y736417D01*
X24906Y736363D01*
X24988Y736306D01*
X25067Y736246D01*
X25145Y736182D01*
X25219Y736116D01*
X25291Y736047D01*
X25360Y735975D01*
X25426Y735901D01*
X25490Y735823D01*
X25550Y735744D01*
X25607Y735662D01*
X25661Y735578D01*
X25711Y735492D01*
X25758Y735404D01*
X25802Y735314D01*
X25842Y735223D01*
X25878Y735130D01*
X25911Y735036D01*
X25940Y734940D01*
X25965Y734844D01*
X25986Y734747D01*
X26004Y734648D01*
X26017Y734550D01*
X26027Y734450D01*
X26033Y734351D01*
X26035Y734251D01*
X24130Y741934D02*
X29210Y741934D01*
X24130Y741934D02*
X24019Y741936D01*
X23909Y741942D01*
X23798Y741951D01*
X23688Y741965D01*
X23579Y741982D01*
X23470Y742003D01*
X23362Y742028D01*
X23255Y742057D01*
X23149Y742089D01*
X23044Y742125D01*
X22941Y742165D01*
X22839Y742208D01*
X22738Y742255D01*
X22639Y742306D01*
X22543Y742359D01*
X22448Y742416D01*
X22355Y742477D01*
X22264Y742540D01*
X22175Y742607D01*
X22089Y742677D01*
X22006Y742750D01*
X21924Y742825D01*
X21846Y742903D01*
X21771Y742985D01*
X21698Y743068D01*
X21628Y743154D01*
X21561Y743243D01*
X21498Y743334D01*
X21437Y743427D01*
X21380Y743522D01*
X21327Y743618D01*
X21276Y743717D01*
X21229Y743818D01*
X21186Y743920D01*
X21146Y744023D01*
X21110Y744128D01*
X21078Y744234D01*
X21049Y744341D01*
X21024Y744449D01*
X21003Y744558D01*
X20986Y744667D01*
X20972Y744777D01*
X20963Y744888D01*
X20957Y744998D01*
X20955Y745109D01*
X20957Y745220D01*
X20963Y745330D01*
X20972Y745441D01*
X20986Y745551D01*
X21003Y745660D01*
X21024Y745769D01*
X21049Y745877D01*
X21078Y745984D01*
X21110Y746090D01*
X21146Y746195D01*
X21186Y746298D01*
X21229Y746400D01*
X21276Y746501D01*
X21327Y746600D01*
X21380Y746697D01*
X21437Y746791D01*
X21498Y746884D01*
X21561Y746975D01*
X21628Y747064D01*
X21698Y747150D01*
X21771Y747233D01*
X21846Y747315D01*
X21924Y747393D01*
X22006Y747468D01*
X22089Y747541D01*
X22175Y747611D01*
X22264Y747678D01*
X22355Y747741D01*
X22448Y747802D01*
X22543Y747859D01*
X22639Y747912D01*
X22738Y747963D01*
X22839Y748010D01*
X22941Y748053D01*
X23044Y748093D01*
X23149Y748129D01*
X23255Y748161D01*
X23362Y748190D01*
X23470Y748215D01*
X23579Y748236D01*
X23688Y748253D01*
X23798Y748267D01*
X23909Y748276D01*
X24019Y748282D01*
X24130Y748284D01*
X29210Y748284D01*
X29321Y748282D01*
X29431Y748276D01*
X29542Y748267D01*
X29652Y748253D01*
X29761Y748236D01*
X29870Y748215D01*
X29978Y748190D01*
X30085Y748161D01*
X30191Y748129D01*
X30296Y748093D01*
X30399Y748053D01*
X30501Y748010D01*
X30602Y747963D01*
X30701Y747912D01*
X30798Y747859D01*
X30892Y747802D01*
X30985Y747741D01*
X31076Y747678D01*
X31165Y747611D01*
X31251Y747541D01*
X31334Y747468D01*
X31416Y747393D01*
X31494Y747315D01*
X31569Y747233D01*
X31642Y747150D01*
X31712Y747064D01*
X31779Y746975D01*
X31842Y746884D01*
X31903Y746791D01*
X31960Y746696D01*
X32013Y746600D01*
X32064Y746501D01*
X32111Y746400D01*
X32154Y746298D01*
X32194Y746195D01*
X32230Y746090D01*
X32262Y745984D01*
X32291Y745877D01*
X32316Y745769D01*
X32337Y745660D01*
X32354Y745551D01*
X32368Y745441D01*
X32377Y745330D01*
X32383Y745220D01*
X32385Y745109D01*
X32383Y744998D01*
X32377Y744888D01*
X32368Y744777D01*
X32354Y744667D01*
X32337Y744558D01*
X32316Y744449D01*
X32291Y744341D01*
X32262Y744234D01*
X32230Y744128D01*
X32194Y744023D01*
X32154Y743920D01*
X32111Y743818D01*
X32064Y743717D01*
X32013Y743618D01*
X31960Y743522D01*
X31903Y743427D01*
X31842Y743334D01*
X31779Y743243D01*
X31712Y743154D01*
X31642Y743068D01*
X31569Y742985D01*
X31494Y742903D01*
X31416Y742825D01*
X31334Y742750D01*
X31251Y742677D01*
X31165Y742607D01*
X31076Y742540D01*
X30985Y742477D01*
X30892Y742416D01*
X30797Y742359D01*
X30701Y742306D01*
X30602Y742255D01*
X30501Y742208D01*
X30399Y742165D01*
X30296Y742125D01*
X30191Y742089D01*
X30085Y742057D01*
X29978Y742028D01*
X29870Y742003D01*
X29761Y741982D01*
X29652Y741965D01*
X29542Y741951D01*
X29431Y741942D01*
X29321Y741936D01*
X29210Y741934D01*
X32385Y755777D02*
X20955Y755777D01*
X20955Y752602D02*
X20955Y758952D01*
X20955Y766445D02*
X32385Y762635D01*
X32385Y770255D02*
X20955Y766445D01*
X29528Y769303D02*
X29528Y763588D01*
X26035Y779526D02*
X26035Y781431D01*
X32385Y781431D01*
X32385Y777621D01*
X32383Y777521D01*
X32377Y777422D01*
X32367Y777322D01*
X32354Y777224D01*
X32336Y777125D01*
X32315Y777028D01*
X32290Y776932D01*
X32261Y776836D01*
X32228Y776742D01*
X32192Y776649D01*
X32152Y776558D01*
X32108Y776468D01*
X32061Y776380D01*
X32011Y776294D01*
X31957Y776210D01*
X31900Y776128D01*
X31840Y776049D01*
X31776Y775971D01*
X31710Y775897D01*
X31641Y775825D01*
X31569Y775756D01*
X31495Y775690D01*
X31417Y775626D01*
X31338Y775566D01*
X31256Y775509D01*
X31172Y775455D01*
X31086Y775405D01*
X30998Y775358D01*
X30908Y775314D01*
X30817Y775274D01*
X30724Y775238D01*
X30630Y775205D01*
X30534Y775176D01*
X30438Y775151D01*
X30341Y775130D01*
X30242Y775112D01*
X30144Y775099D01*
X30044Y775089D01*
X29945Y775083D01*
X29845Y775081D01*
X23495Y775081D01*
X23395Y775083D01*
X23296Y775089D01*
X23196Y775099D01*
X23098Y775112D01*
X22999Y775130D01*
X22902Y775151D01*
X22806Y775176D01*
X22710Y775205D01*
X22616Y775238D01*
X22523Y775274D01*
X22432Y775314D01*
X22342Y775358D01*
X22254Y775405D01*
X22168Y775455D01*
X22084Y775509D01*
X22002Y775566D01*
X21923Y775626D01*
X21845Y775690D01*
X21771Y775756D01*
X21699Y775825D01*
X21630Y775897D01*
X21564Y775971D01*
X21500Y776049D01*
X21440Y776128D01*
X21383Y776210D01*
X21329Y776294D01*
X21279Y776380D01*
X21232Y776468D01*
X21188Y776558D01*
X21148Y776649D01*
X21112Y776742D01*
X21079Y776836D01*
X21050Y776932D01*
X21025Y777028D01*
X21004Y777125D01*
X20986Y777224D01*
X20973Y777322D01*
X20963Y777422D01*
X20957Y777521D01*
X20955Y777621D01*
X20955Y781431D01*
X32385Y787298D02*
X32385Y792378D01*
X32385Y787298D02*
X20955Y787298D01*
X20955Y792378D01*
X26035Y791108D02*
X26035Y787298D01*
D19*
X891120Y701180D02*
X891120Y551180D01*
X706120Y551180D01*
X706120Y701180D01*
X891120Y701180D01*
X891755Y527190D02*
X891755Y377190D01*
X706755Y377190D01*
X706755Y527190D01*
X891755Y527190D01*
X891755Y353835D02*
X891755Y203835D01*
X706755Y203835D01*
X706755Y353835D01*
X891755Y353835D01*
X891755Y181115D02*
X891755Y31115D01*
X706755Y31115D01*
X706755Y181115D01*
X891755Y181115D01*
D10*
X922020Y539115D02*
X1012190Y539115D01*
X922020Y539115D02*
X922020Y568325D01*
X922020Y581025D02*
X922020Y619125D01*
X922020Y682625D02*
X922020Y711835D01*
X1012190Y711835D02*
X1012190Y539115D01*
X1012190Y711835D02*
X922020Y711835D01*
X1042670Y565785D02*
X1042670Y539115D01*
X1012190Y539115D01*
X1012190Y711835D02*
X1042670Y711835D01*
X1042670Y583565D02*
X1029970Y579755D01*
X1042670Y583565D02*
X1042670Y616585D01*
X1029970Y579755D02*
X1029970Y569595D01*
X1042670Y565785D01*
X1042670Y583565D01*
X1029970Y630555D02*
X1042670Y634365D01*
X1042670Y667385D01*
X1042670Y685165D01*
X1042670Y711835D01*
X1029970Y620395D02*
X1042670Y616585D01*
X1042670Y634365D01*
X1029970Y630555D02*
X1029970Y620395D01*
X1029970Y671195D02*
X1029970Y681355D01*
X1042670Y685165D01*
X1042670Y667385D02*
X1029970Y671195D01*
X922020Y669925D02*
X922020Y631825D01*
D11*
X936625Y558165D02*
X939165Y554990D01*
X936625Y558165D02*
X948055Y558165D01*
X948055Y554990D02*
X948055Y561340D01*
X936625Y606743D02*
X936627Y606847D01*
X936633Y606952D01*
X936642Y607056D01*
X936655Y607159D01*
X936673Y607262D01*
X936693Y607364D01*
X936718Y607466D01*
X936746Y607566D01*
X936778Y607666D01*
X936814Y607764D01*
X936853Y607861D01*
X936895Y607956D01*
X936941Y608050D01*
X936991Y608142D01*
X937043Y608232D01*
X937099Y608320D01*
X937159Y608406D01*
X937221Y608490D01*
X937286Y608571D01*
X937354Y608650D01*
X937426Y608727D01*
X937499Y608800D01*
X937576Y608872D01*
X937655Y608940D01*
X937736Y609005D01*
X937820Y609067D01*
X937906Y609127D01*
X937994Y609183D01*
X938084Y609235D01*
X938176Y609285D01*
X938270Y609331D01*
X938365Y609373D01*
X938462Y609412D01*
X938560Y609448D01*
X938660Y609480D01*
X938760Y609508D01*
X938862Y609533D01*
X938964Y609553D01*
X939067Y609571D01*
X939170Y609584D01*
X939274Y609593D01*
X939379Y609599D01*
X939483Y609601D01*
X936625Y606743D02*
X936627Y606625D01*
X936633Y606506D01*
X936642Y606388D01*
X936655Y606271D01*
X936673Y606154D01*
X936693Y606037D01*
X936718Y605921D01*
X936746Y605806D01*
X936779Y605693D01*
X936814Y605580D01*
X936854Y605468D01*
X936896Y605358D01*
X936943Y605249D01*
X936993Y605141D01*
X937046Y605036D01*
X937103Y604932D01*
X937163Y604830D01*
X937226Y604730D01*
X937293Y604632D01*
X937362Y604536D01*
X937435Y604443D01*
X937511Y604352D01*
X937589Y604263D01*
X937671Y604177D01*
X937755Y604094D01*
X937841Y604013D01*
X937931Y603936D01*
X938022Y603861D01*
X938116Y603789D01*
X938213Y603720D01*
X938311Y603655D01*
X938412Y603592D01*
X938515Y603533D01*
X938619Y603477D01*
X938725Y603425D01*
X938833Y603376D01*
X938942Y603331D01*
X939053Y603289D01*
X939165Y603251D01*
X941705Y608648D02*
X941630Y608724D01*
X941551Y608799D01*
X941470Y608870D01*
X941386Y608939D01*
X941300Y609004D01*
X941212Y609066D01*
X941122Y609126D01*
X941030Y609182D01*
X940935Y609235D01*
X940839Y609284D01*
X940741Y609330D01*
X940642Y609373D01*
X940541Y609412D01*
X940439Y609447D01*
X940336Y609479D01*
X940232Y609507D01*
X940127Y609532D01*
X940020Y609553D01*
X939914Y609570D01*
X939807Y609583D01*
X939699Y609592D01*
X939591Y609598D01*
X939483Y609600D01*
X941705Y608648D02*
X948055Y603250D01*
X948055Y609600D01*
X948055Y654050D02*
X948055Y657225D01*
X948053Y657336D01*
X948047Y657446D01*
X948038Y657557D01*
X948024Y657667D01*
X948007Y657776D01*
X947986Y657885D01*
X947961Y657993D01*
X947932Y658100D01*
X947900Y658206D01*
X947864Y658311D01*
X947824Y658414D01*
X947781Y658516D01*
X947734Y658617D01*
X947683Y658716D01*
X947630Y658813D01*
X947573Y658907D01*
X947512Y659000D01*
X947449Y659091D01*
X947382Y659180D01*
X947312Y659266D01*
X947239Y659349D01*
X947164Y659431D01*
X947086Y659509D01*
X947004Y659584D01*
X946921Y659657D01*
X946835Y659727D01*
X946746Y659794D01*
X946655Y659857D01*
X946562Y659918D01*
X946468Y659975D01*
X946371Y660028D01*
X946272Y660079D01*
X946171Y660126D01*
X946069Y660169D01*
X945966Y660209D01*
X945861Y660245D01*
X945755Y660277D01*
X945648Y660306D01*
X945540Y660331D01*
X945431Y660352D01*
X945322Y660369D01*
X945212Y660383D01*
X945101Y660392D01*
X944991Y660398D01*
X944880Y660400D01*
X944769Y660398D01*
X944659Y660392D01*
X944548Y660383D01*
X944438Y660369D01*
X944329Y660352D01*
X944220Y660331D01*
X944112Y660306D01*
X944005Y660277D01*
X943899Y660245D01*
X943794Y660209D01*
X943691Y660169D01*
X943589Y660126D01*
X943488Y660079D01*
X943389Y660028D01*
X943293Y659975D01*
X943198Y659918D01*
X943105Y659857D01*
X943014Y659794D01*
X942925Y659727D01*
X942839Y659657D01*
X942756Y659584D01*
X942674Y659509D01*
X942596Y659431D01*
X942521Y659349D01*
X942448Y659266D01*
X942378Y659180D01*
X942311Y659091D01*
X942248Y659000D01*
X942187Y658907D01*
X942130Y658813D01*
X942077Y658716D01*
X942026Y658617D01*
X941979Y658516D01*
X941936Y658414D01*
X941896Y658311D01*
X941860Y658206D01*
X941828Y658100D01*
X941799Y657993D01*
X941774Y657885D01*
X941753Y657776D01*
X941736Y657667D01*
X941722Y657557D01*
X941713Y657446D01*
X941707Y657336D01*
X941705Y657225D01*
X936625Y657860D02*
X936625Y654050D01*
X936625Y657860D02*
X936627Y657960D01*
X936633Y658059D01*
X936643Y658159D01*
X936656Y658257D01*
X936674Y658356D01*
X936695Y658453D01*
X936720Y658549D01*
X936749Y658645D01*
X936782Y658739D01*
X936818Y658832D01*
X936858Y658923D01*
X936902Y659013D01*
X936949Y659101D01*
X936999Y659187D01*
X937053Y659271D01*
X937110Y659353D01*
X937170Y659432D01*
X937234Y659510D01*
X937300Y659584D01*
X937369Y659656D01*
X937441Y659725D01*
X937515Y659791D01*
X937593Y659855D01*
X937672Y659915D01*
X937754Y659972D01*
X937838Y660026D01*
X937924Y660076D01*
X938012Y660123D01*
X938102Y660167D01*
X938193Y660207D01*
X938286Y660243D01*
X938380Y660276D01*
X938476Y660305D01*
X938572Y660330D01*
X938669Y660351D01*
X938768Y660369D01*
X938866Y660382D01*
X938966Y660392D01*
X939065Y660398D01*
X939165Y660400D01*
X939265Y660398D01*
X939364Y660392D01*
X939464Y660382D01*
X939562Y660369D01*
X939661Y660351D01*
X939758Y660330D01*
X939854Y660305D01*
X939950Y660276D01*
X940044Y660243D01*
X940137Y660207D01*
X940228Y660167D01*
X940318Y660123D01*
X940406Y660076D01*
X940492Y660026D01*
X940576Y659972D01*
X940658Y659915D01*
X940737Y659855D01*
X940815Y659791D01*
X940889Y659725D01*
X940961Y659656D01*
X941030Y659584D01*
X941096Y659510D01*
X941160Y659432D01*
X941220Y659353D01*
X941277Y659271D01*
X941331Y659187D01*
X941381Y659101D01*
X941428Y659013D01*
X941472Y658923D01*
X941512Y658832D01*
X941548Y658739D01*
X941581Y658645D01*
X941610Y658549D01*
X941635Y658453D01*
X941656Y658356D01*
X941674Y658257D01*
X941687Y658159D01*
X941697Y658059D01*
X941703Y657960D01*
X941705Y657860D01*
X941705Y655320D01*
D10*
X922655Y366395D02*
X1012825Y366395D01*
X922655Y366395D02*
X922655Y395605D01*
X922655Y408305D02*
X922655Y446405D01*
X922655Y509905D02*
X922655Y539115D01*
X1012825Y539115D02*
X1012825Y366395D01*
X1012825Y539115D02*
X922655Y539115D01*
X1043305Y393065D02*
X1043305Y366395D01*
X1012825Y366395D01*
X1012825Y539115D02*
X1043305Y539115D01*
X1043305Y410845D02*
X1030605Y407035D01*
X1043305Y410845D02*
X1043305Y443865D01*
X1030605Y407035D02*
X1030605Y396875D01*
X1043305Y393065D01*
X1043305Y410845D01*
X1030605Y457835D02*
X1043305Y461645D01*
X1043305Y494665D01*
X1043305Y512445D01*
X1043305Y539115D01*
X1030605Y447675D02*
X1043305Y443865D01*
X1043305Y461645D01*
X1030605Y457835D02*
X1030605Y447675D01*
X1030605Y498475D02*
X1030605Y508635D01*
X1043305Y512445D01*
X1043305Y494665D02*
X1030605Y498475D01*
X922655Y497205D02*
X922655Y459105D01*
D11*
X937260Y385445D02*
X939800Y382270D01*
X937260Y385445D02*
X948690Y385445D01*
X948690Y382270D02*
X948690Y388620D01*
X937260Y434023D02*
X937262Y434127D01*
X937268Y434232D01*
X937277Y434336D01*
X937290Y434439D01*
X937308Y434542D01*
X937328Y434644D01*
X937353Y434746D01*
X937381Y434846D01*
X937413Y434946D01*
X937449Y435044D01*
X937488Y435141D01*
X937530Y435236D01*
X937576Y435330D01*
X937626Y435422D01*
X937678Y435512D01*
X937734Y435600D01*
X937794Y435686D01*
X937856Y435770D01*
X937921Y435851D01*
X937989Y435930D01*
X938061Y436007D01*
X938134Y436080D01*
X938211Y436152D01*
X938290Y436220D01*
X938371Y436285D01*
X938455Y436347D01*
X938541Y436407D01*
X938629Y436463D01*
X938719Y436515D01*
X938811Y436565D01*
X938905Y436611D01*
X939000Y436653D01*
X939097Y436692D01*
X939195Y436728D01*
X939295Y436760D01*
X939395Y436788D01*
X939497Y436813D01*
X939599Y436833D01*
X939702Y436851D01*
X939805Y436864D01*
X939909Y436873D01*
X940014Y436879D01*
X940118Y436881D01*
X937260Y434023D02*
X937262Y433905D01*
X937268Y433786D01*
X937277Y433668D01*
X937290Y433551D01*
X937308Y433434D01*
X937328Y433317D01*
X937353Y433201D01*
X937381Y433086D01*
X937414Y432973D01*
X937449Y432860D01*
X937489Y432748D01*
X937531Y432638D01*
X937578Y432529D01*
X937628Y432421D01*
X937681Y432316D01*
X937738Y432212D01*
X937798Y432110D01*
X937861Y432010D01*
X937928Y431912D01*
X937997Y431816D01*
X938070Y431723D01*
X938146Y431632D01*
X938224Y431543D01*
X938306Y431457D01*
X938390Y431374D01*
X938476Y431293D01*
X938566Y431216D01*
X938657Y431141D01*
X938751Y431069D01*
X938848Y431000D01*
X938946Y430935D01*
X939047Y430872D01*
X939150Y430813D01*
X939254Y430757D01*
X939360Y430705D01*
X939468Y430656D01*
X939577Y430611D01*
X939688Y430569D01*
X939800Y430531D01*
X942340Y435928D02*
X942265Y436004D01*
X942186Y436079D01*
X942105Y436150D01*
X942021Y436219D01*
X941935Y436284D01*
X941847Y436346D01*
X941757Y436406D01*
X941665Y436462D01*
X941570Y436515D01*
X941474Y436564D01*
X941376Y436610D01*
X941277Y436653D01*
X941176Y436692D01*
X941074Y436727D01*
X940971Y436759D01*
X940867Y436787D01*
X940762Y436812D01*
X940655Y436833D01*
X940549Y436850D01*
X940442Y436863D01*
X940334Y436872D01*
X940226Y436878D01*
X940118Y436880D01*
X942340Y435928D02*
X948690Y430530D01*
X948690Y436880D01*
X948690Y481330D02*
X948690Y484505D01*
X948688Y484616D01*
X948682Y484726D01*
X948673Y484837D01*
X948659Y484947D01*
X948642Y485056D01*
X948621Y485165D01*
X948596Y485273D01*
X948567Y485380D01*
X948535Y485486D01*
X948499Y485591D01*
X948459Y485694D01*
X948416Y485796D01*
X948369Y485897D01*
X948318Y485996D01*
X948265Y486093D01*
X948208Y486187D01*
X948147Y486280D01*
X948084Y486371D01*
X948017Y486460D01*
X947947Y486546D01*
X947874Y486629D01*
X947799Y486711D01*
X947721Y486789D01*
X947639Y486864D01*
X947556Y486937D01*
X947470Y487007D01*
X947381Y487074D01*
X947290Y487137D01*
X947197Y487198D01*
X947103Y487255D01*
X947006Y487308D01*
X946907Y487359D01*
X946806Y487406D01*
X946704Y487449D01*
X946601Y487489D01*
X946496Y487525D01*
X946390Y487557D01*
X946283Y487586D01*
X946175Y487611D01*
X946066Y487632D01*
X945957Y487649D01*
X945847Y487663D01*
X945736Y487672D01*
X945626Y487678D01*
X945515Y487680D01*
X945404Y487678D01*
X945294Y487672D01*
X945183Y487663D01*
X945073Y487649D01*
X944964Y487632D01*
X944855Y487611D01*
X944747Y487586D01*
X944640Y487557D01*
X944534Y487525D01*
X944429Y487489D01*
X944326Y487449D01*
X944224Y487406D01*
X944123Y487359D01*
X944024Y487308D01*
X943928Y487255D01*
X943833Y487198D01*
X943740Y487137D01*
X943649Y487074D01*
X943560Y487007D01*
X943474Y486937D01*
X943391Y486864D01*
X943309Y486789D01*
X943231Y486711D01*
X943156Y486629D01*
X943083Y486546D01*
X943013Y486460D01*
X942946Y486371D01*
X942883Y486280D01*
X942822Y486187D01*
X942765Y486093D01*
X942712Y485996D01*
X942661Y485897D01*
X942614Y485796D01*
X942571Y485694D01*
X942531Y485591D01*
X942495Y485486D01*
X942463Y485380D01*
X942434Y485273D01*
X942409Y485165D01*
X942388Y485056D01*
X942371Y484947D01*
X942357Y484837D01*
X942348Y484726D01*
X942342Y484616D01*
X942340Y484505D01*
X937260Y485140D02*
X937260Y481330D01*
X937260Y485140D02*
X937262Y485240D01*
X937268Y485339D01*
X937278Y485439D01*
X937291Y485537D01*
X937309Y485636D01*
X937330Y485733D01*
X937355Y485829D01*
X937384Y485925D01*
X937417Y486019D01*
X937453Y486112D01*
X937493Y486203D01*
X937537Y486293D01*
X937584Y486381D01*
X937634Y486467D01*
X937688Y486551D01*
X937745Y486633D01*
X937805Y486712D01*
X937869Y486790D01*
X937935Y486864D01*
X938004Y486936D01*
X938076Y487005D01*
X938150Y487071D01*
X938228Y487135D01*
X938307Y487195D01*
X938389Y487252D01*
X938473Y487306D01*
X938559Y487356D01*
X938647Y487403D01*
X938737Y487447D01*
X938828Y487487D01*
X938921Y487523D01*
X939015Y487556D01*
X939111Y487585D01*
X939207Y487610D01*
X939304Y487631D01*
X939403Y487649D01*
X939501Y487662D01*
X939601Y487672D01*
X939700Y487678D01*
X939800Y487680D01*
X939900Y487678D01*
X939999Y487672D01*
X940099Y487662D01*
X940197Y487649D01*
X940296Y487631D01*
X940393Y487610D01*
X940489Y487585D01*
X940585Y487556D01*
X940679Y487523D01*
X940772Y487487D01*
X940863Y487447D01*
X940953Y487403D01*
X941041Y487356D01*
X941127Y487306D01*
X941211Y487252D01*
X941293Y487195D01*
X941372Y487135D01*
X941450Y487071D01*
X941524Y487005D01*
X941596Y486936D01*
X941665Y486864D01*
X941731Y486790D01*
X941795Y486712D01*
X941855Y486633D01*
X941912Y486551D01*
X941966Y486467D01*
X942016Y486381D01*
X942063Y486293D01*
X942107Y486203D01*
X942147Y486112D01*
X942183Y486019D01*
X942216Y485925D01*
X942245Y485829D01*
X942270Y485733D01*
X942291Y485636D01*
X942309Y485537D01*
X942322Y485439D01*
X942332Y485339D01*
X942338Y485240D01*
X942340Y485140D01*
X942340Y482600D01*
D10*
X923290Y193040D02*
X1013460Y193040D01*
X923290Y193040D02*
X923290Y222250D01*
X923290Y234950D02*
X923290Y273050D01*
X923290Y336550D02*
X923290Y365760D01*
X1013460Y365760D02*
X1013460Y193040D01*
X1013460Y365760D02*
X923290Y365760D01*
X1043940Y219710D02*
X1043940Y193040D01*
X1013460Y193040D01*
X1013460Y365760D02*
X1043940Y365760D01*
X1043940Y237490D02*
X1031240Y233680D01*
X1043940Y237490D02*
X1043940Y270510D01*
X1031240Y233680D02*
X1031240Y223520D01*
X1043940Y219710D01*
X1043940Y237490D01*
X1031240Y284480D02*
X1043940Y288290D01*
X1043940Y321310D01*
X1043940Y339090D01*
X1043940Y365760D01*
X1031240Y274320D02*
X1043940Y270510D01*
X1043940Y288290D01*
X1031240Y284480D02*
X1031240Y274320D01*
X1031240Y325120D02*
X1031240Y335280D01*
X1043940Y339090D01*
X1043940Y321310D02*
X1031240Y325120D01*
X923290Y323850D02*
X923290Y285750D01*
D11*
X937895Y212090D02*
X940435Y208915D01*
X937895Y212090D02*
X949325Y212090D01*
X949325Y208915D02*
X949325Y215265D01*
X937895Y260668D02*
X937897Y260772D01*
X937903Y260877D01*
X937912Y260981D01*
X937925Y261084D01*
X937943Y261187D01*
X937963Y261289D01*
X937988Y261391D01*
X938016Y261491D01*
X938048Y261591D01*
X938084Y261689D01*
X938123Y261786D01*
X938165Y261881D01*
X938211Y261975D01*
X938261Y262067D01*
X938313Y262157D01*
X938369Y262245D01*
X938429Y262331D01*
X938491Y262415D01*
X938556Y262496D01*
X938624Y262575D01*
X938696Y262652D01*
X938769Y262725D01*
X938846Y262797D01*
X938925Y262865D01*
X939006Y262930D01*
X939090Y262992D01*
X939176Y263052D01*
X939264Y263108D01*
X939354Y263160D01*
X939446Y263210D01*
X939540Y263256D01*
X939635Y263298D01*
X939732Y263337D01*
X939830Y263373D01*
X939930Y263405D01*
X940030Y263433D01*
X940132Y263458D01*
X940234Y263478D01*
X940337Y263496D01*
X940440Y263509D01*
X940544Y263518D01*
X940649Y263524D01*
X940753Y263526D01*
X937895Y260668D02*
X937897Y260550D01*
X937903Y260431D01*
X937912Y260313D01*
X937925Y260196D01*
X937943Y260079D01*
X937963Y259962D01*
X937988Y259846D01*
X938016Y259731D01*
X938049Y259618D01*
X938084Y259505D01*
X938124Y259393D01*
X938166Y259283D01*
X938213Y259174D01*
X938263Y259066D01*
X938316Y258961D01*
X938373Y258857D01*
X938433Y258755D01*
X938496Y258655D01*
X938563Y258557D01*
X938632Y258461D01*
X938705Y258368D01*
X938781Y258277D01*
X938859Y258188D01*
X938941Y258102D01*
X939025Y258019D01*
X939111Y257938D01*
X939201Y257861D01*
X939292Y257786D01*
X939386Y257714D01*
X939483Y257645D01*
X939581Y257580D01*
X939682Y257517D01*
X939785Y257458D01*
X939889Y257402D01*
X939995Y257350D01*
X940103Y257301D01*
X940212Y257256D01*
X940323Y257214D01*
X940435Y257176D01*
X942975Y262573D02*
X942900Y262649D01*
X942821Y262724D01*
X942740Y262795D01*
X942656Y262864D01*
X942570Y262929D01*
X942482Y262991D01*
X942392Y263051D01*
X942300Y263107D01*
X942205Y263160D01*
X942109Y263209D01*
X942011Y263255D01*
X941912Y263298D01*
X941811Y263337D01*
X941709Y263372D01*
X941606Y263404D01*
X941502Y263432D01*
X941397Y263457D01*
X941290Y263478D01*
X941184Y263495D01*
X941077Y263508D01*
X940969Y263517D01*
X940861Y263523D01*
X940753Y263525D01*
X942975Y262573D02*
X949325Y257175D01*
X949325Y263525D01*
X949325Y307975D02*
X949325Y311150D01*
X949323Y311261D01*
X949317Y311371D01*
X949308Y311482D01*
X949294Y311592D01*
X949277Y311701D01*
X949256Y311810D01*
X949231Y311918D01*
X949202Y312025D01*
X949170Y312131D01*
X949134Y312236D01*
X949094Y312339D01*
X949051Y312441D01*
X949004Y312542D01*
X948953Y312641D01*
X948900Y312738D01*
X948843Y312832D01*
X948782Y312925D01*
X948719Y313016D01*
X948652Y313105D01*
X948582Y313191D01*
X948509Y313274D01*
X948434Y313356D01*
X948356Y313434D01*
X948274Y313509D01*
X948191Y313582D01*
X948105Y313652D01*
X948016Y313719D01*
X947925Y313782D01*
X947832Y313843D01*
X947738Y313900D01*
X947641Y313953D01*
X947542Y314004D01*
X947441Y314051D01*
X947339Y314094D01*
X947236Y314134D01*
X947131Y314170D01*
X947025Y314202D01*
X946918Y314231D01*
X946810Y314256D01*
X946701Y314277D01*
X946592Y314294D01*
X946482Y314308D01*
X946371Y314317D01*
X946261Y314323D01*
X946150Y314325D01*
X946039Y314323D01*
X945929Y314317D01*
X945818Y314308D01*
X945708Y314294D01*
X945599Y314277D01*
X945490Y314256D01*
X945382Y314231D01*
X945275Y314202D01*
X945169Y314170D01*
X945064Y314134D01*
X944961Y314094D01*
X944859Y314051D01*
X944758Y314004D01*
X944659Y313953D01*
X944563Y313900D01*
X944468Y313843D01*
X944375Y313782D01*
X944284Y313719D01*
X944195Y313652D01*
X944109Y313582D01*
X944026Y313509D01*
X943944Y313434D01*
X943866Y313356D01*
X943791Y313274D01*
X943718Y313191D01*
X943648Y313105D01*
X943581Y313016D01*
X943518Y312925D01*
X943457Y312832D01*
X943400Y312738D01*
X943347Y312641D01*
X943296Y312542D01*
X943249Y312441D01*
X943206Y312339D01*
X943166Y312236D01*
X943130Y312131D01*
X943098Y312025D01*
X943069Y311918D01*
X943044Y311810D01*
X943023Y311701D01*
X943006Y311592D01*
X942992Y311482D01*
X942983Y311371D01*
X942977Y311261D01*
X942975Y311150D01*
X937895Y311785D02*
X937895Y307975D01*
X937895Y311785D02*
X937897Y311885D01*
X937903Y311984D01*
X937913Y312084D01*
X937926Y312182D01*
X937944Y312281D01*
X937965Y312378D01*
X937990Y312474D01*
X938019Y312570D01*
X938052Y312664D01*
X938088Y312757D01*
X938128Y312848D01*
X938172Y312938D01*
X938219Y313026D01*
X938269Y313112D01*
X938323Y313196D01*
X938380Y313278D01*
X938440Y313357D01*
X938504Y313435D01*
X938570Y313509D01*
X938639Y313581D01*
X938711Y313650D01*
X938785Y313716D01*
X938863Y313780D01*
X938942Y313840D01*
X939024Y313897D01*
X939108Y313951D01*
X939194Y314001D01*
X939282Y314048D01*
X939372Y314092D01*
X939463Y314132D01*
X939556Y314168D01*
X939650Y314201D01*
X939746Y314230D01*
X939842Y314255D01*
X939939Y314276D01*
X940038Y314294D01*
X940136Y314307D01*
X940236Y314317D01*
X940335Y314323D01*
X940435Y314325D01*
X940535Y314323D01*
X940634Y314317D01*
X940734Y314307D01*
X940832Y314294D01*
X940931Y314276D01*
X941028Y314255D01*
X941124Y314230D01*
X941220Y314201D01*
X941314Y314168D01*
X941407Y314132D01*
X941498Y314092D01*
X941588Y314048D01*
X941676Y314001D01*
X941762Y313951D01*
X941846Y313897D01*
X941928Y313840D01*
X942007Y313780D01*
X942085Y313716D01*
X942159Y313650D01*
X942231Y313581D01*
X942300Y313509D01*
X942366Y313435D01*
X942430Y313357D01*
X942490Y313278D01*
X942547Y313196D01*
X942601Y313112D01*
X942651Y313026D01*
X942698Y312938D01*
X942742Y312848D01*
X942782Y312757D01*
X942818Y312664D01*
X942851Y312570D01*
X942880Y312474D01*
X942905Y312378D01*
X942926Y312281D01*
X942944Y312182D01*
X942957Y312084D01*
X942967Y311984D01*
X942973Y311885D01*
X942975Y311785D01*
X942975Y309245D01*
D10*
X923290Y19050D02*
X1013460Y19050D01*
X923290Y19050D02*
X923290Y48260D01*
X923290Y60960D02*
X923290Y99060D01*
X923290Y162560D02*
X923290Y191770D01*
X1013460Y191770D02*
X1013460Y19050D01*
X1013460Y191770D02*
X923290Y191770D01*
X1043940Y45720D02*
X1043940Y19050D01*
X1013460Y19050D01*
X1013460Y191770D02*
X1043940Y191770D01*
X1043940Y63500D02*
X1031240Y59690D01*
X1043940Y63500D02*
X1043940Y96520D01*
X1031240Y59690D02*
X1031240Y49530D01*
X1043940Y45720D01*
X1043940Y63500D01*
X1031240Y110490D02*
X1043940Y114300D01*
X1043940Y147320D01*
X1043940Y165100D01*
X1043940Y191770D01*
X1031240Y100330D02*
X1043940Y96520D01*
X1043940Y114300D01*
X1031240Y110490D02*
X1031240Y100330D01*
X1031240Y151130D02*
X1031240Y161290D01*
X1043940Y165100D01*
X1043940Y147320D02*
X1031240Y151130D01*
X923290Y149860D02*
X923290Y111760D01*
D11*
X937895Y38100D02*
X940435Y34925D01*
X937895Y38100D02*
X949325Y38100D01*
X949325Y34925D02*
X949325Y41275D01*
X937895Y86678D02*
X937897Y86782D01*
X937903Y86887D01*
X937912Y86991D01*
X937925Y87094D01*
X937943Y87197D01*
X937963Y87299D01*
X937988Y87401D01*
X938016Y87501D01*
X938048Y87601D01*
X938084Y87699D01*
X938123Y87796D01*
X938165Y87891D01*
X938211Y87985D01*
X938261Y88077D01*
X938313Y88167D01*
X938369Y88255D01*
X938429Y88341D01*
X938491Y88425D01*
X938556Y88506D01*
X938624Y88585D01*
X938696Y88662D01*
X938769Y88735D01*
X938846Y88807D01*
X938925Y88875D01*
X939006Y88940D01*
X939090Y89002D01*
X939176Y89062D01*
X939264Y89118D01*
X939354Y89170D01*
X939446Y89220D01*
X939540Y89266D01*
X939635Y89308D01*
X939732Y89347D01*
X939830Y89383D01*
X939930Y89415D01*
X940030Y89443D01*
X940132Y89468D01*
X940234Y89488D01*
X940337Y89506D01*
X940440Y89519D01*
X940544Y89528D01*
X940649Y89534D01*
X940753Y89536D01*
X937895Y86678D02*
X937897Y86560D01*
X937903Y86441D01*
X937912Y86323D01*
X937925Y86206D01*
X937943Y86089D01*
X937963Y85972D01*
X937988Y85856D01*
X938016Y85741D01*
X938049Y85628D01*
X938084Y85515D01*
X938124Y85403D01*
X938166Y85293D01*
X938213Y85184D01*
X938263Y85076D01*
X938316Y84971D01*
X938373Y84867D01*
X938433Y84765D01*
X938496Y84665D01*
X938563Y84567D01*
X938632Y84471D01*
X938705Y84378D01*
X938781Y84287D01*
X938859Y84198D01*
X938941Y84112D01*
X939025Y84029D01*
X939111Y83948D01*
X939201Y83871D01*
X939292Y83796D01*
X939386Y83724D01*
X939483Y83655D01*
X939581Y83590D01*
X939682Y83527D01*
X939785Y83468D01*
X939889Y83412D01*
X939995Y83360D01*
X940103Y83311D01*
X940212Y83266D01*
X940323Y83224D01*
X940435Y83186D01*
X942975Y88583D02*
X942900Y88659D01*
X942821Y88734D01*
X942740Y88805D01*
X942656Y88874D01*
X942570Y88939D01*
X942482Y89001D01*
X942392Y89061D01*
X942300Y89117D01*
X942205Y89170D01*
X942109Y89219D01*
X942011Y89265D01*
X941912Y89308D01*
X941811Y89347D01*
X941709Y89382D01*
X941606Y89414D01*
X941502Y89442D01*
X941397Y89467D01*
X941290Y89488D01*
X941184Y89505D01*
X941077Y89518D01*
X940969Y89527D01*
X940861Y89533D01*
X940753Y89535D01*
X942975Y88583D02*
X949325Y83185D01*
X949325Y89535D01*
X949325Y133985D02*
X949325Y137160D01*
X949323Y137271D01*
X949317Y137381D01*
X949308Y137492D01*
X949294Y137602D01*
X949277Y137711D01*
X949256Y137820D01*
X949231Y137928D01*
X949202Y138035D01*
X949170Y138141D01*
X949134Y138246D01*
X949094Y138349D01*
X949051Y138451D01*
X949004Y138552D01*
X948953Y138651D01*
X948900Y138748D01*
X948843Y138842D01*
X948782Y138935D01*
X948719Y139026D01*
X948652Y139115D01*
X948582Y139201D01*
X948509Y139284D01*
X948434Y139366D01*
X948356Y139444D01*
X948274Y139519D01*
X948191Y139592D01*
X948105Y139662D01*
X948016Y139729D01*
X947925Y139792D01*
X947832Y139853D01*
X947738Y139910D01*
X947641Y139963D01*
X947542Y140014D01*
X947441Y140061D01*
X947339Y140104D01*
X947236Y140144D01*
X947131Y140180D01*
X947025Y140212D01*
X946918Y140241D01*
X946810Y140266D01*
X946701Y140287D01*
X946592Y140304D01*
X946482Y140318D01*
X946371Y140327D01*
X946261Y140333D01*
X946150Y140335D01*
X946039Y140333D01*
X945929Y140327D01*
X945818Y140318D01*
X945708Y140304D01*
X945599Y140287D01*
X945490Y140266D01*
X945382Y140241D01*
X945275Y140212D01*
X945169Y140180D01*
X945064Y140144D01*
X944961Y140104D01*
X944859Y140061D01*
X944758Y140014D01*
X944659Y139963D01*
X944563Y139910D01*
X944468Y139853D01*
X944375Y139792D01*
X944284Y139729D01*
X944195Y139662D01*
X944109Y139592D01*
X944026Y139519D01*
X943944Y139444D01*
X943866Y139366D01*
X943791Y139284D01*
X943718Y139201D01*
X943648Y139115D01*
X943581Y139026D01*
X943518Y138935D01*
X943457Y138842D01*
X943400Y138748D01*
X943347Y138651D01*
X943296Y138552D01*
X943249Y138451D01*
X943206Y138349D01*
X943166Y138246D01*
X943130Y138141D01*
X943098Y138035D01*
X943069Y137928D01*
X943044Y137820D01*
X943023Y137711D01*
X943006Y137602D01*
X942992Y137492D01*
X942983Y137381D01*
X942977Y137271D01*
X942975Y137160D01*
X937895Y137795D02*
X937895Y133985D01*
X937895Y137795D02*
X937897Y137895D01*
X937903Y137994D01*
X937913Y138094D01*
X937926Y138192D01*
X937944Y138291D01*
X937965Y138388D01*
X937990Y138484D01*
X938019Y138580D01*
X938052Y138674D01*
X938088Y138767D01*
X938128Y138858D01*
X938172Y138948D01*
X938219Y139036D01*
X938269Y139122D01*
X938323Y139206D01*
X938380Y139288D01*
X938440Y139367D01*
X938504Y139445D01*
X938570Y139519D01*
X938639Y139591D01*
X938711Y139660D01*
X938785Y139726D01*
X938863Y139790D01*
X938942Y139850D01*
X939024Y139907D01*
X939108Y139961D01*
X939194Y140011D01*
X939282Y140058D01*
X939372Y140102D01*
X939463Y140142D01*
X939556Y140178D01*
X939650Y140211D01*
X939746Y140240D01*
X939842Y140265D01*
X939939Y140286D01*
X940038Y140304D01*
X940136Y140317D01*
X940236Y140327D01*
X940335Y140333D01*
X940435Y140335D01*
X940535Y140333D01*
X940634Y140327D01*
X940734Y140317D01*
X940832Y140304D01*
X940931Y140286D01*
X941028Y140265D01*
X941124Y140240D01*
X941220Y140211D01*
X941314Y140178D01*
X941407Y140142D01*
X941498Y140102D01*
X941588Y140058D01*
X941676Y140011D01*
X941762Y139961D01*
X941846Y139907D01*
X941928Y139850D01*
X942007Y139790D01*
X942085Y139726D01*
X942159Y139660D01*
X942231Y139591D01*
X942300Y139519D01*
X942366Y139445D01*
X942430Y139367D01*
X942490Y139288D01*
X942547Y139206D01*
X942601Y139122D01*
X942651Y139036D01*
X942698Y138948D01*
X942742Y138858D01*
X942782Y138767D01*
X942818Y138674D01*
X942851Y138580D01*
X942880Y138484D01*
X942905Y138388D01*
X942926Y138291D01*
X942944Y138192D01*
X942957Y138094D01*
X942967Y137994D01*
X942973Y137895D01*
X942975Y137795D01*
X942975Y135255D01*
M02*
