G04 EAGLE Gerber RS-274X export*
G75*
%MOMM*%
%FSLAX34Y34*%
%LPD*%
%INSoldermask Bottom*%
%IPPOS*%
%AMOC8*
5,1,8,0,0,1.08239X$1,22.5*%
G01*
%ADD10C,3.703200*%
%ADD11P,1.951982X8X292.500000*%
%ADD12C,1.803400*%
%ADD13C,2.743200*%
%ADD14P,1.649562X8X292.500000*%
%ADD15P,1.649562X8X112.500000*%
%ADD16C,1.625600*%
%ADD17C,1.511200*%
%ADD18C,1.511200*%
%ADD19R,1.511200X1.511200*%
%ADD20C,1.524000*%
%ADD21P,1.649562X8X202.500000*%
%ADD22P,1.649562X8X22.500000*%
%ADD23C,2.298700*%
%ADD24C,1.625600*%
%ADD25C,1.611200*%
%ADD26C,0.959600*%

G36*
X126554Y612018D02*
X126554Y612018D01*
X126575Y612016D01*
X128266Y612168D01*
X128312Y612181D01*
X128388Y612191D01*
X130017Y612670D01*
X130045Y612684D01*
X130066Y612688D01*
X130091Y612702D01*
X130132Y612717D01*
X131636Y613504D01*
X131675Y613533D01*
X131740Y613572D01*
X133062Y614638D01*
X133094Y614674D01*
X133151Y614725D01*
X134240Y616028D01*
X134263Y616069D01*
X134310Y616130D01*
X135123Y617621D01*
X135138Y617666D01*
X135172Y617735D01*
X135679Y619355D01*
X135685Y619403D01*
X135704Y619477D01*
X135885Y621160D01*
X135910Y621358D01*
X135907Y621409D01*
X135911Y621500D01*
X135738Y623209D01*
X135725Y623255D01*
X135713Y623331D01*
X135210Y624973D01*
X135188Y625016D01*
X135162Y625088D01*
X134348Y626601D01*
X134318Y626638D01*
X134278Y626704D01*
X133185Y628028D01*
X133148Y628060D01*
X133097Y628116D01*
X131766Y629202D01*
X131723Y629225D01*
X131662Y629271D01*
X130145Y630076D01*
X130099Y630091D01*
X130030Y630123D01*
X129177Y630379D01*
X128384Y630617D01*
X128337Y630623D01*
X128262Y630641D01*
X126675Y630793D01*
X126658Y630800D01*
X126564Y630841D01*
X126554Y630841D01*
X126546Y630845D01*
X126359Y630856D01*
X124680Y630703D01*
X124633Y630690D01*
X124558Y630680D01*
X122941Y630202D01*
X122898Y630181D01*
X122826Y630156D01*
X121334Y629372D01*
X121296Y629342D01*
X121230Y629304D01*
X119919Y628244D01*
X119888Y628208D01*
X119831Y628157D01*
X118752Y626862D01*
X118728Y626820D01*
X118682Y626759D01*
X117876Y625278D01*
X117861Y625233D01*
X117828Y625164D01*
X117327Y623555D01*
X117321Y623507D01*
X117302Y623433D01*
X117127Y621780D01*
X117080Y621524D01*
X117080Y621502D01*
X117073Y621342D01*
X117258Y619625D01*
X117271Y619578D01*
X117283Y619503D01*
X117799Y617854D01*
X117821Y617811D01*
X117847Y617740D01*
X118675Y616223D01*
X118705Y616185D01*
X118745Y616120D01*
X119853Y614794D01*
X119889Y614763D01*
X119941Y614707D01*
X121286Y613623D01*
X121328Y613600D01*
X121390Y613554D01*
X122921Y612753D01*
X122967Y612739D01*
X123036Y612707D01*
X124693Y612219D01*
X124741Y612214D01*
X124816Y612196D01*
X126284Y612064D01*
X126312Y612048D01*
X126351Y612042D01*
X126388Y612027D01*
X126484Y612022D01*
X126534Y612014D01*
X126554Y612018D01*
G37*
G36*
X61530Y611993D02*
X61530Y611993D01*
X61551Y611991D01*
X63242Y612143D01*
X63288Y612156D01*
X63364Y612166D01*
X64993Y612645D01*
X65021Y612659D01*
X65042Y612663D01*
X65067Y612677D01*
X65108Y612692D01*
X66612Y613479D01*
X66651Y613508D01*
X66716Y613547D01*
X68038Y614613D01*
X68070Y614649D01*
X68127Y614700D01*
X69216Y616003D01*
X69239Y616044D01*
X69286Y616105D01*
X70099Y617596D01*
X70114Y617641D01*
X70148Y617710D01*
X70655Y619330D01*
X70661Y619378D01*
X70680Y619452D01*
X70861Y621135D01*
X70886Y621333D01*
X70883Y621384D01*
X70887Y621475D01*
X70714Y623184D01*
X70701Y623230D01*
X70689Y623306D01*
X70186Y624948D01*
X70164Y624991D01*
X70138Y625063D01*
X69324Y626576D01*
X69294Y626613D01*
X69254Y626679D01*
X68161Y628003D01*
X68124Y628035D01*
X68073Y628091D01*
X66742Y629177D01*
X66699Y629200D01*
X66638Y629246D01*
X65121Y630051D01*
X65075Y630066D01*
X65006Y630098D01*
X64153Y630354D01*
X63360Y630592D01*
X63313Y630598D01*
X63238Y630616D01*
X61651Y630768D01*
X61634Y630775D01*
X61540Y630816D01*
X61530Y630816D01*
X61522Y630820D01*
X61335Y630831D01*
X59656Y630678D01*
X59609Y630665D01*
X59534Y630655D01*
X57917Y630177D01*
X57874Y630156D01*
X57802Y630131D01*
X56310Y629347D01*
X56272Y629317D01*
X56206Y629279D01*
X54895Y628219D01*
X54864Y628183D01*
X54807Y628132D01*
X53728Y626837D01*
X53704Y626795D01*
X53658Y626734D01*
X52852Y625253D01*
X52837Y625208D01*
X52804Y625139D01*
X52303Y623530D01*
X52297Y623482D01*
X52278Y623408D01*
X52103Y621755D01*
X52056Y621499D01*
X52056Y621477D01*
X52049Y621317D01*
X52234Y619600D01*
X52247Y619553D01*
X52259Y619478D01*
X52775Y617829D01*
X52797Y617786D01*
X52823Y617715D01*
X53651Y616198D01*
X53681Y616160D01*
X53721Y616095D01*
X54829Y614769D01*
X54865Y614738D01*
X54917Y614682D01*
X56262Y613598D01*
X56304Y613575D01*
X56366Y613529D01*
X57897Y612728D01*
X57943Y612714D01*
X58012Y612682D01*
X59669Y612194D01*
X59717Y612189D01*
X59792Y612171D01*
X61260Y612039D01*
X61288Y612023D01*
X61327Y612017D01*
X61364Y612002D01*
X61460Y611997D01*
X61510Y611989D01*
X61530Y611993D01*
G37*
G36*
X61530Y566755D02*
X61530Y566755D01*
X61551Y566753D01*
X63242Y566905D01*
X63288Y566918D01*
X63364Y566928D01*
X64993Y567407D01*
X65021Y567421D01*
X65042Y567425D01*
X65067Y567439D01*
X65108Y567454D01*
X66612Y568241D01*
X66651Y568270D01*
X66716Y568309D01*
X68038Y569375D01*
X68070Y569411D01*
X68127Y569462D01*
X69216Y570765D01*
X69239Y570806D01*
X69286Y570867D01*
X70099Y572358D01*
X70114Y572403D01*
X70148Y572472D01*
X70655Y574092D01*
X70661Y574140D01*
X70680Y574214D01*
X70861Y575897D01*
X70886Y576095D01*
X70883Y576146D01*
X70887Y576237D01*
X70714Y577946D01*
X70701Y577992D01*
X70689Y578068D01*
X70186Y579710D01*
X70164Y579753D01*
X70138Y579825D01*
X69324Y581338D01*
X69294Y581375D01*
X69254Y581441D01*
X68161Y582765D01*
X68124Y582797D01*
X68073Y582853D01*
X66742Y583939D01*
X66699Y583962D01*
X66638Y584008D01*
X65121Y584813D01*
X65075Y584828D01*
X65006Y584860D01*
X64153Y585116D01*
X63360Y585354D01*
X63313Y585360D01*
X63238Y585378D01*
X61651Y585530D01*
X61634Y585537D01*
X61540Y585578D01*
X61530Y585578D01*
X61522Y585582D01*
X61335Y585593D01*
X59656Y585440D01*
X59609Y585427D01*
X59534Y585417D01*
X57917Y584939D01*
X57874Y584918D01*
X57802Y584893D01*
X56310Y584109D01*
X56272Y584079D01*
X56206Y584041D01*
X54895Y582981D01*
X54864Y582945D01*
X54807Y582894D01*
X53728Y581599D01*
X53704Y581557D01*
X53658Y581496D01*
X52852Y580015D01*
X52837Y579970D01*
X52804Y579901D01*
X52303Y578292D01*
X52297Y578244D01*
X52278Y578170D01*
X52103Y576517D01*
X52056Y576261D01*
X52056Y576239D01*
X52049Y576079D01*
X52234Y574362D01*
X52247Y574315D01*
X52259Y574240D01*
X52775Y572591D01*
X52797Y572548D01*
X52823Y572477D01*
X53651Y570960D01*
X53681Y570922D01*
X53721Y570857D01*
X54829Y569531D01*
X54865Y569500D01*
X54917Y569444D01*
X56262Y568360D01*
X56304Y568337D01*
X56366Y568291D01*
X57897Y567490D01*
X57943Y567476D01*
X58012Y567444D01*
X59669Y566956D01*
X59717Y566951D01*
X59792Y566933D01*
X61260Y566801D01*
X61288Y566785D01*
X61327Y566779D01*
X61364Y566764D01*
X61460Y566759D01*
X61510Y566751D01*
X61530Y566755D01*
G37*
G36*
X126605Y566730D02*
X126605Y566730D01*
X126626Y566728D01*
X128317Y566880D01*
X128363Y566893D01*
X128439Y566903D01*
X130068Y567382D01*
X130096Y567396D01*
X130117Y567400D01*
X130142Y567414D01*
X130183Y567429D01*
X131687Y568216D01*
X131726Y568245D01*
X131791Y568284D01*
X133113Y569350D01*
X133145Y569386D01*
X133202Y569437D01*
X134291Y570740D01*
X134314Y570781D01*
X134361Y570842D01*
X135174Y572333D01*
X135189Y572378D01*
X135223Y572447D01*
X135730Y574067D01*
X135736Y574115D01*
X135755Y574189D01*
X135936Y575872D01*
X135961Y576070D01*
X135958Y576121D01*
X135962Y576212D01*
X135789Y577921D01*
X135776Y577967D01*
X135764Y578043D01*
X135261Y579685D01*
X135239Y579728D01*
X135213Y579800D01*
X134399Y581313D01*
X134369Y581350D01*
X134329Y581416D01*
X133236Y582740D01*
X133199Y582772D01*
X133148Y582828D01*
X131817Y583914D01*
X131774Y583937D01*
X131713Y583983D01*
X130196Y584788D01*
X130150Y584803D01*
X130081Y584835D01*
X129228Y585091D01*
X128435Y585329D01*
X128388Y585335D01*
X128313Y585353D01*
X126726Y585505D01*
X126709Y585512D01*
X126615Y585553D01*
X126605Y585553D01*
X126597Y585557D01*
X126410Y585568D01*
X124731Y585415D01*
X124684Y585402D01*
X124609Y585392D01*
X122992Y584914D01*
X122949Y584893D01*
X122877Y584868D01*
X121385Y584084D01*
X121347Y584054D01*
X121281Y584016D01*
X119970Y582956D01*
X119939Y582920D01*
X119882Y582869D01*
X118803Y581574D01*
X118779Y581532D01*
X118733Y581471D01*
X117927Y579990D01*
X117912Y579945D01*
X117879Y579876D01*
X117378Y578267D01*
X117372Y578219D01*
X117353Y578145D01*
X117178Y576492D01*
X117131Y576236D01*
X117131Y576214D01*
X117124Y576054D01*
X117309Y574337D01*
X117322Y574290D01*
X117334Y574215D01*
X117850Y572566D01*
X117872Y572523D01*
X117898Y572452D01*
X118726Y570935D01*
X118756Y570897D01*
X118796Y570832D01*
X119904Y569506D01*
X119940Y569475D01*
X119992Y569419D01*
X121337Y568335D01*
X121379Y568312D01*
X121441Y568266D01*
X122972Y567465D01*
X123018Y567451D01*
X123087Y567419D01*
X124744Y566931D01*
X124792Y566926D01*
X124867Y566908D01*
X126335Y566776D01*
X126363Y566760D01*
X126402Y566754D01*
X126439Y566739D01*
X126535Y566734D01*
X126585Y566726D01*
X126605Y566730D01*
G37*
G36*
X133539Y537088D02*
X133539Y537088D01*
X133560Y537086D01*
X135251Y537238D01*
X135297Y537251D01*
X135373Y537261D01*
X137002Y537740D01*
X137030Y537754D01*
X137051Y537758D01*
X137076Y537772D01*
X137117Y537787D01*
X138621Y538574D01*
X138660Y538603D01*
X138725Y538642D01*
X140047Y539708D01*
X140079Y539744D01*
X140136Y539795D01*
X141225Y541098D01*
X141248Y541139D01*
X141295Y541200D01*
X142108Y542691D01*
X142123Y542736D01*
X142157Y542805D01*
X142664Y544425D01*
X142670Y544473D01*
X142689Y544547D01*
X142870Y546230D01*
X142895Y546428D01*
X142892Y546479D01*
X142896Y546570D01*
X142723Y548279D01*
X142710Y548325D01*
X142698Y548401D01*
X142195Y550043D01*
X142173Y550086D01*
X142147Y550158D01*
X141333Y551671D01*
X141303Y551708D01*
X141263Y551774D01*
X140170Y553098D01*
X140133Y553130D01*
X140082Y553186D01*
X138751Y554272D01*
X138708Y554295D01*
X138647Y554341D01*
X137130Y555146D01*
X137084Y555161D01*
X137015Y555193D01*
X136162Y555449D01*
X135369Y555687D01*
X135322Y555693D01*
X135247Y555711D01*
X133660Y555863D01*
X133643Y555870D01*
X133549Y555911D01*
X133539Y555911D01*
X133531Y555915D01*
X133344Y555926D01*
X131665Y555773D01*
X131618Y555760D01*
X131543Y555750D01*
X129926Y555272D01*
X129883Y555251D01*
X129811Y555226D01*
X128319Y554442D01*
X128281Y554412D01*
X128215Y554374D01*
X126904Y553314D01*
X126873Y553278D01*
X126816Y553227D01*
X125737Y551932D01*
X125713Y551890D01*
X125667Y551829D01*
X124861Y550348D01*
X124846Y550303D01*
X124813Y550234D01*
X124312Y548625D01*
X124306Y548577D01*
X124287Y548503D01*
X124112Y546850D01*
X124065Y546594D01*
X124065Y546572D01*
X124058Y546412D01*
X124243Y544695D01*
X124256Y544648D01*
X124268Y544573D01*
X124784Y542924D01*
X124806Y542881D01*
X124832Y542810D01*
X125660Y541293D01*
X125690Y541255D01*
X125730Y541190D01*
X126838Y539864D01*
X126874Y539833D01*
X126926Y539777D01*
X128271Y538693D01*
X128313Y538670D01*
X128375Y538624D01*
X129906Y537823D01*
X129952Y537809D01*
X130021Y537777D01*
X131678Y537289D01*
X131726Y537284D01*
X131801Y537266D01*
X133269Y537134D01*
X133297Y537118D01*
X133336Y537112D01*
X133373Y537097D01*
X133469Y537092D01*
X133519Y537084D01*
X133539Y537088D01*
G37*
G36*
X68515Y537063D02*
X68515Y537063D01*
X68536Y537061D01*
X70227Y537213D01*
X70273Y537226D01*
X70349Y537236D01*
X71978Y537715D01*
X72006Y537729D01*
X72027Y537733D01*
X72052Y537747D01*
X72093Y537762D01*
X73597Y538549D01*
X73636Y538578D01*
X73701Y538617D01*
X75023Y539683D01*
X75055Y539719D01*
X75112Y539770D01*
X76201Y541073D01*
X76224Y541114D01*
X76271Y541175D01*
X77084Y542666D01*
X77099Y542711D01*
X77133Y542780D01*
X77640Y544400D01*
X77646Y544448D01*
X77665Y544522D01*
X77846Y546205D01*
X77871Y546403D01*
X77868Y546454D01*
X77872Y546545D01*
X77699Y548254D01*
X77686Y548300D01*
X77674Y548376D01*
X77171Y550018D01*
X77149Y550061D01*
X77123Y550133D01*
X76309Y551646D01*
X76279Y551683D01*
X76239Y551749D01*
X75146Y553073D01*
X75109Y553105D01*
X75058Y553161D01*
X73727Y554247D01*
X73684Y554270D01*
X73623Y554316D01*
X72106Y555121D01*
X72060Y555136D01*
X71991Y555168D01*
X71138Y555424D01*
X70345Y555662D01*
X70298Y555668D01*
X70223Y555686D01*
X68636Y555838D01*
X68619Y555845D01*
X68525Y555886D01*
X68515Y555886D01*
X68507Y555890D01*
X68320Y555901D01*
X66641Y555748D01*
X66594Y555735D01*
X66519Y555725D01*
X64902Y555247D01*
X64859Y555226D01*
X64787Y555201D01*
X63295Y554417D01*
X63257Y554387D01*
X63191Y554349D01*
X61880Y553289D01*
X61849Y553253D01*
X61792Y553202D01*
X60713Y551907D01*
X60689Y551865D01*
X60643Y551804D01*
X59837Y550323D01*
X59822Y550278D01*
X59789Y550209D01*
X59288Y548600D01*
X59282Y548552D01*
X59263Y548478D01*
X59088Y546825D01*
X59041Y546569D01*
X59041Y546547D01*
X59034Y546387D01*
X59219Y544670D01*
X59232Y544623D01*
X59244Y544548D01*
X59760Y542899D01*
X59782Y542856D01*
X59808Y542785D01*
X60636Y541268D01*
X60666Y541230D01*
X60706Y541165D01*
X61814Y539839D01*
X61850Y539808D01*
X61902Y539752D01*
X63247Y538668D01*
X63289Y538645D01*
X63351Y538599D01*
X64882Y537798D01*
X64928Y537784D01*
X64997Y537752D01*
X66654Y537264D01*
X66702Y537259D01*
X66777Y537241D01*
X68245Y537109D01*
X68273Y537093D01*
X68312Y537087D01*
X68349Y537072D01*
X68445Y537067D01*
X68495Y537059D01*
X68515Y537063D01*
G37*
G36*
X68515Y491825D02*
X68515Y491825D01*
X68536Y491823D01*
X70227Y491975D01*
X70273Y491988D01*
X70349Y491998D01*
X71978Y492477D01*
X72006Y492491D01*
X72027Y492495D01*
X72052Y492509D01*
X72093Y492524D01*
X73597Y493311D01*
X73636Y493340D01*
X73701Y493379D01*
X75023Y494445D01*
X75055Y494481D01*
X75112Y494532D01*
X76201Y495835D01*
X76224Y495876D01*
X76271Y495937D01*
X77084Y497428D01*
X77099Y497473D01*
X77133Y497542D01*
X77640Y499162D01*
X77646Y499210D01*
X77665Y499284D01*
X77846Y500967D01*
X77871Y501165D01*
X77868Y501216D01*
X77872Y501307D01*
X77699Y503016D01*
X77686Y503062D01*
X77674Y503138D01*
X77171Y504780D01*
X77149Y504823D01*
X77123Y504895D01*
X76309Y506408D01*
X76279Y506445D01*
X76239Y506511D01*
X75146Y507835D01*
X75109Y507867D01*
X75058Y507923D01*
X73727Y509009D01*
X73684Y509032D01*
X73623Y509078D01*
X72106Y509883D01*
X72060Y509898D01*
X71991Y509930D01*
X71138Y510186D01*
X70345Y510424D01*
X70298Y510430D01*
X70223Y510448D01*
X68636Y510600D01*
X68619Y510607D01*
X68525Y510648D01*
X68515Y510648D01*
X68507Y510652D01*
X68320Y510663D01*
X66641Y510510D01*
X66594Y510497D01*
X66519Y510487D01*
X64902Y510009D01*
X64859Y509988D01*
X64787Y509963D01*
X63295Y509179D01*
X63257Y509149D01*
X63191Y509111D01*
X61880Y508051D01*
X61849Y508015D01*
X61792Y507964D01*
X60713Y506669D01*
X60689Y506627D01*
X60643Y506566D01*
X59837Y505085D01*
X59822Y505040D01*
X59789Y504971D01*
X59288Y503362D01*
X59282Y503314D01*
X59263Y503240D01*
X59088Y501587D01*
X59041Y501331D01*
X59041Y501309D01*
X59034Y501149D01*
X59219Y499432D01*
X59232Y499385D01*
X59244Y499310D01*
X59760Y497661D01*
X59782Y497618D01*
X59808Y497547D01*
X60636Y496030D01*
X60666Y495992D01*
X60706Y495927D01*
X61814Y494601D01*
X61850Y494570D01*
X61902Y494514D01*
X63247Y493430D01*
X63289Y493407D01*
X63351Y493361D01*
X64882Y492560D01*
X64928Y492546D01*
X64997Y492514D01*
X66654Y492026D01*
X66702Y492021D01*
X66777Y492003D01*
X68245Y491871D01*
X68273Y491855D01*
X68312Y491849D01*
X68349Y491834D01*
X68445Y491829D01*
X68495Y491821D01*
X68515Y491825D01*
G37*
G36*
X133590Y491800D02*
X133590Y491800D01*
X133611Y491798D01*
X135302Y491950D01*
X135348Y491963D01*
X135424Y491973D01*
X137053Y492452D01*
X137081Y492466D01*
X137102Y492470D01*
X137127Y492484D01*
X137168Y492499D01*
X138672Y493286D01*
X138711Y493315D01*
X138776Y493354D01*
X140098Y494420D01*
X140130Y494456D01*
X140187Y494507D01*
X141276Y495810D01*
X141299Y495851D01*
X141346Y495912D01*
X142159Y497403D01*
X142174Y497448D01*
X142208Y497517D01*
X142715Y499137D01*
X142721Y499185D01*
X142740Y499259D01*
X142921Y500942D01*
X142946Y501140D01*
X142943Y501191D01*
X142947Y501282D01*
X142774Y502991D01*
X142761Y503037D01*
X142749Y503113D01*
X142246Y504755D01*
X142224Y504798D01*
X142198Y504870D01*
X141384Y506383D01*
X141354Y506420D01*
X141314Y506486D01*
X140221Y507810D01*
X140184Y507842D01*
X140133Y507898D01*
X138802Y508984D01*
X138759Y509007D01*
X138698Y509053D01*
X137181Y509858D01*
X137135Y509873D01*
X137066Y509905D01*
X136213Y510161D01*
X135420Y510399D01*
X135373Y510405D01*
X135298Y510423D01*
X133711Y510575D01*
X133694Y510582D01*
X133600Y510623D01*
X133590Y510623D01*
X133582Y510627D01*
X133395Y510638D01*
X131716Y510485D01*
X131669Y510472D01*
X131594Y510462D01*
X129977Y509984D01*
X129934Y509963D01*
X129862Y509938D01*
X128370Y509154D01*
X128332Y509124D01*
X128266Y509086D01*
X126955Y508026D01*
X126924Y507990D01*
X126867Y507939D01*
X125788Y506644D01*
X125764Y506602D01*
X125718Y506541D01*
X124912Y505060D01*
X124897Y505015D01*
X124864Y504946D01*
X124363Y503337D01*
X124357Y503289D01*
X124338Y503215D01*
X124163Y501562D01*
X124116Y501306D01*
X124116Y501284D01*
X124109Y501124D01*
X124294Y499407D01*
X124307Y499360D01*
X124319Y499285D01*
X124835Y497636D01*
X124857Y497593D01*
X124883Y497522D01*
X125711Y496005D01*
X125741Y495967D01*
X125781Y495902D01*
X126889Y494576D01*
X126925Y494545D01*
X126977Y494489D01*
X128322Y493405D01*
X128364Y493382D01*
X128426Y493336D01*
X129957Y492535D01*
X130003Y492521D01*
X130072Y492489D01*
X131729Y492001D01*
X131777Y491996D01*
X131852Y491978D01*
X133320Y491846D01*
X133348Y491830D01*
X133387Y491824D01*
X133424Y491809D01*
X133520Y491804D01*
X133570Y491796D01*
X133590Y491800D01*
G37*
G36*
X133539Y458348D02*
X133539Y458348D01*
X133560Y458346D01*
X135251Y458498D01*
X135297Y458511D01*
X135373Y458521D01*
X137002Y459000D01*
X137030Y459014D01*
X137051Y459018D01*
X137076Y459032D01*
X137117Y459047D01*
X138621Y459834D01*
X138660Y459863D01*
X138725Y459902D01*
X140047Y460968D01*
X140079Y461004D01*
X140136Y461055D01*
X141225Y462358D01*
X141248Y462399D01*
X141295Y462460D01*
X142108Y463951D01*
X142123Y463996D01*
X142157Y464065D01*
X142664Y465685D01*
X142670Y465733D01*
X142689Y465807D01*
X142870Y467490D01*
X142895Y467688D01*
X142892Y467739D01*
X142896Y467830D01*
X142723Y469539D01*
X142710Y469585D01*
X142698Y469661D01*
X142195Y471303D01*
X142173Y471346D01*
X142147Y471418D01*
X141333Y472931D01*
X141303Y472968D01*
X141263Y473034D01*
X140170Y474358D01*
X140133Y474390D01*
X140082Y474446D01*
X138751Y475532D01*
X138708Y475555D01*
X138647Y475601D01*
X137130Y476406D01*
X137084Y476421D01*
X137015Y476453D01*
X136162Y476709D01*
X135369Y476947D01*
X135322Y476953D01*
X135247Y476971D01*
X133660Y477123D01*
X133643Y477130D01*
X133549Y477171D01*
X133539Y477171D01*
X133531Y477175D01*
X133344Y477186D01*
X131665Y477033D01*
X131618Y477020D01*
X131543Y477010D01*
X129926Y476532D01*
X129883Y476511D01*
X129811Y476486D01*
X128319Y475702D01*
X128281Y475672D01*
X128215Y475634D01*
X126904Y474574D01*
X126873Y474538D01*
X126816Y474487D01*
X125737Y473192D01*
X125713Y473150D01*
X125667Y473089D01*
X124861Y471608D01*
X124846Y471563D01*
X124813Y471494D01*
X124312Y469885D01*
X124306Y469837D01*
X124287Y469763D01*
X124112Y468110D01*
X124065Y467854D01*
X124065Y467832D01*
X124058Y467672D01*
X124243Y465955D01*
X124256Y465908D01*
X124268Y465833D01*
X124784Y464184D01*
X124806Y464141D01*
X124832Y464070D01*
X125660Y462553D01*
X125690Y462515D01*
X125730Y462450D01*
X126838Y461124D01*
X126874Y461093D01*
X126926Y461037D01*
X128271Y459953D01*
X128313Y459930D01*
X128375Y459884D01*
X129906Y459083D01*
X129952Y459069D01*
X130021Y459037D01*
X131678Y458549D01*
X131726Y458544D01*
X131801Y458526D01*
X133269Y458394D01*
X133297Y458378D01*
X133336Y458372D01*
X133373Y458357D01*
X133469Y458352D01*
X133519Y458344D01*
X133539Y458348D01*
G37*
G36*
X68515Y458323D02*
X68515Y458323D01*
X68536Y458321D01*
X70227Y458473D01*
X70273Y458486D01*
X70349Y458496D01*
X71978Y458975D01*
X72006Y458989D01*
X72027Y458993D01*
X72052Y459007D01*
X72093Y459022D01*
X73597Y459809D01*
X73636Y459838D01*
X73701Y459877D01*
X75023Y460943D01*
X75055Y460979D01*
X75112Y461030D01*
X76201Y462333D01*
X76224Y462374D01*
X76271Y462435D01*
X77084Y463926D01*
X77099Y463971D01*
X77133Y464040D01*
X77640Y465660D01*
X77646Y465708D01*
X77665Y465782D01*
X77846Y467465D01*
X77871Y467663D01*
X77868Y467714D01*
X77872Y467805D01*
X77699Y469514D01*
X77686Y469560D01*
X77674Y469636D01*
X77171Y471278D01*
X77149Y471321D01*
X77123Y471393D01*
X76309Y472906D01*
X76279Y472943D01*
X76239Y473009D01*
X75146Y474333D01*
X75109Y474365D01*
X75058Y474421D01*
X73727Y475507D01*
X73684Y475530D01*
X73623Y475576D01*
X72106Y476381D01*
X72060Y476396D01*
X71991Y476428D01*
X71138Y476684D01*
X70345Y476922D01*
X70298Y476928D01*
X70223Y476946D01*
X68636Y477098D01*
X68619Y477105D01*
X68525Y477146D01*
X68515Y477146D01*
X68507Y477150D01*
X68320Y477161D01*
X66641Y477008D01*
X66594Y476995D01*
X66519Y476985D01*
X64902Y476507D01*
X64859Y476486D01*
X64787Y476461D01*
X63295Y475677D01*
X63257Y475647D01*
X63191Y475609D01*
X61880Y474549D01*
X61849Y474513D01*
X61792Y474462D01*
X60713Y473167D01*
X60689Y473125D01*
X60643Y473064D01*
X59837Y471583D01*
X59822Y471538D01*
X59789Y471469D01*
X59288Y469860D01*
X59282Y469812D01*
X59263Y469738D01*
X59088Y468085D01*
X59041Y467829D01*
X59041Y467807D01*
X59034Y467647D01*
X59219Y465930D01*
X59232Y465883D01*
X59244Y465808D01*
X59760Y464159D01*
X59782Y464116D01*
X59808Y464045D01*
X60636Y462528D01*
X60666Y462490D01*
X60706Y462425D01*
X61814Y461099D01*
X61850Y461068D01*
X61902Y461012D01*
X63247Y459928D01*
X63289Y459905D01*
X63351Y459859D01*
X64882Y459058D01*
X64928Y459044D01*
X64997Y459012D01*
X66654Y458524D01*
X66702Y458519D01*
X66777Y458501D01*
X68245Y458369D01*
X68273Y458353D01*
X68312Y458347D01*
X68349Y458332D01*
X68445Y458327D01*
X68495Y458319D01*
X68515Y458323D01*
G37*
G36*
X68515Y413085D02*
X68515Y413085D01*
X68536Y413083D01*
X70227Y413235D01*
X70273Y413248D01*
X70349Y413258D01*
X71978Y413737D01*
X72006Y413751D01*
X72027Y413755D01*
X72052Y413769D01*
X72093Y413784D01*
X73597Y414571D01*
X73636Y414600D01*
X73701Y414639D01*
X75023Y415705D01*
X75055Y415741D01*
X75112Y415792D01*
X76201Y417095D01*
X76224Y417136D01*
X76271Y417197D01*
X77084Y418688D01*
X77099Y418733D01*
X77133Y418802D01*
X77640Y420422D01*
X77646Y420470D01*
X77665Y420544D01*
X77846Y422227D01*
X77871Y422425D01*
X77868Y422476D01*
X77872Y422567D01*
X77699Y424276D01*
X77686Y424322D01*
X77674Y424398D01*
X77171Y426040D01*
X77149Y426083D01*
X77123Y426155D01*
X76309Y427668D01*
X76279Y427705D01*
X76239Y427771D01*
X75146Y429095D01*
X75109Y429127D01*
X75058Y429183D01*
X73727Y430269D01*
X73684Y430292D01*
X73623Y430338D01*
X72106Y431143D01*
X72060Y431158D01*
X71991Y431190D01*
X71138Y431446D01*
X70345Y431684D01*
X70298Y431690D01*
X70223Y431708D01*
X68636Y431860D01*
X68619Y431867D01*
X68525Y431908D01*
X68515Y431908D01*
X68507Y431912D01*
X68320Y431923D01*
X66641Y431770D01*
X66594Y431757D01*
X66519Y431747D01*
X64902Y431269D01*
X64859Y431248D01*
X64787Y431223D01*
X63295Y430439D01*
X63257Y430409D01*
X63191Y430371D01*
X61880Y429311D01*
X61849Y429275D01*
X61792Y429224D01*
X60713Y427929D01*
X60689Y427887D01*
X60643Y427826D01*
X59837Y426345D01*
X59822Y426300D01*
X59789Y426231D01*
X59288Y424622D01*
X59282Y424574D01*
X59263Y424500D01*
X59088Y422847D01*
X59041Y422591D01*
X59041Y422569D01*
X59034Y422409D01*
X59219Y420692D01*
X59232Y420645D01*
X59244Y420570D01*
X59760Y418921D01*
X59782Y418878D01*
X59808Y418807D01*
X60636Y417290D01*
X60666Y417252D01*
X60706Y417187D01*
X61814Y415861D01*
X61850Y415830D01*
X61902Y415774D01*
X63247Y414690D01*
X63289Y414667D01*
X63351Y414621D01*
X64882Y413820D01*
X64928Y413806D01*
X64997Y413774D01*
X66654Y413286D01*
X66702Y413281D01*
X66777Y413263D01*
X68245Y413131D01*
X68273Y413115D01*
X68312Y413109D01*
X68349Y413094D01*
X68445Y413089D01*
X68495Y413081D01*
X68515Y413085D01*
G37*
G36*
X133590Y413060D02*
X133590Y413060D01*
X133611Y413058D01*
X135302Y413210D01*
X135348Y413223D01*
X135424Y413233D01*
X137053Y413712D01*
X137081Y413726D01*
X137102Y413730D01*
X137127Y413744D01*
X137168Y413759D01*
X138672Y414546D01*
X138711Y414575D01*
X138776Y414614D01*
X140098Y415680D01*
X140130Y415716D01*
X140187Y415767D01*
X141276Y417070D01*
X141299Y417111D01*
X141346Y417172D01*
X142159Y418663D01*
X142174Y418708D01*
X142208Y418777D01*
X142715Y420397D01*
X142721Y420445D01*
X142740Y420519D01*
X142921Y422202D01*
X142946Y422400D01*
X142943Y422451D01*
X142947Y422542D01*
X142774Y424251D01*
X142761Y424297D01*
X142749Y424373D01*
X142246Y426015D01*
X142224Y426058D01*
X142198Y426130D01*
X141384Y427643D01*
X141354Y427680D01*
X141314Y427746D01*
X140221Y429070D01*
X140184Y429102D01*
X140133Y429158D01*
X138802Y430244D01*
X138759Y430267D01*
X138698Y430313D01*
X137181Y431118D01*
X137135Y431133D01*
X137066Y431165D01*
X136213Y431421D01*
X135420Y431659D01*
X135373Y431665D01*
X135298Y431683D01*
X133711Y431835D01*
X133694Y431842D01*
X133600Y431883D01*
X133590Y431883D01*
X133582Y431887D01*
X133395Y431898D01*
X131716Y431745D01*
X131669Y431732D01*
X131594Y431722D01*
X129977Y431244D01*
X129934Y431223D01*
X129862Y431198D01*
X128370Y430414D01*
X128332Y430384D01*
X128266Y430346D01*
X126955Y429286D01*
X126924Y429250D01*
X126867Y429199D01*
X125788Y427904D01*
X125764Y427862D01*
X125718Y427801D01*
X124912Y426320D01*
X124897Y426275D01*
X124864Y426206D01*
X124363Y424597D01*
X124357Y424549D01*
X124338Y424475D01*
X124163Y422822D01*
X124116Y422566D01*
X124116Y422544D01*
X124109Y422384D01*
X124294Y420667D01*
X124307Y420620D01*
X124319Y420545D01*
X124835Y418896D01*
X124857Y418853D01*
X124883Y418782D01*
X125711Y417265D01*
X125741Y417227D01*
X125781Y417162D01*
X126889Y415836D01*
X126925Y415805D01*
X126977Y415749D01*
X128322Y414665D01*
X128364Y414642D01*
X128426Y414596D01*
X129957Y413795D01*
X130003Y413781D01*
X130072Y413749D01*
X131729Y413261D01*
X131777Y413256D01*
X131852Y413238D01*
X133320Y413106D01*
X133348Y413090D01*
X133387Y413084D01*
X133424Y413069D01*
X133520Y413064D01*
X133570Y413056D01*
X133590Y413060D01*
G37*
G36*
X134174Y384688D02*
X134174Y384688D01*
X134195Y384686D01*
X135886Y384838D01*
X135932Y384851D01*
X136008Y384861D01*
X137637Y385340D01*
X137665Y385354D01*
X137686Y385358D01*
X137711Y385372D01*
X137752Y385387D01*
X139256Y386174D01*
X139295Y386203D01*
X139360Y386242D01*
X140682Y387308D01*
X140714Y387344D01*
X140771Y387395D01*
X141860Y388698D01*
X141883Y388739D01*
X141930Y388800D01*
X142743Y390291D01*
X142758Y390336D01*
X142792Y390405D01*
X143299Y392025D01*
X143305Y392073D01*
X143324Y392147D01*
X143505Y393830D01*
X143530Y394028D01*
X143527Y394079D01*
X143531Y394170D01*
X143358Y395879D01*
X143345Y395925D01*
X143333Y396001D01*
X142830Y397643D01*
X142808Y397686D01*
X142782Y397758D01*
X141968Y399271D01*
X141938Y399308D01*
X141898Y399374D01*
X140805Y400698D01*
X140768Y400730D01*
X140717Y400786D01*
X139386Y401872D01*
X139343Y401895D01*
X139282Y401941D01*
X137765Y402746D01*
X137719Y402761D01*
X137650Y402793D01*
X136797Y403049D01*
X136004Y403287D01*
X135957Y403293D01*
X135882Y403311D01*
X134295Y403463D01*
X134278Y403470D01*
X134184Y403511D01*
X134174Y403511D01*
X134166Y403515D01*
X133979Y403526D01*
X132300Y403373D01*
X132253Y403360D01*
X132178Y403350D01*
X130561Y402872D01*
X130518Y402851D01*
X130446Y402826D01*
X128954Y402042D01*
X128916Y402012D01*
X128850Y401974D01*
X127539Y400914D01*
X127508Y400878D01*
X127451Y400827D01*
X126372Y399532D01*
X126348Y399490D01*
X126302Y399429D01*
X125496Y397948D01*
X125481Y397903D01*
X125448Y397834D01*
X124947Y396225D01*
X124941Y396177D01*
X124922Y396103D01*
X124747Y394450D01*
X124700Y394194D01*
X124700Y394172D01*
X124693Y394012D01*
X124878Y392295D01*
X124891Y392248D01*
X124903Y392173D01*
X125419Y390524D01*
X125441Y390481D01*
X125467Y390410D01*
X126295Y388893D01*
X126325Y388855D01*
X126365Y388790D01*
X127473Y387464D01*
X127509Y387433D01*
X127561Y387377D01*
X128906Y386293D01*
X128948Y386270D01*
X129010Y386224D01*
X130541Y385423D01*
X130587Y385409D01*
X130656Y385377D01*
X132313Y384889D01*
X132361Y384884D01*
X132436Y384866D01*
X133904Y384734D01*
X133932Y384718D01*
X133971Y384712D01*
X134008Y384697D01*
X134104Y384692D01*
X134154Y384684D01*
X134174Y384688D01*
G37*
G36*
X69150Y384663D02*
X69150Y384663D01*
X69171Y384661D01*
X70862Y384813D01*
X70908Y384826D01*
X70984Y384836D01*
X72613Y385315D01*
X72641Y385329D01*
X72662Y385333D01*
X72687Y385347D01*
X72728Y385362D01*
X74232Y386149D01*
X74271Y386178D01*
X74336Y386217D01*
X75658Y387283D01*
X75690Y387319D01*
X75747Y387370D01*
X76836Y388673D01*
X76859Y388714D01*
X76906Y388775D01*
X77719Y390266D01*
X77734Y390311D01*
X77768Y390380D01*
X78275Y392000D01*
X78281Y392048D01*
X78300Y392122D01*
X78481Y393805D01*
X78506Y394003D01*
X78503Y394054D01*
X78507Y394145D01*
X78334Y395854D01*
X78321Y395900D01*
X78309Y395976D01*
X77806Y397618D01*
X77784Y397661D01*
X77758Y397733D01*
X76944Y399246D01*
X76914Y399283D01*
X76874Y399349D01*
X75781Y400673D01*
X75744Y400705D01*
X75693Y400761D01*
X74362Y401847D01*
X74319Y401870D01*
X74258Y401916D01*
X72741Y402721D01*
X72695Y402736D01*
X72626Y402768D01*
X71773Y403024D01*
X70980Y403262D01*
X70933Y403268D01*
X70858Y403286D01*
X69271Y403438D01*
X69254Y403445D01*
X69160Y403486D01*
X69150Y403486D01*
X69142Y403490D01*
X68955Y403501D01*
X67276Y403348D01*
X67229Y403335D01*
X67154Y403325D01*
X65537Y402847D01*
X65494Y402826D01*
X65422Y402801D01*
X63930Y402017D01*
X63892Y401987D01*
X63826Y401949D01*
X62515Y400889D01*
X62484Y400853D01*
X62427Y400802D01*
X61348Y399507D01*
X61324Y399465D01*
X61278Y399404D01*
X60472Y397923D01*
X60457Y397878D01*
X60424Y397809D01*
X59923Y396200D01*
X59917Y396152D01*
X59898Y396078D01*
X59723Y394425D01*
X59676Y394169D01*
X59676Y394147D01*
X59669Y393987D01*
X59854Y392270D01*
X59867Y392223D01*
X59879Y392148D01*
X60395Y390499D01*
X60417Y390456D01*
X60443Y390385D01*
X61271Y388868D01*
X61301Y388830D01*
X61341Y388765D01*
X62449Y387439D01*
X62485Y387408D01*
X62537Y387352D01*
X63882Y386268D01*
X63924Y386245D01*
X63986Y386199D01*
X65517Y385398D01*
X65563Y385384D01*
X65632Y385352D01*
X67289Y384864D01*
X67337Y384859D01*
X67412Y384841D01*
X68880Y384709D01*
X68908Y384693D01*
X68947Y384687D01*
X68984Y384672D01*
X69080Y384667D01*
X69130Y384659D01*
X69150Y384663D01*
G37*
G36*
X69150Y339425D02*
X69150Y339425D01*
X69171Y339423D01*
X70862Y339575D01*
X70908Y339588D01*
X70984Y339598D01*
X72613Y340077D01*
X72641Y340091D01*
X72662Y340095D01*
X72687Y340109D01*
X72728Y340124D01*
X74232Y340911D01*
X74271Y340940D01*
X74336Y340979D01*
X75658Y342045D01*
X75690Y342081D01*
X75747Y342132D01*
X76836Y343435D01*
X76859Y343476D01*
X76906Y343537D01*
X77719Y345028D01*
X77734Y345073D01*
X77768Y345142D01*
X78275Y346762D01*
X78281Y346810D01*
X78300Y346884D01*
X78481Y348567D01*
X78506Y348765D01*
X78503Y348816D01*
X78507Y348907D01*
X78334Y350616D01*
X78321Y350662D01*
X78309Y350738D01*
X77806Y352380D01*
X77784Y352423D01*
X77758Y352495D01*
X76944Y354008D01*
X76914Y354045D01*
X76874Y354111D01*
X75781Y355435D01*
X75744Y355467D01*
X75693Y355523D01*
X74362Y356609D01*
X74319Y356632D01*
X74258Y356678D01*
X72741Y357483D01*
X72695Y357498D01*
X72626Y357530D01*
X71773Y357786D01*
X70980Y358024D01*
X70933Y358030D01*
X70858Y358048D01*
X69271Y358200D01*
X69254Y358207D01*
X69160Y358248D01*
X69150Y358248D01*
X69142Y358252D01*
X68955Y358263D01*
X67276Y358110D01*
X67229Y358097D01*
X67154Y358087D01*
X65537Y357609D01*
X65494Y357588D01*
X65422Y357563D01*
X63930Y356779D01*
X63892Y356749D01*
X63826Y356711D01*
X62515Y355651D01*
X62484Y355615D01*
X62427Y355564D01*
X61348Y354269D01*
X61324Y354227D01*
X61278Y354166D01*
X60472Y352685D01*
X60457Y352640D01*
X60424Y352571D01*
X59923Y350962D01*
X59917Y350914D01*
X59898Y350840D01*
X59723Y349187D01*
X59676Y348931D01*
X59676Y348909D01*
X59669Y348749D01*
X59854Y347032D01*
X59867Y346985D01*
X59879Y346910D01*
X60395Y345261D01*
X60417Y345218D01*
X60443Y345147D01*
X61271Y343630D01*
X61301Y343592D01*
X61341Y343527D01*
X62449Y342201D01*
X62485Y342170D01*
X62537Y342114D01*
X63882Y341030D01*
X63924Y341007D01*
X63986Y340961D01*
X65517Y340160D01*
X65563Y340146D01*
X65632Y340114D01*
X67289Y339626D01*
X67337Y339621D01*
X67412Y339603D01*
X68880Y339471D01*
X68908Y339455D01*
X68947Y339449D01*
X68984Y339434D01*
X69080Y339429D01*
X69130Y339421D01*
X69150Y339425D01*
G37*
G36*
X134225Y339400D02*
X134225Y339400D01*
X134246Y339398D01*
X135937Y339550D01*
X135983Y339563D01*
X136059Y339573D01*
X137688Y340052D01*
X137716Y340066D01*
X137737Y340070D01*
X137762Y340084D01*
X137803Y340099D01*
X139307Y340886D01*
X139346Y340915D01*
X139411Y340954D01*
X140733Y342020D01*
X140765Y342056D01*
X140822Y342107D01*
X141911Y343410D01*
X141934Y343451D01*
X141981Y343512D01*
X142794Y345003D01*
X142809Y345048D01*
X142843Y345117D01*
X143350Y346737D01*
X143356Y346785D01*
X143375Y346859D01*
X143556Y348542D01*
X143581Y348740D01*
X143578Y348791D01*
X143582Y348882D01*
X143409Y350591D01*
X143396Y350637D01*
X143384Y350713D01*
X142881Y352355D01*
X142859Y352398D01*
X142833Y352470D01*
X142019Y353983D01*
X141989Y354020D01*
X141949Y354086D01*
X140856Y355410D01*
X140819Y355442D01*
X140768Y355498D01*
X139437Y356584D01*
X139394Y356607D01*
X139333Y356653D01*
X137816Y357458D01*
X137770Y357473D01*
X137701Y357505D01*
X136848Y357761D01*
X136055Y357999D01*
X136008Y358005D01*
X135933Y358023D01*
X134346Y358175D01*
X134329Y358182D01*
X134235Y358223D01*
X134225Y358223D01*
X134217Y358227D01*
X134030Y358238D01*
X132351Y358085D01*
X132304Y358072D01*
X132229Y358062D01*
X130612Y357584D01*
X130569Y357563D01*
X130497Y357538D01*
X129005Y356754D01*
X128967Y356724D01*
X128901Y356686D01*
X127590Y355626D01*
X127559Y355590D01*
X127502Y355539D01*
X126423Y354244D01*
X126399Y354202D01*
X126353Y354141D01*
X125547Y352660D01*
X125532Y352615D01*
X125499Y352546D01*
X124998Y350937D01*
X124992Y350889D01*
X124973Y350815D01*
X124798Y349162D01*
X124751Y348906D01*
X124751Y348884D01*
X124744Y348724D01*
X124929Y347007D01*
X124942Y346960D01*
X124954Y346885D01*
X125470Y345236D01*
X125492Y345193D01*
X125518Y345122D01*
X126346Y343605D01*
X126376Y343567D01*
X126416Y343502D01*
X127524Y342176D01*
X127560Y342145D01*
X127612Y342089D01*
X128957Y341005D01*
X128999Y340982D01*
X129061Y340936D01*
X130592Y340135D01*
X130638Y340121D01*
X130707Y340089D01*
X132364Y339601D01*
X132412Y339596D01*
X132487Y339578D01*
X133955Y339446D01*
X133983Y339430D01*
X134022Y339424D01*
X134059Y339409D01*
X134155Y339404D01*
X134205Y339396D01*
X134225Y339400D01*
G37*
G36*
X134174Y311028D02*
X134174Y311028D01*
X134195Y311026D01*
X135886Y311178D01*
X135932Y311191D01*
X136008Y311201D01*
X137637Y311680D01*
X137665Y311694D01*
X137686Y311698D01*
X137711Y311712D01*
X137752Y311727D01*
X139256Y312514D01*
X139295Y312543D01*
X139360Y312582D01*
X140682Y313648D01*
X140714Y313684D01*
X140771Y313735D01*
X141860Y315038D01*
X141883Y315079D01*
X141930Y315140D01*
X142743Y316631D01*
X142758Y316676D01*
X142792Y316745D01*
X143299Y318365D01*
X143305Y318413D01*
X143324Y318487D01*
X143505Y320170D01*
X143530Y320368D01*
X143527Y320419D01*
X143531Y320510D01*
X143358Y322219D01*
X143345Y322265D01*
X143333Y322341D01*
X142830Y323983D01*
X142808Y324026D01*
X142782Y324098D01*
X141968Y325611D01*
X141938Y325648D01*
X141898Y325714D01*
X140805Y327038D01*
X140768Y327070D01*
X140717Y327126D01*
X139386Y328212D01*
X139343Y328235D01*
X139282Y328281D01*
X137765Y329086D01*
X137719Y329101D01*
X137650Y329133D01*
X136797Y329389D01*
X136004Y329627D01*
X135957Y329633D01*
X135882Y329651D01*
X134295Y329803D01*
X134278Y329810D01*
X134184Y329851D01*
X134174Y329851D01*
X134166Y329855D01*
X133979Y329866D01*
X132300Y329713D01*
X132253Y329700D01*
X132178Y329690D01*
X130561Y329212D01*
X130518Y329191D01*
X130446Y329166D01*
X128954Y328382D01*
X128916Y328352D01*
X128850Y328314D01*
X127539Y327254D01*
X127508Y327218D01*
X127451Y327167D01*
X126372Y325872D01*
X126348Y325830D01*
X126302Y325769D01*
X125496Y324288D01*
X125481Y324243D01*
X125448Y324174D01*
X124947Y322565D01*
X124941Y322517D01*
X124922Y322443D01*
X124747Y320790D01*
X124700Y320534D01*
X124700Y320512D01*
X124693Y320352D01*
X124878Y318635D01*
X124891Y318588D01*
X124903Y318513D01*
X125419Y316864D01*
X125441Y316821D01*
X125467Y316750D01*
X126295Y315233D01*
X126325Y315195D01*
X126365Y315130D01*
X127473Y313804D01*
X127509Y313773D01*
X127561Y313717D01*
X128906Y312633D01*
X128948Y312610D01*
X129010Y312564D01*
X130541Y311763D01*
X130587Y311749D01*
X130656Y311717D01*
X132313Y311229D01*
X132361Y311224D01*
X132436Y311206D01*
X133904Y311074D01*
X133932Y311058D01*
X133971Y311052D01*
X134008Y311037D01*
X134104Y311032D01*
X134154Y311024D01*
X134174Y311028D01*
G37*
G36*
X69150Y311003D02*
X69150Y311003D01*
X69171Y311001D01*
X70862Y311153D01*
X70908Y311166D01*
X70984Y311176D01*
X72613Y311655D01*
X72641Y311669D01*
X72662Y311673D01*
X72687Y311687D01*
X72728Y311702D01*
X74232Y312489D01*
X74271Y312518D01*
X74336Y312557D01*
X75658Y313623D01*
X75690Y313659D01*
X75747Y313710D01*
X76836Y315013D01*
X76859Y315054D01*
X76906Y315115D01*
X77719Y316606D01*
X77734Y316651D01*
X77768Y316720D01*
X78275Y318340D01*
X78281Y318388D01*
X78300Y318462D01*
X78481Y320145D01*
X78506Y320343D01*
X78503Y320394D01*
X78507Y320485D01*
X78334Y322194D01*
X78321Y322240D01*
X78309Y322316D01*
X77806Y323958D01*
X77784Y324001D01*
X77758Y324073D01*
X76944Y325586D01*
X76914Y325623D01*
X76874Y325689D01*
X75781Y327013D01*
X75744Y327045D01*
X75693Y327101D01*
X74362Y328187D01*
X74319Y328210D01*
X74258Y328256D01*
X72741Y329061D01*
X72695Y329076D01*
X72626Y329108D01*
X71773Y329364D01*
X70980Y329602D01*
X70933Y329608D01*
X70858Y329626D01*
X69271Y329778D01*
X69254Y329785D01*
X69160Y329826D01*
X69150Y329826D01*
X69142Y329830D01*
X68955Y329841D01*
X67276Y329688D01*
X67229Y329675D01*
X67154Y329665D01*
X65537Y329187D01*
X65494Y329166D01*
X65422Y329141D01*
X63930Y328357D01*
X63892Y328327D01*
X63826Y328289D01*
X62515Y327229D01*
X62484Y327193D01*
X62427Y327142D01*
X61348Y325847D01*
X61324Y325805D01*
X61278Y325744D01*
X60472Y324263D01*
X60457Y324218D01*
X60424Y324149D01*
X59923Y322540D01*
X59917Y322492D01*
X59898Y322418D01*
X59723Y320765D01*
X59676Y320509D01*
X59676Y320487D01*
X59669Y320327D01*
X59854Y318610D01*
X59867Y318563D01*
X59879Y318488D01*
X60395Y316839D01*
X60417Y316796D01*
X60443Y316725D01*
X61271Y315208D01*
X61301Y315170D01*
X61341Y315105D01*
X62449Y313779D01*
X62485Y313748D01*
X62537Y313692D01*
X63882Y312608D01*
X63924Y312585D01*
X63986Y312539D01*
X65517Y311738D01*
X65563Y311724D01*
X65632Y311692D01*
X67289Y311204D01*
X67337Y311199D01*
X67412Y311181D01*
X68880Y311049D01*
X68908Y311033D01*
X68947Y311027D01*
X68984Y311012D01*
X69080Y311007D01*
X69130Y310999D01*
X69150Y311003D01*
G37*
G36*
X69150Y265765D02*
X69150Y265765D01*
X69171Y265763D01*
X70862Y265915D01*
X70908Y265928D01*
X70984Y265938D01*
X72613Y266417D01*
X72641Y266431D01*
X72662Y266435D01*
X72687Y266449D01*
X72728Y266464D01*
X74232Y267251D01*
X74271Y267280D01*
X74336Y267319D01*
X75658Y268385D01*
X75690Y268421D01*
X75747Y268472D01*
X76836Y269775D01*
X76859Y269816D01*
X76906Y269877D01*
X77719Y271368D01*
X77734Y271413D01*
X77768Y271482D01*
X78275Y273102D01*
X78281Y273150D01*
X78300Y273224D01*
X78481Y274907D01*
X78506Y275105D01*
X78503Y275156D01*
X78507Y275247D01*
X78334Y276956D01*
X78321Y277002D01*
X78309Y277078D01*
X77806Y278720D01*
X77784Y278763D01*
X77758Y278835D01*
X76944Y280348D01*
X76914Y280385D01*
X76874Y280451D01*
X75781Y281775D01*
X75744Y281807D01*
X75693Y281863D01*
X74362Y282949D01*
X74319Y282972D01*
X74258Y283018D01*
X72741Y283823D01*
X72695Y283838D01*
X72626Y283870D01*
X71773Y284126D01*
X70980Y284364D01*
X70933Y284370D01*
X70858Y284388D01*
X69271Y284540D01*
X69254Y284547D01*
X69160Y284588D01*
X69150Y284588D01*
X69142Y284592D01*
X68955Y284603D01*
X67276Y284450D01*
X67229Y284437D01*
X67154Y284427D01*
X65537Y283949D01*
X65494Y283928D01*
X65422Y283903D01*
X63930Y283119D01*
X63892Y283089D01*
X63826Y283051D01*
X62515Y281991D01*
X62484Y281955D01*
X62427Y281904D01*
X61348Y280609D01*
X61324Y280567D01*
X61278Y280506D01*
X60472Y279025D01*
X60457Y278980D01*
X60424Y278911D01*
X59923Y277302D01*
X59917Y277254D01*
X59898Y277180D01*
X59723Y275527D01*
X59676Y275271D01*
X59676Y275249D01*
X59669Y275089D01*
X59854Y273372D01*
X59867Y273325D01*
X59879Y273250D01*
X60395Y271601D01*
X60417Y271558D01*
X60443Y271487D01*
X61271Y269970D01*
X61301Y269932D01*
X61341Y269867D01*
X62449Y268541D01*
X62485Y268510D01*
X62537Y268454D01*
X63882Y267370D01*
X63924Y267347D01*
X63986Y267301D01*
X65517Y266500D01*
X65563Y266486D01*
X65632Y266454D01*
X67289Y265966D01*
X67337Y265961D01*
X67412Y265943D01*
X68880Y265811D01*
X68908Y265795D01*
X68947Y265789D01*
X68984Y265774D01*
X69080Y265769D01*
X69130Y265761D01*
X69150Y265765D01*
G37*
G36*
X134225Y265740D02*
X134225Y265740D01*
X134246Y265738D01*
X135937Y265890D01*
X135983Y265903D01*
X136059Y265913D01*
X137688Y266392D01*
X137716Y266406D01*
X137737Y266410D01*
X137762Y266424D01*
X137803Y266439D01*
X139307Y267226D01*
X139346Y267255D01*
X139411Y267294D01*
X140733Y268360D01*
X140765Y268396D01*
X140822Y268447D01*
X141911Y269750D01*
X141934Y269791D01*
X141981Y269852D01*
X142794Y271343D01*
X142809Y271388D01*
X142843Y271457D01*
X143350Y273077D01*
X143356Y273125D01*
X143375Y273199D01*
X143556Y274882D01*
X143581Y275080D01*
X143578Y275131D01*
X143582Y275222D01*
X143409Y276931D01*
X143396Y276977D01*
X143384Y277053D01*
X142881Y278695D01*
X142859Y278738D01*
X142833Y278810D01*
X142019Y280323D01*
X141989Y280360D01*
X141949Y280426D01*
X140856Y281750D01*
X140819Y281782D01*
X140768Y281838D01*
X139437Y282924D01*
X139394Y282947D01*
X139333Y282993D01*
X137816Y283798D01*
X137770Y283813D01*
X137701Y283845D01*
X136848Y284101D01*
X136055Y284339D01*
X136008Y284345D01*
X135933Y284363D01*
X134346Y284515D01*
X134329Y284522D01*
X134235Y284563D01*
X134225Y284563D01*
X134217Y284567D01*
X134030Y284578D01*
X132351Y284425D01*
X132304Y284412D01*
X132229Y284402D01*
X130612Y283924D01*
X130569Y283903D01*
X130497Y283878D01*
X129005Y283094D01*
X128967Y283064D01*
X128901Y283026D01*
X127590Y281966D01*
X127559Y281930D01*
X127502Y281879D01*
X126423Y280584D01*
X126399Y280542D01*
X126353Y280481D01*
X125547Y279000D01*
X125532Y278955D01*
X125499Y278886D01*
X124998Y277277D01*
X124992Y277229D01*
X124973Y277155D01*
X124798Y275502D01*
X124751Y275246D01*
X124751Y275224D01*
X124744Y275064D01*
X124929Y273347D01*
X124942Y273300D01*
X124954Y273225D01*
X125470Y271576D01*
X125492Y271533D01*
X125518Y271462D01*
X126346Y269945D01*
X126376Y269907D01*
X126416Y269842D01*
X127524Y268516D01*
X127560Y268485D01*
X127612Y268429D01*
X128957Y267345D01*
X128999Y267322D01*
X129061Y267276D01*
X130592Y266475D01*
X130638Y266461D01*
X130707Y266429D01*
X132364Y265941D01*
X132412Y265936D01*
X132487Y265918D01*
X133955Y265786D01*
X133983Y265770D01*
X134022Y265764D01*
X134059Y265749D01*
X134155Y265744D01*
X134205Y265736D01*
X134225Y265740D01*
G37*
D10*
X38100Y965200D03*
X965200Y762000D03*
X635000Y165100D03*
X38100Y38100D03*
D11*
X482600Y386715D03*
D12*
X482600Y412115D03*
D13*
X184785Y972312D02*
X159385Y972312D01*
X159385Y747268D02*
X184785Y747268D01*
X678815Y972312D02*
X704215Y972312D01*
X704215Y747268D02*
X678815Y747268D01*
D14*
X777240Y955040D03*
X777240Y929640D03*
X828675Y955040D03*
X828675Y929640D03*
D15*
X776605Y800100D03*
X776605Y901700D03*
X828040Y799465D03*
X828040Y901065D03*
D16*
X546100Y377340D03*
X546100Y357340D03*
X546100Y337340D03*
X546100Y317340D03*
X546100Y297340D03*
X546100Y277340D03*
X546100Y257340D03*
X546100Y237340D03*
D17*
X269875Y613855D02*
X269875Y626935D01*
X295275Y626935D02*
X295275Y613855D01*
X320675Y613855D02*
X320675Y626935D01*
X346075Y626935D02*
X346075Y613855D01*
X371475Y613855D02*
X371475Y626935D01*
X396875Y626935D02*
X396875Y613855D01*
X263715Y594995D02*
X250635Y594995D01*
X250635Y569595D02*
X263715Y569595D01*
X263715Y544195D02*
X250635Y544195D01*
X250635Y518795D02*
X263715Y518795D01*
X263715Y493395D02*
X250635Y493395D01*
X250635Y467995D02*
X263715Y467995D01*
X263715Y442595D02*
X250635Y442595D01*
X250635Y417195D02*
X263715Y417195D01*
X263715Y391795D02*
X250635Y391795D01*
X250635Y366395D02*
X263715Y366395D01*
X263715Y340995D02*
X250635Y340995D01*
X250635Y315595D02*
X263715Y315595D01*
X403035Y594995D02*
X416115Y594995D01*
X416115Y569595D02*
X403035Y569595D01*
X403035Y544195D02*
X416115Y544195D01*
X416115Y518795D02*
X403035Y518795D01*
X403035Y493395D02*
X416115Y493395D01*
X416115Y467995D02*
X403035Y467995D01*
X403035Y442595D02*
X416115Y442595D01*
X416115Y417195D02*
X403035Y417195D01*
X403035Y391795D02*
X416115Y391795D01*
X416115Y366395D02*
X403035Y366395D01*
X403035Y340995D02*
X416115Y340995D01*
X416115Y315595D02*
X403035Y315595D01*
X371475Y322135D02*
X371475Y309055D01*
X346075Y309055D02*
X346075Y322135D01*
X320675Y322135D02*
X320675Y309055D01*
D18*
X371475Y506095D03*
X371475Y480695D03*
D19*
X263300Y834300D03*
X263300Y893300D03*
X599300Y954300D03*
X599300Y774300D03*
D20*
X588899Y640715D02*
X575691Y640715D01*
X575691Y615315D02*
X588899Y615315D01*
X588899Y488315D02*
X575691Y488315D01*
X575691Y462915D02*
X588899Y462915D01*
X588899Y589915D02*
X575691Y589915D01*
X575691Y564515D02*
X588899Y564515D01*
X588899Y513715D02*
X575691Y513715D01*
X575691Y539115D02*
X588899Y539115D01*
X588899Y437515D02*
X575691Y437515D01*
X651891Y437515D02*
X665099Y437515D01*
X665099Y462915D02*
X651891Y462915D01*
X651891Y488315D02*
X665099Y488315D01*
X665099Y513715D02*
X651891Y513715D01*
X651891Y539115D02*
X665099Y539115D01*
X665099Y564515D02*
X651891Y564515D01*
X651891Y589915D02*
X665099Y589915D01*
X665099Y615315D02*
X651891Y615315D01*
X651891Y640715D02*
X665099Y640715D01*
D15*
X878840Y800735D03*
X878840Y902335D03*
X927100Y800100D03*
X927100Y901700D03*
D14*
X878840Y955675D03*
X878840Y930275D03*
X927100Y955675D03*
X927100Y930275D03*
D21*
X207010Y664845D03*
X105410Y664845D03*
D22*
X55880Y665480D03*
X81280Y665480D03*
D23*
X72073Y892810D02*
X93028Y892810D01*
X93028Y842010D02*
X72073Y842010D01*
D24*
X56642Y720090D02*
X42418Y720090D01*
X42418Y745490D02*
X56642Y745490D01*
D25*
X861120Y566180D03*
X741120Y686180D03*
X721120Y626180D03*
X861120Y686180D03*
X741120Y566180D03*
X861755Y392190D03*
X741755Y512190D03*
X721755Y452190D03*
X861755Y512190D03*
X741755Y392190D03*
X861755Y218835D03*
X741755Y338835D03*
X721755Y278835D03*
X861755Y338835D03*
X741755Y218835D03*
X861755Y46115D03*
X741755Y166115D03*
X721755Y106115D03*
X861755Y166115D03*
X741755Y46115D03*
D23*
X931863Y574675D02*
X952818Y574675D01*
X952818Y625475D02*
X931863Y625475D01*
X931863Y676275D02*
X952818Y676275D01*
X953453Y401955D02*
X932498Y401955D01*
X932498Y452755D02*
X953453Y452755D01*
X953453Y503555D02*
X932498Y503555D01*
X933133Y228600D02*
X954088Y228600D01*
X954088Y279400D02*
X933133Y279400D01*
X933133Y330200D02*
X954088Y330200D01*
X954088Y54610D02*
X933133Y54610D01*
X933133Y105410D02*
X954088Y105410D01*
X954088Y156210D02*
X933133Y156210D01*
D26*
X508000Y571500D03*
X850900Y838200D03*
X850900Y736600D03*
X457200Y317500D03*
M02*
