G04 EAGLE Gerber RS-274X export*
G75*
%MOMM*%
%FSLAX34Y34*%
%LPD*%
%INTop Copper*%
%IPPOS*%
%AMOC8*
5,1,8,0,0,1.08239X$1,22.5*%
G01*
%ADD10P,1.732040X8X112.500000*%
%ADD11C,1.600200*%
%ADD12C,2.540000*%
%ADD13P,1.429621X8X112.500000*%
%ADD14P,1.429621X8X292.500000*%
%ADD15C,1.879600*%
%ADD16C,1.422400*%
%ADD17C,1.308000*%
%ADD18C,1.308000*%
%ADD19R,1.308000X1.308000*%
%ADD20C,1.320800*%
%ADD21P,1.429621X8X202.500000*%
%ADD22P,1.429621X8X22.500000*%
%ADD23C,2.095500*%
%ADD24C,1.422400*%
%ADD25C,1.408000*%
%ADD26C,0.254000*%
%ADD27C,0.756400*%


D10*
X419100Y343535D03*
D11*
X419100Y318135D03*
D12*
X172085Y972312D02*
X146685Y972312D01*
X146685Y747268D02*
X172085Y747268D01*
X666115Y972312D02*
X691515Y972312D01*
X691515Y747268D02*
X666115Y747268D01*
D13*
X549910Y670560D03*
X549910Y695960D03*
X549275Y499110D03*
X549275Y524510D03*
D14*
X550545Y647700D03*
X550545Y546100D03*
X549910Y476885D03*
X549910Y375285D03*
D15*
X184277Y501269D03*
X119253Y501269D03*
X184277Y546481D03*
X119253Y546481D03*
D16*
X370990Y317500D03*
X350990Y317500D03*
X330990Y317500D03*
X310990Y317500D03*
X290990Y317500D03*
X270990Y317500D03*
X250990Y317500D03*
X230990Y317500D03*
D17*
X238125Y696405D02*
X238125Y709485D01*
X263525Y709485D02*
X263525Y696405D01*
X288925Y696405D02*
X288925Y709485D01*
X314325Y709485D02*
X314325Y696405D01*
X339725Y696405D02*
X339725Y709485D01*
X365125Y709485D02*
X365125Y696405D01*
X231965Y677545D02*
X218885Y677545D01*
X218885Y652145D02*
X231965Y652145D01*
X231965Y626745D02*
X218885Y626745D01*
X218885Y601345D02*
X231965Y601345D01*
X231965Y575945D02*
X218885Y575945D01*
X218885Y550545D02*
X231965Y550545D01*
X231965Y525145D02*
X218885Y525145D01*
X218885Y499745D02*
X231965Y499745D01*
X231965Y474345D02*
X218885Y474345D01*
X218885Y448945D02*
X231965Y448945D01*
X231965Y423545D02*
X218885Y423545D01*
X218885Y398145D02*
X231965Y398145D01*
X371285Y677545D02*
X384365Y677545D01*
X384365Y652145D02*
X371285Y652145D01*
X371285Y626745D02*
X384365Y626745D01*
X384365Y601345D02*
X371285Y601345D01*
X371285Y575945D02*
X384365Y575945D01*
X384365Y550545D02*
X371285Y550545D01*
X371285Y525145D02*
X384365Y525145D01*
X384365Y499745D02*
X371285Y499745D01*
X371285Y474345D02*
X384365Y474345D01*
X384365Y448945D02*
X371285Y448945D01*
X371285Y423545D02*
X384365Y423545D01*
X384365Y398145D02*
X371285Y398145D01*
X339725Y404685D02*
X339725Y391605D01*
X314325Y391605D02*
X314325Y404685D01*
X288925Y404685D02*
X288925Y391605D01*
D18*
X339725Y588645D03*
X339725Y563245D03*
D19*
X250600Y834300D03*
X250600Y893300D03*
X586600Y954300D03*
X586600Y774300D03*
D20*
X430149Y577215D02*
X416941Y577215D01*
X416941Y551815D02*
X430149Y551815D01*
X430149Y424815D02*
X416941Y424815D01*
X416941Y399415D02*
X430149Y399415D01*
X430149Y526415D02*
X416941Y526415D01*
X416941Y501015D02*
X430149Y501015D01*
X430149Y450215D02*
X416941Y450215D01*
X416941Y475615D02*
X430149Y475615D01*
X430149Y374015D02*
X416941Y374015D01*
X493141Y374015D02*
X506349Y374015D01*
X506349Y399415D02*
X493141Y399415D01*
X493141Y424815D02*
X506349Y424815D01*
X506349Y450215D02*
X493141Y450215D01*
X493141Y475615D02*
X506349Y475615D01*
X506349Y501015D02*
X493141Y501015D01*
X493141Y526415D02*
X506349Y526415D01*
X506349Y551815D02*
X493141Y551815D01*
X493141Y577215D02*
X506349Y577215D01*
D15*
X184277Y371729D03*
X119253Y371729D03*
X184277Y416941D03*
X119253Y416941D03*
X184912Y247269D03*
X119888Y247269D03*
X184912Y292481D03*
X119888Y292481D03*
X184912Y122809D03*
X119888Y122809D03*
X184912Y168021D03*
X119888Y168021D03*
X164592Y626999D03*
X99568Y626999D03*
X164592Y672211D03*
X99568Y672211D03*
D14*
X549910Y297815D03*
X549910Y196215D03*
X552450Y127000D03*
X552450Y25400D03*
D13*
X549910Y320675D03*
X549910Y346075D03*
X552450Y149225D03*
X552450Y174625D03*
D21*
X194310Y702945D03*
X92710Y702945D03*
D22*
X17780Y703580D03*
X43180Y703580D03*
D23*
X59373Y892810D02*
X80328Y892810D01*
X80328Y842010D02*
X59373Y842010D01*
D24*
X46482Y778510D02*
X32258Y778510D01*
X32258Y753110D02*
X46482Y753110D01*
D25*
X737295Y594755D03*
X617295Y714755D03*
X597295Y654755D03*
X737295Y714755D03*
X617295Y594755D03*
X737930Y433465D03*
X617930Y553465D03*
X597930Y493465D03*
X737930Y553465D03*
X617930Y433465D03*
X737930Y269635D03*
X617930Y389635D03*
X597930Y329635D03*
X737930Y389635D03*
X617930Y269635D03*
X737930Y96915D03*
X617930Y216915D03*
X597930Y156915D03*
X737930Y216915D03*
X617930Y96915D03*
D23*
X782638Y625475D02*
X803593Y625475D01*
X803593Y676275D02*
X782638Y676275D01*
X782638Y727075D02*
X803593Y727075D01*
X804228Y452755D02*
X783273Y452755D01*
X783273Y503555D02*
X804228Y503555D01*
X804228Y554355D02*
X783273Y554355D01*
X783908Y279400D02*
X804863Y279400D01*
X804863Y330200D02*
X783908Y330200D01*
X783908Y381000D02*
X804863Y381000D01*
X804863Y105410D02*
X783908Y105410D01*
X783908Y156210D02*
X804863Y156210D01*
X804863Y207010D02*
X783908Y207010D01*
X73978Y546100D02*
X53023Y546100D01*
X53023Y495300D02*
X73978Y495300D01*
X73978Y419100D02*
X53023Y419100D01*
X53023Y368300D02*
X73978Y368300D01*
X73978Y292100D02*
X53023Y292100D01*
X53023Y241300D02*
X73978Y241300D01*
X73978Y165100D02*
X53023Y165100D01*
X53023Y114300D02*
X73978Y114300D01*
D26*
X208280Y423545D02*
X225425Y423545D01*
X208280Y423545D02*
X203200Y428625D01*
X203200Y647700D02*
X177800Y673100D01*
X165481Y673100D01*
X164592Y672211D01*
X203200Y647700D02*
X203200Y428625D01*
X194310Y702945D02*
X221615Y730250D01*
X263525Y730250D02*
X276225Y717550D01*
X276225Y542925D01*
X258445Y525145D02*
X225425Y525145D01*
X221615Y730250D02*
X263525Y730250D01*
X276225Y542925D02*
X258445Y525145D01*
X501650Y76200D02*
X552450Y25400D01*
X501650Y372110D02*
X499745Y374015D01*
X501650Y212725D02*
X501650Y76200D01*
X501650Y212725D02*
X501650Y372110D01*
X518160Y196215D02*
X549910Y196215D01*
X518160Y196215D02*
X501650Y212725D01*
X499745Y374015D02*
X483235Y374015D01*
X469900Y387350D01*
X469900Y587375D01*
X488950Y606425D01*
X492125Y606425D01*
X533400Y606425D01*
X550545Y589280D02*
X550545Y546100D01*
X550545Y589280D02*
X533400Y606425D01*
X465455Y677545D02*
X377825Y677545D01*
X492125Y650875D02*
X492125Y606425D01*
X492125Y650875D02*
X465455Y677545D01*
D27*
X465455Y677545D03*
D26*
X608090Y433465D02*
X549910Y375285D01*
X608090Y433465D02*
X617930Y433465D01*
X230990Y317500D02*
X230990Y299235D01*
X374650Y288925D02*
X390525Y304800D01*
X390525Y385445D01*
X377825Y398145D01*
X241300Y288925D02*
X230990Y299235D01*
X241300Y288925D02*
X374650Y288925D01*
X377825Y474345D02*
X360045Y474345D01*
X310990Y339565D02*
X310990Y317500D01*
X327025Y441325D02*
X360045Y474345D01*
X327025Y441325D02*
X327025Y355600D01*
X310990Y339565D01*
D27*
X146050Y581025D03*
D26*
X98425Y581025D01*
X73025Y606425D01*
X73025Y730250D01*
X50165Y753110D01*
X39370Y753110D01*
D12*
X597930Y156915D02*
X793680Y156915D01*
X794385Y156210D01*
X793820Y329635D02*
X597930Y329635D01*
X793820Y329635D02*
X794385Y330200D01*
X655390Y493465D02*
X597930Y493465D01*
X655390Y493465D02*
X666750Y504825D01*
X792480Y504825D01*
X793750Y503555D01*
X612465Y669925D02*
X597295Y654755D01*
X786765Y669925D02*
X793115Y676275D01*
X786765Y669925D02*
X612465Y669925D01*
X747695Y279400D02*
X737930Y269635D01*
X747695Y279400D02*
X794385Y279400D01*
X746565Y381000D02*
X737930Y389635D01*
X746565Y381000D02*
X794385Y381000D01*
X746425Y105410D02*
X737930Y96915D01*
X746425Y105410D02*
X794385Y105410D01*
X747835Y207010D02*
X737930Y216915D01*
X747835Y207010D02*
X794385Y207010D01*
X792860Y553465D02*
X737930Y553465D01*
X792860Y553465D02*
X793750Y554355D01*
X757220Y452755D02*
X737930Y433465D01*
X757220Y452755D02*
X793750Y452755D01*
X737295Y714755D02*
X749615Y727075D01*
X793115Y727075D01*
X768015Y625475D02*
X737295Y594755D01*
X768015Y625475D02*
X793115Y625475D01*
M02*
