G04 EAGLE Gerber RS-274X export*
G75*
%MOMM*%
%FSLAX34Y34*%
%LPD*%
%INBottom Copper*%
%IPPOS*%
%AMOC8*
5,1,8,0,0,1.08239X$1,22.5*%
G01*
%ADD10P,1.732040X8X202.500000*%
%ADD11C,1.600200*%
%ADD12P,1.429621X8X202.500000*%
%ADD13C,1.879600*%
%ADD14C,2.540000*%
%ADD15C,1.320800*%
%ADD16C,1.422400*%
%ADD17P,1.429621X8X22.500000*%
%ADD18C,1.320800*%
%ADD19P,1.429621X8X292.500000*%
%ADD20P,1.429621X8X112.500000*%
%ADD21C,1.422400*%
%ADD22R,1.308000X1.308000*%
%ADD23C,2.095500*%
%ADD24C,1.879600*%
%ADD25C,0.152400*%
%ADD26C,0.756400*%


D10*
X661700Y364800D03*
D11*
X687100Y364800D03*
D12*
X550100Y503700D03*
X524700Y503700D03*
X550900Y443700D03*
X525500Y443700D03*
D13*
X233188Y80206D03*
X298212Y80206D03*
X233188Y34994D03*
X298212Y34994D03*
D14*
X976522Y641600D02*
X976522Y667000D01*
X751478Y667000D02*
X751478Y641600D01*
X756778Y163400D02*
X756778Y138000D01*
X981822Y138000D02*
X981822Y163400D01*
D15*
X379904Y160000D02*
X366696Y160000D01*
X366696Y185400D02*
X379904Y185400D01*
X379904Y312400D02*
X366696Y312400D01*
X366696Y337800D02*
X379904Y337800D01*
X379904Y210800D02*
X366696Y210800D01*
X366696Y236200D02*
X379904Y236200D01*
X379904Y287000D02*
X366696Y287000D01*
X366696Y261600D02*
X379904Y261600D01*
X379904Y363200D02*
X366696Y363200D01*
X366696Y388600D02*
X379904Y388600D01*
X379904Y414000D02*
X366696Y414000D01*
X366696Y439400D02*
X379904Y439400D01*
X379904Y464800D02*
X366696Y464800D01*
X366696Y490200D02*
X379904Y490200D01*
X379904Y515600D02*
X366696Y515600D01*
X366696Y541000D02*
X379904Y541000D01*
X379904Y566400D02*
X366696Y566400D01*
X366696Y591800D02*
X379904Y591800D01*
X379904Y617200D02*
X366696Y617200D01*
X366696Y642600D02*
X379904Y642600D01*
X227504Y642600D02*
X214296Y642600D01*
X214296Y617200D02*
X227504Y617200D01*
X227504Y591800D02*
X214296Y591800D01*
X214296Y566400D02*
X227504Y566400D01*
X227504Y541000D02*
X214296Y541000D01*
X214296Y515600D02*
X227504Y515600D01*
X227504Y490200D02*
X214296Y490200D01*
X214296Y464800D02*
X227504Y464800D01*
X227504Y439400D02*
X214296Y439400D01*
X214296Y414000D02*
X227504Y414000D01*
X227504Y388600D02*
X214296Y388600D01*
X214296Y363200D02*
X227504Y363200D01*
X227504Y337800D02*
X214296Y337800D01*
X214296Y312400D02*
X227504Y312400D01*
X227504Y287000D02*
X214296Y287000D01*
X214296Y261600D02*
X227504Y261600D01*
X227504Y236200D02*
X214296Y236200D01*
X214296Y210800D02*
X227504Y210800D01*
X227504Y185400D02*
X214296Y185400D01*
X214296Y160000D02*
X227504Y160000D01*
D16*
X443400Y664188D02*
X443400Y678412D01*
X468800Y678412D02*
X468800Y664188D01*
X494200Y664188D02*
X494200Y678412D01*
X48412Y468400D02*
X34188Y468400D01*
X34188Y443000D02*
X48412Y443000D01*
X48412Y417600D02*
X34188Y417600D01*
X34188Y392200D02*
X48412Y392200D01*
X48412Y367700D02*
X34188Y367700D01*
X34188Y342300D02*
X48412Y342300D01*
X48412Y316900D02*
X34188Y316900D01*
X34188Y291500D02*
X48412Y291500D01*
D12*
X419700Y32500D03*
X394300Y32500D03*
D17*
X458700Y32500D03*
X484100Y32500D03*
D18*
X478700Y449870D03*
X478700Y498130D03*
D19*
X592500Y464100D03*
X592500Y362500D03*
D20*
X417500Y83900D03*
X417500Y185500D03*
X457500Y61900D03*
X457500Y163500D03*
D13*
X-72512Y722606D03*
X-7488Y722606D03*
X-72512Y677394D03*
X-7488Y677394D03*
X1042488Y122606D03*
X1107512Y122606D03*
X1042488Y77394D03*
X1107512Y77394D03*
X-72512Y422606D03*
X-7488Y422606D03*
X-72512Y377394D03*
X-7488Y377394D03*
X-72512Y572606D03*
X-7488Y572606D03*
X-72512Y527394D03*
X-7488Y527394D03*
X-72512Y272606D03*
X-7488Y272606D03*
X-72512Y227394D03*
X-7488Y227394D03*
X-72512Y122606D03*
X-7488Y122606D03*
X-72512Y77394D03*
X-7488Y77394D03*
X1042488Y722606D03*
X1107512Y722606D03*
X1042488Y677394D03*
X1107512Y677394D03*
X1042488Y572606D03*
X1107512Y572606D03*
X1042488Y527394D03*
X1107512Y527394D03*
X1042488Y422606D03*
X1107512Y422606D03*
X1042488Y377394D03*
X1107512Y377394D03*
X1042488Y272606D03*
X1107512Y272606D03*
X1042488Y227394D03*
X1107512Y227394D03*
D21*
X685900Y324000D03*
X665900Y324000D03*
X645900Y324000D03*
X625900Y324000D03*
X605900Y324000D03*
X585900Y324000D03*
X565900Y324000D03*
X545900Y324000D03*
D22*
X897300Y236300D03*
X838300Y236300D03*
X777300Y572300D03*
X957300Y572300D03*
D23*
X830300Y81078D02*
X830300Y60123D01*
X881100Y60123D02*
X881100Y81078D01*
D24*
X556400Y727502D02*
X556400Y746298D01*
X581800Y746298D02*
X581800Y727502D01*
X607200Y727502D02*
X607200Y746298D01*
X632600Y746298D02*
X632600Y727502D01*
X658000Y727502D02*
X658000Y746298D01*
X683400Y746298D02*
X683400Y727502D01*
D12*
X658600Y666600D03*
X633200Y666600D03*
X418600Y737800D03*
X393200Y737800D03*
D25*
X373300Y287000D02*
X632000Y287000D01*
X645900Y300900D02*
X645900Y324000D01*
X645900Y300900D02*
X632000Y287000D01*
X373500Y465000D02*
X373300Y464800D01*
X373500Y465000D02*
X400000Y465000D01*
X433130Y498130D02*
X478700Y498130D01*
X433130Y498130D02*
X400000Y465000D01*
X478700Y498130D02*
X484270Y503700D01*
X524700Y503700D01*
X399400Y439400D02*
X373300Y439400D01*
X409870Y449870D02*
X478700Y449870D01*
X409870Y449870D02*
X399400Y439400D01*
X478700Y449870D02*
X519330Y449870D01*
X525500Y443700D01*
X-72512Y672394D02*
X-72512Y677394D01*
X-72512Y672394D02*
X-89078Y655828D01*
X-89078Y543960D01*
X-72512Y527394D01*
X-72512Y522488D01*
X-89078Y505922D01*
X-89078Y393960D02*
X-72512Y377394D01*
X-89078Y393960D02*
X-89078Y505922D01*
X-72606Y377394D02*
X-72512Y377394D01*
X-72606Y377394D02*
X-89078Y360922D01*
X-89078Y243960D02*
X-72512Y227394D01*
X-89078Y243960D02*
X-89078Y360922D01*
X-72512Y227394D02*
X-84906Y215000D01*
X-85000Y215000D01*
X-89078Y210922D01*
X-89078Y93960D02*
X-72512Y77394D01*
X-89078Y93960D02*
X-89078Y210922D01*
X-72512Y77394D02*
X-55118Y60000D01*
X200006Y34994D02*
X233188Y34994D01*
X175000Y60000D02*
X-55118Y60000D01*
X175000Y60000D02*
X200006Y34994D01*
X233188Y34994D02*
X269994Y34994D01*
X290000Y55000D01*
X371800Y55000D01*
X394300Y32500D01*
X411800Y15000D01*
X470000Y15000D01*
X484100Y29100D01*
X484100Y32500D01*
X220900Y388600D02*
X164500Y445000D01*
X43300Y445000D02*
X41300Y443000D01*
X43300Y445000D02*
X164500Y445000D01*
X658000Y736900D02*
X658600Y736300D01*
X658600Y666600D01*
X658000Y736900D02*
X683400Y736900D01*
X550900Y502900D02*
X550900Y443700D01*
X550900Y502900D02*
X550100Y503700D01*
X550900Y443700D02*
X550900Y425900D01*
X539000Y414000D02*
X373300Y414000D01*
X550000Y425000D02*
X550900Y425900D01*
X550000Y425000D02*
X539000Y414000D01*
X601500Y425000D02*
X661700Y364800D01*
X601500Y425000D02*
X550000Y425000D01*
X1042488Y77488D02*
X1042488Y77394D01*
X1042488Y77488D02*
X1075000Y110000D01*
X1075000Y194882D01*
X1042488Y227394D01*
X1075000Y259906D01*
X1075000Y344882D02*
X1042488Y377394D01*
X1075000Y344882D02*
X1075000Y259906D01*
X1042488Y527394D02*
X1075000Y559906D01*
X1075000Y644882D02*
X1042488Y677394D01*
X1075000Y644882D02*
X1075000Y559906D01*
X1075000Y409906D02*
X1042488Y377394D01*
X1075000Y494882D02*
X1042488Y527394D01*
X1075000Y494882D02*
X1075000Y409906D01*
X1042488Y677394D02*
X1004882Y715000D01*
X-72512Y677394D02*
X-89078Y693960D01*
X-89078Y740922D02*
X-80000Y750000D01*
X-5000Y750000D01*
X1578Y743422D01*
X1578Y743227D01*
X340000Y725000D02*
X385000Y770000D01*
X650000Y770000D01*
X658600Y761400D02*
X658600Y736300D01*
X-89078Y740922D02*
X-89078Y693960D01*
X1578Y743227D02*
X19805Y725000D01*
X340000Y725000D01*
X650000Y770000D02*
X658600Y761400D01*
X683400Y736900D02*
X705300Y715000D01*
X755000Y715000D02*
X1004882Y715000D01*
X755000Y715000D02*
X705300Y715000D01*
X777300Y692700D02*
X777300Y572300D01*
X777300Y692700D02*
X755000Y715000D01*
X393200Y737800D02*
X377800Y737800D01*
X345000Y705000D01*
X345000Y375000D01*
X356800Y363200D02*
X373300Y363200D01*
X356800Y363200D02*
X345000Y375000D01*
X374000Y362500D02*
X592500Y362500D01*
X374000Y362500D02*
X373300Y363200D01*
D26*
X95000Y505000D03*
D25*
X95000Y555000D01*
D26*
X95000Y555000D03*
D25*
X-40000Y390094D02*
X-72512Y422606D01*
X160000Y260000D02*
X200000Y300000D01*
X240000Y300000D01*
X260000Y280000D01*
X260000Y195000D01*
X250000Y185000D01*
X221300Y185000D01*
X220900Y185400D01*
X-40000Y330000D02*
X-40000Y390094D01*
X-40000Y330000D02*
X30000Y260000D01*
X160000Y260000D01*
X-62606Y572606D02*
X-72512Y572606D01*
X-25000Y325000D02*
X30000Y270000D01*
X150000Y270000D01*
X205000Y325000D01*
X250000Y325000D01*
X270000Y305000D02*
X270000Y225000D01*
D26*
X270000Y225000D03*
D25*
X-25000Y535000D02*
X-62606Y572606D01*
X-25000Y535000D02*
X-25000Y325000D01*
X250000Y325000D02*
X270000Y305000D01*
X-67606Y272606D02*
X-72512Y272606D01*
X-67606Y272606D02*
X-45000Y250000D01*
X165000Y250000D01*
X190000Y275000D01*
X240000Y275000D01*
X250000Y265000D01*
X250000Y245000D01*
X241200Y236200D02*
X220900Y236200D01*
X241200Y236200D02*
X250000Y245000D01*
X-20118Y175000D02*
X-72512Y122606D01*
X191600Y261600D02*
X220900Y261600D01*
X105000Y175000D02*
X-20118Y175000D01*
X105000Y175000D02*
X191600Y261600D01*
X970094Y345000D02*
X1042488Y272606D01*
X405000Y345000D02*
X400000Y350000D01*
X350000Y350000D01*
D26*
X350000Y350000D03*
X280000Y405000D03*
D25*
X280000Y425000D01*
X265600Y439400D01*
X220900Y439400D01*
X405000Y345000D02*
X970094Y345000D01*
X290000Y137018D02*
X233188Y80206D01*
X290000Y630000D02*
X275000Y645000D01*
X223300Y645000D01*
X220900Y642600D01*
X290000Y630000D02*
X290000Y137018D01*
X373300Y160000D02*
X454000Y160000D01*
X457500Y163500D01*
X417400Y185400D02*
X373300Y185400D01*
X417400Y185400D02*
X417500Y185500D01*
X-59906Y710000D02*
X-72512Y722606D01*
X-59906Y710000D02*
X310000Y710000D01*
X330000Y690000D01*
X330000Y255000D02*
X350000Y235000D01*
X372100Y235000D01*
X373300Y236200D01*
X330000Y255000D02*
X330000Y690000D01*
X632600Y736900D02*
X633200Y736300D01*
X633200Y666600D01*
X633200Y504800D02*
X592500Y464100D01*
X633200Y504800D02*
X633200Y666600D01*
D26*
X520000Y680000D03*
D25*
X520000Y710000D01*
X510000Y720000D01*
X450000Y720000D01*
X443400Y713400D01*
X443400Y671300D01*
X156600Y468400D02*
X41300Y468400D01*
X211000Y414000D02*
X220900Y414000D01*
X211000Y414000D02*
X156600Y468400D01*
X418600Y737800D02*
X555500Y737800D01*
X556400Y736900D01*
X395600Y515600D02*
X373300Y515600D01*
X435000Y555000D02*
X435000Y620000D01*
X450000Y635000D01*
X520000Y635000D01*
X581800Y696800D01*
X581800Y736900D01*
X435000Y555000D02*
X395600Y515600D01*
X390200Y490200D02*
X373300Y490200D01*
X450000Y550000D02*
X450000Y610000D01*
X465000Y625000D01*
X607200Y692200D02*
X607200Y736900D01*
X450000Y550000D02*
X390200Y490200D01*
X465000Y625000D02*
X540000Y625000D01*
X607200Y692200D01*
X417500Y83900D02*
X417500Y34700D01*
X419700Y32500D01*
X457500Y61900D02*
X458700Y60700D01*
X458700Y32500D01*
M02*
