G04 EAGLE Gerber RS-274X export*
G75*
%MOMM*%
%FSLAX34Y34*%
%LPD*%
%INSoldermask Bottom*%
%IPPOS*%
%AMOC8*
5,1,8,0,0,1.08239X$1,22.5*%
G01*
%ADD10C,3.703200*%
%ADD11P,1.951982X8X202.500000*%
%ADD12C,1.803400*%
%ADD13P,1.649562X8X202.500000*%
%ADD14C,2.743200*%
%ADD15C,1.524000*%
%ADD16C,1.625600*%
%ADD17P,1.649562X8X22.500000*%
%ADD18C,1.524000*%
%ADD19P,1.649562X8X292.500000*%
%ADD20P,1.649562X8X112.500000*%
%ADD21C,1.625600*%
%ADD22R,1.511200X1.511200*%
%ADD23C,2.298700*%
%ADD24C,2.082800*%
%ADD25C,0.959600*%

G36*
X1044249Y713390D02*
X1044249Y713390D01*
X1044296Y713403D01*
X1044371Y713413D01*
X1045988Y713891D01*
X1046016Y713905D01*
X1046037Y713909D01*
X1046061Y713923D01*
X1046103Y713937D01*
X1047595Y714721D01*
X1047633Y714751D01*
X1047699Y714789D01*
X1049010Y715849D01*
X1049041Y715885D01*
X1049098Y715936D01*
X1050177Y717231D01*
X1050201Y717273D01*
X1050247Y717334D01*
X1051053Y718815D01*
X1051068Y718860D01*
X1051101Y718929D01*
X1051602Y720538D01*
X1051608Y720586D01*
X1051627Y720660D01*
X1051802Y722313D01*
X1051849Y722569D01*
X1051849Y722591D01*
X1051856Y722751D01*
X1051671Y724469D01*
X1051658Y724515D01*
X1051646Y724590D01*
X1051130Y726239D01*
X1051108Y726282D01*
X1051082Y726353D01*
X1050254Y727870D01*
X1050224Y727908D01*
X1050184Y727973D01*
X1049077Y729299D01*
X1049040Y729330D01*
X1048988Y729386D01*
X1047643Y730470D01*
X1047601Y730493D01*
X1047539Y730539D01*
X1046008Y731340D01*
X1045962Y731354D01*
X1045893Y731386D01*
X1044236Y731874D01*
X1044188Y731879D01*
X1044114Y731897D01*
X1042645Y732029D01*
X1042617Y732045D01*
X1042578Y732051D01*
X1042541Y732066D01*
X1042445Y732071D01*
X1042395Y732079D01*
X1042375Y732076D01*
X1042354Y732077D01*
X1040663Y731925D01*
X1040617Y731912D01*
X1040541Y731902D01*
X1038912Y731423D01*
X1038869Y731402D01*
X1038797Y731376D01*
X1037293Y730589D01*
X1037255Y730560D01*
X1037189Y730521D01*
X1035867Y729455D01*
X1035835Y729419D01*
X1035778Y729368D01*
X1034689Y728065D01*
X1034666Y728024D01*
X1034619Y727963D01*
X1033806Y726472D01*
X1033791Y726427D01*
X1033757Y726358D01*
X1033250Y724738D01*
X1033244Y724690D01*
X1033225Y724616D01*
X1033044Y722933D01*
X1033020Y722735D01*
X1033022Y722684D01*
X1033018Y722593D01*
X1033191Y720884D01*
X1033205Y720838D01*
X1033216Y720762D01*
X1033719Y719120D01*
X1033741Y719077D01*
X1033767Y719005D01*
X1034581Y717492D01*
X1034611Y717455D01*
X1034651Y717389D01*
X1035744Y716065D01*
X1035781Y716033D01*
X1035832Y715977D01*
X1037163Y714891D01*
X1037206Y714868D01*
X1037267Y714822D01*
X1038784Y714017D01*
X1038830Y714002D01*
X1038899Y713970D01*
X1039142Y713897D01*
X1039143Y713897D01*
X1040545Y713476D01*
X1040592Y713470D01*
X1040667Y713452D01*
X1042254Y713300D01*
X1042271Y713294D01*
X1042365Y713252D01*
X1042375Y713252D01*
X1042383Y713248D01*
X1042570Y713237D01*
X1044249Y713390D01*
G37*
G36*
X-70751Y713390D02*
X-70751Y713390D01*
X-70704Y713403D01*
X-70629Y713413D01*
X-69012Y713891D01*
X-68984Y713905D01*
X-68963Y713909D01*
X-68939Y713923D01*
X-68897Y713937D01*
X-67405Y714721D01*
X-67367Y714751D01*
X-67301Y714789D01*
X-65990Y715849D01*
X-65959Y715885D01*
X-65902Y715936D01*
X-64823Y717231D01*
X-64799Y717273D01*
X-64753Y717334D01*
X-63947Y718815D01*
X-63932Y718860D01*
X-63899Y718929D01*
X-63398Y720538D01*
X-63392Y720586D01*
X-63373Y720660D01*
X-63198Y722313D01*
X-63151Y722569D01*
X-63151Y722591D01*
X-63144Y722751D01*
X-63329Y724469D01*
X-63342Y724515D01*
X-63354Y724590D01*
X-63870Y726239D01*
X-63892Y726282D01*
X-63918Y726353D01*
X-64746Y727870D01*
X-64776Y727908D01*
X-64816Y727973D01*
X-65924Y729299D01*
X-65960Y729330D01*
X-66012Y729386D01*
X-67357Y730470D01*
X-67399Y730493D01*
X-67461Y730539D01*
X-68992Y731340D01*
X-69038Y731354D01*
X-69107Y731386D01*
X-70764Y731874D01*
X-70812Y731879D01*
X-70887Y731897D01*
X-72355Y732029D01*
X-72383Y732045D01*
X-72422Y732051D01*
X-72459Y732066D01*
X-72555Y732071D01*
X-72605Y732079D01*
X-72625Y732076D01*
X-72646Y732077D01*
X-74337Y731925D01*
X-74383Y731912D01*
X-74459Y731902D01*
X-76088Y731423D01*
X-76131Y731402D01*
X-76203Y731376D01*
X-77707Y730589D01*
X-77746Y730560D01*
X-77811Y730521D01*
X-79133Y729455D01*
X-79165Y729419D01*
X-79222Y729368D01*
X-80311Y728065D01*
X-80334Y728024D01*
X-80381Y727963D01*
X-81194Y726472D01*
X-81209Y726427D01*
X-81243Y726358D01*
X-81750Y724738D01*
X-81756Y724690D01*
X-81775Y724616D01*
X-81956Y722933D01*
X-81981Y722735D01*
X-81978Y722684D01*
X-81982Y722593D01*
X-81809Y720884D01*
X-81796Y720838D01*
X-81784Y720762D01*
X-81281Y719120D01*
X-81259Y719077D01*
X-81233Y719005D01*
X-80419Y717492D01*
X-80389Y717455D01*
X-80349Y717389D01*
X-79256Y716065D01*
X-79219Y716033D01*
X-79168Y715977D01*
X-77837Y714891D01*
X-77794Y714868D01*
X-77733Y714822D01*
X-76216Y714017D01*
X-76170Y714002D01*
X-76101Y713970D01*
X-75858Y713897D01*
X-75857Y713897D01*
X-74455Y713476D01*
X-74408Y713470D01*
X-74333Y713452D01*
X-72746Y713300D01*
X-72729Y713294D01*
X-72635Y713252D01*
X-72625Y713252D01*
X-72617Y713248D01*
X-72430Y713237D01*
X-70751Y713390D01*
G37*
G36*
X1109324Y713365D02*
X1109324Y713365D01*
X1109371Y713378D01*
X1109446Y713388D01*
X1111063Y713866D01*
X1111091Y713880D01*
X1111112Y713884D01*
X1111136Y713898D01*
X1111178Y713912D01*
X1112670Y714696D01*
X1112708Y714726D01*
X1112774Y714764D01*
X1114085Y715824D01*
X1114116Y715860D01*
X1114173Y715911D01*
X1115252Y717206D01*
X1115276Y717248D01*
X1115322Y717309D01*
X1116128Y718790D01*
X1116143Y718835D01*
X1116176Y718904D01*
X1116677Y720513D01*
X1116683Y720561D01*
X1116702Y720635D01*
X1116877Y722288D01*
X1116924Y722544D01*
X1116924Y722566D01*
X1116931Y722726D01*
X1116746Y724444D01*
X1116733Y724490D01*
X1116721Y724565D01*
X1116205Y726214D01*
X1116183Y726257D01*
X1116157Y726328D01*
X1115329Y727845D01*
X1115299Y727883D01*
X1115259Y727948D01*
X1114152Y729274D01*
X1114115Y729305D01*
X1114063Y729361D01*
X1112718Y730445D01*
X1112676Y730468D01*
X1112614Y730514D01*
X1111083Y731315D01*
X1111037Y731329D01*
X1110968Y731361D01*
X1109311Y731849D01*
X1109263Y731854D01*
X1109189Y731872D01*
X1107720Y732004D01*
X1107692Y732020D01*
X1107653Y732026D01*
X1107616Y732041D01*
X1107520Y732046D01*
X1107470Y732054D01*
X1107450Y732051D01*
X1107429Y732052D01*
X1105738Y731900D01*
X1105692Y731887D01*
X1105616Y731877D01*
X1103987Y731398D01*
X1103944Y731377D01*
X1103872Y731351D01*
X1102368Y730564D01*
X1102330Y730535D01*
X1102264Y730496D01*
X1100942Y729430D01*
X1100910Y729394D01*
X1100853Y729343D01*
X1099764Y728040D01*
X1099741Y727999D01*
X1099694Y727938D01*
X1098881Y726447D01*
X1098866Y726402D01*
X1098832Y726333D01*
X1098325Y724713D01*
X1098319Y724665D01*
X1098300Y724591D01*
X1098119Y722908D01*
X1098095Y722710D01*
X1098097Y722659D01*
X1098093Y722568D01*
X1098266Y720859D01*
X1098280Y720813D01*
X1098291Y720737D01*
X1098794Y719095D01*
X1098816Y719052D01*
X1098842Y718980D01*
X1099656Y717467D01*
X1099686Y717430D01*
X1099726Y717364D01*
X1100819Y716040D01*
X1100856Y716008D01*
X1100907Y715952D01*
X1102238Y714866D01*
X1102281Y714843D01*
X1102342Y714797D01*
X1103859Y713992D01*
X1103905Y713977D01*
X1103974Y713945D01*
X1104217Y713872D01*
X1104218Y713872D01*
X1105620Y713451D01*
X1105667Y713445D01*
X1105742Y713427D01*
X1107329Y713275D01*
X1107346Y713269D01*
X1107440Y713227D01*
X1107450Y713227D01*
X1107458Y713223D01*
X1107645Y713212D01*
X1109324Y713365D01*
G37*
G36*
X-5676Y713365D02*
X-5676Y713365D01*
X-5629Y713378D01*
X-5554Y713388D01*
X-3937Y713866D01*
X-3909Y713880D01*
X-3888Y713884D01*
X-3864Y713898D01*
X-3822Y713912D01*
X-2330Y714696D01*
X-2292Y714726D01*
X-2226Y714764D01*
X-915Y715824D01*
X-884Y715860D01*
X-827Y715911D01*
X252Y717206D01*
X276Y717248D01*
X322Y717309D01*
X1128Y718790D01*
X1143Y718835D01*
X1176Y718904D01*
X1677Y720513D01*
X1683Y720561D01*
X1702Y720635D01*
X1877Y722288D01*
X1924Y722544D01*
X1924Y722566D01*
X1931Y722726D01*
X1746Y724444D01*
X1733Y724490D01*
X1721Y724565D01*
X1205Y726214D01*
X1183Y726257D01*
X1157Y726328D01*
X329Y727845D01*
X299Y727883D01*
X259Y727948D01*
X-849Y729274D01*
X-885Y729305D01*
X-937Y729361D01*
X-2282Y730445D01*
X-2324Y730468D01*
X-2386Y730514D01*
X-3917Y731315D01*
X-3963Y731329D01*
X-4032Y731361D01*
X-5689Y731849D01*
X-5737Y731854D01*
X-5812Y731872D01*
X-7280Y732004D01*
X-7308Y732020D01*
X-7347Y732026D01*
X-7384Y732041D01*
X-7480Y732046D01*
X-7530Y732054D01*
X-7550Y732051D01*
X-7571Y732052D01*
X-9262Y731900D01*
X-9308Y731887D01*
X-9384Y731877D01*
X-11013Y731398D01*
X-11056Y731377D01*
X-11128Y731351D01*
X-12632Y730564D01*
X-12671Y730535D01*
X-12736Y730496D01*
X-14058Y729430D01*
X-14090Y729394D01*
X-14147Y729343D01*
X-15236Y728040D01*
X-15259Y727999D01*
X-15306Y727938D01*
X-16119Y726447D01*
X-16134Y726402D01*
X-16168Y726333D01*
X-16675Y724713D01*
X-16681Y724665D01*
X-16700Y724591D01*
X-16881Y722908D01*
X-16906Y722710D01*
X-16903Y722659D01*
X-16907Y722568D01*
X-16734Y720859D01*
X-16721Y720813D01*
X-16709Y720737D01*
X-16206Y719095D01*
X-16184Y719052D01*
X-16158Y718980D01*
X-15344Y717467D01*
X-15314Y717430D01*
X-15274Y717364D01*
X-14181Y716040D01*
X-14144Y716008D01*
X-14093Y715952D01*
X-12762Y714866D01*
X-12719Y714843D01*
X-12658Y714797D01*
X-11141Y713992D01*
X-11095Y713977D01*
X-11026Y713945D01*
X-10783Y713872D01*
X-10782Y713872D01*
X-9380Y713451D01*
X-9333Y713445D01*
X-9258Y713427D01*
X-7671Y713275D01*
X-7654Y713269D01*
X-7560Y713227D01*
X-7550Y713227D01*
X-7542Y713223D01*
X-7355Y713212D01*
X-5676Y713365D01*
G37*
G36*
X1109324Y668127D02*
X1109324Y668127D01*
X1109371Y668140D01*
X1109446Y668150D01*
X1111063Y668628D01*
X1111091Y668642D01*
X1111112Y668646D01*
X1111136Y668660D01*
X1111178Y668674D01*
X1112670Y669458D01*
X1112708Y669488D01*
X1112774Y669526D01*
X1114085Y670586D01*
X1114116Y670622D01*
X1114173Y670673D01*
X1115252Y671968D01*
X1115276Y672010D01*
X1115322Y672071D01*
X1116128Y673552D01*
X1116143Y673597D01*
X1116176Y673666D01*
X1116677Y675275D01*
X1116683Y675323D01*
X1116702Y675397D01*
X1116877Y677050D01*
X1116924Y677306D01*
X1116924Y677328D01*
X1116931Y677488D01*
X1116746Y679206D01*
X1116733Y679252D01*
X1116721Y679327D01*
X1116205Y680976D01*
X1116183Y681019D01*
X1116157Y681090D01*
X1115329Y682607D01*
X1115299Y682645D01*
X1115259Y682710D01*
X1114152Y684036D01*
X1114115Y684067D01*
X1114063Y684123D01*
X1112718Y685207D01*
X1112676Y685230D01*
X1112614Y685276D01*
X1111083Y686077D01*
X1111037Y686091D01*
X1110968Y686123D01*
X1109311Y686611D01*
X1109263Y686616D01*
X1109189Y686634D01*
X1107720Y686766D01*
X1107692Y686782D01*
X1107653Y686788D01*
X1107616Y686803D01*
X1107520Y686808D01*
X1107470Y686816D01*
X1107450Y686813D01*
X1107429Y686814D01*
X1105738Y686662D01*
X1105692Y686649D01*
X1105616Y686639D01*
X1103987Y686160D01*
X1103944Y686139D01*
X1103872Y686113D01*
X1102368Y685326D01*
X1102330Y685297D01*
X1102264Y685258D01*
X1100942Y684192D01*
X1100910Y684156D01*
X1100853Y684105D01*
X1099764Y682802D01*
X1099741Y682761D01*
X1099694Y682700D01*
X1098881Y681209D01*
X1098866Y681164D01*
X1098832Y681095D01*
X1098325Y679475D01*
X1098319Y679427D01*
X1098300Y679353D01*
X1098119Y677670D01*
X1098095Y677472D01*
X1098097Y677421D01*
X1098093Y677330D01*
X1098266Y675621D01*
X1098280Y675575D01*
X1098291Y675499D01*
X1098794Y673857D01*
X1098816Y673814D01*
X1098842Y673742D01*
X1099656Y672229D01*
X1099686Y672192D01*
X1099726Y672126D01*
X1100819Y670802D01*
X1100856Y670770D01*
X1100907Y670714D01*
X1102238Y669628D01*
X1102281Y669605D01*
X1102342Y669559D01*
X1103859Y668754D01*
X1103905Y668739D01*
X1103974Y668707D01*
X1104217Y668634D01*
X1104218Y668634D01*
X1105620Y668213D01*
X1105667Y668207D01*
X1105742Y668189D01*
X1107329Y668037D01*
X1107346Y668031D01*
X1107440Y667989D01*
X1107450Y667989D01*
X1107458Y667985D01*
X1107645Y667974D01*
X1109324Y668127D01*
G37*
G36*
X-5676Y668127D02*
X-5676Y668127D01*
X-5629Y668140D01*
X-5554Y668150D01*
X-3937Y668628D01*
X-3909Y668642D01*
X-3888Y668646D01*
X-3864Y668660D01*
X-3822Y668674D01*
X-2330Y669458D01*
X-2292Y669488D01*
X-2226Y669526D01*
X-915Y670586D01*
X-884Y670622D01*
X-827Y670673D01*
X252Y671968D01*
X276Y672010D01*
X322Y672071D01*
X1128Y673552D01*
X1143Y673597D01*
X1176Y673666D01*
X1677Y675275D01*
X1683Y675323D01*
X1702Y675397D01*
X1877Y677050D01*
X1924Y677306D01*
X1924Y677328D01*
X1931Y677488D01*
X1746Y679206D01*
X1733Y679252D01*
X1721Y679327D01*
X1205Y680976D01*
X1183Y681019D01*
X1157Y681090D01*
X329Y682607D01*
X299Y682645D01*
X259Y682710D01*
X-849Y684036D01*
X-885Y684067D01*
X-937Y684123D01*
X-2282Y685207D01*
X-2324Y685230D01*
X-2386Y685276D01*
X-3917Y686077D01*
X-3963Y686091D01*
X-4032Y686123D01*
X-5689Y686611D01*
X-5737Y686616D01*
X-5812Y686634D01*
X-7280Y686766D01*
X-7308Y686782D01*
X-7347Y686788D01*
X-7384Y686803D01*
X-7480Y686808D01*
X-7530Y686816D01*
X-7550Y686813D01*
X-7571Y686814D01*
X-9262Y686662D01*
X-9308Y686649D01*
X-9384Y686639D01*
X-11013Y686160D01*
X-11056Y686139D01*
X-11128Y686113D01*
X-12632Y685326D01*
X-12671Y685297D01*
X-12736Y685258D01*
X-14058Y684192D01*
X-14090Y684156D01*
X-14147Y684105D01*
X-15236Y682802D01*
X-15259Y682761D01*
X-15306Y682700D01*
X-16119Y681209D01*
X-16134Y681164D01*
X-16168Y681095D01*
X-16675Y679475D01*
X-16681Y679427D01*
X-16700Y679353D01*
X-16881Y677670D01*
X-16906Y677472D01*
X-16903Y677421D01*
X-16907Y677330D01*
X-16734Y675621D01*
X-16721Y675575D01*
X-16709Y675499D01*
X-16206Y673857D01*
X-16184Y673814D01*
X-16158Y673742D01*
X-15344Y672229D01*
X-15314Y672192D01*
X-15274Y672126D01*
X-14181Y670802D01*
X-14144Y670770D01*
X-14093Y670714D01*
X-12762Y669628D01*
X-12719Y669605D01*
X-12658Y669559D01*
X-11141Y668754D01*
X-11095Y668739D01*
X-11026Y668707D01*
X-10783Y668634D01*
X-10782Y668634D01*
X-9380Y668213D01*
X-9333Y668207D01*
X-9258Y668189D01*
X-7671Y668037D01*
X-7654Y668031D01*
X-7560Y667989D01*
X-7550Y667989D01*
X-7542Y667985D01*
X-7355Y667974D01*
X-5676Y668127D01*
G37*
G36*
X1044300Y668102D02*
X1044300Y668102D01*
X1044347Y668115D01*
X1044422Y668125D01*
X1046039Y668603D01*
X1046067Y668617D01*
X1046088Y668621D01*
X1046112Y668635D01*
X1046154Y668649D01*
X1047646Y669433D01*
X1047684Y669463D01*
X1047750Y669501D01*
X1049061Y670561D01*
X1049092Y670597D01*
X1049149Y670648D01*
X1050228Y671943D01*
X1050252Y671985D01*
X1050298Y672046D01*
X1051104Y673527D01*
X1051119Y673572D01*
X1051152Y673641D01*
X1051653Y675250D01*
X1051659Y675298D01*
X1051678Y675372D01*
X1051853Y677025D01*
X1051900Y677281D01*
X1051900Y677303D01*
X1051907Y677463D01*
X1051722Y679181D01*
X1051709Y679227D01*
X1051697Y679302D01*
X1051181Y680951D01*
X1051159Y680994D01*
X1051133Y681065D01*
X1050305Y682582D01*
X1050275Y682620D01*
X1050235Y682685D01*
X1049128Y684011D01*
X1049091Y684042D01*
X1049039Y684098D01*
X1047694Y685182D01*
X1047652Y685205D01*
X1047590Y685251D01*
X1046059Y686052D01*
X1046013Y686066D01*
X1045944Y686098D01*
X1044287Y686586D01*
X1044239Y686591D01*
X1044165Y686609D01*
X1042696Y686741D01*
X1042668Y686757D01*
X1042629Y686763D01*
X1042592Y686778D01*
X1042496Y686783D01*
X1042446Y686791D01*
X1042426Y686788D01*
X1042405Y686789D01*
X1040714Y686637D01*
X1040668Y686624D01*
X1040592Y686614D01*
X1038963Y686135D01*
X1038920Y686114D01*
X1038848Y686088D01*
X1037344Y685301D01*
X1037306Y685272D01*
X1037240Y685233D01*
X1035918Y684167D01*
X1035886Y684131D01*
X1035829Y684080D01*
X1034740Y682777D01*
X1034717Y682736D01*
X1034670Y682675D01*
X1033857Y681184D01*
X1033842Y681139D01*
X1033808Y681070D01*
X1033301Y679450D01*
X1033295Y679402D01*
X1033276Y679328D01*
X1033095Y677645D01*
X1033071Y677447D01*
X1033073Y677396D01*
X1033069Y677305D01*
X1033242Y675596D01*
X1033256Y675550D01*
X1033267Y675474D01*
X1033770Y673832D01*
X1033792Y673789D01*
X1033818Y673717D01*
X1034632Y672204D01*
X1034662Y672167D01*
X1034702Y672101D01*
X1035795Y670777D01*
X1035832Y670745D01*
X1035883Y670689D01*
X1037214Y669603D01*
X1037257Y669580D01*
X1037318Y669534D01*
X1038835Y668729D01*
X1038881Y668714D01*
X1038950Y668682D01*
X1039193Y668609D01*
X1039194Y668609D01*
X1040596Y668188D01*
X1040643Y668182D01*
X1040718Y668164D01*
X1042305Y668012D01*
X1042322Y668006D01*
X1042416Y667964D01*
X1042426Y667964D01*
X1042434Y667960D01*
X1042621Y667949D01*
X1044300Y668102D01*
G37*
G36*
X-70700Y668102D02*
X-70700Y668102D01*
X-70653Y668115D01*
X-70578Y668125D01*
X-68961Y668603D01*
X-68933Y668617D01*
X-68912Y668621D01*
X-68888Y668635D01*
X-68846Y668649D01*
X-67354Y669433D01*
X-67316Y669463D01*
X-67250Y669501D01*
X-65939Y670561D01*
X-65908Y670597D01*
X-65851Y670648D01*
X-64772Y671943D01*
X-64748Y671985D01*
X-64702Y672046D01*
X-63896Y673527D01*
X-63881Y673572D01*
X-63848Y673641D01*
X-63347Y675250D01*
X-63341Y675298D01*
X-63322Y675372D01*
X-63147Y677025D01*
X-63100Y677281D01*
X-63100Y677303D01*
X-63093Y677463D01*
X-63278Y679181D01*
X-63291Y679227D01*
X-63303Y679302D01*
X-63819Y680951D01*
X-63841Y680994D01*
X-63867Y681065D01*
X-64695Y682582D01*
X-64725Y682620D01*
X-64765Y682685D01*
X-65873Y684011D01*
X-65909Y684042D01*
X-65961Y684098D01*
X-67306Y685182D01*
X-67348Y685205D01*
X-67410Y685251D01*
X-68941Y686052D01*
X-68987Y686066D01*
X-69056Y686098D01*
X-70713Y686586D01*
X-70761Y686591D01*
X-70836Y686609D01*
X-72304Y686741D01*
X-72332Y686757D01*
X-72371Y686763D01*
X-72408Y686778D01*
X-72504Y686783D01*
X-72554Y686791D01*
X-72574Y686788D01*
X-72595Y686789D01*
X-74286Y686637D01*
X-74332Y686624D01*
X-74408Y686614D01*
X-76037Y686135D01*
X-76080Y686114D01*
X-76152Y686088D01*
X-77656Y685301D01*
X-77695Y685272D01*
X-77760Y685233D01*
X-79082Y684167D01*
X-79114Y684131D01*
X-79171Y684080D01*
X-80260Y682777D01*
X-80283Y682736D01*
X-80330Y682675D01*
X-81143Y681184D01*
X-81158Y681139D01*
X-81192Y681070D01*
X-81699Y679450D01*
X-81705Y679402D01*
X-81724Y679328D01*
X-81905Y677645D01*
X-81930Y677447D01*
X-81927Y677396D01*
X-81931Y677305D01*
X-81758Y675596D01*
X-81745Y675550D01*
X-81733Y675474D01*
X-81230Y673832D01*
X-81208Y673789D01*
X-81182Y673717D01*
X-80368Y672204D01*
X-80338Y672167D01*
X-80298Y672101D01*
X-79205Y670777D01*
X-79168Y670745D01*
X-79117Y670689D01*
X-77786Y669603D01*
X-77743Y669580D01*
X-77682Y669534D01*
X-76165Y668729D01*
X-76119Y668714D01*
X-76050Y668682D01*
X-75807Y668609D01*
X-75806Y668609D01*
X-74404Y668188D01*
X-74357Y668182D01*
X-74282Y668164D01*
X-72695Y668012D01*
X-72678Y668006D01*
X-72584Y667964D01*
X-72574Y667964D01*
X-72566Y667960D01*
X-72379Y667949D01*
X-70700Y668102D01*
G37*
G36*
X1044249Y563390D02*
X1044249Y563390D01*
X1044296Y563403D01*
X1044371Y563413D01*
X1045988Y563891D01*
X1046016Y563905D01*
X1046037Y563909D01*
X1046061Y563923D01*
X1046103Y563937D01*
X1047595Y564721D01*
X1047633Y564751D01*
X1047699Y564789D01*
X1049010Y565849D01*
X1049041Y565885D01*
X1049098Y565936D01*
X1050177Y567231D01*
X1050201Y567273D01*
X1050247Y567334D01*
X1051053Y568815D01*
X1051068Y568860D01*
X1051101Y568929D01*
X1051602Y570538D01*
X1051608Y570586D01*
X1051627Y570660D01*
X1051802Y572313D01*
X1051849Y572569D01*
X1051849Y572591D01*
X1051856Y572751D01*
X1051671Y574469D01*
X1051658Y574515D01*
X1051646Y574590D01*
X1051130Y576239D01*
X1051108Y576282D01*
X1051082Y576353D01*
X1050254Y577870D01*
X1050224Y577908D01*
X1050184Y577973D01*
X1049077Y579299D01*
X1049040Y579330D01*
X1048988Y579386D01*
X1047643Y580470D01*
X1047601Y580493D01*
X1047539Y580539D01*
X1046008Y581340D01*
X1045962Y581354D01*
X1045893Y581386D01*
X1044236Y581874D01*
X1044188Y581879D01*
X1044114Y581897D01*
X1042645Y582029D01*
X1042617Y582045D01*
X1042578Y582051D01*
X1042541Y582066D01*
X1042445Y582071D01*
X1042395Y582079D01*
X1042375Y582076D01*
X1042354Y582077D01*
X1040663Y581925D01*
X1040617Y581912D01*
X1040541Y581902D01*
X1038912Y581423D01*
X1038869Y581402D01*
X1038797Y581376D01*
X1037293Y580589D01*
X1037255Y580560D01*
X1037189Y580521D01*
X1035867Y579455D01*
X1035835Y579419D01*
X1035778Y579368D01*
X1034689Y578065D01*
X1034666Y578024D01*
X1034619Y577963D01*
X1033806Y576472D01*
X1033791Y576427D01*
X1033757Y576358D01*
X1033250Y574738D01*
X1033244Y574690D01*
X1033225Y574616D01*
X1033044Y572933D01*
X1033020Y572735D01*
X1033022Y572684D01*
X1033018Y572593D01*
X1033191Y570884D01*
X1033205Y570838D01*
X1033216Y570762D01*
X1033719Y569120D01*
X1033741Y569077D01*
X1033767Y569005D01*
X1034581Y567492D01*
X1034611Y567455D01*
X1034651Y567389D01*
X1035744Y566065D01*
X1035781Y566033D01*
X1035832Y565977D01*
X1037163Y564891D01*
X1037206Y564868D01*
X1037267Y564822D01*
X1038784Y564017D01*
X1038830Y564002D01*
X1038899Y563970D01*
X1039142Y563897D01*
X1039143Y563897D01*
X1040545Y563476D01*
X1040592Y563470D01*
X1040667Y563452D01*
X1042254Y563300D01*
X1042271Y563294D01*
X1042365Y563252D01*
X1042375Y563252D01*
X1042383Y563248D01*
X1042570Y563237D01*
X1044249Y563390D01*
G37*
G36*
X-70751Y563390D02*
X-70751Y563390D01*
X-70704Y563403D01*
X-70629Y563413D01*
X-69012Y563891D01*
X-68984Y563905D01*
X-68963Y563909D01*
X-68939Y563923D01*
X-68897Y563937D01*
X-67405Y564721D01*
X-67367Y564751D01*
X-67301Y564789D01*
X-65990Y565849D01*
X-65959Y565885D01*
X-65902Y565936D01*
X-64823Y567231D01*
X-64799Y567273D01*
X-64753Y567334D01*
X-63947Y568815D01*
X-63932Y568860D01*
X-63899Y568929D01*
X-63398Y570538D01*
X-63392Y570586D01*
X-63373Y570660D01*
X-63198Y572313D01*
X-63151Y572569D01*
X-63151Y572591D01*
X-63144Y572751D01*
X-63329Y574469D01*
X-63342Y574515D01*
X-63354Y574590D01*
X-63870Y576239D01*
X-63892Y576282D01*
X-63918Y576353D01*
X-64746Y577870D01*
X-64776Y577908D01*
X-64816Y577973D01*
X-65924Y579299D01*
X-65960Y579330D01*
X-66012Y579386D01*
X-67357Y580470D01*
X-67399Y580493D01*
X-67461Y580539D01*
X-68992Y581340D01*
X-69038Y581354D01*
X-69107Y581386D01*
X-70764Y581874D01*
X-70812Y581879D01*
X-70887Y581897D01*
X-72355Y582029D01*
X-72383Y582045D01*
X-72422Y582051D01*
X-72459Y582066D01*
X-72555Y582071D01*
X-72605Y582079D01*
X-72625Y582076D01*
X-72646Y582077D01*
X-74337Y581925D01*
X-74383Y581912D01*
X-74459Y581902D01*
X-76088Y581423D01*
X-76131Y581402D01*
X-76203Y581376D01*
X-77707Y580589D01*
X-77746Y580560D01*
X-77811Y580521D01*
X-79133Y579455D01*
X-79165Y579419D01*
X-79222Y579368D01*
X-80311Y578065D01*
X-80334Y578024D01*
X-80381Y577963D01*
X-81194Y576472D01*
X-81209Y576427D01*
X-81243Y576358D01*
X-81750Y574738D01*
X-81756Y574690D01*
X-81775Y574616D01*
X-81956Y572933D01*
X-81981Y572735D01*
X-81978Y572684D01*
X-81982Y572593D01*
X-81809Y570884D01*
X-81796Y570838D01*
X-81784Y570762D01*
X-81281Y569120D01*
X-81259Y569077D01*
X-81233Y569005D01*
X-80419Y567492D01*
X-80389Y567455D01*
X-80349Y567389D01*
X-79256Y566065D01*
X-79219Y566033D01*
X-79168Y565977D01*
X-77837Y564891D01*
X-77794Y564868D01*
X-77733Y564822D01*
X-76216Y564017D01*
X-76170Y564002D01*
X-76101Y563970D01*
X-75858Y563897D01*
X-75857Y563897D01*
X-74455Y563476D01*
X-74408Y563470D01*
X-74333Y563452D01*
X-72746Y563300D01*
X-72729Y563294D01*
X-72635Y563252D01*
X-72625Y563252D01*
X-72617Y563248D01*
X-72430Y563237D01*
X-70751Y563390D01*
G37*
G36*
X1109324Y563365D02*
X1109324Y563365D01*
X1109371Y563378D01*
X1109446Y563388D01*
X1111063Y563866D01*
X1111091Y563880D01*
X1111112Y563884D01*
X1111136Y563898D01*
X1111178Y563912D01*
X1112670Y564696D01*
X1112708Y564726D01*
X1112774Y564764D01*
X1114085Y565824D01*
X1114116Y565860D01*
X1114173Y565911D01*
X1115252Y567206D01*
X1115276Y567248D01*
X1115322Y567309D01*
X1116128Y568790D01*
X1116143Y568835D01*
X1116176Y568904D01*
X1116677Y570513D01*
X1116683Y570561D01*
X1116702Y570635D01*
X1116877Y572288D01*
X1116924Y572544D01*
X1116924Y572566D01*
X1116931Y572726D01*
X1116746Y574444D01*
X1116733Y574490D01*
X1116721Y574565D01*
X1116205Y576214D01*
X1116183Y576257D01*
X1116157Y576328D01*
X1115329Y577845D01*
X1115299Y577883D01*
X1115259Y577948D01*
X1114152Y579274D01*
X1114115Y579305D01*
X1114063Y579361D01*
X1112718Y580445D01*
X1112676Y580468D01*
X1112614Y580514D01*
X1111083Y581315D01*
X1111037Y581329D01*
X1110968Y581361D01*
X1109311Y581849D01*
X1109263Y581854D01*
X1109189Y581872D01*
X1107720Y582004D01*
X1107692Y582020D01*
X1107653Y582026D01*
X1107616Y582041D01*
X1107520Y582046D01*
X1107470Y582054D01*
X1107450Y582051D01*
X1107429Y582052D01*
X1105738Y581900D01*
X1105692Y581887D01*
X1105616Y581877D01*
X1103987Y581398D01*
X1103944Y581377D01*
X1103872Y581351D01*
X1102368Y580564D01*
X1102330Y580535D01*
X1102264Y580496D01*
X1100942Y579430D01*
X1100910Y579394D01*
X1100853Y579343D01*
X1099764Y578040D01*
X1099741Y577999D01*
X1099694Y577938D01*
X1098881Y576447D01*
X1098866Y576402D01*
X1098832Y576333D01*
X1098325Y574713D01*
X1098319Y574665D01*
X1098300Y574591D01*
X1098119Y572908D01*
X1098095Y572710D01*
X1098097Y572659D01*
X1098093Y572568D01*
X1098266Y570859D01*
X1098280Y570813D01*
X1098291Y570737D01*
X1098794Y569095D01*
X1098816Y569052D01*
X1098842Y568980D01*
X1099656Y567467D01*
X1099686Y567430D01*
X1099726Y567364D01*
X1100819Y566040D01*
X1100856Y566008D01*
X1100907Y565952D01*
X1102238Y564866D01*
X1102281Y564843D01*
X1102342Y564797D01*
X1103859Y563992D01*
X1103905Y563977D01*
X1103974Y563945D01*
X1104217Y563872D01*
X1104218Y563872D01*
X1105620Y563451D01*
X1105667Y563445D01*
X1105742Y563427D01*
X1107329Y563275D01*
X1107346Y563269D01*
X1107440Y563227D01*
X1107450Y563227D01*
X1107458Y563223D01*
X1107645Y563212D01*
X1109324Y563365D01*
G37*
G36*
X-5676Y563365D02*
X-5676Y563365D01*
X-5629Y563378D01*
X-5554Y563388D01*
X-3937Y563866D01*
X-3909Y563880D01*
X-3888Y563884D01*
X-3864Y563898D01*
X-3822Y563912D01*
X-2330Y564696D01*
X-2292Y564726D01*
X-2226Y564764D01*
X-915Y565824D01*
X-884Y565860D01*
X-827Y565911D01*
X252Y567206D01*
X276Y567248D01*
X322Y567309D01*
X1128Y568790D01*
X1143Y568835D01*
X1176Y568904D01*
X1677Y570513D01*
X1683Y570561D01*
X1702Y570635D01*
X1877Y572288D01*
X1924Y572544D01*
X1924Y572566D01*
X1931Y572726D01*
X1746Y574444D01*
X1733Y574490D01*
X1721Y574565D01*
X1205Y576214D01*
X1183Y576257D01*
X1157Y576328D01*
X329Y577845D01*
X299Y577883D01*
X259Y577948D01*
X-849Y579274D01*
X-885Y579305D01*
X-937Y579361D01*
X-2282Y580445D01*
X-2324Y580468D01*
X-2386Y580514D01*
X-3917Y581315D01*
X-3963Y581329D01*
X-4032Y581361D01*
X-5689Y581849D01*
X-5737Y581854D01*
X-5812Y581872D01*
X-7280Y582004D01*
X-7308Y582020D01*
X-7347Y582026D01*
X-7384Y582041D01*
X-7480Y582046D01*
X-7530Y582054D01*
X-7550Y582051D01*
X-7571Y582052D01*
X-9262Y581900D01*
X-9308Y581887D01*
X-9384Y581877D01*
X-11013Y581398D01*
X-11056Y581377D01*
X-11128Y581351D01*
X-12632Y580564D01*
X-12671Y580535D01*
X-12736Y580496D01*
X-14058Y579430D01*
X-14090Y579394D01*
X-14147Y579343D01*
X-15236Y578040D01*
X-15259Y577999D01*
X-15306Y577938D01*
X-16119Y576447D01*
X-16134Y576402D01*
X-16168Y576333D01*
X-16675Y574713D01*
X-16681Y574665D01*
X-16700Y574591D01*
X-16881Y572908D01*
X-16906Y572710D01*
X-16903Y572659D01*
X-16907Y572568D01*
X-16734Y570859D01*
X-16721Y570813D01*
X-16709Y570737D01*
X-16206Y569095D01*
X-16184Y569052D01*
X-16158Y568980D01*
X-15344Y567467D01*
X-15314Y567430D01*
X-15274Y567364D01*
X-14181Y566040D01*
X-14144Y566008D01*
X-14093Y565952D01*
X-12762Y564866D01*
X-12719Y564843D01*
X-12658Y564797D01*
X-11141Y563992D01*
X-11095Y563977D01*
X-11026Y563945D01*
X-10783Y563872D01*
X-10782Y563872D01*
X-9380Y563451D01*
X-9333Y563445D01*
X-9258Y563427D01*
X-7671Y563275D01*
X-7654Y563269D01*
X-7560Y563227D01*
X-7550Y563227D01*
X-7542Y563223D01*
X-7355Y563212D01*
X-5676Y563365D01*
G37*
G36*
X-5676Y518127D02*
X-5676Y518127D01*
X-5629Y518140D01*
X-5554Y518150D01*
X-3937Y518628D01*
X-3909Y518642D01*
X-3888Y518646D01*
X-3864Y518660D01*
X-3822Y518674D01*
X-2330Y519458D01*
X-2292Y519488D01*
X-2226Y519526D01*
X-915Y520586D01*
X-884Y520622D01*
X-827Y520673D01*
X252Y521968D01*
X276Y522010D01*
X322Y522071D01*
X1128Y523552D01*
X1143Y523597D01*
X1176Y523666D01*
X1677Y525275D01*
X1683Y525323D01*
X1702Y525397D01*
X1877Y527050D01*
X1924Y527306D01*
X1924Y527328D01*
X1931Y527488D01*
X1746Y529206D01*
X1733Y529252D01*
X1721Y529327D01*
X1205Y530976D01*
X1183Y531019D01*
X1157Y531090D01*
X329Y532607D01*
X299Y532645D01*
X259Y532710D01*
X-849Y534036D01*
X-885Y534067D01*
X-937Y534123D01*
X-2282Y535207D01*
X-2324Y535230D01*
X-2386Y535276D01*
X-3917Y536077D01*
X-3963Y536091D01*
X-4032Y536123D01*
X-5689Y536611D01*
X-5737Y536616D01*
X-5812Y536634D01*
X-7280Y536766D01*
X-7308Y536782D01*
X-7347Y536788D01*
X-7384Y536803D01*
X-7480Y536808D01*
X-7530Y536816D01*
X-7550Y536813D01*
X-7571Y536814D01*
X-9262Y536662D01*
X-9308Y536649D01*
X-9384Y536639D01*
X-11013Y536160D01*
X-11056Y536139D01*
X-11128Y536113D01*
X-12632Y535326D01*
X-12671Y535297D01*
X-12736Y535258D01*
X-14058Y534192D01*
X-14090Y534156D01*
X-14147Y534105D01*
X-15236Y532802D01*
X-15259Y532761D01*
X-15306Y532700D01*
X-16119Y531209D01*
X-16134Y531164D01*
X-16168Y531095D01*
X-16675Y529475D01*
X-16681Y529427D01*
X-16700Y529353D01*
X-16881Y527670D01*
X-16906Y527472D01*
X-16903Y527421D01*
X-16907Y527330D01*
X-16734Y525621D01*
X-16721Y525575D01*
X-16709Y525499D01*
X-16206Y523857D01*
X-16184Y523814D01*
X-16158Y523742D01*
X-15344Y522229D01*
X-15314Y522192D01*
X-15274Y522126D01*
X-14181Y520802D01*
X-14144Y520770D01*
X-14093Y520714D01*
X-12762Y519628D01*
X-12719Y519605D01*
X-12658Y519559D01*
X-11141Y518754D01*
X-11095Y518739D01*
X-11026Y518707D01*
X-10783Y518634D01*
X-10782Y518634D01*
X-9380Y518213D01*
X-9333Y518207D01*
X-9258Y518189D01*
X-7671Y518037D01*
X-7654Y518031D01*
X-7560Y517989D01*
X-7550Y517989D01*
X-7542Y517985D01*
X-7355Y517974D01*
X-5676Y518127D01*
G37*
G36*
X1109324Y518127D02*
X1109324Y518127D01*
X1109371Y518140D01*
X1109446Y518150D01*
X1111063Y518628D01*
X1111091Y518642D01*
X1111112Y518646D01*
X1111136Y518660D01*
X1111178Y518674D01*
X1112670Y519458D01*
X1112708Y519488D01*
X1112774Y519526D01*
X1114085Y520586D01*
X1114116Y520622D01*
X1114173Y520673D01*
X1115252Y521968D01*
X1115276Y522010D01*
X1115322Y522071D01*
X1116128Y523552D01*
X1116143Y523597D01*
X1116176Y523666D01*
X1116677Y525275D01*
X1116683Y525323D01*
X1116702Y525397D01*
X1116877Y527050D01*
X1116924Y527306D01*
X1116924Y527328D01*
X1116931Y527488D01*
X1116746Y529206D01*
X1116733Y529252D01*
X1116721Y529327D01*
X1116205Y530976D01*
X1116183Y531019D01*
X1116157Y531090D01*
X1115329Y532607D01*
X1115299Y532645D01*
X1115259Y532710D01*
X1114152Y534036D01*
X1114115Y534067D01*
X1114063Y534123D01*
X1112718Y535207D01*
X1112676Y535230D01*
X1112614Y535276D01*
X1111083Y536077D01*
X1111037Y536091D01*
X1110968Y536123D01*
X1109311Y536611D01*
X1109263Y536616D01*
X1109189Y536634D01*
X1107720Y536766D01*
X1107692Y536782D01*
X1107653Y536788D01*
X1107616Y536803D01*
X1107520Y536808D01*
X1107470Y536816D01*
X1107450Y536813D01*
X1107429Y536814D01*
X1105738Y536662D01*
X1105692Y536649D01*
X1105616Y536639D01*
X1103987Y536160D01*
X1103944Y536139D01*
X1103872Y536113D01*
X1102368Y535326D01*
X1102330Y535297D01*
X1102264Y535258D01*
X1100942Y534192D01*
X1100910Y534156D01*
X1100853Y534105D01*
X1099764Y532802D01*
X1099741Y532761D01*
X1099694Y532700D01*
X1098881Y531209D01*
X1098866Y531164D01*
X1098832Y531095D01*
X1098325Y529475D01*
X1098319Y529427D01*
X1098300Y529353D01*
X1098119Y527670D01*
X1098095Y527472D01*
X1098097Y527421D01*
X1098093Y527330D01*
X1098266Y525621D01*
X1098280Y525575D01*
X1098291Y525499D01*
X1098794Y523857D01*
X1098816Y523814D01*
X1098842Y523742D01*
X1099656Y522229D01*
X1099686Y522192D01*
X1099726Y522126D01*
X1100819Y520802D01*
X1100856Y520770D01*
X1100907Y520714D01*
X1102238Y519628D01*
X1102281Y519605D01*
X1102342Y519559D01*
X1103859Y518754D01*
X1103905Y518739D01*
X1103974Y518707D01*
X1104217Y518634D01*
X1104218Y518634D01*
X1105620Y518213D01*
X1105667Y518207D01*
X1105742Y518189D01*
X1107329Y518037D01*
X1107346Y518031D01*
X1107440Y517989D01*
X1107450Y517989D01*
X1107458Y517985D01*
X1107645Y517974D01*
X1109324Y518127D01*
G37*
G36*
X-70700Y518102D02*
X-70700Y518102D01*
X-70653Y518115D01*
X-70578Y518125D01*
X-68961Y518603D01*
X-68933Y518617D01*
X-68912Y518621D01*
X-68888Y518635D01*
X-68846Y518649D01*
X-67354Y519433D01*
X-67316Y519463D01*
X-67250Y519501D01*
X-65939Y520561D01*
X-65908Y520597D01*
X-65851Y520648D01*
X-64772Y521943D01*
X-64748Y521985D01*
X-64702Y522046D01*
X-63896Y523527D01*
X-63881Y523572D01*
X-63848Y523641D01*
X-63347Y525250D01*
X-63341Y525298D01*
X-63322Y525372D01*
X-63147Y527025D01*
X-63100Y527281D01*
X-63100Y527303D01*
X-63093Y527463D01*
X-63278Y529181D01*
X-63291Y529227D01*
X-63303Y529302D01*
X-63819Y530951D01*
X-63841Y530994D01*
X-63867Y531065D01*
X-64695Y532582D01*
X-64725Y532620D01*
X-64765Y532685D01*
X-65873Y534011D01*
X-65909Y534042D01*
X-65961Y534098D01*
X-67306Y535182D01*
X-67348Y535205D01*
X-67410Y535251D01*
X-68941Y536052D01*
X-68987Y536066D01*
X-69056Y536098D01*
X-70713Y536586D01*
X-70761Y536591D01*
X-70836Y536609D01*
X-72304Y536741D01*
X-72332Y536757D01*
X-72371Y536763D01*
X-72408Y536778D01*
X-72504Y536783D01*
X-72554Y536791D01*
X-72574Y536788D01*
X-72595Y536789D01*
X-74286Y536637D01*
X-74332Y536624D01*
X-74408Y536614D01*
X-76037Y536135D01*
X-76080Y536114D01*
X-76152Y536088D01*
X-77656Y535301D01*
X-77695Y535272D01*
X-77760Y535233D01*
X-79082Y534167D01*
X-79114Y534131D01*
X-79171Y534080D01*
X-80260Y532777D01*
X-80283Y532736D01*
X-80330Y532675D01*
X-81143Y531184D01*
X-81158Y531139D01*
X-81192Y531070D01*
X-81699Y529450D01*
X-81705Y529402D01*
X-81724Y529328D01*
X-81905Y527645D01*
X-81930Y527447D01*
X-81927Y527396D01*
X-81931Y527305D01*
X-81758Y525596D01*
X-81745Y525550D01*
X-81733Y525474D01*
X-81230Y523832D01*
X-81208Y523789D01*
X-81182Y523717D01*
X-80368Y522204D01*
X-80338Y522167D01*
X-80298Y522101D01*
X-79205Y520777D01*
X-79168Y520745D01*
X-79117Y520689D01*
X-77786Y519603D01*
X-77743Y519580D01*
X-77682Y519534D01*
X-76165Y518729D01*
X-76119Y518714D01*
X-76050Y518682D01*
X-75807Y518609D01*
X-75806Y518609D01*
X-74404Y518188D01*
X-74357Y518182D01*
X-74282Y518164D01*
X-72695Y518012D01*
X-72678Y518006D01*
X-72584Y517964D01*
X-72574Y517964D01*
X-72566Y517960D01*
X-72379Y517949D01*
X-70700Y518102D01*
G37*
G36*
X1044300Y518102D02*
X1044300Y518102D01*
X1044347Y518115D01*
X1044422Y518125D01*
X1046039Y518603D01*
X1046067Y518617D01*
X1046088Y518621D01*
X1046112Y518635D01*
X1046154Y518649D01*
X1047646Y519433D01*
X1047684Y519463D01*
X1047750Y519501D01*
X1049061Y520561D01*
X1049092Y520597D01*
X1049149Y520648D01*
X1050228Y521943D01*
X1050252Y521985D01*
X1050298Y522046D01*
X1051104Y523527D01*
X1051119Y523572D01*
X1051152Y523641D01*
X1051653Y525250D01*
X1051659Y525298D01*
X1051678Y525372D01*
X1051853Y527025D01*
X1051900Y527281D01*
X1051900Y527303D01*
X1051907Y527463D01*
X1051722Y529181D01*
X1051709Y529227D01*
X1051697Y529302D01*
X1051181Y530951D01*
X1051159Y530994D01*
X1051133Y531065D01*
X1050305Y532582D01*
X1050275Y532620D01*
X1050235Y532685D01*
X1049128Y534011D01*
X1049091Y534042D01*
X1049039Y534098D01*
X1047694Y535182D01*
X1047652Y535205D01*
X1047590Y535251D01*
X1046059Y536052D01*
X1046013Y536066D01*
X1045944Y536098D01*
X1044287Y536586D01*
X1044239Y536591D01*
X1044165Y536609D01*
X1042696Y536741D01*
X1042668Y536757D01*
X1042629Y536763D01*
X1042592Y536778D01*
X1042496Y536783D01*
X1042446Y536791D01*
X1042426Y536788D01*
X1042405Y536789D01*
X1040714Y536637D01*
X1040668Y536624D01*
X1040592Y536614D01*
X1038963Y536135D01*
X1038920Y536114D01*
X1038848Y536088D01*
X1037344Y535301D01*
X1037306Y535272D01*
X1037240Y535233D01*
X1035918Y534167D01*
X1035886Y534131D01*
X1035829Y534080D01*
X1034740Y532777D01*
X1034717Y532736D01*
X1034670Y532675D01*
X1033857Y531184D01*
X1033842Y531139D01*
X1033808Y531070D01*
X1033301Y529450D01*
X1033295Y529402D01*
X1033276Y529328D01*
X1033095Y527645D01*
X1033071Y527447D01*
X1033073Y527396D01*
X1033069Y527305D01*
X1033242Y525596D01*
X1033256Y525550D01*
X1033267Y525474D01*
X1033770Y523832D01*
X1033792Y523789D01*
X1033818Y523717D01*
X1034632Y522204D01*
X1034662Y522167D01*
X1034702Y522101D01*
X1035795Y520777D01*
X1035832Y520745D01*
X1035883Y520689D01*
X1037214Y519603D01*
X1037257Y519580D01*
X1037318Y519534D01*
X1038835Y518729D01*
X1038881Y518714D01*
X1038950Y518682D01*
X1039193Y518609D01*
X1039194Y518609D01*
X1040596Y518188D01*
X1040643Y518182D01*
X1040718Y518164D01*
X1042305Y518012D01*
X1042322Y518006D01*
X1042416Y517964D01*
X1042426Y517964D01*
X1042434Y517960D01*
X1042621Y517949D01*
X1044300Y518102D01*
G37*
G36*
X1044249Y413390D02*
X1044249Y413390D01*
X1044296Y413403D01*
X1044371Y413413D01*
X1045988Y413891D01*
X1046016Y413905D01*
X1046037Y413909D01*
X1046061Y413923D01*
X1046103Y413937D01*
X1047595Y414721D01*
X1047633Y414751D01*
X1047699Y414789D01*
X1049010Y415849D01*
X1049041Y415885D01*
X1049098Y415936D01*
X1050177Y417231D01*
X1050201Y417273D01*
X1050247Y417334D01*
X1051053Y418815D01*
X1051068Y418860D01*
X1051101Y418929D01*
X1051602Y420538D01*
X1051608Y420586D01*
X1051627Y420660D01*
X1051802Y422313D01*
X1051849Y422569D01*
X1051849Y422591D01*
X1051856Y422751D01*
X1051671Y424469D01*
X1051658Y424515D01*
X1051646Y424590D01*
X1051130Y426239D01*
X1051108Y426282D01*
X1051082Y426353D01*
X1050254Y427870D01*
X1050224Y427908D01*
X1050184Y427973D01*
X1049077Y429299D01*
X1049040Y429330D01*
X1048988Y429386D01*
X1047643Y430470D01*
X1047601Y430493D01*
X1047539Y430539D01*
X1046008Y431340D01*
X1045962Y431354D01*
X1045893Y431386D01*
X1044236Y431874D01*
X1044188Y431879D01*
X1044114Y431897D01*
X1042645Y432029D01*
X1042617Y432045D01*
X1042578Y432051D01*
X1042541Y432066D01*
X1042445Y432071D01*
X1042395Y432079D01*
X1042375Y432076D01*
X1042354Y432077D01*
X1040663Y431925D01*
X1040617Y431912D01*
X1040541Y431902D01*
X1038912Y431423D01*
X1038869Y431402D01*
X1038797Y431376D01*
X1037293Y430589D01*
X1037255Y430560D01*
X1037189Y430521D01*
X1035867Y429455D01*
X1035835Y429419D01*
X1035778Y429368D01*
X1034689Y428065D01*
X1034666Y428024D01*
X1034619Y427963D01*
X1033806Y426472D01*
X1033791Y426427D01*
X1033757Y426358D01*
X1033250Y424738D01*
X1033244Y424690D01*
X1033225Y424616D01*
X1033044Y422933D01*
X1033020Y422735D01*
X1033022Y422684D01*
X1033018Y422593D01*
X1033191Y420884D01*
X1033205Y420838D01*
X1033216Y420762D01*
X1033719Y419120D01*
X1033741Y419077D01*
X1033767Y419005D01*
X1034581Y417492D01*
X1034611Y417455D01*
X1034651Y417389D01*
X1035744Y416065D01*
X1035781Y416033D01*
X1035832Y415977D01*
X1037163Y414891D01*
X1037206Y414868D01*
X1037267Y414822D01*
X1038784Y414017D01*
X1038830Y414002D01*
X1038899Y413970D01*
X1039142Y413897D01*
X1039143Y413897D01*
X1040545Y413476D01*
X1040592Y413470D01*
X1040667Y413452D01*
X1042254Y413300D01*
X1042271Y413294D01*
X1042365Y413252D01*
X1042375Y413252D01*
X1042383Y413248D01*
X1042570Y413237D01*
X1044249Y413390D01*
G37*
G36*
X-70751Y413390D02*
X-70751Y413390D01*
X-70704Y413403D01*
X-70629Y413413D01*
X-69012Y413891D01*
X-68984Y413905D01*
X-68963Y413909D01*
X-68939Y413923D01*
X-68897Y413937D01*
X-67405Y414721D01*
X-67367Y414751D01*
X-67301Y414789D01*
X-65990Y415849D01*
X-65959Y415885D01*
X-65902Y415936D01*
X-64823Y417231D01*
X-64799Y417273D01*
X-64753Y417334D01*
X-63947Y418815D01*
X-63932Y418860D01*
X-63899Y418929D01*
X-63398Y420538D01*
X-63392Y420586D01*
X-63373Y420660D01*
X-63198Y422313D01*
X-63151Y422569D01*
X-63151Y422591D01*
X-63144Y422751D01*
X-63329Y424469D01*
X-63342Y424515D01*
X-63354Y424590D01*
X-63870Y426239D01*
X-63892Y426282D01*
X-63918Y426353D01*
X-64746Y427870D01*
X-64776Y427908D01*
X-64816Y427973D01*
X-65924Y429299D01*
X-65960Y429330D01*
X-66012Y429386D01*
X-67357Y430470D01*
X-67399Y430493D01*
X-67461Y430539D01*
X-68992Y431340D01*
X-69038Y431354D01*
X-69107Y431386D01*
X-70764Y431874D01*
X-70812Y431879D01*
X-70887Y431897D01*
X-72355Y432029D01*
X-72383Y432045D01*
X-72422Y432051D01*
X-72459Y432066D01*
X-72555Y432071D01*
X-72605Y432079D01*
X-72625Y432076D01*
X-72646Y432077D01*
X-74337Y431925D01*
X-74383Y431912D01*
X-74459Y431902D01*
X-76088Y431423D01*
X-76131Y431402D01*
X-76203Y431376D01*
X-77707Y430589D01*
X-77746Y430560D01*
X-77811Y430521D01*
X-79133Y429455D01*
X-79165Y429419D01*
X-79222Y429368D01*
X-80311Y428065D01*
X-80334Y428024D01*
X-80381Y427963D01*
X-81194Y426472D01*
X-81209Y426427D01*
X-81243Y426358D01*
X-81750Y424738D01*
X-81756Y424690D01*
X-81775Y424616D01*
X-81956Y422933D01*
X-81981Y422735D01*
X-81978Y422684D01*
X-81982Y422593D01*
X-81809Y420884D01*
X-81796Y420838D01*
X-81784Y420762D01*
X-81281Y419120D01*
X-81259Y419077D01*
X-81233Y419005D01*
X-80419Y417492D01*
X-80389Y417455D01*
X-80349Y417389D01*
X-79256Y416065D01*
X-79219Y416033D01*
X-79168Y415977D01*
X-77837Y414891D01*
X-77794Y414868D01*
X-77733Y414822D01*
X-76216Y414017D01*
X-76170Y414002D01*
X-76101Y413970D01*
X-75858Y413897D01*
X-75857Y413897D01*
X-74455Y413476D01*
X-74408Y413470D01*
X-74333Y413452D01*
X-72746Y413300D01*
X-72729Y413294D01*
X-72635Y413252D01*
X-72625Y413252D01*
X-72617Y413248D01*
X-72430Y413237D01*
X-70751Y413390D01*
G37*
G36*
X1109324Y413365D02*
X1109324Y413365D01*
X1109371Y413378D01*
X1109446Y413388D01*
X1111063Y413866D01*
X1111091Y413880D01*
X1111112Y413884D01*
X1111136Y413898D01*
X1111178Y413912D01*
X1112670Y414696D01*
X1112708Y414726D01*
X1112774Y414764D01*
X1114085Y415824D01*
X1114116Y415860D01*
X1114173Y415911D01*
X1115252Y417206D01*
X1115276Y417248D01*
X1115322Y417309D01*
X1116128Y418790D01*
X1116143Y418835D01*
X1116176Y418904D01*
X1116677Y420513D01*
X1116683Y420561D01*
X1116702Y420635D01*
X1116877Y422288D01*
X1116924Y422544D01*
X1116924Y422566D01*
X1116931Y422726D01*
X1116746Y424444D01*
X1116733Y424490D01*
X1116721Y424565D01*
X1116205Y426214D01*
X1116183Y426257D01*
X1116157Y426328D01*
X1115329Y427845D01*
X1115299Y427883D01*
X1115259Y427948D01*
X1114152Y429274D01*
X1114115Y429305D01*
X1114063Y429361D01*
X1112718Y430445D01*
X1112676Y430468D01*
X1112614Y430514D01*
X1111083Y431315D01*
X1111037Y431329D01*
X1110968Y431361D01*
X1109311Y431849D01*
X1109263Y431854D01*
X1109189Y431872D01*
X1107720Y432004D01*
X1107692Y432020D01*
X1107653Y432026D01*
X1107616Y432041D01*
X1107520Y432046D01*
X1107470Y432054D01*
X1107450Y432051D01*
X1107429Y432052D01*
X1105738Y431900D01*
X1105692Y431887D01*
X1105616Y431877D01*
X1103987Y431398D01*
X1103944Y431377D01*
X1103872Y431351D01*
X1102368Y430564D01*
X1102330Y430535D01*
X1102264Y430496D01*
X1100942Y429430D01*
X1100910Y429394D01*
X1100853Y429343D01*
X1099764Y428040D01*
X1099741Y427999D01*
X1099694Y427938D01*
X1098881Y426447D01*
X1098866Y426402D01*
X1098832Y426333D01*
X1098325Y424713D01*
X1098319Y424665D01*
X1098300Y424591D01*
X1098119Y422908D01*
X1098095Y422710D01*
X1098097Y422659D01*
X1098093Y422568D01*
X1098266Y420859D01*
X1098280Y420813D01*
X1098291Y420737D01*
X1098794Y419095D01*
X1098816Y419052D01*
X1098842Y418980D01*
X1099656Y417467D01*
X1099686Y417430D01*
X1099726Y417364D01*
X1100819Y416040D01*
X1100856Y416008D01*
X1100907Y415952D01*
X1102238Y414866D01*
X1102281Y414843D01*
X1102342Y414797D01*
X1103859Y413992D01*
X1103905Y413977D01*
X1103974Y413945D01*
X1104217Y413872D01*
X1104218Y413872D01*
X1105620Y413451D01*
X1105667Y413445D01*
X1105742Y413427D01*
X1107329Y413275D01*
X1107346Y413269D01*
X1107440Y413227D01*
X1107450Y413227D01*
X1107458Y413223D01*
X1107645Y413212D01*
X1109324Y413365D01*
G37*
G36*
X-5676Y413365D02*
X-5676Y413365D01*
X-5629Y413378D01*
X-5554Y413388D01*
X-3937Y413866D01*
X-3909Y413880D01*
X-3888Y413884D01*
X-3864Y413898D01*
X-3822Y413912D01*
X-2330Y414696D01*
X-2292Y414726D01*
X-2226Y414764D01*
X-915Y415824D01*
X-884Y415860D01*
X-827Y415911D01*
X252Y417206D01*
X276Y417248D01*
X322Y417309D01*
X1128Y418790D01*
X1143Y418835D01*
X1176Y418904D01*
X1677Y420513D01*
X1683Y420561D01*
X1702Y420635D01*
X1877Y422288D01*
X1924Y422544D01*
X1924Y422566D01*
X1931Y422726D01*
X1746Y424444D01*
X1733Y424490D01*
X1721Y424565D01*
X1205Y426214D01*
X1183Y426257D01*
X1157Y426328D01*
X329Y427845D01*
X299Y427883D01*
X259Y427948D01*
X-849Y429274D01*
X-885Y429305D01*
X-937Y429361D01*
X-2282Y430445D01*
X-2324Y430468D01*
X-2386Y430514D01*
X-3917Y431315D01*
X-3963Y431329D01*
X-4032Y431361D01*
X-5689Y431849D01*
X-5737Y431854D01*
X-5812Y431872D01*
X-7280Y432004D01*
X-7308Y432020D01*
X-7347Y432026D01*
X-7384Y432041D01*
X-7480Y432046D01*
X-7530Y432054D01*
X-7550Y432051D01*
X-7571Y432052D01*
X-9262Y431900D01*
X-9308Y431887D01*
X-9384Y431877D01*
X-11013Y431398D01*
X-11056Y431377D01*
X-11128Y431351D01*
X-12632Y430564D01*
X-12671Y430535D01*
X-12736Y430496D01*
X-14058Y429430D01*
X-14090Y429394D01*
X-14147Y429343D01*
X-15236Y428040D01*
X-15259Y427999D01*
X-15306Y427938D01*
X-16119Y426447D01*
X-16134Y426402D01*
X-16168Y426333D01*
X-16675Y424713D01*
X-16681Y424665D01*
X-16700Y424591D01*
X-16881Y422908D01*
X-16906Y422710D01*
X-16903Y422659D01*
X-16907Y422568D01*
X-16734Y420859D01*
X-16721Y420813D01*
X-16709Y420737D01*
X-16206Y419095D01*
X-16184Y419052D01*
X-16158Y418980D01*
X-15344Y417467D01*
X-15314Y417430D01*
X-15274Y417364D01*
X-14181Y416040D01*
X-14144Y416008D01*
X-14093Y415952D01*
X-12762Y414866D01*
X-12719Y414843D01*
X-12658Y414797D01*
X-11141Y413992D01*
X-11095Y413977D01*
X-11026Y413945D01*
X-10783Y413872D01*
X-10782Y413872D01*
X-9380Y413451D01*
X-9333Y413445D01*
X-9258Y413427D01*
X-7671Y413275D01*
X-7654Y413269D01*
X-7560Y413227D01*
X-7550Y413227D01*
X-7542Y413223D01*
X-7355Y413212D01*
X-5676Y413365D01*
G37*
G36*
X1109324Y368127D02*
X1109324Y368127D01*
X1109371Y368140D01*
X1109446Y368150D01*
X1111063Y368628D01*
X1111091Y368642D01*
X1111112Y368646D01*
X1111136Y368660D01*
X1111178Y368674D01*
X1112670Y369458D01*
X1112708Y369488D01*
X1112774Y369526D01*
X1114085Y370586D01*
X1114116Y370622D01*
X1114173Y370673D01*
X1115252Y371968D01*
X1115276Y372010D01*
X1115322Y372071D01*
X1116128Y373552D01*
X1116143Y373597D01*
X1116176Y373666D01*
X1116677Y375275D01*
X1116683Y375323D01*
X1116702Y375397D01*
X1116877Y377050D01*
X1116924Y377306D01*
X1116924Y377328D01*
X1116931Y377488D01*
X1116746Y379206D01*
X1116733Y379252D01*
X1116721Y379327D01*
X1116205Y380976D01*
X1116183Y381019D01*
X1116157Y381090D01*
X1115329Y382607D01*
X1115299Y382645D01*
X1115259Y382710D01*
X1114152Y384036D01*
X1114115Y384067D01*
X1114063Y384123D01*
X1112718Y385207D01*
X1112676Y385230D01*
X1112614Y385276D01*
X1111083Y386077D01*
X1111037Y386091D01*
X1110968Y386123D01*
X1109311Y386611D01*
X1109263Y386616D01*
X1109189Y386634D01*
X1107720Y386766D01*
X1107692Y386782D01*
X1107653Y386788D01*
X1107616Y386803D01*
X1107520Y386808D01*
X1107470Y386816D01*
X1107450Y386813D01*
X1107429Y386814D01*
X1105738Y386662D01*
X1105692Y386649D01*
X1105616Y386639D01*
X1103987Y386160D01*
X1103944Y386139D01*
X1103872Y386113D01*
X1102368Y385326D01*
X1102330Y385297D01*
X1102264Y385258D01*
X1100942Y384192D01*
X1100910Y384156D01*
X1100853Y384105D01*
X1099764Y382802D01*
X1099741Y382761D01*
X1099694Y382700D01*
X1098881Y381209D01*
X1098866Y381164D01*
X1098832Y381095D01*
X1098325Y379475D01*
X1098319Y379427D01*
X1098300Y379353D01*
X1098119Y377670D01*
X1098095Y377472D01*
X1098097Y377421D01*
X1098093Y377330D01*
X1098266Y375621D01*
X1098280Y375575D01*
X1098291Y375499D01*
X1098794Y373857D01*
X1098816Y373814D01*
X1098842Y373742D01*
X1099656Y372229D01*
X1099686Y372192D01*
X1099726Y372126D01*
X1100819Y370802D01*
X1100856Y370770D01*
X1100907Y370714D01*
X1102238Y369628D01*
X1102281Y369605D01*
X1102342Y369559D01*
X1103859Y368754D01*
X1103905Y368739D01*
X1103974Y368707D01*
X1104217Y368634D01*
X1104218Y368634D01*
X1105620Y368213D01*
X1105667Y368207D01*
X1105742Y368189D01*
X1107329Y368037D01*
X1107346Y368031D01*
X1107440Y367989D01*
X1107450Y367989D01*
X1107458Y367985D01*
X1107645Y367974D01*
X1109324Y368127D01*
G37*
G36*
X-5676Y368127D02*
X-5676Y368127D01*
X-5629Y368140D01*
X-5554Y368150D01*
X-3937Y368628D01*
X-3909Y368642D01*
X-3888Y368646D01*
X-3864Y368660D01*
X-3822Y368674D01*
X-2330Y369458D01*
X-2292Y369488D01*
X-2226Y369526D01*
X-915Y370586D01*
X-884Y370622D01*
X-827Y370673D01*
X252Y371968D01*
X276Y372010D01*
X322Y372071D01*
X1128Y373552D01*
X1143Y373597D01*
X1176Y373666D01*
X1677Y375275D01*
X1683Y375323D01*
X1702Y375397D01*
X1877Y377050D01*
X1924Y377306D01*
X1924Y377328D01*
X1931Y377488D01*
X1746Y379206D01*
X1733Y379252D01*
X1721Y379327D01*
X1205Y380976D01*
X1183Y381019D01*
X1157Y381090D01*
X329Y382607D01*
X299Y382645D01*
X259Y382710D01*
X-849Y384036D01*
X-885Y384067D01*
X-937Y384123D01*
X-2282Y385207D01*
X-2324Y385230D01*
X-2386Y385276D01*
X-3917Y386077D01*
X-3963Y386091D01*
X-4032Y386123D01*
X-5689Y386611D01*
X-5737Y386616D01*
X-5812Y386634D01*
X-7280Y386766D01*
X-7308Y386782D01*
X-7347Y386788D01*
X-7384Y386803D01*
X-7480Y386808D01*
X-7530Y386816D01*
X-7550Y386813D01*
X-7571Y386814D01*
X-9262Y386662D01*
X-9308Y386649D01*
X-9384Y386639D01*
X-11013Y386160D01*
X-11056Y386139D01*
X-11128Y386113D01*
X-12632Y385326D01*
X-12671Y385297D01*
X-12736Y385258D01*
X-14058Y384192D01*
X-14090Y384156D01*
X-14147Y384105D01*
X-15236Y382802D01*
X-15259Y382761D01*
X-15306Y382700D01*
X-16119Y381209D01*
X-16134Y381164D01*
X-16168Y381095D01*
X-16675Y379475D01*
X-16681Y379427D01*
X-16700Y379353D01*
X-16881Y377670D01*
X-16906Y377472D01*
X-16903Y377421D01*
X-16907Y377330D01*
X-16734Y375621D01*
X-16721Y375575D01*
X-16709Y375499D01*
X-16206Y373857D01*
X-16184Y373814D01*
X-16158Y373742D01*
X-15344Y372229D01*
X-15314Y372192D01*
X-15274Y372126D01*
X-14181Y370802D01*
X-14144Y370770D01*
X-14093Y370714D01*
X-12762Y369628D01*
X-12719Y369605D01*
X-12658Y369559D01*
X-11141Y368754D01*
X-11095Y368739D01*
X-11026Y368707D01*
X-10783Y368634D01*
X-10782Y368634D01*
X-9380Y368213D01*
X-9333Y368207D01*
X-9258Y368189D01*
X-7671Y368037D01*
X-7654Y368031D01*
X-7560Y367989D01*
X-7550Y367989D01*
X-7542Y367985D01*
X-7355Y367974D01*
X-5676Y368127D01*
G37*
G36*
X1044300Y368102D02*
X1044300Y368102D01*
X1044347Y368115D01*
X1044422Y368125D01*
X1046039Y368603D01*
X1046067Y368617D01*
X1046088Y368621D01*
X1046112Y368635D01*
X1046154Y368649D01*
X1047646Y369433D01*
X1047684Y369463D01*
X1047750Y369501D01*
X1049061Y370561D01*
X1049092Y370597D01*
X1049149Y370648D01*
X1050228Y371943D01*
X1050252Y371985D01*
X1050298Y372046D01*
X1051104Y373527D01*
X1051119Y373572D01*
X1051152Y373641D01*
X1051653Y375250D01*
X1051659Y375298D01*
X1051678Y375372D01*
X1051853Y377025D01*
X1051900Y377281D01*
X1051900Y377303D01*
X1051907Y377463D01*
X1051722Y379181D01*
X1051709Y379227D01*
X1051697Y379302D01*
X1051181Y380951D01*
X1051159Y380994D01*
X1051133Y381065D01*
X1050305Y382582D01*
X1050275Y382620D01*
X1050235Y382685D01*
X1049128Y384011D01*
X1049091Y384042D01*
X1049039Y384098D01*
X1047694Y385182D01*
X1047652Y385205D01*
X1047590Y385251D01*
X1046059Y386052D01*
X1046013Y386066D01*
X1045944Y386098D01*
X1044287Y386586D01*
X1044239Y386591D01*
X1044165Y386609D01*
X1042696Y386741D01*
X1042668Y386757D01*
X1042629Y386763D01*
X1042592Y386778D01*
X1042496Y386783D01*
X1042446Y386791D01*
X1042426Y386788D01*
X1042405Y386789D01*
X1040714Y386637D01*
X1040668Y386624D01*
X1040592Y386614D01*
X1038963Y386135D01*
X1038920Y386114D01*
X1038848Y386088D01*
X1037344Y385301D01*
X1037306Y385272D01*
X1037240Y385233D01*
X1035918Y384167D01*
X1035886Y384131D01*
X1035829Y384080D01*
X1034740Y382777D01*
X1034717Y382736D01*
X1034670Y382675D01*
X1033857Y381184D01*
X1033842Y381139D01*
X1033808Y381070D01*
X1033301Y379450D01*
X1033295Y379402D01*
X1033276Y379328D01*
X1033095Y377645D01*
X1033071Y377447D01*
X1033073Y377396D01*
X1033069Y377305D01*
X1033242Y375596D01*
X1033256Y375550D01*
X1033267Y375474D01*
X1033770Y373832D01*
X1033792Y373789D01*
X1033818Y373717D01*
X1034632Y372204D01*
X1034662Y372167D01*
X1034702Y372101D01*
X1035795Y370777D01*
X1035832Y370745D01*
X1035883Y370689D01*
X1037214Y369603D01*
X1037257Y369580D01*
X1037318Y369534D01*
X1038835Y368729D01*
X1038881Y368714D01*
X1038950Y368682D01*
X1039193Y368609D01*
X1039194Y368609D01*
X1040596Y368188D01*
X1040643Y368182D01*
X1040718Y368164D01*
X1042305Y368012D01*
X1042322Y368006D01*
X1042416Y367964D01*
X1042426Y367964D01*
X1042434Y367960D01*
X1042621Y367949D01*
X1044300Y368102D01*
G37*
G36*
X-70700Y368102D02*
X-70700Y368102D01*
X-70653Y368115D01*
X-70578Y368125D01*
X-68961Y368603D01*
X-68933Y368617D01*
X-68912Y368621D01*
X-68888Y368635D01*
X-68846Y368649D01*
X-67354Y369433D01*
X-67316Y369463D01*
X-67250Y369501D01*
X-65939Y370561D01*
X-65908Y370597D01*
X-65851Y370648D01*
X-64772Y371943D01*
X-64748Y371985D01*
X-64702Y372046D01*
X-63896Y373527D01*
X-63881Y373572D01*
X-63848Y373641D01*
X-63347Y375250D01*
X-63341Y375298D01*
X-63322Y375372D01*
X-63147Y377025D01*
X-63100Y377281D01*
X-63100Y377303D01*
X-63093Y377463D01*
X-63278Y379181D01*
X-63291Y379227D01*
X-63303Y379302D01*
X-63819Y380951D01*
X-63841Y380994D01*
X-63867Y381065D01*
X-64695Y382582D01*
X-64725Y382620D01*
X-64765Y382685D01*
X-65873Y384011D01*
X-65909Y384042D01*
X-65961Y384098D01*
X-67306Y385182D01*
X-67348Y385205D01*
X-67410Y385251D01*
X-68941Y386052D01*
X-68987Y386066D01*
X-69056Y386098D01*
X-70713Y386586D01*
X-70761Y386591D01*
X-70836Y386609D01*
X-72304Y386741D01*
X-72332Y386757D01*
X-72371Y386763D01*
X-72408Y386778D01*
X-72504Y386783D01*
X-72554Y386791D01*
X-72574Y386788D01*
X-72595Y386789D01*
X-74286Y386637D01*
X-74332Y386624D01*
X-74408Y386614D01*
X-76037Y386135D01*
X-76080Y386114D01*
X-76152Y386088D01*
X-77656Y385301D01*
X-77695Y385272D01*
X-77760Y385233D01*
X-79082Y384167D01*
X-79114Y384131D01*
X-79171Y384080D01*
X-80260Y382777D01*
X-80283Y382736D01*
X-80330Y382675D01*
X-81143Y381184D01*
X-81158Y381139D01*
X-81192Y381070D01*
X-81699Y379450D01*
X-81705Y379402D01*
X-81724Y379328D01*
X-81905Y377645D01*
X-81930Y377447D01*
X-81927Y377396D01*
X-81931Y377305D01*
X-81758Y375596D01*
X-81745Y375550D01*
X-81733Y375474D01*
X-81230Y373832D01*
X-81208Y373789D01*
X-81182Y373717D01*
X-80368Y372204D01*
X-80338Y372167D01*
X-80298Y372101D01*
X-79205Y370777D01*
X-79168Y370745D01*
X-79117Y370689D01*
X-77786Y369603D01*
X-77743Y369580D01*
X-77682Y369534D01*
X-76165Y368729D01*
X-76119Y368714D01*
X-76050Y368682D01*
X-75807Y368609D01*
X-75806Y368609D01*
X-74404Y368188D01*
X-74357Y368182D01*
X-74282Y368164D01*
X-72695Y368012D01*
X-72678Y368006D01*
X-72584Y367964D01*
X-72574Y367964D01*
X-72566Y367960D01*
X-72379Y367949D01*
X-70700Y368102D01*
G37*
G36*
X-70751Y263390D02*
X-70751Y263390D01*
X-70704Y263403D01*
X-70629Y263413D01*
X-69012Y263891D01*
X-68984Y263905D01*
X-68963Y263909D01*
X-68939Y263923D01*
X-68897Y263937D01*
X-67405Y264721D01*
X-67367Y264751D01*
X-67301Y264789D01*
X-65990Y265849D01*
X-65959Y265885D01*
X-65902Y265936D01*
X-64823Y267231D01*
X-64799Y267273D01*
X-64753Y267334D01*
X-63947Y268815D01*
X-63932Y268860D01*
X-63899Y268929D01*
X-63398Y270538D01*
X-63392Y270586D01*
X-63373Y270660D01*
X-63198Y272313D01*
X-63151Y272569D01*
X-63151Y272591D01*
X-63144Y272751D01*
X-63329Y274469D01*
X-63342Y274515D01*
X-63354Y274590D01*
X-63870Y276239D01*
X-63892Y276282D01*
X-63918Y276353D01*
X-64746Y277870D01*
X-64776Y277908D01*
X-64816Y277973D01*
X-65924Y279299D01*
X-65960Y279330D01*
X-66012Y279386D01*
X-67357Y280470D01*
X-67399Y280493D01*
X-67461Y280539D01*
X-68992Y281340D01*
X-69038Y281354D01*
X-69107Y281386D01*
X-70764Y281874D01*
X-70812Y281879D01*
X-70887Y281897D01*
X-72355Y282029D01*
X-72383Y282045D01*
X-72422Y282051D01*
X-72459Y282066D01*
X-72555Y282071D01*
X-72605Y282079D01*
X-72625Y282076D01*
X-72646Y282077D01*
X-74337Y281925D01*
X-74383Y281912D01*
X-74459Y281902D01*
X-76088Y281423D01*
X-76131Y281402D01*
X-76203Y281376D01*
X-77707Y280589D01*
X-77746Y280560D01*
X-77811Y280521D01*
X-79133Y279455D01*
X-79165Y279419D01*
X-79222Y279368D01*
X-80311Y278065D01*
X-80334Y278024D01*
X-80381Y277963D01*
X-81194Y276472D01*
X-81209Y276427D01*
X-81243Y276358D01*
X-81750Y274738D01*
X-81756Y274690D01*
X-81775Y274616D01*
X-81956Y272933D01*
X-81981Y272735D01*
X-81978Y272684D01*
X-81982Y272593D01*
X-81809Y270884D01*
X-81796Y270838D01*
X-81784Y270762D01*
X-81281Y269120D01*
X-81259Y269077D01*
X-81233Y269005D01*
X-80419Y267492D01*
X-80389Y267455D01*
X-80349Y267389D01*
X-79256Y266065D01*
X-79219Y266033D01*
X-79168Y265977D01*
X-77837Y264891D01*
X-77794Y264868D01*
X-77733Y264822D01*
X-76216Y264017D01*
X-76170Y264002D01*
X-76101Y263970D01*
X-75858Y263897D01*
X-75857Y263897D01*
X-74455Y263476D01*
X-74408Y263470D01*
X-74333Y263452D01*
X-72746Y263300D01*
X-72729Y263294D01*
X-72635Y263252D01*
X-72625Y263252D01*
X-72617Y263248D01*
X-72430Y263237D01*
X-70751Y263390D01*
G37*
G36*
X1044249Y263390D02*
X1044249Y263390D01*
X1044296Y263403D01*
X1044371Y263413D01*
X1045988Y263891D01*
X1046016Y263905D01*
X1046037Y263909D01*
X1046061Y263923D01*
X1046103Y263937D01*
X1047595Y264721D01*
X1047633Y264751D01*
X1047699Y264789D01*
X1049010Y265849D01*
X1049041Y265885D01*
X1049098Y265936D01*
X1050177Y267231D01*
X1050201Y267273D01*
X1050247Y267334D01*
X1051053Y268815D01*
X1051068Y268860D01*
X1051101Y268929D01*
X1051602Y270538D01*
X1051608Y270586D01*
X1051627Y270660D01*
X1051802Y272313D01*
X1051849Y272569D01*
X1051849Y272591D01*
X1051856Y272751D01*
X1051671Y274469D01*
X1051658Y274515D01*
X1051646Y274590D01*
X1051130Y276239D01*
X1051108Y276282D01*
X1051082Y276353D01*
X1050254Y277870D01*
X1050224Y277908D01*
X1050184Y277973D01*
X1049077Y279299D01*
X1049040Y279330D01*
X1048988Y279386D01*
X1047643Y280470D01*
X1047601Y280493D01*
X1047539Y280539D01*
X1046008Y281340D01*
X1045962Y281354D01*
X1045893Y281386D01*
X1044236Y281874D01*
X1044188Y281879D01*
X1044114Y281897D01*
X1042645Y282029D01*
X1042617Y282045D01*
X1042578Y282051D01*
X1042541Y282066D01*
X1042445Y282071D01*
X1042395Y282079D01*
X1042375Y282076D01*
X1042354Y282077D01*
X1040663Y281925D01*
X1040617Y281912D01*
X1040541Y281902D01*
X1038912Y281423D01*
X1038869Y281402D01*
X1038797Y281376D01*
X1037293Y280589D01*
X1037255Y280560D01*
X1037189Y280521D01*
X1035867Y279455D01*
X1035835Y279419D01*
X1035778Y279368D01*
X1034689Y278065D01*
X1034666Y278024D01*
X1034619Y277963D01*
X1033806Y276472D01*
X1033791Y276427D01*
X1033757Y276358D01*
X1033250Y274738D01*
X1033244Y274690D01*
X1033225Y274616D01*
X1033044Y272933D01*
X1033020Y272735D01*
X1033022Y272684D01*
X1033018Y272593D01*
X1033191Y270884D01*
X1033205Y270838D01*
X1033216Y270762D01*
X1033719Y269120D01*
X1033741Y269077D01*
X1033767Y269005D01*
X1034581Y267492D01*
X1034611Y267455D01*
X1034651Y267389D01*
X1035744Y266065D01*
X1035781Y266033D01*
X1035832Y265977D01*
X1037163Y264891D01*
X1037206Y264868D01*
X1037267Y264822D01*
X1038784Y264017D01*
X1038830Y264002D01*
X1038899Y263970D01*
X1039142Y263897D01*
X1039143Y263897D01*
X1040545Y263476D01*
X1040592Y263470D01*
X1040667Y263452D01*
X1042254Y263300D01*
X1042271Y263294D01*
X1042365Y263252D01*
X1042375Y263252D01*
X1042383Y263248D01*
X1042570Y263237D01*
X1044249Y263390D01*
G37*
G36*
X-5676Y263365D02*
X-5676Y263365D01*
X-5629Y263378D01*
X-5554Y263388D01*
X-3937Y263866D01*
X-3909Y263880D01*
X-3888Y263884D01*
X-3864Y263898D01*
X-3822Y263912D01*
X-2330Y264696D01*
X-2292Y264726D01*
X-2226Y264764D01*
X-915Y265824D01*
X-884Y265860D01*
X-827Y265911D01*
X252Y267206D01*
X276Y267248D01*
X322Y267309D01*
X1128Y268790D01*
X1143Y268835D01*
X1176Y268904D01*
X1677Y270513D01*
X1683Y270561D01*
X1702Y270635D01*
X1877Y272288D01*
X1924Y272544D01*
X1924Y272566D01*
X1931Y272726D01*
X1746Y274444D01*
X1733Y274490D01*
X1721Y274565D01*
X1205Y276214D01*
X1183Y276257D01*
X1157Y276328D01*
X329Y277845D01*
X299Y277883D01*
X259Y277948D01*
X-849Y279274D01*
X-885Y279305D01*
X-937Y279361D01*
X-2282Y280445D01*
X-2324Y280468D01*
X-2386Y280514D01*
X-3917Y281315D01*
X-3963Y281329D01*
X-4032Y281361D01*
X-5689Y281849D01*
X-5737Y281854D01*
X-5812Y281872D01*
X-7280Y282004D01*
X-7308Y282020D01*
X-7347Y282026D01*
X-7384Y282041D01*
X-7480Y282046D01*
X-7530Y282054D01*
X-7550Y282051D01*
X-7571Y282052D01*
X-9262Y281900D01*
X-9308Y281887D01*
X-9384Y281877D01*
X-11013Y281398D01*
X-11056Y281377D01*
X-11128Y281351D01*
X-12632Y280564D01*
X-12671Y280535D01*
X-12736Y280496D01*
X-14058Y279430D01*
X-14090Y279394D01*
X-14147Y279343D01*
X-15236Y278040D01*
X-15259Y277999D01*
X-15306Y277938D01*
X-16119Y276447D01*
X-16134Y276402D01*
X-16168Y276333D01*
X-16675Y274713D01*
X-16681Y274665D01*
X-16700Y274591D01*
X-16881Y272908D01*
X-16906Y272710D01*
X-16903Y272659D01*
X-16907Y272568D01*
X-16734Y270859D01*
X-16721Y270813D01*
X-16709Y270737D01*
X-16206Y269095D01*
X-16184Y269052D01*
X-16158Y268980D01*
X-15344Y267467D01*
X-15314Y267430D01*
X-15274Y267364D01*
X-14181Y266040D01*
X-14144Y266008D01*
X-14093Y265952D01*
X-12762Y264866D01*
X-12719Y264843D01*
X-12658Y264797D01*
X-11141Y263992D01*
X-11095Y263977D01*
X-11026Y263945D01*
X-10783Y263872D01*
X-10782Y263872D01*
X-9380Y263451D01*
X-9333Y263445D01*
X-9258Y263427D01*
X-7671Y263275D01*
X-7654Y263269D01*
X-7560Y263227D01*
X-7550Y263227D01*
X-7542Y263223D01*
X-7355Y263212D01*
X-5676Y263365D01*
G37*
G36*
X1109324Y263365D02*
X1109324Y263365D01*
X1109371Y263378D01*
X1109446Y263388D01*
X1111063Y263866D01*
X1111091Y263880D01*
X1111112Y263884D01*
X1111136Y263898D01*
X1111178Y263912D01*
X1112670Y264696D01*
X1112708Y264726D01*
X1112774Y264764D01*
X1114085Y265824D01*
X1114116Y265860D01*
X1114173Y265911D01*
X1115252Y267206D01*
X1115276Y267248D01*
X1115322Y267309D01*
X1116128Y268790D01*
X1116143Y268835D01*
X1116176Y268904D01*
X1116677Y270513D01*
X1116683Y270561D01*
X1116702Y270635D01*
X1116877Y272288D01*
X1116924Y272544D01*
X1116924Y272566D01*
X1116931Y272726D01*
X1116746Y274444D01*
X1116733Y274490D01*
X1116721Y274565D01*
X1116205Y276214D01*
X1116183Y276257D01*
X1116157Y276328D01*
X1115329Y277845D01*
X1115299Y277883D01*
X1115259Y277948D01*
X1114152Y279274D01*
X1114115Y279305D01*
X1114063Y279361D01*
X1112718Y280445D01*
X1112676Y280468D01*
X1112614Y280514D01*
X1111083Y281315D01*
X1111037Y281329D01*
X1110968Y281361D01*
X1109311Y281849D01*
X1109263Y281854D01*
X1109189Y281872D01*
X1107720Y282004D01*
X1107692Y282020D01*
X1107653Y282026D01*
X1107616Y282041D01*
X1107520Y282046D01*
X1107470Y282054D01*
X1107450Y282051D01*
X1107429Y282052D01*
X1105738Y281900D01*
X1105692Y281887D01*
X1105616Y281877D01*
X1103987Y281398D01*
X1103944Y281377D01*
X1103872Y281351D01*
X1102368Y280564D01*
X1102330Y280535D01*
X1102264Y280496D01*
X1100942Y279430D01*
X1100910Y279394D01*
X1100853Y279343D01*
X1099764Y278040D01*
X1099741Y277999D01*
X1099694Y277938D01*
X1098881Y276447D01*
X1098866Y276402D01*
X1098832Y276333D01*
X1098325Y274713D01*
X1098319Y274665D01*
X1098300Y274591D01*
X1098119Y272908D01*
X1098095Y272710D01*
X1098097Y272659D01*
X1098093Y272568D01*
X1098266Y270859D01*
X1098280Y270813D01*
X1098291Y270737D01*
X1098794Y269095D01*
X1098816Y269052D01*
X1098842Y268980D01*
X1099656Y267467D01*
X1099686Y267430D01*
X1099726Y267364D01*
X1100819Y266040D01*
X1100856Y266008D01*
X1100907Y265952D01*
X1102238Y264866D01*
X1102281Y264843D01*
X1102342Y264797D01*
X1103859Y263992D01*
X1103905Y263977D01*
X1103974Y263945D01*
X1104217Y263872D01*
X1104218Y263872D01*
X1105620Y263451D01*
X1105667Y263445D01*
X1105742Y263427D01*
X1107329Y263275D01*
X1107346Y263269D01*
X1107440Y263227D01*
X1107450Y263227D01*
X1107458Y263223D01*
X1107645Y263212D01*
X1109324Y263365D01*
G37*
G36*
X1109324Y218127D02*
X1109324Y218127D01*
X1109371Y218140D01*
X1109446Y218150D01*
X1111063Y218628D01*
X1111091Y218642D01*
X1111112Y218646D01*
X1111136Y218660D01*
X1111178Y218674D01*
X1112670Y219458D01*
X1112708Y219488D01*
X1112774Y219526D01*
X1114085Y220586D01*
X1114116Y220622D01*
X1114173Y220673D01*
X1115252Y221968D01*
X1115276Y222010D01*
X1115322Y222071D01*
X1116128Y223552D01*
X1116143Y223597D01*
X1116176Y223666D01*
X1116677Y225275D01*
X1116683Y225323D01*
X1116702Y225397D01*
X1116877Y227050D01*
X1116924Y227306D01*
X1116924Y227328D01*
X1116931Y227488D01*
X1116746Y229206D01*
X1116733Y229252D01*
X1116721Y229327D01*
X1116205Y230976D01*
X1116183Y231019D01*
X1116157Y231090D01*
X1115329Y232607D01*
X1115299Y232645D01*
X1115259Y232710D01*
X1114152Y234036D01*
X1114115Y234067D01*
X1114063Y234123D01*
X1112718Y235207D01*
X1112676Y235230D01*
X1112614Y235276D01*
X1111083Y236077D01*
X1111037Y236091D01*
X1110968Y236123D01*
X1109311Y236611D01*
X1109263Y236616D01*
X1109189Y236634D01*
X1107720Y236766D01*
X1107692Y236782D01*
X1107653Y236788D01*
X1107616Y236803D01*
X1107520Y236808D01*
X1107470Y236816D01*
X1107450Y236813D01*
X1107429Y236814D01*
X1105738Y236662D01*
X1105692Y236649D01*
X1105616Y236639D01*
X1103987Y236160D01*
X1103944Y236139D01*
X1103872Y236113D01*
X1102368Y235326D01*
X1102330Y235297D01*
X1102264Y235258D01*
X1100942Y234192D01*
X1100910Y234156D01*
X1100853Y234105D01*
X1099764Y232802D01*
X1099741Y232761D01*
X1099694Y232700D01*
X1098881Y231209D01*
X1098866Y231164D01*
X1098832Y231095D01*
X1098325Y229475D01*
X1098319Y229427D01*
X1098300Y229353D01*
X1098119Y227670D01*
X1098095Y227472D01*
X1098097Y227421D01*
X1098093Y227330D01*
X1098266Y225621D01*
X1098280Y225575D01*
X1098291Y225499D01*
X1098794Y223857D01*
X1098816Y223814D01*
X1098842Y223742D01*
X1099656Y222229D01*
X1099686Y222192D01*
X1099726Y222126D01*
X1100819Y220802D01*
X1100856Y220770D01*
X1100907Y220714D01*
X1102238Y219628D01*
X1102281Y219605D01*
X1102342Y219559D01*
X1103859Y218754D01*
X1103905Y218739D01*
X1103974Y218707D01*
X1104217Y218634D01*
X1104218Y218634D01*
X1105620Y218213D01*
X1105667Y218207D01*
X1105742Y218189D01*
X1107329Y218037D01*
X1107346Y218031D01*
X1107440Y217989D01*
X1107450Y217989D01*
X1107458Y217985D01*
X1107645Y217974D01*
X1109324Y218127D01*
G37*
G36*
X-5676Y218127D02*
X-5676Y218127D01*
X-5629Y218140D01*
X-5554Y218150D01*
X-3937Y218628D01*
X-3909Y218642D01*
X-3888Y218646D01*
X-3864Y218660D01*
X-3822Y218674D01*
X-2330Y219458D01*
X-2292Y219488D01*
X-2226Y219526D01*
X-915Y220586D01*
X-884Y220622D01*
X-827Y220673D01*
X252Y221968D01*
X276Y222010D01*
X322Y222071D01*
X1128Y223552D01*
X1143Y223597D01*
X1176Y223666D01*
X1677Y225275D01*
X1683Y225323D01*
X1702Y225397D01*
X1877Y227050D01*
X1924Y227306D01*
X1924Y227328D01*
X1931Y227488D01*
X1746Y229206D01*
X1733Y229252D01*
X1721Y229327D01*
X1205Y230976D01*
X1183Y231019D01*
X1157Y231090D01*
X329Y232607D01*
X299Y232645D01*
X259Y232710D01*
X-849Y234036D01*
X-885Y234067D01*
X-937Y234123D01*
X-2282Y235207D01*
X-2324Y235230D01*
X-2386Y235276D01*
X-3917Y236077D01*
X-3963Y236091D01*
X-4032Y236123D01*
X-5689Y236611D01*
X-5737Y236616D01*
X-5812Y236634D01*
X-7280Y236766D01*
X-7308Y236782D01*
X-7347Y236788D01*
X-7384Y236803D01*
X-7480Y236808D01*
X-7530Y236816D01*
X-7550Y236813D01*
X-7571Y236814D01*
X-9262Y236662D01*
X-9308Y236649D01*
X-9384Y236639D01*
X-11013Y236160D01*
X-11056Y236139D01*
X-11128Y236113D01*
X-12632Y235326D01*
X-12671Y235297D01*
X-12736Y235258D01*
X-14058Y234192D01*
X-14090Y234156D01*
X-14147Y234105D01*
X-15236Y232802D01*
X-15259Y232761D01*
X-15306Y232700D01*
X-16119Y231209D01*
X-16134Y231164D01*
X-16168Y231095D01*
X-16675Y229475D01*
X-16681Y229427D01*
X-16700Y229353D01*
X-16881Y227670D01*
X-16906Y227472D01*
X-16903Y227421D01*
X-16907Y227330D01*
X-16734Y225621D01*
X-16721Y225575D01*
X-16709Y225499D01*
X-16206Y223857D01*
X-16184Y223814D01*
X-16158Y223742D01*
X-15344Y222229D01*
X-15314Y222192D01*
X-15274Y222126D01*
X-14181Y220802D01*
X-14144Y220770D01*
X-14093Y220714D01*
X-12762Y219628D01*
X-12719Y219605D01*
X-12658Y219559D01*
X-11141Y218754D01*
X-11095Y218739D01*
X-11026Y218707D01*
X-10783Y218634D01*
X-10782Y218634D01*
X-9380Y218213D01*
X-9333Y218207D01*
X-9258Y218189D01*
X-7671Y218037D01*
X-7654Y218031D01*
X-7560Y217989D01*
X-7550Y217989D01*
X-7542Y217985D01*
X-7355Y217974D01*
X-5676Y218127D01*
G37*
G36*
X1044249Y113390D02*
X1044249Y113390D01*
X1044296Y113403D01*
X1044371Y113413D01*
X1045988Y113891D01*
X1046016Y113905D01*
X1046037Y113909D01*
X1046061Y113923D01*
X1046103Y113937D01*
X1047595Y114721D01*
X1047633Y114751D01*
X1047699Y114789D01*
X1049010Y115849D01*
X1049041Y115885D01*
X1049098Y115936D01*
X1050177Y117231D01*
X1050201Y117273D01*
X1050247Y117334D01*
X1051053Y118815D01*
X1051068Y118860D01*
X1051101Y118929D01*
X1051602Y120538D01*
X1051608Y120586D01*
X1051627Y120660D01*
X1051802Y122313D01*
X1051849Y122569D01*
X1051849Y122591D01*
X1051856Y122751D01*
X1051671Y124469D01*
X1051658Y124515D01*
X1051646Y124590D01*
X1051130Y126239D01*
X1051108Y126282D01*
X1051082Y126353D01*
X1050254Y127870D01*
X1050224Y127908D01*
X1050184Y127973D01*
X1049077Y129299D01*
X1049040Y129330D01*
X1048988Y129386D01*
X1047643Y130470D01*
X1047601Y130493D01*
X1047539Y130539D01*
X1046008Y131340D01*
X1045962Y131354D01*
X1045893Y131386D01*
X1044236Y131874D01*
X1044188Y131879D01*
X1044114Y131897D01*
X1042645Y132029D01*
X1042617Y132045D01*
X1042578Y132051D01*
X1042541Y132066D01*
X1042445Y132071D01*
X1042395Y132079D01*
X1042375Y132076D01*
X1042354Y132077D01*
X1040663Y131925D01*
X1040617Y131912D01*
X1040541Y131902D01*
X1038912Y131423D01*
X1038869Y131402D01*
X1038797Y131376D01*
X1037293Y130589D01*
X1037255Y130560D01*
X1037189Y130521D01*
X1035867Y129455D01*
X1035835Y129419D01*
X1035778Y129368D01*
X1034689Y128065D01*
X1034666Y128024D01*
X1034619Y127963D01*
X1033806Y126472D01*
X1033791Y126427D01*
X1033757Y126358D01*
X1033250Y124738D01*
X1033244Y124690D01*
X1033225Y124616D01*
X1033044Y122933D01*
X1033020Y122735D01*
X1033022Y122684D01*
X1033018Y122593D01*
X1033191Y120884D01*
X1033205Y120838D01*
X1033216Y120762D01*
X1033719Y119120D01*
X1033741Y119077D01*
X1033767Y119005D01*
X1034581Y117492D01*
X1034611Y117455D01*
X1034651Y117389D01*
X1035744Y116065D01*
X1035781Y116033D01*
X1035832Y115977D01*
X1037163Y114891D01*
X1037206Y114868D01*
X1037267Y114822D01*
X1038784Y114017D01*
X1038830Y114002D01*
X1038899Y113970D01*
X1039142Y113897D01*
X1039143Y113897D01*
X1040545Y113476D01*
X1040592Y113470D01*
X1040667Y113452D01*
X1042254Y113300D01*
X1042271Y113294D01*
X1042365Y113252D01*
X1042375Y113252D01*
X1042383Y113248D01*
X1042570Y113237D01*
X1044249Y113390D01*
G37*
G36*
X-70751Y113390D02*
X-70751Y113390D01*
X-70704Y113403D01*
X-70629Y113413D01*
X-69012Y113891D01*
X-68984Y113905D01*
X-68963Y113909D01*
X-68939Y113923D01*
X-68897Y113937D01*
X-67405Y114721D01*
X-67367Y114751D01*
X-67301Y114789D01*
X-65990Y115849D01*
X-65959Y115885D01*
X-65902Y115936D01*
X-64823Y117231D01*
X-64799Y117273D01*
X-64753Y117334D01*
X-63947Y118815D01*
X-63932Y118860D01*
X-63899Y118929D01*
X-63398Y120538D01*
X-63392Y120586D01*
X-63373Y120660D01*
X-63198Y122313D01*
X-63151Y122569D01*
X-63151Y122591D01*
X-63144Y122751D01*
X-63329Y124469D01*
X-63342Y124515D01*
X-63354Y124590D01*
X-63870Y126239D01*
X-63892Y126282D01*
X-63918Y126353D01*
X-64746Y127870D01*
X-64776Y127908D01*
X-64816Y127973D01*
X-65924Y129299D01*
X-65960Y129330D01*
X-66012Y129386D01*
X-67357Y130470D01*
X-67399Y130493D01*
X-67461Y130539D01*
X-68992Y131340D01*
X-69038Y131354D01*
X-69107Y131386D01*
X-70764Y131874D01*
X-70812Y131879D01*
X-70887Y131897D01*
X-72355Y132029D01*
X-72383Y132045D01*
X-72422Y132051D01*
X-72459Y132066D01*
X-72555Y132071D01*
X-72605Y132079D01*
X-72625Y132076D01*
X-72646Y132077D01*
X-74337Y131925D01*
X-74383Y131912D01*
X-74459Y131902D01*
X-76088Y131423D01*
X-76131Y131402D01*
X-76203Y131376D01*
X-77707Y130589D01*
X-77746Y130560D01*
X-77811Y130521D01*
X-79133Y129455D01*
X-79165Y129419D01*
X-79222Y129368D01*
X-80311Y128065D01*
X-80334Y128024D01*
X-80381Y127963D01*
X-81194Y126472D01*
X-81209Y126427D01*
X-81243Y126358D01*
X-81750Y124738D01*
X-81756Y124690D01*
X-81775Y124616D01*
X-81956Y122933D01*
X-81981Y122735D01*
X-81978Y122684D01*
X-81982Y122593D01*
X-81809Y120884D01*
X-81796Y120838D01*
X-81784Y120762D01*
X-81281Y119120D01*
X-81259Y119077D01*
X-81233Y119005D01*
X-80419Y117492D01*
X-80389Y117455D01*
X-80349Y117389D01*
X-79256Y116065D01*
X-79219Y116033D01*
X-79168Y115977D01*
X-77837Y114891D01*
X-77794Y114868D01*
X-77733Y114822D01*
X-76216Y114017D01*
X-76170Y114002D01*
X-76101Y113970D01*
X-75858Y113897D01*
X-75857Y113897D01*
X-74455Y113476D01*
X-74408Y113470D01*
X-74333Y113452D01*
X-72746Y113300D01*
X-72729Y113294D01*
X-72635Y113252D01*
X-72625Y113252D01*
X-72617Y113248D01*
X-72430Y113237D01*
X-70751Y113390D01*
G37*
G36*
X1109324Y113365D02*
X1109324Y113365D01*
X1109371Y113378D01*
X1109446Y113388D01*
X1111063Y113866D01*
X1111091Y113880D01*
X1111112Y113884D01*
X1111136Y113898D01*
X1111178Y113912D01*
X1112670Y114696D01*
X1112708Y114726D01*
X1112774Y114764D01*
X1114085Y115824D01*
X1114116Y115860D01*
X1114173Y115911D01*
X1115252Y117206D01*
X1115276Y117248D01*
X1115322Y117309D01*
X1116128Y118790D01*
X1116143Y118835D01*
X1116176Y118904D01*
X1116677Y120513D01*
X1116683Y120561D01*
X1116702Y120635D01*
X1116877Y122288D01*
X1116924Y122544D01*
X1116924Y122566D01*
X1116931Y122726D01*
X1116746Y124444D01*
X1116733Y124490D01*
X1116721Y124565D01*
X1116205Y126214D01*
X1116183Y126257D01*
X1116157Y126328D01*
X1115329Y127845D01*
X1115299Y127883D01*
X1115259Y127948D01*
X1114152Y129274D01*
X1114115Y129305D01*
X1114063Y129361D01*
X1112718Y130445D01*
X1112676Y130468D01*
X1112614Y130514D01*
X1111083Y131315D01*
X1111037Y131329D01*
X1110968Y131361D01*
X1109311Y131849D01*
X1109263Y131854D01*
X1109189Y131872D01*
X1107720Y132004D01*
X1107692Y132020D01*
X1107653Y132026D01*
X1107616Y132041D01*
X1107520Y132046D01*
X1107470Y132054D01*
X1107450Y132051D01*
X1107429Y132052D01*
X1105738Y131900D01*
X1105692Y131887D01*
X1105616Y131877D01*
X1103987Y131398D01*
X1103944Y131377D01*
X1103872Y131351D01*
X1102368Y130564D01*
X1102330Y130535D01*
X1102264Y130496D01*
X1100942Y129430D01*
X1100910Y129394D01*
X1100853Y129343D01*
X1099764Y128040D01*
X1099741Y127999D01*
X1099694Y127938D01*
X1098881Y126447D01*
X1098866Y126402D01*
X1098832Y126333D01*
X1098325Y124713D01*
X1098319Y124665D01*
X1098300Y124591D01*
X1098119Y122908D01*
X1098095Y122710D01*
X1098097Y122659D01*
X1098093Y122568D01*
X1098266Y120859D01*
X1098280Y120813D01*
X1098291Y120737D01*
X1098794Y119095D01*
X1098816Y119052D01*
X1098842Y118980D01*
X1099656Y117467D01*
X1099686Y117430D01*
X1099726Y117364D01*
X1100819Y116040D01*
X1100856Y116008D01*
X1100907Y115952D01*
X1102238Y114866D01*
X1102281Y114843D01*
X1102342Y114797D01*
X1103859Y113992D01*
X1103905Y113977D01*
X1103974Y113945D01*
X1104217Y113872D01*
X1104218Y113872D01*
X1105620Y113451D01*
X1105667Y113445D01*
X1105742Y113427D01*
X1107329Y113275D01*
X1107346Y113269D01*
X1107440Y113227D01*
X1107450Y113227D01*
X1107458Y113223D01*
X1107645Y113212D01*
X1109324Y113365D01*
G37*
G36*
X-5676Y113365D02*
X-5676Y113365D01*
X-5629Y113378D01*
X-5554Y113388D01*
X-3937Y113866D01*
X-3909Y113880D01*
X-3888Y113884D01*
X-3864Y113898D01*
X-3822Y113912D01*
X-2330Y114696D01*
X-2292Y114726D01*
X-2226Y114764D01*
X-915Y115824D01*
X-884Y115860D01*
X-827Y115911D01*
X252Y117206D01*
X276Y117248D01*
X322Y117309D01*
X1128Y118790D01*
X1143Y118835D01*
X1176Y118904D01*
X1677Y120513D01*
X1683Y120561D01*
X1702Y120635D01*
X1877Y122288D01*
X1924Y122544D01*
X1924Y122566D01*
X1931Y122726D01*
X1746Y124444D01*
X1733Y124490D01*
X1721Y124565D01*
X1205Y126214D01*
X1183Y126257D01*
X1157Y126328D01*
X329Y127845D01*
X299Y127883D01*
X259Y127948D01*
X-849Y129274D01*
X-885Y129305D01*
X-937Y129361D01*
X-2282Y130445D01*
X-2324Y130468D01*
X-2386Y130514D01*
X-3917Y131315D01*
X-3963Y131329D01*
X-4032Y131361D01*
X-5689Y131849D01*
X-5737Y131854D01*
X-5812Y131872D01*
X-7280Y132004D01*
X-7308Y132020D01*
X-7347Y132026D01*
X-7384Y132041D01*
X-7480Y132046D01*
X-7530Y132054D01*
X-7550Y132051D01*
X-7571Y132052D01*
X-9262Y131900D01*
X-9308Y131887D01*
X-9384Y131877D01*
X-11013Y131398D01*
X-11056Y131377D01*
X-11128Y131351D01*
X-12632Y130564D01*
X-12671Y130535D01*
X-12736Y130496D01*
X-14058Y129430D01*
X-14090Y129394D01*
X-14147Y129343D01*
X-15236Y128040D01*
X-15259Y127999D01*
X-15306Y127938D01*
X-16119Y126447D01*
X-16134Y126402D01*
X-16168Y126333D01*
X-16675Y124713D01*
X-16681Y124665D01*
X-16700Y124591D01*
X-16881Y122908D01*
X-16906Y122710D01*
X-16903Y122659D01*
X-16907Y122568D01*
X-16734Y120859D01*
X-16721Y120813D01*
X-16709Y120737D01*
X-16206Y119095D01*
X-16184Y119052D01*
X-16158Y118980D01*
X-15344Y117467D01*
X-15314Y117430D01*
X-15274Y117364D01*
X-14181Y116040D01*
X-14144Y116008D01*
X-14093Y115952D01*
X-12762Y114866D01*
X-12719Y114843D01*
X-12658Y114797D01*
X-11141Y113992D01*
X-11095Y113977D01*
X-11026Y113945D01*
X-10783Y113872D01*
X-10782Y113872D01*
X-9380Y113451D01*
X-9333Y113445D01*
X-9258Y113427D01*
X-7671Y113275D01*
X-7654Y113269D01*
X-7560Y113227D01*
X-7550Y113227D01*
X-7542Y113223D01*
X-7355Y113212D01*
X-5676Y113365D01*
G37*
G36*
X234949Y70990D02*
X234949Y70990D01*
X234996Y71003D01*
X235071Y71013D01*
X236688Y71491D01*
X236716Y71505D01*
X236737Y71509D01*
X236761Y71523D01*
X236803Y71537D01*
X238295Y72321D01*
X238333Y72351D01*
X238399Y72389D01*
X239710Y73449D01*
X239741Y73485D01*
X239798Y73536D01*
X240877Y74831D01*
X240901Y74873D01*
X240947Y74934D01*
X241753Y76415D01*
X241768Y76460D01*
X241801Y76529D01*
X242302Y78138D01*
X242308Y78186D01*
X242327Y78260D01*
X242502Y79913D01*
X242549Y80169D01*
X242549Y80191D01*
X242556Y80351D01*
X242371Y82069D01*
X242358Y82115D01*
X242346Y82190D01*
X241830Y83839D01*
X241808Y83882D01*
X241782Y83953D01*
X240954Y85470D01*
X240924Y85508D01*
X240884Y85573D01*
X239777Y86899D01*
X239740Y86930D01*
X239688Y86986D01*
X238343Y88070D01*
X238301Y88093D01*
X238239Y88139D01*
X236708Y88940D01*
X236662Y88954D01*
X236593Y88986D01*
X234936Y89474D01*
X234888Y89479D01*
X234814Y89497D01*
X233345Y89629D01*
X233317Y89645D01*
X233278Y89651D01*
X233241Y89666D01*
X233145Y89671D01*
X233095Y89679D01*
X233075Y89676D01*
X233054Y89677D01*
X231363Y89525D01*
X231317Y89512D01*
X231241Y89502D01*
X229612Y89023D01*
X229569Y89002D01*
X229497Y88976D01*
X227993Y88189D01*
X227955Y88160D01*
X227889Y88121D01*
X226567Y87055D01*
X226535Y87019D01*
X226478Y86968D01*
X225389Y85665D01*
X225366Y85624D01*
X225319Y85563D01*
X224506Y84072D01*
X224491Y84027D01*
X224457Y83958D01*
X223950Y82338D01*
X223944Y82290D01*
X223925Y82216D01*
X223744Y80533D01*
X223720Y80335D01*
X223722Y80284D01*
X223718Y80193D01*
X223891Y78484D01*
X223905Y78438D01*
X223916Y78362D01*
X224419Y76720D01*
X224441Y76677D01*
X224467Y76605D01*
X225281Y75092D01*
X225311Y75055D01*
X225351Y74989D01*
X226444Y73665D01*
X226481Y73633D01*
X226532Y73577D01*
X227863Y72491D01*
X227906Y72468D01*
X227967Y72422D01*
X229484Y71617D01*
X229530Y71602D01*
X229599Y71570D01*
X229842Y71497D01*
X229843Y71497D01*
X231245Y71076D01*
X231292Y71070D01*
X231367Y71052D01*
X232954Y70900D01*
X232971Y70894D01*
X233065Y70852D01*
X233075Y70852D01*
X233083Y70848D01*
X233270Y70837D01*
X234949Y70990D01*
G37*
G36*
X300024Y70965D02*
X300024Y70965D01*
X300071Y70978D01*
X300146Y70988D01*
X301763Y71466D01*
X301791Y71480D01*
X301812Y71484D01*
X301836Y71498D01*
X301878Y71512D01*
X303370Y72296D01*
X303408Y72326D01*
X303474Y72364D01*
X304785Y73424D01*
X304816Y73460D01*
X304873Y73511D01*
X305952Y74806D01*
X305976Y74848D01*
X306022Y74909D01*
X306828Y76390D01*
X306843Y76435D01*
X306876Y76504D01*
X307377Y78113D01*
X307383Y78161D01*
X307402Y78235D01*
X307577Y79888D01*
X307624Y80144D01*
X307624Y80166D01*
X307631Y80326D01*
X307446Y82044D01*
X307433Y82090D01*
X307421Y82165D01*
X306905Y83814D01*
X306883Y83857D01*
X306857Y83928D01*
X306029Y85445D01*
X305999Y85483D01*
X305959Y85548D01*
X304852Y86874D01*
X304815Y86905D01*
X304763Y86961D01*
X303418Y88045D01*
X303376Y88068D01*
X303314Y88114D01*
X301783Y88915D01*
X301737Y88929D01*
X301668Y88961D01*
X300011Y89449D01*
X299963Y89454D01*
X299889Y89472D01*
X298420Y89604D01*
X298392Y89620D01*
X298353Y89626D01*
X298316Y89641D01*
X298220Y89646D01*
X298170Y89654D01*
X298150Y89651D01*
X298129Y89652D01*
X296438Y89500D01*
X296392Y89487D01*
X296316Y89477D01*
X294687Y88998D01*
X294644Y88977D01*
X294572Y88951D01*
X293068Y88164D01*
X293030Y88135D01*
X292964Y88096D01*
X291642Y87030D01*
X291610Y86994D01*
X291553Y86943D01*
X290464Y85640D01*
X290441Y85599D01*
X290394Y85538D01*
X289581Y84047D01*
X289566Y84002D01*
X289532Y83933D01*
X289025Y82313D01*
X289019Y82265D01*
X289000Y82191D01*
X288819Y80508D01*
X288795Y80310D01*
X288797Y80259D01*
X288793Y80168D01*
X288966Y78459D01*
X288980Y78413D01*
X288991Y78337D01*
X289494Y76695D01*
X289516Y76652D01*
X289542Y76580D01*
X290356Y75067D01*
X290386Y75030D01*
X290426Y74964D01*
X291519Y73640D01*
X291556Y73608D01*
X291607Y73552D01*
X292938Y72466D01*
X292981Y72443D01*
X293042Y72397D01*
X294559Y71592D01*
X294605Y71577D01*
X294674Y71545D01*
X294917Y71472D01*
X294918Y71472D01*
X296320Y71051D01*
X296367Y71045D01*
X296442Y71027D01*
X298029Y70875D01*
X298046Y70869D01*
X298140Y70827D01*
X298150Y70827D01*
X298158Y70823D01*
X298345Y70812D01*
X300024Y70965D01*
G37*
G36*
X-5676Y68127D02*
X-5676Y68127D01*
X-5629Y68140D01*
X-5554Y68150D01*
X-3937Y68628D01*
X-3909Y68642D01*
X-3888Y68646D01*
X-3864Y68660D01*
X-3822Y68674D01*
X-2330Y69458D01*
X-2292Y69488D01*
X-2226Y69526D01*
X-915Y70586D01*
X-884Y70622D01*
X-827Y70673D01*
X252Y71968D01*
X276Y72010D01*
X322Y72071D01*
X1128Y73552D01*
X1143Y73597D01*
X1176Y73666D01*
X1677Y75275D01*
X1683Y75323D01*
X1702Y75397D01*
X1877Y77050D01*
X1924Y77306D01*
X1924Y77328D01*
X1931Y77488D01*
X1746Y79206D01*
X1733Y79252D01*
X1721Y79327D01*
X1205Y80976D01*
X1183Y81019D01*
X1157Y81090D01*
X329Y82607D01*
X299Y82645D01*
X259Y82710D01*
X-849Y84036D01*
X-885Y84067D01*
X-937Y84123D01*
X-2282Y85207D01*
X-2324Y85230D01*
X-2386Y85276D01*
X-3917Y86077D01*
X-3963Y86091D01*
X-4032Y86123D01*
X-5689Y86611D01*
X-5737Y86616D01*
X-5812Y86634D01*
X-7280Y86766D01*
X-7308Y86782D01*
X-7347Y86788D01*
X-7384Y86803D01*
X-7480Y86808D01*
X-7530Y86816D01*
X-7550Y86813D01*
X-7571Y86814D01*
X-9262Y86662D01*
X-9308Y86649D01*
X-9384Y86639D01*
X-11013Y86160D01*
X-11056Y86139D01*
X-11128Y86113D01*
X-12632Y85326D01*
X-12671Y85297D01*
X-12736Y85258D01*
X-14058Y84192D01*
X-14090Y84156D01*
X-14147Y84105D01*
X-15236Y82802D01*
X-15259Y82761D01*
X-15306Y82700D01*
X-16119Y81209D01*
X-16134Y81164D01*
X-16168Y81095D01*
X-16675Y79475D01*
X-16681Y79427D01*
X-16700Y79353D01*
X-16881Y77670D01*
X-16906Y77472D01*
X-16903Y77421D01*
X-16907Y77330D01*
X-16734Y75621D01*
X-16721Y75575D01*
X-16709Y75499D01*
X-16206Y73857D01*
X-16184Y73814D01*
X-16158Y73742D01*
X-15344Y72229D01*
X-15314Y72192D01*
X-15274Y72126D01*
X-14181Y70802D01*
X-14144Y70770D01*
X-14093Y70714D01*
X-12762Y69628D01*
X-12719Y69605D01*
X-12658Y69559D01*
X-11141Y68754D01*
X-11095Y68739D01*
X-11026Y68707D01*
X-10783Y68634D01*
X-10782Y68634D01*
X-9380Y68213D01*
X-9333Y68207D01*
X-9258Y68189D01*
X-7671Y68037D01*
X-7654Y68031D01*
X-7560Y67989D01*
X-7550Y67989D01*
X-7542Y67985D01*
X-7355Y67974D01*
X-5676Y68127D01*
G37*
G36*
X1109324Y68127D02*
X1109324Y68127D01*
X1109371Y68140D01*
X1109446Y68150D01*
X1111063Y68628D01*
X1111091Y68642D01*
X1111112Y68646D01*
X1111136Y68660D01*
X1111178Y68674D01*
X1112670Y69458D01*
X1112708Y69488D01*
X1112774Y69526D01*
X1114085Y70586D01*
X1114116Y70622D01*
X1114173Y70673D01*
X1115252Y71968D01*
X1115276Y72010D01*
X1115322Y72071D01*
X1116128Y73552D01*
X1116143Y73597D01*
X1116176Y73666D01*
X1116677Y75275D01*
X1116683Y75323D01*
X1116702Y75397D01*
X1116877Y77050D01*
X1116924Y77306D01*
X1116924Y77328D01*
X1116931Y77488D01*
X1116746Y79206D01*
X1116733Y79252D01*
X1116721Y79327D01*
X1116205Y80976D01*
X1116183Y81019D01*
X1116157Y81090D01*
X1115329Y82607D01*
X1115299Y82645D01*
X1115259Y82710D01*
X1114152Y84036D01*
X1114115Y84067D01*
X1114063Y84123D01*
X1112718Y85207D01*
X1112676Y85230D01*
X1112614Y85276D01*
X1111083Y86077D01*
X1111037Y86091D01*
X1110968Y86123D01*
X1109311Y86611D01*
X1109263Y86616D01*
X1109189Y86634D01*
X1107720Y86766D01*
X1107692Y86782D01*
X1107653Y86788D01*
X1107616Y86803D01*
X1107520Y86808D01*
X1107470Y86816D01*
X1107450Y86813D01*
X1107429Y86814D01*
X1105738Y86662D01*
X1105692Y86649D01*
X1105616Y86639D01*
X1103987Y86160D01*
X1103944Y86139D01*
X1103872Y86113D01*
X1102368Y85326D01*
X1102330Y85297D01*
X1102264Y85258D01*
X1100942Y84192D01*
X1100910Y84156D01*
X1100853Y84105D01*
X1099764Y82802D01*
X1099741Y82761D01*
X1099694Y82700D01*
X1098881Y81209D01*
X1098866Y81164D01*
X1098832Y81095D01*
X1098325Y79475D01*
X1098319Y79427D01*
X1098300Y79353D01*
X1098119Y77670D01*
X1098095Y77472D01*
X1098097Y77421D01*
X1098093Y77330D01*
X1098266Y75621D01*
X1098280Y75575D01*
X1098291Y75499D01*
X1098794Y73857D01*
X1098816Y73814D01*
X1098842Y73742D01*
X1099656Y72229D01*
X1099686Y72192D01*
X1099726Y72126D01*
X1100819Y70802D01*
X1100856Y70770D01*
X1100907Y70714D01*
X1102238Y69628D01*
X1102281Y69605D01*
X1102342Y69559D01*
X1103859Y68754D01*
X1103905Y68739D01*
X1103974Y68707D01*
X1104217Y68634D01*
X1104218Y68634D01*
X1105620Y68213D01*
X1105667Y68207D01*
X1105742Y68189D01*
X1107329Y68037D01*
X1107346Y68031D01*
X1107440Y67989D01*
X1107450Y67989D01*
X1107458Y67985D01*
X1107645Y67974D01*
X1109324Y68127D01*
G37*
G36*
X-70700Y68102D02*
X-70700Y68102D01*
X-70653Y68115D01*
X-70578Y68125D01*
X-68961Y68603D01*
X-68933Y68617D01*
X-68912Y68621D01*
X-68888Y68635D01*
X-68846Y68649D01*
X-67354Y69433D01*
X-67316Y69463D01*
X-67250Y69501D01*
X-65939Y70561D01*
X-65908Y70597D01*
X-65851Y70648D01*
X-64772Y71943D01*
X-64748Y71985D01*
X-64702Y72046D01*
X-63896Y73527D01*
X-63881Y73572D01*
X-63848Y73641D01*
X-63347Y75250D01*
X-63341Y75298D01*
X-63322Y75372D01*
X-63147Y77025D01*
X-63100Y77281D01*
X-63100Y77303D01*
X-63093Y77463D01*
X-63278Y79181D01*
X-63291Y79227D01*
X-63303Y79302D01*
X-63819Y80951D01*
X-63841Y80994D01*
X-63867Y81065D01*
X-64695Y82582D01*
X-64725Y82620D01*
X-64765Y82685D01*
X-65873Y84011D01*
X-65909Y84042D01*
X-65961Y84098D01*
X-67306Y85182D01*
X-67348Y85205D01*
X-67410Y85251D01*
X-68941Y86052D01*
X-68987Y86066D01*
X-69056Y86098D01*
X-70713Y86586D01*
X-70761Y86591D01*
X-70836Y86609D01*
X-72304Y86741D01*
X-72332Y86757D01*
X-72371Y86763D01*
X-72408Y86778D01*
X-72504Y86783D01*
X-72554Y86791D01*
X-72574Y86788D01*
X-72595Y86789D01*
X-74286Y86637D01*
X-74332Y86624D01*
X-74408Y86614D01*
X-76037Y86135D01*
X-76080Y86114D01*
X-76152Y86088D01*
X-77656Y85301D01*
X-77695Y85272D01*
X-77760Y85233D01*
X-79082Y84167D01*
X-79114Y84131D01*
X-79171Y84080D01*
X-80260Y82777D01*
X-80283Y82736D01*
X-80330Y82675D01*
X-81143Y81184D01*
X-81158Y81139D01*
X-81192Y81070D01*
X-81699Y79450D01*
X-81705Y79402D01*
X-81724Y79328D01*
X-81905Y77645D01*
X-81930Y77447D01*
X-81927Y77396D01*
X-81931Y77305D01*
X-81758Y75596D01*
X-81745Y75550D01*
X-81733Y75474D01*
X-81230Y73832D01*
X-81208Y73789D01*
X-81182Y73717D01*
X-80368Y72204D01*
X-80338Y72167D01*
X-80298Y72101D01*
X-79205Y70777D01*
X-79168Y70745D01*
X-79117Y70689D01*
X-77786Y69603D01*
X-77743Y69580D01*
X-77682Y69534D01*
X-76165Y68729D01*
X-76119Y68714D01*
X-76050Y68682D01*
X-75807Y68609D01*
X-75806Y68609D01*
X-74404Y68188D01*
X-74357Y68182D01*
X-74282Y68164D01*
X-72695Y68012D01*
X-72678Y68006D01*
X-72584Y67964D01*
X-72574Y67964D01*
X-72566Y67960D01*
X-72379Y67949D01*
X-70700Y68102D01*
G37*
G36*
X1044300Y68102D02*
X1044300Y68102D01*
X1044347Y68115D01*
X1044422Y68125D01*
X1046039Y68603D01*
X1046067Y68617D01*
X1046088Y68621D01*
X1046112Y68635D01*
X1046154Y68649D01*
X1047646Y69433D01*
X1047684Y69463D01*
X1047750Y69501D01*
X1049061Y70561D01*
X1049092Y70597D01*
X1049149Y70648D01*
X1050228Y71943D01*
X1050252Y71985D01*
X1050298Y72046D01*
X1051104Y73527D01*
X1051119Y73572D01*
X1051152Y73641D01*
X1051653Y75250D01*
X1051659Y75298D01*
X1051678Y75372D01*
X1051853Y77025D01*
X1051900Y77281D01*
X1051900Y77303D01*
X1051907Y77463D01*
X1051722Y79181D01*
X1051709Y79227D01*
X1051697Y79302D01*
X1051181Y80951D01*
X1051159Y80994D01*
X1051133Y81065D01*
X1050305Y82582D01*
X1050275Y82620D01*
X1050235Y82685D01*
X1049128Y84011D01*
X1049091Y84042D01*
X1049039Y84098D01*
X1047694Y85182D01*
X1047652Y85205D01*
X1047590Y85251D01*
X1046059Y86052D01*
X1046013Y86066D01*
X1045944Y86098D01*
X1044287Y86586D01*
X1044239Y86591D01*
X1044165Y86609D01*
X1042696Y86741D01*
X1042668Y86757D01*
X1042629Y86763D01*
X1042592Y86778D01*
X1042496Y86783D01*
X1042446Y86791D01*
X1042426Y86788D01*
X1042405Y86789D01*
X1040714Y86637D01*
X1040668Y86624D01*
X1040592Y86614D01*
X1038963Y86135D01*
X1038920Y86114D01*
X1038848Y86088D01*
X1037344Y85301D01*
X1037306Y85272D01*
X1037240Y85233D01*
X1035918Y84167D01*
X1035886Y84131D01*
X1035829Y84080D01*
X1034740Y82777D01*
X1034717Y82736D01*
X1034670Y82675D01*
X1033857Y81184D01*
X1033842Y81139D01*
X1033808Y81070D01*
X1033301Y79450D01*
X1033295Y79402D01*
X1033276Y79328D01*
X1033095Y77645D01*
X1033071Y77447D01*
X1033073Y77396D01*
X1033069Y77305D01*
X1033242Y75596D01*
X1033256Y75550D01*
X1033267Y75474D01*
X1033770Y73832D01*
X1033792Y73789D01*
X1033818Y73717D01*
X1034632Y72204D01*
X1034662Y72167D01*
X1034702Y72101D01*
X1035795Y70777D01*
X1035832Y70745D01*
X1035883Y70689D01*
X1037214Y69603D01*
X1037257Y69580D01*
X1037318Y69534D01*
X1038835Y68729D01*
X1038881Y68714D01*
X1038950Y68682D01*
X1039193Y68609D01*
X1039194Y68609D01*
X1040596Y68188D01*
X1040643Y68182D01*
X1040718Y68164D01*
X1042305Y68012D01*
X1042322Y68006D01*
X1042416Y67964D01*
X1042426Y67964D01*
X1042434Y67960D01*
X1042621Y67949D01*
X1044300Y68102D01*
G37*
G36*
X300024Y25727D02*
X300024Y25727D01*
X300071Y25740D01*
X300146Y25750D01*
X301763Y26228D01*
X301791Y26242D01*
X301812Y26246D01*
X301836Y26260D01*
X301878Y26274D01*
X303370Y27058D01*
X303408Y27088D01*
X303474Y27126D01*
X304785Y28186D01*
X304816Y28222D01*
X304873Y28273D01*
X305952Y29568D01*
X305976Y29610D01*
X306022Y29671D01*
X306828Y31152D01*
X306843Y31197D01*
X306876Y31266D01*
X307377Y32875D01*
X307383Y32923D01*
X307402Y32997D01*
X307577Y34650D01*
X307624Y34906D01*
X307624Y34928D01*
X307631Y35088D01*
X307446Y36806D01*
X307433Y36852D01*
X307421Y36927D01*
X306905Y38576D01*
X306883Y38619D01*
X306857Y38690D01*
X306029Y40207D01*
X305999Y40245D01*
X305959Y40310D01*
X304852Y41636D01*
X304815Y41667D01*
X304763Y41723D01*
X303418Y42807D01*
X303376Y42830D01*
X303314Y42876D01*
X301783Y43677D01*
X301737Y43691D01*
X301668Y43723D01*
X300011Y44211D01*
X299963Y44216D01*
X299889Y44234D01*
X298420Y44366D01*
X298392Y44382D01*
X298353Y44388D01*
X298316Y44403D01*
X298220Y44408D01*
X298170Y44416D01*
X298150Y44413D01*
X298129Y44414D01*
X296438Y44262D01*
X296392Y44249D01*
X296316Y44239D01*
X294687Y43760D01*
X294644Y43739D01*
X294572Y43713D01*
X293068Y42926D01*
X293030Y42897D01*
X292964Y42858D01*
X291642Y41792D01*
X291610Y41756D01*
X291553Y41705D01*
X290464Y40402D01*
X290441Y40361D01*
X290394Y40300D01*
X289581Y38809D01*
X289566Y38764D01*
X289532Y38695D01*
X289025Y37075D01*
X289019Y37027D01*
X289000Y36953D01*
X288819Y35270D01*
X288795Y35072D01*
X288797Y35021D01*
X288793Y34930D01*
X288966Y33221D01*
X288980Y33175D01*
X288991Y33099D01*
X289494Y31457D01*
X289516Y31414D01*
X289542Y31342D01*
X290356Y29829D01*
X290386Y29792D01*
X290426Y29726D01*
X291519Y28402D01*
X291556Y28370D01*
X291607Y28314D01*
X292938Y27228D01*
X292981Y27205D01*
X293042Y27159D01*
X294559Y26354D01*
X294605Y26339D01*
X294674Y26307D01*
X294917Y26234D01*
X294918Y26234D01*
X296320Y25813D01*
X296367Y25807D01*
X296442Y25789D01*
X298029Y25637D01*
X298046Y25631D01*
X298140Y25589D01*
X298150Y25589D01*
X298158Y25585D01*
X298345Y25574D01*
X300024Y25727D01*
G37*
G36*
X235000Y25702D02*
X235000Y25702D01*
X235047Y25715D01*
X235122Y25725D01*
X236739Y26203D01*
X236767Y26217D01*
X236788Y26221D01*
X236812Y26235D01*
X236854Y26249D01*
X238346Y27033D01*
X238384Y27063D01*
X238450Y27101D01*
X239761Y28161D01*
X239792Y28197D01*
X239849Y28248D01*
X240928Y29543D01*
X240952Y29585D01*
X240998Y29646D01*
X241804Y31127D01*
X241819Y31172D01*
X241852Y31241D01*
X242353Y32850D01*
X242359Y32898D01*
X242378Y32972D01*
X242553Y34625D01*
X242600Y34881D01*
X242600Y34903D01*
X242607Y35063D01*
X242422Y36781D01*
X242409Y36827D01*
X242397Y36902D01*
X241881Y38551D01*
X241859Y38594D01*
X241833Y38665D01*
X241005Y40182D01*
X240975Y40220D01*
X240935Y40285D01*
X239828Y41611D01*
X239791Y41642D01*
X239739Y41698D01*
X238394Y42782D01*
X238352Y42805D01*
X238290Y42851D01*
X236759Y43652D01*
X236713Y43666D01*
X236644Y43698D01*
X234987Y44186D01*
X234939Y44191D01*
X234865Y44209D01*
X233396Y44341D01*
X233368Y44357D01*
X233329Y44363D01*
X233292Y44378D01*
X233196Y44383D01*
X233146Y44391D01*
X233126Y44388D01*
X233105Y44389D01*
X231414Y44237D01*
X231368Y44224D01*
X231292Y44214D01*
X229663Y43735D01*
X229620Y43714D01*
X229548Y43688D01*
X228044Y42901D01*
X228006Y42872D01*
X227940Y42833D01*
X226618Y41767D01*
X226586Y41731D01*
X226529Y41680D01*
X225440Y40377D01*
X225417Y40336D01*
X225370Y40275D01*
X224557Y38784D01*
X224542Y38739D01*
X224508Y38670D01*
X224001Y37050D01*
X223995Y37002D01*
X223976Y36928D01*
X223795Y35245D01*
X223771Y35047D01*
X223773Y34996D01*
X223769Y34905D01*
X223942Y33196D01*
X223956Y33150D01*
X223967Y33074D01*
X224470Y31432D01*
X224492Y31389D01*
X224518Y31317D01*
X225332Y29804D01*
X225362Y29767D01*
X225402Y29701D01*
X226495Y28377D01*
X226532Y28345D01*
X226583Y28289D01*
X227914Y27203D01*
X227957Y27180D01*
X228018Y27134D01*
X229535Y26329D01*
X229581Y26314D01*
X229650Y26282D01*
X229893Y26209D01*
X229894Y26209D01*
X231296Y25788D01*
X231343Y25782D01*
X231418Y25764D01*
X233005Y25612D01*
X233022Y25606D01*
X233116Y25564D01*
X233126Y25564D01*
X233134Y25560D01*
X233321Y25549D01*
X235000Y25702D01*
G37*
G36*
X1044300Y218102D02*
X1044300Y218102D01*
X1044347Y218115D01*
X1044422Y218125D01*
X1046039Y218603D01*
X1046067Y218617D01*
X1046088Y218621D01*
X1046112Y218635D01*
X1046154Y218649D01*
X1047646Y219433D01*
X1047684Y219463D01*
X1047750Y219501D01*
X1049061Y220561D01*
X1049092Y220597D01*
X1049149Y220648D01*
X1050228Y221943D01*
X1050252Y221985D01*
X1050298Y222046D01*
X1051104Y223527D01*
X1051119Y223572D01*
X1051152Y223641D01*
X1051653Y225250D01*
X1051659Y225298D01*
X1051678Y225372D01*
X1051853Y227025D01*
X1051900Y227281D01*
X1051900Y227303D01*
X1051907Y227463D01*
X1051722Y229181D01*
X1051709Y229227D01*
X1051697Y229302D01*
X1051181Y230951D01*
X1051159Y230994D01*
X1051133Y231065D01*
X1050305Y232582D01*
X1050275Y232620D01*
X1050235Y232685D01*
X1049128Y234011D01*
X1049091Y234042D01*
X1049039Y234098D01*
X1047694Y235182D01*
X1047652Y235205D01*
X1047590Y235251D01*
X1046059Y236052D01*
X1046013Y236066D01*
X1045944Y236098D01*
X1044287Y236586D01*
X1044239Y236591D01*
X1044165Y236609D01*
X1042696Y236741D01*
X1042668Y236757D01*
X1042629Y236763D01*
X1042592Y236778D01*
X1042496Y236783D01*
X1042446Y236791D01*
X1042426Y236788D01*
X1042405Y236789D01*
X1040714Y236637D01*
X1040668Y236624D01*
X1040592Y236614D01*
X1038963Y236135D01*
X1038920Y236114D01*
X1038848Y236088D01*
X1037344Y235301D01*
X1037306Y235272D01*
X1037240Y235233D01*
X1035918Y234167D01*
X1035886Y234131D01*
X1035829Y234080D01*
X1034740Y232777D01*
X1034717Y232736D01*
X1034670Y232675D01*
X1033857Y231184D01*
X1033842Y231139D01*
X1033808Y231070D01*
X1033301Y229450D01*
X1033295Y229402D01*
X1033276Y229328D01*
X1033095Y227645D01*
X1033071Y227447D01*
X1033073Y227396D01*
X1033069Y227305D01*
X1033242Y225596D01*
X1033256Y225550D01*
X1033267Y225474D01*
X1033770Y223832D01*
X1033792Y223789D01*
X1033818Y223717D01*
X1034632Y222204D01*
X1034662Y222167D01*
X1034702Y222101D01*
X1035795Y220777D01*
X1035832Y220745D01*
X1035883Y220689D01*
X1037214Y219603D01*
X1037257Y219580D01*
X1037318Y219534D01*
X1038835Y218729D01*
X1038881Y218714D01*
X1038950Y218682D01*
X1039193Y218609D01*
X1039194Y218609D01*
X1040596Y218188D01*
X1040643Y218182D01*
X1040718Y218164D01*
X1042305Y218012D01*
X1042322Y218006D01*
X1042416Y217964D01*
X1042426Y217964D01*
X1042434Y217960D01*
X1042621Y217949D01*
X1044300Y218102D01*
G37*
G36*
X-70700Y218102D02*
X-70700Y218102D01*
X-70653Y218115D01*
X-70578Y218125D01*
X-68961Y218603D01*
X-68933Y218617D01*
X-68912Y218621D01*
X-68888Y218635D01*
X-68846Y218649D01*
X-67354Y219433D01*
X-67316Y219463D01*
X-67250Y219501D01*
X-65939Y220561D01*
X-65908Y220597D01*
X-65851Y220648D01*
X-64772Y221943D01*
X-64748Y221985D01*
X-64702Y222046D01*
X-63896Y223527D01*
X-63881Y223572D01*
X-63848Y223641D01*
X-63347Y225250D01*
X-63341Y225298D01*
X-63322Y225372D01*
X-63147Y227025D01*
X-63100Y227281D01*
X-63100Y227303D01*
X-63093Y227463D01*
X-63278Y229181D01*
X-63291Y229227D01*
X-63303Y229302D01*
X-63819Y230951D01*
X-63841Y230994D01*
X-63867Y231065D01*
X-64695Y232582D01*
X-64725Y232620D01*
X-64765Y232685D01*
X-65873Y234011D01*
X-65909Y234042D01*
X-65961Y234098D01*
X-67306Y235182D01*
X-67348Y235205D01*
X-67410Y235251D01*
X-68941Y236052D01*
X-68987Y236066D01*
X-69056Y236098D01*
X-70713Y236586D01*
X-70761Y236591D01*
X-70836Y236609D01*
X-72304Y236741D01*
X-72332Y236757D01*
X-72371Y236763D01*
X-72408Y236778D01*
X-72504Y236783D01*
X-72554Y236791D01*
X-72574Y236788D01*
X-72595Y236789D01*
X-74286Y236637D01*
X-74332Y236624D01*
X-74408Y236614D01*
X-76037Y236135D01*
X-76080Y236114D01*
X-76152Y236088D01*
X-77656Y235301D01*
X-77695Y235272D01*
X-77760Y235233D01*
X-79082Y234167D01*
X-79114Y234131D01*
X-79171Y234080D01*
X-80260Y232777D01*
X-80283Y232736D01*
X-80330Y232675D01*
X-81143Y231184D01*
X-81158Y231139D01*
X-81192Y231070D01*
X-81699Y229450D01*
X-81705Y229402D01*
X-81724Y229328D01*
X-81905Y227645D01*
X-81930Y227447D01*
X-81927Y227396D01*
X-81931Y227305D01*
X-81758Y225596D01*
X-81745Y225550D01*
X-81733Y225474D01*
X-81230Y223832D01*
X-81208Y223789D01*
X-81182Y223717D01*
X-80368Y222204D01*
X-80338Y222167D01*
X-80298Y222101D01*
X-79205Y220777D01*
X-79168Y220745D01*
X-79117Y220689D01*
X-77786Y219603D01*
X-77743Y219580D01*
X-77682Y219534D01*
X-76165Y218729D01*
X-76119Y218714D01*
X-76050Y218682D01*
X-75807Y218609D01*
X-75806Y218609D01*
X-74404Y218188D01*
X-74357Y218182D01*
X-74282Y218164D01*
X-72695Y218012D01*
X-72678Y218006D01*
X-72584Y217964D01*
X-72574Y217964D01*
X-72566Y217960D01*
X-72379Y217949D01*
X-70700Y218102D01*
G37*
D10*
X30000Y30000D03*
X1000000Y30000D03*
X30000Y755000D03*
X1000000Y755000D03*
D11*
X661700Y364800D03*
D12*
X687100Y364800D03*
D13*
X550100Y503700D03*
X524700Y503700D03*
X550900Y443700D03*
X525500Y443700D03*
D14*
X976522Y641600D02*
X976522Y667000D01*
X751478Y667000D02*
X751478Y641600D01*
X756778Y163400D02*
X756778Y138000D01*
X981822Y138000D02*
X981822Y163400D01*
D15*
X379904Y160000D02*
X366696Y160000D01*
X366696Y185400D02*
X379904Y185400D01*
X379904Y312400D02*
X366696Y312400D01*
X366696Y337800D02*
X379904Y337800D01*
X379904Y210800D02*
X366696Y210800D01*
X366696Y236200D02*
X379904Y236200D01*
X379904Y287000D02*
X366696Y287000D01*
X366696Y261600D02*
X379904Y261600D01*
X379904Y363200D02*
X366696Y363200D01*
X366696Y388600D02*
X379904Y388600D01*
X379904Y414000D02*
X366696Y414000D01*
X366696Y439400D02*
X379904Y439400D01*
X379904Y464800D02*
X366696Y464800D01*
X366696Y490200D02*
X379904Y490200D01*
X379904Y515600D02*
X366696Y515600D01*
X366696Y541000D02*
X379904Y541000D01*
X379904Y566400D02*
X366696Y566400D01*
X366696Y591800D02*
X379904Y591800D01*
X379904Y617200D02*
X366696Y617200D01*
X366696Y642600D02*
X379904Y642600D01*
X227504Y642600D02*
X214296Y642600D01*
X214296Y617200D02*
X227504Y617200D01*
X227504Y591800D02*
X214296Y591800D01*
X214296Y566400D02*
X227504Y566400D01*
X227504Y541000D02*
X214296Y541000D01*
X214296Y515600D02*
X227504Y515600D01*
X227504Y490200D02*
X214296Y490200D01*
X214296Y464800D02*
X227504Y464800D01*
X227504Y439400D02*
X214296Y439400D01*
X214296Y414000D02*
X227504Y414000D01*
X227504Y388600D02*
X214296Y388600D01*
X214296Y363200D02*
X227504Y363200D01*
X227504Y337800D02*
X214296Y337800D01*
X214296Y312400D02*
X227504Y312400D01*
X227504Y287000D02*
X214296Y287000D01*
X214296Y261600D02*
X227504Y261600D01*
X227504Y236200D02*
X214296Y236200D01*
X214296Y210800D02*
X227504Y210800D01*
X227504Y185400D02*
X214296Y185400D01*
X214296Y160000D02*
X227504Y160000D01*
D16*
X443400Y664188D02*
X443400Y678412D01*
X468800Y678412D02*
X468800Y664188D01*
X494200Y664188D02*
X494200Y678412D01*
X48412Y468400D02*
X34188Y468400D01*
X34188Y443000D02*
X48412Y443000D01*
X48412Y417600D02*
X34188Y417600D01*
X34188Y392200D02*
X48412Y392200D01*
X48412Y367700D02*
X34188Y367700D01*
X34188Y342300D02*
X48412Y342300D01*
X48412Y316900D02*
X34188Y316900D01*
X34188Y291500D02*
X48412Y291500D01*
D13*
X419700Y32500D03*
X394300Y32500D03*
D17*
X458700Y32500D03*
X484100Y32500D03*
D18*
X478700Y449870D03*
X478700Y498130D03*
D19*
X592500Y464100D03*
X592500Y362500D03*
D20*
X417500Y83900D03*
X417500Y185500D03*
X457500Y61900D03*
X457500Y163500D03*
D21*
X685900Y324000D03*
X665900Y324000D03*
X645900Y324000D03*
X625900Y324000D03*
X605900Y324000D03*
X585900Y324000D03*
X565900Y324000D03*
X545900Y324000D03*
D22*
X897300Y236300D03*
X838300Y236300D03*
X777300Y572300D03*
X957300Y572300D03*
D23*
X830300Y81078D02*
X830300Y60123D01*
X881100Y60123D02*
X881100Y81078D01*
D24*
X556400Y727502D02*
X556400Y746298D01*
X581800Y746298D02*
X581800Y727502D01*
X607200Y727502D02*
X607200Y746298D01*
X632600Y746298D02*
X632600Y727502D01*
X658000Y727502D02*
X658000Y746298D01*
X683400Y746298D02*
X683400Y727502D01*
D13*
X658600Y666600D03*
X633200Y666600D03*
X418600Y737800D03*
X393200Y737800D03*
D25*
X95000Y505000D03*
X95000Y555000D03*
X270000Y225000D03*
X350000Y350000D03*
X280000Y405000D03*
X520000Y680000D03*
M02*
