G04 EAGLE Gerber RS-274X export*
G75*
%MOMM*%
%FSLAX34Y34*%
%LPD*%
%IN*%
%IPPOS*%
%AMOC8*
5,1,8,0,0,1.08239X$1,22.5*%
G01*
%ADD10C,0.254000*%


D10*
X0Y0D02*
X1600000Y0D01*
X1600000Y1000000D01*
X0Y1000000D01*
X0Y0D01*
X74650Y945577D02*
X74575Y944434D01*
X74426Y943298D01*
X74202Y942174D01*
X73905Y941067D01*
X73537Y939982D01*
X73099Y938924D01*
X72592Y937896D01*
X72019Y936904D01*
X71382Y935951D01*
X70685Y935042D01*
X69929Y934181D01*
X69119Y933371D01*
X68258Y932615D01*
X67349Y931918D01*
X66396Y931281D01*
X65404Y930708D01*
X64376Y930201D01*
X63318Y929763D01*
X62233Y929395D01*
X61126Y929098D01*
X60002Y928875D01*
X58866Y928725D01*
X57723Y928650D01*
X56577Y928650D01*
X55434Y928725D01*
X54298Y928875D01*
X53174Y929098D01*
X52067Y929395D01*
X50982Y929763D01*
X49924Y930201D01*
X48896Y930708D01*
X47904Y931281D01*
X46951Y931918D01*
X46042Y932615D01*
X45181Y933371D01*
X44371Y934181D01*
X43615Y935042D01*
X42918Y935951D01*
X42281Y936904D01*
X41708Y937896D01*
X41201Y938924D01*
X40763Y939982D01*
X40395Y941067D01*
X40098Y942174D01*
X39875Y943298D01*
X39725Y944434D01*
X39650Y945577D01*
X39650Y946723D01*
X39725Y947866D01*
X39875Y949002D01*
X40098Y950126D01*
X40395Y951233D01*
X40763Y952318D01*
X41201Y953376D01*
X41708Y954404D01*
X42281Y955396D01*
X42918Y956349D01*
X43615Y957258D01*
X44371Y958119D01*
X45181Y958929D01*
X46042Y959685D01*
X46951Y960382D01*
X47904Y961019D01*
X48896Y961592D01*
X49924Y962099D01*
X50982Y962537D01*
X52067Y962905D01*
X53174Y963202D01*
X54298Y963426D01*
X55434Y963575D01*
X56577Y963650D01*
X57723Y963650D01*
X58866Y963575D01*
X60002Y963426D01*
X61126Y963202D01*
X62233Y962905D01*
X63318Y962537D01*
X64376Y962099D01*
X65404Y961592D01*
X66396Y961019D01*
X67349Y960382D01*
X68258Y959685D01*
X69119Y958929D01*
X69929Y958119D01*
X70685Y957258D01*
X71382Y956349D01*
X72019Y955396D01*
X72592Y954404D01*
X73099Y953376D01*
X73537Y952318D01*
X73905Y951233D01*
X74202Y950126D01*
X74426Y949002D01*
X74575Y947866D01*
X74650Y946723D01*
X74650Y945577D01*
X1560550Y945577D02*
X1560475Y944434D01*
X1560326Y943298D01*
X1560102Y942174D01*
X1559805Y941067D01*
X1559437Y939982D01*
X1558999Y938924D01*
X1558492Y937896D01*
X1557919Y936904D01*
X1557282Y935951D01*
X1556585Y935042D01*
X1555829Y934181D01*
X1555019Y933371D01*
X1554158Y932615D01*
X1553249Y931918D01*
X1552296Y931281D01*
X1551304Y930708D01*
X1550276Y930201D01*
X1549218Y929763D01*
X1548133Y929395D01*
X1547026Y929098D01*
X1545902Y928875D01*
X1544766Y928725D01*
X1543623Y928650D01*
X1542477Y928650D01*
X1541334Y928725D01*
X1540198Y928875D01*
X1539074Y929098D01*
X1537967Y929395D01*
X1536882Y929763D01*
X1535824Y930201D01*
X1534796Y930708D01*
X1533804Y931281D01*
X1532851Y931918D01*
X1531942Y932615D01*
X1531081Y933371D01*
X1530271Y934181D01*
X1529515Y935042D01*
X1528818Y935951D01*
X1528181Y936904D01*
X1527608Y937896D01*
X1527101Y938924D01*
X1526663Y939982D01*
X1526295Y941067D01*
X1525998Y942174D01*
X1525775Y943298D01*
X1525625Y944434D01*
X1525550Y945577D01*
X1525550Y946723D01*
X1525625Y947866D01*
X1525775Y949002D01*
X1525998Y950126D01*
X1526295Y951233D01*
X1526663Y952318D01*
X1527101Y953376D01*
X1527608Y954404D01*
X1528181Y955396D01*
X1528818Y956349D01*
X1529515Y957258D01*
X1530271Y958119D01*
X1531081Y958929D01*
X1531942Y959685D01*
X1532851Y960382D01*
X1533804Y961019D01*
X1534796Y961592D01*
X1535824Y962099D01*
X1536882Y962537D01*
X1537967Y962905D01*
X1539074Y963202D01*
X1540198Y963426D01*
X1541334Y963575D01*
X1542477Y963650D01*
X1543623Y963650D01*
X1544766Y963575D01*
X1545902Y963426D01*
X1547026Y963202D01*
X1548133Y962905D01*
X1549218Y962537D01*
X1550276Y962099D01*
X1551304Y961592D01*
X1552296Y961019D01*
X1553249Y960382D01*
X1554158Y959685D01*
X1555019Y958929D01*
X1555829Y958119D01*
X1556585Y957258D01*
X1557282Y956349D01*
X1557919Y955396D01*
X1558492Y954404D01*
X1558999Y953376D01*
X1559437Y952318D01*
X1559805Y951233D01*
X1560102Y950126D01*
X1560326Y949002D01*
X1560475Y947866D01*
X1560550Y946723D01*
X1560550Y945577D01*
X61950Y50227D02*
X61875Y49084D01*
X61726Y47948D01*
X61502Y46824D01*
X61205Y45717D01*
X60837Y44632D01*
X60399Y43574D01*
X59892Y42546D01*
X59319Y41554D01*
X58682Y40601D01*
X57985Y39692D01*
X57229Y38831D01*
X56419Y38021D01*
X55558Y37265D01*
X54649Y36568D01*
X53696Y35931D01*
X52704Y35358D01*
X51676Y34851D01*
X50618Y34413D01*
X49533Y34045D01*
X48426Y33748D01*
X47302Y33525D01*
X46166Y33375D01*
X45023Y33300D01*
X43877Y33300D01*
X42734Y33375D01*
X41598Y33525D01*
X40474Y33748D01*
X39367Y34045D01*
X38282Y34413D01*
X37224Y34851D01*
X36196Y35358D01*
X35204Y35931D01*
X34251Y36568D01*
X33342Y37265D01*
X32481Y38021D01*
X31671Y38831D01*
X30915Y39692D01*
X30218Y40601D01*
X29581Y41554D01*
X29008Y42546D01*
X28501Y43574D01*
X28063Y44632D01*
X27695Y45717D01*
X27398Y46824D01*
X27175Y47948D01*
X27025Y49084D01*
X26950Y50227D01*
X26950Y51373D01*
X27025Y52516D01*
X27175Y53652D01*
X27398Y54776D01*
X27695Y55883D01*
X28063Y56968D01*
X28501Y58026D01*
X29008Y59054D01*
X29581Y60046D01*
X30218Y60999D01*
X30915Y61908D01*
X31671Y62769D01*
X32481Y63579D01*
X33342Y64335D01*
X34251Y65032D01*
X35204Y65669D01*
X36196Y66242D01*
X37224Y66749D01*
X38282Y67187D01*
X39367Y67555D01*
X40474Y67852D01*
X41598Y68076D01*
X42734Y68225D01*
X43877Y68300D01*
X45023Y68300D01*
X46166Y68225D01*
X47302Y68076D01*
X48426Y67852D01*
X49533Y67555D01*
X50618Y67187D01*
X51676Y66749D01*
X52704Y66242D01*
X53696Y65669D01*
X54649Y65032D01*
X55558Y64335D01*
X56419Y63579D01*
X57229Y62769D01*
X57985Y61908D01*
X58682Y60999D01*
X59319Y60046D01*
X59892Y59054D01*
X60399Y58026D01*
X60837Y56968D01*
X61205Y55883D01*
X61502Y54776D01*
X61726Y53652D01*
X61875Y52516D01*
X61950Y51373D01*
X61950Y50227D01*
X1566900Y50227D02*
X1566825Y49084D01*
X1566676Y47948D01*
X1566452Y46824D01*
X1566155Y45717D01*
X1565787Y44632D01*
X1565349Y43574D01*
X1564842Y42546D01*
X1564269Y41554D01*
X1563632Y40601D01*
X1562935Y39692D01*
X1562179Y38831D01*
X1561369Y38021D01*
X1560508Y37265D01*
X1559599Y36568D01*
X1558646Y35931D01*
X1557654Y35358D01*
X1556626Y34851D01*
X1555568Y34413D01*
X1554483Y34045D01*
X1553376Y33748D01*
X1552252Y33525D01*
X1551116Y33375D01*
X1549973Y33300D01*
X1548827Y33300D01*
X1547684Y33375D01*
X1546548Y33525D01*
X1545424Y33748D01*
X1544317Y34045D01*
X1543232Y34413D01*
X1542174Y34851D01*
X1541146Y35358D01*
X1540154Y35931D01*
X1539201Y36568D01*
X1538292Y37265D01*
X1537431Y38021D01*
X1536621Y38831D01*
X1535865Y39692D01*
X1535168Y40601D01*
X1534531Y41554D01*
X1533958Y42546D01*
X1533451Y43574D01*
X1533013Y44632D01*
X1532645Y45717D01*
X1532348Y46824D01*
X1532125Y47948D01*
X1531975Y49084D01*
X1531900Y50227D01*
X1531900Y51373D01*
X1531975Y52516D01*
X1532125Y53652D01*
X1532348Y54776D01*
X1532645Y55883D01*
X1533013Y56968D01*
X1533451Y58026D01*
X1533958Y59054D01*
X1534531Y60046D01*
X1535168Y60999D01*
X1535865Y61908D01*
X1536621Y62769D01*
X1537431Y63579D01*
X1538292Y64335D01*
X1539201Y65032D01*
X1540154Y65669D01*
X1541146Y66242D01*
X1542174Y66749D01*
X1543232Y67187D01*
X1544317Y67555D01*
X1545424Y67852D01*
X1546548Y68076D01*
X1547684Y68225D01*
X1548827Y68300D01*
X1549973Y68300D01*
X1551116Y68225D01*
X1552252Y68076D01*
X1553376Y67852D01*
X1554483Y67555D01*
X1555568Y67187D01*
X1556626Y66749D01*
X1557654Y66242D01*
X1558646Y65669D01*
X1559599Y65032D01*
X1560508Y64335D01*
X1561369Y63579D01*
X1562179Y62769D01*
X1562935Y61908D01*
X1563632Y60999D01*
X1564269Y60046D01*
X1564842Y59054D01*
X1565349Y58026D01*
X1565787Y56968D01*
X1566155Y55883D01*
X1566452Y54776D01*
X1566676Y53652D01*
X1566825Y52516D01*
X1566900Y51373D01*
X1566900Y50227D01*
M02*
