G04 EAGLE Gerber RS-274X export*
G75*
%MOMM*%
%FSLAX34Y34*%
%LPD*%
%INSoldermask Bottom*%
%IPPOS*%
%AMOC8*
5,1,8,0,0,1.08239X$1,22.5*%
G01*
%ADD10C,3.703200*%
%ADD11P,1.951982X8X22.500000*%
%ADD12C,1.803400*%
%ADD13C,2.743200*%
%ADD14C,1.524000*%
%ADD15P,1.649562X8X202.500000*%
%ADD16P,1.649562X8X22.500000*%
%ADD17P,1.649562X8X112.500000*%
%ADD18P,1.649562X8X292.500000*%
%ADD19C,2.082800*%
%ADD20C,1.625600*%
%ADD21C,1.625600*%
%ADD22C,1.611200*%
%ADD23C,1.511200*%
%ADD24C,1.511200*%
%ADD25R,1.511200X1.511200*%
%ADD26C,2.298700*%
%ADD27C,0.959600*%

G36*
X121474Y457713D02*
X121474Y457713D01*
X121495Y457711D01*
X123186Y457863D01*
X123232Y457876D01*
X123308Y457886D01*
X124937Y458365D01*
X124965Y458379D01*
X124986Y458383D01*
X125011Y458397D01*
X125052Y458412D01*
X126556Y459199D01*
X126595Y459228D01*
X126660Y459267D01*
X127982Y460333D01*
X128014Y460369D01*
X128071Y460420D01*
X129160Y461723D01*
X129183Y461764D01*
X129230Y461825D01*
X130043Y463316D01*
X130058Y463361D01*
X130092Y463430D01*
X130599Y465050D01*
X130605Y465098D01*
X130624Y465172D01*
X130805Y466855D01*
X130830Y467053D01*
X130827Y467104D01*
X130831Y467195D01*
X130658Y468904D01*
X130645Y468950D01*
X130633Y469026D01*
X130130Y470668D01*
X130108Y470711D01*
X130082Y470783D01*
X129268Y472296D01*
X129238Y472333D01*
X129198Y472399D01*
X128105Y473723D01*
X128068Y473755D01*
X128017Y473811D01*
X126686Y474897D01*
X126643Y474920D01*
X126582Y474966D01*
X125065Y475771D01*
X125019Y475786D01*
X124950Y475818D01*
X124097Y476074D01*
X123304Y476312D01*
X123257Y476318D01*
X123182Y476336D01*
X121595Y476488D01*
X121578Y476495D01*
X121484Y476536D01*
X121474Y476536D01*
X121466Y476540D01*
X121279Y476551D01*
X119600Y476398D01*
X119553Y476385D01*
X119478Y476375D01*
X117861Y475897D01*
X117818Y475876D01*
X117746Y475851D01*
X116254Y475067D01*
X116216Y475037D01*
X116150Y474999D01*
X114839Y473939D01*
X114808Y473903D01*
X114751Y473852D01*
X113672Y472557D01*
X113648Y472515D01*
X113602Y472454D01*
X112796Y470973D01*
X112781Y470928D01*
X112748Y470859D01*
X112247Y469250D01*
X112241Y469202D01*
X112222Y469128D01*
X112047Y467475D01*
X112000Y467219D01*
X112000Y467197D01*
X111993Y467037D01*
X112178Y465320D01*
X112191Y465273D01*
X112203Y465198D01*
X112719Y463549D01*
X112741Y463506D01*
X112767Y463435D01*
X113595Y461918D01*
X113625Y461880D01*
X113665Y461815D01*
X114773Y460489D01*
X114809Y460458D01*
X114861Y460402D01*
X116206Y459318D01*
X116248Y459295D01*
X116310Y459249D01*
X117841Y458448D01*
X117887Y458434D01*
X117956Y458402D01*
X119613Y457914D01*
X119661Y457909D01*
X119736Y457891D01*
X121204Y457759D01*
X121232Y457743D01*
X121271Y457737D01*
X121308Y457722D01*
X121404Y457717D01*
X121454Y457709D01*
X121474Y457713D01*
G37*
G36*
X56450Y457688D02*
X56450Y457688D01*
X56471Y457686D01*
X58162Y457838D01*
X58208Y457851D01*
X58284Y457861D01*
X59913Y458340D01*
X59941Y458354D01*
X59962Y458358D01*
X59987Y458372D01*
X60028Y458387D01*
X61532Y459174D01*
X61571Y459203D01*
X61636Y459242D01*
X62958Y460308D01*
X62990Y460344D01*
X63047Y460395D01*
X64136Y461698D01*
X64159Y461739D01*
X64206Y461800D01*
X65019Y463291D01*
X65034Y463336D01*
X65068Y463405D01*
X65575Y465025D01*
X65581Y465073D01*
X65600Y465147D01*
X65781Y466830D01*
X65806Y467028D01*
X65803Y467079D01*
X65807Y467170D01*
X65634Y468879D01*
X65621Y468925D01*
X65609Y469001D01*
X65106Y470643D01*
X65084Y470686D01*
X65058Y470758D01*
X64244Y472271D01*
X64214Y472308D01*
X64174Y472374D01*
X63081Y473698D01*
X63044Y473730D01*
X62993Y473786D01*
X61662Y474872D01*
X61619Y474895D01*
X61558Y474941D01*
X60041Y475746D01*
X59995Y475761D01*
X59926Y475793D01*
X59073Y476049D01*
X58280Y476287D01*
X58233Y476293D01*
X58158Y476311D01*
X56571Y476463D01*
X56554Y476470D01*
X56460Y476511D01*
X56450Y476511D01*
X56442Y476515D01*
X56255Y476526D01*
X54576Y476373D01*
X54529Y476360D01*
X54454Y476350D01*
X52837Y475872D01*
X52794Y475851D01*
X52722Y475826D01*
X51230Y475042D01*
X51192Y475012D01*
X51126Y474974D01*
X49815Y473914D01*
X49784Y473878D01*
X49727Y473827D01*
X48648Y472532D01*
X48624Y472490D01*
X48578Y472429D01*
X47772Y470948D01*
X47757Y470903D01*
X47724Y470834D01*
X47223Y469225D01*
X47217Y469177D01*
X47198Y469103D01*
X47023Y467450D01*
X46976Y467194D01*
X46976Y467172D01*
X46969Y467012D01*
X47154Y465295D01*
X47167Y465248D01*
X47179Y465173D01*
X47695Y463524D01*
X47717Y463481D01*
X47743Y463410D01*
X48571Y461893D01*
X48601Y461855D01*
X48641Y461790D01*
X49749Y460464D01*
X49785Y460433D01*
X49837Y460377D01*
X51182Y459293D01*
X51224Y459270D01*
X51286Y459224D01*
X52817Y458423D01*
X52863Y458409D01*
X52932Y458377D01*
X54589Y457889D01*
X54637Y457884D01*
X54712Y457866D01*
X56180Y457734D01*
X56208Y457718D01*
X56247Y457712D01*
X56284Y457697D01*
X56380Y457692D01*
X56430Y457684D01*
X56450Y457688D01*
G37*
G36*
X56450Y412450D02*
X56450Y412450D01*
X56471Y412448D01*
X58162Y412600D01*
X58208Y412613D01*
X58284Y412623D01*
X59913Y413102D01*
X59941Y413116D01*
X59962Y413120D01*
X59987Y413134D01*
X60028Y413149D01*
X61532Y413936D01*
X61571Y413965D01*
X61636Y414004D01*
X62958Y415070D01*
X62990Y415106D01*
X63047Y415157D01*
X64136Y416460D01*
X64159Y416501D01*
X64206Y416562D01*
X65019Y418053D01*
X65034Y418098D01*
X65068Y418167D01*
X65575Y419787D01*
X65581Y419835D01*
X65600Y419909D01*
X65781Y421592D01*
X65806Y421790D01*
X65803Y421841D01*
X65807Y421932D01*
X65634Y423641D01*
X65621Y423687D01*
X65609Y423763D01*
X65106Y425405D01*
X65084Y425448D01*
X65058Y425520D01*
X64244Y427033D01*
X64214Y427070D01*
X64174Y427136D01*
X63081Y428460D01*
X63044Y428492D01*
X62993Y428548D01*
X61662Y429634D01*
X61619Y429657D01*
X61558Y429703D01*
X60041Y430508D01*
X59995Y430523D01*
X59926Y430555D01*
X59073Y430811D01*
X58280Y431049D01*
X58233Y431055D01*
X58158Y431073D01*
X56571Y431225D01*
X56554Y431232D01*
X56460Y431273D01*
X56450Y431273D01*
X56442Y431277D01*
X56255Y431288D01*
X54576Y431135D01*
X54529Y431122D01*
X54454Y431112D01*
X52837Y430634D01*
X52794Y430613D01*
X52722Y430588D01*
X51230Y429804D01*
X51192Y429774D01*
X51126Y429736D01*
X49815Y428676D01*
X49784Y428640D01*
X49727Y428589D01*
X48648Y427294D01*
X48624Y427252D01*
X48578Y427191D01*
X47772Y425710D01*
X47757Y425665D01*
X47724Y425596D01*
X47223Y423987D01*
X47217Y423939D01*
X47198Y423865D01*
X47023Y422212D01*
X46976Y421956D01*
X46976Y421934D01*
X46969Y421774D01*
X47154Y420057D01*
X47167Y420010D01*
X47179Y419935D01*
X47695Y418286D01*
X47717Y418243D01*
X47743Y418172D01*
X48571Y416655D01*
X48601Y416617D01*
X48641Y416552D01*
X49749Y415226D01*
X49785Y415195D01*
X49837Y415139D01*
X51182Y414055D01*
X51224Y414032D01*
X51286Y413986D01*
X52817Y413185D01*
X52863Y413171D01*
X52932Y413139D01*
X54589Y412651D01*
X54637Y412646D01*
X54712Y412628D01*
X56180Y412496D01*
X56208Y412480D01*
X56247Y412474D01*
X56284Y412459D01*
X56380Y412454D01*
X56430Y412446D01*
X56450Y412450D01*
G37*
G36*
X121525Y412425D02*
X121525Y412425D01*
X121546Y412423D01*
X123237Y412575D01*
X123283Y412588D01*
X123359Y412598D01*
X124988Y413077D01*
X125016Y413091D01*
X125037Y413095D01*
X125062Y413109D01*
X125103Y413124D01*
X126607Y413911D01*
X126646Y413940D01*
X126711Y413979D01*
X128033Y415045D01*
X128065Y415081D01*
X128122Y415132D01*
X129211Y416435D01*
X129234Y416476D01*
X129281Y416537D01*
X130094Y418028D01*
X130109Y418073D01*
X130143Y418142D01*
X130650Y419762D01*
X130656Y419810D01*
X130675Y419884D01*
X130856Y421567D01*
X130881Y421765D01*
X130878Y421816D01*
X130882Y421907D01*
X130709Y423616D01*
X130696Y423662D01*
X130684Y423738D01*
X130181Y425380D01*
X130159Y425423D01*
X130133Y425495D01*
X129319Y427008D01*
X129289Y427045D01*
X129249Y427111D01*
X128156Y428435D01*
X128119Y428467D01*
X128068Y428523D01*
X126737Y429609D01*
X126694Y429632D01*
X126633Y429678D01*
X125116Y430483D01*
X125070Y430498D01*
X125001Y430530D01*
X124148Y430786D01*
X123355Y431024D01*
X123308Y431030D01*
X123233Y431048D01*
X121646Y431200D01*
X121629Y431207D01*
X121535Y431248D01*
X121525Y431248D01*
X121517Y431252D01*
X121330Y431263D01*
X119651Y431110D01*
X119604Y431097D01*
X119529Y431087D01*
X117912Y430609D01*
X117869Y430588D01*
X117797Y430563D01*
X116305Y429779D01*
X116267Y429749D01*
X116201Y429711D01*
X114890Y428651D01*
X114859Y428615D01*
X114802Y428564D01*
X113723Y427269D01*
X113699Y427227D01*
X113653Y427166D01*
X112847Y425685D01*
X112832Y425640D01*
X112799Y425571D01*
X112298Y423962D01*
X112292Y423914D01*
X112273Y423840D01*
X112098Y422187D01*
X112051Y421931D01*
X112051Y421909D01*
X112044Y421749D01*
X112229Y420032D01*
X112242Y419985D01*
X112254Y419910D01*
X112770Y418261D01*
X112792Y418218D01*
X112818Y418147D01*
X113646Y416630D01*
X113676Y416592D01*
X113716Y416527D01*
X114824Y415201D01*
X114860Y415170D01*
X114912Y415114D01*
X116257Y414030D01*
X116299Y414007D01*
X116361Y413961D01*
X117892Y413160D01*
X117938Y413146D01*
X118007Y413114D01*
X119664Y412626D01*
X119712Y412621D01*
X119787Y412603D01*
X121255Y412471D01*
X121283Y412455D01*
X121322Y412449D01*
X121359Y412434D01*
X121455Y412429D01*
X121505Y412421D01*
X121525Y412425D01*
G37*
G36*
X1366249Y940490D02*
X1366249Y940490D01*
X1366296Y940503D01*
X1366371Y940513D01*
X1367988Y940991D01*
X1368016Y941005D01*
X1368037Y941009D01*
X1368061Y941023D01*
X1368103Y941037D01*
X1369595Y941821D01*
X1369633Y941851D01*
X1369699Y941889D01*
X1371010Y942949D01*
X1371041Y942985D01*
X1371098Y943036D01*
X1372177Y944331D01*
X1372201Y944373D01*
X1372247Y944434D01*
X1373053Y945915D01*
X1373068Y945960D01*
X1373101Y946029D01*
X1373602Y947638D01*
X1373608Y947686D01*
X1373627Y947760D01*
X1373802Y949413D01*
X1373849Y949669D01*
X1373849Y949691D01*
X1373856Y949851D01*
X1373671Y951569D01*
X1373658Y951615D01*
X1373646Y951690D01*
X1373130Y953339D01*
X1373108Y953382D01*
X1373082Y953453D01*
X1372254Y954970D01*
X1372224Y955008D01*
X1372184Y955073D01*
X1371077Y956399D01*
X1371040Y956430D01*
X1370988Y956486D01*
X1369643Y957570D01*
X1369601Y957593D01*
X1369539Y957639D01*
X1368008Y958440D01*
X1367962Y958454D01*
X1367893Y958486D01*
X1366236Y958974D01*
X1366188Y958979D01*
X1366114Y958997D01*
X1364645Y959129D01*
X1364617Y959145D01*
X1364578Y959151D01*
X1364541Y959166D01*
X1364445Y959171D01*
X1364395Y959179D01*
X1364375Y959176D01*
X1364354Y959177D01*
X1362663Y959025D01*
X1362617Y959012D01*
X1362541Y959002D01*
X1360912Y958523D01*
X1360869Y958502D01*
X1360797Y958476D01*
X1359293Y957689D01*
X1359255Y957660D01*
X1359189Y957621D01*
X1357867Y956555D01*
X1357835Y956519D01*
X1357778Y956468D01*
X1356689Y955165D01*
X1356666Y955124D01*
X1356619Y955063D01*
X1355806Y953572D01*
X1355791Y953527D01*
X1355757Y953458D01*
X1355250Y951838D01*
X1355244Y951790D01*
X1355225Y951716D01*
X1355044Y950033D01*
X1355020Y949835D01*
X1355022Y949784D01*
X1355018Y949693D01*
X1355191Y947984D01*
X1355205Y947938D01*
X1355216Y947862D01*
X1355719Y946220D01*
X1355741Y946177D01*
X1355767Y946105D01*
X1356581Y944592D01*
X1356611Y944555D01*
X1356651Y944489D01*
X1357744Y943165D01*
X1357781Y943133D01*
X1357832Y943077D01*
X1359163Y941991D01*
X1359206Y941968D01*
X1359267Y941922D01*
X1360784Y941117D01*
X1360830Y941102D01*
X1360899Y941070D01*
X1361142Y940997D01*
X1361143Y940997D01*
X1362545Y940576D01*
X1362592Y940570D01*
X1362667Y940552D01*
X1364254Y940400D01*
X1364271Y940394D01*
X1364365Y940352D01*
X1364375Y940352D01*
X1364383Y940348D01*
X1364570Y940337D01*
X1366249Y940490D01*
G37*
G36*
X959849Y940490D02*
X959849Y940490D01*
X959896Y940503D01*
X959971Y940513D01*
X961588Y940991D01*
X961616Y941005D01*
X961637Y941009D01*
X961661Y941023D01*
X961703Y941037D01*
X963195Y941821D01*
X963233Y941851D01*
X963299Y941889D01*
X964610Y942949D01*
X964641Y942985D01*
X964698Y943036D01*
X965777Y944331D01*
X965801Y944373D01*
X965847Y944434D01*
X966653Y945915D01*
X966668Y945960D01*
X966701Y946029D01*
X967202Y947638D01*
X967208Y947686D01*
X967227Y947760D01*
X967402Y949413D01*
X967449Y949669D01*
X967449Y949691D01*
X967456Y949851D01*
X967271Y951569D01*
X967258Y951615D01*
X967246Y951690D01*
X966730Y953339D01*
X966708Y953382D01*
X966682Y953453D01*
X965854Y954970D01*
X965824Y955008D01*
X965784Y955073D01*
X964677Y956399D01*
X964640Y956430D01*
X964588Y956486D01*
X963243Y957570D01*
X963201Y957593D01*
X963139Y957639D01*
X961608Y958440D01*
X961562Y958454D01*
X961493Y958486D01*
X959836Y958974D01*
X959788Y958979D01*
X959714Y958997D01*
X958245Y959129D01*
X958217Y959145D01*
X958178Y959151D01*
X958141Y959166D01*
X958045Y959171D01*
X957995Y959179D01*
X957975Y959176D01*
X957954Y959177D01*
X956263Y959025D01*
X956217Y959012D01*
X956141Y959002D01*
X954512Y958523D01*
X954469Y958502D01*
X954397Y958476D01*
X952893Y957689D01*
X952855Y957660D01*
X952789Y957621D01*
X951467Y956555D01*
X951435Y956519D01*
X951378Y956468D01*
X950289Y955165D01*
X950266Y955124D01*
X950219Y955063D01*
X949406Y953572D01*
X949391Y953527D01*
X949357Y953458D01*
X948850Y951838D01*
X948844Y951790D01*
X948825Y951716D01*
X948644Y950033D01*
X948620Y949835D01*
X948622Y949784D01*
X948618Y949693D01*
X948791Y947984D01*
X948805Y947938D01*
X948816Y947862D01*
X949319Y946220D01*
X949341Y946177D01*
X949367Y946105D01*
X950181Y944592D01*
X950211Y944555D01*
X950251Y944489D01*
X951344Y943165D01*
X951381Y943133D01*
X951432Y943077D01*
X952763Y941991D01*
X952806Y941968D01*
X952867Y941922D01*
X954384Y941117D01*
X954430Y941102D01*
X954499Y941070D01*
X954742Y940997D01*
X954743Y940997D01*
X956145Y940576D01*
X956192Y940570D01*
X956267Y940552D01*
X957854Y940400D01*
X957871Y940394D01*
X957965Y940352D01*
X957975Y940352D01*
X957983Y940348D01*
X958170Y940337D01*
X959849Y940490D01*
G37*
G36*
X1264649Y940490D02*
X1264649Y940490D01*
X1264696Y940503D01*
X1264771Y940513D01*
X1266388Y940991D01*
X1266416Y941005D01*
X1266437Y941009D01*
X1266461Y941023D01*
X1266503Y941037D01*
X1267995Y941821D01*
X1268033Y941851D01*
X1268099Y941889D01*
X1269410Y942949D01*
X1269441Y942985D01*
X1269498Y943036D01*
X1270577Y944331D01*
X1270601Y944373D01*
X1270647Y944434D01*
X1271453Y945915D01*
X1271468Y945960D01*
X1271501Y946029D01*
X1272002Y947638D01*
X1272008Y947686D01*
X1272027Y947760D01*
X1272202Y949413D01*
X1272249Y949669D01*
X1272249Y949691D01*
X1272256Y949851D01*
X1272071Y951569D01*
X1272058Y951615D01*
X1272046Y951690D01*
X1271530Y953339D01*
X1271508Y953382D01*
X1271482Y953453D01*
X1270654Y954970D01*
X1270624Y955008D01*
X1270584Y955073D01*
X1269477Y956399D01*
X1269440Y956430D01*
X1269388Y956486D01*
X1268043Y957570D01*
X1268001Y957593D01*
X1267939Y957639D01*
X1266408Y958440D01*
X1266362Y958454D01*
X1266293Y958486D01*
X1264636Y958974D01*
X1264588Y958979D01*
X1264514Y958997D01*
X1263045Y959129D01*
X1263017Y959145D01*
X1262978Y959151D01*
X1262941Y959166D01*
X1262845Y959171D01*
X1262795Y959179D01*
X1262775Y959176D01*
X1262754Y959177D01*
X1261063Y959025D01*
X1261017Y959012D01*
X1260941Y959002D01*
X1259312Y958523D01*
X1259269Y958502D01*
X1259197Y958476D01*
X1257693Y957689D01*
X1257655Y957660D01*
X1257589Y957621D01*
X1256267Y956555D01*
X1256235Y956519D01*
X1256178Y956468D01*
X1255089Y955165D01*
X1255066Y955124D01*
X1255019Y955063D01*
X1254206Y953572D01*
X1254191Y953527D01*
X1254157Y953458D01*
X1253650Y951838D01*
X1253644Y951790D01*
X1253625Y951716D01*
X1253444Y950033D01*
X1253420Y949835D01*
X1253422Y949784D01*
X1253418Y949693D01*
X1253591Y947984D01*
X1253605Y947938D01*
X1253616Y947862D01*
X1254119Y946220D01*
X1254141Y946177D01*
X1254167Y946105D01*
X1254981Y944592D01*
X1255011Y944555D01*
X1255051Y944489D01*
X1256144Y943165D01*
X1256181Y943133D01*
X1256232Y943077D01*
X1257563Y941991D01*
X1257606Y941968D01*
X1257667Y941922D01*
X1259184Y941117D01*
X1259230Y941102D01*
X1259299Y941070D01*
X1259542Y940997D01*
X1259543Y940997D01*
X1260945Y940576D01*
X1260992Y940570D01*
X1261067Y940552D01*
X1262654Y940400D01*
X1262671Y940394D01*
X1262765Y940352D01*
X1262775Y940352D01*
X1262783Y940348D01*
X1262970Y940337D01*
X1264649Y940490D01*
G37*
G36*
X1061449Y940490D02*
X1061449Y940490D01*
X1061496Y940503D01*
X1061571Y940513D01*
X1063188Y940991D01*
X1063216Y941005D01*
X1063237Y941009D01*
X1063261Y941023D01*
X1063303Y941037D01*
X1064795Y941821D01*
X1064833Y941851D01*
X1064899Y941889D01*
X1066210Y942949D01*
X1066241Y942985D01*
X1066298Y943036D01*
X1067377Y944331D01*
X1067401Y944373D01*
X1067447Y944434D01*
X1068253Y945915D01*
X1068268Y945960D01*
X1068301Y946029D01*
X1068802Y947638D01*
X1068808Y947686D01*
X1068827Y947760D01*
X1069002Y949413D01*
X1069049Y949669D01*
X1069049Y949691D01*
X1069056Y949851D01*
X1068871Y951569D01*
X1068858Y951615D01*
X1068846Y951690D01*
X1068330Y953339D01*
X1068308Y953382D01*
X1068282Y953453D01*
X1067454Y954970D01*
X1067424Y955008D01*
X1067384Y955073D01*
X1066277Y956399D01*
X1066240Y956430D01*
X1066188Y956486D01*
X1064843Y957570D01*
X1064801Y957593D01*
X1064739Y957639D01*
X1063208Y958440D01*
X1063162Y958454D01*
X1063093Y958486D01*
X1061436Y958974D01*
X1061388Y958979D01*
X1061314Y958997D01*
X1059845Y959129D01*
X1059817Y959145D01*
X1059778Y959151D01*
X1059741Y959166D01*
X1059645Y959171D01*
X1059595Y959179D01*
X1059575Y959176D01*
X1059554Y959177D01*
X1057863Y959025D01*
X1057817Y959012D01*
X1057741Y959002D01*
X1056112Y958523D01*
X1056069Y958502D01*
X1055997Y958476D01*
X1054493Y957689D01*
X1054455Y957660D01*
X1054389Y957621D01*
X1053067Y956555D01*
X1053035Y956519D01*
X1052978Y956468D01*
X1051889Y955165D01*
X1051866Y955124D01*
X1051819Y955063D01*
X1051006Y953572D01*
X1050991Y953527D01*
X1050957Y953458D01*
X1050450Y951838D01*
X1050444Y951790D01*
X1050425Y951716D01*
X1050244Y950033D01*
X1050220Y949835D01*
X1050222Y949784D01*
X1050218Y949693D01*
X1050391Y947984D01*
X1050405Y947938D01*
X1050416Y947862D01*
X1050919Y946220D01*
X1050941Y946177D01*
X1050967Y946105D01*
X1051781Y944592D01*
X1051811Y944555D01*
X1051851Y944489D01*
X1052944Y943165D01*
X1052981Y943133D01*
X1053032Y943077D01*
X1054363Y941991D01*
X1054406Y941968D01*
X1054467Y941922D01*
X1055984Y941117D01*
X1056030Y941102D01*
X1056099Y941070D01*
X1056342Y940997D01*
X1056343Y940997D01*
X1057745Y940576D01*
X1057792Y940570D01*
X1057867Y940552D01*
X1059454Y940400D01*
X1059471Y940394D01*
X1059565Y940352D01*
X1059575Y940352D01*
X1059583Y940348D01*
X1059770Y940337D01*
X1061449Y940490D01*
G37*
G36*
X1163049Y940490D02*
X1163049Y940490D01*
X1163096Y940503D01*
X1163171Y940513D01*
X1164788Y940991D01*
X1164816Y941005D01*
X1164837Y941009D01*
X1164861Y941023D01*
X1164903Y941037D01*
X1166395Y941821D01*
X1166433Y941851D01*
X1166499Y941889D01*
X1167810Y942949D01*
X1167841Y942985D01*
X1167898Y943036D01*
X1168977Y944331D01*
X1169001Y944373D01*
X1169047Y944434D01*
X1169853Y945915D01*
X1169868Y945960D01*
X1169901Y946029D01*
X1170402Y947638D01*
X1170408Y947686D01*
X1170427Y947760D01*
X1170602Y949413D01*
X1170649Y949669D01*
X1170649Y949691D01*
X1170656Y949851D01*
X1170471Y951569D01*
X1170458Y951615D01*
X1170446Y951690D01*
X1169930Y953339D01*
X1169908Y953382D01*
X1169882Y953453D01*
X1169054Y954970D01*
X1169024Y955008D01*
X1168984Y955073D01*
X1167877Y956399D01*
X1167840Y956430D01*
X1167788Y956486D01*
X1166443Y957570D01*
X1166401Y957593D01*
X1166339Y957639D01*
X1164808Y958440D01*
X1164762Y958454D01*
X1164693Y958486D01*
X1163036Y958974D01*
X1162988Y958979D01*
X1162914Y958997D01*
X1161445Y959129D01*
X1161417Y959145D01*
X1161378Y959151D01*
X1161341Y959166D01*
X1161245Y959171D01*
X1161195Y959179D01*
X1161175Y959176D01*
X1161154Y959177D01*
X1159463Y959025D01*
X1159417Y959012D01*
X1159341Y959002D01*
X1157712Y958523D01*
X1157669Y958502D01*
X1157597Y958476D01*
X1156093Y957689D01*
X1156055Y957660D01*
X1155989Y957621D01*
X1154667Y956555D01*
X1154635Y956519D01*
X1154578Y956468D01*
X1153489Y955165D01*
X1153466Y955124D01*
X1153419Y955063D01*
X1152606Y953572D01*
X1152591Y953527D01*
X1152557Y953458D01*
X1152050Y951838D01*
X1152044Y951790D01*
X1152025Y951716D01*
X1151844Y950033D01*
X1151820Y949835D01*
X1151822Y949784D01*
X1151818Y949693D01*
X1151991Y947984D01*
X1152005Y947938D01*
X1152016Y947862D01*
X1152519Y946220D01*
X1152541Y946177D01*
X1152567Y946105D01*
X1153381Y944592D01*
X1153411Y944555D01*
X1153451Y944489D01*
X1154544Y943165D01*
X1154581Y943133D01*
X1154632Y943077D01*
X1155963Y941991D01*
X1156006Y941968D01*
X1156067Y941922D01*
X1157584Y941117D01*
X1157630Y941102D01*
X1157699Y941070D01*
X1157942Y940997D01*
X1157943Y940997D01*
X1159345Y940576D01*
X1159392Y940570D01*
X1159467Y940552D01*
X1161054Y940400D01*
X1161071Y940394D01*
X1161165Y940352D01*
X1161175Y940352D01*
X1161183Y940348D01*
X1161370Y940337D01*
X1163049Y940490D01*
G37*
G36*
X858249Y940490D02*
X858249Y940490D01*
X858296Y940503D01*
X858371Y940513D01*
X859988Y940991D01*
X860016Y941005D01*
X860037Y941009D01*
X860061Y941023D01*
X860103Y941037D01*
X861595Y941821D01*
X861633Y941851D01*
X861699Y941889D01*
X863010Y942949D01*
X863041Y942985D01*
X863098Y943036D01*
X864177Y944331D01*
X864201Y944373D01*
X864247Y944434D01*
X865053Y945915D01*
X865068Y945960D01*
X865101Y946029D01*
X865602Y947638D01*
X865608Y947686D01*
X865627Y947760D01*
X865802Y949413D01*
X865849Y949669D01*
X865849Y949691D01*
X865856Y949851D01*
X865671Y951569D01*
X865658Y951615D01*
X865646Y951690D01*
X865130Y953339D01*
X865108Y953382D01*
X865082Y953453D01*
X864254Y954970D01*
X864224Y955008D01*
X864184Y955073D01*
X863077Y956399D01*
X863040Y956430D01*
X862988Y956486D01*
X861643Y957570D01*
X861601Y957593D01*
X861539Y957639D01*
X860008Y958440D01*
X859962Y958454D01*
X859893Y958486D01*
X858236Y958974D01*
X858188Y958979D01*
X858114Y958997D01*
X856645Y959129D01*
X856617Y959145D01*
X856578Y959151D01*
X856541Y959166D01*
X856445Y959171D01*
X856395Y959179D01*
X856375Y959176D01*
X856354Y959177D01*
X854663Y959025D01*
X854617Y959012D01*
X854541Y959002D01*
X852912Y958523D01*
X852869Y958502D01*
X852797Y958476D01*
X851293Y957689D01*
X851255Y957660D01*
X851189Y957621D01*
X849867Y956555D01*
X849835Y956519D01*
X849778Y956468D01*
X848689Y955165D01*
X848666Y955124D01*
X848619Y955063D01*
X847806Y953572D01*
X847791Y953527D01*
X847757Y953458D01*
X847250Y951838D01*
X847244Y951790D01*
X847225Y951716D01*
X847044Y950033D01*
X847020Y949835D01*
X847022Y949784D01*
X847018Y949693D01*
X847191Y947984D01*
X847205Y947938D01*
X847216Y947862D01*
X847719Y946220D01*
X847741Y946177D01*
X847767Y946105D01*
X848581Y944592D01*
X848611Y944555D01*
X848651Y944489D01*
X849744Y943165D01*
X849781Y943133D01*
X849832Y943077D01*
X851163Y941991D01*
X851206Y941968D01*
X851267Y941922D01*
X852784Y941117D01*
X852830Y941102D01*
X852899Y941070D01*
X853142Y940997D01*
X853143Y940997D01*
X854545Y940576D01*
X854592Y940570D01*
X854667Y940552D01*
X856254Y940400D01*
X856271Y940394D01*
X856365Y940352D01*
X856375Y940352D01*
X856383Y940348D01*
X856570Y940337D01*
X858249Y940490D01*
G37*
G36*
X756649Y940490D02*
X756649Y940490D01*
X756696Y940503D01*
X756771Y940513D01*
X758388Y940991D01*
X758416Y941005D01*
X758437Y941009D01*
X758461Y941023D01*
X758503Y941037D01*
X759995Y941821D01*
X760033Y941851D01*
X760099Y941889D01*
X761410Y942949D01*
X761441Y942985D01*
X761498Y943036D01*
X762577Y944331D01*
X762601Y944373D01*
X762647Y944434D01*
X763453Y945915D01*
X763468Y945960D01*
X763501Y946029D01*
X764002Y947638D01*
X764008Y947686D01*
X764027Y947760D01*
X764202Y949413D01*
X764249Y949669D01*
X764249Y949691D01*
X764256Y949851D01*
X764071Y951569D01*
X764058Y951615D01*
X764046Y951690D01*
X763530Y953339D01*
X763508Y953382D01*
X763482Y953453D01*
X762654Y954970D01*
X762624Y955008D01*
X762584Y955073D01*
X761477Y956399D01*
X761440Y956430D01*
X761388Y956486D01*
X760043Y957570D01*
X760001Y957593D01*
X759939Y957639D01*
X758408Y958440D01*
X758362Y958454D01*
X758293Y958486D01*
X756636Y958974D01*
X756588Y958979D01*
X756514Y958997D01*
X755045Y959129D01*
X755017Y959145D01*
X754978Y959151D01*
X754941Y959166D01*
X754845Y959171D01*
X754795Y959179D01*
X754775Y959176D01*
X754754Y959177D01*
X753063Y959025D01*
X753017Y959012D01*
X752941Y959002D01*
X751312Y958523D01*
X751269Y958502D01*
X751197Y958476D01*
X749693Y957689D01*
X749655Y957660D01*
X749589Y957621D01*
X748267Y956555D01*
X748235Y956519D01*
X748178Y956468D01*
X747089Y955165D01*
X747066Y955124D01*
X747019Y955063D01*
X746206Y953572D01*
X746191Y953527D01*
X746157Y953458D01*
X745650Y951838D01*
X745644Y951790D01*
X745625Y951716D01*
X745444Y950033D01*
X745420Y949835D01*
X745422Y949784D01*
X745418Y949693D01*
X745591Y947984D01*
X745605Y947938D01*
X745616Y947862D01*
X746119Y946220D01*
X746141Y946177D01*
X746167Y946105D01*
X746981Y944592D01*
X747011Y944555D01*
X747051Y944489D01*
X748144Y943165D01*
X748181Y943133D01*
X748232Y943077D01*
X749563Y941991D01*
X749606Y941968D01*
X749667Y941922D01*
X751184Y941117D01*
X751230Y941102D01*
X751299Y941070D01*
X751542Y940997D01*
X751543Y940997D01*
X752945Y940576D01*
X752992Y940570D01*
X753067Y940552D01*
X754654Y940400D01*
X754671Y940394D01*
X754765Y940352D01*
X754775Y940352D01*
X754783Y940348D01*
X754970Y940337D01*
X756649Y940490D01*
G37*
G36*
X1431324Y940465D02*
X1431324Y940465D01*
X1431371Y940478D01*
X1431446Y940488D01*
X1433063Y940966D01*
X1433091Y940980D01*
X1433112Y940984D01*
X1433136Y940998D01*
X1433178Y941012D01*
X1434670Y941796D01*
X1434708Y941826D01*
X1434774Y941864D01*
X1436085Y942924D01*
X1436116Y942960D01*
X1436173Y943011D01*
X1437252Y944306D01*
X1437276Y944348D01*
X1437322Y944409D01*
X1438128Y945890D01*
X1438143Y945935D01*
X1438176Y946004D01*
X1438677Y947613D01*
X1438683Y947661D01*
X1438702Y947735D01*
X1438877Y949388D01*
X1438924Y949644D01*
X1438924Y949666D01*
X1438931Y949826D01*
X1438746Y951544D01*
X1438733Y951590D01*
X1438721Y951665D01*
X1438205Y953314D01*
X1438183Y953357D01*
X1438157Y953428D01*
X1437329Y954945D01*
X1437299Y954983D01*
X1437259Y955048D01*
X1436152Y956374D01*
X1436115Y956405D01*
X1436063Y956461D01*
X1434718Y957545D01*
X1434676Y957568D01*
X1434614Y957614D01*
X1433083Y958415D01*
X1433037Y958429D01*
X1432968Y958461D01*
X1431311Y958949D01*
X1431263Y958954D01*
X1431189Y958972D01*
X1429720Y959104D01*
X1429692Y959120D01*
X1429653Y959126D01*
X1429616Y959141D01*
X1429520Y959146D01*
X1429470Y959154D01*
X1429450Y959151D01*
X1429429Y959152D01*
X1427738Y959000D01*
X1427692Y958987D01*
X1427616Y958977D01*
X1425987Y958498D01*
X1425944Y958477D01*
X1425872Y958451D01*
X1424368Y957664D01*
X1424330Y957635D01*
X1424264Y957596D01*
X1422942Y956530D01*
X1422910Y956494D01*
X1422853Y956443D01*
X1421764Y955140D01*
X1421741Y955099D01*
X1421694Y955038D01*
X1420881Y953547D01*
X1420866Y953502D01*
X1420832Y953433D01*
X1420325Y951813D01*
X1420319Y951765D01*
X1420300Y951691D01*
X1420119Y950008D01*
X1420095Y949810D01*
X1420097Y949759D01*
X1420093Y949668D01*
X1420266Y947959D01*
X1420280Y947913D01*
X1420291Y947837D01*
X1420794Y946195D01*
X1420816Y946152D01*
X1420842Y946080D01*
X1421656Y944567D01*
X1421686Y944530D01*
X1421726Y944464D01*
X1422819Y943140D01*
X1422856Y943108D01*
X1422907Y943052D01*
X1424238Y941966D01*
X1424281Y941943D01*
X1424342Y941897D01*
X1425859Y941092D01*
X1425905Y941077D01*
X1425974Y941045D01*
X1426217Y940972D01*
X1426218Y940972D01*
X1427620Y940551D01*
X1427667Y940545D01*
X1427742Y940527D01*
X1429329Y940375D01*
X1429346Y940369D01*
X1429440Y940327D01*
X1429450Y940327D01*
X1429458Y940323D01*
X1429645Y940312D01*
X1431324Y940465D01*
G37*
G36*
X923324Y940465D02*
X923324Y940465D01*
X923371Y940478D01*
X923446Y940488D01*
X925063Y940966D01*
X925091Y940980D01*
X925112Y940984D01*
X925136Y940998D01*
X925178Y941012D01*
X926670Y941796D01*
X926708Y941826D01*
X926774Y941864D01*
X928085Y942924D01*
X928116Y942960D01*
X928173Y943011D01*
X929252Y944306D01*
X929276Y944348D01*
X929322Y944409D01*
X930128Y945890D01*
X930143Y945935D01*
X930176Y946004D01*
X930677Y947613D01*
X930683Y947661D01*
X930702Y947735D01*
X930877Y949388D01*
X930924Y949644D01*
X930924Y949666D01*
X930931Y949826D01*
X930746Y951544D01*
X930733Y951590D01*
X930721Y951665D01*
X930205Y953314D01*
X930183Y953357D01*
X930157Y953428D01*
X929329Y954945D01*
X929299Y954983D01*
X929259Y955048D01*
X928152Y956374D01*
X928115Y956405D01*
X928063Y956461D01*
X926718Y957545D01*
X926676Y957568D01*
X926614Y957614D01*
X925083Y958415D01*
X925037Y958429D01*
X924968Y958461D01*
X923311Y958949D01*
X923263Y958954D01*
X923189Y958972D01*
X921720Y959104D01*
X921692Y959120D01*
X921653Y959126D01*
X921616Y959141D01*
X921520Y959146D01*
X921470Y959154D01*
X921450Y959151D01*
X921429Y959152D01*
X919738Y959000D01*
X919692Y958987D01*
X919616Y958977D01*
X917987Y958498D01*
X917944Y958477D01*
X917872Y958451D01*
X916368Y957664D01*
X916330Y957635D01*
X916264Y957596D01*
X914942Y956530D01*
X914910Y956494D01*
X914853Y956443D01*
X913764Y955140D01*
X913741Y955099D01*
X913694Y955038D01*
X912881Y953547D01*
X912866Y953502D01*
X912832Y953433D01*
X912325Y951813D01*
X912319Y951765D01*
X912300Y951691D01*
X912119Y950008D01*
X912095Y949810D01*
X912097Y949759D01*
X912093Y949668D01*
X912266Y947959D01*
X912280Y947913D01*
X912291Y947837D01*
X912794Y946195D01*
X912816Y946152D01*
X912842Y946080D01*
X913656Y944567D01*
X913686Y944530D01*
X913726Y944464D01*
X914819Y943140D01*
X914856Y943108D01*
X914907Y943052D01*
X916238Y941966D01*
X916281Y941943D01*
X916342Y941897D01*
X917859Y941092D01*
X917905Y941077D01*
X917974Y941045D01*
X918217Y940972D01*
X918218Y940972D01*
X919620Y940551D01*
X919667Y940545D01*
X919742Y940527D01*
X921329Y940375D01*
X921346Y940369D01*
X921440Y940327D01*
X921450Y940327D01*
X921458Y940323D01*
X921645Y940312D01*
X923324Y940465D01*
G37*
G36*
X1024924Y940465D02*
X1024924Y940465D01*
X1024971Y940478D01*
X1025046Y940488D01*
X1026663Y940966D01*
X1026691Y940980D01*
X1026712Y940984D01*
X1026736Y940998D01*
X1026778Y941012D01*
X1028270Y941796D01*
X1028308Y941826D01*
X1028374Y941864D01*
X1029685Y942924D01*
X1029716Y942960D01*
X1029773Y943011D01*
X1030852Y944306D01*
X1030876Y944348D01*
X1030922Y944409D01*
X1031728Y945890D01*
X1031743Y945935D01*
X1031776Y946004D01*
X1032277Y947613D01*
X1032283Y947661D01*
X1032302Y947735D01*
X1032477Y949388D01*
X1032524Y949644D01*
X1032524Y949666D01*
X1032531Y949826D01*
X1032346Y951544D01*
X1032333Y951590D01*
X1032321Y951665D01*
X1031805Y953314D01*
X1031783Y953357D01*
X1031757Y953428D01*
X1030929Y954945D01*
X1030899Y954983D01*
X1030859Y955048D01*
X1029752Y956374D01*
X1029715Y956405D01*
X1029663Y956461D01*
X1028318Y957545D01*
X1028276Y957568D01*
X1028214Y957614D01*
X1026683Y958415D01*
X1026637Y958429D01*
X1026568Y958461D01*
X1024911Y958949D01*
X1024863Y958954D01*
X1024789Y958972D01*
X1023320Y959104D01*
X1023292Y959120D01*
X1023253Y959126D01*
X1023216Y959141D01*
X1023120Y959146D01*
X1023070Y959154D01*
X1023050Y959151D01*
X1023029Y959152D01*
X1021338Y959000D01*
X1021292Y958987D01*
X1021216Y958977D01*
X1019587Y958498D01*
X1019544Y958477D01*
X1019472Y958451D01*
X1017968Y957664D01*
X1017930Y957635D01*
X1017864Y957596D01*
X1016542Y956530D01*
X1016510Y956494D01*
X1016453Y956443D01*
X1015364Y955140D01*
X1015341Y955099D01*
X1015294Y955038D01*
X1014481Y953547D01*
X1014466Y953502D01*
X1014432Y953433D01*
X1013925Y951813D01*
X1013919Y951765D01*
X1013900Y951691D01*
X1013719Y950008D01*
X1013695Y949810D01*
X1013697Y949759D01*
X1013693Y949668D01*
X1013866Y947959D01*
X1013880Y947913D01*
X1013891Y947837D01*
X1014394Y946195D01*
X1014416Y946152D01*
X1014442Y946080D01*
X1015256Y944567D01*
X1015286Y944530D01*
X1015326Y944464D01*
X1016419Y943140D01*
X1016456Y943108D01*
X1016507Y943052D01*
X1017838Y941966D01*
X1017881Y941943D01*
X1017942Y941897D01*
X1019459Y941092D01*
X1019505Y941077D01*
X1019574Y941045D01*
X1019817Y940972D01*
X1019818Y940972D01*
X1021220Y940551D01*
X1021267Y940545D01*
X1021342Y940527D01*
X1022929Y940375D01*
X1022946Y940369D01*
X1023040Y940327D01*
X1023050Y940327D01*
X1023058Y940323D01*
X1023245Y940312D01*
X1024924Y940465D01*
G37*
G36*
X821724Y940465D02*
X821724Y940465D01*
X821771Y940478D01*
X821846Y940488D01*
X823463Y940966D01*
X823491Y940980D01*
X823512Y940984D01*
X823536Y940998D01*
X823578Y941012D01*
X825070Y941796D01*
X825108Y941826D01*
X825174Y941864D01*
X826485Y942924D01*
X826516Y942960D01*
X826573Y943011D01*
X827652Y944306D01*
X827676Y944348D01*
X827722Y944409D01*
X828528Y945890D01*
X828543Y945935D01*
X828576Y946004D01*
X829077Y947613D01*
X829083Y947661D01*
X829102Y947735D01*
X829277Y949388D01*
X829324Y949644D01*
X829324Y949666D01*
X829331Y949826D01*
X829146Y951544D01*
X829133Y951590D01*
X829121Y951665D01*
X828605Y953314D01*
X828583Y953357D01*
X828557Y953428D01*
X827729Y954945D01*
X827699Y954983D01*
X827659Y955048D01*
X826552Y956374D01*
X826515Y956405D01*
X826463Y956461D01*
X825118Y957545D01*
X825076Y957568D01*
X825014Y957614D01*
X823483Y958415D01*
X823437Y958429D01*
X823368Y958461D01*
X821711Y958949D01*
X821663Y958954D01*
X821589Y958972D01*
X820120Y959104D01*
X820092Y959120D01*
X820053Y959126D01*
X820016Y959141D01*
X819920Y959146D01*
X819870Y959154D01*
X819850Y959151D01*
X819829Y959152D01*
X818138Y959000D01*
X818092Y958987D01*
X818016Y958977D01*
X816387Y958498D01*
X816344Y958477D01*
X816272Y958451D01*
X814768Y957664D01*
X814730Y957635D01*
X814664Y957596D01*
X813342Y956530D01*
X813310Y956494D01*
X813253Y956443D01*
X812164Y955140D01*
X812141Y955099D01*
X812094Y955038D01*
X811281Y953547D01*
X811266Y953502D01*
X811232Y953433D01*
X810725Y951813D01*
X810719Y951765D01*
X810700Y951691D01*
X810519Y950008D01*
X810495Y949810D01*
X810497Y949759D01*
X810493Y949668D01*
X810666Y947959D01*
X810680Y947913D01*
X810691Y947837D01*
X811194Y946195D01*
X811216Y946152D01*
X811242Y946080D01*
X812056Y944567D01*
X812086Y944530D01*
X812126Y944464D01*
X813219Y943140D01*
X813256Y943108D01*
X813307Y943052D01*
X814638Y941966D01*
X814681Y941943D01*
X814742Y941897D01*
X816259Y941092D01*
X816305Y941077D01*
X816374Y941045D01*
X816617Y940972D01*
X816618Y940972D01*
X818020Y940551D01*
X818067Y940545D01*
X818142Y940527D01*
X819729Y940375D01*
X819746Y940369D01*
X819840Y940327D01*
X819850Y940327D01*
X819858Y940323D01*
X820045Y940312D01*
X821724Y940465D01*
G37*
G36*
X1329724Y940465D02*
X1329724Y940465D01*
X1329771Y940478D01*
X1329846Y940488D01*
X1331463Y940966D01*
X1331491Y940980D01*
X1331512Y940984D01*
X1331536Y940998D01*
X1331578Y941012D01*
X1333070Y941796D01*
X1333108Y941826D01*
X1333174Y941864D01*
X1334485Y942924D01*
X1334516Y942960D01*
X1334573Y943011D01*
X1335652Y944306D01*
X1335676Y944348D01*
X1335722Y944409D01*
X1336528Y945890D01*
X1336543Y945935D01*
X1336576Y946004D01*
X1337077Y947613D01*
X1337083Y947661D01*
X1337102Y947735D01*
X1337277Y949388D01*
X1337324Y949644D01*
X1337324Y949666D01*
X1337331Y949826D01*
X1337146Y951544D01*
X1337133Y951590D01*
X1337121Y951665D01*
X1336605Y953314D01*
X1336583Y953357D01*
X1336557Y953428D01*
X1335729Y954945D01*
X1335699Y954983D01*
X1335659Y955048D01*
X1334552Y956374D01*
X1334515Y956405D01*
X1334463Y956461D01*
X1333118Y957545D01*
X1333076Y957568D01*
X1333014Y957614D01*
X1331483Y958415D01*
X1331437Y958429D01*
X1331368Y958461D01*
X1329711Y958949D01*
X1329663Y958954D01*
X1329589Y958972D01*
X1328120Y959104D01*
X1328092Y959120D01*
X1328053Y959126D01*
X1328016Y959141D01*
X1327920Y959146D01*
X1327870Y959154D01*
X1327850Y959151D01*
X1327829Y959152D01*
X1326138Y959000D01*
X1326092Y958987D01*
X1326016Y958977D01*
X1324387Y958498D01*
X1324344Y958477D01*
X1324272Y958451D01*
X1322768Y957664D01*
X1322730Y957635D01*
X1322664Y957596D01*
X1321342Y956530D01*
X1321310Y956494D01*
X1321253Y956443D01*
X1320164Y955140D01*
X1320141Y955099D01*
X1320094Y955038D01*
X1319281Y953547D01*
X1319266Y953502D01*
X1319232Y953433D01*
X1318725Y951813D01*
X1318719Y951765D01*
X1318700Y951691D01*
X1318519Y950008D01*
X1318495Y949810D01*
X1318497Y949759D01*
X1318493Y949668D01*
X1318666Y947959D01*
X1318680Y947913D01*
X1318691Y947837D01*
X1319194Y946195D01*
X1319216Y946152D01*
X1319242Y946080D01*
X1320056Y944567D01*
X1320086Y944530D01*
X1320126Y944464D01*
X1321219Y943140D01*
X1321256Y943108D01*
X1321307Y943052D01*
X1322638Y941966D01*
X1322681Y941943D01*
X1322742Y941897D01*
X1324259Y941092D01*
X1324305Y941077D01*
X1324374Y941045D01*
X1324617Y940972D01*
X1324618Y940972D01*
X1326020Y940551D01*
X1326067Y940545D01*
X1326142Y940527D01*
X1327729Y940375D01*
X1327746Y940369D01*
X1327840Y940327D01*
X1327850Y940327D01*
X1327858Y940323D01*
X1328045Y940312D01*
X1329724Y940465D01*
G37*
G36*
X1126524Y940465D02*
X1126524Y940465D01*
X1126571Y940478D01*
X1126646Y940488D01*
X1128263Y940966D01*
X1128291Y940980D01*
X1128312Y940984D01*
X1128336Y940998D01*
X1128378Y941012D01*
X1129870Y941796D01*
X1129908Y941826D01*
X1129974Y941864D01*
X1131285Y942924D01*
X1131316Y942960D01*
X1131373Y943011D01*
X1132452Y944306D01*
X1132476Y944348D01*
X1132522Y944409D01*
X1133328Y945890D01*
X1133343Y945935D01*
X1133376Y946004D01*
X1133877Y947613D01*
X1133883Y947661D01*
X1133902Y947735D01*
X1134077Y949388D01*
X1134124Y949644D01*
X1134124Y949666D01*
X1134131Y949826D01*
X1133946Y951544D01*
X1133933Y951590D01*
X1133921Y951665D01*
X1133405Y953314D01*
X1133383Y953357D01*
X1133357Y953428D01*
X1132529Y954945D01*
X1132499Y954983D01*
X1132459Y955048D01*
X1131352Y956374D01*
X1131315Y956405D01*
X1131263Y956461D01*
X1129918Y957545D01*
X1129876Y957568D01*
X1129814Y957614D01*
X1128283Y958415D01*
X1128237Y958429D01*
X1128168Y958461D01*
X1126511Y958949D01*
X1126463Y958954D01*
X1126389Y958972D01*
X1124920Y959104D01*
X1124892Y959120D01*
X1124853Y959126D01*
X1124816Y959141D01*
X1124720Y959146D01*
X1124670Y959154D01*
X1124650Y959151D01*
X1124629Y959152D01*
X1122938Y959000D01*
X1122892Y958987D01*
X1122816Y958977D01*
X1121187Y958498D01*
X1121144Y958477D01*
X1121072Y958451D01*
X1119568Y957664D01*
X1119530Y957635D01*
X1119464Y957596D01*
X1118142Y956530D01*
X1118110Y956494D01*
X1118053Y956443D01*
X1116964Y955140D01*
X1116941Y955099D01*
X1116894Y955038D01*
X1116081Y953547D01*
X1116066Y953502D01*
X1116032Y953433D01*
X1115525Y951813D01*
X1115519Y951765D01*
X1115500Y951691D01*
X1115319Y950008D01*
X1115295Y949810D01*
X1115297Y949759D01*
X1115293Y949668D01*
X1115466Y947959D01*
X1115480Y947913D01*
X1115491Y947837D01*
X1115994Y946195D01*
X1116016Y946152D01*
X1116042Y946080D01*
X1116856Y944567D01*
X1116886Y944530D01*
X1116926Y944464D01*
X1118019Y943140D01*
X1118056Y943108D01*
X1118107Y943052D01*
X1119438Y941966D01*
X1119481Y941943D01*
X1119542Y941897D01*
X1121059Y941092D01*
X1121105Y941077D01*
X1121174Y941045D01*
X1121417Y940972D01*
X1121418Y940972D01*
X1122820Y940551D01*
X1122867Y940545D01*
X1122942Y940527D01*
X1124529Y940375D01*
X1124546Y940369D01*
X1124640Y940327D01*
X1124650Y940327D01*
X1124658Y940323D01*
X1124845Y940312D01*
X1126524Y940465D01*
G37*
G36*
X1228124Y940465D02*
X1228124Y940465D01*
X1228171Y940478D01*
X1228246Y940488D01*
X1229863Y940966D01*
X1229891Y940980D01*
X1229912Y940984D01*
X1229936Y940998D01*
X1229978Y941012D01*
X1231470Y941796D01*
X1231508Y941826D01*
X1231574Y941864D01*
X1232885Y942924D01*
X1232916Y942960D01*
X1232973Y943011D01*
X1234052Y944306D01*
X1234076Y944348D01*
X1234122Y944409D01*
X1234928Y945890D01*
X1234943Y945935D01*
X1234976Y946004D01*
X1235477Y947613D01*
X1235483Y947661D01*
X1235502Y947735D01*
X1235677Y949388D01*
X1235724Y949644D01*
X1235724Y949666D01*
X1235731Y949826D01*
X1235546Y951544D01*
X1235533Y951590D01*
X1235521Y951665D01*
X1235005Y953314D01*
X1234983Y953357D01*
X1234957Y953428D01*
X1234129Y954945D01*
X1234099Y954983D01*
X1234059Y955048D01*
X1232952Y956374D01*
X1232915Y956405D01*
X1232863Y956461D01*
X1231518Y957545D01*
X1231476Y957568D01*
X1231414Y957614D01*
X1229883Y958415D01*
X1229837Y958429D01*
X1229768Y958461D01*
X1228111Y958949D01*
X1228063Y958954D01*
X1227989Y958972D01*
X1226520Y959104D01*
X1226492Y959120D01*
X1226453Y959126D01*
X1226416Y959141D01*
X1226320Y959146D01*
X1226270Y959154D01*
X1226250Y959151D01*
X1226229Y959152D01*
X1224538Y959000D01*
X1224492Y958987D01*
X1224416Y958977D01*
X1222787Y958498D01*
X1222744Y958477D01*
X1222672Y958451D01*
X1221168Y957664D01*
X1221130Y957635D01*
X1221064Y957596D01*
X1219742Y956530D01*
X1219710Y956494D01*
X1219653Y956443D01*
X1218564Y955140D01*
X1218541Y955099D01*
X1218494Y955038D01*
X1217681Y953547D01*
X1217666Y953502D01*
X1217632Y953433D01*
X1217125Y951813D01*
X1217119Y951765D01*
X1217100Y951691D01*
X1216919Y950008D01*
X1216895Y949810D01*
X1216897Y949759D01*
X1216893Y949668D01*
X1217066Y947959D01*
X1217080Y947913D01*
X1217091Y947837D01*
X1217594Y946195D01*
X1217616Y946152D01*
X1217642Y946080D01*
X1218456Y944567D01*
X1218486Y944530D01*
X1218526Y944464D01*
X1219619Y943140D01*
X1219656Y943108D01*
X1219707Y943052D01*
X1221038Y941966D01*
X1221081Y941943D01*
X1221142Y941897D01*
X1222659Y941092D01*
X1222705Y941077D01*
X1222774Y941045D01*
X1223017Y940972D01*
X1223018Y940972D01*
X1224420Y940551D01*
X1224467Y940545D01*
X1224542Y940527D01*
X1226129Y940375D01*
X1226146Y940369D01*
X1226240Y940327D01*
X1226250Y940327D01*
X1226258Y940323D01*
X1226445Y940312D01*
X1228124Y940465D01*
G37*
G36*
X821724Y895227D02*
X821724Y895227D01*
X821771Y895240D01*
X821846Y895250D01*
X823463Y895728D01*
X823491Y895742D01*
X823512Y895746D01*
X823536Y895760D01*
X823578Y895774D01*
X825070Y896558D01*
X825108Y896588D01*
X825174Y896626D01*
X826485Y897686D01*
X826516Y897722D01*
X826573Y897773D01*
X827652Y899068D01*
X827676Y899110D01*
X827722Y899171D01*
X828528Y900652D01*
X828543Y900697D01*
X828576Y900766D01*
X829077Y902375D01*
X829083Y902423D01*
X829102Y902497D01*
X829277Y904150D01*
X829324Y904406D01*
X829324Y904428D01*
X829331Y904588D01*
X829146Y906306D01*
X829133Y906352D01*
X829121Y906427D01*
X828605Y908076D01*
X828583Y908119D01*
X828557Y908190D01*
X827729Y909707D01*
X827699Y909745D01*
X827659Y909810D01*
X826552Y911136D01*
X826515Y911167D01*
X826463Y911223D01*
X825118Y912307D01*
X825076Y912330D01*
X825014Y912376D01*
X823483Y913177D01*
X823437Y913191D01*
X823368Y913223D01*
X821711Y913711D01*
X821663Y913716D01*
X821589Y913734D01*
X820120Y913866D01*
X820092Y913882D01*
X820053Y913888D01*
X820016Y913903D01*
X819920Y913908D01*
X819870Y913916D01*
X819850Y913913D01*
X819829Y913914D01*
X818138Y913762D01*
X818092Y913749D01*
X818016Y913739D01*
X816387Y913260D01*
X816344Y913239D01*
X816272Y913213D01*
X814768Y912426D01*
X814730Y912397D01*
X814664Y912358D01*
X813342Y911292D01*
X813310Y911256D01*
X813253Y911205D01*
X812164Y909902D01*
X812141Y909861D01*
X812094Y909800D01*
X811281Y908309D01*
X811266Y908264D01*
X811232Y908195D01*
X810725Y906575D01*
X810719Y906527D01*
X810700Y906453D01*
X810519Y904770D01*
X810495Y904572D01*
X810497Y904521D01*
X810493Y904430D01*
X810666Y902721D01*
X810680Y902675D01*
X810691Y902599D01*
X811194Y900957D01*
X811216Y900914D01*
X811242Y900842D01*
X812056Y899329D01*
X812086Y899292D01*
X812126Y899226D01*
X813219Y897902D01*
X813256Y897870D01*
X813307Y897814D01*
X814638Y896728D01*
X814681Y896705D01*
X814742Y896659D01*
X816259Y895854D01*
X816305Y895839D01*
X816374Y895807D01*
X816617Y895734D01*
X816618Y895734D01*
X818020Y895313D01*
X818067Y895307D01*
X818142Y895289D01*
X819729Y895137D01*
X819746Y895131D01*
X819840Y895089D01*
X819850Y895089D01*
X819858Y895085D01*
X820045Y895074D01*
X821724Y895227D01*
G37*
G36*
X1024924Y895227D02*
X1024924Y895227D01*
X1024971Y895240D01*
X1025046Y895250D01*
X1026663Y895728D01*
X1026691Y895742D01*
X1026712Y895746D01*
X1026736Y895760D01*
X1026778Y895774D01*
X1028270Y896558D01*
X1028308Y896588D01*
X1028374Y896626D01*
X1029685Y897686D01*
X1029716Y897722D01*
X1029773Y897773D01*
X1030852Y899068D01*
X1030876Y899110D01*
X1030922Y899171D01*
X1031728Y900652D01*
X1031743Y900697D01*
X1031776Y900766D01*
X1032277Y902375D01*
X1032283Y902423D01*
X1032302Y902497D01*
X1032477Y904150D01*
X1032524Y904406D01*
X1032524Y904428D01*
X1032531Y904588D01*
X1032346Y906306D01*
X1032333Y906352D01*
X1032321Y906427D01*
X1031805Y908076D01*
X1031783Y908119D01*
X1031757Y908190D01*
X1030929Y909707D01*
X1030899Y909745D01*
X1030859Y909810D01*
X1029752Y911136D01*
X1029715Y911167D01*
X1029663Y911223D01*
X1028318Y912307D01*
X1028276Y912330D01*
X1028214Y912376D01*
X1026683Y913177D01*
X1026637Y913191D01*
X1026568Y913223D01*
X1024911Y913711D01*
X1024863Y913716D01*
X1024789Y913734D01*
X1023320Y913866D01*
X1023292Y913882D01*
X1023253Y913888D01*
X1023216Y913903D01*
X1023120Y913908D01*
X1023070Y913916D01*
X1023050Y913913D01*
X1023029Y913914D01*
X1021338Y913762D01*
X1021292Y913749D01*
X1021216Y913739D01*
X1019587Y913260D01*
X1019544Y913239D01*
X1019472Y913213D01*
X1017968Y912426D01*
X1017930Y912397D01*
X1017864Y912358D01*
X1016542Y911292D01*
X1016510Y911256D01*
X1016453Y911205D01*
X1015364Y909902D01*
X1015341Y909861D01*
X1015294Y909800D01*
X1014481Y908309D01*
X1014466Y908264D01*
X1014432Y908195D01*
X1013925Y906575D01*
X1013919Y906527D01*
X1013900Y906453D01*
X1013719Y904770D01*
X1013695Y904572D01*
X1013697Y904521D01*
X1013693Y904430D01*
X1013866Y902721D01*
X1013880Y902675D01*
X1013891Y902599D01*
X1014394Y900957D01*
X1014416Y900914D01*
X1014442Y900842D01*
X1015256Y899329D01*
X1015286Y899292D01*
X1015326Y899226D01*
X1016419Y897902D01*
X1016456Y897870D01*
X1016507Y897814D01*
X1017838Y896728D01*
X1017881Y896705D01*
X1017942Y896659D01*
X1019459Y895854D01*
X1019505Y895839D01*
X1019574Y895807D01*
X1019817Y895734D01*
X1019818Y895734D01*
X1021220Y895313D01*
X1021267Y895307D01*
X1021342Y895289D01*
X1022929Y895137D01*
X1022946Y895131D01*
X1023040Y895089D01*
X1023050Y895089D01*
X1023058Y895085D01*
X1023245Y895074D01*
X1024924Y895227D01*
G37*
G36*
X923324Y895227D02*
X923324Y895227D01*
X923371Y895240D01*
X923446Y895250D01*
X925063Y895728D01*
X925091Y895742D01*
X925112Y895746D01*
X925136Y895760D01*
X925178Y895774D01*
X926670Y896558D01*
X926708Y896588D01*
X926774Y896626D01*
X928085Y897686D01*
X928116Y897722D01*
X928173Y897773D01*
X929252Y899068D01*
X929276Y899110D01*
X929322Y899171D01*
X930128Y900652D01*
X930143Y900697D01*
X930176Y900766D01*
X930677Y902375D01*
X930683Y902423D01*
X930702Y902497D01*
X930877Y904150D01*
X930924Y904406D01*
X930924Y904428D01*
X930931Y904588D01*
X930746Y906306D01*
X930733Y906352D01*
X930721Y906427D01*
X930205Y908076D01*
X930183Y908119D01*
X930157Y908190D01*
X929329Y909707D01*
X929299Y909745D01*
X929259Y909810D01*
X928152Y911136D01*
X928115Y911167D01*
X928063Y911223D01*
X926718Y912307D01*
X926676Y912330D01*
X926614Y912376D01*
X925083Y913177D01*
X925037Y913191D01*
X924968Y913223D01*
X923311Y913711D01*
X923263Y913716D01*
X923189Y913734D01*
X921720Y913866D01*
X921692Y913882D01*
X921653Y913888D01*
X921616Y913903D01*
X921520Y913908D01*
X921470Y913916D01*
X921450Y913913D01*
X921429Y913914D01*
X919738Y913762D01*
X919692Y913749D01*
X919616Y913739D01*
X917987Y913260D01*
X917944Y913239D01*
X917872Y913213D01*
X916368Y912426D01*
X916330Y912397D01*
X916264Y912358D01*
X914942Y911292D01*
X914910Y911256D01*
X914853Y911205D01*
X913764Y909902D01*
X913741Y909861D01*
X913694Y909800D01*
X912881Y908309D01*
X912866Y908264D01*
X912832Y908195D01*
X912325Y906575D01*
X912319Y906527D01*
X912300Y906453D01*
X912119Y904770D01*
X912095Y904572D01*
X912097Y904521D01*
X912093Y904430D01*
X912266Y902721D01*
X912280Y902675D01*
X912291Y902599D01*
X912794Y900957D01*
X912816Y900914D01*
X912842Y900842D01*
X913656Y899329D01*
X913686Y899292D01*
X913726Y899226D01*
X914819Y897902D01*
X914856Y897870D01*
X914907Y897814D01*
X916238Y896728D01*
X916281Y896705D01*
X916342Y896659D01*
X917859Y895854D01*
X917905Y895839D01*
X917974Y895807D01*
X918217Y895734D01*
X918218Y895734D01*
X919620Y895313D01*
X919667Y895307D01*
X919742Y895289D01*
X921329Y895137D01*
X921346Y895131D01*
X921440Y895089D01*
X921450Y895089D01*
X921458Y895085D01*
X921645Y895074D01*
X923324Y895227D01*
G37*
G36*
X1228124Y895227D02*
X1228124Y895227D01*
X1228171Y895240D01*
X1228246Y895250D01*
X1229863Y895728D01*
X1229891Y895742D01*
X1229912Y895746D01*
X1229936Y895760D01*
X1229978Y895774D01*
X1231470Y896558D01*
X1231508Y896588D01*
X1231574Y896626D01*
X1232885Y897686D01*
X1232916Y897722D01*
X1232973Y897773D01*
X1234052Y899068D01*
X1234076Y899110D01*
X1234122Y899171D01*
X1234928Y900652D01*
X1234943Y900697D01*
X1234976Y900766D01*
X1235477Y902375D01*
X1235483Y902423D01*
X1235502Y902497D01*
X1235677Y904150D01*
X1235724Y904406D01*
X1235724Y904428D01*
X1235731Y904588D01*
X1235546Y906306D01*
X1235533Y906352D01*
X1235521Y906427D01*
X1235005Y908076D01*
X1234983Y908119D01*
X1234957Y908190D01*
X1234129Y909707D01*
X1234099Y909745D01*
X1234059Y909810D01*
X1232952Y911136D01*
X1232915Y911167D01*
X1232863Y911223D01*
X1231518Y912307D01*
X1231476Y912330D01*
X1231414Y912376D01*
X1229883Y913177D01*
X1229837Y913191D01*
X1229768Y913223D01*
X1228111Y913711D01*
X1228063Y913716D01*
X1227989Y913734D01*
X1226520Y913866D01*
X1226492Y913882D01*
X1226453Y913888D01*
X1226416Y913903D01*
X1226320Y913908D01*
X1226270Y913916D01*
X1226250Y913913D01*
X1226229Y913914D01*
X1224538Y913762D01*
X1224492Y913749D01*
X1224416Y913739D01*
X1222787Y913260D01*
X1222744Y913239D01*
X1222672Y913213D01*
X1221168Y912426D01*
X1221130Y912397D01*
X1221064Y912358D01*
X1219742Y911292D01*
X1219710Y911256D01*
X1219653Y911205D01*
X1218564Y909902D01*
X1218541Y909861D01*
X1218494Y909800D01*
X1217681Y908309D01*
X1217666Y908264D01*
X1217632Y908195D01*
X1217125Y906575D01*
X1217119Y906527D01*
X1217100Y906453D01*
X1216919Y904770D01*
X1216895Y904572D01*
X1216897Y904521D01*
X1216893Y904430D01*
X1217066Y902721D01*
X1217080Y902675D01*
X1217091Y902599D01*
X1217594Y900957D01*
X1217616Y900914D01*
X1217642Y900842D01*
X1218456Y899329D01*
X1218486Y899292D01*
X1218526Y899226D01*
X1219619Y897902D01*
X1219656Y897870D01*
X1219707Y897814D01*
X1221038Y896728D01*
X1221081Y896705D01*
X1221142Y896659D01*
X1222659Y895854D01*
X1222705Y895839D01*
X1222774Y895807D01*
X1223017Y895734D01*
X1223018Y895734D01*
X1224420Y895313D01*
X1224467Y895307D01*
X1224542Y895289D01*
X1226129Y895137D01*
X1226146Y895131D01*
X1226240Y895089D01*
X1226250Y895089D01*
X1226258Y895085D01*
X1226445Y895074D01*
X1228124Y895227D01*
G37*
G36*
X1126524Y895227D02*
X1126524Y895227D01*
X1126571Y895240D01*
X1126646Y895250D01*
X1128263Y895728D01*
X1128291Y895742D01*
X1128312Y895746D01*
X1128336Y895760D01*
X1128378Y895774D01*
X1129870Y896558D01*
X1129908Y896588D01*
X1129974Y896626D01*
X1131285Y897686D01*
X1131316Y897722D01*
X1131373Y897773D01*
X1132452Y899068D01*
X1132476Y899110D01*
X1132522Y899171D01*
X1133328Y900652D01*
X1133343Y900697D01*
X1133376Y900766D01*
X1133877Y902375D01*
X1133883Y902423D01*
X1133902Y902497D01*
X1134077Y904150D01*
X1134124Y904406D01*
X1134124Y904428D01*
X1134131Y904588D01*
X1133946Y906306D01*
X1133933Y906352D01*
X1133921Y906427D01*
X1133405Y908076D01*
X1133383Y908119D01*
X1133357Y908190D01*
X1132529Y909707D01*
X1132499Y909745D01*
X1132459Y909810D01*
X1131352Y911136D01*
X1131315Y911167D01*
X1131263Y911223D01*
X1129918Y912307D01*
X1129876Y912330D01*
X1129814Y912376D01*
X1128283Y913177D01*
X1128237Y913191D01*
X1128168Y913223D01*
X1126511Y913711D01*
X1126463Y913716D01*
X1126389Y913734D01*
X1124920Y913866D01*
X1124892Y913882D01*
X1124853Y913888D01*
X1124816Y913903D01*
X1124720Y913908D01*
X1124670Y913916D01*
X1124650Y913913D01*
X1124629Y913914D01*
X1122938Y913762D01*
X1122892Y913749D01*
X1122816Y913739D01*
X1121187Y913260D01*
X1121144Y913239D01*
X1121072Y913213D01*
X1119568Y912426D01*
X1119530Y912397D01*
X1119464Y912358D01*
X1118142Y911292D01*
X1118110Y911256D01*
X1118053Y911205D01*
X1116964Y909902D01*
X1116941Y909861D01*
X1116894Y909800D01*
X1116081Y908309D01*
X1116066Y908264D01*
X1116032Y908195D01*
X1115525Y906575D01*
X1115519Y906527D01*
X1115500Y906453D01*
X1115319Y904770D01*
X1115295Y904572D01*
X1115297Y904521D01*
X1115293Y904430D01*
X1115466Y902721D01*
X1115480Y902675D01*
X1115491Y902599D01*
X1115994Y900957D01*
X1116016Y900914D01*
X1116042Y900842D01*
X1116856Y899329D01*
X1116886Y899292D01*
X1116926Y899226D01*
X1118019Y897902D01*
X1118056Y897870D01*
X1118107Y897814D01*
X1119438Y896728D01*
X1119481Y896705D01*
X1119542Y896659D01*
X1121059Y895854D01*
X1121105Y895839D01*
X1121174Y895807D01*
X1121417Y895734D01*
X1121418Y895734D01*
X1122820Y895313D01*
X1122867Y895307D01*
X1122942Y895289D01*
X1124529Y895137D01*
X1124546Y895131D01*
X1124640Y895089D01*
X1124650Y895089D01*
X1124658Y895085D01*
X1124845Y895074D01*
X1126524Y895227D01*
G37*
G36*
X1329724Y895227D02*
X1329724Y895227D01*
X1329771Y895240D01*
X1329846Y895250D01*
X1331463Y895728D01*
X1331491Y895742D01*
X1331512Y895746D01*
X1331536Y895760D01*
X1331578Y895774D01*
X1333070Y896558D01*
X1333108Y896588D01*
X1333174Y896626D01*
X1334485Y897686D01*
X1334516Y897722D01*
X1334573Y897773D01*
X1335652Y899068D01*
X1335676Y899110D01*
X1335722Y899171D01*
X1336528Y900652D01*
X1336543Y900697D01*
X1336576Y900766D01*
X1337077Y902375D01*
X1337083Y902423D01*
X1337102Y902497D01*
X1337277Y904150D01*
X1337324Y904406D01*
X1337324Y904428D01*
X1337331Y904588D01*
X1337146Y906306D01*
X1337133Y906352D01*
X1337121Y906427D01*
X1336605Y908076D01*
X1336583Y908119D01*
X1336557Y908190D01*
X1335729Y909707D01*
X1335699Y909745D01*
X1335659Y909810D01*
X1334552Y911136D01*
X1334515Y911167D01*
X1334463Y911223D01*
X1333118Y912307D01*
X1333076Y912330D01*
X1333014Y912376D01*
X1331483Y913177D01*
X1331437Y913191D01*
X1331368Y913223D01*
X1329711Y913711D01*
X1329663Y913716D01*
X1329589Y913734D01*
X1328120Y913866D01*
X1328092Y913882D01*
X1328053Y913888D01*
X1328016Y913903D01*
X1327920Y913908D01*
X1327870Y913916D01*
X1327850Y913913D01*
X1327829Y913914D01*
X1326138Y913762D01*
X1326092Y913749D01*
X1326016Y913739D01*
X1324387Y913260D01*
X1324344Y913239D01*
X1324272Y913213D01*
X1322768Y912426D01*
X1322730Y912397D01*
X1322664Y912358D01*
X1321342Y911292D01*
X1321310Y911256D01*
X1321253Y911205D01*
X1320164Y909902D01*
X1320141Y909861D01*
X1320094Y909800D01*
X1319281Y908309D01*
X1319266Y908264D01*
X1319232Y908195D01*
X1318725Y906575D01*
X1318719Y906527D01*
X1318700Y906453D01*
X1318519Y904770D01*
X1318495Y904572D01*
X1318497Y904521D01*
X1318493Y904430D01*
X1318666Y902721D01*
X1318680Y902675D01*
X1318691Y902599D01*
X1319194Y900957D01*
X1319216Y900914D01*
X1319242Y900842D01*
X1320056Y899329D01*
X1320086Y899292D01*
X1320126Y899226D01*
X1321219Y897902D01*
X1321256Y897870D01*
X1321307Y897814D01*
X1322638Y896728D01*
X1322681Y896705D01*
X1322742Y896659D01*
X1324259Y895854D01*
X1324305Y895839D01*
X1324374Y895807D01*
X1324617Y895734D01*
X1324618Y895734D01*
X1326020Y895313D01*
X1326067Y895307D01*
X1326142Y895289D01*
X1327729Y895137D01*
X1327746Y895131D01*
X1327840Y895089D01*
X1327850Y895089D01*
X1327858Y895085D01*
X1328045Y895074D01*
X1329724Y895227D01*
G37*
G36*
X1431324Y895227D02*
X1431324Y895227D01*
X1431371Y895240D01*
X1431446Y895250D01*
X1433063Y895728D01*
X1433091Y895742D01*
X1433112Y895746D01*
X1433136Y895760D01*
X1433178Y895774D01*
X1434670Y896558D01*
X1434708Y896588D01*
X1434774Y896626D01*
X1436085Y897686D01*
X1436116Y897722D01*
X1436173Y897773D01*
X1437252Y899068D01*
X1437276Y899110D01*
X1437322Y899171D01*
X1438128Y900652D01*
X1438143Y900697D01*
X1438176Y900766D01*
X1438677Y902375D01*
X1438683Y902423D01*
X1438702Y902497D01*
X1438877Y904150D01*
X1438924Y904406D01*
X1438924Y904428D01*
X1438931Y904588D01*
X1438746Y906306D01*
X1438733Y906352D01*
X1438721Y906427D01*
X1438205Y908076D01*
X1438183Y908119D01*
X1438157Y908190D01*
X1437329Y909707D01*
X1437299Y909745D01*
X1437259Y909810D01*
X1436152Y911136D01*
X1436115Y911167D01*
X1436063Y911223D01*
X1434718Y912307D01*
X1434676Y912330D01*
X1434614Y912376D01*
X1433083Y913177D01*
X1433037Y913191D01*
X1432968Y913223D01*
X1431311Y913711D01*
X1431263Y913716D01*
X1431189Y913734D01*
X1429720Y913866D01*
X1429692Y913882D01*
X1429653Y913888D01*
X1429616Y913903D01*
X1429520Y913908D01*
X1429470Y913916D01*
X1429450Y913913D01*
X1429429Y913914D01*
X1427738Y913762D01*
X1427692Y913749D01*
X1427616Y913739D01*
X1425987Y913260D01*
X1425944Y913239D01*
X1425872Y913213D01*
X1424368Y912426D01*
X1424330Y912397D01*
X1424264Y912358D01*
X1422942Y911292D01*
X1422910Y911256D01*
X1422853Y911205D01*
X1421764Y909902D01*
X1421741Y909861D01*
X1421694Y909800D01*
X1420881Y908309D01*
X1420866Y908264D01*
X1420832Y908195D01*
X1420325Y906575D01*
X1420319Y906527D01*
X1420300Y906453D01*
X1420119Y904770D01*
X1420095Y904572D01*
X1420097Y904521D01*
X1420093Y904430D01*
X1420266Y902721D01*
X1420280Y902675D01*
X1420291Y902599D01*
X1420794Y900957D01*
X1420816Y900914D01*
X1420842Y900842D01*
X1421656Y899329D01*
X1421686Y899292D01*
X1421726Y899226D01*
X1422819Y897902D01*
X1422856Y897870D01*
X1422907Y897814D01*
X1424238Y896728D01*
X1424281Y896705D01*
X1424342Y896659D01*
X1425859Y895854D01*
X1425905Y895839D01*
X1425974Y895807D01*
X1426217Y895734D01*
X1426218Y895734D01*
X1427620Y895313D01*
X1427667Y895307D01*
X1427742Y895289D01*
X1429329Y895137D01*
X1429346Y895131D01*
X1429440Y895089D01*
X1429450Y895089D01*
X1429458Y895085D01*
X1429645Y895074D01*
X1431324Y895227D01*
G37*
G36*
X1163100Y895202D02*
X1163100Y895202D01*
X1163147Y895215D01*
X1163222Y895225D01*
X1164839Y895703D01*
X1164867Y895717D01*
X1164888Y895721D01*
X1164912Y895735D01*
X1164954Y895749D01*
X1166446Y896533D01*
X1166484Y896563D01*
X1166550Y896601D01*
X1167861Y897661D01*
X1167892Y897697D01*
X1167949Y897748D01*
X1169028Y899043D01*
X1169052Y899085D01*
X1169098Y899146D01*
X1169904Y900627D01*
X1169919Y900672D01*
X1169952Y900741D01*
X1170453Y902350D01*
X1170459Y902398D01*
X1170478Y902472D01*
X1170653Y904125D01*
X1170700Y904381D01*
X1170700Y904403D01*
X1170707Y904563D01*
X1170522Y906281D01*
X1170509Y906327D01*
X1170497Y906402D01*
X1169981Y908051D01*
X1169959Y908094D01*
X1169933Y908165D01*
X1169105Y909682D01*
X1169075Y909720D01*
X1169035Y909785D01*
X1167928Y911111D01*
X1167891Y911142D01*
X1167839Y911198D01*
X1166494Y912282D01*
X1166452Y912305D01*
X1166390Y912351D01*
X1164859Y913152D01*
X1164813Y913166D01*
X1164744Y913198D01*
X1163087Y913686D01*
X1163039Y913691D01*
X1162965Y913709D01*
X1161496Y913841D01*
X1161468Y913857D01*
X1161429Y913863D01*
X1161392Y913878D01*
X1161296Y913883D01*
X1161246Y913891D01*
X1161226Y913888D01*
X1161205Y913889D01*
X1159514Y913737D01*
X1159468Y913724D01*
X1159392Y913714D01*
X1157763Y913235D01*
X1157720Y913214D01*
X1157648Y913188D01*
X1156144Y912401D01*
X1156106Y912372D01*
X1156040Y912333D01*
X1154718Y911267D01*
X1154686Y911231D01*
X1154629Y911180D01*
X1153540Y909877D01*
X1153517Y909836D01*
X1153470Y909775D01*
X1152657Y908284D01*
X1152642Y908239D01*
X1152608Y908170D01*
X1152101Y906550D01*
X1152095Y906502D01*
X1152076Y906428D01*
X1151895Y904745D01*
X1151871Y904547D01*
X1151873Y904496D01*
X1151869Y904405D01*
X1152042Y902696D01*
X1152056Y902650D01*
X1152067Y902574D01*
X1152570Y900932D01*
X1152592Y900889D01*
X1152618Y900817D01*
X1153432Y899304D01*
X1153462Y899267D01*
X1153502Y899201D01*
X1154595Y897877D01*
X1154632Y897845D01*
X1154683Y897789D01*
X1156014Y896703D01*
X1156057Y896680D01*
X1156118Y896634D01*
X1157635Y895829D01*
X1157681Y895814D01*
X1157750Y895782D01*
X1157993Y895709D01*
X1157994Y895709D01*
X1159396Y895288D01*
X1159443Y895282D01*
X1159518Y895264D01*
X1161105Y895112D01*
X1161122Y895106D01*
X1161216Y895064D01*
X1161226Y895064D01*
X1161234Y895060D01*
X1161421Y895049D01*
X1163100Y895202D01*
G37*
G36*
X858300Y895202D02*
X858300Y895202D01*
X858347Y895215D01*
X858422Y895225D01*
X860039Y895703D01*
X860067Y895717D01*
X860088Y895721D01*
X860112Y895735D01*
X860154Y895749D01*
X861646Y896533D01*
X861684Y896563D01*
X861750Y896601D01*
X863061Y897661D01*
X863092Y897697D01*
X863149Y897748D01*
X864228Y899043D01*
X864252Y899085D01*
X864298Y899146D01*
X865104Y900627D01*
X865119Y900672D01*
X865152Y900741D01*
X865653Y902350D01*
X865659Y902398D01*
X865678Y902472D01*
X865853Y904125D01*
X865900Y904381D01*
X865900Y904403D01*
X865907Y904563D01*
X865722Y906281D01*
X865709Y906327D01*
X865697Y906402D01*
X865181Y908051D01*
X865159Y908094D01*
X865133Y908165D01*
X864305Y909682D01*
X864275Y909720D01*
X864235Y909785D01*
X863128Y911111D01*
X863091Y911142D01*
X863039Y911198D01*
X861694Y912282D01*
X861652Y912305D01*
X861590Y912351D01*
X860059Y913152D01*
X860013Y913166D01*
X859944Y913198D01*
X858287Y913686D01*
X858239Y913691D01*
X858165Y913709D01*
X856696Y913841D01*
X856668Y913857D01*
X856629Y913863D01*
X856592Y913878D01*
X856496Y913883D01*
X856446Y913891D01*
X856426Y913888D01*
X856405Y913889D01*
X854714Y913737D01*
X854668Y913724D01*
X854592Y913714D01*
X852963Y913235D01*
X852920Y913214D01*
X852848Y913188D01*
X851344Y912401D01*
X851306Y912372D01*
X851240Y912333D01*
X849918Y911267D01*
X849886Y911231D01*
X849829Y911180D01*
X848740Y909877D01*
X848717Y909836D01*
X848670Y909775D01*
X847857Y908284D01*
X847842Y908239D01*
X847808Y908170D01*
X847301Y906550D01*
X847295Y906502D01*
X847276Y906428D01*
X847095Y904745D01*
X847071Y904547D01*
X847073Y904496D01*
X847069Y904405D01*
X847242Y902696D01*
X847256Y902650D01*
X847267Y902574D01*
X847770Y900932D01*
X847792Y900889D01*
X847818Y900817D01*
X848632Y899304D01*
X848662Y899267D01*
X848702Y899201D01*
X849795Y897877D01*
X849832Y897845D01*
X849883Y897789D01*
X851214Y896703D01*
X851257Y896680D01*
X851318Y896634D01*
X852835Y895829D01*
X852881Y895814D01*
X852950Y895782D01*
X853193Y895709D01*
X853194Y895709D01*
X854596Y895288D01*
X854643Y895282D01*
X854718Y895264D01*
X856305Y895112D01*
X856322Y895106D01*
X856416Y895064D01*
X856426Y895064D01*
X856434Y895060D01*
X856621Y895049D01*
X858300Y895202D01*
G37*
G36*
X1264700Y895202D02*
X1264700Y895202D01*
X1264747Y895215D01*
X1264822Y895225D01*
X1266439Y895703D01*
X1266467Y895717D01*
X1266488Y895721D01*
X1266512Y895735D01*
X1266554Y895749D01*
X1268046Y896533D01*
X1268084Y896563D01*
X1268150Y896601D01*
X1269461Y897661D01*
X1269492Y897697D01*
X1269549Y897748D01*
X1270628Y899043D01*
X1270652Y899085D01*
X1270698Y899146D01*
X1271504Y900627D01*
X1271519Y900672D01*
X1271552Y900741D01*
X1272053Y902350D01*
X1272059Y902398D01*
X1272078Y902472D01*
X1272253Y904125D01*
X1272300Y904381D01*
X1272300Y904403D01*
X1272307Y904563D01*
X1272122Y906281D01*
X1272109Y906327D01*
X1272097Y906402D01*
X1271581Y908051D01*
X1271559Y908094D01*
X1271533Y908165D01*
X1270705Y909682D01*
X1270675Y909720D01*
X1270635Y909785D01*
X1269528Y911111D01*
X1269491Y911142D01*
X1269439Y911198D01*
X1268094Y912282D01*
X1268052Y912305D01*
X1267990Y912351D01*
X1266459Y913152D01*
X1266413Y913166D01*
X1266344Y913198D01*
X1264687Y913686D01*
X1264639Y913691D01*
X1264565Y913709D01*
X1263096Y913841D01*
X1263068Y913857D01*
X1263029Y913863D01*
X1262992Y913878D01*
X1262896Y913883D01*
X1262846Y913891D01*
X1262826Y913888D01*
X1262805Y913889D01*
X1261114Y913737D01*
X1261068Y913724D01*
X1260992Y913714D01*
X1259363Y913235D01*
X1259320Y913214D01*
X1259248Y913188D01*
X1257744Y912401D01*
X1257706Y912372D01*
X1257640Y912333D01*
X1256318Y911267D01*
X1256286Y911231D01*
X1256229Y911180D01*
X1255140Y909877D01*
X1255117Y909836D01*
X1255070Y909775D01*
X1254257Y908284D01*
X1254242Y908239D01*
X1254208Y908170D01*
X1253701Y906550D01*
X1253695Y906502D01*
X1253676Y906428D01*
X1253495Y904745D01*
X1253471Y904547D01*
X1253473Y904496D01*
X1253469Y904405D01*
X1253642Y902696D01*
X1253656Y902650D01*
X1253667Y902574D01*
X1254170Y900932D01*
X1254192Y900889D01*
X1254218Y900817D01*
X1255032Y899304D01*
X1255062Y899267D01*
X1255102Y899201D01*
X1256195Y897877D01*
X1256232Y897845D01*
X1256283Y897789D01*
X1257614Y896703D01*
X1257657Y896680D01*
X1257718Y896634D01*
X1259235Y895829D01*
X1259281Y895814D01*
X1259350Y895782D01*
X1259593Y895709D01*
X1259594Y895709D01*
X1260996Y895288D01*
X1261043Y895282D01*
X1261118Y895264D01*
X1262705Y895112D01*
X1262722Y895106D01*
X1262816Y895064D01*
X1262826Y895064D01*
X1262834Y895060D01*
X1263021Y895049D01*
X1264700Y895202D01*
G37*
G36*
X756700Y895202D02*
X756700Y895202D01*
X756747Y895215D01*
X756822Y895225D01*
X758439Y895703D01*
X758467Y895717D01*
X758488Y895721D01*
X758512Y895735D01*
X758554Y895749D01*
X760046Y896533D01*
X760084Y896563D01*
X760150Y896601D01*
X761461Y897661D01*
X761492Y897697D01*
X761549Y897748D01*
X762628Y899043D01*
X762652Y899085D01*
X762698Y899146D01*
X763504Y900627D01*
X763519Y900672D01*
X763552Y900741D01*
X764053Y902350D01*
X764059Y902398D01*
X764078Y902472D01*
X764253Y904125D01*
X764300Y904381D01*
X764300Y904403D01*
X764307Y904563D01*
X764122Y906281D01*
X764109Y906327D01*
X764097Y906402D01*
X763581Y908051D01*
X763559Y908094D01*
X763533Y908165D01*
X762705Y909682D01*
X762675Y909720D01*
X762635Y909785D01*
X761528Y911111D01*
X761491Y911142D01*
X761439Y911198D01*
X760094Y912282D01*
X760052Y912305D01*
X759990Y912351D01*
X758459Y913152D01*
X758413Y913166D01*
X758344Y913198D01*
X756687Y913686D01*
X756639Y913691D01*
X756565Y913709D01*
X755096Y913841D01*
X755068Y913857D01*
X755029Y913863D01*
X754992Y913878D01*
X754896Y913883D01*
X754846Y913891D01*
X754826Y913888D01*
X754805Y913889D01*
X753114Y913737D01*
X753068Y913724D01*
X752992Y913714D01*
X751363Y913235D01*
X751320Y913214D01*
X751248Y913188D01*
X749744Y912401D01*
X749706Y912372D01*
X749640Y912333D01*
X748318Y911267D01*
X748286Y911231D01*
X748229Y911180D01*
X747140Y909877D01*
X747117Y909836D01*
X747070Y909775D01*
X746257Y908284D01*
X746242Y908239D01*
X746208Y908170D01*
X745701Y906550D01*
X745695Y906502D01*
X745676Y906428D01*
X745495Y904745D01*
X745471Y904547D01*
X745473Y904496D01*
X745469Y904405D01*
X745642Y902696D01*
X745656Y902650D01*
X745667Y902574D01*
X746170Y900932D01*
X746192Y900889D01*
X746218Y900817D01*
X747032Y899304D01*
X747062Y899267D01*
X747102Y899201D01*
X748195Y897877D01*
X748232Y897845D01*
X748283Y897789D01*
X749614Y896703D01*
X749657Y896680D01*
X749718Y896634D01*
X751235Y895829D01*
X751281Y895814D01*
X751350Y895782D01*
X751593Y895709D01*
X751594Y895709D01*
X752996Y895288D01*
X753043Y895282D01*
X753118Y895264D01*
X754705Y895112D01*
X754722Y895106D01*
X754816Y895064D01*
X754826Y895064D01*
X754834Y895060D01*
X755021Y895049D01*
X756700Y895202D01*
G37*
G36*
X1366300Y895202D02*
X1366300Y895202D01*
X1366347Y895215D01*
X1366422Y895225D01*
X1368039Y895703D01*
X1368067Y895717D01*
X1368088Y895721D01*
X1368112Y895735D01*
X1368154Y895749D01*
X1369646Y896533D01*
X1369684Y896563D01*
X1369750Y896601D01*
X1371061Y897661D01*
X1371092Y897697D01*
X1371149Y897748D01*
X1372228Y899043D01*
X1372252Y899085D01*
X1372298Y899146D01*
X1373104Y900627D01*
X1373119Y900672D01*
X1373152Y900741D01*
X1373653Y902350D01*
X1373659Y902398D01*
X1373678Y902472D01*
X1373853Y904125D01*
X1373900Y904381D01*
X1373900Y904403D01*
X1373907Y904563D01*
X1373722Y906281D01*
X1373709Y906327D01*
X1373697Y906402D01*
X1373181Y908051D01*
X1373159Y908094D01*
X1373133Y908165D01*
X1372305Y909682D01*
X1372275Y909720D01*
X1372235Y909785D01*
X1371128Y911111D01*
X1371091Y911142D01*
X1371039Y911198D01*
X1369694Y912282D01*
X1369652Y912305D01*
X1369590Y912351D01*
X1368059Y913152D01*
X1368013Y913166D01*
X1367944Y913198D01*
X1366287Y913686D01*
X1366239Y913691D01*
X1366165Y913709D01*
X1364696Y913841D01*
X1364668Y913857D01*
X1364629Y913863D01*
X1364592Y913878D01*
X1364496Y913883D01*
X1364446Y913891D01*
X1364426Y913888D01*
X1364405Y913889D01*
X1362714Y913737D01*
X1362668Y913724D01*
X1362592Y913714D01*
X1360963Y913235D01*
X1360920Y913214D01*
X1360848Y913188D01*
X1359344Y912401D01*
X1359306Y912372D01*
X1359240Y912333D01*
X1357918Y911267D01*
X1357886Y911231D01*
X1357829Y911180D01*
X1356740Y909877D01*
X1356717Y909836D01*
X1356670Y909775D01*
X1355857Y908284D01*
X1355842Y908239D01*
X1355808Y908170D01*
X1355301Y906550D01*
X1355295Y906502D01*
X1355276Y906428D01*
X1355095Y904745D01*
X1355071Y904547D01*
X1355073Y904496D01*
X1355069Y904405D01*
X1355242Y902696D01*
X1355256Y902650D01*
X1355267Y902574D01*
X1355770Y900932D01*
X1355792Y900889D01*
X1355818Y900817D01*
X1356632Y899304D01*
X1356662Y899267D01*
X1356702Y899201D01*
X1357795Y897877D01*
X1357832Y897845D01*
X1357883Y897789D01*
X1359214Y896703D01*
X1359257Y896680D01*
X1359318Y896634D01*
X1360835Y895829D01*
X1360881Y895814D01*
X1360950Y895782D01*
X1361193Y895709D01*
X1361194Y895709D01*
X1362596Y895288D01*
X1362643Y895282D01*
X1362718Y895264D01*
X1364305Y895112D01*
X1364322Y895106D01*
X1364416Y895064D01*
X1364426Y895064D01*
X1364434Y895060D01*
X1364621Y895049D01*
X1366300Y895202D01*
G37*
G36*
X1061500Y895202D02*
X1061500Y895202D01*
X1061547Y895215D01*
X1061622Y895225D01*
X1063239Y895703D01*
X1063267Y895717D01*
X1063288Y895721D01*
X1063312Y895735D01*
X1063354Y895749D01*
X1064846Y896533D01*
X1064884Y896563D01*
X1064950Y896601D01*
X1066261Y897661D01*
X1066292Y897697D01*
X1066349Y897748D01*
X1067428Y899043D01*
X1067452Y899085D01*
X1067498Y899146D01*
X1068304Y900627D01*
X1068319Y900672D01*
X1068352Y900741D01*
X1068853Y902350D01*
X1068859Y902398D01*
X1068878Y902472D01*
X1069053Y904125D01*
X1069100Y904381D01*
X1069100Y904403D01*
X1069107Y904563D01*
X1068922Y906281D01*
X1068909Y906327D01*
X1068897Y906402D01*
X1068381Y908051D01*
X1068359Y908094D01*
X1068333Y908165D01*
X1067505Y909682D01*
X1067475Y909720D01*
X1067435Y909785D01*
X1066328Y911111D01*
X1066291Y911142D01*
X1066239Y911198D01*
X1064894Y912282D01*
X1064852Y912305D01*
X1064790Y912351D01*
X1063259Y913152D01*
X1063213Y913166D01*
X1063144Y913198D01*
X1061487Y913686D01*
X1061439Y913691D01*
X1061365Y913709D01*
X1059896Y913841D01*
X1059868Y913857D01*
X1059829Y913863D01*
X1059792Y913878D01*
X1059696Y913883D01*
X1059646Y913891D01*
X1059626Y913888D01*
X1059605Y913889D01*
X1057914Y913737D01*
X1057868Y913724D01*
X1057792Y913714D01*
X1056163Y913235D01*
X1056120Y913214D01*
X1056048Y913188D01*
X1054544Y912401D01*
X1054506Y912372D01*
X1054440Y912333D01*
X1053118Y911267D01*
X1053086Y911231D01*
X1053029Y911180D01*
X1051940Y909877D01*
X1051917Y909836D01*
X1051870Y909775D01*
X1051057Y908284D01*
X1051042Y908239D01*
X1051008Y908170D01*
X1050501Y906550D01*
X1050495Y906502D01*
X1050476Y906428D01*
X1050295Y904745D01*
X1050271Y904547D01*
X1050273Y904496D01*
X1050269Y904405D01*
X1050442Y902696D01*
X1050456Y902650D01*
X1050467Y902574D01*
X1050970Y900932D01*
X1050992Y900889D01*
X1051018Y900817D01*
X1051832Y899304D01*
X1051862Y899267D01*
X1051902Y899201D01*
X1052995Y897877D01*
X1053032Y897845D01*
X1053083Y897789D01*
X1054414Y896703D01*
X1054457Y896680D01*
X1054518Y896634D01*
X1056035Y895829D01*
X1056081Y895814D01*
X1056150Y895782D01*
X1056393Y895709D01*
X1056394Y895709D01*
X1057796Y895288D01*
X1057843Y895282D01*
X1057918Y895264D01*
X1059505Y895112D01*
X1059522Y895106D01*
X1059616Y895064D01*
X1059626Y895064D01*
X1059634Y895060D01*
X1059821Y895049D01*
X1061500Y895202D01*
G37*
G36*
X959900Y895202D02*
X959900Y895202D01*
X959947Y895215D01*
X960022Y895225D01*
X961639Y895703D01*
X961667Y895717D01*
X961688Y895721D01*
X961712Y895735D01*
X961754Y895749D01*
X963246Y896533D01*
X963284Y896563D01*
X963350Y896601D01*
X964661Y897661D01*
X964692Y897697D01*
X964749Y897748D01*
X965828Y899043D01*
X965852Y899085D01*
X965898Y899146D01*
X966704Y900627D01*
X966719Y900672D01*
X966752Y900741D01*
X967253Y902350D01*
X967259Y902398D01*
X967278Y902472D01*
X967453Y904125D01*
X967500Y904381D01*
X967500Y904403D01*
X967507Y904563D01*
X967322Y906281D01*
X967309Y906327D01*
X967297Y906402D01*
X966781Y908051D01*
X966759Y908094D01*
X966733Y908165D01*
X965905Y909682D01*
X965875Y909720D01*
X965835Y909785D01*
X964728Y911111D01*
X964691Y911142D01*
X964639Y911198D01*
X963294Y912282D01*
X963252Y912305D01*
X963190Y912351D01*
X961659Y913152D01*
X961613Y913166D01*
X961544Y913198D01*
X959887Y913686D01*
X959839Y913691D01*
X959765Y913709D01*
X958296Y913841D01*
X958268Y913857D01*
X958229Y913863D01*
X958192Y913878D01*
X958096Y913883D01*
X958046Y913891D01*
X958026Y913888D01*
X958005Y913889D01*
X956314Y913737D01*
X956268Y913724D01*
X956192Y913714D01*
X954563Y913235D01*
X954520Y913214D01*
X954448Y913188D01*
X952944Y912401D01*
X952906Y912372D01*
X952840Y912333D01*
X951518Y911267D01*
X951486Y911231D01*
X951429Y911180D01*
X950340Y909877D01*
X950317Y909836D01*
X950270Y909775D01*
X949457Y908284D01*
X949442Y908239D01*
X949408Y908170D01*
X948901Y906550D01*
X948895Y906502D01*
X948876Y906428D01*
X948695Y904745D01*
X948671Y904547D01*
X948673Y904496D01*
X948669Y904405D01*
X948842Y902696D01*
X948856Y902650D01*
X948867Y902574D01*
X949370Y900932D01*
X949392Y900889D01*
X949418Y900817D01*
X950232Y899304D01*
X950262Y899267D01*
X950302Y899201D01*
X951395Y897877D01*
X951432Y897845D01*
X951483Y897789D01*
X952814Y896703D01*
X952857Y896680D01*
X952918Y896634D01*
X954435Y895829D01*
X954481Y895814D01*
X954550Y895782D01*
X954793Y895709D01*
X954794Y895709D01*
X956196Y895288D01*
X956243Y895282D01*
X956318Y895264D01*
X957905Y895112D01*
X957922Y895106D01*
X958016Y895064D01*
X958026Y895064D01*
X958034Y895060D01*
X958221Y895049D01*
X959900Y895202D01*
G37*
D10*
X57150Y946150D03*
X1543050Y946150D03*
X44450Y50800D03*
X1549400Y50800D03*
D11*
X965200Y673100D03*
D12*
X939800Y673100D03*
D13*
X293878Y914400D02*
X293878Y939800D01*
X518922Y939800D02*
X518922Y914400D01*
X228600Y585978D02*
X203200Y585978D01*
X203200Y811022D02*
X228600Y811022D01*
D14*
X1473200Y540004D02*
X1473200Y526796D01*
X1447800Y526796D02*
X1447800Y540004D01*
X1320800Y540004D02*
X1320800Y526796D01*
X1295400Y526796D02*
X1295400Y540004D01*
X1422400Y540004D02*
X1422400Y526796D01*
X1397000Y526796D02*
X1397000Y540004D01*
X1346200Y540004D02*
X1346200Y526796D01*
X1371600Y526796D02*
X1371600Y540004D01*
X1270000Y540004D02*
X1270000Y526796D01*
X1270000Y463804D02*
X1270000Y450596D01*
X1295400Y450596D02*
X1295400Y463804D01*
X1320800Y463804D02*
X1320800Y450596D01*
X1346200Y450596D02*
X1346200Y463804D01*
X1371600Y463804D02*
X1371600Y450596D01*
X1397000Y450596D02*
X1397000Y463804D01*
X1422400Y463804D02*
X1422400Y450596D01*
X1447800Y450596D02*
X1447800Y463804D01*
X1473200Y463804D02*
X1473200Y450596D01*
D15*
X1485900Y330200D03*
X1460500Y330200D03*
X1308100Y330200D03*
X1282700Y330200D03*
X1130300Y330200D03*
X1104900Y330200D03*
X952500Y330200D03*
X927100Y330200D03*
D16*
X50800Y508000D03*
X76200Y508000D03*
D15*
X774700Y330200D03*
X749300Y330200D03*
X596900Y330200D03*
X571500Y330200D03*
X419100Y330200D03*
X393700Y330200D03*
X241300Y330200D03*
X215900Y330200D03*
X1435100Y330200D03*
X1333500Y330200D03*
D17*
X1244600Y660400D03*
X1244600Y762000D03*
X1206500Y673100D03*
X1206500Y774700D03*
D15*
X1257300Y330200D03*
X1155700Y330200D03*
X1079500Y330200D03*
X977900Y330200D03*
X901700Y330200D03*
X800100Y330200D03*
D18*
X152400Y520700D03*
X152400Y419100D03*
D15*
X723900Y330200D03*
X622300Y330200D03*
X546100Y330200D03*
X444500Y330200D03*
X368300Y330200D03*
X266700Y330200D03*
X190500Y330200D03*
X88900Y330200D03*
D19*
X653288Y949706D03*
X718312Y949706D03*
X653288Y904494D03*
X718312Y904494D03*
D20*
X83312Y673100D02*
X69088Y673100D01*
X69088Y698500D02*
X83312Y698500D01*
D21*
X927100Y616100D03*
X927100Y596100D03*
X927100Y576100D03*
X927100Y556100D03*
X927100Y536100D03*
X927100Y516100D03*
X927100Y496100D03*
X927100Y476100D03*
D22*
X294400Y137100D03*
X414400Y257100D03*
X354400Y277100D03*
X414400Y137100D03*
X294400Y257100D03*
X116600Y137100D03*
X236600Y257100D03*
X176600Y277100D03*
X236600Y137100D03*
X116600Y257100D03*
D14*
X1403096Y635000D02*
X1416304Y635000D01*
X1416304Y660400D02*
X1403096Y660400D01*
X1403096Y787400D02*
X1416304Y787400D01*
X1416304Y812800D02*
X1403096Y812800D01*
X1403096Y685800D02*
X1416304Y685800D01*
X1416304Y711200D02*
X1403096Y711200D01*
X1403096Y762000D02*
X1416304Y762000D01*
X1416304Y736600D02*
X1403096Y736600D01*
X1340104Y812800D02*
X1326896Y812800D01*
X1326896Y787400D02*
X1340104Y787400D01*
X1340104Y762000D02*
X1326896Y762000D01*
X1326896Y736600D02*
X1340104Y736600D01*
X1340104Y711200D02*
X1326896Y711200D01*
X1326896Y685800D02*
X1340104Y685800D01*
X1340104Y660400D02*
X1326896Y660400D01*
X1326896Y635000D02*
X1340104Y635000D01*
D23*
X685800Y818960D02*
X685800Y832040D01*
X711200Y832040D02*
X711200Y818960D01*
X736600Y818960D02*
X736600Y832040D01*
X762000Y832040D02*
X762000Y818960D01*
X787400Y818960D02*
X787400Y832040D01*
X812800Y832040D02*
X812800Y818960D01*
X679640Y800100D02*
X666560Y800100D01*
X666560Y774700D02*
X679640Y774700D01*
X679640Y749300D02*
X666560Y749300D01*
X666560Y723900D02*
X679640Y723900D01*
X679640Y698500D02*
X666560Y698500D01*
X666560Y673100D02*
X679640Y673100D01*
X679640Y647700D02*
X666560Y647700D01*
X666560Y622300D02*
X679640Y622300D01*
X679640Y596900D02*
X666560Y596900D01*
X666560Y571500D02*
X679640Y571500D01*
X679640Y546100D02*
X666560Y546100D01*
X666560Y520700D02*
X679640Y520700D01*
X818960Y800100D02*
X832040Y800100D01*
X832040Y774700D02*
X818960Y774700D01*
X818960Y749300D02*
X832040Y749300D01*
X832040Y723900D02*
X818960Y723900D01*
X818960Y698500D02*
X832040Y698500D01*
X832040Y673100D02*
X818960Y673100D01*
X818960Y647700D02*
X832040Y647700D01*
X832040Y622300D02*
X818960Y622300D01*
X818960Y596900D02*
X832040Y596900D01*
X832040Y571500D02*
X818960Y571500D01*
X818960Y546100D02*
X832040Y546100D01*
X832040Y520700D02*
X818960Y520700D01*
X787400Y527240D02*
X787400Y514160D01*
X762000Y514160D02*
X762000Y527240D01*
X736600Y527240D02*
X736600Y514160D01*
D24*
X787400Y711200D03*
X787400Y685800D03*
D25*
X383450Y847950D03*
X442450Y847950D03*
X503450Y511950D03*
X323450Y511950D03*
D22*
X1361200Y137100D03*
X1481200Y257100D03*
X1421200Y277100D03*
X1481200Y137100D03*
X1361200Y257100D03*
X1183400Y137100D03*
X1303400Y257100D03*
X1243400Y277100D03*
X1303400Y137100D03*
X1183400Y257100D03*
X1005600Y137100D03*
X1125600Y257100D03*
X1065600Y277100D03*
X1125600Y137100D03*
X1005600Y257100D03*
X827800Y137100D03*
X947800Y257100D03*
X887800Y277100D03*
X947800Y137100D03*
X827800Y257100D03*
X650000Y137100D03*
X770000Y257100D03*
X710000Y277100D03*
X770000Y137100D03*
X650000Y257100D03*
X472200Y137100D03*
X592200Y257100D03*
X532200Y277100D03*
X592200Y137100D03*
X472200Y257100D03*
D26*
X228600Y916623D02*
X228600Y937578D01*
X177800Y937578D02*
X177800Y916623D01*
X1371600Y86678D02*
X1371600Y65723D01*
X1422400Y65723D02*
X1422400Y86678D01*
X1473200Y86678D02*
X1473200Y65723D01*
X1193800Y65723D02*
X1193800Y86678D01*
X1244600Y86678D02*
X1244600Y65723D01*
X1295400Y65723D02*
X1295400Y86678D01*
X1016000Y86678D02*
X1016000Y65723D01*
X1066800Y65723D02*
X1066800Y86678D01*
X1117600Y86678D02*
X1117600Y65723D01*
X838200Y65723D02*
X838200Y86678D01*
X889000Y86678D02*
X889000Y65723D01*
X939800Y65723D02*
X939800Y86678D01*
X660400Y86678D02*
X660400Y65723D01*
X711200Y65723D02*
X711200Y86678D01*
X762000Y86678D02*
X762000Y65723D01*
X482600Y65723D02*
X482600Y86678D01*
X533400Y86678D02*
X533400Y65723D01*
X584200Y65723D02*
X584200Y86678D01*
X304800Y86678D02*
X304800Y65723D01*
X355600Y65723D02*
X355600Y86678D01*
X406400Y86678D02*
X406400Y65723D01*
X127000Y65723D02*
X127000Y86678D01*
X177800Y86678D02*
X177800Y65723D01*
X228600Y65723D02*
X228600Y86678D01*
D27*
X755650Y698500D03*
X895350Y647700D03*
M02*
