G04 EAGLE Gerber RS-274X export*
G75*
%MOMM*%
%FSLAX34Y34*%
%LPD*%
%INSoldermask Top*%
%IPPOS*%
%AMOC8*
5,1,8,0,0,1.08239X$1,22.5*%
G01*
%ADD10C,3.703200*%
%ADD11P,1.951982X8X22.500000*%
%ADD12C,1.803400*%
%ADD13C,2.743200*%
%ADD14C,1.524000*%
%ADD15P,1.649562X8X202.500000*%
%ADD16P,1.649562X8X22.500000*%
%ADD17P,1.649562X8X112.500000*%
%ADD18P,1.649562X8X292.500000*%
%ADD19C,2.082800*%
%ADD20C,1.625600*%
%ADD21C,1.625600*%
%ADD22C,1.611200*%
%ADD23C,1.511200*%
%ADD24C,1.511200*%
%ADD25R,1.511200X1.511200*%
%ADD26C,2.298700*%
%ADD27C,0.959600*%

G36*
X122469Y462218D02*
X122469Y462218D01*
X122517Y462232D01*
X122607Y462250D01*
X123516Y462571D01*
X123560Y462596D01*
X123644Y462633D01*
X124459Y463148D01*
X124496Y463182D01*
X124569Y463237D01*
X125249Y463921D01*
X125278Y463962D01*
X125337Y464032D01*
X125848Y464850D01*
X125866Y464897D01*
X125909Y464978D01*
X126224Y465889D01*
X126232Y465939D01*
X126256Y466028D01*
X126361Y466986D01*
X126358Y467016D01*
X126364Y467055D01*
X126364Y467156D01*
X126359Y467184D01*
X126361Y467220D01*
X126262Y468193D01*
X126249Y468242D01*
X126232Y468332D01*
X125920Y469259D01*
X125895Y469303D01*
X125860Y469388D01*
X125349Y470222D01*
X125315Y470260D01*
X125261Y470334D01*
X124577Y471034D01*
X124536Y471063D01*
X124467Y471123D01*
X123645Y471653D01*
X123598Y471673D01*
X123518Y471717D01*
X122598Y472050D01*
X122549Y472059D01*
X122460Y472084D01*
X121489Y472204D01*
X121479Y472204D01*
X121467Y472207D01*
X121164Y472234D01*
X121114Y472229D01*
X121015Y472229D01*
X120058Y472087D01*
X120010Y472071D01*
X119920Y472051D01*
X119018Y471699D01*
X118975Y471673D01*
X118893Y471633D01*
X118092Y471090D01*
X118056Y471054D01*
X117984Y470997D01*
X117324Y470289D01*
X117297Y470247D01*
X117240Y470175D01*
X116754Y469338D01*
X116737Y469290D01*
X116697Y469207D01*
X116410Y468283D01*
X116404Y468233D01*
X116383Y468143D01*
X116317Y467278D01*
X116315Y467270D01*
X116315Y467252D01*
X116312Y467211D01*
X116308Y467182D01*
X116308Y467130D01*
X116313Y467103D01*
X116416Y466136D01*
X116430Y466088D01*
X116447Y465997D01*
X116766Y465067D01*
X116791Y465023D01*
X116827Y464938D01*
X117346Y464102D01*
X117379Y464065D01*
X117434Y463991D01*
X118125Y463291D01*
X118167Y463262D01*
X118236Y463201D01*
X119066Y462673D01*
X119113Y462654D01*
X119194Y462611D01*
X120121Y462280D01*
X120171Y462272D01*
X120259Y462248D01*
X121212Y462135D01*
X121316Y462115D01*
X121320Y462115D01*
X121323Y462113D01*
X121511Y462107D01*
X122469Y462218D01*
G37*
G36*
X57445Y462193D02*
X57445Y462193D01*
X57493Y462207D01*
X57583Y462225D01*
X58492Y462546D01*
X58536Y462571D01*
X58620Y462608D01*
X59435Y463123D01*
X59472Y463157D01*
X59545Y463212D01*
X60225Y463896D01*
X60254Y463937D01*
X60313Y464007D01*
X60824Y464825D01*
X60842Y464872D01*
X60885Y464953D01*
X61200Y465864D01*
X61208Y465914D01*
X61232Y466003D01*
X61337Y466961D01*
X61334Y466991D01*
X61340Y467030D01*
X61340Y467131D01*
X61335Y467159D01*
X61337Y467195D01*
X61238Y468168D01*
X61225Y468217D01*
X61208Y468307D01*
X60896Y469234D01*
X60871Y469278D01*
X60836Y469363D01*
X60325Y470197D01*
X60291Y470235D01*
X60237Y470309D01*
X59553Y471009D01*
X59512Y471038D01*
X59443Y471098D01*
X58621Y471628D01*
X58574Y471648D01*
X58494Y471692D01*
X57574Y472025D01*
X57525Y472034D01*
X57436Y472059D01*
X56465Y472179D01*
X56455Y472179D01*
X56443Y472182D01*
X56140Y472209D01*
X56090Y472204D01*
X55991Y472204D01*
X55034Y472062D01*
X54986Y472046D01*
X54896Y472026D01*
X53994Y471674D01*
X53951Y471648D01*
X53869Y471608D01*
X53068Y471065D01*
X53032Y471029D01*
X52960Y470972D01*
X52300Y470264D01*
X52273Y470222D01*
X52216Y470150D01*
X51730Y469313D01*
X51713Y469265D01*
X51673Y469182D01*
X51386Y468258D01*
X51380Y468208D01*
X51359Y468118D01*
X51293Y467253D01*
X51291Y467245D01*
X51291Y467227D01*
X51288Y467186D01*
X51284Y467157D01*
X51284Y467105D01*
X51289Y467078D01*
X51392Y466111D01*
X51406Y466063D01*
X51423Y465972D01*
X51742Y465042D01*
X51767Y464998D01*
X51803Y464913D01*
X52322Y464077D01*
X52355Y464040D01*
X52410Y463966D01*
X53101Y463266D01*
X53143Y463237D01*
X53212Y463176D01*
X54042Y462648D01*
X54089Y462629D01*
X54170Y462586D01*
X55097Y462255D01*
X55147Y462247D01*
X55235Y462223D01*
X56188Y462110D01*
X56292Y462090D01*
X56296Y462090D01*
X56299Y462088D01*
X56487Y462082D01*
X57445Y462193D01*
G37*
G36*
X57445Y416955D02*
X57445Y416955D01*
X57493Y416969D01*
X57583Y416987D01*
X58492Y417308D01*
X58536Y417333D01*
X58620Y417370D01*
X59435Y417885D01*
X59472Y417919D01*
X59545Y417974D01*
X60225Y418658D01*
X60254Y418699D01*
X60313Y418769D01*
X60824Y419587D01*
X60842Y419634D01*
X60885Y419715D01*
X61200Y420626D01*
X61208Y420676D01*
X61232Y420765D01*
X61337Y421723D01*
X61334Y421753D01*
X61340Y421792D01*
X61340Y421893D01*
X61335Y421921D01*
X61337Y421957D01*
X61238Y422930D01*
X61225Y422979D01*
X61208Y423069D01*
X60896Y423996D01*
X60871Y424040D01*
X60836Y424125D01*
X60325Y424959D01*
X60291Y424997D01*
X60237Y425071D01*
X59553Y425771D01*
X59512Y425800D01*
X59443Y425860D01*
X58621Y426390D01*
X58574Y426410D01*
X58494Y426454D01*
X57574Y426787D01*
X57525Y426796D01*
X57436Y426821D01*
X56465Y426941D01*
X56455Y426941D01*
X56443Y426944D01*
X56140Y426971D01*
X56090Y426966D01*
X55991Y426966D01*
X55034Y426824D01*
X54986Y426808D01*
X54896Y426788D01*
X53994Y426436D01*
X53951Y426410D01*
X53869Y426370D01*
X53068Y425827D01*
X53032Y425791D01*
X52960Y425734D01*
X52300Y425026D01*
X52273Y424984D01*
X52216Y424912D01*
X51730Y424075D01*
X51713Y424027D01*
X51673Y423944D01*
X51386Y423020D01*
X51380Y422970D01*
X51359Y422880D01*
X51293Y422015D01*
X51291Y422007D01*
X51291Y421989D01*
X51288Y421948D01*
X51284Y421919D01*
X51284Y421867D01*
X51289Y421840D01*
X51392Y420873D01*
X51406Y420825D01*
X51423Y420734D01*
X51742Y419804D01*
X51767Y419760D01*
X51803Y419675D01*
X52322Y418839D01*
X52355Y418802D01*
X52410Y418728D01*
X53101Y418028D01*
X53143Y417999D01*
X53212Y417938D01*
X54042Y417410D01*
X54089Y417391D01*
X54170Y417348D01*
X55097Y417017D01*
X55147Y417009D01*
X55235Y416985D01*
X56188Y416872D01*
X56292Y416852D01*
X56296Y416852D01*
X56299Y416850D01*
X56487Y416844D01*
X57445Y416955D01*
G37*
G36*
X122520Y416930D02*
X122520Y416930D01*
X122568Y416944D01*
X122658Y416962D01*
X123567Y417283D01*
X123611Y417308D01*
X123695Y417345D01*
X124510Y417860D01*
X124547Y417894D01*
X124620Y417949D01*
X125300Y418633D01*
X125329Y418674D01*
X125388Y418744D01*
X125899Y419562D01*
X125917Y419609D01*
X125960Y419690D01*
X126275Y420601D01*
X126283Y420651D01*
X126307Y420740D01*
X126412Y421698D01*
X126409Y421728D01*
X126415Y421767D01*
X126415Y421868D01*
X126410Y421896D01*
X126412Y421932D01*
X126313Y422905D01*
X126300Y422954D01*
X126283Y423044D01*
X125971Y423971D01*
X125946Y424015D01*
X125911Y424100D01*
X125400Y424934D01*
X125366Y424972D01*
X125312Y425046D01*
X124628Y425746D01*
X124587Y425775D01*
X124518Y425835D01*
X123696Y426365D01*
X123649Y426385D01*
X123569Y426429D01*
X122649Y426762D01*
X122600Y426771D01*
X122511Y426796D01*
X121540Y426916D01*
X121530Y426916D01*
X121518Y426919D01*
X121215Y426946D01*
X121165Y426941D01*
X121066Y426941D01*
X120109Y426799D01*
X120061Y426783D01*
X119971Y426763D01*
X119069Y426411D01*
X119026Y426385D01*
X118944Y426345D01*
X118143Y425802D01*
X118107Y425766D01*
X118035Y425709D01*
X117375Y425001D01*
X117348Y424959D01*
X117291Y424887D01*
X116805Y424050D01*
X116788Y424002D01*
X116748Y423919D01*
X116461Y422995D01*
X116455Y422945D01*
X116434Y422855D01*
X116368Y421990D01*
X116366Y421982D01*
X116366Y421964D01*
X116363Y421923D01*
X116359Y421894D01*
X116359Y421842D01*
X116364Y421815D01*
X116467Y420848D01*
X116481Y420800D01*
X116498Y420709D01*
X116817Y419779D01*
X116842Y419735D01*
X116878Y419650D01*
X117397Y418814D01*
X117430Y418777D01*
X117485Y418703D01*
X118176Y418003D01*
X118218Y417974D01*
X118287Y417913D01*
X119117Y417385D01*
X119164Y417366D01*
X119245Y417323D01*
X120172Y416992D01*
X120222Y416984D01*
X120310Y416960D01*
X121263Y416847D01*
X121367Y416827D01*
X121371Y416827D01*
X121374Y416825D01*
X121562Y416819D01*
X122520Y416930D01*
G37*
G36*
X856735Y944659D02*
X856735Y944659D01*
X856834Y944659D01*
X857791Y944801D01*
X857839Y944817D01*
X857929Y944837D01*
X858831Y945189D01*
X858874Y945215D01*
X858956Y945255D01*
X859757Y945798D01*
X859793Y945834D01*
X859865Y945891D01*
X860525Y946599D01*
X860552Y946641D01*
X860609Y946713D01*
X861095Y947550D01*
X861112Y947598D01*
X861152Y947681D01*
X861439Y948605D01*
X861445Y948655D01*
X861466Y948745D01*
X861533Y949629D01*
X861534Y949632D01*
X861534Y949640D01*
X861537Y949677D01*
X861541Y949706D01*
X861541Y949758D01*
X861536Y949785D01*
X861433Y950752D01*
X861419Y950800D01*
X861402Y950891D01*
X861083Y951821D01*
X861058Y951865D01*
X861022Y951950D01*
X860503Y952786D01*
X860470Y952823D01*
X860415Y952898D01*
X859724Y953597D01*
X859682Y953626D01*
X859613Y953687D01*
X858783Y954215D01*
X858736Y954234D01*
X858655Y954277D01*
X857728Y954608D01*
X857678Y954616D01*
X857590Y954640D01*
X856637Y954753D01*
X856534Y954773D01*
X856529Y954773D01*
X856526Y954775D01*
X856338Y954781D01*
X855380Y954670D01*
X855332Y954656D01*
X855242Y954638D01*
X854333Y954317D01*
X854289Y954292D01*
X854205Y954255D01*
X853390Y953740D01*
X853353Y953706D01*
X853280Y953651D01*
X852600Y952967D01*
X852571Y952926D01*
X852512Y952856D01*
X852001Y952038D01*
X851983Y951991D01*
X851940Y951910D01*
X851625Y950999D01*
X851617Y950949D01*
X851593Y950860D01*
X851489Y949902D01*
X851491Y949872D01*
X851485Y949833D01*
X851485Y949732D01*
X851490Y949705D01*
X851488Y949668D01*
X851587Y948695D01*
X851600Y948646D01*
X851617Y948556D01*
X851929Y947629D01*
X851954Y947585D01*
X851989Y947500D01*
X852500Y946666D01*
X852534Y946628D01*
X852588Y946554D01*
X853272Y945854D01*
X853313Y945825D01*
X853382Y945765D01*
X854204Y945235D01*
X854251Y945215D01*
X854331Y945171D01*
X855251Y944838D01*
X855300Y944829D01*
X855389Y944804D01*
X856360Y944684D01*
X856370Y944684D01*
X856382Y944681D01*
X856685Y944654D01*
X856735Y944659D01*
G37*
G36*
X1059935Y944659D02*
X1059935Y944659D01*
X1060034Y944659D01*
X1060991Y944801D01*
X1061039Y944817D01*
X1061129Y944837D01*
X1062031Y945189D01*
X1062074Y945215D01*
X1062156Y945255D01*
X1062957Y945798D01*
X1062993Y945834D01*
X1063065Y945891D01*
X1063725Y946599D01*
X1063752Y946641D01*
X1063809Y946713D01*
X1064295Y947550D01*
X1064312Y947598D01*
X1064352Y947681D01*
X1064639Y948605D01*
X1064645Y948655D01*
X1064666Y948745D01*
X1064733Y949629D01*
X1064734Y949632D01*
X1064734Y949640D01*
X1064737Y949677D01*
X1064741Y949706D01*
X1064741Y949758D01*
X1064736Y949785D01*
X1064633Y950752D01*
X1064619Y950800D01*
X1064602Y950891D01*
X1064283Y951821D01*
X1064258Y951865D01*
X1064222Y951950D01*
X1063703Y952786D01*
X1063670Y952823D01*
X1063615Y952898D01*
X1062924Y953597D01*
X1062882Y953626D01*
X1062813Y953687D01*
X1061983Y954215D01*
X1061936Y954234D01*
X1061855Y954277D01*
X1060928Y954608D01*
X1060878Y954616D01*
X1060790Y954640D01*
X1059837Y954753D01*
X1059734Y954773D01*
X1059729Y954773D01*
X1059726Y954775D01*
X1059538Y954781D01*
X1058580Y954670D01*
X1058532Y954656D01*
X1058442Y954638D01*
X1057533Y954317D01*
X1057489Y954292D01*
X1057405Y954255D01*
X1056590Y953740D01*
X1056553Y953706D01*
X1056480Y953651D01*
X1055800Y952967D01*
X1055771Y952926D01*
X1055712Y952856D01*
X1055201Y952038D01*
X1055183Y951991D01*
X1055140Y951910D01*
X1054825Y950999D01*
X1054817Y950949D01*
X1054793Y950860D01*
X1054689Y949902D01*
X1054691Y949872D01*
X1054685Y949833D01*
X1054685Y949732D01*
X1054690Y949705D01*
X1054688Y949668D01*
X1054787Y948695D01*
X1054800Y948646D01*
X1054817Y948556D01*
X1055129Y947629D01*
X1055154Y947585D01*
X1055189Y947500D01*
X1055700Y946666D01*
X1055734Y946628D01*
X1055788Y946554D01*
X1056472Y945854D01*
X1056513Y945825D01*
X1056582Y945765D01*
X1057404Y945235D01*
X1057451Y945215D01*
X1057531Y945171D01*
X1058451Y944838D01*
X1058500Y944829D01*
X1058589Y944804D01*
X1059560Y944684D01*
X1059570Y944684D01*
X1059582Y944681D01*
X1059885Y944654D01*
X1059935Y944659D01*
G37*
G36*
X958335Y944659D02*
X958335Y944659D01*
X958434Y944659D01*
X959391Y944801D01*
X959439Y944817D01*
X959529Y944837D01*
X960431Y945189D01*
X960474Y945215D01*
X960556Y945255D01*
X961357Y945798D01*
X961393Y945834D01*
X961465Y945891D01*
X962125Y946599D01*
X962152Y946641D01*
X962209Y946713D01*
X962695Y947550D01*
X962712Y947598D01*
X962752Y947681D01*
X963039Y948605D01*
X963045Y948655D01*
X963066Y948745D01*
X963133Y949629D01*
X963134Y949632D01*
X963134Y949640D01*
X963137Y949677D01*
X963141Y949706D01*
X963141Y949758D01*
X963136Y949785D01*
X963033Y950752D01*
X963019Y950800D01*
X963002Y950891D01*
X962683Y951821D01*
X962658Y951865D01*
X962622Y951950D01*
X962103Y952786D01*
X962070Y952823D01*
X962015Y952898D01*
X961324Y953597D01*
X961282Y953626D01*
X961213Y953687D01*
X960383Y954215D01*
X960336Y954234D01*
X960255Y954277D01*
X959328Y954608D01*
X959278Y954616D01*
X959190Y954640D01*
X958237Y954753D01*
X958134Y954773D01*
X958129Y954773D01*
X958126Y954775D01*
X957938Y954781D01*
X956980Y954670D01*
X956932Y954656D01*
X956842Y954638D01*
X955933Y954317D01*
X955889Y954292D01*
X955805Y954255D01*
X954990Y953740D01*
X954953Y953706D01*
X954880Y953651D01*
X954200Y952967D01*
X954171Y952926D01*
X954112Y952856D01*
X953601Y952038D01*
X953583Y951991D01*
X953540Y951910D01*
X953225Y950999D01*
X953217Y950949D01*
X953193Y950860D01*
X953089Y949902D01*
X953091Y949872D01*
X953085Y949833D01*
X953085Y949732D01*
X953090Y949705D01*
X953088Y949668D01*
X953187Y948695D01*
X953200Y948646D01*
X953217Y948556D01*
X953529Y947629D01*
X953554Y947585D01*
X953589Y947500D01*
X954100Y946666D01*
X954134Y946628D01*
X954188Y946554D01*
X954872Y945854D01*
X954913Y945825D01*
X954982Y945765D01*
X955804Y945235D01*
X955851Y945215D01*
X955931Y945171D01*
X956851Y944838D01*
X956900Y944829D01*
X956989Y944804D01*
X957960Y944684D01*
X957970Y944684D01*
X957982Y944681D01*
X958285Y944654D01*
X958335Y944659D01*
G37*
G36*
X1161535Y944659D02*
X1161535Y944659D01*
X1161634Y944659D01*
X1162591Y944801D01*
X1162639Y944817D01*
X1162729Y944837D01*
X1163631Y945189D01*
X1163674Y945215D01*
X1163756Y945255D01*
X1164557Y945798D01*
X1164593Y945834D01*
X1164665Y945891D01*
X1165325Y946599D01*
X1165352Y946641D01*
X1165409Y946713D01*
X1165895Y947550D01*
X1165912Y947598D01*
X1165952Y947681D01*
X1166239Y948605D01*
X1166245Y948655D01*
X1166266Y948745D01*
X1166333Y949629D01*
X1166334Y949632D01*
X1166334Y949640D01*
X1166337Y949677D01*
X1166341Y949706D01*
X1166341Y949758D01*
X1166336Y949785D01*
X1166233Y950752D01*
X1166219Y950800D01*
X1166202Y950891D01*
X1165883Y951821D01*
X1165858Y951865D01*
X1165822Y951950D01*
X1165303Y952786D01*
X1165270Y952823D01*
X1165215Y952898D01*
X1164524Y953597D01*
X1164482Y953626D01*
X1164413Y953687D01*
X1163583Y954215D01*
X1163536Y954234D01*
X1163455Y954277D01*
X1162528Y954608D01*
X1162478Y954616D01*
X1162390Y954640D01*
X1161437Y954753D01*
X1161334Y954773D01*
X1161329Y954773D01*
X1161326Y954775D01*
X1161138Y954781D01*
X1160180Y954670D01*
X1160132Y954656D01*
X1160042Y954638D01*
X1159133Y954317D01*
X1159089Y954292D01*
X1159005Y954255D01*
X1158190Y953740D01*
X1158153Y953706D01*
X1158080Y953651D01*
X1157400Y952967D01*
X1157371Y952926D01*
X1157312Y952856D01*
X1156801Y952038D01*
X1156783Y951991D01*
X1156740Y951910D01*
X1156425Y950999D01*
X1156417Y950949D01*
X1156393Y950860D01*
X1156289Y949902D01*
X1156291Y949872D01*
X1156285Y949833D01*
X1156285Y949732D01*
X1156290Y949705D01*
X1156288Y949668D01*
X1156387Y948695D01*
X1156400Y948646D01*
X1156417Y948556D01*
X1156729Y947629D01*
X1156754Y947585D01*
X1156789Y947500D01*
X1157300Y946666D01*
X1157334Y946628D01*
X1157388Y946554D01*
X1158072Y945854D01*
X1158113Y945825D01*
X1158182Y945765D01*
X1159004Y945235D01*
X1159051Y945215D01*
X1159131Y945171D01*
X1160051Y944838D01*
X1160100Y944829D01*
X1160189Y944804D01*
X1161160Y944684D01*
X1161170Y944684D01*
X1161182Y944681D01*
X1161485Y944654D01*
X1161535Y944659D01*
G37*
G36*
X1364735Y944659D02*
X1364735Y944659D01*
X1364834Y944659D01*
X1365791Y944801D01*
X1365839Y944817D01*
X1365929Y944837D01*
X1366831Y945189D01*
X1366874Y945215D01*
X1366956Y945255D01*
X1367757Y945798D01*
X1367793Y945834D01*
X1367865Y945891D01*
X1368525Y946599D01*
X1368552Y946641D01*
X1368609Y946713D01*
X1369095Y947550D01*
X1369112Y947598D01*
X1369152Y947681D01*
X1369439Y948605D01*
X1369445Y948655D01*
X1369466Y948745D01*
X1369533Y949629D01*
X1369534Y949632D01*
X1369534Y949640D01*
X1369537Y949677D01*
X1369541Y949706D01*
X1369541Y949758D01*
X1369536Y949785D01*
X1369433Y950752D01*
X1369419Y950800D01*
X1369402Y950891D01*
X1369083Y951821D01*
X1369058Y951865D01*
X1369022Y951950D01*
X1368503Y952786D01*
X1368470Y952823D01*
X1368415Y952898D01*
X1367724Y953597D01*
X1367682Y953626D01*
X1367613Y953687D01*
X1366783Y954215D01*
X1366736Y954234D01*
X1366655Y954277D01*
X1365728Y954608D01*
X1365678Y954616D01*
X1365590Y954640D01*
X1364637Y954753D01*
X1364534Y954773D01*
X1364529Y954773D01*
X1364526Y954775D01*
X1364338Y954781D01*
X1363380Y954670D01*
X1363332Y954656D01*
X1363242Y954638D01*
X1362333Y954317D01*
X1362289Y954292D01*
X1362205Y954255D01*
X1361390Y953740D01*
X1361353Y953706D01*
X1361280Y953651D01*
X1360600Y952967D01*
X1360571Y952926D01*
X1360512Y952856D01*
X1360001Y952038D01*
X1359983Y951991D01*
X1359940Y951910D01*
X1359625Y950999D01*
X1359617Y950949D01*
X1359593Y950860D01*
X1359489Y949902D01*
X1359491Y949872D01*
X1359485Y949833D01*
X1359485Y949732D01*
X1359490Y949705D01*
X1359488Y949668D01*
X1359587Y948695D01*
X1359600Y948646D01*
X1359617Y948556D01*
X1359929Y947629D01*
X1359954Y947585D01*
X1359989Y947500D01*
X1360500Y946666D01*
X1360534Y946628D01*
X1360588Y946554D01*
X1361272Y945854D01*
X1361313Y945825D01*
X1361382Y945765D01*
X1362204Y945235D01*
X1362251Y945215D01*
X1362331Y945171D01*
X1363251Y944838D01*
X1363300Y944829D01*
X1363389Y944804D01*
X1364360Y944684D01*
X1364370Y944684D01*
X1364382Y944681D01*
X1364685Y944654D01*
X1364735Y944659D01*
G37*
G36*
X755135Y944659D02*
X755135Y944659D01*
X755234Y944659D01*
X756191Y944801D01*
X756239Y944817D01*
X756329Y944837D01*
X757231Y945189D01*
X757274Y945215D01*
X757356Y945255D01*
X758157Y945798D01*
X758193Y945834D01*
X758265Y945891D01*
X758925Y946599D01*
X758952Y946641D01*
X759009Y946713D01*
X759495Y947550D01*
X759512Y947598D01*
X759552Y947681D01*
X759839Y948605D01*
X759845Y948655D01*
X759866Y948745D01*
X759933Y949629D01*
X759934Y949632D01*
X759934Y949640D01*
X759937Y949677D01*
X759941Y949706D01*
X759941Y949758D01*
X759936Y949785D01*
X759833Y950752D01*
X759819Y950800D01*
X759802Y950891D01*
X759483Y951821D01*
X759458Y951865D01*
X759422Y951950D01*
X758903Y952786D01*
X758870Y952823D01*
X758815Y952898D01*
X758124Y953597D01*
X758082Y953626D01*
X758013Y953687D01*
X757183Y954215D01*
X757136Y954234D01*
X757055Y954277D01*
X756128Y954608D01*
X756078Y954616D01*
X755990Y954640D01*
X755037Y954753D01*
X754934Y954773D01*
X754929Y954773D01*
X754926Y954775D01*
X754738Y954781D01*
X753780Y954670D01*
X753732Y954656D01*
X753642Y954638D01*
X752733Y954317D01*
X752689Y954292D01*
X752605Y954255D01*
X751790Y953740D01*
X751753Y953706D01*
X751680Y953651D01*
X751000Y952967D01*
X750971Y952926D01*
X750912Y952856D01*
X750401Y952038D01*
X750383Y951991D01*
X750340Y951910D01*
X750025Y950999D01*
X750017Y950949D01*
X749993Y950860D01*
X749889Y949902D01*
X749891Y949872D01*
X749885Y949833D01*
X749885Y949732D01*
X749890Y949705D01*
X749888Y949668D01*
X749987Y948695D01*
X750000Y948646D01*
X750017Y948556D01*
X750329Y947629D01*
X750354Y947585D01*
X750389Y947500D01*
X750900Y946666D01*
X750934Y946628D01*
X750988Y946554D01*
X751672Y945854D01*
X751713Y945825D01*
X751782Y945765D01*
X752604Y945235D01*
X752651Y945215D01*
X752731Y945171D01*
X753651Y944838D01*
X753700Y944829D01*
X753789Y944804D01*
X754760Y944684D01*
X754770Y944684D01*
X754782Y944681D01*
X755085Y944654D01*
X755135Y944659D01*
G37*
G36*
X1263135Y944659D02*
X1263135Y944659D01*
X1263234Y944659D01*
X1264191Y944801D01*
X1264239Y944817D01*
X1264329Y944837D01*
X1265231Y945189D01*
X1265274Y945215D01*
X1265356Y945255D01*
X1266157Y945798D01*
X1266193Y945834D01*
X1266265Y945891D01*
X1266925Y946599D01*
X1266952Y946641D01*
X1267009Y946713D01*
X1267495Y947550D01*
X1267512Y947598D01*
X1267552Y947681D01*
X1267839Y948605D01*
X1267845Y948655D01*
X1267866Y948745D01*
X1267933Y949629D01*
X1267934Y949632D01*
X1267934Y949640D01*
X1267937Y949677D01*
X1267941Y949706D01*
X1267941Y949758D01*
X1267936Y949785D01*
X1267833Y950752D01*
X1267819Y950800D01*
X1267802Y950891D01*
X1267483Y951821D01*
X1267458Y951865D01*
X1267422Y951950D01*
X1266903Y952786D01*
X1266870Y952823D01*
X1266815Y952898D01*
X1266124Y953597D01*
X1266082Y953626D01*
X1266013Y953687D01*
X1265183Y954215D01*
X1265136Y954234D01*
X1265055Y954277D01*
X1264128Y954608D01*
X1264078Y954616D01*
X1263990Y954640D01*
X1263037Y954753D01*
X1262934Y954773D01*
X1262929Y954773D01*
X1262926Y954775D01*
X1262738Y954781D01*
X1261780Y954670D01*
X1261732Y954656D01*
X1261642Y954638D01*
X1260733Y954317D01*
X1260689Y954292D01*
X1260605Y954255D01*
X1259790Y953740D01*
X1259753Y953706D01*
X1259680Y953651D01*
X1259000Y952967D01*
X1258971Y952926D01*
X1258912Y952856D01*
X1258401Y952038D01*
X1258383Y951991D01*
X1258340Y951910D01*
X1258025Y950999D01*
X1258017Y950949D01*
X1257993Y950860D01*
X1257889Y949902D01*
X1257891Y949872D01*
X1257885Y949833D01*
X1257885Y949732D01*
X1257890Y949705D01*
X1257888Y949668D01*
X1257987Y948695D01*
X1258000Y948646D01*
X1258017Y948556D01*
X1258329Y947629D01*
X1258354Y947585D01*
X1258389Y947500D01*
X1258900Y946666D01*
X1258934Y946628D01*
X1258988Y946554D01*
X1259672Y945854D01*
X1259713Y945825D01*
X1259782Y945765D01*
X1260604Y945235D01*
X1260651Y945215D01*
X1260731Y945171D01*
X1261651Y944838D01*
X1261700Y944829D01*
X1261789Y944804D01*
X1262760Y944684D01*
X1262770Y944684D01*
X1262782Y944681D01*
X1263085Y944654D01*
X1263135Y944659D01*
G37*
G36*
X1429810Y944634D02*
X1429810Y944634D01*
X1429909Y944634D01*
X1430866Y944776D01*
X1430914Y944792D01*
X1431004Y944812D01*
X1431906Y945164D01*
X1431949Y945190D01*
X1432031Y945230D01*
X1432832Y945773D01*
X1432868Y945809D01*
X1432940Y945866D01*
X1433600Y946574D01*
X1433627Y946616D01*
X1433684Y946688D01*
X1434170Y947525D01*
X1434187Y947573D01*
X1434227Y947656D01*
X1434514Y948580D01*
X1434520Y948630D01*
X1434541Y948720D01*
X1434608Y949604D01*
X1434609Y949607D01*
X1434609Y949615D01*
X1434612Y949652D01*
X1434616Y949681D01*
X1434616Y949733D01*
X1434611Y949760D01*
X1434508Y950727D01*
X1434494Y950775D01*
X1434477Y950866D01*
X1434158Y951796D01*
X1434133Y951840D01*
X1434097Y951925D01*
X1433578Y952761D01*
X1433545Y952798D01*
X1433490Y952873D01*
X1432799Y953572D01*
X1432757Y953601D01*
X1432688Y953662D01*
X1431858Y954190D01*
X1431811Y954209D01*
X1431730Y954252D01*
X1430803Y954583D01*
X1430753Y954591D01*
X1430665Y954615D01*
X1429712Y954728D01*
X1429609Y954748D01*
X1429604Y954748D01*
X1429601Y954750D01*
X1429413Y954756D01*
X1428455Y954645D01*
X1428407Y954631D01*
X1428317Y954613D01*
X1427408Y954292D01*
X1427364Y954267D01*
X1427280Y954230D01*
X1426465Y953715D01*
X1426428Y953681D01*
X1426355Y953626D01*
X1425675Y952942D01*
X1425646Y952901D01*
X1425587Y952831D01*
X1425076Y952013D01*
X1425058Y951966D01*
X1425015Y951885D01*
X1424700Y950974D01*
X1424692Y950924D01*
X1424668Y950835D01*
X1424564Y949877D01*
X1424566Y949847D01*
X1424560Y949808D01*
X1424560Y949707D01*
X1424565Y949680D01*
X1424563Y949643D01*
X1424662Y948670D01*
X1424675Y948621D01*
X1424692Y948531D01*
X1425004Y947604D01*
X1425029Y947560D01*
X1425064Y947475D01*
X1425575Y946641D01*
X1425609Y946603D01*
X1425663Y946529D01*
X1426347Y945829D01*
X1426388Y945800D01*
X1426457Y945740D01*
X1427279Y945210D01*
X1427326Y945190D01*
X1427406Y945146D01*
X1428326Y944813D01*
X1428375Y944804D01*
X1428464Y944779D01*
X1429435Y944659D01*
X1429445Y944659D01*
X1429457Y944656D01*
X1429760Y944629D01*
X1429810Y944634D01*
G37*
G36*
X1328210Y944634D02*
X1328210Y944634D01*
X1328309Y944634D01*
X1329266Y944776D01*
X1329314Y944792D01*
X1329404Y944812D01*
X1330306Y945164D01*
X1330349Y945190D01*
X1330431Y945230D01*
X1331232Y945773D01*
X1331268Y945809D01*
X1331340Y945866D01*
X1332000Y946574D01*
X1332027Y946616D01*
X1332084Y946688D01*
X1332570Y947525D01*
X1332587Y947573D01*
X1332627Y947656D01*
X1332914Y948580D01*
X1332920Y948630D01*
X1332941Y948720D01*
X1333008Y949604D01*
X1333009Y949607D01*
X1333009Y949615D01*
X1333012Y949652D01*
X1333016Y949681D01*
X1333016Y949733D01*
X1333011Y949760D01*
X1332908Y950727D01*
X1332894Y950775D01*
X1332877Y950866D01*
X1332558Y951796D01*
X1332533Y951840D01*
X1332497Y951925D01*
X1331978Y952761D01*
X1331945Y952798D01*
X1331890Y952873D01*
X1331199Y953572D01*
X1331157Y953601D01*
X1331088Y953662D01*
X1330258Y954190D01*
X1330211Y954209D01*
X1330130Y954252D01*
X1329203Y954583D01*
X1329153Y954591D01*
X1329065Y954615D01*
X1328112Y954728D01*
X1328009Y954748D01*
X1328004Y954748D01*
X1328001Y954750D01*
X1327813Y954756D01*
X1326855Y954645D01*
X1326807Y954631D01*
X1326717Y954613D01*
X1325808Y954292D01*
X1325764Y954267D01*
X1325680Y954230D01*
X1324865Y953715D01*
X1324828Y953681D01*
X1324755Y953626D01*
X1324075Y952942D01*
X1324046Y952901D01*
X1323987Y952831D01*
X1323476Y952013D01*
X1323458Y951966D01*
X1323415Y951885D01*
X1323100Y950974D01*
X1323092Y950924D01*
X1323068Y950835D01*
X1322964Y949877D01*
X1322966Y949847D01*
X1322960Y949808D01*
X1322960Y949707D01*
X1322965Y949680D01*
X1322963Y949643D01*
X1323062Y948670D01*
X1323075Y948621D01*
X1323092Y948531D01*
X1323404Y947604D01*
X1323429Y947560D01*
X1323464Y947475D01*
X1323975Y946641D01*
X1324009Y946603D01*
X1324063Y946529D01*
X1324747Y945829D01*
X1324788Y945800D01*
X1324857Y945740D01*
X1325679Y945210D01*
X1325726Y945190D01*
X1325806Y945146D01*
X1326726Y944813D01*
X1326775Y944804D01*
X1326864Y944779D01*
X1327835Y944659D01*
X1327845Y944659D01*
X1327857Y944656D01*
X1328160Y944629D01*
X1328210Y944634D01*
G37*
G36*
X820210Y944634D02*
X820210Y944634D01*
X820309Y944634D01*
X821266Y944776D01*
X821314Y944792D01*
X821404Y944812D01*
X822306Y945164D01*
X822349Y945190D01*
X822431Y945230D01*
X823232Y945773D01*
X823268Y945809D01*
X823340Y945866D01*
X824000Y946574D01*
X824027Y946616D01*
X824084Y946688D01*
X824570Y947525D01*
X824587Y947573D01*
X824627Y947656D01*
X824914Y948580D01*
X824920Y948630D01*
X824941Y948720D01*
X825008Y949604D01*
X825009Y949607D01*
X825009Y949615D01*
X825012Y949652D01*
X825016Y949681D01*
X825016Y949733D01*
X825011Y949760D01*
X824908Y950727D01*
X824894Y950775D01*
X824877Y950866D01*
X824558Y951796D01*
X824533Y951840D01*
X824497Y951925D01*
X823978Y952761D01*
X823945Y952798D01*
X823890Y952873D01*
X823199Y953572D01*
X823157Y953601D01*
X823088Y953662D01*
X822258Y954190D01*
X822211Y954209D01*
X822130Y954252D01*
X821203Y954583D01*
X821153Y954591D01*
X821065Y954615D01*
X820112Y954728D01*
X820009Y954748D01*
X820004Y954748D01*
X820001Y954750D01*
X819813Y954756D01*
X818855Y954645D01*
X818807Y954631D01*
X818717Y954613D01*
X817808Y954292D01*
X817764Y954267D01*
X817680Y954230D01*
X816865Y953715D01*
X816828Y953681D01*
X816755Y953626D01*
X816075Y952942D01*
X816046Y952901D01*
X815987Y952831D01*
X815476Y952013D01*
X815458Y951966D01*
X815415Y951885D01*
X815100Y950974D01*
X815092Y950924D01*
X815068Y950835D01*
X814964Y949877D01*
X814966Y949847D01*
X814960Y949808D01*
X814960Y949707D01*
X814965Y949680D01*
X814963Y949643D01*
X815062Y948670D01*
X815075Y948621D01*
X815092Y948531D01*
X815404Y947604D01*
X815429Y947560D01*
X815464Y947475D01*
X815975Y946641D01*
X816009Y946603D01*
X816063Y946529D01*
X816747Y945829D01*
X816788Y945800D01*
X816857Y945740D01*
X817679Y945210D01*
X817726Y945190D01*
X817806Y945146D01*
X818726Y944813D01*
X818775Y944804D01*
X818864Y944779D01*
X819835Y944659D01*
X819845Y944659D01*
X819857Y944656D01*
X820160Y944629D01*
X820210Y944634D01*
G37*
G36*
X1023410Y944634D02*
X1023410Y944634D01*
X1023509Y944634D01*
X1024466Y944776D01*
X1024514Y944792D01*
X1024604Y944812D01*
X1025506Y945164D01*
X1025549Y945190D01*
X1025631Y945230D01*
X1026432Y945773D01*
X1026468Y945809D01*
X1026540Y945866D01*
X1027200Y946574D01*
X1027227Y946616D01*
X1027284Y946688D01*
X1027770Y947525D01*
X1027787Y947573D01*
X1027827Y947656D01*
X1028114Y948580D01*
X1028120Y948630D01*
X1028141Y948720D01*
X1028208Y949604D01*
X1028209Y949607D01*
X1028209Y949615D01*
X1028212Y949652D01*
X1028216Y949681D01*
X1028216Y949733D01*
X1028211Y949760D01*
X1028108Y950727D01*
X1028094Y950775D01*
X1028077Y950866D01*
X1027758Y951796D01*
X1027733Y951840D01*
X1027697Y951925D01*
X1027178Y952761D01*
X1027145Y952798D01*
X1027090Y952873D01*
X1026399Y953572D01*
X1026357Y953601D01*
X1026288Y953662D01*
X1025458Y954190D01*
X1025411Y954209D01*
X1025330Y954252D01*
X1024403Y954583D01*
X1024353Y954591D01*
X1024265Y954615D01*
X1023312Y954728D01*
X1023209Y954748D01*
X1023204Y954748D01*
X1023201Y954750D01*
X1023013Y954756D01*
X1022055Y954645D01*
X1022007Y954631D01*
X1021917Y954613D01*
X1021008Y954292D01*
X1020964Y954267D01*
X1020880Y954230D01*
X1020065Y953715D01*
X1020028Y953681D01*
X1019955Y953626D01*
X1019275Y952942D01*
X1019246Y952901D01*
X1019187Y952831D01*
X1018676Y952013D01*
X1018658Y951966D01*
X1018615Y951885D01*
X1018300Y950974D01*
X1018292Y950924D01*
X1018268Y950835D01*
X1018164Y949877D01*
X1018166Y949847D01*
X1018160Y949808D01*
X1018160Y949707D01*
X1018165Y949680D01*
X1018163Y949643D01*
X1018262Y948670D01*
X1018275Y948621D01*
X1018292Y948531D01*
X1018604Y947604D01*
X1018629Y947560D01*
X1018664Y947475D01*
X1019175Y946641D01*
X1019209Y946603D01*
X1019263Y946529D01*
X1019947Y945829D01*
X1019988Y945800D01*
X1020057Y945740D01*
X1020879Y945210D01*
X1020926Y945190D01*
X1021006Y945146D01*
X1021926Y944813D01*
X1021975Y944804D01*
X1022064Y944779D01*
X1023035Y944659D01*
X1023045Y944659D01*
X1023057Y944656D01*
X1023360Y944629D01*
X1023410Y944634D01*
G37*
G36*
X921810Y944634D02*
X921810Y944634D01*
X921909Y944634D01*
X922866Y944776D01*
X922914Y944792D01*
X923004Y944812D01*
X923906Y945164D01*
X923949Y945190D01*
X924031Y945230D01*
X924832Y945773D01*
X924868Y945809D01*
X924940Y945866D01*
X925600Y946574D01*
X925627Y946616D01*
X925684Y946688D01*
X926170Y947525D01*
X926187Y947573D01*
X926227Y947656D01*
X926514Y948580D01*
X926520Y948630D01*
X926541Y948720D01*
X926608Y949604D01*
X926609Y949607D01*
X926609Y949615D01*
X926612Y949652D01*
X926616Y949681D01*
X926616Y949733D01*
X926611Y949760D01*
X926508Y950727D01*
X926494Y950775D01*
X926477Y950866D01*
X926158Y951796D01*
X926133Y951840D01*
X926097Y951925D01*
X925578Y952761D01*
X925545Y952798D01*
X925490Y952873D01*
X924799Y953572D01*
X924757Y953601D01*
X924688Y953662D01*
X923858Y954190D01*
X923811Y954209D01*
X923730Y954252D01*
X922803Y954583D01*
X922753Y954591D01*
X922665Y954615D01*
X921712Y954728D01*
X921609Y954748D01*
X921604Y954748D01*
X921601Y954750D01*
X921413Y954756D01*
X920455Y954645D01*
X920407Y954631D01*
X920317Y954613D01*
X919408Y954292D01*
X919364Y954267D01*
X919280Y954230D01*
X918465Y953715D01*
X918428Y953681D01*
X918355Y953626D01*
X917675Y952942D01*
X917646Y952901D01*
X917587Y952831D01*
X917076Y952013D01*
X917058Y951966D01*
X917015Y951885D01*
X916700Y950974D01*
X916692Y950924D01*
X916668Y950835D01*
X916564Y949877D01*
X916566Y949847D01*
X916560Y949808D01*
X916560Y949707D01*
X916565Y949680D01*
X916563Y949643D01*
X916662Y948670D01*
X916675Y948621D01*
X916692Y948531D01*
X917004Y947604D01*
X917029Y947560D01*
X917064Y947475D01*
X917575Y946641D01*
X917609Y946603D01*
X917663Y946529D01*
X918347Y945829D01*
X918388Y945800D01*
X918457Y945740D01*
X919279Y945210D01*
X919326Y945190D01*
X919406Y945146D01*
X920326Y944813D01*
X920375Y944804D01*
X920464Y944779D01*
X921435Y944659D01*
X921445Y944659D01*
X921457Y944656D01*
X921760Y944629D01*
X921810Y944634D01*
G37*
G36*
X1125010Y944634D02*
X1125010Y944634D01*
X1125109Y944634D01*
X1126066Y944776D01*
X1126114Y944792D01*
X1126204Y944812D01*
X1127106Y945164D01*
X1127149Y945190D01*
X1127231Y945230D01*
X1128032Y945773D01*
X1128068Y945809D01*
X1128140Y945866D01*
X1128800Y946574D01*
X1128827Y946616D01*
X1128884Y946688D01*
X1129370Y947525D01*
X1129387Y947573D01*
X1129427Y947656D01*
X1129714Y948580D01*
X1129720Y948630D01*
X1129741Y948720D01*
X1129808Y949604D01*
X1129809Y949607D01*
X1129809Y949615D01*
X1129812Y949652D01*
X1129816Y949681D01*
X1129816Y949733D01*
X1129811Y949760D01*
X1129708Y950727D01*
X1129694Y950775D01*
X1129677Y950866D01*
X1129358Y951796D01*
X1129333Y951840D01*
X1129297Y951925D01*
X1128778Y952761D01*
X1128745Y952798D01*
X1128690Y952873D01*
X1127999Y953572D01*
X1127957Y953601D01*
X1127888Y953662D01*
X1127058Y954190D01*
X1127011Y954209D01*
X1126930Y954252D01*
X1126003Y954583D01*
X1125953Y954591D01*
X1125865Y954615D01*
X1124912Y954728D01*
X1124809Y954748D01*
X1124804Y954748D01*
X1124801Y954750D01*
X1124613Y954756D01*
X1123655Y954645D01*
X1123607Y954631D01*
X1123517Y954613D01*
X1122608Y954292D01*
X1122564Y954267D01*
X1122480Y954230D01*
X1121665Y953715D01*
X1121628Y953681D01*
X1121555Y953626D01*
X1120875Y952942D01*
X1120846Y952901D01*
X1120787Y952831D01*
X1120276Y952013D01*
X1120258Y951966D01*
X1120215Y951885D01*
X1119900Y950974D01*
X1119892Y950924D01*
X1119868Y950835D01*
X1119764Y949877D01*
X1119766Y949847D01*
X1119760Y949808D01*
X1119760Y949707D01*
X1119765Y949680D01*
X1119763Y949643D01*
X1119862Y948670D01*
X1119875Y948621D01*
X1119892Y948531D01*
X1120204Y947604D01*
X1120229Y947560D01*
X1120264Y947475D01*
X1120775Y946641D01*
X1120809Y946603D01*
X1120863Y946529D01*
X1121547Y945829D01*
X1121588Y945800D01*
X1121657Y945740D01*
X1122479Y945210D01*
X1122526Y945190D01*
X1122606Y945146D01*
X1123526Y944813D01*
X1123575Y944804D01*
X1123664Y944779D01*
X1124635Y944659D01*
X1124645Y944659D01*
X1124657Y944656D01*
X1124960Y944629D01*
X1125010Y944634D01*
G37*
G36*
X1226610Y944634D02*
X1226610Y944634D01*
X1226709Y944634D01*
X1227666Y944776D01*
X1227714Y944792D01*
X1227804Y944812D01*
X1228706Y945164D01*
X1228749Y945190D01*
X1228831Y945230D01*
X1229632Y945773D01*
X1229668Y945809D01*
X1229740Y945866D01*
X1230400Y946574D01*
X1230427Y946616D01*
X1230484Y946688D01*
X1230970Y947525D01*
X1230987Y947573D01*
X1231027Y947656D01*
X1231314Y948580D01*
X1231320Y948630D01*
X1231341Y948720D01*
X1231408Y949604D01*
X1231409Y949607D01*
X1231409Y949615D01*
X1231412Y949652D01*
X1231416Y949681D01*
X1231416Y949733D01*
X1231411Y949760D01*
X1231308Y950727D01*
X1231294Y950775D01*
X1231277Y950866D01*
X1230958Y951796D01*
X1230933Y951840D01*
X1230897Y951925D01*
X1230378Y952761D01*
X1230345Y952798D01*
X1230290Y952873D01*
X1229599Y953572D01*
X1229557Y953601D01*
X1229488Y953662D01*
X1228658Y954190D01*
X1228611Y954209D01*
X1228530Y954252D01*
X1227603Y954583D01*
X1227553Y954591D01*
X1227465Y954615D01*
X1226512Y954728D01*
X1226409Y954748D01*
X1226404Y954748D01*
X1226401Y954750D01*
X1226213Y954756D01*
X1225255Y954645D01*
X1225207Y954631D01*
X1225117Y954613D01*
X1224208Y954292D01*
X1224164Y954267D01*
X1224080Y954230D01*
X1223265Y953715D01*
X1223228Y953681D01*
X1223155Y953626D01*
X1222475Y952942D01*
X1222446Y952901D01*
X1222387Y952831D01*
X1221876Y952013D01*
X1221858Y951966D01*
X1221815Y951885D01*
X1221500Y950974D01*
X1221492Y950924D01*
X1221468Y950835D01*
X1221364Y949877D01*
X1221366Y949847D01*
X1221360Y949808D01*
X1221360Y949707D01*
X1221365Y949680D01*
X1221363Y949643D01*
X1221462Y948670D01*
X1221475Y948621D01*
X1221492Y948531D01*
X1221804Y947604D01*
X1221829Y947560D01*
X1221864Y947475D01*
X1222375Y946641D01*
X1222409Y946603D01*
X1222463Y946529D01*
X1223147Y945829D01*
X1223188Y945800D01*
X1223257Y945740D01*
X1224079Y945210D01*
X1224126Y945190D01*
X1224206Y945146D01*
X1225126Y944813D01*
X1225175Y944804D01*
X1225264Y944779D01*
X1226235Y944659D01*
X1226245Y944659D01*
X1226257Y944656D01*
X1226560Y944629D01*
X1226610Y944634D01*
G37*
G36*
X820210Y899396D02*
X820210Y899396D01*
X820309Y899396D01*
X821266Y899538D01*
X821314Y899554D01*
X821404Y899574D01*
X822306Y899926D01*
X822349Y899952D01*
X822431Y899992D01*
X823232Y900535D01*
X823268Y900571D01*
X823340Y900628D01*
X824000Y901336D01*
X824027Y901378D01*
X824084Y901450D01*
X824570Y902287D01*
X824587Y902335D01*
X824627Y902418D01*
X824914Y903342D01*
X824920Y903392D01*
X824941Y903482D01*
X825008Y904366D01*
X825009Y904369D01*
X825009Y904377D01*
X825012Y904414D01*
X825016Y904443D01*
X825016Y904495D01*
X825011Y904522D01*
X824908Y905489D01*
X824894Y905537D01*
X824877Y905628D01*
X824558Y906558D01*
X824533Y906602D01*
X824497Y906687D01*
X823978Y907523D01*
X823945Y907560D01*
X823890Y907635D01*
X823199Y908334D01*
X823157Y908363D01*
X823088Y908424D01*
X822258Y908952D01*
X822211Y908971D01*
X822130Y909014D01*
X821203Y909345D01*
X821153Y909353D01*
X821065Y909377D01*
X820112Y909490D01*
X820009Y909510D01*
X820004Y909510D01*
X820001Y909512D01*
X819813Y909518D01*
X818855Y909407D01*
X818807Y909393D01*
X818717Y909375D01*
X817808Y909054D01*
X817764Y909029D01*
X817680Y908992D01*
X816865Y908477D01*
X816828Y908443D01*
X816755Y908388D01*
X816075Y907704D01*
X816046Y907663D01*
X815987Y907593D01*
X815476Y906775D01*
X815458Y906728D01*
X815415Y906647D01*
X815100Y905736D01*
X815092Y905686D01*
X815068Y905597D01*
X814964Y904639D01*
X814966Y904609D01*
X814960Y904570D01*
X814960Y904469D01*
X814965Y904442D01*
X814963Y904405D01*
X815062Y903432D01*
X815075Y903383D01*
X815092Y903293D01*
X815404Y902366D01*
X815429Y902322D01*
X815464Y902237D01*
X815975Y901403D01*
X816009Y901365D01*
X816063Y901291D01*
X816747Y900591D01*
X816788Y900562D01*
X816857Y900502D01*
X817679Y899972D01*
X817726Y899952D01*
X817806Y899908D01*
X818726Y899575D01*
X818775Y899566D01*
X818864Y899541D01*
X819835Y899421D01*
X819845Y899421D01*
X819857Y899418D01*
X820160Y899391D01*
X820210Y899396D01*
G37*
G36*
X1226610Y899396D02*
X1226610Y899396D01*
X1226709Y899396D01*
X1227666Y899538D01*
X1227714Y899554D01*
X1227804Y899574D01*
X1228706Y899926D01*
X1228749Y899952D01*
X1228831Y899992D01*
X1229632Y900535D01*
X1229668Y900571D01*
X1229740Y900628D01*
X1230400Y901336D01*
X1230427Y901378D01*
X1230484Y901450D01*
X1230970Y902287D01*
X1230987Y902335D01*
X1231027Y902418D01*
X1231314Y903342D01*
X1231320Y903392D01*
X1231341Y903482D01*
X1231408Y904366D01*
X1231409Y904369D01*
X1231409Y904377D01*
X1231412Y904414D01*
X1231416Y904443D01*
X1231416Y904495D01*
X1231411Y904522D01*
X1231308Y905489D01*
X1231294Y905537D01*
X1231277Y905628D01*
X1230958Y906558D01*
X1230933Y906602D01*
X1230897Y906687D01*
X1230378Y907523D01*
X1230345Y907560D01*
X1230290Y907635D01*
X1229599Y908334D01*
X1229557Y908363D01*
X1229488Y908424D01*
X1228658Y908952D01*
X1228611Y908971D01*
X1228530Y909014D01*
X1227603Y909345D01*
X1227553Y909353D01*
X1227465Y909377D01*
X1226512Y909490D01*
X1226409Y909510D01*
X1226404Y909510D01*
X1226401Y909512D01*
X1226213Y909518D01*
X1225255Y909407D01*
X1225207Y909393D01*
X1225117Y909375D01*
X1224208Y909054D01*
X1224164Y909029D01*
X1224080Y908992D01*
X1223265Y908477D01*
X1223228Y908443D01*
X1223155Y908388D01*
X1222475Y907704D01*
X1222446Y907663D01*
X1222387Y907593D01*
X1221876Y906775D01*
X1221858Y906728D01*
X1221815Y906647D01*
X1221500Y905736D01*
X1221492Y905686D01*
X1221468Y905597D01*
X1221364Y904639D01*
X1221366Y904609D01*
X1221360Y904570D01*
X1221360Y904469D01*
X1221365Y904442D01*
X1221363Y904405D01*
X1221462Y903432D01*
X1221475Y903383D01*
X1221492Y903293D01*
X1221804Y902366D01*
X1221829Y902322D01*
X1221864Y902237D01*
X1222375Y901403D01*
X1222409Y901365D01*
X1222463Y901291D01*
X1223147Y900591D01*
X1223188Y900562D01*
X1223257Y900502D01*
X1224079Y899972D01*
X1224126Y899952D01*
X1224206Y899908D01*
X1225126Y899575D01*
X1225175Y899566D01*
X1225264Y899541D01*
X1226235Y899421D01*
X1226245Y899421D01*
X1226257Y899418D01*
X1226560Y899391D01*
X1226610Y899396D01*
G37*
G36*
X1328210Y899396D02*
X1328210Y899396D01*
X1328309Y899396D01*
X1329266Y899538D01*
X1329314Y899554D01*
X1329404Y899574D01*
X1330306Y899926D01*
X1330349Y899952D01*
X1330431Y899992D01*
X1331232Y900535D01*
X1331268Y900571D01*
X1331340Y900628D01*
X1332000Y901336D01*
X1332027Y901378D01*
X1332084Y901450D01*
X1332570Y902287D01*
X1332587Y902335D01*
X1332627Y902418D01*
X1332914Y903342D01*
X1332920Y903392D01*
X1332941Y903482D01*
X1333008Y904366D01*
X1333009Y904369D01*
X1333009Y904377D01*
X1333012Y904414D01*
X1333016Y904443D01*
X1333016Y904495D01*
X1333011Y904522D01*
X1332908Y905489D01*
X1332894Y905537D01*
X1332877Y905628D01*
X1332558Y906558D01*
X1332533Y906602D01*
X1332497Y906687D01*
X1331978Y907523D01*
X1331945Y907560D01*
X1331890Y907635D01*
X1331199Y908334D01*
X1331157Y908363D01*
X1331088Y908424D01*
X1330258Y908952D01*
X1330211Y908971D01*
X1330130Y909014D01*
X1329203Y909345D01*
X1329153Y909353D01*
X1329065Y909377D01*
X1328112Y909490D01*
X1328009Y909510D01*
X1328004Y909510D01*
X1328001Y909512D01*
X1327813Y909518D01*
X1326855Y909407D01*
X1326807Y909393D01*
X1326717Y909375D01*
X1325808Y909054D01*
X1325764Y909029D01*
X1325680Y908992D01*
X1324865Y908477D01*
X1324828Y908443D01*
X1324755Y908388D01*
X1324075Y907704D01*
X1324046Y907663D01*
X1323987Y907593D01*
X1323476Y906775D01*
X1323458Y906728D01*
X1323415Y906647D01*
X1323100Y905736D01*
X1323092Y905686D01*
X1323068Y905597D01*
X1322964Y904639D01*
X1322966Y904609D01*
X1322960Y904570D01*
X1322960Y904469D01*
X1322965Y904442D01*
X1322963Y904405D01*
X1323062Y903432D01*
X1323075Y903383D01*
X1323092Y903293D01*
X1323404Y902366D01*
X1323429Y902322D01*
X1323464Y902237D01*
X1323975Y901403D01*
X1324009Y901365D01*
X1324063Y901291D01*
X1324747Y900591D01*
X1324788Y900562D01*
X1324857Y900502D01*
X1325679Y899972D01*
X1325726Y899952D01*
X1325806Y899908D01*
X1326726Y899575D01*
X1326775Y899566D01*
X1326864Y899541D01*
X1327835Y899421D01*
X1327845Y899421D01*
X1327857Y899418D01*
X1328160Y899391D01*
X1328210Y899396D01*
G37*
G36*
X921810Y899396D02*
X921810Y899396D01*
X921909Y899396D01*
X922866Y899538D01*
X922914Y899554D01*
X923004Y899574D01*
X923906Y899926D01*
X923949Y899952D01*
X924031Y899992D01*
X924832Y900535D01*
X924868Y900571D01*
X924940Y900628D01*
X925600Y901336D01*
X925627Y901378D01*
X925684Y901450D01*
X926170Y902287D01*
X926187Y902335D01*
X926227Y902418D01*
X926514Y903342D01*
X926520Y903392D01*
X926541Y903482D01*
X926608Y904366D01*
X926609Y904369D01*
X926609Y904377D01*
X926612Y904414D01*
X926616Y904443D01*
X926616Y904495D01*
X926611Y904522D01*
X926508Y905489D01*
X926494Y905537D01*
X926477Y905628D01*
X926158Y906558D01*
X926133Y906602D01*
X926097Y906687D01*
X925578Y907523D01*
X925545Y907560D01*
X925490Y907635D01*
X924799Y908334D01*
X924757Y908363D01*
X924688Y908424D01*
X923858Y908952D01*
X923811Y908971D01*
X923730Y909014D01*
X922803Y909345D01*
X922753Y909353D01*
X922665Y909377D01*
X921712Y909490D01*
X921609Y909510D01*
X921604Y909510D01*
X921601Y909512D01*
X921413Y909518D01*
X920455Y909407D01*
X920407Y909393D01*
X920317Y909375D01*
X919408Y909054D01*
X919364Y909029D01*
X919280Y908992D01*
X918465Y908477D01*
X918428Y908443D01*
X918355Y908388D01*
X917675Y907704D01*
X917646Y907663D01*
X917587Y907593D01*
X917076Y906775D01*
X917058Y906728D01*
X917015Y906647D01*
X916700Y905736D01*
X916692Y905686D01*
X916668Y905597D01*
X916564Y904639D01*
X916566Y904609D01*
X916560Y904570D01*
X916560Y904469D01*
X916565Y904442D01*
X916563Y904405D01*
X916662Y903432D01*
X916675Y903383D01*
X916692Y903293D01*
X917004Y902366D01*
X917029Y902322D01*
X917064Y902237D01*
X917575Y901403D01*
X917609Y901365D01*
X917663Y901291D01*
X918347Y900591D01*
X918388Y900562D01*
X918457Y900502D01*
X919279Y899972D01*
X919326Y899952D01*
X919406Y899908D01*
X920326Y899575D01*
X920375Y899566D01*
X920464Y899541D01*
X921435Y899421D01*
X921445Y899421D01*
X921457Y899418D01*
X921760Y899391D01*
X921810Y899396D01*
G37*
G36*
X1429810Y899396D02*
X1429810Y899396D01*
X1429909Y899396D01*
X1430866Y899538D01*
X1430914Y899554D01*
X1431004Y899574D01*
X1431906Y899926D01*
X1431949Y899952D01*
X1432031Y899992D01*
X1432832Y900535D01*
X1432868Y900571D01*
X1432940Y900628D01*
X1433600Y901336D01*
X1433627Y901378D01*
X1433684Y901450D01*
X1434170Y902287D01*
X1434187Y902335D01*
X1434227Y902418D01*
X1434514Y903342D01*
X1434520Y903392D01*
X1434541Y903482D01*
X1434608Y904366D01*
X1434609Y904369D01*
X1434609Y904377D01*
X1434612Y904414D01*
X1434616Y904443D01*
X1434616Y904495D01*
X1434611Y904522D01*
X1434508Y905489D01*
X1434494Y905537D01*
X1434477Y905628D01*
X1434158Y906558D01*
X1434133Y906602D01*
X1434097Y906687D01*
X1433578Y907523D01*
X1433545Y907560D01*
X1433490Y907635D01*
X1432799Y908334D01*
X1432757Y908363D01*
X1432688Y908424D01*
X1431858Y908952D01*
X1431811Y908971D01*
X1431730Y909014D01*
X1430803Y909345D01*
X1430753Y909353D01*
X1430665Y909377D01*
X1429712Y909490D01*
X1429609Y909510D01*
X1429604Y909510D01*
X1429601Y909512D01*
X1429413Y909518D01*
X1428455Y909407D01*
X1428407Y909393D01*
X1428317Y909375D01*
X1427408Y909054D01*
X1427364Y909029D01*
X1427280Y908992D01*
X1426465Y908477D01*
X1426428Y908443D01*
X1426355Y908388D01*
X1425675Y907704D01*
X1425646Y907663D01*
X1425587Y907593D01*
X1425076Y906775D01*
X1425058Y906728D01*
X1425015Y906647D01*
X1424700Y905736D01*
X1424692Y905686D01*
X1424668Y905597D01*
X1424564Y904639D01*
X1424566Y904609D01*
X1424560Y904570D01*
X1424560Y904469D01*
X1424565Y904442D01*
X1424563Y904405D01*
X1424662Y903432D01*
X1424675Y903383D01*
X1424692Y903293D01*
X1425004Y902366D01*
X1425029Y902322D01*
X1425064Y902237D01*
X1425575Y901403D01*
X1425609Y901365D01*
X1425663Y901291D01*
X1426347Y900591D01*
X1426388Y900562D01*
X1426457Y900502D01*
X1427279Y899972D01*
X1427326Y899952D01*
X1427406Y899908D01*
X1428326Y899575D01*
X1428375Y899566D01*
X1428464Y899541D01*
X1429435Y899421D01*
X1429445Y899421D01*
X1429457Y899418D01*
X1429760Y899391D01*
X1429810Y899396D01*
G37*
G36*
X1125010Y899396D02*
X1125010Y899396D01*
X1125109Y899396D01*
X1126066Y899538D01*
X1126114Y899554D01*
X1126204Y899574D01*
X1127106Y899926D01*
X1127149Y899952D01*
X1127231Y899992D01*
X1128032Y900535D01*
X1128068Y900571D01*
X1128140Y900628D01*
X1128800Y901336D01*
X1128827Y901378D01*
X1128884Y901450D01*
X1129370Y902287D01*
X1129387Y902335D01*
X1129427Y902418D01*
X1129714Y903342D01*
X1129720Y903392D01*
X1129741Y903482D01*
X1129808Y904366D01*
X1129809Y904369D01*
X1129809Y904377D01*
X1129812Y904414D01*
X1129816Y904443D01*
X1129816Y904495D01*
X1129811Y904522D01*
X1129708Y905489D01*
X1129694Y905537D01*
X1129677Y905628D01*
X1129358Y906558D01*
X1129333Y906602D01*
X1129297Y906687D01*
X1128778Y907523D01*
X1128745Y907560D01*
X1128690Y907635D01*
X1127999Y908334D01*
X1127957Y908363D01*
X1127888Y908424D01*
X1127058Y908952D01*
X1127011Y908971D01*
X1126930Y909014D01*
X1126003Y909345D01*
X1125953Y909353D01*
X1125865Y909377D01*
X1124912Y909490D01*
X1124809Y909510D01*
X1124804Y909510D01*
X1124801Y909512D01*
X1124613Y909518D01*
X1123655Y909407D01*
X1123607Y909393D01*
X1123517Y909375D01*
X1122608Y909054D01*
X1122564Y909029D01*
X1122480Y908992D01*
X1121665Y908477D01*
X1121628Y908443D01*
X1121555Y908388D01*
X1120875Y907704D01*
X1120846Y907663D01*
X1120787Y907593D01*
X1120276Y906775D01*
X1120258Y906728D01*
X1120215Y906647D01*
X1119900Y905736D01*
X1119892Y905686D01*
X1119868Y905597D01*
X1119764Y904639D01*
X1119766Y904609D01*
X1119760Y904570D01*
X1119760Y904469D01*
X1119765Y904442D01*
X1119763Y904405D01*
X1119862Y903432D01*
X1119875Y903383D01*
X1119892Y903293D01*
X1120204Y902366D01*
X1120229Y902322D01*
X1120264Y902237D01*
X1120775Y901403D01*
X1120809Y901365D01*
X1120863Y901291D01*
X1121547Y900591D01*
X1121588Y900562D01*
X1121657Y900502D01*
X1122479Y899972D01*
X1122526Y899952D01*
X1122606Y899908D01*
X1123526Y899575D01*
X1123575Y899566D01*
X1123664Y899541D01*
X1124635Y899421D01*
X1124645Y899421D01*
X1124657Y899418D01*
X1124960Y899391D01*
X1125010Y899396D01*
G37*
G36*
X1023410Y899396D02*
X1023410Y899396D01*
X1023509Y899396D01*
X1024466Y899538D01*
X1024514Y899554D01*
X1024604Y899574D01*
X1025506Y899926D01*
X1025549Y899952D01*
X1025631Y899992D01*
X1026432Y900535D01*
X1026468Y900571D01*
X1026540Y900628D01*
X1027200Y901336D01*
X1027227Y901378D01*
X1027284Y901450D01*
X1027770Y902287D01*
X1027787Y902335D01*
X1027827Y902418D01*
X1028114Y903342D01*
X1028120Y903392D01*
X1028141Y903482D01*
X1028208Y904366D01*
X1028209Y904369D01*
X1028209Y904377D01*
X1028212Y904414D01*
X1028216Y904443D01*
X1028216Y904495D01*
X1028211Y904522D01*
X1028108Y905489D01*
X1028094Y905537D01*
X1028077Y905628D01*
X1027758Y906558D01*
X1027733Y906602D01*
X1027697Y906687D01*
X1027178Y907523D01*
X1027145Y907560D01*
X1027090Y907635D01*
X1026399Y908334D01*
X1026357Y908363D01*
X1026288Y908424D01*
X1025458Y908952D01*
X1025411Y908971D01*
X1025330Y909014D01*
X1024403Y909345D01*
X1024353Y909353D01*
X1024265Y909377D01*
X1023312Y909490D01*
X1023209Y909510D01*
X1023204Y909510D01*
X1023201Y909512D01*
X1023013Y909518D01*
X1022055Y909407D01*
X1022007Y909393D01*
X1021917Y909375D01*
X1021008Y909054D01*
X1020964Y909029D01*
X1020880Y908992D01*
X1020065Y908477D01*
X1020028Y908443D01*
X1019955Y908388D01*
X1019275Y907704D01*
X1019246Y907663D01*
X1019187Y907593D01*
X1018676Y906775D01*
X1018658Y906728D01*
X1018615Y906647D01*
X1018300Y905736D01*
X1018292Y905686D01*
X1018268Y905597D01*
X1018164Y904639D01*
X1018166Y904609D01*
X1018160Y904570D01*
X1018160Y904469D01*
X1018165Y904442D01*
X1018163Y904405D01*
X1018262Y903432D01*
X1018275Y903383D01*
X1018292Y903293D01*
X1018604Y902366D01*
X1018629Y902322D01*
X1018664Y902237D01*
X1019175Y901403D01*
X1019209Y901365D01*
X1019263Y901291D01*
X1019947Y900591D01*
X1019988Y900562D01*
X1020057Y900502D01*
X1020879Y899972D01*
X1020926Y899952D01*
X1021006Y899908D01*
X1021926Y899575D01*
X1021975Y899566D01*
X1022064Y899541D01*
X1023035Y899421D01*
X1023045Y899421D01*
X1023057Y899418D01*
X1023360Y899391D01*
X1023410Y899396D01*
G37*
G36*
X1161586Y899371D02*
X1161586Y899371D01*
X1161685Y899371D01*
X1162642Y899513D01*
X1162690Y899529D01*
X1162780Y899549D01*
X1163682Y899901D01*
X1163725Y899927D01*
X1163807Y899967D01*
X1164608Y900510D01*
X1164644Y900546D01*
X1164716Y900603D01*
X1165376Y901311D01*
X1165403Y901353D01*
X1165460Y901425D01*
X1165946Y902262D01*
X1165963Y902310D01*
X1166003Y902393D01*
X1166290Y903317D01*
X1166296Y903367D01*
X1166317Y903457D01*
X1166384Y904341D01*
X1166385Y904344D01*
X1166385Y904352D01*
X1166388Y904389D01*
X1166392Y904418D01*
X1166392Y904470D01*
X1166387Y904497D01*
X1166284Y905464D01*
X1166270Y905512D01*
X1166253Y905603D01*
X1165934Y906533D01*
X1165909Y906577D01*
X1165873Y906662D01*
X1165354Y907498D01*
X1165321Y907535D01*
X1165266Y907610D01*
X1164575Y908309D01*
X1164533Y908338D01*
X1164464Y908399D01*
X1163634Y908927D01*
X1163587Y908946D01*
X1163506Y908989D01*
X1162579Y909320D01*
X1162529Y909328D01*
X1162441Y909352D01*
X1161488Y909465D01*
X1161385Y909485D01*
X1161380Y909485D01*
X1161377Y909487D01*
X1161189Y909493D01*
X1160231Y909382D01*
X1160183Y909368D01*
X1160093Y909350D01*
X1159184Y909029D01*
X1159140Y909004D01*
X1159056Y908967D01*
X1158241Y908452D01*
X1158204Y908418D01*
X1158131Y908363D01*
X1157451Y907679D01*
X1157422Y907638D01*
X1157363Y907568D01*
X1156852Y906750D01*
X1156834Y906703D01*
X1156791Y906622D01*
X1156476Y905711D01*
X1156468Y905661D01*
X1156444Y905572D01*
X1156340Y904614D01*
X1156342Y904584D01*
X1156336Y904545D01*
X1156336Y904444D01*
X1156341Y904417D01*
X1156339Y904380D01*
X1156438Y903407D01*
X1156451Y903358D01*
X1156468Y903268D01*
X1156780Y902341D01*
X1156805Y902297D01*
X1156840Y902212D01*
X1157351Y901378D01*
X1157385Y901340D01*
X1157439Y901266D01*
X1158123Y900566D01*
X1158164Y900537D01*
X1158233Y900477D01*
X1159055Y899947D01*
X1159102Y899927D01*
X1159182Y899883D01*
X1160102Y899550D01*
X1160151Y899541D01*
X1160240Y899516D01*
X1161211Y899396D01*
X1161221Y899396D01*
X1161233Y899393D01*
X1161536Y899366D01*
X1161586Y899371D01*
G37*
G36*
X1059986Y899371D02*
X1059986Y899371D01*
X1060085Y899371D01*
X1061042Y899513D01*
X1061090Y899529D01*
X1061180Y899549D01*
X1062082Y899901D01*
X1062125Y899927D01*
X1062207Y899967D01*
X1063008Y900510D01*
X1063044Y900546D01*
X1063116Y900603D01*
X1063776Y901311D01*
X1063803Y901353D01*
X1063860Y901425D01*
X1064346Y902262D01*
X1064363Y902310D01*
X1064403Y902393D01*
X1064690Y903317D01*
X1064696Y903367D01*
X1064717Y903457D01*
X1064784Y904341D01*
X1064785Y904344D01*
X1064785Y904352D01*
X1064788Y904389D01*
X1064792Y904418D01*
X1064792Y904470D01*
X1064787Y904497D01*
X1064684Y905464D01*
X1064670Y905512D01*
X1064653Y905603D01*
X1064334Y906533D01*
X1064309Y906577D01*
X1064273Y906662D01*
X1063754Y907498D01*
X1063721Y907535D01*
X1063666Y907610D01*
X1062975Y908309D01*
X1062933Y908338D01*
X1062864Y908399D01*
X1062034Y908927D01*
X1061987Y908946D01*
X1061906Y908989D01*
X1060979Y909320D01*
X1060929Y909328D01*
X1060841Y909352D01*
X1059888Y909465D01*
X1059785Y909485D01*
X1059780Y909485D01*
X1059777Y909487D01*
X1059589Y909493D01*
X1058631Y909382D01*
X1058583Y909368D01*
X1058493Y909350D01*
X1057584Y909029D01*
X1057540Y909004D01*
X1057456Y908967D01*
X1056641Y908452D01*
X1056604Y908418D01*
X1056531Y908363D01*
X1055851Y907679D01*
X1055822Y907638D01*
X1055763Y907568D01*
X1055252Y906750D01*
X1055234Y906703D01*
X1055191Y906622D01*
X1054876Y905711D01*
X1054868Y905661D01*
X1054844Y905572D01*
X1054740Y904614D01*
X1054742Y904584D01*
X1054736Y904545D01*
X1054736Y904444D01*
X1054741Y904417D01*
X1054739Y904380D01*
X1054838Y903407D01*
X1054851Y903358D01*
X1054868Y903268D01*
X1055180Y902341D01*
X1055205Y902297D01*
X1055240Y902212D01*
X1055751Y901378D01*
X1055785Y901340D01*
X1055839Y901266D01*
X1056523Y900566D01*
X1056564Y900537D01*
X1056633Y900477D01*
X1057455Y899947D01*
X1057502Y899927D01*
X1057582Y899883D01*
X1058502Y899550D01*
X1058551Y899541D01*
X1058640Y899516D01*
X1059611Y899396D01*
X1059621Y899396D01*
X1059633Y899393D01*
X1059936Y899366D01*
X1059986Y899371D01*
G37*
G36*
X755186Y899371D02*
X755186Y899371D01*
X755285Y899371D01*
X756242Y899513D01*
X756290Y899529D01*
X756380Y899549D01*
X757282Y899901D01*
X757325Y899927D01*
X757407Y899967D01*
X758208Y900510D01*
X758244Y900546D01*
X758316Y900603D01*
X758976Y901311D01*
X759003Y901353D01*
X759060Y901425D01*
X759546Y902262D01*
X759563Y902310D01*
X759603Y902393D01*
X759890Y903317D01*
X759896Y903367D01*
X759917Y903457D01*
X759984Y904341D01*
X759985Y904344D01*
X759985Y904352D01*
X759988Y904389D01*
X759992Y904418D01*
X759992Y904470D01*
X759987Y904497D01*
X759884Y905464D01*
X759870Y905512D01*
X759853Y905603D01*
X759534Y906533D01*
X759509Y906577D01*
X759473Y906662D01*
X758954Y907498D01*
X758921Y907535D01*
X758866Y907610D01*
X758175Y908309D01*
X758133Y908338D01*
X758064Y908399D01*
X757234Y908927D01*
X757187Y908946D01*
X757106Y908989D01*
X756179Y909320D01*
X756129Y909328D01*
X756041Y909352D01*
X755088Y909465D01*
X754985Y909485D01*
X754980Y909485D01*
X754977Y909487D01*
X754789Y909493D01*
X753831Y909382D01*
X753783Y909368D01*
X753693Y909350D01*
X752784Y909029D01*
X752740Y909004D01*
X752656Y908967D01*
X751841Y908452D01*
X751804Y908418D01*
X751731Y908363D01*
X751051Y907679D01*
X751022Y907638D01*
X750963Y907568D01*
X750452Y906750D01*
X750434Y906703D01*
X750391Y906622D01*
X750076Y905711D01*
X750068Y905661D01*
X750044Y905572D01*
X749940Y904614D01*
X749942Y904584D01*
X749936Y904545D01*
X749936Y904444D01*
X749941Y904417D01*
X749939Y904380D01*
X750038Y903407D01*
X750051Y903358D01*
X750068Y903268D01*
X750380Y902341D01*
X750405Y902297D01*
X750440Y902212D01*
X750951Y901378D01*
X750985Y901340D01*
X751039Y901266D01*
X751723Y900566D01*
X751764Y900537D01*
X751833Y900477D01*
X752655Y899947D01*
X752702Y899927D01*
X752782Y899883D01*
X753702Y899550D01*
X753751Y899541D01*
X753840Y899516D01*
X754811Y899396D01*
X754821Y899396D01*
X754833Y899393D01*
X755136Y899366D01*
X755186Y899371D01*
G37*
G36*
X1364786Y899371D02*
X1364786Y899371D01*
X1364885Y899371D01*
X1365842Y899513D01*
X1365890Y899529D01*
X1365980Y899549D01*
X1366882Y899901D01*
X1366925Y899927D01*
X1367007Y899967D01*
X1367808Y900510D01*
X1367844Y900546D01*
X1367916Y900603D01*
X1368576Y901311D01*
X1368603Y901353D01*
X1368660Y901425D01*
X1369146Y902262D01*
X1369163Y902310D01*
X1369203Y902393D01*
X1369490Y903317D01*
X1369496Y903367D01*
X1369517Y903457D01*
X1369584Y904341D01*
X1369585Y904344D01*
X1369585Y904352D01*
X1369588Y904389D01*
X1369592Y904418D01*
X1369592Y904470D01*
X1369587Y904497D01*
X1369484Y905464D01*
X1369470Y905512D01*
X1369453Y905603D01*
X1369134Y906533D01*
X1369109Y906577D01*
X1369073Y906662D01*
X1368554Y907498D01*
X1368521Y907535D01*
X1368466Y907610D01*
X1367775Y908309D01*
X1367733Y908338D01*
X1367664Y908399D01*
X1366834Y908927D01*
X1366787Y908946D01*
X1366706Y908989D01*
X1365779Y909320D01*
X1365729Y909328D01*
X1365641Y909352D01*
X1364688Y909465D01*
X1364585Y909485D01*
X1364580Y909485D01*
X1364577Y909487D01*
X1364389Y909493D01*
X1363431Y909382D01*
X1363383Y909368D01*
X1363293Y909350D01*
X1362384Y909029D01*
X1362340Y909004D01*
X1362256Y908967D01*
X1361441Y908452D01*
X1361404Y908418D01*
X1361331Y908363D01*
X1360651Y907679D01*
X1360622Y907638D01*
X1360563Y907568D01*
X1360052Y906750D01*
X1360034Y906703D01*
X1359991Y906622D01*
X1359676Y905711D01*
X1359668Y905661D01*
X1359644Y905572D01*
X1359540Y904614D01*
X1359542Y904584D01*
X1359536Y904545D01*
X1359536Y904444D01*
X1359541Y904417D01*
X1359539Y904380D01*
X1359638Y903407D01*
X1359651Y903358D01*
X1359668Y903268D01*
X1359980Y902341D01*
X1360005Y902297D01*
X1360040Y902212D01*
X1360551Y901378D01*
X1360585Y901340D01*
X1360639Y901266D01*
X1361323Y900566D01*
X1361364Y900537D01*
X1361433Y900477D01*
X1362255Y899947D01*
X1362302Y899927D01*
X1362382Y899883D01*
X1363302Y899550D01*
X1363351Y899541D01*
X1363440Y899516D01*
X1364411Y899396D01*
X1364421Y899396D01*
X1364433Y899393D01*
X1364736Y899366D01*
X1364786Y899371D01*
G37*
G36*
X958386Y899371D02*
X958386Y899371D01*
X958485Y899371D01*
X959442Y899513D01*
X959490Y899529D01*
X959580Y899549D01*
X960482Y899901D01*
X960525Y899927D01*
X960607Y899967D01*
X961408Y900510D01*
X961444Y900546D01*
X961516Y900603D01*
X962176Y901311D01*
X962203Y901353D01*
X962260Y901425D01*
X962746Y902262D01*
X962763Y902310D01*
X962803Y902393D01*
X963090Y903317D01*
X963096Y903367D01*
X963117Y903457D01*
X963184Y904341D01*
X963185Y904344D01*
X963185Y904352D01*
X963188Y904389D01*
X963192Y904418D01*
X963192Y904470D01*
X963187Y904497D01*
X963084Y905464D01*
X963070Y905512D01*
X963053Y905603D01*
X962734Y906533D01*
X962709Y906577D01*
X962673Y906662D01*
X962154Y907498D01*
X962121Y907535D01*
X962066Y907610D01*
X961375Y908309D01*
X961333Y908338D01*
X961264Y908399D01*
X960434Y908927D01*
X960387Y908946D01*
X960306Y908989D01*
X959379Y909320D01*
X959329Y909328D01*
X959241Y909352D01*
X958288Y909465D01*
X958185Y909485D01*
X958180Y909485D01*
X958177Y909487D01*
X957989Y909493D01*
X957031Y909382D01*
X956983Y909368D01*
X956893Y909350D01*
X955984Y909029D01*
X955940Y909004D01*
X955856Y908967D01*
X955041Y908452D01*
X955004Y908418D01*
X954931Y908363D01*
X954251Y907679D01*
X954222Y907638D01*
X954163Y907568D01*
X953652Y906750D01*
X953634Y906703D01*
X953591Y906622D01*
X953276Y905711D01*
X953268Y905661D01*
X953244Y905572D01*
X953140Y904614D01*
X953142Y904584D01*
X953136Y904545D01*
X953136Y904444D01*
X953141Y904417D01*
X953139Y904380D01*
X953238Y903407D01*
X953251Y903358D01*
X953268Y903268D01*
X953580Y902341D01*
X953605Y902297D01*
X953640Y902212D01*
X954151Y901378D01*
X954185Y901340D01*
X954239Y901266D01*
X954923Y900566D01*
X954964Y900537D01*
X955033Y900477D01*
X955855Y899947D01*
X955902Y899927D01*
X955982Y899883D01*
X956902Y899550D01*
X956951Y899541D01*
X957040Y899516D01*
X958011Y899396D01*
X958021Y899396D01*
X958033Y899393D01*
X958336Y899366D01*
X958386Y899371D01*
G37*
G36*
X1263186Y899371D02*
X1263186Y899371D01*
X1263285Y899371D01*
X1264242Y899513D01*
X1264290Y899529D01*
X1264380Y899549D01*
X1265282Y899901D01*
X1265325Y899927D01*
X1265407Y899967D01*
X1266208Y900510D01*
X1266244Y900546D01*
X1266316Y900603D01*
X1266976Y901311D01*
X1267003Y901353D01*
X1267060Y901425D01*
X1267546Y902262D01*
X1267563Y902310D01*
X1267603Y902393D01*
X1267890Y903317D01*
X1267896Y903367D01*
X1267917Y903457D01*
X1267984Y904341D01*
X1267985Y904344D01*
X1267985Y904352D01*
X1267988Y904389D01*
X1267992Y904418D01*
X1267992Y904470D01*
X1267987Y904497D01*
X1267884Y905464D01*
X1267870Y905512D01*
X1267853Y905603D01*
X1267534Y906533D01*
X1267509Y906577D01*
X1267473Y906662D01*
X1266954Y907498D01*
X1266921Y907535D01*
X1266866Y907610D01*
X1266175Y908309D01*
X1266133Y908338D01*
X1266064Y908399D01*
X1265234Y908927D01*
X1265187Y908946D01*
X1265106Y908989D01*
X1264179Y909320D01*
X1264129Y909328D01*
X1264041Y909352D01*
X1263088Y909465D01*
X1262985Y909485D01*
X1262980Y909485D01*
X1262977Y909487D01*
X1262789Y909493D01*
X1261831Y909382D01*
X1261783Y909368D01*
X1261693Y909350D01*
X1260784Y909029D01*
X1260740Y909004D01*
X1260656Y908967D01*
X1259841Y908452D01*
X1259804Y908418D01*
X1259731Y908363D01*
X1259051Y907679D01*
X1259022Y907638D01*
X1258963Y907568D01*
X1258452Y906750D01*
X1258434Y906703D01*
X1258391Y906622D01*
X1258076Y905711D01*
X1258068Y905661D01*
X1258044Y905572D01*
X1257940Y904614D01*
X1257942Y904584D01*
X1257936Y904545D01*
X1257936Y904444D01*
X1257941Y904417D01*
X1257939Y904380D01*
X1258038Y903407D01*
X1258051Y903358D01*
X1258068Y903268D01*
X1258380Y902341D01*
X1258405Y902297D01*
X1258440Y902212D01*
X1258951Y901378D01*
X1258985Y901340D01*
X1259039Y901266D01*
X1259723Y900566D01*
X1259764Y900537D01*
X1259833Y900477D01*
X1260655Y899947D01*
X1260702Y899927D01*
X1260782Y899883D01*
X1261702Y899550D01*
X1261751Y899541D01*
X1261840Y899516D01*
X1262811Y899396D01*
X1262821Y899396D01*
X1262833Y899393D01*
X1263136Y899366D01*
X1263186Y899371D01*
G37*
G36*
X856786Y899371D02*
X856786Y899371D01*
X856885Y899371D01*
X857842Y899513D01*
X857890Y899529D01*
X857980Y899549D01*
X858882Y899901D01*
X858925Y899927D01*
X859007Y899967D01*
X859808Y900510D01*
X859844Y900546D01*
X859916Y900603D01*
X860576Y901311D01*
X860603Y901353D01*
X860660Y901425D01*
X861146Y902262D01*
X861163Y902310D01*
X861203Y902393D01*
X861490Y903317D01*
X861496Y903367D01*
X861517Y903457D01*
X861584Y904341D01*
X861585Y904344D01*
X861585Y904352D01*
X861588Y904389D01*
X861592Y904418D01*
X861592Y904470D01*
X861587Y904497D01*
X861484Y905464D01*
X861470Y905512D01*
X861453Y905603D01*
X861134Y906533D01*
X861109Y906577D01*
X861073Y906662D01*
X860554Y907498D01*
X860521Y907535D01*
X860466Y907610D01*
X859775Y908309D01*
X859733Y908338D01*
X859664Y908399D01*
X858834Y908927D01*
X858787Y908946D01*
X858706Y908989D01*
X857779Y909320D01*
X857729Y909328D01*
X857641Y909352D01*
X856688Y909465D01*
X856585Y909485D01*
X856580Y909485D01*
X856577Y909487D01*
X856389Y909493D01*
X855431Y909382D01*
X855383Y909368D01*
X855293Y909350D01*
X854384Y909029D01*
X854340Y909004D01*
X854256Y908967D01*
X853441Y908452D01*
X853404Y908418D01*
X853331Y908363D01*
X852651Y907679D01*
X852622Y907638D01*
X852563Y907568D01*
X852052Y906750D01*
X852034Y906703D01*
X851991Y906622D01*
X851676Y905711D01*
X851668Y905661D01*
X851644Y905572D01*
X851540Y904614D01*
X851542Y904584D01*
X851536Y904545D01*
X851536Y904444D01*
X851541Y904417D01*
X851539Y904380D01*
X851638Y903407D01*
X851651Y903358D01*
X851668Y903268D01*
X851980Y902341D01*
X852005Y902297D01*
X852040Y902212D01*
X852551Y901378D01*
X852585Y901340D01*
X852639Y901266D01*
X853323Y900566D01*
X853364Y900537D01*
X853433Y900477D01*
X854255Y899947D01*
X854302Y899927D01*
X854382Y899883D01*
X855302Y899550D01*
X855351Y899541D01*
X855440Y899516D01*
X856411Y899396D01*
X856421Y899396D01*
X856433Y899393D01*
X856736Y899366D01*
X856786Y899371D01*
G37*
D10*
X57150Y946150D03*
X1543050Y946150D03*
X44450Y50800D03*
X1549400Y50800D03*
D11*
X965200Y673100D03*
D12*
X939800Y673100D03*
D13*
X293878Y914400D02*
X293878Y939800D01*
X518922Y939800D02*
X518922Y914400D01*
X228600Y585978D02*
X203200Y585978D01*
X203200Y811022D02*
X228600Y811022D01*
D14*
X1473200Y540004D02*
X1473200Y526796D01*
X1447800Y526796D02*
X1447800Y540004D01*
X1320800Y540004D02*
X1320800Y526796D01*
X1295400Y526796D02*
X1295400Y540004D01*
X1422400Y540004D02*
X1422400Y526796D01*
X1397000Y526796D02*
X1397000Y540004D01*
X1346200Y540004D02*
X1346200Y526796D01*
X1371600Y526796D02*
X1371600Y540004D01*
X1270000Y540004D02*
X1270000Y526796D01*
X1270000Y463804D02*
X1270000Y450596D01*
X1295400Y450596D02*
X1295400Y463804D01*
X1320800Y463804D02*
X1320800Y450596D01*
X1346200Y450596D02*
X1346200Y463804D01*
X1371600Y463804D02*
X1371600Y450596D01*
X1397000Y450596D02*
X1397000Y463804D01*
X1422400Y463804D02*
X1422400Y450596D01*
X1447800Y450596D02*
X1447800Y463804D01*
X1473200Y463804D02*
X1473200Y450596D01*
D15*
X1485900Y330200D03*
X1460500Y330200D03*
X1308100Y330200D03*
X1282700Y330200D03*
X1130300Y330200D03*
X1104900Y330200D03*
X952500Y330200D03*
X927100Y330200D03*
D16*
X50800Y508000D03*
X76200Y508000D03*
D15*
X774700Y330200D03*
X749300Y330200D03*
X596900Y330200D03*
X571500Y330200D03*
X419100Y330200D03*
X393700Y330200D03*
X241300Y330200D03*
X215900Y330200D03*
X1435100Y330200D03*
X1333500Y330200D03*
D17*
X1244600Y660400D03*
X1244600Y762000D03*
X1206500Y673100D03*
X1206500Y774700D03*
D15*
X1257300Y330200D03*
X1155700Y330200D03*
X1079500Y330200D03*
X977900Y330200D03*
X901700Y330200D03*
X800100Y330200D03*
D18*
X152400Y520700D03*
X152400Y419100D03*
D15*
X723900Y330200D03*
X622300Y330200D03*
X546100Y330200D03*
X444500Y330200D03*
X368300Y330200D03*
X266700Y330200D03*
X190500Y330200D03*
X88900Y330200D03*
D19*
X653288Y949706D03*
X718312Y949706D03*
X653288Y904494D03*
X718312Y904494D03*
D20*
X83312Y673100D02*
X69088Y673100D01*
X69088Y698500D02*
X83312Y698500D01*
D21*
X927100Y616100D03*
X927100Y596100D03*
X927100Y576100D03*
X927100Y556100D03*
X927100Y536100D03*
X927100Y516100D03*
X927100Y496100D03*
X927100Y476100D03*
D22*
X294400Y137100D03*
X414400Y257100D03*
X354400Y277100D03*
X414400Y137100D03*
X294400Y257100D03*
X116600Y137100D03*
X236600Y257100D03*
X176600Y277100D03*
X236600Y137100D03*
X116600Y257100D03*
D14*
X1403096Y635000D02*
X1416304Y635000D01*
X1416304Y660400D02*
X1403096Y660400D01*
X1403096Y787400D02*
X1416304Y787400D01*
X1416304Y812800D02*
X1403096Y812800D01*
X1403096Y685800D02*
X1416304Y685800D01*
X1416304Y711200D02*
X1403096Y711200D01*
X1403096Y762000D02*
X1416304Y762000D01*
X1416304Y736600D02*
X1403096Y736600D01*
X1340104Y812800D02*
X1326896Y812800D01*
X1326896Y787400D02*
X1340104Y787400D01*
X1340104Y762000D02*
X1326896Y762000D01*
X1326896Y736600D02*
X1340104Y736600D01*
X1340104Y711200D02*
X1326896Y711200D01*
X1326896Y685800D02*
X1340104Y685800D01*
X1340104Y660400D02*
X1326896Y660400D01*
X1326896Y635000D02*
X1340104Y635000D01*
D23*
X685800Y818960D02*
X685800Y832040D01*
X711200Y832040D02*
X711200Y818960D01*
X736600Y818960D02*
X736600Y832040D01*
X762000Y832040D02*
X762000Y818960D01*
X787400Y818960D02*
X787400Y832040D01*
X812800Y832040D02*
X812800Y818960D01*
X679640Y800100D02*
X666560Y800100D01*
X666560Y774700D02*
X679640Y774700D01*
X679640Y749300D02*
X666560Y749300D01*
X666560Y723900D02*
X679640Y723900D01*
X679640Y698500D02*
X666560Y698500D01*
X666560Y673100D02*
X679640Y673100D01*
X679640Y647700D02*
X666560Y647700D01*
X666560Y622300D02*
X679640Y622300D01*
X679640Y596900D02*
X666560Y596900D01*
X666560Y571500D02*
X679640Y571500D01*
X679640Y546100D02*
X666560Y546100D01*
X666560Y520700D02*
X679640Y520700D01*
X818960Y800100D02*
X832040Y800100D01*
X832040Y774700D02*
X818960Y774700D01*
X818960Y749300D02*
X832040Y749300D01*
X832040Y723900D02*
X818960Y723900D01*
X818960Y698500D02*
X832040Y698500D01*
X832040Y673100D02*
X818960Y673100D01*
X818960Y647700D02*
X832040Y647700D01*
X832040Y622300D02*
X818960Y622300D01*
X818960Y596900D02*
X832040Y596900D01*
X832040Y571500D02*
X818960Y571500D01*
X818960Y546100D02*
X832040Y546100D01*
X832040Y520700D02*
X818960Y520700D01*
X787400Y527240D02*
X787400Y514160D01*
X762000Y514160D02*
X762000Y527240D01*
X736600Y527240D02*
X736600Y514160D01*
D24*
X787400Y711200D03*
X787400Y685800D03*
D25*
X383450Y847950D03*
X442450Y847950D03*
X503450Y511950D03*
X323450Y511950D03*
D22*
X1361200Y137100D03*
X1481200Y257100D03*
X1421200Y277100D03*
X1481200Y137100D03*
X1361200Y257100D03*
X1183400Y137100D03*
X1303400Y257100D03*
X1243400Y277100D03*
X1303400Y137100D03*
X1183400Y257100D03*
X1005600Y137100D03*
X1125600Y257100D03*
X1065600Y277100D03*
X1125600Y137100D03*
X1005600Y257100D03*
X827800Y137100D03*
X947800Y257100D03*
X887800Y277100D03*
X947800Y137100D03*
X827800Y257100D03*
X650000Y137100D03*
X770000Y257100D03*
X710000Y277100D03*
X770000Y137100D03*
X650000Y257100D03*
X472200Y137100D03*
X592200Y257100D03*
X532200Y277100D03*
X592200Y137100D03*
X472200Y257100D03*
D26*
X228600Y916623D02*
X228600Y937578D01*
X177800Y937578D02*
X177800Y916623D01*
X1371600Y86678D02*
X1371600Y65723D01*
X1422400Y65723D02*
X1422400Y86678D01*
X1473200Y86678D02*
X1473200Y65723D01*
X1193800Y65723D02*
X1193800Y86678D01*
X1244600Y86678D02*
X1244600Y65723D01*
X1295400Y65723D02*
X1295400Y86678D01*
X1016000Y86678D02*
X1016000Y65723D01*
X1066800Y65723D02*
X1066800Y86678D01*
X1117600Y86678D02*
X1117600Y65723D01*
X838200Y65723D02*
X838200Y86678D01*
X889000Y86678D02*
X889000Y65723D01*
X939800Y65723D02*
X939800Y86678D01*
X660400Y86678D02*
X660400Y65723D01*
X711200Y65723D02*
X711200Y86678D01*
X762000Y86678D02*
X762000Y65723D01*
X482600Y65723D02*
X482600Y86678D01*
X533400Y86678D02*
X533400Y65723D01*
X584200Y65723D02*
X584200Y86678D01*
X304800Y86678D02*
X304800Y65723D01*
X355600Y65723D02*
X355600Y86678D01*
X406400Y86678D02*
X406400Y65723D01*
X127000Y65723D02*
X127000Y86678D01*
X177800Y86678D02*
X177800Y65723D01*
X228600Y65723D02*
X228600Y86678D01*
D27*
X755650Y698500D03*
X895350Y647700D03*
M02*
