G04 EAGLE Gerber RS-274X export*
G75*
%MOMM*%
%FSLAX34Y34*%
%LPD*%
%INTop Copper*%
%IPPOS*%
%AMOC8*
5,1,8,0,0,1.08239X$1,22.5*%
G01*
%ADD10C,0.304800*%
%ADD11C,0.152400*%
%ADD12P,1.732040X8X292.500000*%
%ADD13C,1.600200*%
%ADD14C,2.540000*%
%ADD15P,1.429621X8X292.500000*%
%ADD16P,1.429621X8X112.500000*%
%ADD17C,1.879600*%
%ADD18C,1.422400*%
%ADD19C,1.308000*%
%ADD20C,1.308000*%
%ADD21R,1.308000X1.308000*%
%ADD22C,1.320800*%
%ADD23P,1.429621X8X202.500000*%
%ADD24P,1.429621X8X22.500000*%
%ADD25C,2.095500*%
%ADD26C,1.422400*%
%ADD27C,1.408000*%
%ADD28C,0.812800*%
%ADD29C,0.756400*%
%ADD30C,1.270000*%


D10*
X99094Y65024D02*
X99094Y100076D01*
X99094Y84497D02*
X118567Y84497D01*
X118567Y100076D02*
X118567Y65024D01*
X129504Y84497D02*
X139240Y84497D01*
X139240Y84498D02*
X139477Y84495D01*
X139714Y84486D01*
X139951Y84472D01*
X140187Y84452D01*
X140423Y84426D01*
X140658Y84394D01*
X140892Y84357D01*
X141125Y84314D01*
X141357Y84265D01*
X141588Y84211D01*
X141817Y84151D01*
X142045Y84085D01*
X142271Y84014D01*
X142496Y83938D01*
X142718Y83856D01*
X142939Y83768D01*
X143157Y83675D01*
X143373Y83577D01*
X143586Y83474D01*
X143797Y83366D01*
X144005Y83252D01*
X144211Y83134D01*
X144413Y83010D01*
X144613Y82882D01*
X144809Y82748D01*
X145002Y82610D01*
X145191Y82468D01*
X145377Y82321D01*
X145559Y82169D01*
X145738Y82013D01*
X145912Y81852D01*
X146083Y81688D01*
X146250Y81519D01*
X146412Y81347D01*
X146570Y81170D01*
X146724Y80989D01*
X146874Y80805D01*
X147019Y80618D01*
X147159Y80427D01*
X147295Y80232D01*
X147425Y80034D01*
X147551Y79833D01*
X147672Y79630D01*
X147789Y79423D01*
X147900Y79213D01*
X148005Y79001D01*
X148106Y78786D01*
X148201Y78569D01*
X148291Y78350D01*
X148376Y78128D01*
X148455Y77905D01*
X148529Y77680D01*
X148598Y77452D01*
X148660Y77224D01*
X148718Y76994D01*
X148769Y76762D01*
X148815Y76530D01*
X148855Y76296D01*
X148890Y76061D01*
X148919Y75826D01*
X148942Y75590D01*
X148959Y75353D01*
X148971Y75117D01*
X148976Y74880D01*
X148976Y74642D01*
X148971Y74405D01*
X148959Y74169D01*
X148942Y73932D01*
X148919Y73696D01*
X148890Y73461D01*
X148855Y73226D01*
X148815Y72992D01*
X148769Y72760D01*
X148718Y72528D01*
X148660Y72298D01*
X148598Y72070D01*
X148529Y71842D01*
X148455Y71617D01*
X148376Y71394D01*
X148291Y71172D01*
X148201Y70953D01*
X148106Y70736D01*
X148005Y70521D01*
X147900Y70309D01*
X147789Y70099D01*
X147672Y69893D01*
X147551Y69689D01*
X147425Y69488D01*
X147295Y69290D01*
X147159Y69095D01*
X147019Y68904D01*
X146874Y68717D01*
X146724Y68533D01*
X146570Y68352D01*
X146412Y68175D01*
X146250Y68003D01*
X146083Y67834D01*
X145912Y67670D01*
X145738Y67509D01*
X145559Y67353D01*
X145377Y67201D01*
X145191Y67054D01*
X145002Y66912D01*
X144809Y66774D01*
X144613Y66640D01*
X144413Y66512D01*
X144211Y66388D01*
X144005Y66270D01*
X143797Y66156D01*
X143586Y66048D01*
X143373Y65945D01*
X143157Y65847D01*
X142939Y65754D01*
X142718Y65666D01*
X142496Y65584D01*
X142271Y65508D01*
X142045Y65437D01*
X141817Y65371D01*
X141588Y65311D01*
X141357Y65257D01*
X141125Y65208D01*
X140892Y65165D01*
X140658Y65128D01*
X140423Y65096D01*
X140187Y65070D01*
X139951Y65050D01*
X139714Y65036D01*
X139477Y65027D01*
X139240Y65024D01*
X129504Y65024D01*
X129504Y100076D01*
X139240Y100076D01*
X139430Y100074D01*
X139619Y100067D01*
X139809Y100055D01*
X139998Y100039D01*
X140186Y100018D01*
X140374Y99993D01*
X140561Y99963D01*
X140748Y99929D01*
X140934Y99890D01*
X141118Y99846D01*
X141302Y99798D01*
X141484Y99746D01*
X141665Y99689D01*
X141844Y99628D01*
X142022Y99562D01*
X142199Y99492D01*
X142373Y99418D01*
X142546Y99340D01*
X142717Y99257D01*
X142886Y99170D01*
X143052Y99079D01*
X143216Y98985D01*
X143378Y98886D01*
X143538Y98783D01*
X143695Y98676D01*
X143849Y98566D01*
X144000Y98452D01*
X144149Y98334D01*
X144295Y98213D01*
X144438Y98088D01*
X144577Y97960D01*
X144714Y97828D01*
X144847Y97693D01*
X144977Y97555D01*
X145104Y97414D01*
X145227Y97269D01*
X145347Y97122D01*
X145462Y96972D01*
X145575Y96819D01*
X145683Y96663D01*
X145788Y96505D01*
X145889Y96345D01*
X145985Y96182D01*
X146078Y96016D01*
X146167Y95848D01*
X146252Y95679D01*
X146332Y95507D01*
X146409Y95333D01*
X146481Y95158D01*
X146548Y94981D01*
X146612Y94802D01*
X146671Y94622D01*
X146726Y94440D01*
X146776Y94257D01*
X146821Y94073D01*
X146863Y93888D01*
X146899Y93702D01*
X146932Y93515D01*
X146959Y93327D01*
X146982Y93139D01*
X147001Y92950D01*
X147015Y92761D01*
X147024Y92571D01*
X147028Y92382D01*
X147028Y92192D01*
X147024Y92003D01*
X147015Y91813D01*
X147001Y91624D01*
X146982Y91435D01*
X146959Y91247D01*
X146932Y91059D01*
X146899Y90872D01*
X146863Y90686D01*
X146821Y90501D01*
X146776Y90317D01*
X146726Y90134D01*
X146671Y89952D01*
X146612Y89772D01*
X146548Y89593D01*
X146481Y89416D01*
X146409Y89241D01*
X146332Y89067D01*
X146252Y88895D01*
X146167Y88726D01*
X146078Y88558D01*
X145985Y88393D01*
X145889Y88229D01*
X145788Y88069D01*
X145683Y87911D01*
X145575Y87755D01*
X145462Y87602D01*
X145347Y87452D01*
X145227Y87305D01*
X145104Y87160D01*
X144977Y87019D01*
X144847Y86881D01*
X144714Y86746D01*
X144577Y86614D01*
X144438Y86486D01*
X144295Y86361D01*
X144149Y86240D01*
X144000Y86122D01*
X143849Y86008D01*
X143695Y85898D01*
X143538Y85791D01*
X143378Y85688D01*
X143216Y85589D01*
X143052Y85495D01*
X142886Y85404D01*
X142717Y85317D01*
X142546Y85234D01*
X142373Y85156D01*
X142199Y85082D01*
X142022Y85012D01*
X141844Y84946D01*
X141665Y84885D01*
X141484Y84828D01*
X141302Y84776D01*
X141118Y84728D01*
X140934Y84684D01*
X140748Y84645D01*
X140561Y84611D01*
X140374Y84581D01*
X140186Y84556D01*
X139998Y84535D01*
X139809Y84519D01*
X139619Y84507D01*
X139430Y84500D01*
X139240Y84498D01*
X157154Y78655D02*
X180522Y78655D01*
X190534Y74761D02*
X190534Y100076D01*
X190534Y74761D02*
X190537Y74524D01*
X190546Y74287D01*
X190560Y74050D01*
X190580Y73814D01*
X190606Y73578D01*
X190638Y73343D01*
X190675Y73109D01*
X190718Y72876D01*
X190767Y72644D01*
X190821Y72413D01*
X190881Y72184D01*
X190947Y71956D01*
X191018Y71730D01*
X191094Y71505D01*
X191176Y71283D01*
X191264Y71062D01*
X191357Y70844D01*
X191455Y70628D01*
X191558Y70415D01*
X191666Y70204D01*
X191780Y69996D01*
X191898Y69790D01*
X192022Y69588D01*
X192150Y69388D01*
X192284Y69192D01*
X192422Y68999D01*
X192564Y68810D01*
X192711Y68624D01*
X192863Y68442D01*
X193019Y68263D01*
X193180Y68089D01*
X193344Y67918D01*
X193513Y67751D01*
X193685Y67589D01*
X193862Y67431D01*
X194043Y67277D01*
X194227Y67127D01*
X194414Y66982D01*
X194605Y66842D01*
X194800Y66706D01*
X194998Y66576D01*
X195199Y66450D01*
X195403Y66329D01*
X195609Y66212D01*
X195819Y66101D01*
X196031Y65996D01*
X196246Y65895D01*
X196463Y65800D01*
X196682Y65710D01*
X196904Y65625D01*
X197127Y65546D01*
X197352Y65472D01*
X197580Y65403D01*
X197808Y65341D01*
X198038Y65283D01*
X198270Y65232D01*
X198502Y65186D01*
X198736Y65146D01*
X198971Y65111D01*
X199206Y65082D01*
X199442Y65059D01*
X199679Y65042D01*
X199915Y65030D01*
X200152Y65025D01*
X200390Y65025D01*
X200627Y65030D01*
X200863Y65042D01*
X201100Y65059D01*
X201336Y65082D01*
X201571Y65111D01*
X201806Y65146D01*
X202040Y65186D01*
X202272Y65232D01*
X202504Y65283D01*
X202734Y65341D01*
X202962Y65403D01*
X203190Y65472D01*
X203415Y65546D01*
X203638Y65625D01*
X203860Y65710D01*
X204079Y65800D01*
X204296Y65895D01*
X204511Y65996D01*
X204723Y66101D01*
X204933Y66212D01*
X205140Y66329D01*
X205343Y66450D01*
X205544Y66576D01*
X205742Y66706D01*
X205937Y66842D01*
X206128Y66982D01*
X206315Y67127D01*
X206499Y67277D01*
X206680Y67431D01*
X206857Y67589D01*
X207029Y67751D01*
X207198Y67918D01*
X207362Y68089D01*
X207523Y68263D01*
X207679Y68442D01*
X207831Y68624D01*
X207978Y68810D01*
X208120Y68999D01*
X208258Y69192D01*
X208392Y69388D01*
X208520Y69588D01*
X208644Y69790D01*
X208762Y69996D01*
X208876Y70204D01*
X208984Y70415D01*
X209087Y70628D01*
X209185Y70844D01*
X209278Y71062D01*
X209366Y71283D01*
X209448Y71505D01*
X209524Y71730D01*
X209595Y71956D01*
X209661Y72184D01*
X209721Y72413D01*
X209775Y72644D01*
X209824Y72876D01*
X209867Y73109D01*
X209904Y73343D01*
X209936Y73578D01*
X209962Y73814D01*
X209982Y74050D01*
X209996Y74287D01*
X210005Y74524D01*
X210008Y74761D01*
X210007Y74761D02*
X210007Y100076D01*
X221014Y100076D02*
X221014Y65024D01*
X240487Y65024D02*
X221014Y100076D01*
X240487Y100076D02*
X240487Y65024D01*
X254563Y65024D02*
X254563Y100076D01*
X250669Y65024D02*
X258458Y65024D01*
X258458Y100076D02*
X250669Y100076D01*
X267644Y78655D02*
X291012Y78655D01*
X310803Y65024D02*
X310991Y65026D01*
X311179Y65033D01*
X311367Y65044D01*
X311555Y65060D01*
X311742Y65081D01*
X311928Y65106D01*
X312114Y65135D01*
X312299Y65169D01*
X312484Y65208D01*
X312667Y65250D01*
X312849Y65298D01*
X313030Y65349D01*
X313210Y65405D01*
X313388Y65466D01*
X313565Y65530D01*
X313740Y65599D01*
X313914Y65672D01*
X314085Y65749D01*
X314255Y65831D01*
X314423Y65916D01*
X314588Y66006D01*
X314752Y66099D01*
X314913Y66196D01*
X315071Y66298D01*
X315228Y66403D01*
X315381Y66512D01*
X315532Y66624D01*
X315680Y66740D01*
X315826Y66860D01*
X315968Y66983D01*
X316107Y67109D01*
X316244Y67239D01*
X316377Y67372D01*
X316507Y67509D01*
X316633Y67648D01*
X316756Y67790D01*
X316876Y67936D01*
X316992Y68084D01*
X317104Y68235D01*
X317213Y68388D01*
X317318Y68545D01*
X317420Y68703D01*
X317517Y68864D01*
X317610Y69028D01*
X317700Y69193D01*
X317785Y69361D01*
X317867Y69531D01*
X317944Y69702D01*
X318017Y69876D01*
X318086Y70051D01*
X318150Y70228D01*
X318211Y70406D01*
X318267Y70586D01*
X318318Y70767D01*
X318366Y70949D01*
X318408Y71132D01*
X318447Y71317D01*
X318481Y71502D01*
X318510Y71688D01*
X318535Y71874D01*
X318556Y72061D01*
X318572Y72249D01*
X318583Y72437D01*
X318590Y72625D01*
X318592Y72813D01*
X310803Y65024D02*
X310409Y65029D01*
X310016Y65043D01*
X309623Y65066D01*
X309231Y65099D01*
X308839Y65142D01*
X308449Y65193D01*
X308060Y65254D01*
X307672Y65325D01*
X307287Y65404D01*
X306903Y65493D01*
X306522Y65591D01*
X306143Y65698D01*
X305767Y65814D01*
X305394Y65939D01*
X305023Y66072D01*
X304656Y66215D01*
X304293Y66367D01*
X303933Y66527D01*
X303577Y66695D01*
X303226Y66872D01*
X302879Y67058D01*
X302536Y67252D01*
X302198Y67453D01*
X301865Y67663D01*
X301537Y67881D01*
X301214Y68107D01*
X300897Y68340D01*
X300585Y68581D01*
X300280Y68829D01*
X299980Y69084D01*
X299687Y69347D01*
X299400Y69616D01*
X299119Y69892D01*
X300093Y92287D02*
X300095Y92475D01*
X300102Y92663D01*
X300113Y92851D01*
X300129Y93039D01*
X300150Y93226D01*
X300175Y93412D01*
X300204Y93598D01*
X300238Y93783D01*
X300277Y93968D01*
X300319Y94151D01*
X300367Y94333D01*
X300418Y94514D01*
X300474Y94694D01*
X300535Y94872D01*
X300599Y95049D01*
X300668Y95224D01*
X300741Y95398D01*
X300818Y95569D01*
X300900Y95739D01*
X300985Y95907D01*
X301075Y96072D01*
X301168Y96236D01*
X301266Y96397D01*
X301367Y96555D01*
X301472Y96712D01*
X301581Y96865D01*
X301693Y97016D01*
X301809Y97164D01*
X301929Y97310D01*
X302052Y97452D01*
X302178Y97591D01*
X302308Y97728D01*
X302441Y97861D01*
X302578Y97991D01*
X302717Y98117D01*
X302859Y98240D01*
X303005Y98360D01*
X303153Y98476D01*
X303304Y98588D01*
X303457Y98697D01*
X303614Y98802D01*
X303772Y98904D01*
X303933Y99001D01*
X304097Y99094D01*
X304262Y99184D01*
X304430Y99269D01*
X304600Y99351D01*
X304771Y99428D01*
X304945Y99501D01*
X305120Y99570D01*
X305297Y99634D01*
X305475Y99695D01*
X305655Y99751D01*
X305836Y99802D01*
X306018Y99850D01*
X306201Y99893D01*
X306386Y99931D01*
X306571Y99965D01*
X306757Y99994D01*
X306943Y100019D01*
X307130Y100040D01*
X307318Y100056D01*
X307506Y100067D01*
X307694Y100074D01*
X307882Y100076D01*
X308230Y100072D01*
X308578Y100059D01*
X308925Y100039D01*
X309272Y100010D01*
X309618Y99972D01*
X309963Y99927D01*
X310307Y99873D01*
X310650Y99811D01*
X310991Y99741D01*
X311330Y99663D01*
X311667Y99577D01*
X312002Y99483D01*
X312335Y99381D01*
X312665Y99271D01*
X312993Y99153D01*
X313317Y99027D01*
X313639Y98894D01*
X313957Y98753D01*
X314272Y98604D01*
X314583Y98448D01*
X314890Y98285D01*
X315194Y98114D01*
X315493Y97936D01*
X315788Y97751D01*
X316078Y97559D01*
X316364Y97361D01*
X316645Y97155D01*
X303988Y85471D02*
X303824Y85570D01*
X303663Y85673D01*
X303505Y85780D01*
X303349Y85890D01*
X303196Y86005D01*
X303046Y86123D01*
X302898Y86244D01*
X302754Y86369D01*
X302613Y86498D01*
X302474Y86630D01*
X302339Y86765D01*
X302208Y86903D01*
X302079Y87045D01*
X301955Y87189D01*
X301833Y87337D01*
X301716Y87487D01*
X301601Y87640D01*
X301491Y87796D01*
X301385Y87955D01*
X301282Y88116D01*
X301183Y88279D01*
X301088Y88445D01*
X300998Y88613D01*
X300911Y88784D01*
X300829Y88956D01*
X300750Y89130D01*
X300676Y89306D01*
X300606Y89484D01*
X300541Y89663D01*
X300480Y89844D01*
X300423Y90027D01*
X300370Y90210D01*
X300323Y90395D01*
X300279Y90581D01*
X300240Y90768D01*
X300206Y90956D01*
X300176Y91145D01*
X300151Y91334D01*
X300130Y91524D01*
X300114Y91714D01*
X300102Y91905D01*
X300095Y92096D01*
X300093Y92287D01*
X314697Y79629D02*
X314861Y79530D01*
X315022Y79427D01*
X315180Y79320D01*
X315336Y79210D01*
X315489Y79095D01*
X315639Y78977D01*
X315787Y78856D01*
X315931Y78731D01*
X316072Y78602D01*
X316211Y78470D01*
X316346Y78335D01*
X316477Y78197D01*
X316606Y78055D01*
X316730Y77911D01*
X316852Y77763D01*
X316969Y77613D01*
X317084Y77460D01*
X317194Y77304D01*
X317300Y77145D01*
X317403Y76984D01*
X317502Y76821D01*
X317597Y76655D01*
X317687Y76487D01*
X317774Y76316D01*
X317856Y76144D01*
X317935Y75970D01*
X318009Y75794D01*
X318079Y75616D01*
X318144Y75437D01*
X318205Y75256D01*
X318262Y75073D01*
X318315Y74890D01*
X318362Y74705D01*
X318406Y74519D01*
X318445Y74332D01*
X318479Y74144D01*
X318509Y73955D01*
X318534Y73766D01*
X318555Y73576D01*
X318571Y73386D01*
X318583Y73195D01*
X318590Y73004D01*
X318592Y72813D01*
X314698Y79629D02*
X303987Y85471D01*
X332626Y65024D02*
X342363Y65024D01*
X332626Y65024D02*
X332476Y65026D01*
X332325Y65032D01*
X332175Y65041D01*
X332025Y65055D01*
X331876Y65072D01*
X331727Y65094D01*
X331579Y65119D01*
X331431Y65148D01*
X331284Y65180D01*
X331138Y65217D01*
X330993Y65257D01*
X330849Y65301D01*
X330707Y65348D01*
X330565Y65400D01*
X330425Y65454D01*
X330287Y65513D01*
X330149Y65575D01*
X330014Y65640D01*
X329880Y65709D01*
X329749Y65782D01*
X329619Y65858D01*
X329491Y65937D01*
X329365Y66019D01*
X329241Y66105D01*
X329120Y66193D01*
X329000Y66285D01*
X328884Y66380D01*
X328769Y66478D01*
X328658Y66579D01*
X328549Y66682D01*
X328442Y66789D01*
X328339Y66898D01*
X328238Y67009D01*
X328140Y67124D01*
X328045Y67240D01*
X327953Y67360D01*
X327865Y67481D01*
X327779Y67605D01*
X327697Y67731D01*
X327618Y67859D01*
X327542Y67989D01*
X327469Y68120D01*
X327400Y68254D01*
X327335Y68389D01*
X327273Y68527D01*
X327214Y68665D01*
X327160Y68805D01*
X327108Y68947D01*
X327061Y69089D01*
X327017Y69233D01*
X326977Y69378D01*
X326940Y69524D01*
X326908Y69671D01*
X326879Y69819D01*
X326854Y69967D01*
X326832Y70116D01*
X326815Y70265D01*
X326801Y70415D01*
X326792Y70565D01*
X326786Y70716D01*
X326784Y70866D01*
X326784Y80603D01*
X326786Y80793D01*
X326793Y80982D01*
X326805Y81172D01*
X326821Y81361D01*
X326842Y81549D01*
X326867Y81737D01*
X326897Y81924D01*
X326931Y82111D01*
X326970Y82297D01*
X327014Y82481D01*
X327062Y82665D01*
X327114Y82847D01*
X327171Y83028D01*
X327232Y83207D01*
X327298Y83385D01*
X327368Y83562D01*
X327442Y83736D01*
X327520Y83909D01*
X327603Y84080D01*
X327690Y84249D01*
X327781Y84415D01*
X327875Y84579D01*
X327974Y84741D01*
X328077Y84901D01*
X328184Y85058D01*
X328294Y85212D01*
X328408Y85363D01*
X328526Y85512D01*
X328647Y85658D01*
X328772Y85801D01*
X328900Y85940D01*
X329032Y86077D01*
X329167Y86210D01*
X329305Y86340D01*
X329446Y86467D01*
X329591Y86590D01*
X329738Y86710D01*
X329888Y86825D01*
X330041Y86938D01*
X330197Y87046D01*
X330355Y87151D01*
X330515Y87252D01*
X330679Y87348D01*
X330844Y87441D01*
X331012Y87530D01*
X331181Y87615D01*
X331353Y87695D01*
X331527Y87772D01*
X331702Y87844D01*
X331879Y87911D01*
X332058Y87975D01*
X332238Y88034D01*
X332420Y88089D01*
X332603Y88139D01*
X332787Y88184D01*
X332972Y88226D01*
X333158Y88262D01*
X333345Y88295D01*
X333533Y88322D01*
X333721Y88345D01*
X333910Y88364D01*
X334099Y88378D01*
X334289Y88387D01*
X334478Y88391D01*
X334668Y88391D01*
X334857Y88387D01*
X335047Y88378D01*
X335236Y88364D01*
X335425Y88345D01*
X335613Y88322D01*
X335801Y88295D01*
X335988Y88262D01*
X336174Y88226D01*
X336359Y88184D01*
X336543Y88139D01*
X336726Y88089D01*
X336908Y88034D01*
X337088Y87975D01*
X337267Y87911D01*
X337444Y87844D01*
X337619Y87772D01*
X337793Y87695D01*
X337965Y87615D01*
X338134Y87530D01*
X338302Y87441D01*
X338468Y87348D01*
X338631Y87252D01*
X338791Y87151D01*
X338949Y87046D01*
X339105Y86938D01*
X339258Y86825D01*
X339408Y86710D01*
X339555Y86590D01*
X339700Y86467D01*
X339841Y86340D01*
X339979Y86210D01*
X340114Y86077D01*
X340246Y85940D01*
X340374Y85801D01*
X340499Y85658D01*
X340620Y85512D01*
X340738Y85363D01*
X340852Y85212D01*
X340962Y85058D01*
X341069Y84901D01*
X341172Y84741D01*
X341271Y84579D01*
X341365Y84415D01*
X341456Y84249D01*
X341543Y84080D01*
X341626Y83909D01*
X341704Y83736D01*
X341778Y83562D01*
X341848Y83385D01*
X341914Y83207D01*
X341975Y83028D01*
X342032Y82847D01*
X342084Y82665D01*
X342132Y82481D01*
X342176Y82297D01*
X342215Y82111D01*
X342249Y81924D01*
X342279Y81737D01*
X342304Y81549D01*
X342325Y81361D01*
X342341Y81172D01*
X342353Y80982D01*
X342360Y80793D01*
X342362Y80603D01*
X342363Y80603D02*
X342363Y76708D01*
X326784Y76708D01*
X352501Y65024D02*
X352501Y88392D01*
X362238Y88392D01*
X362388Y88390D01*
X362539Y88384D01*
X362689Y88375D01*
X362839Y88361D01*
X362988Y88344D01*
X363137Y88322D01*
X363285Y88297D01*
X363433Y88268D01*
X363580Y88236D01*
X363726Y88199D01*
X363871Y88159D01*
X364015Y88115D01*
X364157Y88068D01*
X364299Y88016D01*
X364439Y87962D01*
X364577Y87903D01*
X364715Y87841D01*
X364850Y87776D01*
X364984Y87707D01*
X365115Y87634D01*
X365245Y87558D01*
X365373Y87479D01*
X365499Y87397D01*
X365623Y87311D01*
X365744Y87223D01*
X365864Y87131D01*
X365980Y87036D01*
X366095Y86938D01*
X366206Y86837D01*
X366315Y86734D01*
X366422Y86627D01*
X366525Y86518D01*
X366626Y86407D01*
X366724Y86292D01*
X366819Y86176D01*
X366911Y86056D01*
X366999Y85935D01*
X367085Y85811D01*
X367167Y85685D01*
X367246Y85557D01*
X367322Y85427D01*
X367395Y85296D01*
X367464Y85162D01*
X367529Y85027D01*
X367591Y84889D01*
X367650Y84751D01*
X367704Y84611D01*
X367756Y84469D01*
X367803Y84327D01*
X367847Y84183D01*
X367887Y84038D01*
X367924Y83892D01*
X367956Y83745D01*
X367985Y83597D01*
X368010Y83449D01*
X368032Y83300D01*
X368049Y83151D01*
X368063Y83001D01*
X368072Y82851D01*
X368078Y82700D01*
X368080Y82550D01*
X368080Y65024D01*
X376229Y65024D02*
X387913Y100076D01*
X399597Y65024D01*
X396676Y73787D02*
X379150Y73787D01*
X412627Y65024D02*
X420417Y65024D01*
X412627Y65024D02*
X412477Y65026D01*
X412326Y65032D01*
X412176Y65041D01*
X412026Y65055D01*
X411877Y65072D01*
X411728Y65094D01*
X411580Y65119D01*
X411432Y65148D01*
X411285Y65180D01*
X411139Y65217D01*
X410994Y65257D01*
X410850Y65301D01*
X410708Y65348D01*
X410566Y65400D01*
X410426Y65454D01*
X410288Y65513D01*
X410150Y65575D01*
X410015Y65640D01*
X409881Y65709D01*
X409750Y65782D01*
X409620Y65858D01*
X409492Y65937D01*
X409366Y66019D01*
X409242Y66105D01*
X409121Y66193D01*
X409001Y66285D01*
X408885Y66380D01*
X408770Y66478D01*
X408659Y66579D01*
X408550Y66682D01*
X408443Y66789D01*
X408340Y66898D01*
X408239Y67009D01*
X408141Y67124D01*
X408046Y67240D01*
X407954Y67360D01*
X407866Y67481D01*
X407780Y67605D01*
X407698Y67731D01*
X407619Y67859D01*
X407543Y67989D01*
X407470Y68120D01*
X407401Y68254D01*
X407336Y68389D01*
X407274Y68527D01*
X407215Y68665D01*
X407161Y68805D01*
X407109Y68947D01*
X407062Y69089D01*
X407018Y69233D01*
X406978Y69378D01*
X406941Y69524D01*
X406909Y69671D01*
X406880Y69819D01*
X406855Y69967D01*
X406833Y70116D01*
X406816Y70265D01*
X406802Y70415D01*
X406793Y70565D01*
X406787Y70716D01*
X406785Y70866D01*
X406785Y82550D01*
X406787Y82700D01*
X406793Y82851D01*
X406802Y83001D01*
X406816Y83151D01*
X406833Y83300D01*
X406855Y83449D01*
X406880Y83597D01*
X406909Y83745D01*
X406941Y83892D01*
X406978Y84038D01*
X407018Y84183D01*
X407062Y84327D01*
X407109Y84469D01*
X407161Y84611D01*
X407215Y84751D01*
X407274Y84889D01*
X407336Y85027D01*
X407401Y85162D01*
X407470Y85296D01*
X407543Y85427D01*
X407619Y85557D01*
X407698Y85685D01*
X407780Y85811D01*
X407866Y85935D01*
X407954Y86056D01*
X408046Y86176D01*
X408141Y86292D01*
X408239Y86407D01*
X408340Y86518D01*
X408443Y86627D01*
X408550Y86734D01*
X408659Y86837D01*
X408770Y86938D01*
X408885Y87036D01*
X409001Y87131D01*
X409121Y87223D01*
X409242Y87311D01*
X409366Y87397D01*
X409492Y87479D01*
X409620Y87558D01*
X409750Y87634D01*
X409881Y87707D01*
X410015Y87776D01*
X410150Y87841D01*
X410288Y87903D01*
X410426Y87962D01*
X410566Y88016D01*
X410708Y88068D01*
X410850Y88115D01*
X410994Y88159D01*
X411139Y88199D01*
X411285Y88236D01*
X411432Y88268D01*
X411580Y88297D01*
X411728Y88322D01*
X411877Y88344D01*
X412026Y88361D01*
X412176Y88375D01*
X412326Y88384D01*
X412477Y88390D01*
X412627Y88392D01*
X420417Y88392D01*
X426881Y88392D02*
X438565Y88392D01*
X430776Y100076D02*
X430776Y70866D01*
X430778Y70716D01*
X430784Y70565D01*
X430793Y70415D01*
X430807Y70265D01*
X430824Y70116D01*
X430846Y69967D01*
X430871Y69819D01*
X430900Y69671D01*
X430932Y69524D01*
X430969Y69378D01*
X431009Y69233D01*
X431053Y69089D01*
X431100Y68947D01*
X431152Y68805D01*
X431206Y68665D01*
X431265Y68527D01*
X431327Y68389D01*
X431392Y68254D01*
X431461Y68120D01*
X431534Y67989D01*
X431610Y67859D01*
X431689Y67731D01*
X431771Y67605D01*
X431857Y67481D01*
X431945Y67360D01*
X432037Y67240D01*
X432132Y67124D01*
X432230Y67009D01*
X432331Y66898D01*
X432434Y66789D01*
X432541Y66682D01*
X432650Y66579D01*
X432761Y66478D01*
X432876Y66380D01*
X432992Y66285D01*
X433112Y66193D01*
X433233Y66105D01*
X433357Y66019D01*
X433483Y65937D01*
X433611Y65858D01*
X433741Y65782D01*
X433872Y65709D01*
X434006Y65640D01*
X434141Y65575D01*
X434279Y65513D01*
X434417Y65454D01*
X434557Y65400D01*
X434699Y65348D01*
X434841Y65301D01*
X434985Y65257D01*
X435130Y65217D01*
X435276Y65180D01*
X435423Y65148D01*
X435571Y65119D01*
X435719Y65094D01*
X435868Y65072D01*
X436017Y65055D01*
X436167Y65041D01*
X436317Y65032D01*
X436468Y65026D01*
X436618Y65024D01*
X438565Y65024D01*
X446714Y78655D02*
X470082Y78655D01*
X479141Y72813D02*
X486931Y100076D01*
X479141Y72813D02*
X498615Y72813D01*
X492773Y65024D02*
X492773Y80603D01*
X507674Y78655D02*
X531042Y78655D01*
X540101Y72813D02*
X547891Y100076D01*
X540101Y72813D02*
X559575Y72813D01*
X553733Y65024D02*
X553733Y80603D01*
X568634Y78655D02*
X592002Y78655D01*
X601984Y65024D02*
X601984Y100076D01*
X611720Y100076D01*
X611957Y100073D01*
X612194Y100064D01*
X612431Y100050D01*
X612667Y100030D01*
X612903Y100004D01*
X613138Y99972D01*
X613372Y99935D01*
X613605Y99892D01*
X613837Y99843D01*
X614068Y99789D01*
X614297Y99729D01*
X614525Y99663D01*
X614751Y99592D01*
X614976Y99516D01*
X615198Y99434D01*
X615419Y99346D01*
X615637Y99253D01*
X615853Y99155D01*
X616066Y99052D01*
X616277Y98944D01*
X616485Y98830D01*
X616691Y98712D01*
X616893Y98588D01*
X617093Y98460D01*
X617289Y98326D01*
X617482Y98188D01*
X617671Y98046D01*
X617857Y97899D01*
X618039Y97747D01*
X618218Y97591D01*
X618392Y97430D01*
X618563Y97266D01*
X618730Y97097D01*
X618892Y96925D01*
X619050Y96748D01*
X619204Y96567D01*
X619354Y96383D01*
X619499Y96196D01*
X619639Y96005D01*
X619775Y95810D01*
X619905Y95612D01*
X620031Y95411D01*
X620152Y95208D01*
X620269Y95001D01*
X620380Y94791D01*
X620485Y94579D01*
X620586Y94364D01*
X620681Y94147D01*
X620771Y93928D01*
X620856Y93706D01*
X620935Y93483D01*
X621009Y93258D01*
X621078Y93030D01*
X621140Y92802D01*
X621198Y92572D01*
X621249Y92340D01*
X621295Y92108D01*
X621335Y91874D01*
X621370Y91639D01*
X621399Y91404D01*
X621422Y91168D01*
X621439Y90931D01*
X621451Y90695D01*
X621456Y90458D01*
X621456Y90220D01*
X621451Y89983D01*
X621439Y89747D01*
X621422Y89510D01*
X621399Y89274D01*
X621370Y89039D01*
X621335Y88804D01*
X621295Y88570D01*
X621249Y88338D01*
X621198Y88106D01*
X621140Y87876D01*
X621078Y87648D01*
X621009Y87420D01*
X620935Y87195D01*
X620856Y86972D01*
X620771Y86750D01*
X620681Y86531D01*
X620586Y86314D01*
X620485Y86099D01*
X620380Y85887D01*
X620269Y85677D01*
X620152Y85471D01*
X620031Y85267D01*
X619905Y85066D01*
X619775Y84868D01*
X619639Y84673D01*
X619499Y84482D01*
X619354Y84295D01*
X619204Y84111D01*
X619050Y83930D01*
X618892Y83753D01*
X618730Y83581D01*
X618563Y83412D01*
X618392Y83248D01*
X618218Y83087D01*
X618039Y82931D01*
X617857Y82779D01*
X617671Y82632D01*
X617482Y82490D01*
X617289Y82352D01*
X617093Y82218D01*
X616893Y82090D01*
X616691Y81966D01*
X616485Y81848D01*
X616277Y81734D01*
X616066Y81626D01*
X615853Y81523D01*
X615637Y81425D01*
X615419Y81332D01*
X615198Y81244D01*
X614976Y81162D01*
X614751Y81086D01*
X614525Y81015D01*
X614297Y80949D01*
X614068Y80889D01*
X613837Y80835D01*
X613605Y80786D01*
X613372Y80743D01*
X613138Y80706D01*
X612903Y80674D01*
X612667Y80648D01*
X612431Y80628D01*
X612194Y80614D01*
X611957Y80605D01*
X611720Y80602D01*
X611720Y80603D02*
X601984Y80603D01*
X613668Y80603D02*
X621457Y65024D01*
X638387Y65024D02*
X646176Y65024D01*
X638387Y65024D02*
X638199Y65026D01*
X638011Y65033D01*
X637823Y65044D01*
X637635Y65060D01*
X637448Y65081D01*
X637262Y65106D01*
X637076Y65135D01*
X636891Y65169D01*
X636706Y65208D01*
X636523Y65250D01*
X636341Y65298D01*
X636160Y65349D01*
X635980Y65405D01*
X635802Y65466D01*
X635625Y65530D01*
X635450Y65599D01*
X635276Y65672D01*
X635105Y65749D01*
X634935Y65831D01*
X634767Y65916D01*
X634602Y66006D01*
X634438Y66099D01*
X634277Y66196D01*
X634119Y66298D01*
X633962Y66403D01*
X633809Y66512D01*
X633658Y66624D01*
X633510Y66740D01*
X633364Y66860D01*
X633222Y66983D01*
X633083Y67109D01*
X632946Y67239D01*
X632813Y67372D01*
X632683Y67509D01*
X632557Y67648D01*
X632434Y67790D01*
X632314Y67936D01*
X632198Y68084D01*
X632086Y68235D01*
X631977Y68388D01*
X631872Y68545D01*
X631770Y68703D01*
X631673Y68864D01*
X631580Y69028D01*
X631490Y69193D01*
X631405Y69361D01*
X631323Y69531D01*
X631246Y69702D01*
X631173Y69876D01*
X631104Y70051D01*
X631040Y70228D01*
X630979Y70406D01*
X630923Y70586D01*
X630872Y70767D01*
X630824Y70949D01*
X630782Y71132D01*
X630743Y71317D01*
X630709Y71502D01*
X630680Y71688D01*
X630655Y71874D01*
X630634Y72061D01*
X630618Y72249D01*
X630607Y72437D01*
X630600Y72625D01*
X630598Y72813D01*
X630597Y72813D02*
X630597Y92287D01*
X630598Y92287D02*
X630600Y92478D01*
X630607Y92669D01*
X630619Y92860D01*
X630636Y93050D01*
X630657Y93240D01*
X630682Y93430D01*
X630713Y93619D01*
X630748Y93807D01*
X630787Y93994D01*
X630831Y94180D01*
X630880Y94364D01*
X630933Y94548D01*
X630991Y94730D01*
X631053Y94911D01*
X631120Y95090D01*
X631191Y95268D01*
X631266Y95443D01*
X631346Y95617D01*
X631430Y95789D01*
X631518Y95959D01*
X631610Y96126D01*
X631706Y96291D01*
X631806Y96454D01*
X631911Y96614D01*
X632019Y96772D01*
X632131Y96927D01*
X632247Y97079D01*
X632366Y97228D01*
X632489Y97375D01*
X632616Y97518D01*
X632746Y97658D01*
X632879Y97795D01*
X633016Y97928D01*
X633156Y98058D01*
X633299Y98185D01*
X633446Y98308D01*
X633595Y98427D01*
X633747Y98543D01*
X633902Y98655D01*
X634060Y98763D01*
X634220Y98868D01*
X634383Y98968D01*
X634548Y99064D01*
X634715Y99156D01*
X634885Y99244D01*
X635057Y99328D01*
X635231Y99408D01*
X635406Y99483D01*
X635584Y99554D01*
X635763Y99621D01*
X635944Y99683D01*
X636126Y99741D01*
X636310Y99794D01*
X636494Y99843D01*
X636680Y99887D01*
X636867Y99926D01*
X637055Y99961D01*
X637244Y99992D01*
X637434Y100017D01*
X637624Y100038D01*
X637814Y100055D01*
X638005Y100067D01*
X638196Y100074D01*
X638387Y100076D01*
X646176Y100076D01*
D11*
X23340Y512713D02*
X23338Y512589D01*
X23332Y512465D01*
X23322Y512341D01*
X23309Y512218D01*
X23291Y512095D01*
X23270Y511973D01*
X23245Y511851D01*
X23216Y511730D01*
X23183Y511611D01*
X23147Y511492D01*
X23106Y511375D01*
X23063Y511259D01*
X23015Y511144D01*
X22964Y511031D01*
X22909Y510919D01*
X22851Y510810D01*
X22790Y510702D01*
X22725Y510596D01*
X22657Y510492D01*
X22585Y510391D01*
X22511Y510291D01*
X22433Y510195D01*
X22353Y510100D01*
X22269Y510008D01*
X22183Y509919D01*
X22094Y509833D01*
X22002Y509749D01*
X21907Y509669D01*
X21811Y509591D01*
X21711Y509517D01*
X21610Y509445D01*
X21506Y509377D01*
X21400Y509312D01*
X21292Y509251D01*
X21183Y509193D01*
X21071Y509138D01*
X20958Y509087D01*
X20843Y509039D01*
X20727Y508996D01*
X20610Y508955D01*
X20491Y508919D01*
X20372Y508886D01*
X20251Y508857D01*
X20129Y508832D01*
X20007Y508811D01*
X19884Y508793D01*
X19761Y508780D01*
X19637Y508770D01*
X19513Y508764D01*
X19389Y508762D01*
X19189Y508764D01*
X18990Y508772D01*
X18790Y508783D01*
X18591Y508800D01*
X18393Y508822D01*
X18195Y508848D01*
X17998Y508879D01*
X17801Y508914D01*
X17605Y508955D01*
X17411Y509000D01*
X17217Y509049D01*
X17025Y509104D01*
X16834Y509163D01*
X16645Y509226D01*
X16457Y509294D01*
X16271Y509366D01*
X16087Y509443D01*
X15904Y509524D01*
X15724Y509610D01*
X15545Y509700D01*
X15369Y509794D01*
X15195Y509892D01*
X15024Y509994D01*
X14855Y510101D01*
X14689Y510211D01*
X14525Y510326D01*
X14364Y510444D01*
X14206Y510566D01*
X14051Y510692D01*
X13899Y510822D01*
X13750Y510955D01*
X13604Y511091D01*
X13462Y511232D01*
X13956Y522591D02*
X13958Y522715D01*
X13964Y522839D01*
X13974Y522963D01*
X13987Y523086D01*
X14005Y523209D01*
X14026Y523331D01*
X14051Y523453D01*
X14080Y523574D01*
X14113Y523693D01*
X14149Y523812D01*
X14190Y523929D01*
X14233Y524045D01*
X14281Y524160D01*
X14332Y524273D01*
X14387Y524385D01*
X14445Y524494D01*
X14506Y524602D01*
X14571Y524708D01*
X14639Y524812D01*
X14711Y524913D01*
X14785Y525013D01*
X14863Y525109D01*
X14943Y525204D01*
X15027Y525296D01*
X15113Y525385D01*
X15202Y525471D01*
X15294Y525555D01*
X15389Y525635D01*
X15485Y525713D01*
X15585Y525787D01*
X15686Y525859D01*
X15790Y525927D01*
X15896Y525992D01*
X16004Y526053D01*
X16113Y526111D01*
X16225Y526166D01*
X16338Y526217D01*
X16453Y526265D01*
X16569Y526308D01*
X16686Y526349D01*
X16805Y526385D01*
X16924Y526418D01*
X17045Y526447D01*
X17167Y526472D01*
X17289Y526493D01*
X17412Y526511D01*
X17535Y526524D01*
X17659Y526534D01*
X17783Y526540D01*
X17907Y526542D01*
X18084Y526540D01*
X18260Y526534D01*
X18436Y526523D01*
X18612Y526508D01*
X18788Y526489D01*
X18963Y526466D01*
X19137Y526439D01*
X19311Y526408D01*
X19484Y526372D01*
X19656Y526333D01*
X19827Y526289D01*
X19997Y526241D01*
X20166Y526189D01*
X20333Y526133D01*
X20499Y526074D01*
X20664Y526010D01*
X20827Y525942D01*
X20988Y525871D01*
X21148Y525795D01*
X21306Y525716D01*
X21462Y525633D01*
X21616Y525547D01*
X21768Y525457D01*
X21917Y525363D01*
X22064Y525265D01*
X22209Y525165D01*
X22352Y525060D01*
X15932Y519134D02*
X15827Y519197D01*
X15724Y519264D01*
X15624Y519335D01*
X15526Y519408D01*
X15429Y519484D01*
X15336Y519563D01*
X15245Y519645D01*
X15156Y519729D01*
X15070Y519816D01*
X14986Y519906D01*
X14906Y519998D01*
X14828Y520093D01*
X14753Y520190D01*
X14681Y520290D01*
X14613Y520391D01*
X14547Y520495D01*
X14485Y520600D01*
X14426Y520707D01*
X14370Y520816D01*
X14317Y520927D01*
X14268Y521039D01*
X14222Y521153D01*
X14180Y521268D01*
X14142Y521384D01*
X14107Y521502D01*
X14075Y521620D01*
X14047Y521740D01*
X14023Y521860D01*
X14003Y521981D01*
X13986Y522102D01*
X13973Y522224D01*
X13963Y522346D01*
X13958Y522468D01*
X13956Y522591D01*
X21364Y516170D02*
X21469Y516107D01*
X21572Y516040D01*
X21672Y515969D01*
X21770Y515896D01*
X21867Y515820D01*
X21960Y515741D01*
X22051Y515659D01*
X22140Y515575D01*
X22226Y515488D01*
X22310Y515398D01*
X22390Y515306D01*
X22468Y515211D01*
X22543Y515114D01*
X22615Y515014D01*
X22683Y514913D01*
X22749Y514809D01*
X22811Y514704D01*
X22870Y514597D01*
X22926Y514488D01*
X22979Y514377D01*
X23028Y514265D01*
X23074Y514151D01*
X23116Y514036D01*
X23154Y513920D01*
X23189Y513802D01*
X23221Y513684D01*
X23249Y513564D01*
X23273Y513444D01*
X23293Y513323D01*
X23310Y513202D01*
X23323Y513080D01*
X23333Y512958D01*
X23338Y512836D01*
X23340Y512713D01*
X21364Y516170D02*
X15931Y519134D01*
X29654Y522591D02*
X34593Y526542D01*
X34593Y508762D01*
X29654Y508762D02*
X39532Y508762D01*
X23340Y436513D02*
X23338Y436389D01*
X23332Y436265D01*
X23322Y436141D01*
X23309Y436018D01*
X23291Y435895D01*
X23270Y435773D01*
X23245Y435651D01*
X23216Y435530D01*
X23183Y435411D01*
X23147Y435292D01*
X23106Y435175D01*
X23063Y435059D01*
X23015Y434944D01*
X22964Y434831D01*
X22909Y434719D01*
X22851Y434610D01*
X22790Y434502D01*
X22725Y434396D01*
X22657Y434292D01*
X22585Y434191D01*
X22511Y434091D01*
X22433Y433995D01*
X22353Y433900D01*
X22269Y433808D01*
X22183Y433719D01*
X22094Y433633D01*
X22002Y433549D01*
X21907Y433469D01*
X21811Y433391D01*
X21711Y433317D01*
X21610Y433245D01*
X21506Y433177D01*
X21400Y433112D01*
X21292Y433051D01*
X21183Y432993D01*
X21071Y432938D01*
X20958Y432887D01*
X20843Y432839D01*
X20727Y432796D01*
X20610Y432755D01*
X20491Y432719D01*
X20372Y432686D01*
X20251Y432657D01*
X20129Y432632D01*
X20007Y432611D01*
X19884Y432593D01*
X19761Y432580D01*
X19637Y432570D01*
X19513Y432564D01*
X19389Y432562D01*
X19189Y432564D01*
X18990Y432572D01*
X18790Y432583D01*
X18591Y432600D01*
X18393Y432622D01*
X18195Y432648D01*
X17998Y432679D01*
X17801Y432714D01*
X17605Y432755D01*
X17411Y432800D01*
X17217Y432849D01*
X17025Y432904D01*
X16834Y432963D01*
X16645Y433026D01*
X16457Y433094D01*
X16271Y433166D01*
X16087Y433243D01*
X15904Y433324D01*
X15724Y433410D01*
X15545Y433500D01*
X15369Y433594D01*
X15195Y433692D01*
X15024Y433794D01*
X14855Y433901D01*
X14689Y434011D01*
X14525Y434126D01*
X14364Y434244D01*
X14206Y434366D01*
X14051Y434492D01*
X13899Y434622D01*
X13750Y434755D01*
X13604Y434891D01*
X13462Y435032D01*
X13956Y446391D02*
X13958Y446515D01*
X13964Y446639D01*
X13974Y446763D01*
X13987Y446886D01*
X14005Y447009D01*
X14026Y447131D01*
X14051Y447253D01*
X14080Y447374D01*
X14113Y447493D01*
X14149Y447612D01*
X14190Y447729D01*
X14233Y447845D01*
X14281Y447960D01*
X14332Y448073D01*
X14387Y448185D01*
X14445Y448294D01*
X14506Y448402D01*
X14571Y448508D01*
X14639Y448612D01*
X14711Y448713D01*
X14785Y448813D01*
X14863Y448909D01*
X14943Y449004D01*
X15027Y449096D01*
X15113Y449185D01*
X15202Y449271D01*
X15294Y449355D01*
X15389Y449435D01*
X15485Y449513D01*
X15585Y449587D01*
X15686Y449659D01*
X15790Y449727D01*
X15896Y449792D01*
X16004Y449853D01*
X16113Y449911D01*
X16225Y449966D01*
X16338Y450017D01*
X16453Y450065D01*
X16569Y450108D01*
X16686Y450149D01*
X16805Y450185D01*
X16924Y450218D01*
X17045Y450247D01*
X17167Y450272D01*
X17289Y450293D01*
X17412Y450311D01*
X17535Y450324D01*
X17659Y450334D01*
X17783Y450340D01*
X17907Y450342D01*
X18084Y450340D01*
X18260Y450334D01*
X18436Y450323D01*
X18612Y450308D01*
X18788Y450289D01*
X18963Y450266D01*
X19137Y450239D01*
X19311Y450208D01*
X19484Y450172D01*
X19656Y450133D01*
X19827Y450089D01*
X19997Y450041D01*
X20166Y449989D01*
X20333Y449933D01*
X20499Y449874D01*
X20664Y449810D01*
X20827Y449742D01*
X20988Y449671D01*
X21148Y449595D01*
X21306Y449516D01*
X21462Y449433D01*
X21616Y449347D01*
X21768Y449257D01*
X21917Y449163D01*
X22064Y449065D01*
X22209Y448965D01*
X22352Y448860D01*
X15932Y442934D02*
X15827Y442997D01*
X15724Y443064D01*
X15624Y443135D01*
X15526Y443208D01*
X15429Y443284D01*
X15336Y443363D01*
X15245Y443445D01*
X15156Y443529D01*
X15070Y443616D01*
X14986Y443706D01*
X14906Y443798D01*
X14828Y443893D01*
X14753Y443990D01*
X14681Y444090D01*
X14613Y444191D01*
X14547Y444295D01*
X14485Y444400D01*
X14426Y444507D01*
X14370Y444616D01*
X14317Y444727D01*
X14268Y444839D01*
X14222Y444953D01*
X14180Y445068D01*
X14142Y445184D01*
X14107Y445302D01*
X14075Y445420D01*
X14047Y445540D01*
X14023Y445660D01*
X14003Y445781D01*
X13986Y445902D01*
X13973Y446024D01*
X13963Y446146D01*
X13958Y446268D01*
X13956Y446391D01*
X21364Y439970D02*
X21469Y439907D01*
X21572Y439840D01*
X21672Y439769D01*
X21770Y439696D01*
X21867Y439620D01*
X21960Y439541D01*
X22051Y439459D01*
X22140Y439375D01*
X22226Y439288D01*
X22310Y439198D01*
X22390Y439106D01*
X22468Y439011D01*
X22543Y438914D01*
X22615Y438814D01*
X22683Y438713D01*
X22749Y438609D01*
X22811Y438504D01*
X22870Y438397D01*
X22926Y438288D01*
X22979Y438177D01*
X23028Y438065D01*
X23074Y437951D01*
X23116Y437836D01*
X23154Y437720D01*
X23189Y437602D01*
X23221Y437484D01*
X23249Y437364D01*
X23273Y437244D01*
X23293Y437123D01*
X23310Y437002D01*
X23323Y436880D01*
X23333Y436758D01*
X23338Y436636D01*
X23340Y436513D01*
X21364Y439970D02*
X15931Y442934D01*
X35087Y450342D02*
X35219Y450340D01*
X35350Y450334D01*
X35482Y450324D01*
X35613Y450311D01*
X35743Y450293D01*
X35873Y450272D01*
X36003Y450247D01*
X36131Y450218D01*
X36259Y450185D01*
X36385Y450148D01*
X36511Y450108D01*
X36635Y450064D01*
X36758Y450016D01*
X36879Y449965D01*
X36999Y449910D01*
X37117Y449852D01*
X37233Y449790D01*
X37347Y449724D01*
X37460Y449656D01*
X37570Y449584D01*
X37678Y449509D01*
X37784Y449430D01*
X37888Y449349D01*
X37989Y449264D01*
X38087Y449177D01*
X38183Y449086D01*
X38276Y448993D01*
X38367Y448897D01*
X38454Y448799D01*
X38539Y448698D01*
X38620Y448594D01*
X38699Y448488D01*
X38774Y448380D01*
X38846Y448270D01*
X38914Y448157D01*
X38980Y448043D01*
X39042Y447927D01*
X39100Y447809D01*
X39155Y447689D01*
X39206Y447568D01*
X39254Y447445D01*
X39298Y447321D01*
X39338Y447195D01*
X39375Y447069D01*
X39408Y446941D01*
X39437Y446813D01*
X39462Y446683D01*
X39483Y446553D01*
X39501Y446423D01*
X39514Y446292D01*
X39524Y446160D01*
X39530Y446029D01*
X39532Y445897D01*
X35087Y450342D02*
X34937Y450340D01*
X34788Y450334D01*
X34639Y450324D01*
X34490Y450311D01*
X34341Y450293D01*
X34193Y450272D01*
X34045Y450246D01*
X33899Y450217D01*
X33753Y450184D01*
X33608Y450147D01*
X33464Y450106D01*
X33321Y450062D01*
X33179Y450014D01*
X33039Y449962D01*
X32900Y449907D01*
X32762Y449848D01*
X32627Y449785D01*
X32492Y449719D01*
X32360Y449649D01*
X32230Y449576D01*
X32101Y449499D01*
X31974Y449419D01*
X31850Y449336D01*
X31728Y449250D01*
X31608Y449160D01*
X31491Y449067D01*
X31376Y448972D01*
X31263Y448873D01*
X31153Y448771D01*
X31046Y448667D01*
X30942Y448560D01*
X30840Y448450D01*
X30742Y448337D01*
X30646Y448222D01*
X30554Y448104D01*
X30464Y447984D01*
X30378Y447862D01*
X30295Y447738D01*
X30215Y447611D01*
X30139Y447483D01*
X30066Y447352D01*
X29996Y447219D01*
X29930Y447085D01*
X29868Y446949D01*
X29809Y446812D01*
X29753Y446673D01*
X29702Y446532D01*
X29654Y446391D01*
X38049Y442440D02*
X38145Y442533D01*
X38237Y442629D01*
X38327Y442728D01*
X38414Y442829D01*
X38499Y442932D01*
X38580Y443037D01*
X38658Y443145D01*
X38733Y443255D01*
X38806Y443367D01*
X38875Y443481D01*
X38941Y443597D01*
X39003Y443715D01*
X39062Y443834D01*
X39118Y443955D01*
X39171Y444078D01*
X39220Y444202D01*
X39265Y444327D01*
X39308Y444454D01*
X39346Y444581D01*
X39381Y444710D01*
X39412Y444839D01*
X39440Y444970D01*
X39464Y445101D01*
X39485Y445233D01*
X39501Y445365D01*
X39514Y445498D01*
X39524Y445631D01*
X39529Y445764D01*
X39531Y445897D01*
X38050Y442440D02*
X29654Y432562D01*
X39532Y432562D01*
X23340Y360313D02*
X23338Y360189D01*
X23332Y360065D01*
X23322Y359941D01*
X23309Y359818D01*
X23291Y359695D01*
X23270Y359573D01*
X23245Y359451D01*
X23216Y359330D01*
X23183Y359211D01*
X23147Y359092D01*
X23106Y358975D01*
X23063Y358859D01*
X23015Y358744D01*
X22964Y358631D01*
X22909Y358519D01*
X22851Y358410D01*
X22790Y358302D01*
X22725Y358196D01*
X22657Y358092D01*
X22585Y357991D01*
X22511Y357891D01*
X22433Y357795D01*
X22353Y357700D01*
X22269Y357608D01*
X22183Y357519D01*
X22094Y357433D01*
X22002Y357349D01*
X21907Y357269D01*
X21811Y357191D01*
X21711Y357117D01*
X21610Y357045D01*
X21506Y356977D01*
X21400Y356912D01*
X21292Y356851D01*
X21183Y356793D01*
X21071Y356738D01*
X20958Y356687D01*
X20843Y356639D01*
X20727Y356596D01*
X20610Y356555D01*
X20491Y356519D01*
X20372Y356486D01*
X20251Y356457D01*
X20129Y356432D01*
X20007Y356411D01*
X19884Y356393D01*
X19761Y356380D01*
X19637Y356370D01*
X19513Y356364D01*
X19389Y356362D01*
X19189Y356364D01*
X18990Y356372D01*
X18790Y356383D01*
X18591Y356400D01*
X18393Y356422D01*
X18195Y356448D01*
X17998Y356479D01*
X17801Y356514D01*
X17605Y356555D01*
X17411Y356600D01*
X17217Y356649D01*
X17025Y356704D01*
X16834Y356763D01*
X16645Y356826D01*
X16457Y356894D01*
X16271Y356966D01*
X16087Y357043D01*
X15904Y357124D01*
X15724Y357210D01*
X15545Y357300D01*
X15369Y357394D01*
X15195Y357492D01*
X15024Y357594D01*
X14855Y357701D01*
X14689Y357811D01*
X14525Y357926D01*
X14364Y358044D01*
X14206Y358166D01*
X14051Y358292D01*
X13899Y358422D01*
X13750Y358555D01*
X13604Y358691D01*
X13462Y358832D01*
X13956Y370191D02*
X13958Y370315D01*
X13964Y370439D01*
X13974Y370563D01*
X13987Y370686D01*
X14005Y370809D01*
X14026Y370931D01*
X14051Y371053D01*
X14080Y371174D01*
X14113Y371293D01*
X14149Y371412D01*
X14190Y371529D01*
X14233Y371645D01*
X14281Y371760D01*
X14332Y371873D01*
X14387Y371985D01*
X14445Y372094D01*
X14506Y372202D01*
X14571Y372308D01*
X14639Y372412D01*
X14711Y372513D01*
X14785Y372613D01*
X14863Y372709D01*
X14943Y372804D01*
X15027Y372896D01*
X15113Y372985D01*
X15202Y373071D01*
X15294Y373155D01*
X15389Y373235D01*
X15485Y373313D01*
X15585Y373387D01*
X15686Y373459D01*
X15790Y373527D01*
X15896Y373592D01*
X16004Y373653D01*
X16113Y373711D01*
X16225Y373766D01*
X16338Y373817D01*
X16453Y373865D01*
X16569Y373908D01*
X16686Y373949D01*
X16805Y373985D01*
X16924Y374018D01*
X17045Y374047D01*
X17167Y374072D01*
X17289Y374093D01*
X17412Y374111D01*
X17535Y374124D01*
X17659Y374134D01*
X17783Y374140D01*
X17907Y374142D01*
X18084Y374140D01*
X18260Y374134D01*
X18436Y374123D01*
X18612Y374108D01*
X18788Y374089D01*
X18963Y374066D01*
X19137Y374039D01*
X19311Y374008D01*
X19484Y373972D01*
X19656Y373933D01*
X19827Y373889D01*
X19997Y373841D01*
X20166Y373789D01*
X20333Y373733D01*
X20499Y373674D01*
X20664Y373610D01*
X20827Y373542D01*
X20988Y373471D01*
X21148Y373395D01*
X21306Y373316D01*
X21462Y373233D01*
X21616Y373147D01*
X21768Y373057D01*
X21917Y372963D01*
X22064Y372865D01*
X22209Y372765D01*
X22352Y372660D01*
X15932Y366734D02*
X15827Y366797D01*
X15724Y366864D01*
X15624Y366935D01*
X15526Y367008D01*
X15429Y367084D01*
X15336Y367163D01*
X15245Y367245D01*
X15156Y367329D01*
X15070Y367416D01*
X14986Y367506D01*
X14906Y367598D01*
X14828Y367693D01*
X14753Y367790D01*
X14681Y367890D01*
X14613Y367991D01*
X14547Y368095D01*
X14485Y368200D01*
X14426Y368307D01*
X14370Y368416D01*
X14317Y368527D01*
X14268Y368639D01*
X14222Y368753D01*
X14180Y368868D01*
X14142Y368984D01*
X14107Y369102D01*
X14075Y369220D01*
X14047Y369340D01*
X14023Y369460D01*
X14003Y369581D01*
X13986Y369702D01*
X13973Y369824D01*
X13963Y369946D01*
X13958Y370068D01*
X13956Y370191D01*
X21364Y363770D02*
X21469Y363707D01*
X21572Y363640D01*
X21672Y363569D01*
X21770Y363496D01*
X21867Y363420D01*
X21960Y363341D01*
X22051Y363259D01*
X22140Y363175D01*
X22226Y363088D01*
X22310Y362998D01*
X22390Y362906D01*
X22468Y362811D01*
X22543Y362714D01*
X22615Y362614D01*
X22683Y362513D01*
X22749Y362409D01*
X22811Y362304D01*
X22870Y362197D01*
X22926Y362088D01*
X22979Y361977D01*
X23028Y361865D01*
X23074Y361751D01*
X23116Y361636D01*
X23154Y361520D01*
X23189Y361402D01*
X23221Y361284D01*
X23249Y361164D01*
X23273Y361044D01*
X23293Y360923D01*
X23310Y360802D01*
X23323Y360680D01*
X23333Y360558D01*
X23338Y360436D01*
X23340Y360313D01*
X21364Y363770D02*
X15931Y366734D01*
X29654Y356362D02*
X34593Y356362D01*
X34733Y356364D01*
X34872Y356370D01*
X35012Y356380D01*
X35151Y356394D01*
X35290Y356411D01*
X35428Y356433D01*
X35565Y356459D01*
X35702Y356488D01*
X35838Y356521D01*
X35972Y356558D01*
X36106Y356599D01*
X36238Y356644D01*
X36370Y356693D01*
X36499Y356745D01*
X36627Y356800D01*
X36754Y356860D01*
X36879Y356923D01*
X37002Y356989D01*
X37123Y357059D01*
X37242Y357132D01*
X37359Y357209D01*
X37473Y357289D01*
X37586Y357372D01*
X37696Y357458D01*
X37803Y357548D01*
X37908Y357640D01*
X38010Y357735D01*
X38110Y357833D01*
X38207Y357934D01*
X38301Y358038D01*
X38391Y358144D01*
X38479Y358253D01*
X38564Y358364D01*
X38645Y358478D01*
X38724Y358593D01*
X38799Y358711D01*
X38870Y358832D01*
X38938Y358954D01*
X39003Y359077D01*
X39064Y359203D01*
X39122Y359331D01*
X39176Y359459D01*
X39226Y359590D01*
X39273Y359722D01*
X39316Y359855D01*
X39355Y359989D01*
X39390Y360124D01*
X39421Y360260D01*
X39449Y360398D01*
X39472Y360535D01*
X39492Y360674D01*
X39508Y360813D01*
X39520Y360952D01*
X39528Y361091D01*
X39532Y361231D01*
X39532Y361371D01*
X39528Y361511D01*
X39520Y361650D01*
X39508Y361789D01*
X39492Y361928D01*
X39472Y362067D01*
X39449Y362204D01*
X39421Y362342D01*
X39390Y362478D01*
X39355Y362613D01*
X39316Y362747D01*
X39273Y362880D01*
X39226Y363012D01*
X39176Y363143D01*
X39122Y363271D01*
X39064Y363399D01*
X39003Y363525D01*
X38938Y363648D01*
X38870Y363771D01*
X38799Y363891D01*
X38724Y364009D01*
X38645Y364124D01*
X38564Y364238D01*
X38479Y364349D01*
X38391Y364458D01*
X38301Y364564D01*
X38207Y364668D01*
X38110Y364769D01*
X38010Y364867D01*
X37908Y364962D01*
X37803Y365054D01*
X37696Y365144D01*
X37586Y365230D01*
X37473Y365313D01*
X37359Y365393D01*
X37242Y365470D01*
X37123Y365543D01*
X37002Y365613D01*
X36879Y365679D01*
X36754Y365742D01*
X36627Y365802D01*
X36499Y365857D01*
X36370Y365909D01*
X36238Y365958D01*
X36106Y366003D01*
X35972Y366044D01*
X35838Y366081D01*
X35702Y366114D01*
X35565Y366143D01*
X35428Y366169D01*
X35290Y366191D01*
X35151Y366208D01*
X35012Y366222D01*
X34872Y366232D01*
X34733Y366238D01*
X34593Y366240D01*
X35581Y374142D02*
X29654Y374142D01*
X35581Y374142D02*
X35705Y374140D01*
X35829Y374134D01*
X35953Y374124D01*
X36076Y374111D01*
X36199Y374093D01*
X36321Y374072D01*
X36443Y374047D01*
X36564Y374018D01*
X36683Y373985D01*
X36802Y373949D01*
X36919Y373908D01*
X37035Y373865D01*
X37150Y373817D01*
X37263Y373766D01*
X37375Y373711D01*
X37484Y373653D01*
X37592Y373592D01*
X37698Y373527D01*
X37802Y373459D01*
X37903Y373387D01*
X38003Y373313D01*
X38099Y373235D01*
X38194Y373155D01*
X38286Y373071D01*
X38375Y372985D01*
X38461Y372896D01*
X38545Y372804D01*
X38625Y372709D01*
X38703Y372613D01*
X38777Y372513D01*
X38849Y372412D01*
X38917Y372308D01*
X38982Y372202D01*
X39043Y372094D01*
X39101Y371985D01*
X39156Y371873D01*
X39207Y371760D01*
X39255Y371645D01*
X39298Y371529D01*
X39339Y371412D01*
X39375Y371293D01*
X39408Y371174D01*
X39437Y371053D01*
X39462Y370931D01*
X39483Y370809D01*
X39501Y370686D01*
X39514Y370563D01*
X39524Y370439D01*
X39530Y370315D01*
X39532Y370191D01*
X39530Y370067D01*
X39524Y369943D01*
X39514Y369819D01*
X39501Y369696D01*
X39483Y369573D01*
X39462Y369451D01*
X39437Y369329D01*
X39408Y369208D01*
X39375Y369089D01*
X39339Y368970D01*
X39298Y368853D01*
X39255Y368737D01*
X39207Y368622D01*
X39156Y368509D01*
X39101Y368397D01*
X39043Y368288D01*
X38982Y368180D01*
X38917Y368074D01*
X38849Y367970D01*
X38777Y367869D01*
X38703Y367769D01*
X38625Y367673D01*
X38545Y367578D01*
X38461Y367486D01*
X38375Y367397D01*
X38286Y367311D01*
X38194Y367227D01*
X38099Y367147D01*
X38003Y367069D01*
X37903Y366995D01*
X37802Y366923D01*
X37698Y366855D01*
X37592Y366790D01*
X37484Y366729D01*
X37375Y366671D01*
X37263Y366616D01*
X37150Y366565D01*
X37035Y366517D01*
X36919Y366474D01*
X36802Y366433D01*
X36683Y366397D01*
X36564Y366364D01*
X36443Y366335D01*
X36321Y366310D01*
X36199Y366289D01*
X36076Y366271D01*
X35953Y366258D01*
X35829Y366248D01*
X35705Y366242D01*
X35581Y366240D01*
X31630Y366240D01*
X23340Y296813D02*
X23338Y296689D01*
X23332Y296565D01*
X23322Y296441D01*
X23309Y296318D01*
X23291Y296195D01*
X23270Y296073D01*
X23245Y295951D01*
X23216Y295830D01*
X23183Y295711D01*
X23147Y295592D01*
X23106Y295475D01*
X23063Y295359D01*
X23015Y295244D01*
X22964Y295131D01*
X22909Y295019D01*
X22851Y294910D01*
X22790Y294802D01*
X22725Y294696D01*
X22657Y294592D01*
X22585Y294491D01*
X22511Y294391D01*
X22433Y294295D01*
X22353Y294200D01*
X22269Y294108D01*
X22183Y294019D01*
X22094Y293933D01*
X22002Y293849D01*
X21907Y293769D01*
X21811Y293691D01*
X21711Y293617D01*
X21610Y293545D01*
X21506Y293477D01*
X21400Y293412D01*
X21292Y293351D01*
X21183Y293293D01*
X21071Y293238D01*
X20958Y293187D01*
X20843Y293139D01*
X20727Y293096D01*
X20610Y293055D01*
X20491Y293019D01*
X20372Y292986D01*
X20251Y292957D01*
X20129Y292932D01*
X20007Y292911D01*
X19884Y292893D01*
X19761Y292880D01*
X19637Y292870D01*
X19513Y292864D01*
X19389Y292862D01*
X19189Y292864D01*
X18990Y292872D01*
X18790Y292883D01*
X18591Y292900D01*
X18393Y292922D01*
X18195Y292948D01*
X17998Y292979D01*
X17801Y293014D01*
X17605Y293055D01*
X17411Y293100D01*
X17217Y293149D01*
X17025Y293204D01*
X16834Y293263D01*
X16645Y293326D01*
X16457Y293394D01*
X16271Y293466D01*
X16087Y293543D01*
X15904Y293624D01*
X15724Y293710D01*
X15545Y293800D01*
X15369Y293894D01*
X15195Y293992D01*
X15024Y294094D01*
X14855Y294201D01*
X14689Y294311D01*
X14525Y294426D01*
X14364Y294544D01*
X14206Y294666D01*
X14051Y294792D01*
X13899Y294922D01*
X13750Y295055D01*
X13604Y295191D01*
X13462Y295332D01*
X13956Y306691D02*
X13958Y306815D01*
X13964Y306939D01*
X13974Y307063D01*
X13987Y307186D01*
X14005Y307309D01*
X14026Y307431D01*
X14051Y307553D01*
X14080Y307674D01*
X14113Y307793D01*
X14149Y307912D01*
X14190Y308029D01*
X14233Y308145D01*
X14281Y308260D01*
X14332Y308373D01*
X14387Y308485D01*
X14445Y308594D01*
X14506Y308702D01*
X14571Y308808D01*
X14639Y308912D01*
X14711Y309013D01*
X14785Y309113D01*
X14863Y309209D01*
X14943Y309304D01*
X15027Y309396D01*
X15113Y309485D01*
X15202Y309571D01*
X15294Y309655D01*
X15389Y309735D01*
X15485Y309813D01*
X15585Y309887D01*
X15686Y309959D01*
X15790Y310027D01*
X15896Y310092D01*
X16004Y310153D01*
X16113Y310211D01*
X16225Y310266D01*
X16338Y310317D01*
X16453Y310365D01*
X16569Y310408D01*
X16686Y310449D01*
X16805Y310485D01*
X16924Y310518D01*
X17045Y310547D01*
X17167Y310572D01*
X17289Y310593D01*
X17412Y310611D01*
X17535Y310624D01*
X17659Y310634D01*
X17783Y310640D01*
X17907Y310642D01*
X18084Y310640D01*
X18260Y310634D01*
X18436Y310623D01*
X18612Y310608D01*
X18788Y310589D01*
X18963Y310566D01*
X19137Y310539D01*
X19311Y310508D01*
X19484Y310472D01*
X19656Y310433D01*
X19827Y310389D01*
X19997Y310341D01*
X20166Y310289D01*
X20333Y310233D01*
X20499Y310174D01*
X20664Y310110D01*
X20827Y310042D01*
X20988Y309971D01*
X21148Y309895D01*
X21306Y309816D01*
X21462Y309733D01*
X21616Y309647D01*
X21768Y309557D01*
X21917Y309463D01*
X22064Y309365D01*
X22209Y309265D01*
X22352Y309160D01*
X15932Y303234D02*
X15827Y303297D01*
X15724Y303364D01*
X15624Y303435D01*
X15526Y303508D01*
X15429Y303584D01*
X15336Y303663D01*
X15245Y303745D01*
X15156Y303829D01*
X15070Y303916D01*
X14986Y304006D01*
X14906Y304098D01*
X14828Y304193D01*
X14753Y304290D01*
X14681Y304390D01*
X14613Y304491D01*
X14547Y304595D01*
X14485Y304700D01*
X14426Y304807D01*
X14370Y304916D01*
X14317Y305027D01*
X14268Y305139D01*
X14222Y305253D01*
X14180Y305368D01*
X14142Y305484D01*
X14107Y305602D01*
X14075Y305720D01*
X14047Y305840D01*
X14023Y305960D01*
X14003Y306081D01*
X13986Y306202D01*
X13973Y306324D01*
X13963Y306446D01*
X13958Y306568D01*
X13956Y306691D01*
X21364Y300270D02*
X21469Y300207D01*
X21572Y300140D01*
X21672Y300069D01*
X21770Y299996D01*
X21867Y299920D01*
X21960Y299841D01*
X22051Y299759D01*
X22140Y299675D01*
X22226Y299588D01*
X22310Y299498D01*
X22390Y299406D01*
X22468Y299311D01*
X22543Y299214D01*
X22615Y299114D01*
X22683Y299013D01*
X22749Y298909D01*
X22811Y298804D01*
X22870Y298697D01*
X22926Y298588D01*
X22979Y298477D01*
X23028Y298365D01*
X23074Y298251D01*
X23116Y298136D01*
X23154Y298020D01*
X23189Y297902D01*
X23221Y297784D01*
X23249Y297664D01*
X23273Y297544D01*
X23293Y297423D01*
X23310Y297302D01*
X23323Y297180D01*
X23333Y297058D01*
X23338Y296936D01*
X23340Y296813D01*
X21364Y300270D02*
X15931Y303234D01*
X29654Y296813D02*
X33605Y310642D01*
X29654Y296813D02*
X39532Y296813D01*
X36569Y300764D02*
X36569Y292862D01*
X37338Y587925D02*
X37338Y591876D01*
X37338Y587925D02*
X37336Y587819D01*
X37330Y587714D01*
X37321Y587608D01*
X37308Y587503D01*
X37291Y587399D01*
X37270Y587295D01*
X37246Y587192D01*
X37218Y587090D01*
X37186Y586989D01*
X37151Y586890D01*
X37112Y586791D01*
X37070Y586694D01*
X37025Y586599D01*
X36976Y586505D01*
X36923Y586413D01*
X36868Y586323D01*
X36809Y586235D01*
X36747Y586149D01*
X36682Y586066D01*
X36614Y585985D01*
X36544Y585906D01*
X36470Y585830D01*
X36394Y585756D01*
X36315Y585686D01*
X36234Y585618D01*
X36151Y585553D01*
X36065Y585491D01*
X35977Y585432D01*
X35887Y585377D01*
X35795Y585324D01*
X35701Y585275D01*
X35606Y585230D01*
X35509Y585188D01*
X35410Y585149D01*
X35311Y585114D01*
X35210Y585082D01*
X35108Y585054D01*
X35005Y585030D01*
X34901Y585009D01*
X34797Y584992D01*
X34692Y584979D01*
X34586Y584970D01*
X34481Y584964D01*
X34375Y584962D01*
X28448Y584962D01*
X28342Y584964D01*
X28237Y584970D01*
X28131Y584979D01*
X28026Y584992D01*
X27922Y585009D01*
X27818Y585030D01*
X27715Y585054D01*
X27613Y585082D01*
X27512Y585114D01*
X27413Y585149D01*
X27314Y585188D01*
X27217Y585230D01*
X27122Y585275D01*
X27028Y585324D01*
X26936Y585377D01*
X26846Y585432D01*
X26758Y585491D01*
X26672Y585553D01*
X26589Y585618D01*
X26508Y585686D01*
X26429Y585756D01*
X26353Y585830D01*
X26279Y585906D01*
X26209Y585985D01*
X26141Y586066D01*
X26076Y586149D01*
X26014Y586235D01*
X25955Y586323D01*
X25900Y586413D01*
X25847Y586505D01*
X25798Y586599D01*
X25753Y586694D01*
X25711Y586791D01*
X25672Y586890D01*
X25637Y586989D01*
X25605Y587090D01*
X25577Y587192D01*
X25553Y587295D01*
X25532Y587399D01*
X25515Y587503D01*
X25502Y587608D01*
X25493Y587714D01*
X25487Y587819D01*
X25485Y587925D01*
X25485Y591876D01*
X29436Y597787D02*
X33387Y597787D01*
X29436Y597787D02*
X29312Y597789D01*
X29188Y597795D01*
X29064Y597805D01*
X28941Y597818D01*
X28818Y597836D01*
X28696Y597857D01*
X28574Y597882D01*
X28453Y597911D01*
X28334Y597944D01*
X28215Y597980D01*
X28098Y598021D01*
X27982Y598064D01*
X27867Y598112D01*
X27754Y598163D01*
X27642Y598218D01*
X27533Y598276D01*
X27425Y598337D01*
X27319Y598402D01*
X27215Y598470D01*
X27114Y598542D01*
X27014Y598616D01*
X26918Y598694D01*
X26823Y598774D01*
X26731Y598858D01*
X26642Y598944D01*
X26556Y599033D01*
X26472Y599125D01*
X26392Y599220D01*
X26314Y599316D01*
X26240Y599416D01*
X26168Y599517D01*
X26100Y599621D01*
X26035Y599727D01*
X25974Y599835D01*
X25916Y599944D01*
X25861Y600056D01*
X25810Y600169D01*
X25762Y600284D01*
X25719Y600400D01*
X25678Y600517D01*
X25642Y600636D01*
X25609Y600755D01*
X25580Y600876D01*
X25555Y600998D01*
X25534Y601120D01*
X25516Y601243D01*
X25503Y601366D01*
X25493Y601490D01*
X25487Y601614D01*
X25485Y601738D01*
X25487Y601862D01*
X25493Y601986D01*
X25503Y602110D01*
X25516Y602233D01*
X25534Y602356D01*
X25555Y602478D01*
X25580Y602600D01*
X25609Y602721D01*
X25642Y602840D01*
X25678Y602959D01*
X25719Y603076D01*
X25762Y603192D01*
X25810Y603307D01*
X25861Y603420D01*
X25916Y603532D01*
X25974Y603641D01*
X26035Y603749D01*
X26100Y603855D01*
X26168Y603959D01*
X26240Y604060D01*
X26314Y604160D01*
X26392Y604256D01*
X26472Y604351D01*
X26556Y604443D01*
X26642Y604532D01*
X26731Y604618D01*
X26823Y604702D01*
X26918Y604782D01*
X27014Y604860D01*
X27114Y604934D01*
X27215Y605006D01*
X27319Y605074D01*
X27425Y605139D01*
X27533Y605200D01*
X27642Y605258D01*
X27754Y605313D01*
X27867Y605364D01*
X27982Y605412D01*
X28098Y605455D01*
X28215Y605496D01*
X28334Y605532D01*
X28453Y605565D01*
X28574Y605594D01*
X28696Y605619D01*
X28818Y605640D01*
X28941Y605658D01*
X29064Y605671D01*
X29188Y605681D01*
X29312Y605687D01*
X29436Y605689D01*
X33387Y605689D01*
X33511Y605687D01*
X33635Y605681D01*
X33759Y605671D01*
X33882Y605658D01*
X34005Y605640D01*
X34127Y605619D01*
X34249Y605594D01*
X34370Y605565D01*
X34489Y605532D01*
X34608Y605496D01*
X34725Y605455D01*
X34841Y605412D01*
X34956Y605364D01*
X35069Y605313D01*
X35181Y605258D01*
X35290Y605200D01*
X35398Y605139D01*
X35504Y605074D01*
X35608Y605006D01*
X35709Y604934D01*
X35809Y604860D01*
X35905Y604782D01*
X36000Y604702D01*
X36092Y604618D01*
X36181Y604532D01*
X36267Y604443D01*
X36351Y604351D01*
X36431Y604256D01*
X36509Y604160D01*
X36583Y604060D01*
X36655Y603959D01*
X36723Y603855D01*
X36788Y603749D01*
X36849Y603641D01*
X36907Y603532D01*
X36962Y603420D01*
X37013Y603307D01*
X37061Y603192D01*
X37104Y603076D01*
X37145Y602959D01*
X37181Y602840D01*
X37214Y602721D01*
X37243Y602600D01*
X37268Y602478D01*
X37289Y602356D01*
X37307Y602233D01*
X37320Y602110D01*
X37330Y601986D01*
X37336Y601862D01*
X37338Y601738D01*
X37336Y601614D01*
X37330Y601490D01*
X37320Y601366D01*
X37307Y601243D01*
X37289Y601120D01*
X37268Y600998D01*
X37243Y600876D01*
X37214Y600755D01*
X37181Y600636D01*
X37145Y600517D01*
X37104Y600400D01*
X37061Y600284D01*
X37013Y600169D01*
X36962Y600056D01*
X36907Y599944D01*
X36849Y599835D01*
X36788Y599727D01*
X36723Y599621D01*
X36655Y599517D01*
X36583Y599416D01*
X36509Y599316D01*
X36431Y599220D01*
X36351Y599125D01*
X36267Y599033D01*
X36181Y598944D01*
X36092Y598858D01*
X36000Y598774D01*
X35905Y598694D01*
X35809Y598616D01*
X35709Y598542D01*
X35608Y598470D01*
X35504Y598402D01*
X35398Y598337D01*
X35290Y598276D01*
X35181Y598218D01*
X35069Y598163D01*
X34956Y598112D01*
X34841Y598064D01*
X34725Y598021D01*
X34608Y597980D01*
X34489Y597944D01*
X34370Y597911D01*
X34249Y597882D01*
X34127Y597857D01*
X34005Y597836D01*
X33882Y597818D01*
X33759Y597805D01*
X33635Y597795D01*
X33511Y597789D01*
X33387Y597787D01*
X37338Y612862D02*
X25485Y612862D01*
X25485Y617801D01*
X25487Y617909D01*
X25493Y618017D01*
X25503Y618125D01*
X25517Y618232D01*
X25534Y618339D01*
X25556Y618445D01*
X25581Y618550D01*
X25611Y618655D01*
X25644Y618758D01*
X25681Y618859D01*
X25721Y618960D01*
X25765Y619059D01*
X25813Y619156D01*
X25864Y619251D01*
X25919Y619345D01*
X25977Y619436D01*
X26038Y619525D01*
X26103Y619612D01*
X26170Y619696D01*
X26241Y619778D01*
X26315Y619858D01*
X26391Y619934D01*
X26471Y620008D01*
X26553Y620078D01*
X26637Y620146D01*
X26724Y620211D01*
X26813Y620272D01*
X26904Y620330D01*
X26998Y620385D01*
X27093Y620436D01*
X27190Y620484D01*
X27289Y620528D01*
X27390Y620568D01*
X27491Y620605D01*
X27594Y620638D01*
X27699Y620668D01*
X27804Y620693D01*
X27910Y620715D01*
X28017Y620732D01*
X28124Y620746D01*
X28232Y620756D01*
X28340Y620762D01*
X28448Y620764D01*
X28448Y620765D02*
X37338Y620765D01*
X37338Y628918D02*
X22521Y628918D01*
X22521Y628919D02*
X22415Y628921D01*
X22310Y628927D01*
X22204Y628936D01*
X22099Y628949D01*
X21995Y628966D01*
X21891Y628987D01*
X21788Y629011D01*
X21686Y629039D01*
X21585Y629071D01*
X21486Y629106D01*
X21387Y629145D01*
X21290Y629187D01*
X21195Y629232D01*
X21101Y629281D01*
X21009Y629334D01*
X20919Y629389D01*
X20831Y629448D01*
X20745Y629510D01*
X20662Y629575D01*
X20581Y629643D01*
X20502Y629713D01*
X20426Y629787D01*
X20352Y629863D01*
X20282Y629942D01*
X20214Y630023D01*
X20149Y630106D01*
X20087Y630192D01*
X20028Y630280D01*
X19973Y630370D01*
X19920Y630462D01*
X19871Y630556D01*
X19826Y630651D01*
X19784Y630748D01*
X19745Y630847D01*
X19710Y630946D01*
X19678Y631047D01*
X19650Y631149D01*
X19626Y631252D01*
X19605Y631356D01*
X19588Y631460D01*
X19575Y631565D01*
X19566Y631671D01*
X19560Y631776D01*
X19558Y631882D01*
X19558Y632870D01*
X25485Y632870D02*
X25485Y626943D01*
X25485Y637472D02*
X37338Y637472D01*
X20546Y636979D02*
X19558Y636979D01*
X19558Y637966D01*
X20546Y637966D01*
X20546Y636979D01*
X37338Y647025D02*
X37338Y651964D01*
X37338Y647025D02*
X37336Y646919D01*
X37330Y646814D01*
X37321Y646708D01*
X37308Y646603D01*
X37291Y646499D01*
X37270Y646395D01*
X37246Y646292D01*
X37218Y646190D01*
X37186Y646089D01*
X37151Y645990D01*
X37112Y645891D01*
X37070Y645794D01*
X37025Y645699D01*
X36976Y645605D01*
X36923Y645513D01*
X36868Y645423D01*
X36809Y645335D01*
X36747Y645249D01*
X36682Y645166D01*
X36614Y645085D01*
X36544Y645006D01*
X36470Y644930D01*
X36394Y644856D01*
X36315Y644786D01*
X36234Y644718D01*
X36151Y644653D01*
X36065Y644591D01*
X35977Y644532D01*
X35887Y644477D01*
X35795Y644424D01*
X35701Y644375D01*
X35606Y644330D01*
X35509Y644288D01*
X35410Y644249D01*
X35311Y644214D01*
X35210Y644182D01*
X35108Y644154D01*
X35005Y644130D01*
X34901Y644109D01*
X34797Y644092D01*
X34692Y644079D01*
X34586Y644070D01*
X34481Y644064D01*
X34375Y644062D01*
X28448Y644062D01*
X28342Y644064D01*
X28237Y644070D01*
X28131Y644079D01*
X28026Y644092D01*
X27922Y644109D01*
X27818Y644130D01*
X27715Y644154D01*
X27613Y644182D01*
X27512Y644214D01*
X27413Y644249D01*
X27314Y644288D01*
X27217Y644330D01*
X27122Y644375D01*
X27028Y644424D01*
X26936Y644477D01*
X26846Y644532D01*
X26758Y644591D01*
X26672Y644653D01*
X26589Y644718D01*
X26508Y644786D01*
X26429Y644856D01*
X26353Y644930D01*
X26279Y645006D01*
X26209Y645085D01*
X26141Y645166D01*
X26076Y645249D01*
X26014Y645335D01*
X25955Y645423D01*
X25900Y645513D01*
X25847Y645605D01*
X25798Y645699D01*
X25753Y645794D01*
X25711Y645891D01*
X25672Y645990D01*
X25637Y646089D01*
X25605Y646190D01*
X25577Y646292D01*
X25553Y646395D01*
X25532Y646499D01*
X25515Y646603D01*
X25502Y646708D01*
X25493Y646814D01*
X25487Y646919D01*
X25485Y647025D01*
X25485Y651964D01*
X40301Y651964D01*
X40301Y651963D02*
X40407Y651961D01*
X40512Y651955D01*
X40618Y651946D01*
X40723Y651933D01*
X40827Y651916D01*
X40931Y651895D01*
X41034Y651871D01*
X41136Y651843D01*
X41237Y651811D01*
X41336Y651776D01*
X41435Y651737D01*
X41532Y651695D01*
X41627Y651650D01*
X41721Y651601D01*
X41813Y651548D01*
X41903Y651493D01*
X41991Y651434D01*
X42077Y651372D01*
X42160Y651307D01*
X42241Y651239D01*
X42320Y651169D01*
X42396Y651095D01*
X42470Y651019D01*
X42540Y650940D01*
X42608Y650859D01*
X42673Y650776D01*
X42735Y650690D01*
X42794Y650602D01*
X42849Y650512D01*
X42902Y650420D01*
X42951Y650326D01*
X42996Y650231D01*
X43038Y650134D01*
X43077Y650035D01*
X43112Y649936D01*
X43144Y649835D01*
X43172Y649733D01*
X43196Y649630D01*
X43217Y649526D01*
X43234Y649422D01*
X43247Y649317D01*
X43256Y649211D01*
X43262Y649106D01*
X43264Y649000D01*
X43265Y649000D02*
X43265Y645049D01*
D12*
X482600Y386715D03*
D13*
X482600Y412115D03*
D14*
X184785Y972312D02*
X159385Y972312D01*
X159385Y747268D02*
X184785Y747268D01*
X678815Y972312D02*
X704215Y972312D01*
X704215Y747268D02*
X678815Y747268D01*
D15*
X777240Y955040D03*
X777240Y929640D03*
X828675Y955040D03*
X828675Y929640D03*
D16*
X776605Y800100D03*
X776605Y901700D03*
X828040Y799465D03*
X828040Y901065D03*
D17*
X133477Y501269D03*
X68453Y501269D03*
X133477Y546481D03*
X68453Y546481D03*
D18*
X546100Y377340D03*
X546100Y357340D03*
X546100Y337340D03*
X546100Y317340D03*
X546100Y297340D03*
X546100Y277340D03*
X546100Y257340D03*
X546100Y237340D03*
D19*
X269875Y613855D02*
X269875Y626935D01*
X295275Y626935D02*
X295275Y613855D01*
X320675Y613855D02*
X320675Y626935D01*
X346075Y626935D02*
X346075Y613855D01*
X371475Y613855D02*
X371475Y626935D01*
X396875Y626935D02*
X396875Y613855D01*
X263715Y594995D02*
X250635Y594995D01*
X250635Y569595D02*
X263715Y569595D01*
X263715Y544195D02*
X250635Y544195D01*
X250635Y518795D02*
X263715Y518795D01*
X263715Y493395D02*
X250635Y493395D01*
X250635Y467995D02*
X263715Y467995D01*
X263715Y442595D02*
X250635Y442595D01*
X250635Y417195D02*
X263715Y417195D01*
X263715Y391795D02*
X250635Y391795D01*
X250635Y366395D02*
X263715Y366395D01*
X263715Y340995D02*
X250635Y340995D01*
X250635Y315595D02*
X263715Y315595D01*
X403035Y594995D02*
X416115Y594995D01*
X416115Y569595D02*
X403035Y569595D01*
X403035Y544195D02*
X416115Y544195D01*
X416115Y518795D02*
X403035Y518795D01*
X403035Y493395D02*
X416115Y493395D01*
X416115Y467995D02*
X403035Y467995D01*
X403035Y442595D02*
X416115Y442595D01*
X416115Y417195D02*
X403035Y417195D01*
X403035Y391795D02*
X416115Y391795D01*
X416115Y366395D02*
X403035Y366395D01*
X403035Y340995D02*
X416115Y340995D01*
X416115Y315595D02*
X403035Y315595D01*
X371475Y322135D02*
X371475Y309055D01*
X346075Y309055D02*
X346075Y322135D01*
X320675Y322135D02*
X320675Y309055D01*
D20*
X371475Y506095D03*
X371475Y480695D03*
D21*
X263300Y834300D03*
X263300Y893300D03*
X599300Y954300D03*
X599300Y774300D03*
D22*
X588899Y640715D02*
X575691Y640715D01*
X575691Y615315D02*
X588899Y615315D01*
X588899Y488315D02*
X575691Y488315D01*
X575691Y462915D02*
X588899Y462915D01*
X588899Y589915D02*
X575691Y589915D01*
X575691Y564515D02*
X588899Y564515D01*
X588899Y513715D02*
X575691Y513715D01*
X575691Y539115D02*
X588899Y539115D01*
X588899Y437515D02*
X575691Y437515D01*
X651891Y437515D02*
X665099Y437515D01*
X665099Y462915D02*
X651891Y462915D01*
X651891Y488315D02*
X665099Y488315D01*
X665099Y513715D02*
X651891Y513715D01*
X651891Y539115D02*
X665099Y539115D01*
X665099Y564515D02*
X651891Y564515D01*
X651891Y589915D02*
X665099Y589915D01*
X665099Y615315D02*
X651891Y615315D01*
X651891Y640715D02*
X665099Y640715D01*
D17*
X133477Y422529D03*
X68453Y422529D03*
X133477Y467741D03*
X68453Y467741D03*
X134112Y348869D03*
X69088Y348869D03*
X134112Y394081D03*
X69088Y394081D03*
X134112Y275209D03*
X69088Y275209D03*
X134112Y320421D03*
X69088Y320421D03*
X126492Y576199D03*
X61468Y576199D03*
X126492Y621411D03*
X61468Y621411D03*
D16*
X878840Y800735D03*
X878840Y902335D03*
X927100Y800100D03*
X927100Y901700D03*
D15*
X878840Y955675D03*
X878840Y930275D03*
X927100Y955675D03*
X927100Y930275D03*
D23*
X207010Y664845D03*
X105410Y664845D03*
D24*
X55880Y665480D03*
X81280Y665480D03*
D25*
X72073Y892810D02*
X93028Y892810D01*
X93028Y842010D02*
X72073Y842010D01*
D26*
X56642Y720090D02*
X42418Y720090D01*
X42418Y745490D02*
X56642Y745490D01*
D27*
X861120Y566180D03*
X741120Y686180D03*
X721120Y626180D03*
X861120Y686180D03*
X741120Y566180D03*
X861755Y392190D03*
X741755Y512190D03*
X721755Y452190D03*
X861755Y512190D03*
X741755Y392190D03*
X861755Y218835D03*
X741755Y338835D03*
X721755Y278835D03*
X861755Y338835D03*
X741755Y218835D03*
X861755Y46115D03*
X741755Y166115D03*
X721755Y106115D03*
X861755Y166115D03*
X741755Y46115D03*
D25*
X931863Y574675D02*
X952818Y574675D01*
X952818Y625475D02*
X931863Y625475D01*
X931863Y676275D02*
X952818Y676275D01*
X953453Y401955D02*
X932498Y401955D01*
X932498Y452755D02*
X953453Y452755D01*
X953453Y503555D02*
X932498Y503555D01*
X933133Y228600D02*
X954088Y228600D01*
X954088Y279400D02*
X933133Y279400D01*
X933133Y330200D02*
X954088Y330200D01*
X954088Y54610D02*
X933133Y54610D01*
X933133Y105410D02*
X954088Y105410D01*
X954088Y156210D02*
X933133Y156210D01*
D28*
X442595Y493395D02*
X409575Y493395D01*
X442595Y493395D02*
X457200Y508000D01*
X457200Y596900D01*
X501015Y640715D02*
X582295Y640715D01*
X501015Y640715D02*
X457200Y596900D01*
X736600Y760095D02*
X776605Y800100D01*
X736600Y760095D02*
X736600Y736600D01*
X723900Y723900D01*
X622300Y723900D01*
X582295Y683895D01*
X582295Y640715D01*
X411480Y469900D02*
X409575Y467995D01*
X411480Y469900D02*
X444500Y469900D01*
X482600Y508000D01*
X482600Y584200D01*
X513715Y615315D01*
X582295Y615315D01*
X803275Y774700D02*
X828040Y799465D01*
X803275Y774700D02*
X787400Y774700D01*
X749300Y736600D01*
X749300Y723900D01*
X736600Y711200D01*
X635000Y711200D01*
X609600Y685800D01*
X609600Y635000D01*
X589915Y615315D01*
X582295Y615315D01*
X411480Y444500D02*
X409575Y442595D01*
X411480Y444500D02*
X444500Y444500D01*
X508000Y508000D01*
X508000Y571500D01*
X526415Y589915D01*
X582295Y589915D01*
D29*
X508000Y571500D03*
D28*
X411480Y419100D02*
X409575Y417195D01*
X444500Y419100D02*
X533400Y508000D01*
X533400Y558800D01*
X539115Y564515D01*
X582295Y564515D01*
X444500Y419100D02*
X411480Y419100D01*
X257175Y417195D02*
X230505Y417195D01*
X165100Y514858D02*
X133477Y546481D01*
X165100Y514858D02*
X165100Y482600D01*
X230505Y417195D01*
X209423Y391795D02*
X133477Y467741D01*
X209423Y391795D02*
X257175Y391795D01*
X257175Y366395D02*
X205105Y366395D01*
X177419Y394081D02*
X134112Y394081D01*
X177419Y394081D02*
X205105Y366395D01*
X138938Y315595D02*
X134112Y320421D01*
X138938Y315595D02*
X257175Y315595D01*
D29*
X850900Y838200D03*
D28*
X850900Y736600D01*
D29*
X850900Y736600D03*
D30*
X691515Y866515D02*
X691515Y972312D01*
X691515Y866515D02*
X599300Y774300D01*
X263300Y834300D02*
X176268Y747268D01*
X172085Y747268D01*
D28*
X339560Y257340D02*
X546100Y257340D01*
X339560Y257340D02*
X292100Y304800D01*
X292100Y469900D01*
X268605Y493395D01*
X257175Y493395D01*
X475460Y337340D02*
X546100Y337340D01*
X475460Y337340D02*
X469900Y342900D01*
X411480Y342900D01*
X409575Y340995D01*
D29*
X457200Y317500D03*
D28*
X545940Y317500D01*
X546100Y317340D01*
D30*
X82550Y892810D02*
X167640Y977900D01*
X177673Y977900D01*
X177800Y977900D01*
X177673Y977900D02*
X172085Y972312D01*
X181610Y842010D02*
X82550Y842010D01*
X232900Y893300D02*
X263300Y893300D01*
X232900Y893300D02*
X181610Y842010D01*
D28*
X80010Y745490D02*
X49530Y745490D01*
X230505Y467995D02*
X257175Y467995D01*
X215900Y609600D02*
X80010Y745490D01*
X215900Y609600D02*
X215900Y482600D01*
X230505Y467995D01*
D30*
X722460Y105410D02*
X943610Y105410D01*
X722460Y105410D02*
X721755Y106115D01*
X722320Y279400D02*
X943610Y279400D01*
X722320Y279400D02*
X721755Y278835D01*
X722320Y452755D02*
X942975Y452755D01*
X722320Y452755D02*
X721755Y452190D01*
X721825Y625475D02*
X942340Y625475D01*
X721825Y625475D02*
X721120Y626180D01*
D28*
X698500Y382090D02*
X741755Y338835D01*
X680085Y589915D02*
X658495Y589915D01*
X698500Y571500D02*
X698500Y382090D01*
X698500Y571500D02*
X680085Y589915D01*
D30*
X861755Y218835D02*
X933845Y218835D01*
X943610Y228600D01*
X934975Y338835D02*
X861755Y338835D01*
X934975Y338835D02*
X943610Y330200D01*
X870250Y54610D02*
X861755Y46115D01*
X870250Y54610D02*
X943610Y54610D01*
X933705Y166115D02*
X861755Y166115D01*
X933705Y166115D02*
X943610Y156210D01*
X934340Y512190D02*
X861755Y512190D01*
X934340Y512190D02*
X942975Y503555D01*
X933210Y392190D02*
X861755Y392190D01*
X933210Y392190D02*
X942975Y401955D01*
X932435Y686180D02*
X861120Y686180D01*
X932435Y686180D02*
X942340Y676275D01*
X869615Y574675D02*
X861120Y566180D01*
X869615Y574675D02*
X942340Y574675D01*
M02*
