G04 EAGLE Gerber RS-274X export*
G75*
%MOMM*%
%FSLAX34Y34*%
%LPD*%
%INSoldermask Top*%
%IPPOS*%
%AMOC8*
5,1,8,0,0,1.08239X$1,22.5*%
G01*
%ADD10C,3.703200*%
%ADD11P,1.951982X8X292.500000*%
%ADD12C,1.803400*%
%ADD13C,2.743200*%
%ADD14P,1.649562X8X292.500000*%
%ADD15P,1.649562X8X112.500000*%
%ADD16C,1.625600*%
%ADD17C,1.511200*%
%ADD18C,1.511200*%
%ADD19R,1.511200X1.511200*%
%ADD20C,1.524000*%
%ADD21P,1.649562X8X202.500000*%
%ADD22P,1.649562X8X22.500000*%
%ADD23C,2.298700*%
%ADD24C,1.625600*%
%ADD25C,1.611200*%
%ADD26C,0.959600*%

G36*
X127549Y616523D02*
X127549Y616523D01*
X127597Y616537D01*
X127687Y616555D01*
X128596Y616876D01*
X128640Y616901D01*
X128724Y616938D01*
X129539Y617453D01*
X129576Y617487D01*
X129649Y617542D01*
X130329Y618226D01*
X130358Y618267D01*
X130417Y618337D01*
X130928Y619155D01*
X130946Y619202D01*
X130989Y619283D01*
X131304Y620194D01*
X131312Y620244D01*
X131336Y620333D01*
X131441Y621291D01*
X131438Y621321D01*
X131444Y621360D01*
X131444Y621461D01*
X131439Y621489D01*
X131441Y621525D01*
X131342Y622498D01*
X131329Y622547D01*
X131312Y622637D01*
X131000Y623564D01*
X130975Y623608D01*
X130940Y623693D01*
X130429Y624527D01*
X130395Y624565D01*
X130341Y624639D01*
X129657Y625339D01*
X129616Y625368D01*
X129547Y625428D01*
X128725Y625958D01*
X128678Y625978D01*
X128598Y626022D01*
X127678Y626355D01*
X127629Y626364D01*
X127540Y626389D01*
X126569Y626509D01*
X126559Y626509D01*
X126547Y626512D01*
X126244Y626539D01*
X126194Y626534D01*
X126095Y626534D01*
X125138Y626392D01*
X125090Y626376D01*
X125000Y626356D01*
X124098Y626004D01*
X124055Y625978D01*
X123973Y625938D01*
X123172Y625395D01*
X123136Y625359D01*
X123064Y625302D01*
X122404Y624594D01*
X122377Y624552D01*
X122320Y624480D01*
X121834Y623643D01*
X121817Y623595D01*
X121777Y623512D01*
X121490Y622588D01*
X121484Y622538D01*
X121463Y622448D01*
X121397Y621583D01*
X121395Y621575D01*
X121395Y621557D01*
X121392Y621516D01*
X121388Y621487D01*
X121388Y621435D01*
X121393Y621408D01*
X121496Y620441D01*
X121510Y620393D01*
X121527Y620302D01*
X121846Y619372D01*
X121871Y619328D01*
X121907Y619243D01*
X122426Y618407D01*
X122459Y618370D01*
X122514Y618296D01*
X123205Y617596D01*
X123247Y617567D01*
X123316Y617506D01*
X124146Y616978D01*
X124193Y616959D01*
X124274Y616916D01*
X125201Y616585D01*
X125251Y616577D01*
X125339Y616553D01*
X126292Y616440D01*
X126396Y616420D01*
X126400Y616420D01*
X126403Y616418D01*
X126591Y616412D01*
X127549Y616523D01*
G37*
G36*
X62525Y616498D02*
X62525Y616498D01*
X62573Y616512D01*
X62663Y616530D01*
X63572Y616851D01*
X63616Y616876D01*
X63700Y616913D01*
X64515Y617428D01*
X64552Y617462D01*
X64625Y617517D01*
X65305Y618201D01*
X65334Y618242D01*
X65393Y618312D01*
X65904Y619130D01*
X65922Y619177D01*
X65965Y619258D01*
X66280Y620169D01*
X66288Y620219D01*
X66312Y620308D01*
X66417Y621266D01*
X66414Y621296D01*
X66420Y621335D01*
X66420Y621436D01*
X66415Y621464D01*
X66417Y621500D01*
X66318Y622473D01*
X66305Y622522D01*
X66288Y622612D01*
X65976Y623539D01*
X65951Y623583D01*
X65916Y623668D01*
X65405Y624502D01*
X65371Y624540D01*
X65317Y624614D01*
X64633Y625314D01*
X64592Y625343D01*
X64523Y625403D01*
X63701Y625933D01*
X63654Y625953D01*
X63574Y625997D01*
X62654Y626330D01*
X62605Y626339D01*
X62516Y626364D01*
X61545Y626484D01*
X61535Y626484D01*
X61523Y626487D01*
X61220Y626514D01*
X61170Y626509D01*
X61071Y626509D01*
X60114Y626367D01*
X60066Y626351D01*
X59976Y626331D01*
X59074Y625979D01*
X59031Y625953D01*
X58949Y625913D01*
X58148Y625370D01*
X58112Y625334D01*
X58040Y625277D01*
X57380Y624569D01*
X57353Y624527D01*
X57296Y624455D01*
X56810Y623618D01*
X56793Y623570D01*
X56753Y623487D01*
X56466Y622563D01*
X56460Y622513D01*
X56439Y622423D01*
X56373Y621558D01*
X56371Y621550D01*
X56371Y621532D01*
X56368Y621491D01*
X56364Y621462D01*
X56364Y621410D01*
X56369Y621383D01*
X56472Y620416D01*
X56486Y620368D01*
X56503Y620277D01*
X56822Y619347D01*
X56847Y619303D01*
X56883Y619218D01*
X57402Y618382D01*
X57435Y618345D01*
X57490Y618271D01*
X58181Y617571D01*
X58223Y617542D01*
X58292Y617481D01*
X59122Y616953D01*
X59169Y616934D01*
X59250Y616891D01*
X60177Y616560D01*
X60227Y616552D01*
X60315Y616528D01*
X61268Y616415D01*
X61372Y616395D01*
X61376Y616395D01*
X61379Y616393D01*
X61567Y616387D01*
X62525Y616498D01*
G37*
G36*
X62525Y571260D02*
X62525Y571260D01*
X62573Y571274D01*
X62663Y571292D01*
X63572Y571613D01*
X63616Y571638D01*
X63700Y571675D01*
X64515Y572190D01*
X64552Y572224D01*
X64625Y572279D01*
X65305Y572963D01*
X65334Y573004D01*
X65393Y573074D01*
X65904Y573892D01*
X65922Y573939D01*
X65965Y574020D01*
X66280Y574931D01*
X66288Y574981D01*
X66312Y575070D01*
X66417Y576028D01*
X66414Y576058D01*
X66420Y576097D01*
X66420Y576198D01*
X66415Y576226D01*
X66417Y576262D01*
X66318Y577235D01*
X66305Y577284D01*
X66288Y577374D01*
X65976Y578301D01*
X65951Y578345D01*
X65916Y578430D01*
X65405Y579264D01*
X65371Y579302D01*
X65317Y579376D01*
X64633Y580076D01*
X64592Y580105D01*
X64523Y580165D01*
X63701Y580695D01*
X63654Y580715D01*
X63574Y580759D01*
X62654Y581092D01*
X62605Y581101D01*
X62516Y581126D01*
X61545Y581246D01*
X61535Y581246D01*
X61523Y581249D01*
X61220Y581276D01*
X61170Y581271D01*
X61071Y581271D01*
X60114Y581129D01*
X60066Y581113D01*
X59976Y581093D01*
X59074Y580741D01*
X59031Y580715D01*
X58949Y580675D01*
X58148Y580132D01*
X58112Y580096D01*
X58040Y580039D01*
X57380Y579331D01*
X57353Y579289D01*
X57296Y579217D01*
X56810Y578380D01*
X56793Y578332D01*
X56753Y578249D01*
X56466Y577325D01*
X56460Y577275D01*
X56439Y577185D01*
X56373Y576320D01*
X56371Y576312D01*
X56371Y576294D01*
X56368Y576253D01*
X56364Y576224D01*
X56364Y576172D01*
X56369Y576145D01*
X56472Y575178D01*
X56486Y575130D01*
X56503Y575039D01*
X56822Y574109D01*
X56847Y574065D01*
X56883Y573980D01*
X57402Y573144D01*
X57435Y573107D01*
X57490Y573033D01*
X58181Y572333D01*
X58223Y572304D01*
X58292Y572243D01*
X59122Y571715D01*
X59169Y571696D01*
X59250Y571653D01*
X60177Y571322D01*
X60227Y571314D01*
X60315Y571290D01*
X61268Y571177D01*
X61372Y571157D01*
X61376Y571157D01*
X61379Y571155D01*
X61567Y571149D01*
X62525Y571260D01*
G37*
G36*
X127600Y571235D02*
X127600Y571235D01*
X127648Y571249D01*
X127738Y571267D01*
X128647Y571588D01*
X128691Y571613D01*
X128775Y571650D01*
X129590Y572165D01*
X129627Y572199D01*
X129700Y572254D01*
X130380Y572938D01*
X130409Y572979D01*
X130468Y573049D01*
X130979Y573867D01*
X130997Y573914D01*
X131040Y573995D01*
X131355Y574906D01*
X131363Y574956D01*
X131387Y575045D01*
X131492Y576003D01*
X131489Y576033D01*
X131495Y576072D01*
X131495Y576173D01*
X131490Y576201D01*
X131492Y576237D01*
X131393Y577210D01*
X131380Y577259D01*
X131363Y577349D01*
X131051Y578276D01*
X131026Y578320D01*
X130991Y578405D01*
X130480Y579239D01*
X130446Y579277D01*
X130392Y579351D01*
X129708Y580051D01*
X129667Y580080D01*
X129598Y580140D01*
X128776Y580670D01*
X128729Y580690D01*
X128649Y580734D01*
X127729Y581067D01*
X127680Y581076D01*
X127591Y581101D01*
X126620Y581221D01*
X126610Y581221D01*
X126598Y581224D01*
X126295Y581251D01*
X126245Y581246D01*
X126146Y581246D01*
X125189Y581104D01*
X125141Y581088D01*
X125051Y581068D01*
X124149Y580716D01*
X124106Y580690D01*
X124024Y580650D01*
X123223Y580107D01*
X123187Y580071D01*
X123115Y580014D01*
X122455Y579306D01*
X122428Y579264D01*
X122371Y579192D01*
X121885Y578355D01*
X121868Y578307D01*
X121828Y578224D01*
X121541Y577300D01*
X121535Y577250D01*
X121514Y577160D01*
X121448Y576295D01*
X121446Y576287D01*
X121446Y576269D01*
X121443Y576228D01*
X121439Y576199D01*
X121439Y576147D01*
X121444Y576120D01*
X121547Y575153D01*
X121561Y575105D01*
X121578Y575014D01*
X121897Y574084D01*
X121922Y574040D01*
X121958Y573955D01*
X122477Y573119D01*
X122510Y573082D01*
X122565Y573008D01*
X123256Y572308D01*
X123298Y572279D01*
X123367Y572218D01*
X124197Y571690D01*
X124244Y571671D01*
X124325Y571628D01*
X125252Y571297D01*
X125302Y571289D01*
X125390Y571265D01*
X126343Y571152D01*
X126447Y571132D01*
X126451Y571132D01*
X126454Y571130D01*
X126642Y571124D01*
X127600Y571235D01*
G37*
G36*
X134534Y541593D02*
X134534Y541593D01*
X134582Y541607D01*
X134672Y541625D01*
X135581Y541946D01*
X135625Y541971D01*
X135709Y542008D01*
X136524Y542523D01*
X136561Y542557D01*
X136634Y542612D01*
X137314Y543296D01*
X137343Y543337D01*
X137402Y543407D01*
X137913Y544225D01*
X137931Y544272D01*
X137974Y544353D01*
X138289Y545264D01*
X138297Y545314D01*
X138321Y545403D01*
X138426Y546361D01*
X138423Y546391D01*
X138429Y546430D01*
X138429Y546531D01*
X138424Y546559D01*
X138426Y546595D01*
X138327Y547568D01*
X138314Y547617D01*
X138297Y547707D01*
X137985Y548634D01*
X137960Y548678D01*
X137925Y548763D01*
X137414Y549597D01*
X137380Y549635D01*
X137326Y549709D01*
X136642Y550409D01*
X136601Y550438D01*
X136532Y550498D01*
X135710Y551028D01*
X135663Y551048D01*
X135583Y551092D01*
X134663Y551425D01*
X134614Y551434D01*
X134525Y551459D01*
X133554Y551579D01*
X133544Y551579D01*
X133532Y551582D01*
X133229Y551609D01*
X133179Y551604D01*
X133080Y551604D01*
X132123Y551462D01*
X132075Y551446D01*
X131985Y551426D01*
X131083Y551074D01*
X131040Y551048D01*
X130958Y551008D01*
X130157Y550465D01*
X130121Y550429D01*
X130049Y550372D01*
X129389Y549664D01*
X129362Y549622D01*
X129305Y549550D01*
X128819Y548713D01*
X128802Y548665D01*
X128762Y548582D01*
X128475Y547658D01*
X128469Y547608D01*
X128448Y547518D01*
X128382Y546653D01*
X128380Y546645D01*
X128380Y546627D01*
X128377Y546586D01*
X128373Y546557D01*
X128373Y546505D01*
X128378Y546478D01*
X128481Y545511D01*
X128495Y545463D01*
X128512Y545372D01*
X128831Y544442D01*
X128856Y544398D01*
X128892Y544313D01*
X129411Y543477D01*
X129444Y543440D01*
X129499Y543366D01*
X130190Y542666D01*
X130232Y542637D01*
X130301Y542576D01*
X131131Y542048D01*
X131178Y542029D01*
X131259Y541986D01*
X132186Y541655D01*
X132236Y541647D01*
X132324Y541623D01*
X133277Y541510D01*
X133381Y541490D01*
X133385Y541490D01*
X133388Y541488D01*
X133576Y541482D01*
X134534Y541593D01*
G37*
G36*
X69510Y541568D02*
X69510Y541568D01*
X69558Y541582D01*
X69648Y541600D01*
X70557Y541921D01*
X70601Y541946D01*
X70685Y541983D01*
X71500Y542498D01*
X71537Y542532D01*
X71610Y542587D01*
X72290Y543271D01*
X72319Y543312D01*
X72378Y543382D01*
X72889Y544200D01*
X72907Y544247D01*
X72950Y544328D01*
X73265Y545239D01*
X73273Y545289D01*
X73297Y545378D01*
X73402Y546336D01*
X73399Y546366D01*
X73405Y546405D01*
X73405Y546506D01*
X73400Y546534D01*
X73402Y546570D01*
X73303Y547543D01*
X73290Y547592D01*
X73273Y547682D01*
X72961Y548609D01*
X72936Y548653D01*
X72901Y548738D01*
X72390Y549572D01*
X72356Y549610D01*
X72302Y549684D01*
X71618Y550384D01*
X71577Y550413D01*
X71508Y550473D01*
X70686Y551003D01*
X70639Y551023D01*
X70559Y551067D01*
X69639Y551400D01*
X69590Y551409D01*
X69501Y551434D01*
X68530Y551554D01*
X68520Y551554D01*
X68508Y551557D01*
X68205Y551584D01*
X68155Y551579D01*
X68056Y551579D01*
X67099Y551437D01*
X67051Y551421D01*
X66961Y551401D01*
X66059Y551049D01*
X66016Y551023D01*
X65934Y550983D01*
X65133Y550440D01*
X65097Y550404D01*
X65025Y550347D01*
X64365Y549639D01*
X64338Y549597D01*
X64281Y549525D01*
X63795Y548688D01*
X63778Y548640D01*
X63738Y548557D01*
X63451Y547633D01*
X63445Y547583D01*
X63424Y547493D01*
X63358Y546628D01*
X63356Y546620D01*
X63356Y546602D01*
X63353Y546561D01*
X63349Y546532D01*
X63349Y546480D01*
X63354Y546453D01*
X63457Y545486D01*
X63471Y545438D01*
X63488Y545347D01*
X63807Y544417D01*
X63832Y544373D01*
X63868Y544288D01*
X64387Y543452D01*
X64420Y543415D01*
X64475Y543341D01*
X65166Y542641D01*
X65208Y542612D01*
X65277Y542551D01*
X66107Y542023D01*
X66154Y542004D01*
X66235Y541961D01*
X67162Y541630D01*
X67212Y541622D01*
X67300Y541598D01*
X68253Y541485D01*
X68357Y541465D01*
X68361Y541465D01*
X68364Y541463D01*
X68552Y541457D01*
X69510Y541568D01*
G37*
G36*
X69510Y496330D02*
X69510Y496330D01*
X69558Y496344D01*
X69648Y496362D01*
X70557Y496683D01*
X70601Y496708D01*
X70685Y496745D01*
X71500Y497260D01*
X71537Y497294D01*
X71610Y497349D01*
X72290Y498033D01*
X72319Y498074D01*
X72378Y498144D01*
X72889Y498962D01*
X72907Y499009D01*
X72950Y499090D01*
X73265Y500001D01*
X73273Y500051D01*
X73297Y500140D01*
X73402Y501098D01*
X73399Y501128D01*
X73405Y501167D01*
X73405Y501268D01*
X73400Y501296D01*
X73402Y501332D01*
X73303Y502305D01*
X73290Y502354D01*
X73273Y502444D01*
X72961Y503371D01*
X72936Y503415D01*
X72901Y503500D01*
X72390Y504334D01*
X72356Y504372D01*
X72302Y504446D01*
X71618Y505146D01*
X71577Y505175D01*
X71508Y505235D01*
X70686Y505765D01*
X70639Y505785D01*
X70559Y505829D01*
X69639Y506162D01*
X69590Y506171D01*
X69501Y506196D01*
X68530Y506316D01*
X68520Y506316D01*
X68508Y506319D01*
X68205Y506346D01*
X68155Y506341D01*
X68056Y506341D01*
X67099Y506199D01*
X67051Y506183D01*
X66961Y506163D01*
X66059Y505811D01*
X66016Y505785D01*
X65934Y505745D01*
X65133Y505202D01*
X65097Y505166D01*
X65025Y505109D01*
X64365Y504401D01*
X64338Y504359D01*
X64281Y504287D01*
X63795Y503450D01*
X63778Y503402D01*
X63738Y503319D01*
X63451Y502395D01*
X63445Y502345D01*
X63424Y502255D01*
X63358Y501390D01*
X63356Y501382D01*
X63356Y501364D01*
X63353Y501323D01*
X63349Y501294D01*
X63349Y501242D01*
X63354Y501215D01*
X63457Y500248D01*
X63471Y500200D01*
X63488Y500109D01*
X63807Y499179D01*
X63832Y499135D01*
X63868Y499050D01*
X64387Y498214D01*
X64420Y498177D01*
X64475Y498103D01*
X65166Y497403D01*
X65208Y497374D01*
X65277Y497313D01*
X66107Y496785D01*
X66154Y496766D01*
X66235Y496723D01*
X67162Y496392D01*
X67212Y496384D01*
X67300Y496360D01*
X68253Y496247D01*
X68357Y496227D01*
X68361Y496227D01*
X68364Y496225D01*
X68552Y496219D01*
X69510Y496330D01*
G37*
G36*
X134585Y496305D02*
X134585Y496305D01*
X134633Y496319D01*
X134723Y496337D01*
X135632Y496658D01*
X135676Y496683D01*
X135760Y496720D01*
X136575Y497235D01*
X136612Y497269D01*
X136685Y497324D01*
X137365Y498008D01*
X137394Y498049D01*
X137453Y498119D01*
X137964Y498937D01*
X137982Y498984D01*
X138025Y499065D01*
X138340Y499976D01*
X138348Y500026D01*
X138372Y500115D01*
X138477Y501073D01*
X138474Y501103D01*
X138480Y501142D01*
X138480Y501243D01*
X138475Y501271D01*
X138477Y501307D01*
X138378Y502280D01*
X138365Y502329D01*
X138348Y502419D01*
X138036Y503346D01*
X138011Y503390D01*
X137976Y503475D01*
X137465Y504309D01*
X137431Y504347D01*
X137377Y504421D01*
X136693Y505121D01*
X136652Y505150D01*
X136583Y505210D01*
X135761Y505740D01*
X135714Y505760D01*
X135634Y505804D01*
X134714Y506137D01*
X134665Y506146D01*
X134576Y506171D01*
X133605Y506291D01*
X133595Y506291D01*
X133583Y506294D01*
X133280Y506321D01*
X133230Y506316D01*
X133131Y506316D01*
X132174Y506174D01*
X132126Y506158D01*
X132036Y506138D01*
X131134Y505786D01*
X131091Y505760D01*
X131009Y505720D01*
X130208Y505177D01*
X130172Y505141D01*
X130100Y505084D01*
X129440Y504376D01*
X129413Y504334D01*
X129356Y504262D01*
X128870Y503425D01*
X128853Y503377D01*
X128813Y503294D01*
X128526Y502370D01*
X128520Y502320D01*
X128499Y502230D01*
X128433Y501365D01*
X128431Y501357D01*
X128431Y501339D01*
X128428Y501298D01*
X128424Y501269D01*
X128424Y501217D01*
X128429Y501190D01*
X128532Y500223D01*
X128546Y500175D01*
X128563Y500084D01*
X128882Y499154D01*
X128907Y499110D01*
X128943Y499025D01*
X129462Y498189D01*
X129495Y498152D01*
X129550Y498078D01*
X130241Y497378D01*
X130283Y497349D01*
X130352Y497288D01*
X131182Y496760D01*
X131229Y496741D01*
X131310Y496698D01*
X132237Y496367D01*
X132287Y496359D01*
X132375Y496335D01*
X133328Y496222D01*
X133432Y496202D01*
X133436Y496202D01*
X133439Y496200D01*
X133627Y496194D01*
X134585Y496305D01*
G37*
G36*
X134534Y462853D02*
X134534Y462853D01*
X134582Y462867D01*
X134672Y462885D01*
X135581Y463206D01*
X135625Y463231D01*
X135709Y463268D01*
X136524Y463783D01*
X136561Y463817D01*
X136634Y463872D01*
X137314Y464556D01*
X137343Y464597D01*
X137402Y464667D01*
X137913Y465485D01*
X137931Y465532D01*
X137974Y465613D01*
X138289Y466524D01*
X138297Y466574D01*
X138321Y466663D01*
X138426Y467621D01*
X138423Y467651D01*
X138429Y467690D01*
X138429Y467791D01*
X138424Y467819D01*
X138426Y467855D01*
X138327Y468828D01*
X138314Y468877D01*
X138297Y468967D01*
X137985Y469894D01*
X137960Y469938D01*
X137925Y470023D01*
X137414Y470857D01*
X137380Y470895D01*
X137326Y470969D01*
X136642Y471669D01*
X136601Y471698D01*
X136532Y471758D01*
X135710Y472288D01*
X135663Y472308D01*
X135583Y472352D01*
X134663Y472685D01*
X134614Y472694D01*
X134525Y472719D01*
X133554Y472839D01*
X133544Y472839D01*
X133532Y472842D01*
X133229Y472869D01*
X133179Y472864D01*
X133080Y472864D01*
X132123Y472722D01*
X132075Y472706D01*
X131985Y472686D01*
X131083Y472334D01*
X131040Y472308D01*
X130958Y472268D01*
X130157Y471725D01*
X130121Y471689D01*
X130049Y471632D01*
X129389Y470924D01*
X129362Y470882D01*
X129305Y470810D01*
X128819Y469973D01*
X128802Y469925D01*
X128762Y469842D01*
X128475Y468918D01*
X128469Y468868D01*
X128448Y468778D01*
X128382Y467913D01*
X128380Y467905D01*
X128380Y467887D01*
X128377Y467846D01*
X128373Y467817D01*
X128373Y467765D01*
X128378Y467738D01*
X128481Y466771D01*
X128495Y466723D01*
X128512Y466632D01*
X128831Y465702D01*
X128856Y465658D01*
X128892Y465573D01*
X129411Y464737D01*
X129444Y464700D01*
X129499Y464626D01*
X130190Y463926D01*
X130232Y463897D01*
X130301Y463836D01*
X131131Y463308D01*
X131178Y463289D01*
X131259Y463246D01*
X132186Y462915D01*
X132236Y462907D01*
X132324Y462883D01*
X133277Y462770D01*
X133381Y462750D01*
X133385Y462750D01*
X133388Y462748D01*
X133576Y462742D01*
X134534Y462853D01*
G37*
G36*
X69510Y462828D02*
X69510Y462828D01*
X69558Y462842D01*
X69648Y462860D01*
X70557Y463181D01*
X70601Y463206D01*
X70685Y463243D01*
X71500Y463758D01*
X71537Y463792D01*
X71610Y463847D01*
X72290Y464531D01*
X72319Y464572D01*
X72378Y464642D01*
X72889Y465460D01*
X72907Y465507D01*
X72950Y465588D01*
X73265Y466499D01*
X73273Y466549D01*
X73297Y466638D01*
X73402Y467596D01*
X73399Y467626D01*
X73405Y467665D01*
X73405Y467766D01*
X73400Y467794D01*
X73402Y467830D01*
X73303Y468803D01*
X73290Y468852D01*
X73273Y468942D01*
X72961Y469869D01*
X72936Y469913D01*
X72901Y469998D01*
X72390Y470832D01*
X72356Y470870D01*
X72302Y470944D01*
X71618Y471644D01*
X71577Y471673D01*
X71508Y471733D01*
X70686Y472263D01*
X70639Y472283D01*
X70559Y472327D01*
X69639Y472660D01*
X69590Y472669D01*
X69501Y472694D01*
X68530Y472814D01*
X68520Y472814D01*
X68508Y472817D01*
X68205Y472844D01*
X68155Y472839D01*
X68056Y472839D01*
X67099Y472697D01*
X67051Y472681D01*
X66961Y472661D01*
X66059Y472309D01*
X66016Y472283D01*
X65934Y472243D01*
X65133Y471700D01*
X65097Y471664D01*
X65025Y471607D01*
X64365Y470899D01*
X64338Y470857D01*
X64281Y470785D01*
X63795Y469948D01*
X63778Y469900D01*
X63738Y469817D01*
X63451Y468893D01*
X63445Y468843D01*
X63424Y468753D01*
X63358Y467888D01*
X63356Y467880D01*
X63356Y467862D01*
X63353Y467821D01*
X63349Y467792D01*
X63349Y467740D01*
X63354Y467713D01*
X63457Y466746D01*
X63471Y466698D01*
X63488Y466607D01*
X63807Y465677D01*
X63832Y465633D01*
X63868Y465548D01*
X64387Y464712D01*
X64420Y464675D01*
X64475Y464601D01*
X65166Y463901D01*
X65208Y463872D01*
X65277Y463811D01*
X66107Y463283D01*
X66154Y463264D01*
X66235Y463221D01*
X67162Y462890D01*
X67212Y462882D01*
X67300Y462858D01*
X68253Y462745D01*
X68357Y462725D01*
X68361Y462725D01*
X68364Y462723D01*
X68552Y462717D01*
X69510Y462828D01*
G37*
G36*
X69510Y417590D02*
X69510Y417590D01*
X69558Y417604D01*
X69648Y417622D01*
X70557Y417943D01*
X70601Y417968D01*
X70685Y418005D01*
X71500Y418520D01*
X71537Y418554D01*
X71610Y418609D01*
X72290Y419293D01*
X72319Y419334D01*
X72378Y419404D01*
X72889Y420222D01*
X72907Y420269D01*
X72950Y420350D01*
X73265Y421261D01*
X73273Y421311D01*
X73297Y421400D01*
X73402Y422358D01*
X73399Y422388D01*
X73405Y422427D01*
X73405Y422528D01*
X73400Y422556D01*
X73402Y422592D01*
X73303Y423565D01*
X73290Y423614D01*
X73273Y423704D01*
X72961Y424631D01*
X72936Y424675D01*
X72901Y424760D01*
X72390Y425594D01*
X72356Y425632D01*
X72302Y425706D01*
X71618Y426406D01*
X71577Y426435D01*
X71508Y426495D01*
X70686Y427025D01*
X70639Y427045D01*
X70559Y427089D01*
X69639Y427422D01*
X69590Y427431D01*
X69501Y427456D01*
X68530Y427576D01*
X68520Y427576D01*
X68508Y427579D01*
X68205Y427606D01*
X68155Y427601D01*
X68056Y427601D01*
X67099Y427459D01*
X67051Y427443D01*
X66961Y427423D01*
X66059Y427071D01*
X66016Y427045D01*
X65934Y427005D01*
X65133Y426462D01*
X65097Y426426D01*
X65025Y426369D01*
X64365Y425661D01*
X64338Y425619D01*
X64281Y425547D01*
X63795Y424710D01*
X63778Y424662D01*
X63738Y424579D01*
X63451Y423655D01*
X63445Y423605D01*
X63424Y423515D01*
X63358Y422650D01*
X63356Y422642D01*
X63356Y422624D01*
X63353Y422583D01*
X63349Y422554D01*
X63349Y422502D01*
X63354Y422475D01*
X63457Y421508D01*
X63471Y421460D01*
X63488Y421369D01*
X63807Y420439D01*
X63832Y420395D01*
X63868Y420310D01*
X64387Y419474D01*
X64420Y419437D01*
X64475Y419363D01*
X65166Y418663D01*
X65208Y418634D01*
X65277Y418573D01*
X66107Y418045D01*
X66154Y418026D01*
X66235Y417983D01*
X67162Y417652D01*
X67212Y417644D01*
X67300Y417620D01*
X68253Y417507D01*
X68357Y417487D01*
X68361Y417487D01*
X68364Y417485D01*
X68552Y417479D01*
X69510Y417590D01*
G37*
G36*
X134585Y417565D02*
X134585Y417565D01*
X134633Y417579D01*
X134723Y417597D01*
X135632Y417918D01*
X135676Y417943D01*
X135760Y417980D01*
X136575Y418495D01*
X136612Y418529D01*
X136685Y418584D01*
X137365Y419268D01*
X137394Y419309D01*
X137453Y419379D01*
X137964Y420197D01*
X137982Y420244D01*
X138025Y420325D01*
X138340Y421236D01*
X138348Y421286D01*
X138372Y421375D01*
X138477Y422333D01*
X138474Y422363D01*
X138480Y422402D01*
X138480Y422503D01*
X138475Y422531D01*
X138477Y422567D01*
X138378Y423540D01*
X138365Y423589D01*
X138348Y423679D01*
X138036Y424606D01*
X138011Y424650D01*
X137976Y424735D01*
X137465Y425569D01*
X137431Y425607D01*
X137377Y425681D01*
X136693Y426381D01*
X136652Y426410D01*
X136583Y426470D01*
X135761Y427000D01*
X135714Y427020D01*
X135634Y427064D01*
X134714Y427397D01*
X134665Y427406D01*
X134576Y427431D01*
X133605Y427551D01*
X133595Y427551D01*
X133583Y427554D01*
X133280Y427581D01*
X133230Y427576D01*
X133131Y427576D01*
X132174Y427434D01*
X132126Y427418D01*
X132036Y427398D01*
X131134Y427046D01*
X131091Y427020D01*
X131009Y426980D01*
X130208Y426437D01*
X130172Y426401D01*
X130100Y426344D01*
X129440Y425636D01*
X129413Y425594D01*
X129356Y425522D01*
X128870Y424685D01*
X128853Y424637D01*
X128813Y424554D01*
X128526Y423630D01*
X128520Y423580D01*
X128499Y423490D01*
X128433Y422625D01*
X128431Y422617D01*
X128431Y422599D01*
X128428Y422558D01*
X128424Y422529D01*
X128424Y422477D01*
X128429Y422450D01*
X128532Y421483D01*
X128546Y421435D01*
X128563Y421344D01*
X128882Y420414D01*
X128907Y420370D01*
X128943Y420285D01*
X129462Y419449D01*
X129495Y419412D01*
X129550Y419338D01*
X130241Y418638D01*
X130283Y418609D01*
X130352Y418548D01*
X131182Y418020D01*
X131229Y418001D01*
X131310Y417958D01*
X132237Y417627D01*
X132287Y417619D01*
X132375Y417595D01*
X133328Y417482D01*
X133432Y417462D01*
X133436Y417462D01*
X133439Y417460D01*
X133627Y417454D01*
X134585Y417565D01*
G37*
G36*
X135169Y389193D02*
X135169Y389193D01*
X135217Y389207D01*
X135307Y389225D01*
X136216Y389546D01*
X136260Y389571D01*
X136344Y389608D01*
X137159Y390123D01*
X137196Y390157D01*
X137269Y390212D01*
X137949Y390896D01*
X137978Y390937D01*
X138037Y391007D01*
X138548Y391825D01*
X138566Y391872D01*
X138609Y391953D01*
X138924Y392864D01*
X138932Y392914D01*
X138956Y393003D01*
X139061Y393961D01*
X139058Y393991D01*
X139064Y394030D01*
X139064Y394131D01*
X139059Y394159D01*
X139061Y394195D01*
X138962Y395168D01*
X138949Y395217D01*
X138932Y395307D01*
X138620Y396234D01*
X138595Y396278D01*
X138560Y396363D01*
X138049Y397197D01*
X138015Y397235D01*
X137961Y397309D01*
X137277Y398009D01*
X137236Y398038D01*
X137167Y398098D01*
X136345Y398628D01*
X136298Y398648D01*
X136218Y398692D01*
X135298Y399025D01*
X135249Y399034D01*
X135160Y399059D01*
X134189Y399179D01*
X134179Y399179D01*
X134167Y399182D01*
X133864Y399209D01*
X133814Y399204D01*
X133715Y399204D01*
X132758Y399062D01*
X132710Y399046D01*
X132620Y399026D01*
X131718Y398674D01*
X131675Y398648D01*
X131593Y398608D01*
X130792Y398065D01*
X130756Y398029D01*
X130684Y397972D01*
X130024Y397264D01*
X129997Y397222D01*
X129940Y397150D01*
X129454Y396313D01*
X129437Y396265D01*
X129397Y396182D01*
X129110Y395258D01*
X129104Y395208D01*
X129083Y395118D01*
X129017Y394253D01*
X129015Y394245D01*
X129015Y394227D01*
X129012Y394186D01*
X129008Y394157D01*
X129008Y394105D01*
X129013Y394078D01*
X129116Y393111D01*
X129130Y393063D01*
X129147Y392972D01*
X129466Y392042D01*
X129491Y391998D01*
X129527Y391913D01*
X130046Y391077D01*
X130079Y391040D01*
X130134Y390966D01*
X130825Y390266D01*
X130867Y390237D01*
X130936Y390176D01*
X131766Y389648D01*
X131813Y389629D01*
X131894Y389586D01*
X132821Y389255D01*
X132871Y389247D01*
X132959Y389223D01*
X133912Y389110D01*
X134016Y389090D01*
X134020Y389090D01*
X134023Y389088D01*
X134211Y389082D01*
X135169Y389193D01*
G37*
G36*
X70145Y389168D02*
X70145Y389168D01*
X70193Y389182D01*
X70283Y389200D01*
X71192Y389521D01*
X71236Y389546D01*
X71320Y389583D01*
X72135Y390098D01*
X72172Y390132D01*
X72245Y390187D01*
X72925Y390871D01*
X72954Y390912D01*
X73013Y390982D01*
X73524Y391800D01*
X73542Y391847D01*
X73585Y391928D01*
X73900Y392839D01*
X73908Y392889D01*
X73932Y392978D01*
X74037Y393936D01*
X74034Y393966D01*
X74040Y394005D01*
X74040Y394106D01*
X74035Y394134D01*
X74037Y394170D01*
X73938Y395143D01*
X73925Y395192D01*
X73908Y395282D01*
X73596Y396209D01*
X73571Y396253D01*
X73536Y396338D01*
X73025Y397172D01*
X72991Y397210D01*
X72937Y397284D01*
X72253Y397984D01*
X72212Y398013D01*
X72143Y398073D01*
X71321Y398603D01*
X71274Y398623D01*
X71194Y398667D01*
X70274Y399000D01*
X70225Y399009D01*
X70136Y399034D01*
X69165Y399154D01*
X69155Y399154D01*
X69143Y399157D01*
X68840Y399184D01*
X68790Y399179D01*
X68691Y399179D01*
X67734Y399037D01*
X67686Y399021D01*
X67596Y399001D01*
X66694Y398649D01*
X66651Y398623D01*
X66569Y398583D01*
X65768Y398040D01*
X65732Y398004D01*
X65660Y397947D01*
X65000Y397239D01*
X64973Y397197D01*
X64916Y397125D01*
X64430Y396288D01*
X64413Y396240D01*
X64373Y396157D01*
X64086Y395233D01*
X64080Y395183D01*
X64059Y395093D01*
X63993Y394228D01*
X63991Y394220D01*
X63991Y394202D01*
X63988Y394161D01*
X63984Y394132D01*
X63984Y394080D01*
X63989Y394053D01*
X64092Y393086D01*
X64106Y393038D01*
X64123Y392947D01*
X64442Y392017D01*
X64467Y391973D01*
X64503Y391888D01*
X65022Y391052D01*
X65055Y391015D01*
X65110Y390941D01*
X65801Y390241D01*
X65843Y390212D01*
X65912Y390151D01*
X66742Y389623D01*
X66789Y389604D01*
X66870Y389561D01*
X67797Y389230D01*
X67847Y389222D01*
X67935Y389198D01*
X68888Y389085D01*
X68992Y389065D01*
X68996Y389065D01*
X68999Y389063D01*
X69187Y389057D01*
X70145Y389168D01*
G37*
G36*
X70145Y343930D02*
X70145Y343930D01*
X70193Y343944D01*
X70283Y343962D01*
X71192Y344283D01*
X71236Y344308D01*
X71320Y344345D01*
X72135Y344860D01*
X72172Y344894D01*
X72245Y344949D01*
X72925Y345633D01*
X72954Y345674D01*
X73013Y345744D01*
X73524Y346562D01*
X73542Y346609D01*
X73585Y346690D01*
X73900Y347601D01*
X73908Y347651D01*
X73932Y347740D01*
X74037Y348698D01*
X74034Y348728D01*
X74040Y348767D01*
X74040Y348868D01*
X74035Y348896D01*
X74037Y348932D01*
X73938Y349905D01*
X73925Y349954D01*
X73908Y350044D01*
X73596Y350971D01*
X73571Y351015D01*
X73536Y351100D01*
X73025Y351934D01*
X72991Y351972D01*
X72937Y352046D01*
X72253Y352746D01*
X72212Y352775D01*
X72143Y352835D01*
X71321Y353365D01*
X71274Y353385D01*
X71194Y353429D01*
X70274Y353762D01*
X70225Y353771D01*
X70136Y353796D01*
X69165Y353916D01*
X69155Y353916D01*
X69143Y353919D01*
X68840Y353946D01*
X68790Y353941D01*
X68691Y353941D01*
X67734Y353799D01*
X67686Y353783D01*
X67596Y353763D01*
X66694Y353411D01*
X66651Y353385D01*
X66569Y353345D01*
X65768Y352802D01*
X65732Y352766D01*
X65660Y352709D01*
X65000Y352001D01*
X64973Y351959D01*
X64916Y351887D01*
X64430Y351050D01*
X64413Y351002D01*
X64373Y350919D01*
X64086Y349995D01*
X64080Y349945D01*
X64059Y349855D01*
X63993Y348990D01*
X63991Y348982D01*
X63991Y348964D01*
X63988Y348923D01*
X63984Y348894D01*
X63984Y348842D01*
X63989Y348815D01*
X64092Y347848D01*
X64106Y347800D01*
X64123Y347709D01*
X64442Y346779D01*
X64467Y346735D01*
X64503Y346650D01*
X65022Y345814D01*
X65055Y345777D01*
X65110Y345703D01*
X65801Y345003D01*
X65843Y344974D01*
X65912Y344913D01*
X66742Y344385D01*
X66789Y344366D01*
X66870Y344323D01*
X67797Y343992D01*
X67847Y343984D01*
X67935Y343960D01*
X68888Y343847D01*
X68992Y343827D01*
X68996Y343827D01*
X68999Y343825D01*
X69187Y343819D01*
X70145Y343930D01*
G37*
G36*
X135220Y343905D02*
X135220Y343905D01*
X135268Y343919D01*
X135358Y343937D01*
X136267Y344258D01*
X136311Y344283D01*
X136395Y344320D01*
X137210Y344835D01*
X137247Y344869D01*
X137320Y344924D01*
X138000Y345608D01*
X138029Y345649D01*
X138088Y345719D01*
X138599Y346537D01*
X138617Y346584D01*
X138660Y346665D01*
X138975Y347576D01*
X138983Y347626D01*
X139007Y347715D01*
X139112Y348673D01*
X139109Y348703D01*
X139115Y348742D01*
X139115Y348843D01*
X139110Y348871D01*
X139112Y348907D01*
X139013Y349880D01*
X139000Y349929D01*
X138983Y350019D01*
X138671Y350946D01*
X138646Y350990D01*
X138611Y351075D01*
X138100Y351909D01*
X138066Y351947D01*
X138012Y352021D01*
X137328Y352721D01*
X137287Y352750D01*
X137218Y352810D01*
X136396Y353340D01*
X136349Y353360D01*
X136269Y353404D01*
X135349Y353737D01*
X135300Y353746D01*
X135211Y353771D01*
X134240Y353891D01*
X134230Y353891D01*
X134218Y353894D01*
X133915Y353921D01*
X133865Y353916D01*
X133766Y353916D01*
X132809Y353774D01*
X132761Y353758D01*
X132671Y353738D01*
X131769Y353386D01*
X131726Y353360D01*
X131644Y353320D01*
X130843Y352777D01*
X130807Y352741D01*
X130735Y352684D01*
X130075Y351976D01*
X130048Y351934D01*
X129991Y351862D01*
X129505Y351025D01*
X129488Y350977D01*
X129448Y350894D01*
X129161Y349970D01*
X129155Y349920D01*
X129134Y349830D01*
X129068Y348965D01*
X129066Y348957D01*
X129066Y348939D01*
X129063Y348898D01*
X129059Y348869D01*
X129059Y348817D01*
X129064Y348790D01*
X129167Y347823D01*
X129181Y347775D01*
X129198Y347684D01*
X129517Y346754D01*
X129542Y346710D01*
X129578Y346625D01*
X130097Y345789D01*
X130130Y345752D01*
X130185Y345678D01*
X130876Y344978D01*
X130918Y344949D01*
X130987Y344888D01*
X131817Y344360D01*
X131864Y344341D01*
X131945Y344298D01*
X132872Y343967D01*
X132922Y343959D01*
X133010Y343935D01*
X133963Y343822D01*
X134067Y343802D01*
X134071Y343802D01*
X134074Y343800D01*
X134262Y343794D01*
X135220Y343905D01*
G37*
G36*
X135169Y315533D02*
X135169Y315533D01*
X135217Y315547D01*
X135307Y315565D01*
X136216Y315886D01*
X136260Y315911D01*
X136344Y315948D01*
X137159Y316463D01*
X137196Y316497D01*
X137269Y316552D01*
X137949Y317236D01*
X137978Y317277D01*
X138037Y317347D01*
X138548Y318165D01*
X138566Y318212D01*
X138609Y318293D01*
X138924Y319204D01*
X138932Y319254D01*
X138956Y319343D01*
X139061Y320301D01*
X139058Y320331D01*
X139064Y320370D01*
X139064Y320471D01*
X139059Y320499D01*
X139061Y320535D01*
X138962Y321508D01*
X138949Y321557D01*
X138932Y321647D01*
X138620Y322574D01*
X138595Y322618D01*
X138560Y322703D01*
X138049Y323537D01*
X138015Y323575D01*
X137961Y323649D01*
X137277Y324349D01*
X137236Y324378D01*
X137167Y324438D01*
X136345Y324968D01*
X136298Y324988D01*
X136218Y325032D01*
X135298Y325365D01*
X135249Y325374D01*
X135160Y325399D01*
X134189Y325519D01*
X134179Y325519D01*
X134167Y325522D01*
X133864Y325549D01*
X133814Y325544D01*
X133715Y325544D01*
X132758Y325402D01*
X132710Y325386D01*
X132620Y325366D01*
X131718Y325014D01*
X131675Y324988D01*
X131593Y324948D01*
X130792Y324405D01*
X130756Y324369D01*
X130684Y324312D01*
X130024Y323604D01*
X129997Y323562D01*
X129940Y323490D01*
X129454Y322653D01*
X129437Y322605D01*
X129397Y322522D01*
X129110Y321598D01*
X129104Y321548D01*
X129083Y321458D01*
X129017Y320593D01*
X129015Y320585D01*
X129015Y320567D01*
X129012Y320526D01*
X129008Y320497D01*
X129008Y320445D01*
X129013Y320418D01*
X129116Y319451D01*
X129130Y319403D01*
X129147Y319312D01*
X129466Y318382D01*
X129491Y318338D01*
X129527Y318253D01*
X130046Y317417D01*
X130079Y317380D01*
X130134Y317306D01*
X130825Y316606D01*
X130867Y316577D01*
X130936Y316516D01*
X131766Y315988D01*
X131813Y315969D01*
X131894Y315926D01*
X132821Y315595D01*
X132871Y315587D01*
X132959Y315563D01*
X133912Y315450D01*
X134016Y315430D01*
X134020Y315430D01*
X134023Y315428D01*
X134211Y315422D01*
X135169Y315533D01*
G37*
G36*
X70145Y315508D02*
X70145Y315508D01*
X70193Y315522D01*
X70283Y315540D01*
X71192Y315861D01*
X71236Y315886D01*
X71320Y315923D01*
X72135Y316438D01*
X72172Y316472D01*
X72245Y316527D01*
X72925Y317211D01*
X72954Y317252D01*
X73013Y317322D01*
X73524Y318140D01*
X73542Y318187D01*
X73585Y318268D01*
X73900Y319179D01*
X73908Y319229D01*
X73932Y319318D01*
X74037Y320276D01*
X74034Y320306D01*
X74040Y320345D01*
X74040Y320446D01*
X74035Y320474D01*
X74037Y320510D01*
X73938Y321483D01*
X73925Y321532D01*
X73908Y321622D01*
X73596Y322549D01*
X73571Y322593D01*
X73536Y322678D01*
X73025Y323512D01*
X72991Y323550D01*
X72937Y323624D01*
X72253Y324324D01*
X72212Y324353D01*
X72143Y324413D01*
X71321Y324943D01*
X71274Y324963D01*
X71194Y325007D01*
X70274Y325340D01*
X70225Y325349D01*
X70136Y325374D01*
X69165Y325494D01*
X69155Y325494D01*
X69143Y325497D01*
X68840Y325524D01*
X68790Y325519D01*
X68691Y325519D01*
X67734Y325377D01*
X67686Y325361D01*
X67596Y325341D01*
X66694Y324989D01*
X66651Y324963D01*
X66569Y324923D01*
X65768Y324380D01*
X65732Y324344D01*
X65660Y324287D01*
X65000Y323579D01*
X64973Y323537D01*
X64916Y323465D01*
X64430Y322628D01*
X64413Y322580D01*
X64373Y322497D01*
X64086Y321573D01*
X64080Y321523D01*
X64059Y321433D01*
X63993Y320568D01*
X63991Y320560D01*
X63991Y320542D01*
X63988Y320501D01*
X63984Y320472D01*
X63984Y320420D01*
X63989Y320393D01*
X64092Y319426D01*
X64106Y319378D01*
X64123Y319287D01*
X64442Y318357D01*
X64467Y318313D01*
X64503Y318228D01*
X65022Y317392D01*
X65055Y317355D01*
X65110Y317281D01*
X65801Y316581D01*
X65843Y316552D01*
X65912Y316491D01*
X66742Y315963D01*
X66789Y315944D01*
X66870Y315901D01*
X67797Y315570D01*
X67847Y315562D01*
X67935Y315538D01*
X68888Y315425D01*
X68992Y315405D01*
X68996Y315405D01*
X68999Y315403D01*
X69187Y315397D01*
X70145Y315508D01*
G37*
G36*
X70145Y270270D02*
X70145Y270270D01*
X70193Y270284D01*
X70283Y270302D01*
X71192Y270623D01*
X71236Y270648D01*
X71320Y270685D01*
X72135Y271200D01*
X72172Y271234D01*
X72245Y271289D01*
X72925Y271973D01*
X72954Y272014D01*
X73013Y272084D01*
X73524Y272902D01*
X73542Y272949D01*
X73585Y273030D01*
X73900Y273941D01*
X73908Y273991D01*
X73932Y274080D01*
X74037Y275038D01*
X74034Y275068D01*
X74040Y275107D01*
X74040Y275208D01*
X74035Y275236D01*
X74037Y275272D01*
X73938Y276245D01*
X73925Y276294D01*
X73908Y276384D01*
X73596Y277311D01*
X73571Y277355D01*
X73536Y277440D01*
X73025Y278274D01*
X72991Y278312D01*
X72937Y278386D01*
X72253Y279086D01*
X72212Y279115D01*
X72143Y279175D01*
X71321Y279705D01*
X71274Y279725D01*
X71194Y279769D01*
X70274Y280102D01*
X70225Y280111D01*
X70136Y280136D01*
X69165Y280256D01*
X69155Y280256D01*
X69143Y280259D01*
X68840Y280286D01*
X68790Y280281D01*
X68691Y280281D01*
X67734Y280139D01*
X67686Y280123D01*
X67596Y280103D01*
X66694Y279751D01*
X66651Y279725D01*
X66569Y279685D01*
X65768Y279142D01*
X65732Y279106D01*
X65660Y279049D01*
X65000Y278341D01*
X64973Y278299D01*
X64916Y278227D01*
X64430Y277390D01*
X64413Y277342D01*
X64373Y277259D01*
X64086Y276335D01*
X64080Y276285D01*
X64059Y276195D01*
X63993Y275330D01*
X63991Y275322D01*
X63991Y275304D01*
X63988Y275263D01*
X63984Y275234D01*
X63984Y275182D01*
X63989Y275155D01*
X64092Y274188D01*
X64106Y274140D01*
X64123Y274049D01*
X64442Y273119D01*
X64467Y273075D01*
X64503Y272990D01*
X65022Y272154D01*
X65055Y272117D01*
X65110Y272043D01*
X65801Y271343D01*
X65843Y271314D01*
X65912Y271253D01*
X66742Y270725D01*
X66789Y270706D01*
X66870Y270663D01*
X67797Y270332D01*
X67847Y270324D01*
X67935Y270300D01*
X68888Y270187D01*
X68992Y270167D01*
X68996Y270167D01*
X68999Y270165D01*
X69187Y270159D01*
X70145Y270270D01*
G37*
G36*
X135220Y270245D02*
X135220Y270245D01*
X135268Y270259D01*
X135358Y270277D01*
X136267Y270598D01*
X136311Y270623D01*
X136395Y270660D01*
X137210Y271175D01*
X137247Y271209D01*
X137320Y271264D01*
X138000Y271948D01*
X138029Y271989D01*
X138088Y272059D01*
X138599Y272877D01*
X138617Y272924D01*
X138660Y273005D01*
X138975Y273916D01*
X138983Y273966D01*
X139007Y274055D01*
X139112Y275013D01*
X139109Y275043D01*
X139115Y275082D01*
X139115Y275183D01*
X139110Y275211D01*
X139112Y275247D01*
X139013Y276220D01*
X139000Y276269D01*
X138983Y276359D01*
X138671Y277286D01*
X138646Y277330D01*
X138611Y277415D01*
X138100Y278249D01*
X138066Y278287D01*
X138012Y278361D01*
X137328Y279061D01*
X137287Y279090D01*
X137218Y279150D01*
X136396Y279680D01*
X136349Y279700D01*
X136269Y279744D01*
X135349Y280077D01*
X135300Y280086D01*
X135211Y280111D01*
X134240Y280231D01*
X134230Y280231D01*
X134218Y280234D01*
X133915Y280261D01*
X133865Y280256D01*
X133766Y280256D01*
X132809Y280114D01*
X132761Y280098D01*
X132671Y280078D01*
X131769Y279726D01*
X131726Y279700D01*
X131644Y279660D01*
X130843Y279117D01*
X130807Y279081D01*
X130735Y279024D01*
X130075Y278316D01*
X130048Y278274D01*
X129991Y278202D01*
X129505Y277365D01*
X129488Y277317D01*
X129448Y277234D01*
X129161Y276310D01*
X129155Y276260D01*
X129134Y276170D01*
X129068Y275305D01*
X129066Y275297D01*
X129066Y275279D01*
X129063Y275238D01*
X129059Y275209D01*
X129059Y275157D01*
X129064Y275130D01*
X129167Y274163D01*
X129181Y274115D01*
X129198Y274024D01*
X129517Y273094D01*
X129542Y273050D01*
X129578Y272965D01*
X130097Y272129D01*
X130130Y272092D01*
X130185Y272018D01*
X130876Y271318D01*
X130918Y271289D01*
X130987Y271228D01*
X131817Y270700D01*
X131864Y270681D01*
X131945Y270638D01*
X132872Y270307D01*
X132922Y270299D01*
X133010Y270275D01*
X133963Y270162D01*
X134067Y270142D01*
X134071Y270142D01*
X134074Y270140D01*
X134262Y270134D01*
X135220Y270245D01*
G37*
D10*
X38100Y965200D03*
X965200Y762000D03*
X635000Y165100D03*
X38100Y38100D03*
D11*
X482600Y386715D03*
D12*
X482600Y412115D03*
D13*
X184785Y972312D02*
X159385Y972312D01*
X159385Y747268D02*
X184785Y747268D01*
X678815Y972312D02*
X704215Y972312D01*
X704215Y747268D02*
X678815Y747268D01*
D14*
X777240Y955040D03*
X777240Y929640D03*
X828675Y955040D03*
X828675Y929640D03*
D15*
X776605Y800100D03*
X776605Y901700D03*
X828040Y799465D03*
X828040Y901065D03*
D16*
X546100Y377340D03*
X546100Y357340D03*
X546100Y337340D03*
X546100Y317340D03*
X546100Y297340D03*
X546100Y277340D03*
X546100Y257340D03*
X546100Y237340D03*
D17*
X269875Y613855D02*
X269875Y626935D01*
X295275Y626935D02*
X295275Y613855D01*
X320675Y613855D02*
X320675Y626935D01*
X346075Y626935D02*
X346075Y613855D01*
X371475Y613855D02*
X371475Y626935D01*
X396875Y626935D02*
X396875Y613855D01*
X263715Y594995D02*
X250635Y594995D01*
X250635Y569595D02*
X263715Y569595D01*
X263715Y544195D02*
X250635Y544195D01*
X250635Y518795D02*
X263715Y518795D01*
X263715Y493395D02*
X250635Y493395D01*
X250635Y467995D02*
X263715Y467995D01*
X263715Y442595D02*
X250635Y442595D01*
X250635Y417195D02*
X263715Y417195D01*
X263715Y391795D02*
X250635Y391795D01*
X250635Y366395D02*
X263715Y366395D01*
X263715Y340995D02*
X250635Y340995D01*
X250635Y315595D02*
X263715Y315595D01*
X403035Y594995D02*
X416115Y594995D01*
X416115Y569595D02*
X403035Y569595D01*
X403035Y544195D02*
X416115Y544195D01*
X416115Y518795D02*
X403035Y518795D01*
X403035Y493395D02*
X416115Y493395D01*
X416115Y467995D02*
X403035Y467995D01*
X403035Y442595D02*
X416115Y442595D01*
X416115Y417195D02*
X403035Y417195D01*
X403035Y391795D02*
X416115Y391795D01*
X416115Y366395D02*
X403035Y366395D01*
X403035Y340995D02*
X416115Y340995D01*
X416115Y315595D02*
X403035Y315595D01*
X371475Y322135D02*
X371475Y309055D01*
X346075Y309055D02*
X346075Y322135D01*
X320675Y322135D02*
X320675Y309055D01*
D18*
X371475Y506095D03*
X371475Y480695D03*
D19*
X263300Y834300D03*
X263300Y893300D03*
X599300Y954300D03*
X599300Y774300D03*
D20*
X588899Y640715D02*
X575691Y640715D01*
X575691Y615315D02*
X588899Y615315D01*
X588899Y488315D02*
X575691Y488315D01*
X575691Y462915D02*
X588899Y462915D01*
X588899Y589915D02*
X575691Y589915D01*
X575691Y564515D02*
X588899Y564515D01*
X588899Y513715D02*
X575691Y513715D01*
X575691Y539115D02*
X588899Y539115D01*
X588899Y437515D02*
X575691Y437515D01*
X651891Y437515D02*
X665099Y437515D01*
X665099Y462915D02*
X651891Y462915D01*
X651891Y488315D02*
X665099Y488315D01*
X665099Y513715D02*
X651891Y513715D01*
X651891Y539115D02*
X665099Y539115D01*
X665099Y564515D02*
X651891Y564515D01*
X651891Y589915D02*
X665099Y589915D01*
X665099Y615315D02*
X651891Y615315D01*
X651891Y640715D02*
X665099Y640715D01*
D15*
X878840Y800735D03*
X878840Y902335D03*
X927100Y800100D03*
X927100Y901700D03*
D14*
X878840Y955675D03*
X878840Y930275D03*
X927100Y955675D03*
X927100Y930275D03*
D21*
X207010Y664845D03*
X105410Y664845D03*
D22*
X55880Y665480D03*
X81280Y665480D03*
D23*
X72073Y892810D02*
X93028Y892810D01*
X93028Y842010D02*
X72073Y842010D01*
D24*
X56642Y720090D02*
X42418Y720090D01*
X42418Y745490D02*
X56642Y745490D01*
D25*
X861120Y566180D03*
X741120Y686180D03*
X721120Y626180D03*
X861120Y686180D03*
X741120Y566180D03*
X861755Y392190D03*
X741755Y512190D03*
X721755Y452190D03*
X861755Y512190D03*
X741755Y392190D03*
X861755Y218835D03*
X741755Y338835D03*
X721755Y278835D03*
X861755Y338835D03*
X741755Y218835D03*
X861755Y46115D03*
X741755Y166115D03*
X721755Y106115D03*
X861755Y166115D03*
X741755Y46115D03*
D23*
X931863Y574675D02*
X952818Y574675D01*
X952818Y625475D02*
X931863Y625475D01*
X931863Y676275D02*
X952818Y676275D01*
X953453Y401955D02*
X932498Y401955D01*
X932498Y452755D02*
X953453Y452755D01*
X953453Y503555D02*
X932498Y503555D01*
X933133Y228600D02*
X954088Y228600D01*
X954088Y279400D02*
X933133Y279400D01*
X933133Y330200D02*
X954088Y330200D01*
X954088Y54610D02*
X933133Y54610D01*
X933133Y105410D02*
X954088Y105410D01*
X954088Y156210D02*
X933133Y156210D01*
D26*
X508000Y571500D03*
X850900Y838200D03*
X850900Y736600D03*
X457200Y317500D03*
M02*
