M48
;GenerationSoftware,Autodesk,EAGLE,9.4.2*%
;CreationDate,2019-07-31T19:16:38Z*%
FMAT,2
ICI,OFF
METRIC,TZ,000.000
T10C0.350
T9C0.800
T8C0.813
T7C0.900
T6C0.914
T5C1.016
T4C1.118
T3C1.321
T2C1.397
T1C3.500
%
G90
M71
T1
X3810Y96520
X72390Y96520
X3810Y3810
X72390Y3810
T2
X7620Y11430
X7620Y63500
X7620Y68580
X7620Y16510
T3
X12700Y97612
X63500Y97612
X63500Y75108
X12700Y75108
T4
X11430Y8890
X11430Y19050
T5
X9601Y37109
X3099Y37109
X9601Y41631
X3099Y41631
T6
X6350Y25400
X6350Y27940
X6350Y30480
T7
X29470Y7850
X17470Y19850
X15470Y13850
X29470Y19850
X17470Y7850
T8
X71120Y43180
X73660Y43180
X7620Y46990
X20320Y46990
X10160Y46990
X20320Y25400
X19050Y27305
X17780Y25400
X24130Y27940
X34290Y27940
X5080Y46990
T9
X30480Y59690
X30480Y57150
X30480Y54610
X30480Y52070
X30480Y49530
X30480Y46990
X30480Y44450
X30480Y41910
X30480Y39370
X30480Y36830
X30480Y34290
X45720Y62230
X45720Y59690
X69040Y38100
X45720Y54610
X45720Y52070
X45720Y49530
X45720Y46990
X45720Y44450
X45720Y41910
X45720Y39370
X45720Y36830
X45720Y34290
X41910Y34290
X39370Y34290
X36830Y34290
X41910Y53340
X41910Y50800
X21250Y83430
X21250Y89330
X54850Y95430
X54850Y77430
X35560Y16510
X35560Y13970
X53340Y16510
X53340Y13970
X35560Y11430
X35560Y19050
X53340Y19050
X35560Y21590
X53340Y21590
X35560Y8890
X53340Y8890
X35560Y24130
X53340Y24130
X35560Y6350
X53340Y6350
X73040Y38100
X71040Y38100
X67040Y38100
X45720Y57150
X65040Y38100
X63040Y38100
X61040Y38100
X59040Y38100
X31750Y64770
X34290Y64770
X36830Y64770
X39370Y64770
X41910Y64770
X44450Y64770
X30480Y62230
X53340Y11430
T10
X24130Y35560
M30