M48
;GenerationSoftware,Autodesk,EAGLE,9.3.1*%
;CreationDate,2019-07-21T13:05:44Z*%
FMAT,2
ICI,OFF
METRIC,TZ,000.000
T9C0.350
T8C0.800
T7C0.813
T6C0.900
T5C0.914
T4C1.016
T3C1.321
T2C1.397
T1C3.500
%
G90
M71
T1
X3810Y96520
X96520Y76200
X63500Y16510
X3810Y3810
T2
X94297Y50355
X94361Y5461
X94361Y33020
X94361Y27940
X94361Y10541
X94297Y45275
X94297Y40196
X94234Y67628
X94234Y57467
X94234Y62547
X94361Y22860
X8255Y89281
X8255Y84201
X94361Y15621
T3
X17209Y97231
X17209Y74727
X69152Y97231
X69152Y74727
T4
X6909Y39408
X13411Y39408
X13411Y34887
X6845Y46774
X13348Y46774
X6845Y42253
X13348Y42253
X13348Y50127
X6845Y50127
X6845Y54648
X6909Y27521
X13411Y32042
X13348Y54648
X13411Y27521
X6147Y62141
X6909Y34887
X12649Y62141
X6147Y57620
X12649Y57620
X6909Y32042
T5
X4953Y74549
X4953Y72009
T6
X74176Y39219
X86176Y51219
X72176Y45219
X74176Y51219
X86176Y39219
X72176Y27883
X86112Y68618
X72112Y62618
X74112Y68618
X86112Y56618
X74176Y4612
X86176Y16612
X72176Y10612
X74176Y16612
X86176Y4612
X74176Y21883
X86176Y33884
X74176Y33884
X86176Y21883
X74112Y56618
T7
X48260Y38672
X48260Y41212
X77724Y95504
X77724Y92964
X82868Y95504
X82868Y92964
X77661Y80010
X82804Y79947
X82804Y90106
X58229Y64071
X58229Y61531
X58229Y48831
X58229Y46291
X58229Y58991
X58229Y56451
X58229Y51371
X58229Y53911
X58229Y43751
X65850Y43751
X65850Y46291
X65850Y48831
X65850Y51371
X65850Y53911
X65850Y56451
X65850Y58991
X65850Y61531
X65850Y64071
X87884Y80074
X87884Y90233
X92710Y80010
X92710Y90170
X87884Y95567
X87884Y93027
X92710Y95567
X92710Y93027
X20701Y66485
X5588Y66548
X8128Y66548
X77661Y90170
X10541Y66485
T8
X40958Y39180
X40958Y41720
X40958Y46799
X59930Y77430
X59930Y95430
X26330Y89330
X26330Y83430
X37148Y48069
X40958Y44259
X37148Y50609
X32067Y31559
X34608Y31559
X40958Y49339
X37148Y31559
X40958Y31559
X40958Y51879
X40958Y54419
X40958Y56959
X40958Y59499
X25717Y31559
X25717Y34100
X25717Y36640
X25717Y39180
X25717Y41720
X25717Y44259
X25717Y46799
X25717Y49339
X25717Y51879
X25717Y54419
X25717Y56959
X25717Y59499
X37148Y62039
X39688Y62039
X34608Y62039
X32067Y62039
X29527Y62039
X26987Y62039
X54610Y23734
X54610Y25734
X54610Y27734
X54610Y29734
X54610Y31734
X54610Y33734
X54610Y35734
X54610Y37734
X40958Y34100
X40958Y36640
T9
X85090Y73660
X85090Y83820
X50800Y57150
X45720Y31750
M30