G04 EAGLE Gerber RS-274X export*
G75*
%MOMM*%
%FSLAX34Y34*%
%LPD*%
%INBottom Copper*%
%IPPOS*%
%AMOC8*
5,1,8,0,0,1.08239X$1,22.5*%
G01*
%ADD10P,1.732040X8X112.500000*%
%ADD11C,1.600200*%
%ADD12C,2.540000*%
%ADD13P,1.429621X8X112.500000*%
%ADD14P,1.429621X8X292.500000*%
%ADD15C,1.879600*%
%ADD16C,1.422400*%
%ADD17C,1.308000*%
%ADD18C,1.308000*%
%ADD19R,1.308000X1.308000*%
%ADD20C,1.320800*%
%ADD21P,1.429621X8X202.500000*%
%ADD22P,1.429621X8X22.500000*%
%ADD23C,2.095500*%
%ADD24C,1.422400*%
%ADD25C,1.408000*%
%ADD26C,0.254000*%
%ADD27C,1.016000*%
%ADD28C,0.756400*%


D10*
X419100Y343535D03*
D11*
X419100Y318135D03*
D12*
X647065Y751713D02*
X672465Y751713D01*
X672465Y976757D02*
X647065Y976757D01*
X153035Y751713D02*
X127635Y751713D01*
X127635Y976757D02*
X153035Y976757D01*
D13*
X549910Y670560D03*
X549910Y695960D03*
X549275Y499110D03*
X549275Y524510D03*
D14*
X550545Y647700D03*
X550545Y546100D03*
X549910Y476885D03*
X549910Y375285D03*
D15*
X184277Y501269D03*
X119253Y501269D03*
X184277Y546481D03*
X119253Y546481D03*
D16*
X370990Y317500D03*
X350990Y317500D03*
X330990Y317500D03*
X310990Y317500D03*
X290990Y317500D03*
X270990Y317500D03*
X250990Y317500D03*
X230990Y317500D03*
D17*
X238125Y696405D02*
X238125Y709485D01*
X263525Y709485D02*
X263525Y696405D01*
X288925Y696405D02*
X288925Y709485D01*
X314325Y709485D02*
X314325Y696405D01*
X339725Y696405D02*
X339725Y709485D01*
X365125Y709485D02*
X365125Y696405D01*
X231965Y677545D02*
X218885Y677545D01*
X218885Y652145D02*
X231965Y652145D01*
X231965Y626745D02*
X218885Y626745D01*
X218885Y601345D02*
X231965Y601345D01*
X231965Y575945D02*
X218885Y575945D01*
X218885Y550545D02*
X231965Y550545D01*
X231965Y525145D02*
X218885Y525145D01*
X218885Y499745D02*
X231965Y499745D01*
X231965Y474345D02*
X218885Y474345D01*
X218885Y448945D02*
X231965Y448945D01*
X231965Y423545D02*
X218885Y423545D01*
X218885Y398145D02*
X231965Y398145D01*
X371285Y677545D02*
X384365Y677545D01*
X384365Y652145D02*
X371285Y652145D01*
X371285Y626745D02*
X384365Y626745D01*
X384365Y601345D02*
X371285Y601345D01*
X371285Y575945D02*
X384365Y575945D01*
X384365Y550545D02*
X371285Y550545D01*
X371285Y525145D02*
X384365Y525145D01*
X384365Y499745D02*
X371285Y499745D01*
X371285Y474345D02*
X384365Y474345D01*
X384365Y448945D02*
X371285Y448945D01*
X371285Y423545D02*
X384365Y423545D01*
X384365Y398145D02*
X371285Y398145D01*
X339725Y404685D02*
X339725Y391605D01*
X314325Y391605D02*
X314325Y404685D01*
X288925Y404685D02*
X288925Y391605D01*
D18*
X339725Y588645D03*
X339725Y563245D03*
D19*
X555850Y896075D03*
X555850Y837075D03*
X219850Y776075D03*
X219850Y956075D03*
D20*
X416941Y577215D02*
X430149Y577215D01*
X430149Y551815D02*
X416941Y551815D01*
X416941Y424815D02*
X430149Y424815D01*
X430149Y399415D02*
X416941Y399415D01*
X416941Y526415D02*
X430149Y526415D01*
X430149Y501015D02*
X416941Y501015D01*
X416941Y450215D02*
X430149Y450215D01*
X430149Y475615D02*
X416941Y475615D01*
X416941Y374015D02*
X430149Y374015D01*
X493141Y374015D02*
X506349Y374015D01*
X506349Y399415D02*
X493141Y399415D01*
X493141Y424815D02*
X506349Y424815D01*
X506349Y450215D02*
X493141Y450215D01*
X493141Y475615D02*
X506349Y475615D01*
X506349Y501015D02*
X493141Y501015D01*
X493141Y526415D02*
X506349Y526415D01*
X506349Y551815D02*
X493141Y551815D01*
X493141Y577215D02*
X506349Y577215D01*
D15*
X184277Y371729D03*
X119253Y371729D03*
X184277Y416941D03*
X119253Y416941D03*
X184912Y247269D03*
X119888Y247269D03*
X184912Y292481D03*
X119888Y292481D03*
X184912Y122809D03*
X119888Y122809D03*
X184912Y168021D03*
X119888Y168021D03*
X164592Y626999D03*
X99568Y626999D03*
X164592Y672211D03*
X99568Y672211D03*
D14*
X549910Y297815D03*
X549910Y196215D03*
X552450Y127000D03*
X552450Y25400D03*
D13*
X549910Y320675D03*
X549910Y346075D03*
X552450Y149225D03*
X552450Y174625D03*
D21*
X194310Y702945D03*
X92710Y702945D03*
D22*
X17780Y703580D03*
X43180Y703580D03*
D23*
X780098Y834390D02*
X801053Y834390D01*
X801053Y885190D02*
X780098Y885190D01*
D24*
X51562Y882650D02*
X37338Y882650D01*
X37338Y857250D02*
X51562Y857250D01*
D25*
X737295Y594755D03*
X617295Y714755D03*
X597295Y654755D03*
X737295Y714755D03*
X617295Y594755D03*
X737930Y433465D03*
X617930Y553465D03*
X597930Y493465D03*
X737930Y553465D03*
X617930Y433465D03*
X737930Y269635D03*
X617930Y389635D03*
X597930Y329635D03*
X737930Y389635D03*
X617930Y269635D03*
X737930Y96915D03*
X617930Y216915D03*
X597930Y156915D03*
X737930Y216915D03*
X617930Y96915D03*
D23*
X782638Y625475D02*
X803593Y625475D01*
X803593Y676275D02*
X782638Y676275D01*
X782638Y727075D02*
X803593Y727075D01*
X804228Y452755D02*
X783273Y452755D01*
X783273Y503555D02*
X804228Y503555D01*
X804228Y554355D02*
X783273Y554355D01*
X783908Y279400D02*
X804863Y279400D01*
X804863Y330200D02*
X783908Y330200D01*
X783908Y381000D02*
X804863Y381000D01*
X804863Y105410D02*
X783908Y105410D01*
X783908Y156210D02*
X804863Y156210D01*
X804863Y207010D02*
X783908Y207010D01*
X73978Y546100D02*
X53023Y546100D01*
X53023Y495300D02*
X73978Y495300D01*
X73978Y419100D02*
X53023Y419100D01*
X53023Y368300D02*
X73978Y368300D01*
X73978Y292100D02*
X53023Y292100D01*
X53023Y241300D02*
X73978Y241300D01*
X73978Y165100D02*
X53023Y165100D01*
X53023Y114300D02*
X73978Y114300D01*
D26*
X377825Y575945D02*
X379095Y577215D01*
X423545Y577215D01*
X379095Y551815D02*
X377825Y550545D01*
X379095Y551815D02*
X423545Y551815D01*
X379095Y526415D02*
X377825Y525145D01*
X379095Y526415D02*
X423545Y526415D01*
X422275Y499745D02*
X377825Y499745D01*
X422275Y499745D02*
X423545Y501015D01*
X350990Y331940D02*
X350990Y317500D01*
X362585Y343535D02*
X419100Y343535D01*
X362585Y343535D02*
X350990Y331940D01*
X423545Y347980D02*
X423545Y374015D01*
X423545Y347980D02*
X419100Y343535D01*
X258445Y601345D02*
X225425Y601345D01*
X309245Y652145D02*
X377825Y652145D01*
X309245Y652145D02*
X258445Y601345D01*
X377825Y652145D02*
X410845Y652145D01*
X44450Y882650D02*
X25400Y882650D01*
X17780Y875030D02*
X17780Y703580D01*
X17780Y875030D02*
X25400Y882650D01*
X161925Y601345D02*
X225425Y601345D01*
X161925Y601345D02*
X46355Y601345D01*
X17780Y629920D02*
X17780Y703580D01*
X17780Y629920D02*
X46355Y601345D01*
X164592Y604012D02*
X164592Y626999D01*
X164592Y604012D02*
X161925Y601345D01*
X46355Y601345D02*
X22225Y577215D01*
X22225Y127000D02*
X34925Y114300D01*
X63500Y114300D01*
X22225Y508000D02*
X22225Y577215D01*
X22225Y508000D02*
X22225Y381000D01*
X22225Y254000D01*
X22225Y127000D01*
X34925Y241300D02*
X63500Y241300D01*
X34925Y241300D02*
X22225Y254000D01*
X34925Y368300D02*
X63500Y368300D01*
X34925Y368300D02*
X22225Y381000D01*
X60325Y495300D02*
X63500Y495300D01*
X60325Y495300D02*
X34925Y495300D01*
X22225Y508000D01*
X63500Y111125D02*
X79375Y95250D01*
X63500Y111125D02*
X63500Y114300D01*
X79375Y95250D02*
X158750Y95250D01*
X184912Y121412D02*
X184912Y122809D01*
X184912Y121412D02*
X158750Y95250D01*
X82550Y222250D02*
X63500Y241300D01*
X82550Y222250D02*
X161925Y222250D01*
X184912Y245237D02*
X184912Y247269D01*
X184912Y245237D02*
X161925Y222250D01*
X79375Y352425D02*
X63500Y368300D01*
X79375Y352425D02*
X165100Y352425D01*
X184277Y371602D02*
X184277Y371729D01*
X184277Y371602D02*
X165100Y352425D01*
X162433Y479425D02*
X184277Y501269D01*
X76200Y479425D02*
X60325Y495300D01*
X76200Y479425D02*
X162433Y479425D01*
X350990Y317500D02*
X316065Y282575D01*
X241300Y282575D01*
X231775Y273050D01*
X214884Y122809D02*
X184912Y122809D01*
X231775Y139700D02*
X231775Y273050D01*
X231775Y139700D02*
X214884Y122809D01*
X410845Y652145D02*
X441325Y682625D01*
X441325Y730250D01*
X395500Y776075D01*
X219850Y776075D01*
X63500Y546100D02*
X82550Y527050D01*
X164846Y527050D01*
X184277Y546481D01*
X196469Y546481D01*
X203200Y539750D02*
X203200Y508000D01*
X211455Y499745D01*
X225425Y499745D01*
X203200Y539750D02*
X196469Y546481D01*
X63500Y419100D02*
X82550Y400050D01*
X167386Y400050D02*
X184277Y416941D01*
X167386Y400050D02*
X82550Y400050D01*
X204470Y474345D02*
X225425Y474345D01*
X184277Y454152D02*
X184277Y416941D01*
X184277Y454152D02*
X204470Y474345D01*
X63500Y292100D02*
X82550Y273050D01*
X165481Y273050D01*
X184341Y291910D01*
X184912Y292481D01*
X213995Y448945D02*
X225425Y448945D01*
X213995Y448945D02*
X203200Y438150D01*
X193485Y291910D02*
X184341Y291910D01*
X203200Y301625D02*
X203200Y438150D01*
X203200Y301625D02*
X193485Y291910D01*
X63500Y165100D02*
X79375Y149225D01*
X166116Y149225D01*
X184912Y168021D01*
X215900Y199009D01*
X215900Y346075D02*
X225425Y355600D01*
X225425Y398145D01*
X215900Y346075D02*
X215900Y199009D01*
X92075Y703580D02*
X43180Y703580D01*
X92075Y703580D02*
X92710Y702945D01*
X550545Y546100D02*
X599200Y594755D01*
X617295Y594755D01*
X501015Y375285D02*
X499745Y374015D01*
X501015Y375285D02*
X549910Y375285D01*
X617930Y264235D02*
X549910Y196215D01*
X617930Y264235D02*
X617930Y269635D01*
X617930Y90880D02*
X552450Y25400D01*
X617930Y90880D02*
X617930Y96915D01*
X140335Y751713D02*
X140335Y788035D01*
X219850Y867550D02*
X219850Y956075D01*
X219850Y867550D02*
X140335Y788035D01*
D27*
X605282Y976757D02*
X659765Y976757D01*
X555850Y927325D02*
X555850Y896075D01*
X555850Y927325D02*
X605282Y976757D01*
D26*
X371625Y318135D02*
X370990Y317500D01*
X371625Y318135D02*
X419100Y318135D01*
X427355Y601345D02*
X377825Y601345D01*
X427355Y601345D02*
X444500Y584200D01*
X444500Y330200D02*
X431800Y317500D01*
X419735Y317500D01*
X419100Y318135D01*
X444500Y330200D02*
X444500Y584200D01*
X240030Y575945D02*
X225425Y575945D01*
X250990Y564985D02*
X250990Y317500D01*
X250990Y564985D02*
X240030Y575945D01*
X330990Y343690D02*
X330990Y317500D01*
X355600Y401320D02*
X377825Y423545D01*
X355600Y368300D02*
X330990Y343690D01*
X355600Y368300D02*
X355600Y401320D01*
X360045Y448945D02*
X377825Y448945D01*
X327025Y415925D02*
X327025Y368300D01*
X304800Y346075D01*
X295275Y346075D01*
X290990Y341790D01*
X290990Y317500D01*
X327025Y415925D02*
X360045Y448945D01*
D27*
X704215Y834390D02*
X790575Y834390D01*
X659765Y789940D02*
X659765Y751713D01*
X659765Y789940D02*
X704215Y834390D01*
X662940Y885190D02*
X790575Y885190D01*
X614825Y837075D02*
X555850Y837075D01*
X614825Y837075D02*
X662940Y885190D01*
D26*
X225425Y550545D02*
X214630Y550545D01*
X184150Y581025D01*
X146050Y581025D01*
D28*
X146050Y581025D03*
D26*
X565785Y711835D02*
X566750Y711835D01*
X565785Y711835D02*
X549910Y695960D01*
X569670Y714755D02*
X617295Y714755D01*
X569670Y714755D02*
X566750Y711835D01*
X499745Y668020D02*
X499745Y577215D01*
X527685Y695960D02*
X549910Y695960D01*
X527685Y695960D02*
X499745Y668020D01*
X549275Y524510D02*
X588975Y524510D01*
X617930Y553465D01*
X505460Y551815D02*
X499745Y551815D01*
X505460Y551815D02*
X533400Y523875D01*
X548640Y523875D01*
X549275Y524510D01*
X511810Y526415D02*
X499745Y526415D01*
X533400Y504825D02*
X533400Y444500D01*
X558800Y419100D01*
X533400Y504825D02*
X511810Y526415D01*
X558800Y419100D02*
X587375Y419100D01*
X574370Y346075D02*
X549910Y346075D01*
X574370Y346075D02*
X617930Y389635D01*
X616840Y389635D01*
X587375Y419100D01*
X575640Y174625D02*
X552450Y174625D01*
X575640Y174625D02*
X617930Y216915D01*
X499745Y501015D02*
X481965Y501015D01*
X476250Y495300D01*
X476250Y193675D01*
X495300Y174625D02*
X552450Y174625D01*
X495300Y174625D02*
X476250Y193675D01*
X550545Y647700D02*
X550545Y669925D01*
X549910Y670560D01*
X549275Y499110D02*
X549910Y498475D01*
X549910Y476885D01*
X549910Y320675D02*
X549910Y297815D01*
X552450Y149225D02*
X552450Y127000D01*
M02*
