G04 EAGLE Gerber RS-274X export*
G75*
%MOMM*%
%FSLAX34Y34*%
%LPD*%
%IN*%
%IPPOS*%
%AMOC8*
5,1,8,0,0,1.08239X$1,22.5*%
G01*
%ADD10C,0.254000*%


D10*
X0Y0D02*
X863400Y0D01*
X863400Y1000000D01*
X0Y1000000D01*
X0Y0D01*
X61950Y964627D02*
X61875Y963484D01*
X61726Y962348D01*
X61502Y961224D01*
X61205Y960117D01*
X60837Y959032D01*
X60399Y957974D01*
X59892Y956946D01*
X59319Y955954D01*
X58682Y955001D01*
X57985Y954092D01*
X57229Y953231D01*
X56419Y952421D01*
X55558Y951665D01*
X54649Y950968D01*
X53696Y950331D01*
X52704Y949758D01*
X51676Y949251D01*
X50618Y948813D01*
X49533Y948445D01*
X48426Y948148D01*
X47302Y947925D01*
X46166Y947775D01*
X45023Y947700D01*
X43877Y947700D01*
X42734Y947775D01*
X41598Y947925D01*
X40474Y948148D01*
X39367Y948445D01*
X38282Y948813D01*
X37224Y949251D01*
X36196Y949758D01*
X35204Y950331D01*
X34251Y950968D01*
X33342Y951665D01*
X32481Y952421D01*
X31671Y953231D01*
X30915Y954092D01*
X30218Y955001D01*
X29581Y955954D01*
X29008Y956946D01*
X28501Y957974D01*
X28063Y959032D01*
X27695Y960117D01*
X27398Y961224D01*
X27175Y962348D01*
X27025Y963484D01*
X26950Y964627D01*
X26950Y965773D01*
X27025Y966916D01*
X27175Y968052D01*
X27398Y969176D01*
X27695Y970283D01*
X28063Y971368D01*
X28501Y972426D01*
X29008Y973454D01*
X29581Y974446D01*
X30218Y975399D01*
X30915Y976308D01*
X31671Y977169D01*
X32481Y977979D01*
X33342Y978735D01*
X34251Y979432D01*
X35204Y980069D01*
X36196Y980642D01*
X37224Y981149D01*
X38282Y981587D01*
X39367Y981955D01*
X40474Y982252D01*
X41598Y982476D01*
X42734Y982625D01*
X43877Y982700D01*
X45023Y982700D01*
X46166Y982625D01*
X47302Y982476D01*
X48426Y982252D01*
X49533Y981955D01*
X50618Y981587D01*
X51676Y981149D01*
X52704Y980642D01*
X53696Y980069D01*
X54649Y979432D01*
X55558Y978735D01*
X56419Y977979D01*
X57229Y977169D01*
X57985Y976308D01*
X58682Y975399D01*
X59319Y974446D01*
X59892Y973454D01*
X60399Y972426D01*
X60837Y971368D01*
X61205Y970283D01*
X61502Y969176D01*
X61726Y968052D01*
X61875Y966916D01*
X61950Y965773D01*
X61950Y964627D01*
X830300Y964627D02*
X830225Y963484D01*
X830076Y962348D01*
X829852Y961224D01*
X829555Y960117D01*
X829187Y959032D01*
X828749Y957974D01*
X828242Y956946D01*
X827669Y955954D01*
X827032Y955001D01*
X826335Y954092D01*
X825579Y953231D01*
X824769Y952421D01*
X823908Y951665D01*
X822999Y950968D01*
X822046Y950331D01*
X821054Y949758D01*
X820026Y949251D01*
X818968Y948813D01*
X817883Y948445D01*
X816776Y948148D01*
X815652Y947925D01*
X814516Y947775D01*
X813373Y947700D01*
X812227Y947700D01*
X811084Y947775D01*
X809948Y947925D01*
X808824Y948148D01*
X807717Y948445D01*
X806632Y948813D01*
X805574Y949251D01*
X804546Y949758D01*
X803554Y950331D01*
X802601Y950968D01*
X801692Y951665D01*
X800831Y952421D01*
X800021Y953231D01*
X799265Y954092D01*
X798568Y955001D01*
X797931Y955954D01*
X797358Y956946D01*
X796851Y957974D01*
X796413Y959032D01*
X796045Y960117D01*
X795748Y961224D01*
X795525Y962348D01*
X795375Y963484D01*
X795300Y964627D01*
X795300Y965773D01*
X795375Y966916D01*
X795525Y968052D01*
X795748Y969176D01*
X796045Y970283D01*
X796413Y971368D01*
X796851Y972426D01*
X797358Y973454D01*
X797931Y974446D01*
X798568Y975399D01*
X799265Y976308D01*
X800021Y977169D01*
X800831Y977979D01*
X801692Y978735D01*
X802601Y979432D01*
X803554Y980069D01*
X804546Y980642D01*
X805574Y981149D01*
X806632Y981587D01*
X807717Y981955D01*
X808824Y982252D01*
X809948Y982476D01*
X811084Y982625D01*
X812227Y982700D01*
X813373Y982700D01*
X814516Y982625D01*
X815652Y982476D01*
X816776Y982252D01*
X817883Y981955D01*
X818968Y981587D01*
X820026Y981149D01*
X821054Y980642D01*
X822046Y980069D01*
X822999Y979432D01*
X823908Y978735D01*
X824769Y977979D01*
X825579Y977169D01*
X826335Y976308D01*
X827032Y975399D01*
X827669Y974446D01*
X828242Y973454D01*
X828749Y972426D01*
X829187Y971368D01*
X829555Y970283D01*
X829852Y969176D01*
X830076Y968052D01*
X830225Y966916D01*
X830300Y965773D01*
X830300Y964627D01*
X836650Y37527D02*
X836575Y36384D01*
X836426Y35248D01*
X836202Y34124D01*
X835905Y33017D01*
X835537Y31932D01*
X835099Y30874D01*
X834592Y29846D01*
X834019Y28854D01*
X833382Y27901D01*
X832685Y26992D01*
X831929Y26131D01*
X831119Y25321D01*
X830258Y24565D01*
X829349Y23868D01*
X828396Y23231D01*
X827404Y22658D01*
X826376Y22151D01*
X825318Y21713D01*
X824233Y21345D01*
X823126Y21048D01*
X822002Y20825D01*
X820866Y20675D01*
X819723Y20600D01*
X818577Y20600D01*
X817434Y20675D01*
X816298Y20825D01*
X815174Y21048D01*
X814067Y21345D01*
X812982Y21713D01*
X811924Y22151D01*
X810896Y22658D01*
X809904Y23231D01*
X808951Y23868D01*
X808042Y24565D01*
X807181Y25321D01*
X806371Y26131D01*
X805615Y26992D01*
X804918Y27901D01*
X804281Y28854D01*
X803708Y29846D01*
X803201Y30874D01*
X802763Y31932D01*
X802395Y33017D01*
X802098Y34124D01*
X801875Y35248D01*
X801725Y36384D01*
X801650Y37527D01*
X801650Y38673D01*
X801725Y39816D01*
X801875Y40952D01*
X802098Y42076D01*
X802395Y43183D01*
X802763Y44268D01*
X803201Y45326D01*
X803708Y46354D01*
X804281Y47346D01*
X804918Y48299D01*
X805615Y49208D01*
X806371Y50069D01*
X807181Y50879D01*
X808042Y51635D01*
X808951Y52332D01*
X809904Y52969D01*
X810896Y53542D01*
X811924Y54049D01*
X812982Y54487D01*
X814067Y54855D01*
X815174Y55152D01*
X816298Y55376D01*
X817434Y55525D01*
X818577Y55600D01*
X819723Y55600D01*
X820866Y55525D01*
X822002Y55376D01*
X823126Y55152D01*
X824233Y54855D01*
X825318Y54487D01*
X826376Y54049D01*
X827404Y53542D01*
X828396Y52969D01*
X829349Y52332D01*
X830258Y51635D01*
X831119Y50879D01*
X831929Y50069D01*
X832685Y49208D01*
X833382Y48299D01*
X834019Y47346D01*
X834592Y46354D01*
X835099Y45326D01*
X835537Y44268D01*
X835905Y43183D01*
X836202Y42076D01*
X836426Y40952D01*
X836575Y39816D01*
X836650Y38673D01*
X836650Y37527D01*
X61950Y37527D02*
X61875Y36384D01*
X61726Y35248D01*
X61502Y34124D01*
X61205Y33017D01*
X60837Y31932D01*
X60399Y30874D01*
X59892Y29846D01*
X59319Y28854D01*
X58682Y27901D01*
X57985Y26992D01*
X57229Y26131D01*
X56419Y25321D01*
X55558Y24565D01*
X54649Y23868D01*
X53696Y23231D01*
X52704Y22658D01*
X51676Y22151D01*
X50618Y21713D01*
X49533Y21345D01*
X48426Y21048D01*
X47302Y20825D01*
X46166Y20675D01*
X45023Y20600D01*
X43877Y20600D01*
X42734Y20675D01*
X41598Y20825D01*
X40474Y21048D01*
X39367Y21345D01*
X38282Y21713D01*
X37224Y22151D01*
X36196Y22658D01*
X35204Y23231D01*
X34251Y23868D01*
X33342Y24565D01*
X32481Y25321D01*
X31671Y26131D01*
X30915Y26992D01*
X30218Y27901D01*
X29581Y28854D01*
X29008Y29846D01*
X28501Y30874D01*
X28063Y31932D01*
X27695Y33017D01*
X27398Y34124D01*
X27175Y35248D01*
X27025Y36384D01*
X26950Y37527D01*
X26950Y38673D01*
X27025Y39816D01*
X27175Y40952D01*
X27398Y42076D01*
X27695Y43183D01*
X28063Y44268D01*
X28501Y45326D01*
X29008Y46354D01*
X29581Y47346D01*
X30218Y48299D01*
X30915Y49208D01*
X31671Y50069D01*
X32481Y50879D01*
X33342Y51635D01*
X34251Y52332D01*
X35204Y52969D01*
X36196Y53542D01*
X37224Y54049D01*
X38282Y54487D01*
X39367Y54855D01*
X40474Y55152D01*
X41598Y55376D01*
X42734Y55525D01*
X43877Y55600D01*
X45023Y55600D01*
X46166Y55525D01*
X47302Y55376D01*
X48426Y55152D01*
X49533Y54855D01*
X50618Y54487D01*
X51676Y54049D01*
X52704Y53542D01*
X53696Y52969D01*
X54649Y52332D01*
X55558Y51635D01*
X56419Y50879D01*
X57229Y50069D01*
X57985Y49208D01*
X58682Y48299D01*
X59319Y47346D01*
X59892Y46354D01*
X60399Y45326D01*
X60837Y44268D01*
X61205Y43183D01*
X61502Y42076D01*
X61726Y40952D01*
X61875Y39816D01*
X61950Y38673D01*
X61950Y37527D01*
M02*
