G04 EAGLE Gerber RS-274X export*
G75*
%MOMM*%
%FSLAX34Y34*%
%LPD*%
%INTop Copper*%
%IPPOS*%
%AMOC8*
5,1,8,0,0,1.08239X$1,22.5*%
G01*
%ADD10C,2.540000*%
%ADD11R,1.308000X1.308000*%
%ADD12C,2.095500*%
%ADD13C,1.408000*%
%ADD14P,1.429621X8X22.500000*%
%ADD15C,1.676400*%
%ADD16P,1.429621X8X292.500000*%
%ADD17R,0.609600X2.209800*%
%ADD18P,1.429621X8X202.500000*%
%ADD19P,1.429621X8X112.500000*%
%ADD20C,1.320800*%
%ADD21C,1.320800*%
%ADD22C,1.879600*%
%ADD23C,1.422400*%
%ADD24P,1.732040X8X202.500000*%
%ADD25C,1.600200*%
%ADD26C,1.422400*%
%ADD27C,1.879600*%
%ADD28C,0.756400*%
%ADD29C,0.254000*%
%ADD30C,1.270000*%


D10*
X27178Y165100D02*
X27178Y190500D01*
X252222Y190500D02*
X252222Y165100D01*
X252222Y673100D02*
X252222Y698500D01*
X27178Y698500D02*
X27178Y673100D01*
D11*
X169000Y263300D03*
X110000Y263300D03*
X49000Y599300D03*
X229000Y599300D03*
D12*
X114300Y86678D02*
X114300Y65723D01*
X165100Y65723D02*
X165100Y86678D01*
D13*
X340300Y239000D03*
X460300Y119000D03*
X480300Y179000D03*
X340300Y119000D03*
X460300Y239000D03*
D14*
X584200Y101600D03*
X571500Y120650D03*
X558800Y101600D03*
D15*
X558800Y139700D03*
X558800Y241300D03*
D16*
X584200Y482600D03*
X584200Y381000D03*
D17*
X499110Y347218D03*
X511810Y347218D03*
X524510Y347218D03*
X537210Y347218D03*
X537210Y399542D03*
X524510Y399542D03*
X511810Y399542D03*
X499110Y399542D03*
D12*
X330200Y86678D02*
X330200Y65723D01*
X381000Y65723D02*
X381000Y86678D01*
X431800Y86678D02*
X431800Y65723D01*
D18*
X609600Y38100D03*
X508000Y38100D03*
D19*
X635000Y76200D03*
X635000Y177800D03*
D16*
X673100Y177800D03*
X673100Y76200D03*
D19*
X673100Y203200D03*
X673100Y304800D03*
D16*
X635000Y304800D03*
X635000Y203200D03*
D19*
X635000Y330200D03*
X635000Y431800D03*
D16*
X673100Y431800D03*
X673100Y330200D03*
D18*
X685800Y457200D03*
X635000Y457200D03*
D16*
X520700Y254000D03*
X520700Y152400D03*
D18*
X457200Y279400D03*
X355600Y279400D03*
D14*
X495300Y292100D03*
X546100Y292100D03*
D19*
X457200Y304800D03*
X457200Y355600D03*
D20*
X400304Y939800D02*
X387096Y939800D01*
X387096Y914400D02*
X400304Y914400D01*
X400304Y889000D02*
X387096Y889000D01*
X387096Y863600D02*
X400304Y863600D01*
X400304Y838200D02*
X387096Y838200D01*
X387096Y812800D02*
X400304Y812800D01*
X400304Y787400D02*
X387096Y787400D01*
X387096Y762000D02*
X400304Y762000D01*
X400304Y736600D02*
X387096Y736600D01*
X387096Y711200D02*
X400304Y711200D01*
X400304Y685800D02*
X387096Y685800D01*
X387096Y660400D02*
X400304Y660400D01*
X400304Y635000D02*
X387096Y635000D01*
X387096Y609600D02*
X400304Y609600D01*
X400304Y584200D02*
X387096Y584200D01*
X387096Y558800D02*
X400304Y558800D01*
X400304Y533400D02*
X387096Y533400D01*
X387096Y508000D02*
X400304Y508000D01*
X400304Y482600D02*
X387096Y482600D01*
X387096Y457200D02*
X400304Y457200D01*
X539496Y457200D02*
X552704Y457200D01*
X552704Y482600D02*
X539496Y482600D01*
X539496Y508000D02*
X552704Y508000D01*
X552704Y533400D02*
X539496Y533400D01*
X539496Y558800D02*
X552704Y558800D01*
X552704Y584200D02*
X539496Y584200D01*
X539496Y609600D02*
X552704Y609600D01*
X552704Y635000D02*
X539496Y635000D01*
X539496Y660400D02*
X552704Y660400D01*
X552704Y685800D02*
X539496Y685800D01*
X539496Y711200D02*
X552704Y711200D01*
X552704Y736600D02*
X539496Y736600D01*
X539496Y762000D02*
X552704Y762000D01*
X552704Y787400D02*
X539496Y787400D01*
X539496Y812800D02*
X552704Y812800D01*
X552704Y838200D02*
X539496Y838200D01*
X539496Y863600D02*
X552704Y863600D01*
X552704Y889000D02*
X539496Y889000D01*
X539496Y914400D02*
X552704Y914400D01*
X552704Y939800D02*
X539496Y939800D01*
D21*
X304800Y623570D03*
X304800Y671830D03*
D16*
X292100Y749300D03*
X292100Y723900D03*
D19*
X292100Y539750D03*
X292100Y565150D03*
D14*
X292100Y393700D03*
X393700Y393700D03*
D19*
X317500Y723900D03*
X317500Y749300D03*
X419100Y368300D03*
X419100Y393700D03*
D22*
X419100Y326898D02*
X419100Y308102D01*
X393700Y308102D02*
X393700Y326898D01*
X368300Y326898D02*
X368300Y308102D01*
X342900Y308102D02*
X342900Y326898D01*
X317500Y326898D02*
X317500Y308102D01*
X292100Y308102D02*
X292100Y326898D01*
D23*
X299212Y444500D02*
X284988Y444500D01*
X284988Y469900D02*
X299212Y469900D01*
X299212Y495300D02*
X284988Y495300D01*
D24*
X177800Y774700D03*
D25*
X203200Y774700D03*
D26*
X197000Y812800D03*
X177000Y812800D03*
X157000Y812800D03*
X137000Y812800D03*
X117000Y812800D03*
X97000Y812800D03*
X77000Y812800D03*
X57000Y812800D03*
D27*
X311912Y815594D03*
X246888Y815594D03*
X311912Y860806D03*
X246888Y860806D03*
D18*
X304800Y914400D03*
X203200Y914400D03*
D14*
X152400Y901700D03*
X177800Y901700D03*
X152400Y965200D03*
X177800Y965200D03*
D18*
X304800Y952500D03*
X203200Y952500D03*
D28*
X101600Y844550D03*
D29*
X69850Y844550D01*
X63500Y838200D01*
D28*
X63500Y838200D03*
D29*
X137000Y822800D02*
X137000Y812800D01*
X137000Y822800D02*
X146050Y831850D01*
X330200Y831850D01*
X355600Y806450D02*
X355600Y774700D01*
X368300Y762000D01*
X393700Y762000D01*
X355600Y806450D02*
X330200Y831850D01*
X514350Y508000D02*
X546100Y508000D01*
X514350Y508000D02*
X499110Y492760D01*
X499110Y399542D01*
X488950Y533400D02*
X546100Y533400D01*
X488950Y533400D02*
X476250Y520700D01*
X476250Y393700D02*
X488950Y381000D01*
X508000Y381000D01*
X511810Y384810D01*
X511810Y399542D01*
X476250Y393700D02*
X476250Y520700D01*
X546100Y558800D02*
X565150Y539750D01*
X546100Y425450D02*
X533400Y425450D01*
X524510Y416560D01*
X524510Y399542D01*
X565150Y444500D02*
X565150Y539750D01*
X565150Y444500D02*
X546100Y425450D01*
D30*
X370600Y239000D02*
X340300Y239000D01*
X370600Y239000D02*
X381000Y228600D01*
X381000Y152400D01*
X393700Y139700D01*
X419100Y139700D01*
X431800Y127000D01*
X431800Y76200D01*
D29*
X537210Y347218D02*
X558800Y368808D01*
X558800Y412750D01*
X577850Y431800D01*
X635000Y431800D01*
X495300Y304800D02*
X495300Y292100D01*
X511810Y321310D02*
X511810Y347218D01*
X511810Y321310D02*
X495300Y304800D01*
X488950Y273050D02*
X457200Y304800D01*
X488950Y273050D02*
X508000Y273050D01*
X524510Y289560D01*
X524510Y347218D01*
X77978Y736600D02*
X27178Y685800D01*
X77978Y736600D02*
X304800Y736600D01*
X317500Y749300D01*
X330200Y749300D01*
X368300Y711200D01*
X393700Y711200D01*
X368300Y711200D02*
X368300Y596900D01*
X330200Y558800D02*
X330200Y463550D01*
X311150Y444500D01*
X292100Y444500D01*
X330200Y558800D02*
X368300Y596900D01*
X499110Y347218D02*
X475742Y323850D01*
X450850Y323850D01*
X438150Y311150D01*
X438150Y298450D01*
X419500Y279800D01*
X419100Y279400D01*
D28*
X419500Y279800D03*
D29*
X203200Y806600D02*
X197000Y812800D01*
X203200Y806600D02*
X203200Y774700D01*
X482600Y711200D02*
X546100Y711200D01*
X482600Y711200D02*
X457200Y685800D01*
X393700Y685800D01*
X311912Y800862D02*
X311912Y815594D01*
X311912Y800862D02*
X292100Y781050D01*
D28*
X292100Y781050D03*
D29*
X266700Y527050D02*
X266700Y482600D01*
X266700Y527050D02*
X279400Y539750D01*
X292100Y539750D01*
X355600Y603250D01*
X355600Y685800D01*
D28*
X355600Y685800D03*
D29*
X317500Y317500D02*
X292100Y317500D01*
X317500Y317500D02*
X317500Y336550D01*
X450850Y349250D02*
X457200Y355600D01*
X330200Y349250D02*
X317500Y336550D01*
X330200Y349250D02*
X450850Y349250D01*
X292100Y469900D02*
X279400Y469900D01*
X266700Y482600D01*
X279400Y469900D02*
X266700Y457200D01*
X266700Y342900D01*
X292100Y317500D01*
X537210Y384810D02*
X537210Y399542D01*
X520700Y368300D02*
X469900Y368300D01*
X457200Y355600D01*
X520700Y368300D02*
X537210Y384810D01*
X628650Y374650D02*
X546100Y292100D01*
X628650Y374650D02*
X660400Y374650D01*
X673100Y387350D01*
X673100Y431800D01*
M02*
