G04 EAGLE Gerber RS-274X export*
G75*
%MOMM*%
%FSLAX34Y34*%
%LPD*%
%INTop Copper*%
%IPPOS*%
%AMOC8*
5,1,8,0,0,1.08239X$1,22.5*%
G01*
%ADD10C,0.304800*%
%ADD11C,0.152400*%
%ADD12P,1.732040X8X22.500000*%
%ADD13C,1.600200*%
%ADD14C,2.540000*%
%ADD15P,1.429621X8X292.500000*%
%ADD16P,1.429621X8X112.500000*%
%ADD17C,1.879600*%
%ADD18C,1.422400*%
%ADD19C,1.308000*%
%ADD20C,1.308000*%
%ADD21R,1.308000X1.308000*%
%ADD22C,1.320800*%
%ADD23P,1.429621X8X202.500000*%
%ADD24P,1.429621X8X22.500000*%
%ADD25C,2.095500*%
%ADD26C,1.422400*%
%ADD27C,1.408000*%
%ADD28C,1.016000*%
%ADD29C,0.756400*%


D10*
X797594Y65024D02*
X797594Y100076D01*
X797594Y84497D02*
X817067Y84497D01*
X817067Y100076D02*
X817067Y65024D01*
X828004Y84497D02*
X837740Y84497D01*
X837740Y84498D02*
X837977Y84495D01*
X838214Y84486D01*
X838451Y84472D01*
X838687Y84452D01*
X838923Y84426D01*
X839158Y84394D01*
X839392Y84357D01*
X839625Y84314D01*
X839857Y84265D01*
X840088Y84211D01*
X840317Y84151D01*
X840545Y84085D01*
X840771Y84014D01*
X840996Y83938D01*
X841218Y83856D01*
X841439Y83768D01*
X841657Y83675D01*
X841873Y83577D01*
X842086Y83474D01*
X842297Y83366D01*
X842505Y83252D01*
X842711Y83134D01*
X842913Y83010D01*
X843113Y82882D01*
X843309Y82748D01*
X843502Y82610D01*
X843691Y82468D01*
X843877Y82321D01*
X844059Y82169D01*
X844238Y82013D01*
X844412Y81852D01*
X844583Y81688D01*
X844750Y81519D01*
X844912Y81347D01*
X845070Y81170D01*
X845224Y80989D01*
X845374Y80805D01*
X845519Y80618D01*
X845659Y80427D01*
X845795Y80232D01*
X845925Y80034D01*
X846051Y79833D01*
X846172Y79630D01*
X846289Y79423D01*
X846400Y79213D01*
X846505Y79001D01*
X846606Y78786D01*
X846701Y78569D01*
X846791Y78350D01*
X846876Y78128D01*
X846955Y77905D01*
X847029Y77680D01*
X847098Y77452D01*
X847160Y77224D01*
X847218Y76994D01*
X847269Y76762D01*
X847315Y76530D01*
X847355Y76296D01*
X847390Y76061D01*
X847419Y75826D01*
X847442Y75590D01*
X847459Y75353D01*
X847471Y75117D01*
X847476Y74880D01*
X847476Y74642D01*
X847471Y74405D01*
X847459Y74169D01*
X847442Y73932D01*
X847419Y73696D01*
X847390Y73461D01*
X847355Y73226D01*
X847315Y72992D01*
X847269Y72760D01*
X847218Y72528D01*
X847160Y72298D01*
X847098Y72070D01*
X847029Y71842D01*
X846955Y71617D01*
X846876Y71394D01*
X846791Y71172D01*
X846701Y70953D01*
X846606Y70736D01*
X846505Y70521D01*
X846400Y70309D01*
X846289Y70099D01*
X846172Y69893D01*
X846051Y69689D01*
X845925Y69488D01*
X845795Y69290D01*
X845659Y69095D01*
X845519Y68904D01*
X845374Y68717D01*
X845224Y68533D01*
X845070Y68352D01*
X844912Y68175D01*
X844750Y68003D01*
X844583Y67834D01*
X844412Y67670D01*
X844238Y67509D01*
X844059Y67353D01*
X843877Y67201D01*
X843691Y67054D01*
X843502Y66912D01*
X843309Y66774D01*
X843113Y66640D01*
X842913Y66512D01*
X842711Y66388D01*
X842505Y66270D01*
X842297Y66156D01*
X842086Y66048D01*
X841873Y65945D01*
X841657Y65847D01*
X841439Y65754D01*
X841218Y65666D01*
X840996Y65584D01*
X840771Y65508D01*
X840545Y65437D01*
X840317Y65371D01*
X840088Y65311D01*
X839857Y65257D01*
X839625Y65208D01*
X839392Y65165D01*
X839158Y65128D01*
X838923Y65096D01*
X838687Y65070D01*
X838451Y65050D01*
X838214Y65036D01*
X837977Y65027D01*
X837740Y65024D01*
X828004Y65024D01*
X828004Y100076D01*
X837740Y100076D01*
X837930Y100074D01*
X838119Y100067D01*
X838309Y100055D01*
X838498Y100039D01*
X838686Y100018D01*
X838874Y99993D01*
X839061Y99963D01*
X839248Y99929D01*
X839434Y99890D01*
X839618Y99846D01*
X839802Y99798D01*
X839984Y99746D01*
X840165Y99689D01*
X840344Y99628D01*
X840522Y99562D01*
X840699Y99492D01*
X840873Y99418D01*
X841046Y99340D01*
X841217Y99257D01*
X841386Y99170D01*
X841552Y99079D01*
X841716Y98985D01*
X841878Y98886D01*
X842038Y98783D01*
X842195Y98676D01*
X842349Y98566D01*
X842500Y98452D01*
X842649Y98334D01*
X842795Y98213D01*
X842938Y98088D01*
X843077Y97960D01*
X843214Y97828D01*
X843347Y97693D01*
X843477Y97555D01*
X843604Y97414D01*
X843727Y97269D01*
X843847Y97122D01*
X843962Y96972D01*
X844075Y96819D01*
X844183Y96663D01*
X844288Y96505D01*
X844389Y96345D01*
X844485Y96182D01*
X844578Y96016D01*
X844667Y95848D01*
X844752Y95679D01*
X844832Y95507D01*
X844909Y95333D01*
X844981Y95158D01*
X845048Y94981D01*
X845112Y94802D01*
X845171Y94622D01*
X845226Y94440D01*
X845276Y94257D01*
X845321Y94073D01*
X845363Y93888D01*
X845399Y93702D01*
X845432Y93515D01*
X845459Y93327D01*
X845482Y93139D01*
X845501Y92950D01*
X845515Y92761D01*
X845524Y92571D01*
X845528Y92382D01*
X845528Y92192D01*
X845524Y92003D01*
X845515Y91813D01*
X845501Y91624D01*
X845482Y91435D01*
X845459Y91247D01*
X845432Y91059D01*
X845399Y90872D01*
X845363Y90686D01*
X845321Y90501D01*
X845276Y90317D01*
X845226Y90134D01*
X845171Y89952D01*
X845112Y89772D01*
X845048Y89593D01*
X844981Y89416D01*
X844909Y89241D01*
X844832Y89067D01*
X844752Y88895D01*
X844667Y88726D01*
X844578Y88558D01*
X844485Y88393D01*
X844389Y88229D01*
X844288Y88069D01*
X844183Y87911D01*
X844075Y87755D01*
X843962Y87602D01*
X843847Y87452D01*
X843727Y87305D01*
X843604Y87160D01*
X843477Y87019D01*
X843347Y86881D01*
X843214Y86746D01*
X843077Y86614D01*
X842938Y86486D01*
X842795Y86361D01*
X842649Y86240D01*
X842500Y86122D01*
X842349Y86008D01*
X842195Y85898D01*
X842038Y85791D01*
X841878Y85688D01*
X841716Y85589D01*
X841552Y85495D01*
X841386Y85404D01*
X841217Y85317D01*
X841046Y85234D01*
X840873Y85156D01*
X840699Y85082D01*
X840522Y85012D01*
X840344Y84946D01*
X840165Y84885D01*
X839984Y84828D01*
X839802Y84776D01*
X839618Y84728D01*
X839434Y84684D01*
X839248Y84645D01*
X839061Y84611D01*
X838874Y84581D01*
X838686Y84556D01*
X838498Y84535D01*
X838309Y84519D01*
X838119Y84507D01*
X837930Y84500D01*
X837740Y84498D01*
X855654Y78655D02*
X879022Y78655D01*
X889034Y74761D02*
X889034Y100076D01*
X889034Y74761D02*
X889037Y74524D01*
X889046Y74287D01*
X889060Y74050D01*
X889080Y73814D01*
X889106Y73578D01*
X889138Y73343D01*
X889175Y73109D01*
X889218Y72876D01*
X889267Y72644D01*
X889321Y72413D01*
X889381Y72184D01*
X889447Y71956D01*
X889518Y71730D01*
X889594Y71505D01*
X889676Y71283D01*
X889764Y71062D01*
X889857Y70844D01*
X889955Y70628D01*
X890058Y70415D01*
X890166Y70204D01*
X890280Y69996D01*
X890398Y69790D01*
X890522Y69588D01*
X890650Y69388D01*
X890784Y69192D01*
X890922Y68999D01*
X891064Y68810D01*
X891211Y68624D01*
X891363Y68442D01*
X891519Y68263D01*
X891680Y68089D01*
X891844Y67918D01*
X892013Y67751D01*
X892185Y67589D01*
X892362Y67431D01*
X892543Y67277D01*
X892727Y67127D01*
X892914Y66982D01*
X893105Y66842D01*
X893300Y66706D01*
X893498Y66576D01*
X893699Y66450D01*
X893903Y66329D01*
X894109Y66212D01*
X894319Y66101D01*
X894531Y65996D01*
X894746Y65895D01*
X894963Y65800D01*
X895182Y65710D01*
X895404Y65625D01*
X895627Y65546D01*
X895852Y65472D01*
X896080Y65403D01*
X896308Y65341D01*
X896538Y65283D01*
X896770Y65232D01*
X897002Y65186D01*
X897236Y65146D01*
X897471Y65111D01*
X897706Y65082D01*
X897942Y65059D01*
X898179Y65042D01*
X898415Y65030D01*
X898652Y65025D01*
X898890Y65025D01*
X899127Y65030D01*
X899363Y65042D01*
X899600Y65059D01*
X899836Y65082D01*
X900071Y65111D01*
X900306Y65146D01*
X900540Y65186D01*
X900772Y65232D01*
X901004Y65283D01*
X901234Y65341D01*
X901462Y65403D01*
X901690Y65472D01*
X901915Y65546D01*
X902138Y65625D01*
X902360Y65710D01*
X902579Y65800D01*
X902796Y65895D01*
X903011Y65996D01*
X903223Y66101D01*
X903433Y66212D01*
X903640Y66329D01*
X903843Y66450D01*
X904044Y66576D01*
X904242Y66706D01*
X904437Y66842D01*
X904628Y66982D01*
X904815Y67127D01*
X904999Y67277D01*
X905180Y67431D01*
X905357Y67589D01*
X905529Y67751D01*
X905698Y67918D01*
X905862Y68089D01*
X906023Y68263D01*
X906179Y68442D01*
X906331Y68624D01*
X906478Y68810D01*
X906620Y68999D01*
X906758Y69192D01*
X906892Y69388D01*
X907020Y69588D01*
X907144Y69790D01*
X907262Y69996D01*
X907376Y70204D01*
X907484Y70415D01*
X907587Y70628D01*
X907685Y70844D01*
X907778Y71062D01*
X907866Y71283D01*
X907948Y71505D01*
X908024Y71730D01*
X908095Y71956D01*
X908161Y72184D01*
X908221Y72413D01*
X908275Y72644D01*
X908324Y72876D01*
X908367Y73109D01*
X908404Y73343D01*
X908436Y73578D01*
X908462Y73814D01*
X908482Y74050D01*
X908496Y74287D01*
X908505Y74524D01*
X908508Y74761D01*
X908507Y74761D02*
X908507Y100076D01*
X919514Y100076D02*
X919514Y65024D01*
X938987Y65024D02*
X919514Y100076D01*
X938987Y100076D02*
X938987Y65024D01*
X953063Y65024D02*
X953063Y100076D01*
X949169Y65024D02*
X956958Y65024D01*
X956958Y100076D02*
X949169Y100076D01*
X966144Y78655D02*
X989512Y78655D01*
X1009303Y65024D02*
X1009491Y65026D01*
X1009679Y65033D01*
X1009867Y65044D01*
X1010055Y65060D01*
X1010242Y65081D01*
X1010428Y65106D01*
X1010614Y65135D01*
X1010799Y65169D01*
X1010984Y65208D01*
X1011167Y65250D01*
X1011349Y65298D01*
X1011530Y65349D01*
X1011710Y65405D01*
X1011888Y65466D01*
X1012065Y65530D01*
X1012240Y65599D01*
X1012414Y65672D01*
X1012585Y65749D01*
X1012755Y65831D01*
X1012923Y65916D01*
X1013088Y66006D01*
X1013252Y66099D01*
X1013413Y66196D01*
X1013571Y66298D01*
X1013728Y66403D01*
X1013881Y66512D01*
X1014032Y66624D01*
X1014180Y66740D01*
X1014326Y66860D01*
X1014468Y66983D01*
X1014607Y67109D01*
X1014744Y67239D01*
X1014877Y67372D01*
X1015007Y67509D01*
X1015133Y67648D01*
X1015256Y67790D01*
X1015376Y67936D01*
X1015492Y68084D01*
X1015604Y68235D01*
X1015713Y68388D01*
X1015818Y68545D01*
X1015920Y68703D01*
X1016017Y68864D01*
X1016110Y69028D01*
X1016200Y69193D01*
X1016285Y69361D01*
X1016367Y69531D01*
X1016444Y69702D01*
X1016517Y69876D01*
X1016586Y70051D01*
X1016650Y70228D01*
X1016711Y70406D01*
X1016767Y70586D01*
X1016818Y70767D01*
X1016866Y70949D01*
X1016908Y71132D01*
X1016947Y71317D01*
X1016981Y71502D01*
X1017010Y71688D01*
X1017035Y71874D01*
X1017056Y72061D01*
X1017072Y72249D01*
X1017083Y72437D01*
X1017090Y72625D01*
X1017092Y72813D01*
X1009303Y65024D02*
X1008909Y65029D01*
X1008516Y65043D01*
X1008123Y65066D01*
X1007731Y65099D01*
X1007339Y65142D01*
X1006949Y65193D01*
X1006560Y65254D01*
X1006172Y65325D01*
X1005787Y65404D01*
X1005403Y65493D01*
X1005022Y65591D01*
X1004643Y65698D01*
X1004267Y65814D01*
X1003894Y65939D01*
X1003523Y66072D01*
X1003156Y66215D01*
X1002793Y66367D01*
X1002433Y66527D01*
X1002077Y66695D01*
X1001726Y66872D01*
X1001379Y67058D01*
X1001036Y67252D01*
X1000698Y67453D01*
X1000365Y67663D01*
X1000037Y67881D01*
X999714Y68107D01*
X999397Y68340D01*
X999085Y68581D01*
X998780Y68829D01*
X998480Y69084D01*
X998187Y69347D01*
X997900Y69616D01*
X997619Y69892D01*
X998593Y92287D02*
X998595Y92475D01*
X998602Y92663D01*
X998613Y92851D01*
X998629Y93039D01*
X998650Y93226D01*
X998675Y93412D01*
X998704Y93598D01*
X998738Y93783D01*
X998777Y93968D01*
X998819Y94151D01*
X998867Y94333D01*
X998918Y94514D01*
X998974Y94694D01*
X999035Y94872D01*
X999099Y95049D01*
X999168Y95224D01*
X999241Y95398D01*
X999318Y95569D01*
X999400Y95739D01*
X999485Y95907D01*
X999575Y96072D01*
X999668Y96236D01*
X999766Y96397D01*
X999867Y96555D01*
X999972Y96712D01*
X1000081Y96865D01*
X1000193Y97016D01*
X1000309Y97164D01*
X1000429Y97310D01*
X1000552Y97452D01*
X1000678Y97591D01*
X1000808Y97728D01*
X1000941Y97861D01*
X1001078Y97991D01*
X1001217Y98117D01*
X1001359Y98240D01*
X1001505Y98360D01*
X1001653Y98476D01*
X1001804Y98588D01*
X1001957Y98697D01*
X1002114Y98802D01*
X1002272Y98904D01*
X1002433Y99001D01*
X1002597Y99094D01*
X1002762Y99184D01*
X1002930Y99269D01*
X1003100Y99351D01*
X1003271Y99428D01*
X1003445Y99501D01*
X1003620Y99570D01*
X1003797Y99634D01*
X1003975Y99695D01*
X1004155Y99751D01*
X1004336Y99802D01*
X1004518Y99850D01*
X1004701Y99893D01*
X1004886Y99931D01*
X1005071Y99965D01*
X1005257Y99994D01*
X1005443Y100019D01*
X1005630Y100040D01*
X1005818Y100056D01*
X1006006Y100067D01*
X1006194Y100074D01*
X1006382Y100076D01*
X1006730Y100072D01*
X1007078Y100059D01*
X1007425Y100039D01*
X1007772Y100010D01*
X1008118Y99972D01*
X1008463Y99927D01*
X1008807Y99873D01*
X1009150Y99811D01*
X1009491Y99741D01*
X1009830Y99663D01*
X1010167Y99577D01*
X1010502Y99483D01*
X1010835Y99381D01*
X1011165Y99271D01*
X1011493Y99153D01*
X1011817Y99027D01*
X1012139Y98894D01*
X1012457Y98753D01*
X1012772Y98604D01*
X1013083Y98448D01*
X1013390Y98285D01*
X1013694Y98114D01*
X1013993Y97936D01*
X1014288Y97751D01*
X1014578Y97559D01*
X1014864Y97361D01*
X1015145Y97155D01*
X1002488Y85471D02*
X1002324Y85570D01*
X1002163Y85673D01*
X1002005Y85780D01*
X1001849Y85890D01*
X1001696Y86005D01*
X1001546Y86123D01*
X1001398Y86244D01*
X1001254Y86369D01*
X1001113Y86498D01*
X1000974Y86630D01*
X1000839Y86765D01*
X1000708Y86903D01*
X1000579Y87045D01*
X1000455Y87189D01*
X1000333Y87337D01*
X1000216Y87487D01*
X1000101Y87640D01*
X999991Y87796D01*
X999885Y87955D01*
X999782Y88116D01*
X999683Y88279D01*
X999588Y88445D01*
X999498Y88613D01*
X999411Y88784D01*
X999329Y88956D01*
X999250Y89130D01*
X999176Y89306D01*
X999106Y89484D01*
X999041Y89663D01*
X998980Y89844D01*
X998923Y90027D01*
X998870Y90210D01*
X998823Y90395D01*
X998779Y90581D01*
X998740Y90768D01*
X998706Y90956D01*
X998676Y91145D01*
X998651Y91334D01*
X998630Y91524D01*
X998614Y91714D01*
X998602Y91905D01*
X998595Y92096D01*
X998593Y92287D01*
X1013197Y79629D02*
X1013361Y79530D01*
X1013522Y79427D01*
X1013680Y79320D01*
X1013836Y79210D01*
X1013989Y79095D01*
X1014139Y78977D01*
X1014287Y78856D01*
X1014431Y78731D01*
X1014572Y78602D01*
X1014711Y78470D01*
X1014846Y78335D01*
X1014977Y78197D01*
X1015106Y78055D01*
X1015230Y77911D01*
X1015352Y77763D01*
X1015469Y77613D01*
X1015584Y77460D01*
X1015694Y77304D01*
X1015800Y77145D01*
X1015903Y76984D01*
X1016002Y76821D01*
X1016097Y76655D01*
X1016187Y76487D01*
X1016274Y76316D01*
X1016356Y76144D01*
X1016435Y75970D01*
X1016509Y75794D01*
X1016579Y75616D01*
X1016644Y75437D01*
X1016705Y75256D01*
X1016762Y75073D01*
X1016815Y74890D01*
X1016862Y74705D01*
X1016906Y74519D01*
X1016945Y74332D01*
X1016979Y74144D01*
X1017009Y73955D01*
X1017034Y73766D01*
X1017055Y73576D01*
X1017071Y73386D01*
X1017083Y73195D01*
X1017090Y73004D01*
X1017092Y72813D01*
X1013198Y79629D02*
X1002487Y85471D01*
X1031126Y65024D02*
X1040863Y65024D01*
X1031126Y65024D02*
X1030976Y65026D01*
X1030825Y65032D01*
X1030675Y65041D01*
X1030525Y65055D01*
X1030376Y65072D01*
X1030227Y65094D01*
X1030079Y65119D01*
X1029931Y65148D01*
X1029784Y65180D01*
X1029638Y65217D01*
X1029493Y65257D01*
X1029349Y65301D01*
X1029207Y65348D01*
X1029065Y65400D01*
X1028925Y65454D01*
X1028787Y65513D01*
X1028649Y65575D01*
X1028514Y65640D01*
X1028380Y65709D01*
X1028249Y65782D01*
X1028119Y65858D01*
X1027991Y65937D01*
X1027865Y66019D01*
X1027741Y66105D01*
X1027620Y66193D01*
X1027500Y66285D01*
X1027384Y66380D01*
X1027269Y66478D01*
X1027158Y66579D01*
X1027049Y66682D01*
X1026942Y66789D01*
X1026839Y66898D01*
X1026738Y67009D01*
X1026640Y67124D01*
X1026545Y67240D01*
X1026453Y67360D01*
X1026365Y67481D01*
X1026279Y67605D01*
X1026197Y67731D01*
X1026118Y67859D01*
X1026042Y67989D01*
X1025969Y68120D01*
X1025900Y68254D01*
X1025835Y68389D01*
X1025773Y68527D01*
X1025714Y68665D01*
X1025660Y68805D01*
X1025608Y68947D01*
X1025561Y69089D01*
X1025517Y69233D01*
X1025477Y69378D01*
X1025440Y69524D01*
X1025408Y69671D01*
X1025379Y69819D01*
X1025354Y69967D01*
X1025332Y70116D01*
X1025315Y70265D01*
X1025301Y70415D01*
X1025292Y70565D01*
X1025286Y70716D01*
X1025284Y70866D01*
X1025284Y80603D01*
X1025286Y80793D01*
X1025293Y80982D01*
X1025305Y81172D01*
X1025321Y81361D01*
X1025342Y81549D01*
X1025367Y81737D01*
X1025397Y81924D01*
X1025431Y82111D01*
X1025470Y82297D01*
X1025514Y82481D01*
X1025562Y82665D01*
X1025614Y82847D01*
X1025671Y83028D01*
X1025732Y83207D01*
X1025798Y83385D01*
X1025868Y83562D01*
X1025942Y83736D01*
X1026020Y83909D01*
X1026103Y84080D01*
X1026190Y84249D01*
X1026281Y84415D01*
X1026375Y84579D01*
X1026474Y84741D01*
X1026577Y84901D01*
X1026684Y85058D01*
X1026794Y85212D01*
X1026908Y85363D01*
X1027026Y85512D01*
X1027147Y85658D01*
X1027272Y85801D01*
X1027400Y85940D01*
X1027532Y86077D01*
X1027667Y86210D01*
X1027805Y86340D01*
X1027946Y86467D01*
X1028091Y86590D01*
X1028238Y86710D01*
X1028388Y86825D01*
X1028541Y86938D01*
X1028697Y87046D01*
X1028855Y87151D01*
X1029015Y87252D01*
X1029179Y87348D01*
X1029344Y87441D01*
X1029512Y87530D01*
X1029681Y87615D01*
X1029853Y87695D01*
X1030027Y87772D01*
X1030202Y87844D01*
X1030379Y87911D01*
X1030558Y87975D01*
X1030738Y88034D01*
X1030920Y88089D01*
X1031103Y88139D01*
X1031287Y88184D01*
X1031472Y88226D01*
X1031658Y88262D01*
X1031845Y88295D01*
X1032033Y88322D01*
X1032221Y88345D01*
X1032410Y88364D01*
X1032599Y88378D01*
X1032789Y88387D01*
X1032978Y88391D01*
X1033168Y88391D01*
X1033357Y88387D01*
X1033547Y88378D01*
X1033736Y88364D01*
X1033925Y88345D01*
X1034113Y88322D01*
X1034301Y88295D01*
X1034488Y88262D01*
X1034674Y88226D01*
X1034859Y88184D01*
X1035043Y88139D01*
X1035226Y88089D01*
X1035408Y88034D01*
X1035588Y87975D01*
X1035767Y87911D01*
X1035944Y87844D01*
X1036119Y87772D01*
X1036293Y87695D01*
X1036465Y87615D01*
X1036634Y87530D01*
X1036802Y87441D01*
X1036968Y87348D01*
X1037131Y87252D01*
X1037291Y87151D01*
X1037449Y87046D01*
X1037605Y86938D01*
X1037758Y86825D01*
X1037908Y86710D01*
X1038055Y86590D01*
X1038200Y86467D01*
X1038341Y86340D01*
X1038479Y86210D01*
X1038614Y86077D01*
X1038746Y85940D01*
X1038874Y85801D01*
X1038999Y85658D01*
X1039120Y85512D01*
X1039238Y85363D01*
X1039352Y85212D01*
X1039462Y85058D01*
X1039569Y84901D01*
X1039672Y84741D01*
X1039771Y84579D01*
X1039865Y84415D01*
X1039956Y84249D01*
X1040043Y84080D01*
X1040126Y83909D01*
X1040204Y83736D01*
X1040278Y83562D01*
X1040348Y83385D01*
X1040414Y83207D01*
X1040475Y83028D01*
X1040532Y82847D01*
X1040584Y82665D01*
X1040632Y82481D01*
X1040676Y82297D01*
X1040715Y82111D01*
X1040749Y81924D01*
X1040779Y81737D01*
X1040804Y81549D01*
X1040825Y81361D01*
X1040841Y81172D01*
X1040853Y80982D01*
X1040860Y80793D01*
X1040862Y80603D01*
X1040863Y80603D02*
X1040863Y76708D01*
X1025284Y76708D01*
X1051001Y65024D02*
X1051001Y88392D01*
X1060738Y88392D01*
X1060888Y88390D01*
X1061039Y88384D01*
X1061189Y88375D01*
X1061339Y88361D01*
X1061488Y88344D01*
X1061637Y88322D01*
X1061785Y88297D01*
X1061933Y88268D01*
X1062080Y88236D01*
X1062226Y88199D01*
X1062371Y88159D01*
X1062515Y88115D01*
X1062657Y88068D01*
X1062799Y88016D01*
X1062939Y87962D01*
X1063077Y87903D01*
X1063215Y87841D01*
X1063350Y87776D01*
X1063484Y87707D01*
X1063615Y87634D01*
X1063745Y87558D01*
X1063873Y87479D01*
X1063999Y87397D01*
X1064123Y87311D01*
X1064244Y87223D01*
X1064364Y87131D01*
X1064480Y87036D01*
X1064595Y86938D01*
X1064706Y86837D01*
X1064815Y86734D01*
X1064922Y86627D01*
X1065025Y86518D01*
X1065126Y86407D01*
X1065224Y86292D01*
X1065319Y86176D01*
X1065411Y86056D01*
X1065499Y85935D01*
X1065585Y85811D01*
X1065667Y85685D01*
X1065746Y85557D01*
X1065822Y85427D01*
X1065895Y85296D01*
X1065964Y85162D01*
X1066029Y85027D01*
X1066091Y84889D01*
X1066150Y84751D01*
X1066204Y84611D01*
X1066256Y84469D01*
X1066303Y84327D01*
X1066347Y84183D01*
X1066387Y84038D01*
X1066424Y83892D01*
X1066456Y83745D01*
X1066485Y83597D01*
X1066510Y83449D01*
X1066532Y83300D01*
X1066549Y83151D01*
X1066563Y83001D01*
X1066572Y82851D01*
X1066578Y82700D01*
X1066580Y82550D01*
X1066580Y65024D01*
X1074729Y65024D02*
X1086413Y100076D01*
X1098097Y65024D01*
X1095176Y73787D02*
X1077650Y73787D01*
X1111127Y65024D02*
X1118917Y65024D01*
X1111127Y65024D02*
X1110977Y65026D01*
X1110826Y65032D01*
X1110676Y65041D01*
X1110526Y65055D01*
X1110377Y65072D01*
X1110228Y65094D01*
X1110080Y65119D01*
X1109932Y65148D01*
X1109785Y65180D01*
X1109639Y65217D01*
X1109494Y65257D01*
X1109350Y65301D01*
X1109208Y65348D01*
X1109066Y65400D01*
X1108926Y65454D01*
X1108788Y65513D01*
X1108650Y65575D01*
X1108515Y65640D01*
X1108381Y65709D01*
X1108250Y65782D01*
X1108120Y65858D01*
X1107992Y65937D01*
X1107866Y66019D01*
X1107742Y66105D01*
X1107621Y66193D01*
X1107501Y66285D01*
X1107385Y66380D01*
X1107270Y66478D01*
X1107159Y66579D01*
X1107050Y66682D01*
X1106943Y66789D01*
X1106840Y66898D01*
X1106739Y67009D01*
X1106641Y67124D01*
X1106546Y67240D01*
X1106454Y67360D01*
X1106366Y67481D01*
X1106280Y67605D01*
X1106198Y67731D01*
X1106119Y67859D01*
X1106043Y67989D01*
X1105970Y68120D01*
X1105901Y68254D01*
X1105836Y68389D01*
X1105774Y68527D01*
X1105715Y68665D01*
X1105661Y68805D01*
X1105609Y68947D01*
X1105562Y69089D01*
X1105518Y69233D01*
X1105478Y69378D01*
X1105441Y69524D01*
X1105409Y69671D01*
X1105380Y69819D01*
X1105355Y69967D01*
X1105333Y70116D01*
X1105316Y70265D01*
X1105302Y70415D01*
X1105293Y70565D01*
X1105287Y70716D01*
X1105285Y70866D01*
X1105285Y82550D01*
X1105287Y82700D01*
X1105293Y82851D01*
X1105302Y83001D01*
X1105316Y83151D01*
X1105333Y83300D01*
X1105355Y83449D01*
X1105380Y83597D01*
X1105409Y83745D01*
X1105441Y83892D01*
X1105478Y84038D01*
X1105518Y84183D01*
X1105562Y84327D01*
X1105609Y84469D01*
X1105661Y84611D01*
X1105715Y84751D01*
X1105774Y84889D01*
X1105836Y85027D01*
X1105901Y85162D01*
X1105970Y85296D01*
X1106043Y85427D01*
X1106119Y85557D01*
X1106198Y85685D01*
X1106280Y85811D01*
X1106366Y85935D01*
X1106454Y86056D01*
X1106546Y86176D01*
X1106641Y86292D01*
X1106739Y86407D01*
X1106840Y86518D01*
X1106943Y86627D01*
X1107050Y86734D01*
X1107159Y86837D01*
X1107270Y86938D01*
X1107385Y87036D01*
X1107501Y87131D01*
X1107621Y87223D01*
X1107742Y87311D01*
X1107866Y87397D01*
X1107992Y87479D01*
X1108120Y87558D01*
X1108250Y87634D01*
X1108381Y87707D01*
X1108515Y87776D01*
X1108650Y87841D01*
X1108788Y87903D01*
X1108926Y87962D01*
X1109066Y88016D01*
X1109208Y88068D01*
X1109350Y88115D01*
X1109494Y88159D01*
X1109639Y88199D01*
X1109785Y88236D01*
X1109932Y88268D01*
X1110080Y88297D01*
X1110228Y88322D01*
X1110377Y88344D01*
X1110526Y88361D01*
X1110676Y88375D01*
X1110826Y88384D01*
X1110977Y88390D01*
X1111127Y88392D01*
X1118917Y88392D01*
X1125381Y88392D02*
X1137065Y88392D01*
X1129276Y100076D02*
X1129276Y70866D01*
X1129278Y70716D01*
X1129284Y70565D01*
X1129293Y70415D01*
X1129307Y70265D01*
X1129324Y70116D01*
X1129346Y69967D01*
X1129371Y69819D01*
X1129400Y69671D01*
X1129432Y69524D01*
X1129469Y69378D01*
X1129509Y69233D01*
X1129553Y69089D01*
X1129600Y68947D01*
X1129652Y68805D01*
X1129706Y68665D01*
X1129765Y68527D01*
X1129827Y68389D01*
X1129892Y68254D01*
X1129961Y68120D01*
X1130034Y67989D01*
X1130110Y67859D01*
X1130189Y67731D01*
X1130271Y67605D01*
X1130357Y67481D01*
X1130445Y67360D01*
X1130537Y67240D01*
X1130632Y67124D01*
X1130730Y67009D01*
X1130831Y66898D01*
X1130934Y66789D01*
X1131041Y66682D01*
X1131150Y66579D01*
X1131261Y66478D01*
X1131376Y66380D01*
X1131492Y66285D01*
X1131612Y66193D01*
X1131733Y66105D01*
X1131857Y66019D01*
X1131983Y65937D01*
X1132111Y65858D01*
X1132241Y65782D01*
X1132372Y65709D01*
X1132506Y65640D01*
X1132641Y65575D01*
X1132779Y65513D01*
X1132917Y65454D01*
X1133057Y65400D01*
X1133199Y65348D01*
X1133341Y65301D01*
X1133485Y65257D01*
X1133630Y65217D01*
X1133776Y65180D01*
X1133923Y65148D01*
X1134071Y65119D01*
X1134219Y65094D01*
X1134368Y65072D01*
X1134517Y65055D01*
X1134667Y65041D01*
X1134817Y65032D01*
X1134968Y65026D01*
X1135118Y65024D01*
X1137065Y65024D01*
X1145214Y78655D02*
X1168582Y78655D01*
X1177641Y72813D02*
X1185431Y100076D01*
X1177641Y72813D02*
X1197115Y72813D01*
X1191273Y65024D02*
X1191273Y80603D01*
X1206174Y78655D02*
X1229542Y78655D01*
X1238601Y72813D02*
X1246391Y100076D01*
X1238601Y72813D02*
X1258075Y72813D01*
X1252233Y65024D02*
X1252233Y80603D01*
X1267134Y78655D02*
X1290502Y78655D01*
X1300484Y65024D02*
X1300484Y100076D01*
X1310220Y100076D01*
X1310457Y100073D01*
X1310694Y100064D01*
X1310931Y100050D01*
X1311167Y100030D01*
X1311403Y100004D01*
X1311638Y99972D01*
X1311872Y99935D01*
X1312105Y99892D01*
X1312337Y99843D01*
X1312568Y99789D01*
X1312797Y99729D01*
X1313025Y99663D01*
X1313251Y99592D01*
X1313476Y99516D01*
X1313698Y99434D01*
X1313919Y99346D01*
X1314137Y99253D01*
X1314353Y99155D01*
X1314566Y99052D01*
X1314777Y98944D01*
X1314985Y98830D01*
X1315191Y98712D01*
X1315393Y98588D01*
X1315593Y98460D01*
X1315789Y98326D01*
X1315982Y98188D01*
X1316171Y98046D01*
X1316357Y97899D01*
X1316539Y97747D01*
X1316718Y97591D01*
X1316892Y97430D01*
X1317063Y97266D01*
X1317230Y97097D01*
X1317392Y96925D01*
X1317550Y96748D01*
X1317704Y96567D01*
X1317854Y96383D01*
X1317999Y96196D01*
X1318139Y96005D01*
X1318275Y95810D01*
X1318405Y95612D01*
X1318531Y95411D01*
X1318652Y95208D01*
X1318769Y95001D01*
X1318880Y94791D01*
X1318985Y94579D01*
X1319086Y94364D01*
X1319181Y94147D01*
X1319271Y93928D01*
X1319356Y93706D01*
X1319435Y93483D01*
X1319509Y93258D01*
X1319578Y93030D01*
X1319640Y92802D01*
X1319698Y92572D01*
X1319749Y92340D01*
X1319795Y92108D01*
X1319835Y91874D01*
X1319870Y91639D01*
X1319899Y91404D01*
X1319922Y91168D01*
X1319939Y90931D01*
X1319951Y90695D01*
X1319956Y90458D01*
X1319956Y90220D01*
X1319951Y89983D01*
X1319939Y89747D01*
X1319922Y89510D01*
X1319899Y89274D01*
X1319870Y89039D01*
X1319835Y88804D01*
X1319795Y88570D01*
X1319749Y88338D01*
X1319698Y88106D01*
X1319640Y87876D01*
X1319578Y87648D01*
X1319509Y87420D01*
X1319435Y87195D01*
X1319356Y86972D01*
X1319271Y86750D01*
X1319181Y86531D01*
X1319086Y86314D01*
X1318985Y86099D01*
X1318880Y85887D01*
X1318769Y85677D01*
X1318652Y85471D01*
X1318531Y85267D01*
X1318405Y85066D01*
X1318275Y84868D01*
X1318139Y84673D01*
X1317999Y84482D01*
X1317854Y84295D01*
X1317704Y84111D01*
X1317550Y83930D01*
X1317392Y83753D01*
X1317230Y83581D01*
X1317063Y83412D01*
X1316892Y83248D01*
X1316718Y83087D01*
X1316539Y82931D01*
X1316357Y82779D01*
X1316171Y82632D01*
X1315982Y82490D01*
X1315789Y82352D01*
X1315593Y82218D01*
X1315393Y82090D01*
X1315191Y81966D01*
X1314985Y81848D01*
X1314777Y81734D01*
X1314566Y81626D01*
X1314353Y81523D01*
X1314137Y81425D01*
X1313919Y81332D01*
X1313698Y81244D01*
X1313476Y81162D01*
X1313251Y81086D01*
X1313025Y81015D01*
X1312797Y80949D01*
X1312568Y80889D01*
X1312337Y80835D01*
X1312105Y80786D01*
X1311872Y80743D01*
X1311638Y80706D01*
X1311403Y80674D01*
X1311167Y80648D01*
X1310931Y80628D01*
X1310694Y80614D01*
X1310457Y80605D01*
X1310220Y80602D01*
X1310220Y80603D02*
X1300484Y80603D01*
X1312168Y80603D02*
X1319957Y65024D01*
X1336887Y65024D02*
X1344676Y65024D01*
X1336887Y65024D02*
X1336699Y65026D01*
X1336511Y65033D01*
X1336323Y65044D01*
X1336135Y65060D01*
X1335948Y65081D01*
X1335762Y65106D01*
X1335576Y65135D01*
X1335391Y65169D01*
X1335206Y65208D01*
X1335023Y65250D01*
X1334841Y65298D01*
X1334660Y65349D01*
X1334480Y65405D01*
X1334302Y65466D01*
X1334125Y65530D01*
X1333950Y65599D01*
X1333776Y65672D01*
X1333605Y65749D01*
X1333435Y65831D01*
X1333267Y65916D01*
X1333102Y66006D01*
X1332938Y66099D01*
X1332777Y66196D01*
X1332619Y66298D01*
X1332462Y66403D01*
X1332309Y66512D01*
X1332158Y66624D01*
X1332010Y66740D01*
X1331864Y66860D01*
X1331722Y66983D01*
X1331583Y67109D01*
X1331446Y67239D01*
X1331313Y67372D01*
X1331183Y67509D01*
X1331057Y67648D01*
X1330934Y67790D01*
X1330814Y67936D01*
X1330698Y68084D01*
X1330586Y68235D01*
X1330477Y68388D01*
X1330372Y68545D01*
X1330270Y68703D01*
X1330173Y68864D01*
X1330080Y69028D01*
X1329990Y69193D01*
X1329905Y69361D01*
X1329823Y69531D01*
X1329746Y69702D01*
X1329673Y69876D01*
X1329604Y70051D01*
X1329540Y70228D01*
X1329479Y70406D01*
X1329423Y70586D01*
X1329372Y70767D01*
X1329324Y70949D01*
X1329282Y71132D01*
X1329243Y71317D01*
X1329209Y71502D01*
X1329180Y71688D01*
X1329155Y71874D01*
X1329134Y72061D01*
X1329118Y72249D01*
X1329107Y72437D01*
X1329100Y72625D01*
X1329098Y72813D01*
X1329097Y72813D02*
X1329097Y92287D01*
X1329098Y92287D02*
X1329100Y92478D01*
X1329107Y92669D01*
X1329119Y92860D01*
X1329136Y93050D01*
X1329157Y93240D01*
X1329182Y93430D01*
X1329213Y93619D01*
X1329248Y93807D01*
X1329287Y93994D01*
X1329331Y94180D01*
X1329380Y94364D01*
X1329433Y94548D01*
X1329491Y94730D01*
X1329553Y94911D01*
X1329620Y95090D01*
X1329691Y95268D01*
X1329766Y95443D01*
X1329846Y95617D01*
X1329930Y95789D01*
X1330018Y95959D01*
X1330110Y96126D01*
X1330206Y96291D01*
X1330306Y96454D01*
X1330411Y96614D01*
X1330519Y96772D01*
X1330631Y96927D01*
X1330747Y97079D01*
X1330866Y97228D01*
X1330989Y97375D01*
X1331116Y97518D01*
X1331246Y97658D01*
X1331379Y97795D01*
X1331516Y97928D01*
X1331656Y98058D01*
X1331799Y98185D01*
X1331946Y98308D01*
X1332095Y98427D01*
X1332247Y98543D01*
X1332402Y98655D01*
X1332560Y98763D01*
X1332720Y98868D01*
X1332883Y98968D01*
X1333048Y99064D01*
X1333215Y99156D01*
X1333385Y99244D01*
X1333557Y99328D01*
X1333731Y99408D01*
X1333906Y99483D01*
X1334084Y99554D01*
X1334263Y99621D01*
X1334444Y99683D01*
X1334626Y99741D01*
X1334810Y99794D01*
X1334994Y99843D01*
X1335180Y99887D01*
X1335367Y99926D01*
X1335555Y99961D01*
X1335744Y99992D01*
X1335934Y100017D01*
X1336124Y100038D01*
X1336314Y100055D01*
X1336505Y100067D01*
X1336696Y100074D01*
X1336887Y100076D01*
X1344676Y100076D01*
D11*
X36040Y436513D02*
X36038Y436389D01*
X36032Y436265D01*
X36022Y436141D01*
X36009Y436018D01*
X35991Y435895D01*
X35970Y435773D01*
X35945Y435651D01*
X35916Y435530D01*
X35883Y435411D01*
X35847Y435292D01*
X35806Y435175D01*
X35763Y435059D01*
X35715Y434944D01*
X35664Y434831D01*
X35609Y434719D01*
X35551Y434610D01*
X35490Y434502D01*
X35425Y434396D01*
X35357Y434292D01*
X35285Y434191D01*
X35211Y434091D01*
X35133Y433995D01*
X35053Y433900D01*
X34969Y433808D01*
X34883Y433719D01*
X34794Y433633D01*
X34702Y433549D01*
X34607Y433469D01*
X34511Y433391D01*
X34411Y433317D01*
X34310Y433245D01*
X34206Y433177D01*
X34100Y433112D01*
X33992Y433051D01*
X33883Y432993D01*
X33771Y432938D01*
X33658Y432887D01*
X33543Y432839D01*
X33427Y432796D01*
X33310Y432755D01*
X33191Y432719D01*
X33072Y432686D01*
X32951Y432657D01*
X32829Y432632D01*
X32707Y432611D01*
X32584Y432593D01*
X32461Y432580D01*
X32337Y432570D01*
X32213Y432564D01*
X32089Y432562D01*
X31889Y432564D01*
X31690Y432572D01*
X31490Y432583D01*
X31291Y432600D01*
X31093Y432622D01*
X30895Y432648D01*
X30698Y432679D01*
X30501Y432714D01*
X30305Y432755D01*
X30111Y432800D01*
X29917Y432849D01*
X29725Y432904D01*
X29534Y432963D01*
X29345Y433026D01*
X29157Y433094D01*
X28971Y433166D01*
X28787Y433243D01*
X28604Y433324D01*
X28424Y433410D01*
X28245Y433500D01*
X28069Y433594D01*
X27895Y433692D01*
X27724Y433794D01*
X27555Y433901D01*
X27389Y434011D01*
X27225Y434126D01*
X27064Y434244D01*
X26906Y434366D01*
X26751Y434492D01*
X26599Y434622D01*
X26450Y434755D01*
X26304Y434891D01*
X26162Y435032D01*
X26656Y446391D02*
X26658Y446515D01*
X26664Y446639D01*
X26674Y446763D01*
X26687Y446886D01*
X26705Y447009D01*
X26726Y447131D01*
X26751Y447253D01*
X26780Y447374D01*
X26813Y447493D01*
X26849Y447612D01*
X26890Y447729D01*
X26933Y447845D01*
X26981Y447960D01*
X27032Y448073D01*
X27087Y448185D01*
X27145Y448294D01*
X27206Y448402D01*
X27271Y448508D01*
X27339Y448612D01*
X27411Y448713D01*
X27485Y448813D01*
X27563Y448909D01*
X27643Y449004D01*
X27727Y449096D01*
X27813Y449185D01*
X27902Y449271D01*
X27994Y449355D01*
X28089Y449435D01*
X28185Y449513D01*
X28285Y449587D01*
X28386Y449659D01*
X28490Y449727D01*
X28596Y449792D01*
X28704Y449853D01*
X28813Y449911D01*
X28925Y449966D01*
X29038Y450017D01*
X29153Y450065D01*
X29269Y450108D01*
X29386Y450149D01*
X29505Y450185D01*
X29624Y450218D01*
X29745Y450247D01*
X29867Y450272D01*
X29989Y450293D01*
X30112Y450311D01*
X30235Y450324D01*
X30359Y450334D01*
X30483Y450340D01*
X30607Y450342D01*
X30784Y450340D01*
X30960Y450334D01*
X31136Y450323D01*
X31312Y450308D01*
X31488Y450289D01*
X31663Y450266D01*
X31837Y450239D01*
X32011Y450208D01*
X32184Y450172D01*
X32356Y450133D01*
X32527Y450089D01*
X32697Y450041D01*
X32866Y449989D01*
X33033Y449933D01*
X33199Y449874D01*
X33364Y449810D01*
X33527Y449742D01*
X33688Y449671D01*
X33848Y449595D01*
X34006Y449516D01*
X34162Y449433D01*
X34316Y449347D01*
X34468Y449257D01*
X34617Y449163D01*
X34764Y449065D01*
X34909Y448965D01*
X35052Y448860D01*
X28632Y442934D02*
X28527Y442997D01*
X28424Y443064D01*
X28324Y443135D01*
X28226Y443208D01*
X28129Y443284D01*
X28036Y443363D01*
X27945Y443445D01*
X27856Y443529D01*
X27770Y443616D01*
X27686Y443706D01*
X27606Y443798D01*
X27528Y443893D01*
X27453Y443990D01*
X27381Y444090D01*
X27313Y444191D01*
X27247Y444295D01*
X27185Y444400D01*
X27126Y444507D01*
X27070Y444616D01*
X27017Y444727D01*
X26968Y444839D01*
X26922Y444953D01*
X26880Y445068D01*
X26842Y445184D01*
X26807Y445302D01*
X26775Y445420D01*
X26747Y445540D01*
X26723Y445660D01*
X26703Y445781D01*
X26686Y445902D01*
X26673Y446024D01*
X26663Y446146D01*
X26658Y446268D01*
X26656Y446391D01*
X34064Y439970D02*
X34169Y439907D01*
X34272Y439840D01*
X34372Y439769D01*
X34470Y439696D01*
X34567Y439620D01*
X34660Y439541D01*
X34751Y439459D01*
X34840Y439375D01*
X34926Y439288D01*
X35010Y439198D01*
X35090Y439106D01*
X35168Y439011D01*
X35243Y438914D01*
X35315Y438814D01*
X35383Y438713D01*
X35449Y438609D01*
X35511Y438504D01*
X35570Y438397D01*
X35626Y438288D01*
X35679Y438177D01*
X35728Y438065D01*
X35774Y437951D01*
X35816Y437836D01*
X35854Y437720D01*
X35889Y437602D01*
X35921Y437484D01*
X35949Y437364D01*
X35973Y437244D01*
X35993Y437123D01*
X36010Y437002D01*
X36023Y436880D01*
X36033Y436758D01*
X36038Y436636D01*
X36040Y436513D01*
X34064Y439970D02*
X28631Y442934D01*
X42354Y446391D02*
X47293Y450342D01*
X47293Y432562D01*
X42354Y432562D02*
X52232Y432562D01*
X36040Y360313D02*
X36038Y360189D01*
X36032Y360065D01*
X36022Y359941D01*
X36009Y359818D01*
X35991Y359695D01*
X35970Y359573D01*
X35945Y359451D01*
X35916Y359330D01*
X35883Y359211D01*
X35847Y359092D01*
X35806Y358975D01*
X35763Y358859D01*
X35715Y358744D01*
X35664Y358631D01*
X35609Y358519D01*
X35551Y358410D01*
X35490Y358302D01*
X35425Y358196D01*
X35357Y358092D01*
X35285Y357991D01*
X35211Y357891D01*
X35133Y357795D01*
X35053Y357700D01*
X34969Y357608D01*
X34883Y357519D01*
X34794Y357433D01*
X34702Y357349D01*
X34607Y357269D01*
X34511Y357191D01*
X34411Y357117D01*
X34310Y357045D01*
X34206Y356977D01*
X34100Y356912D01*
X33992Y356851D01*
X33883Y356793D01*
X33771Y356738D01*
X33658Y356687D01*
X33543Y356639D01*
X33427Y356596D01*
X33310Y356555D01*
X33191Y356519D01*
X33072Y356486D01*
X32951Y356457D01*
X32829Y356432D01*
X32707Y356411D01*
X32584Y356393D01*
X32461Y356380D01*
X32337Y356370D01*
X32213Y356364D01*
X32089Y356362D01*
X31889Y356364D01*
X31690Y356372D01*
X31490Y356383D01*
X31291Y356400D01*
X31093Y356422D01*
X30895Y356448D01*
X30698Y356479D01*
X30501Y356514D01*
X30305Y356555D01*
X30111Y356600D01*
X29917Y356649D01*
X29725Y356704D01*
X29534Y356763D01*
X29345Y356826D01*
X29157Y356894D01*
X28971Y356966D01*
X28787Y357043D01*
X28604Y357124D01*
X28424Y357210D01*
X28245Y357300D01*
X28069Y357394D01*
X27895Y357492D01*
X27724Y357594D01*
X27555Y357701D01*
X27389Y357811D01*
X27225Y357926D01*
X27064Y358044D01*
X26906Y358166D01*
X26751Y358292D01*
X26599Y358422D01*
X26450Y358555D01*
X26304Y358691D01*
X26162Y358832D01*
X26656Y370191D02*
X26658Y370315D01*
X26664Y370439D01*
X26674Y370563D01*
X26687Y370686D01*
X26705Y370809D01*
X26726Y370931D01*
X26751Y371053D01*
X26780Y371174D01*
X26813Y371293D01*
X26849Y371412D01*
X26890Y371529D01*
X26933Y371645D01*
X26981Y371760D01*
X27032Y371873D01*
X27087Y371985D01*
X27145Y372094D01*
X27206Y372202D01*
X27271Y372308D01*
X27339Y372412D01*
X27411Y372513D01*
X27485Y372613D01*
X27563Y372709D01*
X27643Y372804D01*
X27727Y372896D01*
X27813Y372985D01*
X27902Y373071D01*
X27994Y373155D01*
X28089Y373235D01*
X28185Y373313D01*
X28285Y373387D01*
X28386Y373459D01*
X28490Y373527D01*
X28596Y373592D01*
X28704Y373653D01*
X28813Y373711D01*
X28925Y373766D01*
X29038Y373817D01*
X29153Y373865D01*
X29269Y373908D01*
X29386Y373949D01*
X29505Y373985D01*
X29624Y374018D01*
X29745Y374047D01*
X29867Y374072D01*
X29989Y374093D01*
X30112Y374111D01*
X30235Y374124D01*
X30359Y374134D01*
X30483Y374140D01*
X30607Y374142D01*
X30784Y374140D01*
X30960Y374134D01*
X31136Y374123D01*
X31312Y374108D01*
X31488Y374089D01*
X31663Y374066D01*
X31837Y374039D01*
X32011Y374008D01*
X32184Y373972D01*
X32356Y373933D01*
X32527Y373889D01*
X32697Y373841D01*
X32866Y373789D01*
X33033Y373733D01*
X33199Y373674D01*
X33364Y373610D01*
X33527Y373542D01*
X33688Y373471D01*
X33848Y373395D01*
X34006Y373316D01*
X34162Y373233D01*
X34316Y373147D01*
X34468Y373057D01*
X34617Y372963D01*
X34764Y372865D01*
X34909Y372765D01*
X35052Y372660D01*
X28632Y366734D02*
X28527Y366797D01*
X28424Y366864D01*
X28324Y366935D01*
X28226Y367008D01*
X28129Y367084D01*
X28036Y367163D01*
X27945Y367245D01*
X27856Y367329D01*
X27770Y367416D01*
X27686Y367506D01*
X27606Y367598D01*
X27528Y367693D01*
X27453Y367790D01*
X27381Y367890D01*
X27313Y367991D01*
X27247Y368095D01*
X27185Y368200D01*
X27126Y368307D01*
X27070Y368416D01*
X27017Y368527D01*
X26968Y368639D01*
X26922Y368753D01*
X26880Y368868D01*
X26842Y368984D01*
X26807Y369102D01*
X26775Y369220D01*
X26747Y369340D01*
X26723Y369460D01*
X26703Y369581D01*
X26686Y369702D01*
X26673Y369824D01*
X26663Y369946D01*
X26658Y370068D01*
X26656Y370191D01*
X34064Y363770D02*
X34169Y363707D01*
X34272Y363640D01*
X34372Y363569D01*
X34470Y363496D01*
X34567Y363420D01*
X34660Y363341D01*
X34751Y363259D01*
X34840Y363175D01*
X34926Y363088D01*
X35010Y362998D01*
X35090Y362906D01*
X35168Y362811D01*
X35243Y362714D01*
X35315Y362614D01*
X35383Y362513D01*
X35449Y362409D01*
X35511Y362304D01*
X35570Y362197D01*
X35626Y362088D01*
X35679Y361977D01*
X35728Y361865D01*
X35774Y361751D01*
X35816Y361636D01*
X35854Y361520D01*
X35889Y361402D01*
X35921Y361284D01*
X35949Y361164D01*
X35973Y361044D01*
X35993Y360923D01*
X36010Y360802D01*
X36023Y360680D01*
X36033Y360558D01*
X36038Y360436D01*
X36040Y360313D01*
X34064Y363770D02*
X28631Y366734D01*
X47787Y374142D02*
X47919Y374140D01*
X48050Y374134D01*
X48182Y374124D01*
X48313Y374111D01*
X48443Y374093D01*
X48573Y374072D01*
X48703Y374047D01*
X48831Y374018D01*
X48959Y373985D01*
X49085Y373948D01*
X49211Y373908D01*
X49335Y373864D01*
X49458Y373816D01*
X49579Y373765D01*
X49699Y373710D01*
X49817Y373652D01*
X49933Y373590D01*
X50047Y373524D01*
X50160Y373456D01*
X50270Y373384D01*
X50378Y373309D01*
X50484Y373230D01*
X50588Y373149D01*
X50689Y373064D01*
X50787Y372977D01*
X50883Y372886D01*
X50976Y372793D01*
X51067Y372697D01*
X51154Y372599D01*
X51239Y372498D01*
X51320Y372394D01*
X51399Y372288D01*
X51474Y372180D01*
X51546Y372070D01*
X51614Y371957D01*
X51680Y371843D01*
X51742Y371727D01*
X51800Y371609D01*
X51855Y371489D01*
X51906Y371368D01*
X51954Y371245D01*
X51998Y371121D01*
X52038Y370995D01*
X52075Y370869D01*
X52108Y370741D01*
X52137Y370613D01*
X52162Y370483D01*
X52183Y370353D01*
X52201Y370223D01*
X52214Y370092D01*
X52224Y369960D01*
X52230Y369829D01*
X52232Y369697D01*
X47787Y374142D02*
X47637Y374140D01*
X47488Y374134D01*
X47339Y374124D01*
X47190Y374111D01*
X47041Y374093D01*
X46893Y374072D01*
X46745Y374046D01*
X46599Y374017D01*
X46453Y373984D01*
X46308Y373947D01*
X46164Y373906D01*
X46021Y373862D01*
X45879Y373814D01*
X45739Y373762D01*
X45600Y373707D01*
X45462Y373648D01*
X45327Y373585D01*
X45192Y373519D01*
X45060Y373449D01*
X44930Y373376D01*
X44801Y373299D01*
X44674Y373219D01*
X44550Y373136D01*
X44428Y373050D01*
X44308Y372960D01*
X44191Y372867D01*
X44076Y372772D01*
X43963Y372673D01*
X43853Y372571D01*
X43746Y372467D01*
X43642Y372360D01*
X43540Y372250D01*
X43442Y372137D01*
X43346Y372022D01*
X43254Y371904D01*
X43164Y371784D01*
X43078Y371662D01*
X42995Y371538D01*
X42915Y371411D01*
X42839Y371283D01*
X42766Y371152D01*
X42696Y371019D01*
X42630Y370885D01*
X42568Y370749D01*
X42509Y370612D01*
X42453Y370473D01*
X42402Y370332D01*
X42354Y370191D01*
X50749Y366240D02*
X50845Y366333D01*
X50937Y366429D01*
X51027Y366528D01*
X51114Y366629D01*
X51199Y366732D01*
X51280Y366837D01*
X51358Y366945D01*
X51433Y367055D01*
X51506Y367167D01*
X51575Y367281D01*
X51641Y367397D01*
X51703Y367515D01*
X51762Y367634D01*
X51818Y367755D01*
X51871Y367878D01*
X51920Y368002D01*
X51965Y368127D01*
X52008Y368254D01*
X52046Y368381D01*
X52081Y368510D01*
X52112Y368639D01*
X52140Y368770D01*
X52164Y368901D01*
X52185Y369033D01*
X52201Y369165D01*
X52214Y369298D01*
X52224Y369431D01*
X52229Y369564D01*
X52231Y369697D01*
X50750Y366240D02*
X42354Y356362D01*
X52232Y356362D01*
X36040Y271413D02*
X36038Y271289D01*
X36032Y271165D01*
X36022Y271041D01*
X36009Y270918D01*
X35991Y270795D01*
X35970Y270673D01*
X35945Y270551D01*
X35916Y270430D01*
X35883Y270311D01*
X35847Y270192D01*
X35806Y270075D01*
X35763Y269959D01*
X35715Y269844D01*
X35664Y269731D01*
X35609Y269619D01*
X35551Y269510D01*
X35490Y269402D01*
X35425Y269296D01*
X35357Y269192D01*
X35285Y269091D01*
X35211Y268991D01*
X35133Y268895D01*
X35053Y268800D01*
X34969Y268708D01*
X34883Y268619D01*
X34794Y268533D01*
X34702Y268449D01*
X34607Y268369D01*
X34511Y268291D01*
X34411Y268217D01*
X34310Y268145D01*
X34206Y268077D01*
X34100Y268012D01*
X33992Y267951D01*
X33883Y267893D01*
X33771Y267838D01*
X33658Y267787D01*
X33543Y267739D01*
X33427Y267696D01*
X33310Y267655D01*
X33191Y267619D01*
X33072Y267586D01*
X32951Y267557D01*
X32829Y267532D01*
X32707Y267511D01*
X32584Y267493D01*
X32461Y267480D01*
X32337Y267470D01*
X32213Y267464D01*
X32089Y267462D01*
X31889Y267464D01*
X31690Y267472D01*
X31490Y267483D01*
X31291Y267500D01*
X31093Y267522D01*
X30895Y267548D01*
X30698Y267579D01*
X30501Y267614D01*
X30305Y267655D01*
X30111Y267700D01*
X29917Y267749D01*
X29725Y267804D01*
X29534Y267863D01*
X29345Y267926D01*
X29157Y267994D01*
X28971Y268066D01*
X28787Y268143D01*
X28604Y268224D01*
X28424Y268310D01*
X28245Y268400D01*
X28069Y268494D01*
X27895Y268592D01*
X27724Y268694D01*
X27555Y268801D01*
X27389Y268911D01*
X27225Y269026D01*
X27064Y269144D01*
X26906Y269266D01*
X26751Y269392D01*
X26599Y269522D01*
X26450Y269655D01*
X26304Y269791D01*
X26162Y269932D01*
X26656Y281291D02*
X26658Y281415D01*
X26664Y281539D01*
X26674Y281663D01*
X26687Y281786D01*
X26705Y281909D01*
X26726Y282031D01*
X26751Y282153D01*
X26780Y282274D01*
X26813Y282393D01*
X26849Y282512D01*
X26890Y282629D01*
X26933Y282745D01*
X26981Y282860D01*
X27032Y282973D01*
X27087Y283085D01*
X27145Y283194D01*
X27206Y283302D01*
X27271Y283408D01*
X27339Y283512D01*
X27411Y283613D01*
X27485Y283713D01*
X27563Y283809D01*
X27643Y283904D01*
X27727Y283996D01*
X27813Y284085D01*
X27902Y284171D01*
X27994Y284255D01*
X28089Y284335D01*
X28185Y284413D01*
X28285Y284487D01*
X28386Y284559D01*
X28490Y284627D01*
X28596Y284692D01*
X28704Y284753D01*
X28813Y284811D01*
X28925Y284866D01*
X29038Y284917D01*
X29153Y284965D01*
X29269Y285008D01*
X29386Y285049D01*
X29505Y285085D01*
X29624Y285118D01*
X29745Y285147D01*
X29867Y285172D01*
X29989Y285193D01*
X30112Y285211D01*
X30235Y285224D01*
X30359Y285234D01*
X30483Y285240D01*
X30607Y285242D01*
X30784Y285240D01*
X30960Y285234D01*
X31136Y285223D01*
X31312Y285208D01*
X31488Y285189D01*
X31663Y285166D01*
X31837Y285139D01*
X32011Y285108D01*
X32184Y285072D01*
X32356Y285033D01*
X32527Y284989D01*
X32697Y284941D01*
X32866Y284889D01*
X33033Y284833D01*
X33199Y284774D01*
X33364Y284710D01*
X33527Y284642D01*
X33688Y284571D01*
X33848Y284495D01*
X34006Y284416D01*
X34162Y284333D01*
X34316Y284247D01*
X34468Y284157D01*
X34617Y284063D01*
X34764Y283965D01*
X34909Y283865D01*
X35052Y283760D01*
X28632Y277834D02*
X28527Y277897D01*
X28424Y277964D01*
X28324Y278035D01*
X28226Y278108D01*
X28129Y278184D01*
X28036Y278263D01*
X27945Y278345D01*
X27856Y278429D01*
X27770Y278516D01*
X27686Y278606D01*
X27606Y278698D01*
X27528Y278793D01*
X27453Y278890D01*
X27381Y278990D01*
X27313Y279091D01*
X27247Y279195D01*
X27185Y279300D01*
X27126Y279407D01*
X27070Y279516D01*
X27017Y279627D01*
X26968Y279739D01*
X26922Y279853D01*
X26880Y279968D01*
X26842Y280084D01*
X26807Y280202D01*
X26775Y280320D01*
X26747Y280440D01*
X26723Y280560D01*
X26703Y280681D01*
X26686Y280802D01*
X26673Y280924D01*
X26663Y281046D01*
X26658Y281168D01*
X26656Y281291D01*
X34064Y274870D02*
X34169Y274807D01*
X34272Y274740D01*
X34372Y274669D01*
X34470Y274596D01*
X34567Y274520D01*
X34660Y274441D01*
X34751Y274359D01*
X34840Y274275D01*
X34926Y274188D01*
X35010Y274098D01*
X35090Y274006D01*
X35168Y273911D01*
X35243Y273814D01*
X35315Y273714D01*
X35383Y273613D01*
X35449Y273509D01*
X35511Y273404D01*
X35570Y273297D01*
X35626Y273188D01*
X35679Y273077D01*
X35728Y272965D01*
X35774Y272851D01*
X35816Y272736D01*
X35854Y272620D01*
X35889Y272502D01*
X35921Y272384D01*
X35949Y272264D01*
X35973Y272144D01*
X35993Y272023D01*
X36010Y271902D01*
X36023Y271780D01*
X36033Y271658D01*
X36038Y271536D01*
X36040Y271413D01*
X34064Y274870D02*
X28631Y277834D01*
X42354Y267462D02*
X47293Y267462D01*
X47433Y267464D01*
X47572Y267470D01*
X47712Y267480D01*
X47851Y267494D01*
X47990Y267511D01*
X48128Y267533D01*
X48265Y267559D01*
X48402Y267588D01*
X48538Y267621D01*
X48672Y267658D01*
X48806Y267699D01*
X48938Y267744D01*
X49070Y267793D01*
X49199Y267845D01*
X49327Y267900D01*
X49454Y267960D01*
X49579Y268023D01*
X49702Y268089D01*
X49823Y268159D01*
X49942Y268232D01*
X50059Y268309D01*
X50173Y268389D01*
X50286Y268472D01*
X50396Y268558D01*
X50503Y268648D01*
X50608Y268740D01*
X50710Y268835D01*
X50810Y268933D01*
X50907Y269034D01*
X51001Y269138D01*
X51091Y269244D01*
X51179Y269353D01*
X51264Y269464D01*
X51345Y269578D01*
X51424Y269693D01*
X51499Y269811D01*
X51570Y269932D01*
X51638Y270054D01*
X51703Y270177D01*
X51764Y270303D01*
X51822Y270431D01*
X51876Y270559D01*
X51926Y270690D01*
X51973Y270822D01*
X52016Y270955D01*
X52055Y271089D01*
X52090Y271224D01*
X52121Y271360D01*
X52149Y271498D01*
X52172Y271635D01*
X52192Y271774D01*
X52208Y271913D01*
X52220Y272052D01*
X52228Y272191D01*
X52232Y272331D01*
X52232Y272471D01*
X52228Y272611D01*
X52220Y272750D01*
X52208Y272889D01*
X52192Y273028D01*
X52172Y273167D01*
X52149Y273304D01*
X52121Y273442D01*
X52090Y273578D01*
X52055Y273713D01*
X52016Y273847D01*
X51973Y273980D01*
X51926Y274112D01*
X51876Y274243D01*
X51822Y274371D01*
X51764Y274499D01*
X51703Y274625D01*
X51638Y274748D01*
X51570Y274871D01*
X51499Y274991D01*
X51424Y275109D01*
X51345Y275224D01*
X51264Y275338D01*
X51179Y275449D01*
X51091Y275558D01*
X51001Y275664D01*
X50907Y275768D01*
X50810Y275869D01*
X50710Y275967D01*
X50608Y276062D01*
X50503Y276154D01*
X50396Y276244D01*
X50286Y276330D01*
X50173Y276413D01*
X50059Y276493D01*
X49942Y276570D01*
X49823Y276643D01*
X49702Y276713D01*
X49579Y276779D01*
X49454Y276842D01*
X49327Y276902D01*
X49199Y276957D01*
X49070Y277009D01*
X48938Y277058D01*
X48806Y277103D01*
X48672Y277144D01*
X48538Y277181D01*
X48402Y277214D01*
X48265Y277243D01*
X48128Y277269D01*
X47990Y277291D01*
X47851Y277308D01*
X47712Y277322D01*
X47572Y277332D01*
X47433Y277338D01*
X47293Y277340D01*
X48281Y285242D02*
X42354Y285242D01*
X48281Y285242D02*
X48405Y285240D01*
X48529Y285234D01*
X48653Y285224D01*
X48776Y285211D01*
X48899Y285193D01*
X49021Y285172D01*
X49143Y285147D01*
X49264Y285118D01*
X49383Y285085D01*
X49502Y285049D01*
X49619Y285008D01*
X49735Y284965D01*
X49850Y284917D01*
X49963Y284866D01*
X50075Y284811D01*
X50184Y284753D01*
X50292Y284692D01*
X50398Y284627D01*
X50502Y284559D01*
X50603Y284487D01*
X50703Y284413D01*
X50799Y284335D01*
X50894Y284255D01*
X50986Y284171D01*
X51075Y284085D01*
X51161Y283996D01*
X51245Y283904D01*
X51325Y283809D01*
X51403Y283713D01*
X51477Y283613D01*
X51549Y283512D01*
X51617Y283408D01*
X51682Y283302D01*
X51743Y283194D01*
X51801Y283085D01*
X51856Y282973D01*
X51907Y282860D01*
X51955Y282745D01*
X51998Y282629D01*
X52039Y282512D01*
X52075Y282393D01*
X52108Y282274D01*
X52137Y282153D01*
X52162Y282031D01*
X52183Y281909D01*
X52201Y281786D01*
X52214Y281663D01*
X52224Y281539D01*
X52230Y281415D01*
X52232Y281291D01*
X52230Y281167D01*
X52224Y281043D01*
X52214Y280919D01*
X52201Y280796D01*
X52183Y280673D01*
X52162Y280551D01*
X52137Y280429D01*
X52108Y280308D01*
X52075Y280189D01*
X52039Y280070D01*
X51998Y279953D01*
X51955Y279837D01*
X51907Y279722D01*
X51856Y279609D01*
X51801Y279497D01*
X51743Y279388D01*
X51682Y279280D01*
X51617Y279174D01*
X51549Y279070D01*
X51477Y278969D01*
X51403Y278869D01*
X51325Y278773D01*
X51245Y278678D01*
X51161Y278586D01*
X51075Y278497D01*
X50986Y278411D01*
X50894Y278327D01*
X50799Y278247D01*
X50703Y278169D01*
X50603Y278095D01*
X50502Y278023D01*
X50398Y277955D01*
X50292Y277890D01*
X50184Y277829D01*
X50075Y277771D01*
X49963Y277716D01*
X49850Y277665D01*
X49735Y277617D01*
X49619Y277574D01*
X49502Y277533D01*
X49383Y277497D01*
X49264Y277464D01*
X49143Y277435D01*
X49021Y277410D01*
X48899Y277389D01*
X48776Y277371D01*
X48653Y277358D01*
X48529Y277348D01*
X48405Y277342D01*
X48281Y277340D01*
X44330Y277340D01*
X36040Y195213D02*
X36038Y195089D01*
X36032Y194965D01*
X36022Y194841D01*
X36009Y194718D01*
X35991Y194595D01*
X35970Y194473D01*
X35945Y194351D01*
X35916Y194230D01*
X35883Y194111D01*
X35847Y193992D01*
X35806Y193875D01*
X35763Y193759D01*
X35715Y193644D01*
X35664Y193531D01*
X35609Y193419D01*
X35551Y193310D01*
X35490Y193202D01*
X35425Y193096D01*
X35357Y192992D01*
X35285Y192891D01*
X35211Y192791D01*
X35133Y192695D01*
X35053Y192600D01*
X34969Y192508D01*
X34883Y192419D01*
X34794Y192333D01*
X34702Y192249D01*
X34607Y192169D01*
X34511Y192091D01*
X34411Y192017D01*
X34310Y191945D01*
X34206Y191877D01*
X34100Y191812D01*
X33992Y191751D01*
X33883Y191693D01*
X33771Y191638D01*
X33658Y191587D01*
X33543Y191539D01*
X33427Y191496D01*
X33310Y191455D01*
X33191Y191419D01*
X33072Y191386D01*
X32951Y191357D01*
X32829Y191332D01*
X32707Y191311D01*
X32584Y191293D01*
X32461Y191280D01*
X32337Y191270D01*
X32213Y191264D01*
X32089Y191262D01*
X31889Y191264D01*
X31690Y191272D01*
X31490Y191283D01*
X31291Y191300D01*
X31093Y191322D01*
X30895Y191348D01*
X30698Y191379D01*
X30501Y191414D01*
X30305Y191455D01*
X30111Y191500D01*
X29917Y191549D01*
X29725Y191604D01*
X29534Y191663D01*
X29345Y191726D01*
X29157Y191794D01*
X28971Y191866D01*
X28787Y191943D01*
X28604Y192024D01*
X28424Y192110D01*
X28245Y192200D01*
X28069Y192294D01*
X27895Y192392D01*
X27724Y192494D01*
X27555Y192601D01*
X27389Y192711D01*
X27225Y192826D01*
X27064Y192944D01*
X26906Y193066D01*
X26751Y193192D01*
X26599Y193322D01*
X26450Y193455D01*
X26304Y193591D01*
X26162Y193732D01*
X26656Y205091D02*
X26658Y205215D01*
X26664Y205339D01*
X26674Y205463D01*
X26687Y205586D01*
X26705Y205709D01*
X26726Y205831D01*
X26751Y205953D01*
X26780Y206074D01*
X26813Y206193D01*
X26849Y206312D01*
X26890Y206429D01*
X26933Y206545D01*
X26981Y206660D01*
X27032Y206773D01*
X27087Y206885D01*
X27145Y206994D01*
X27206Y207102D01*
X27271Y207208D01*
X27339Y207312D01*
X27411Y207413D01*
X27485Y207513D01*
X27563Y207609D01*
X27643Y207704D01*
X27727Y207796D01*
X27813Y207885D01*
X27902Y207971D01*
X27994Y208055D01*
X28089Y208135D01*
X28185Y208213D01*
X28285Y208287D01*
X28386Y208359D01*
X28490Y208427D01*
X28596Y208492D01*
X28704Y208553D01*
X28813Y208611D01*
X28925Y208666D01*
X29038Y208717D01*
X29153Y208765D01*
X29269Y208808D01*
X29386Y208849D01*
X29505Y208885D01*
X29624Y208918D01*
X29745Y208947D01*
X29867Y208972D01*
X29989Y208993D01*
X30112Y209011D01*
X30235Y209024D01*
X30359Y209034D01*
X30483Y209040D01*
X30607Y209042D01*
X30784Y209040D01*
X30960Y209034D01*
X31136Y209023D01*
X31312Y209008D01*
X31488Y208989D01*
X31663Y208966D01*
X31837Y208939D01*
X32011Y208908D01*
X32184Y208872D01*
X32356Y208833D01*
X32527Y208789D01*
X32697Y208741D01*
X32866Y208689D01*
X33033Y208633D01*
X33199Y208574D01*
X33364Y208510D01*
X33527Y208442D01*
X33688Y208371D01*
X33848Y208295D01*
X34006Y208216D01*
X34162Y208133D01*
X34316Y208047D01*
X34468Y207957D01*
X34617Y207863D01*
X34764Y207765D01*
X34909Y207665D01*
X35052Y207560D01*
X28632Y201634D02*
X28527Y201697D01*
X28424Y201764D01*
X28324Y201835D01*
X28226Y201908D01*
X28129Y201984D01*
X28036Y202063D01*
X27945Y202145D01*
X27856Y202229D01*
X27770Y202316D01*
X27686Y202406D01*
X27606Y202498D01*
X27528Y202593D01*
X27453Y202690D01*
X27381Y202790D01*
X27313Y202891D01*
X27247Y202995D01*
X27185Y203100D01*
X27126Y203207D01*
X27070Y203316D01*
X27017Y203427D01*
X26968Y203539D01*
X26922Y203653D01*
X26880Y203768D01*
X26842Y203884D01*
X26807Y204002D01*
X26775Y204120D01*
X26747Y204240D01*
X26723Y204360D01*
X26703Y204481D01*
X26686Y204602D01*
X26673Y204724D01*
X26663Y204846D01*
X26658Y204968D01*
X26656Y205091D01*
X34064Y198670D02*
X34169Y198607D01*
X34272Y198540D01*
X34372Y198469D01*
X34470Y198396D01*
X34567Y198320D01*
X34660Y198241D01*
X34751Y198159D01*
X34840Y198075D01*
X34926Y197988D01*
X35010Y197898D01*
X35090Y197806D01*
X35168Y197711D01*
X35243Y197614D01*
X35315Y197514D01*
X35383Y197413D01*
X35449Y197309D01*
X35511Y197204D01*
X35570Y197097D01*
X35626Y196988D01*
X35679Y196877D01*
X35728Y196765D01*
X35774Y196651D01*
X35816Y196536D01*
X35854Y196420D01*
X35889Y196302D01*
X35921Y196184D01*
X35949Y196064D01*
X35973Y195944D01*
X35993Y195823D01*
X36010Y195702D01*
X36023Y195580D01*
X36033Y195458D01*
X36038Y195336D01*
X36040Y195213D01*
X34064Y198670D02*
X28631Y201634D01*
X42354Y195213D02*
X46305Y209042D01*
X42354Y195213D02*
X52232Y195213D01*
X49269Y199164D02*
X49269Y191262D01*
X181525Y89662D02*
X185476Y89662D01*
X181525Y89662D02*
X181419Y89664D01*
X181314Y89670D01*
X181208Y89679D01*
X181103Y89692D01*
X180999Y89709D01*
X180895Y89730D01*
X180792Y89754D01*
X180690Y89782D01*
X180589Y89814D01*
X180490Y89849D01*
X180391Y89888D01*
X180294Y89930D01*
X180199Y89975D01*
X180105Y90024D01*
X180013Y90077D01*
X179923Y90132D01*
X179835Y90191D01*
X179749Y90253D01*
X179666Y90318D01*
X179585Y90386D01*
X179506Y90456D01*
X179430Y90530D01*
X179356Y90606D01*
X179286Y90685D01*
X179218Y90766D01*
X179153Y90849D01*
X179091Y90935D01*
X179032Y91023D01*
X178977Y91113D01*
X178924Y91205D01*
X178875Y91299D01*
X178830Y91394D01*
X178788Y91491D01*
X178749Y91590D01*
X178714Y91689D01*
X178682Y91790D01*
X178654Y91892D01*
X178630Y91995D01*
X178609Y92099D01*
X178592Y92203D01*
X178579Y92308D01*
X178570Y92414D01*
X178564Y92519D01*
X178562Y92625D01*
X178562Y98552D01*
X178564Y98658D01*
X178570Y98763D01*
X178579Y98869D01*
X178592Y98974D01*
X178609Y99078D01*
X178630Y99182D01*
X178654Y99285D01*
X178682Y99387D01*
X178714Y99488D01*
X178749Y99587D01*
X178788Y99686D01*
X178830Y99783D01*
X178875Y99878D01*
X178924Y99972D01*
X178977Y100064D01*
X179032Y100154D01*
X179091Y100242D01*
X179153Y100328D01*
X179218Y100411D01*
X179286Y100492D01*
X179356Y100571D01*
X179430Y100647D01*
X179506Y100721D01*
X179585Y100791D01*
X179666Y100859D01*
X179749Y100924D01*
X179835Y100986D01*
X179923Y101045D01*
X180013Y101100D01*
X180105Y101153D01*
X180199Y101202D01*
X180294Y101247D01*
X180391Y101289D01*
X180490Y101328D01*
X180589Y101363D01*
X180690Y101395D01*
X180792Y101423D01*
X180895Y101447D01*
X180999Y101468D01*
X181103Y101485D01*
X181208Y101498D01*
X181314Y101507D01*
X181419Y101513D01*
X181525Y101515D01*
X185476Y101515D01*
X191387Y97564D02*
X191387Y93613D01*
X191387Y97564D02*
X191389Y97688D01*
X191395Y97812D01*
X191405Y97936D01*
X191418Y98059D01*
X191436Y98182D01*
X191457Y98304D01*
X191482Y98426D01*
X191511Y98547D01*
X191544Y98666D01*
X191580Y98785D01*
X191621Y98902D01*
X191664Y99018D01*
X191712Y99133D01*
X191763Y99246D01*
X191818Y99358D01*
X191876Y99467D01*
X191937Y99575D01*
X192002Y99681D01*
X192070Y99785D01*
X192142Y99886D01*
X192216Y99986D01*
X192294Y100082D01*
X192374Y100177D01*
X192458Y100269D01*
X192544Y100358D01*
X192633Y100444D01*
X192725Y100528D01*
X192820Y100608D01*
X192916Y100686D01*
X193016Y100760D01*
X193117Y100832D01*
X193221Y100900D01*
X193327Y100965D01*
X193435Y101026D01*
X193544Y101084D01*
X193656Y101139D01*
X193769Y101190D01*
X193884Y101238D01*
X194000Y101281D01*
X194117Y101322D01*
X194236Y101358D01*
X194355Y101391D01*
X194476Y101420D01*
X194598Y101445D01*
X194720Y101466D01*
X194843Y101484D01*
X194966Y101497D01*
X195090Y101507D01*
X195214Y101513D01*
X195338Y101515D01*
X195462Y101513D01*
X195586Y101507D01*
X195710Y101497D01*
X195833Y101484D01*
X195956Y101466D01*
X196078Y101445D01*
X196200Y101420D01*
X196321Y101391D01*
X196440Y101358D01*
X196559Y101322D01*
X196676Y101281D01*
X196792Y101238D01*
X196907Y101190D01*
X197020Y101139D01*
X197132Y101084D01*
X197241Y101026D01*
X197349Y100965D01*
X197455Y100900D01*
X197559Y100832D01*
X197660Y100760D01*
X197760Y100686D01*
X197856Y100608D01*
X197951Y100528D01*
X198043Y100444D01*
X198132Y100358D01*
X198218Y100269D01*
X198302Y100177D01*
X198382Y100082D01*
X198460Y99986D01*
X198534Y99886D01*
X198606Y99785D01*
X198674Y99681D01*
X198739Y99575D01*
X198800Y99467D01*
X198858Y99358D01*
X198913Y99246D01*
X198964Y99133D01*
X199012Y99018D01*
X199055Y98902D01*
X199096Y98785D01*
X199132Y98666D01*
X199165Y98547D01*
X199194Y98426D01*
X199219Y98304D01*
X199240Y98182D01*
X199258Y98059D01*
X199271Y97936D01*
X199281Y97812D01*
X199287Y97688D01*
X199289Y97564D01*
X199289Y93613D01*
X199287Y93489D01*
X199281Y93365D01*
X199271Y93241D01*
X199258Y93118D01*
X199240Y92995D01*
X199219Y92873D01*
X199194Y92751D01*
X199165Y92630D01*
X199132Y92511D01*
X199096Y92392D01*
X199055Y92275D01*
X199012Y92159D01*
X198964Y92044D01*
X198913Y91931D01*
X198858Y91819D01*
X198800Y91710D01*
X198739Y91602D01*
X198674Y91496D01*
X198606Y91392D01*
X198534Y91291D01*
X198460Y91191D01*
X198382Y91095D01*
X198302Y91000D01*
X198218Y90908D01*
X198132Y90819D01*
X198043Y90733D01*
X197951Y90649D01*
X197856Y90569D01*
X197760Y90491D01*
X197660Y90417D01*
X197559Y90345D01*
X197455Y90277D01*
X197349Y90212D01*
X197241Y90151D01*
X197132Y90093D01*
X197020Y90038D01*
X196907Y89987D01*
X196792Y89939D01*
X196676Y89896D01*
X196559Y89855D01*
X196440Y89819D01*
X196321Y89786D01*
X196200Y89757D01*
X196078Y89732D01*
X195956Y89711D01*
X195833Y89693D01*
X195710Y89680D01*
X195586Y89670D01*
X195462Y89664D01*
X195338Y89662D01*
X195214Y89664D01*
X195090Y89670D01*
X194966Y89680D01*
X194843Y89693D01*
X194720Y89711D01*
X194598Y89732D01*
X194476Y89757D01*
X194355Y89786D01*
X194236Y89819D01*
X194117Y89855D01*
X194000Y89896D01*
X193884Y89939D01*
X193769Y89987D01*
X193656Y90038D01*
X193544Y90093D01*
X193435Y90151D01*
X193327Y90212D01*
X193221Y90277D01*
X193117Y90345D01*
X193016Y90417D01*
X192916Y90491D01*
X192820Y90569D01*
X192725Y90649D01*
X192633Y90733D01*
X192544Y90819D01*
X192458Y90908D01*
X192374Y91000D01*
X192294Y91095D01*
X192216Y91191D01*
X192142Y91291D01*
X192070Y91392D01*
X192002Y91496D01*
X191937Y91602D01*
X191876Y91710D01*
X191818Y91819D01*
X191763Y91931D01*
X191712Y92044D01*
X191664Y92159D01*
X191621Y92275D01*
X191580Y92392D01*
X191544Y92511D01*
X191511Y92630D01*
X191482Y92751D01*
X191457Y92873D01*
X191436Y92995D01*
X191418Y93118D01*
X191405Y93241D01*
X191395Y93365D01*
X191389Y93489D01*
X191387Y93613D01*
X206462Y89662D02*
X206462Y101515D01*
X211401Y101515D01*
X211509Y101513D01*
X211617Y101507D01*
X211725Y101497D01*
X211832Y101483D01*
X211939Y101466D01*
X212045Y101444D01*
X212150Y101419D01*
X212255Y101389D01*
X212358Y101356D01*
X212459Y101319D01*
X212560Y101279D01*
X212659Y101235D01*
X212756Y101187D01*
X212851Y101136D01*
X212945Y101081D01*
X213036Y101023D01*
X213125Y100962D01*
X213212Y100897D01*
X213296Y100830D01*
X213378Y100759D01*
X213458Y100685D01*
X213534Y100609D01*
X213608Y100529D01*
X213678Y100447D01*
X213746Y100363D01*
X213811Y100276D01*
X213872Y100187D01*
X213930Y100096D01*
X213985Y100002D01*
X214036Y99907D01*
X214084Y99810D01*
X214128Y99711D01*
X214168Y99610D01*
X214205Y99509D01*
X214238Y99406D01*
X214268Y99301D01*
X214293Y99196D01*
X214315Y99090D01*
X214332Y98983D01*
X214346Y98876D01*
X214356Y98768D01*
X214362Y98660D01*
X214364Y98552D01*
X214365Y98552D02*
X214365Y89662D01*
X222518Y89662D02*
X222518Y104479D01*
X222519Y104479D02*
X222521Y104585D01*
X222527Y104690D01*
X222536Y104796D01*
X222549Y104901D01*
X222566Y105005D01*
X222587Y105109D01*
X222611Y105212D01*
X222639Y105314D01*
X222671Y105415D01*
X222706Y105514D01*
X222745Y105613D01*
X222787Y105710D01*
X222832Y105805D01*
X222881Y105899D01*
X222934Y105991D01*
X222989Y106081D01*
X223048Y106169D01*
X223110Y106255D01*
X223175Y106338D01*
X223243Y106419D01*
X223313Y106498D01*
X223387Y106574D01*
X223463Y106648D01*
X223542Y106718D01*
X223623Y106786D01*
X223706Y106851D01*
X223792Y106913D01*
X223880Y106972D01*
X223970Y107027D01*
X224062Y107080D01*
X224156Y107129D01*
X224251Y107174D01*
X224348Y107216D01*
X224447Y107255D01*
X224546Y107290D01*
X224647Y107322D01*
X224749Y107350D01*
X224852Y107374D01*
X224956Y107395D01*
X225060Y107412D01*
X225165Y107425D01*
X225271Y107434D01*
X225376Y107440D01*
X225482Y107442D01*
X226470Y107442D01*
X226470Y101515D02*
X220543Y101515D01*
X231072Y101515D02*
X231072Y89662D01*
X230579Y106454D02*
X230579Y107442D01*
X231566Y107442D01*
X231566Y106454D01*
X230579Y106454D01*
X240625Y89662D02*
X245564Y89662D01*
X240625Y89662D02*
X240519Y89664D01*
X240414Y89670D01*
X240308Y89679D01*
X240203Y89692D01*
X240099Y89709D01*
X239995Y89730D01*
X239892Y89754D01*
X239790Y89782D01*
X239689Y89814D01*
X239590Y89849D01*
X239491Y89888D01*
X239394Y89930D01*
X239299Y89975D01*
X239205Y90024D01*
X239113Y90077D01*
X239023Y90132D01*
X238935Y90191D01*
X238849Y90253D01*
X238766Y90318D01*
X238685Y90386D01*
X238606Y90456D01*
X238530Y90530D01*
X238456Y90606D01*
X238386Y90685D01*
X238318Y90766D01*
X238253Y90849D01*
X238191Y90935D01*
X238132Y91023D01*
X238077Y91113D01*
X238024Y91205D01*
X237975Y91299D01*
X237930Y91394D01*
X237888Y91491D01*
X237849Y91590D01*
X237814Y91689D01*
X237782Y91790D01*
X237754Y91892D01*
X237730Y91995D01*
X237709Y92099D01*
X237692Y92203D01*
X237679Y92308D01*
X237670Y92414D01*
X237664Y92519D01*
X237662Y92625D01*
X237662Y98552D01*
X237664Y98658D01*
X237670Y98763D01*
X237679Y98869D01*
X237692Y98974D01*
X237709Y99078D01*
X237730Y99182D01*
X237754Y99285D01*
X237782Y99387D01*
X237814Y99488D01*
X237849Y99587D01*
X237888Y99686D01*
X237930Y99783D01*
X237975Y99878D01*
X238024Y99972D01*
X238077Y100064D01*
X238132Y100154D01*
X238191Y100242D01*
X238253Y100328D01*
X238318Y100411D01*
X238386Y100492D01*
X238456Y100571D01*
X238530Y100647D01*
X238606Y100721D01*
X238685Y100791D01*
X238766Y100859D01*
X238849Y100924D01*
X238935Y100986D01*
X239023Y101045D01*
X239113Y101100D01*
X239205Y101153D01*
X239299Y101202D01*
X239394Y101247D01*
X239491Y101289D01*
X239590Y101328D01*
X239689Y101363D01*
X239790Y101395D01*
X239892Y101423D01*
X239995Y101447D01*
X240099Y101468D01*
X240203Y101485D01*
X240308Y101498D01*
X240414Y101507D01*
X240519Y101513D01*
X240625Y101515D01*
X245564Y101515D01*
X245564Y86699D01*
X245563Y86699D02*
X245561Y86591D01*
X245555Y86483D01*
X245545Y86375D01*
X245531Y86268D01*
X245514Y86161D01*
X245492Y86055D01*
X245467Y85950D01*
X245437Y85845D01*
X245404Y85742D01*
X245367Y85641D01*
X245327Y85540D01*
X245283Y85441D01*
X245235Y85344D01*
X245184Y85249D01*
X245129Y85155D01*
X245071Y85064D01*
X245010Y84975D01*
X244945Y84888D01*
X244878Y84804D01*
X244807Y84722D01*
X244733Y84642D01*
X244657Y84566D01*
X244577Y84492D01*
X244495Y84422D01*
X244411Y84354D01*
X244324Y84289D01*
X244235Y84228D01*
X244144Y84170D01*
X244050Y84115D01*
X243955Y84064D01*
X243858Y84016D01*
X243759Y83972D01*
X243658Y83932D01*
X243557Y83895D01*
X243454Y83862D01*
X243349Y83832D01*
X243244Y83807D01*
X243138Y83785D01*
X243031Y83768D01*
X242924Y83754D01*
X242816Y83744D01*
X242708Y83738D01*
X242600Y83736D01*
X242600Y83735D02*
X238649Y83735D01*
X75438Y499025D02*
X75438Y502976D01*
X75438Y499025D02*
X75436Y498919D01*
X75430Y498814D01*
X75421Y498708D01*
X75408Y498603D01*
X75391Y498499D01*
X75370Y498395D01*
X75346Y498292D01*
X75318Y498190D01*
X75286Y498089D01*
X75251Y497990D01*
X75212Y497891D01*
X75170Y497794D01*
X75125Y497699D01*
X75076Y497605D01*
X75023Y497513D01*
X74968Y497423D01*
X74909Y497335D01*
X74847Y497249D01*
X74782Y497166D01*
X74714Y497085D01*
X74644Y497006D01*
X74570Y496930D01*
X74494Y496856D01*
X74415Y496786D01*
X74334Y496718D01*
X74251Y496653D01*
X74165Y496591D01*
X74077Y496532D01*
X73987Y496477D01*
X73895Y496424D01*
X73801Y496375D01*
X73706Y496330D01*
X73609Y496288D01*
X73510Y496249D01*
X73411Y496214D01*
X73310Y496182D01*
X73208Y496154D01*
X73105Y496130D01*
X73001Y496109D01*
X72897Y496092D01*
X72792Y496079D01*
X72686Y496070D01*
X72581Y496064D01*
X72475Y496062D01*
X66548Y496062D01*
X66442Y496064D01*
X66337Y496070D01*
X66231Y496079D01*
X66126Y496092D01*
X66022Y496109D01*
X65918Y496130D01*
X65815Y496154D01*
X65713Y496182D01*
X65612Y496214D01*
X65513Y496249D01*
X65414Y496288D01*
X65317Y496330D01*
X65222Y496375D01*
X65128Y496424D01*
X65036Y496477D01*
X64946Y496532D01*
X64858Y496591D01*
X64772Y496653D01*
X64689Y496718D01*
X64608Y496786D01*
X64529Y496856D01*
X64453Y496930D01*
X64379Y497006D01*
X64309Y497085D01*
X64241Y497166D01*
X64176Y497249D01*
X64114Y497335D01*
X64055Y497423D01*
X64000Y497513D01*
X63947Y497605D01*
X63898Y497699D01*
X63853Y497794D01*
X63811Y497891D01*
X63772Y497990D01*
X63737Y498089D01*
X63705Y498190D01*
X63677Y498292D01*
X63653Y498395D01*
X63632Y498499D01*
X63615Y498603D01*
X63602Y498708D01*
X63593Y498814D01*
X63587Y498919D01*
X63585Y499025D01*
X63585Y502976D01*
X67536Y508887D02*
X71487Y508887D01*
X67536Y508887D02*
X67412Y508889D01*
X67288Y508895D01*
X67164Y508905D01*
X67041Y508918D01*
X66918Y508936D01*
X66796Y508957D01*
X66674Y508982D01*
X66553Y509011D01*
X66434Y509044D01*
X66315Y509080D01*
X66198Y509121D01*
X66082Y509164D01*
X65967Y509212D01*
X65854Y509263D01*
X65742Y509318D01*
X65633Y509376D01*
X65525Y509437D01*
X65419Y509502D01*
X65315Y509570D01*
X65214Y509642D01*
X65114Y509716D01*
X65018Y509794D01*
X64923Y509874D01*
X64831Y509958D01*
X64742Y510044D01*
X64656Y510133D01*
X64572Y510225D01*
X64492Y510320D01*
X64414Y510416D01*
X64340Y510516D01*
X64268Y510617D01*
X64200Y510721D01*
X64135Y510827D01*
X64074Y510935D01*
X64016Y511044D01*
X63961Y511156D01*
X63910Y511269D01*
X63862Y511384D01*
X63819Y511500D01*
X63778Y511617D01*
X63742Y511736D01*
X63709Y511855D01*
X63680Y511976D01*
X63655Y512098D01*
X63634Y512220D01*
X63616Y512343D01*
X63603Y512466D01*
X63593Y512590D01*
X63587Y512714D01*
X63585Y512838D01*
X63587Y512962D01*
X63593Y513086D01*
X63603Y513210D01*
X63616Y513333D01*
X63634Y513456D01*
X63655Y513578D01*
X63680Y513700D01*
X63709Y513821D01*
X63742Y513940D01*
X63778Y514059D01*
X63819Y514176D01*
X63862Y514292D01*
X63910Y514407D01*
X63961Y514520D01*
X64016Y514632D01*
X64074Y514741D01*
X64135Y514849D01*
X64200Y514955D01*
X64268Y515059D01*
X64340Y515160D01*
X64414Y515260D01*
X64492Y515356D01*
X64572Y515451D01*
X64656Y515543D01*
X64742Y515632D01*
X64831Y515718D01*
X64923Y515802D01*
X65018Y515882D01*
X65114Y515960D01*
X65214Y516034D01*
X65315Y516106D01*
X65419Y516174D01*
X65525Y516239D01*
X65633Y516300D01*
X65742Y516358D01*
X65854Y516413D01*
X65967Y516464D01*
X66082Y516512D01*
X66198Y516555D01*
X66315Y516596D01*
X66434Y516632D01*
X66553Y516665D01*
X66674Y516694D01*
X66796Y516719D01*
X66918Y516740D01*
X67041Y516758D01*
X67164Y516771D01*
X67288Y516781D01*
X67412Y516787D01*
X67536Y516789D01*
X71487Y516789D01*
X71611Y516787D01*
X71735Y516781D01*
X71859Y516771D01*
X71982Y516758D01*
X72105Y516740D01*
X72227Y516719D01*
X72349Y516694D01*
X72470Y516665D01*
X72589Y516632D01*
X72708Y516596D01*
X72825Y516555D01*
X72941Y516512D01*
X73056Y516464D01*
X73169Y516413D01*
X73281Y516358D01*
X73390Y516300D01*
X73498Y516239D01*
X73604Y516174D01*
X73708Y516106D01*
X73809Y516034D01*
X73909Y515960D01*
X74005Y515882D01*
X74100Y515802D01*
X74192Y515718D01*
X74281Y515632D01*
X74367Y515543D01*
X74451Y515451D01*
X74531Y515356D01*
X74609Y515260D01*
X74683Y515160D01*
X74755Y515059D01*
X74823Y514955D01*
X74888Y514849D01*
X74949Y514741D01*
X75007Y514632D01*
X75062Y514520D01*
X75113Y514407D01*
X75161Y514292D01*
X75204Y514176D01*
X75245Y514059D01*
X75281Y513940D01*
X75314Y513821D01*
X75343Y513700D01*
X75368Y513578D01*
X75389Y513456D01*
X75407Y513333D01*
X75420Y513210D01*
X75430Y513086D01*
X75436Y512962D01*
X75438Y512838D01*
X75436Y512714D01*
X75430Y512590D01*
X75420Y512466D01*
X75407Y512343D01*
X75389Y512220D01*
X75368Y512098D01*
X75343Y511976D01*
X75314Y511855D01*
X75281Y511736D01*
X75245Y511617D01*
X75204Y511500D01*
X75161Y511384D01*
X75113Y511269D01*
X75062Y511156D01*
X75007Y511044D01*
X74949Y510935D01*
X74888Y510827D01*
X74823Y510721D01*
X74755Y510617D01*
X74683Y510516D01*
X74609Y510416D01*
X74531Y510320D01*
X74451Y510225D01*
X74367Y510133D01*
X74281Y510044D01*
X74192Y509958D01*
X74100Y509874D01*
X74005Y509794D01*
X73909Y509716D01*
X73809Y509642D01*
X73708Y509570D01*
X73604Y509502D01*
X73498Y509437D01*
X73390Y509376D01*
X73281Y509318D01*
X73169Y509263D01*
X73056Y509212D01*
X72941Y509164D01*
X72825Y509121D01*
X72708Y509080D01*
X72589Y509044D01*
X72470Y509011D01*
X72349Y508982D01*
X72227Y508957D01*
X72105Y508936D01*
X71982Y508918D01*
X71859Y508905D01*
X71735Y508895D01*
X71611Y508889D01*
X71487Y508887D01*
X75438Y523962D02*
X63585Y523962D01*
X63585Y528901D01*
X63587Y529009D01*
X63593Y529117D01*
X63603Y529225D01*
X63617Y529332D01*
X63634Y529439D01*
X63656Y529545D01*
X63681Y529650D01*
X63711Y529755D01*
X63744Y529858D01*
X63781Y529959D01*
X63821Y530060D01*
X63865Y530159D01*
X63913Y530256D01*
X63964Y530351D01*
X64019Y530445D01*
X64077Y530536D01*
X64138Y530625D01*
X64203Y530712D01*
X64270Y530796D01*
X64341Y530878D01*
X64415Y530958D01*
X64491Y531034D01*
X64571Y531108D01*
X64653Y531178D01*
X64737Y531246D01*
X64824Y531311D01*
X64913Y531372D01*
X65004Y531430D01*
X65098Y531485D01*
X65193Y531536D01*
X65290Y531584D01*
X65389Y531628D01*
X65490Y531668D01*
X65591Y531705D01*
X65694Y531738D01*
X65799Y531768D01*
X65904Y531793D01*
X66010Y531815D01*
X66117Y531832D01*
X66224Y531846D01*
X66332Y531856D01*
X66440Y531862D01*
X66548Y531864D01*
X66548Y531865D02*
X75438Y531865D01*
X75438Y540018D02*
X60621Y540018D01*
X60621Y540019D02*
X60515Y540021D01*
X60410Y540027D01*
X60304Y540036D01*
X60199Y540049D01*
X60095Y540066D01*
X59991Y540087D01*
X59888Y540111D01*
X59786Y540139D01*
X59685Y540171D01*
X59586Y540206D01*
X59487Y540245D01*
X59390Y540287D01*
X59295Y540332D01*
X59201Y540381D01*
X59109Y540434D01*
X59019Y540489D01*
X58931Y540548D01*
X58845Y540610D01*
X58762Y540675D01*
X58681Y540743D01*
X58602Y540813D01*
X58526Y540887D01*
X58452Y540963D01*
X58382Y541042D01*
X58314Y541123D01*
X58249Y541206D01*
X58187Y541292D01*
X58128Y541380D01*
X58073Y541470D01*
X58020Y541562D01*
X57971Y541656D01*
X57926Y541751D01*
X57884Y541848D01*
X57845Y541947D01*
X57810Y542046D01*
X57778Y542147D01*
X57750Y542249D01*
X57726Y542352D01*
X57705Y542456D01*
X57688Y542560D01*
X57675Y542665D01*
X57666Y542771D01*
X57660Y542876D01*
X57658Y542982D01*
X57658Y543970D01*
X63585Y543970D02*
X63585Y538043D01*
X63585Y548572D02*
X75438Y548572D01*
X58646Y548079D02*
X57658Y548079D01*
X57658Y549066D01*
X58646Y549066D01*
X58646Y548079D01*
X75438Y558125D02*
X75438Y563064D01*
X75438Y558125D02*
X75436Y558019D01*
X75430Y557914D01*
X75421Y557808D01*
X75408Y557703D01*
X75391Y557599D01*
X75370Y557495D01*
X75346Y557392D01*
X75318Y557290D01*
X75286Y557189D01*
X75251Y557090D01*
X75212Y556991D01*
X75170Y556894D01*
X75125Y556799D01*
X75076Y556705D01*
X75023Y556613D01*
X74968Y556523D01*
X74909Y556435D01*
X74847Y556349D01*
X74782Y556266D01*
X74714Y556185D01*
X74644Y556106D01*
X74570Y556030D01*
X74494Y555956D01*
X74415Y555886D01*
X74334Y555818D01*
X74251Y555753D01*
X74165Y555691D01*
X74077Y555632D01*
X73987Y555577D01*
X73895Y555524D01*
X73801Y555475D01*
X73706Y555430D01*
X73609Y555388D01*
X73510Y555349D01*
X73411Y555314D01*
X73310Y555282D01*
X73208Y555254D01*
X73105Y555230D01*
X73001Y555209D01*
X72897Y555192D01*
X72792Y555179D01*
X72686Y555170D01*
X72581Y555164D01*
X72475Y555162D01*
X66548Y555162D01*
X66442Y555164D01*
X66337Y555170D01*
X66231Y555179D01*
X66126Y555192D01*
X66022Y555209D01*
X65918Y555230D01*
X65815Y555254D01*
X65713Y555282D01*
X65612Y555314D01*
X65513Y555349D01*
X65414Y555388D01*
X65317Y555430D01*
X65222Y555475D01*
X65128Y555524D01*
X65036Y555577D01*
X64946Y555632D01*
X64858Y555691D01*
X64772Y555753D01*
X64689Y555818D01*
X64608Y555886D01*
X64529Y555956D01*
X64453Y556030D01*
X64379Y556106D01*
X64309Y556185D01*
X64241Y556266D01*
X64176Y556349D01*
X64114Y556435D01*
X64055Y556523D01*
X64000Y556613D01*
X63947Y556705D01*
X63898Y556799D01*
X63853Y556894D01*
X63811Y556991D01*
X63772Y557090D01*
X63737Y557189D01*
X63705Y557290D01*
X63677Y557392D01*
X63653Y557495D01*
X63632Y557599D01*
X63615Y557703D01*
X63602Y557808D01*
X63593Y557914D01*
X63587Y558019D01*
X63585Y558125D01*
X63585Y563064D01*
X78401Y563064D01*
X78401Y563063D02*
X78507Y563061D01*
X78612Y563055D01*
X78718Y563046D01*
X78823Y563033D01*
X78927Y563016D01*
X79031Y562995D01*
X79134Y562971D01*
X79236Y562943D01*
X79337Y562911D01*
X79436Y562876D01*
X79535Y562837D01*
X79632Y562795D01*
X79727Y562750D01*
X79821Y562701D01*
X79913Y562648D01*
X80003Y562593D01*
X80091Y562534D01*
X80177Y562472D01*
X80260Y562407D01*
X80341Y562339D01*
X80420Y562269D01*
X80496Y562195D01*
X80570Y562119D01*
X80640Y562040D01*
X80708Y561959D01*
X80773Y561876D01*
X80835Y561790D01*
X80894Y561702D01*
X80949Y561612D01*
X81002Y561520D01*
X81051Y561426D01*
X81096Y561331D01*
X81138Y561234D01*
X81177Y561135D01*
X81212Y561036D01*
X81244Y560935D01*
X81272Y560833D01*
X81296Y560730D01*
X81317Y560626D01*
X81334Y560522D01*
X81347Y560417D01*
X81356Y560311D01*
X81362Y560206D01*
X81364Y560100D01*
X81365Y560100D02*
X81365Y556149D01*
D12*
X730885Y254000D03*
D13*
X705485Y254000D03*
D14*
X197485Y946912D02*
X172085Y946912D01*
X172085Y721868D02*
X197485Y721868D01*
X691515Y946912D02*
X716915Y946912D01*
X716915Y721868D02*
X691515Y721868D01*
D15*
X904240Y916940D03*
X904240Y891540D03*
X955675Y916940D03*
X955675Y891540D03*
D16*
X903605Y723900D03*
X903605Y825500D03*
X955040Y723265D03*
X955040Y824865D03*
D17*
X146177Y425069D03*
X81153Y425069D03*
X146177Y470281D03*
X81153Y470281D03*
D18*
X698500Y212240D03*
X698500Y192240D03*
X698500Y172240D03*
X698500Y152240D03*
X698500Y132240D03*
X698500Y112240D03*
X698500Y92240D03*
X698500Y72240D03*
D19*
X422275Y512255D02*
X422275Y525335D01*
X447675Y525335D02*
X447675Y512255D01*
X473075Y512255D02*
X473075Y525335D01*
X498475Y525335D02*
X498475Y512255D01*
X523875Y512255D02*
X523875Y525335D01*
X549275Y525335D02*
X549275Y512255D01*
X416115Y493395D02*
X403035Y493395D01*
X403035Y467995D02*
X416115Y467995D01*
X416115Y442595D02*
X403035Y442595D01*
X403035Y417195D02*
X416115Y417195D01*
X416115Y391795D02*
X403035Y391795D01*
X403035Y366395D02*
X416115Y366395D01*
X416115Y340995D02*
X403035Y340995D01*
X403035Y315595D02*
X416115Y315595D01*
X416115Y290195D02*
X403035Y290195D01*
X403035Y264795D02*
X416115Y264795D01*
X416115Y239395D02*
X403035Y239395D01*
X403035Y213995D02*
X416115Y213995D01*
X555435Y493395D02*
X568515Y493395D01*
X568515Y467995D02*
X555435Y467995D01*
X555435Y442595D02*
X568515Y442595D01*
X568515Y417195D02*
X555435Y417195D01*
X555435Y391795D02*
X568515Y391795D01*
X568515Y366395D02*
X555435Y366395D01*
X555435Y340995D02*
X568515Y340995D01*
X568515Y315595D02*
X555435Y315595D01*
X555435Y290195D02*
X568515Y290195D01*
X568515Y264795D02*
X555435Y264795D01*
X555435Y239395D02*
X568515Y239395D01*
X568515Y213995D02*
X555435Y213995D01*
X523875Y220535D02*
X523875Y207455D01*
X498475Y207455D02*
X498475Y220535D01*
X473075Y220535D02*
X473075Y207455D01*
D20*
X523875Y404495D03*
X523875Y379095D03*
D21*
X276000Y808900D03*
X276000Y867900D03*
X612000Y928900D03*
X612000Y748900D03*
D22*
X1007491Y437515D02*
X1020699Y437515D01*
X1020699Y412115D02*
X1007491Y412115D01*
X1007491Y285115D02*
X1020699Y285115D01*
X1020699Y259715D02*
X1007491Y259715D01*
X1007491Y386715D02*
X1020699Y386715D01*
X1020699Y361315D02*
X1007491Y361315D01*
X1007491Y310515D02*
X1020699Y310515D01*
X1020699Y335915D02*
X1007491Y335915D01*
X1007491Y234315D02*
X1020699Y234315D01*
X1083691Y234315D02*
X1096899Y234315D01*
X1096899Y259715D02*
X1083691Y259715D01*
X1083691Y285115D02*
X1096899Y285115D01*
X1096899Y310515D02*
X1083691Y310515D01*
X1083691Y335915D02*
X1096899Y335915D01*
X1096899Y361315D02*
X1083691Y361315D01*
X1083691Y386715D02*
X1096899Y386715D01*
X1096899Y412115D02*
X1083691Y412115D01*
X1083691Y437515D02*
X1096899Y437515D01*
D17*
X146177Y346329D03*
X81153Y346329D03*
X146177Y391541D03*
X81153Y391541D03*
X146812Y259969D03*
X81788Y259969D03*
X146812Y305181D03*
X81788Y305181D03*
X146812Y173609D03*
X81788Y173609D03*
X146812Y218821D03*
X81788Y218821D03*
X151892Y80899D03*
X86868Y80899D03*
X151892Y126111D03*
X86868Y126111D03*
D16*
X1005840Y724535D03*
X1005840Y826135D03*
X1054100Y723900D03*
X1054100Y825500D03*
D15*
X1005840Y917575D03*
X1005840Y892175D03*
X1054100Y917575D03*
X1054100Y892175D03*
D23*
X295910Y525145D03*
X194310Y525145D03*
D24*
X93980Y525780D03*
X119380Y525780D03*
D25*
X105728Y867410D02*
X84773Y867410D01*
X84773Y816610D02*
X105728Y816610D01*
D26*
X94742Y605790D02*
X80518Y605790D01*
X80518Y631190D02*
X94742Y631190D01*
D27*
X1419920Y731280D03*
X1299920Y851280D03*
X1279920Y791280D03*
X1419920Y851280D03*
X1299920Y731280D03*
X1420555Y544590D03*
X1300555Y664590D03*
X1280555Y604590D03*
X1420555Y664590D03*
X1300555Y544590D03*
X1420555Y358535D03*
X1300555Y478535D03*
X1280555Y418535D03*
X1420555Y478535D03*
X1300555Y358535D03*
X1420555Y173115D03*
X1300555Y293115D03*
X1280555Y233115D03*
X1420555Y293115D03*
X1300555Y173115D03*
D25*
X1516063Y739775D02*
X1537018Y739775D01*
X1537018Y790575D02*
X1516063Y790575D01*
X1516063Y841375D02*
X1537018Y841375D01*
X1537653Y554355D02*
X1516698Y554355D01*
X1516698Y605155D02*
X1537653Y605155D01*
X1537653Y655955D02*
X1516698Y655955D01*
X1517333Y368300D02*
X1538288Y368300D01*
X1538288Y419100D02*
X1517333Y419100D01*
X1517333Y469900D02*
X1538288Y469900D01*
X1538288Y181610D02*
X1517333Y181610D01*
X1517333Y232410D02*
X1538288Y232410D01*
X1538288Y283210D02*
X1517333Y283210D01*
D28*
X1014095Y437515D02*
X852805Y437515D01*
X750570Y539750D01*
X749935Y540385D01*
D29*
X750570Y539750D03*
D28*
X824230Y412115D02*
X1014095Y412115D01*
X824230Y412115D02*
X746125Y490220D01*
X746125Y489585D01*
X746760Y488950D01*
D29*
X746760Y488950D03*
D28*
X746125Y437515D02*
X745490Y437515D01*
X746125Y438150D01*
D29*
X746125Y438150D03*
D28*
X796290Y386715D02*
X1014095Y386715D01*
X796290Y386715D02*
X745490Y437515D01*
D29*
X730885Y314325D03*
D28*
X577215Y467995D01*
X561975Y467995D01*
X1299920Y731280D02*
X1324215Y731280D01*
X1346835Y708660D01*
X1346835Y563245D01*
X1327785Y544195D01*
X1300950Y544195D02*
X1300555Y544590D01*
X1300950Y544195D02*
X1327785Y544195D01*
X1324215Y544590D02*
X1300555Y544590D01*
X1324215Y544590D02*
X1348740Y520065D01*
X1348740Y372745D01*
X1334135Y358140D01*
X1300950Y358140D02*
X1300555Y358535D01*
X1300950Y358140D02*
X1334135Y358140D01*
X1332470Y358535D02*
X1300555Y358535D01*
X1332470Y358535D02*
X1351280Y339725D01*
X1351280Y194945D01*
X1329690Y173355D01*
X1300795Y173355D01*
X1300555Y173115D01*
X1176020Y234315D02*
X1090295Y234315D01*
X1176020Y234315D02*
X1237615Y172720D01*
X1300160Y172720D01*
X1300555Y173115D01*
X704215Y635635D02*
X561975Y493395D01*
X704215Y635635D02*
X704215Y721868D01*
X746252Y763905D01*
X1267295Y763905D02*
X1299920Y731280D01*
X1267295Y763905D02*
X746252Y763905D01*
X704215Y841115D02*
X612000Y748900D01*
X704215Y841115D02*
X704215Y946912D01*
X705485Y301625D02*
X705485Y254000D01*
X705485Y301625D02*
X589280Y417830D01*
X562610Y417830D01*
X561975Y417195D01*
D29*
X666115Y199390D03*
D28*
X666115Y136525D01*
X666750Y135890D01*
X666750Y136525D01*
D29*
X666750Y136525D03*
X632460Y246380D03*
D28*
X632460Y158115D01*
X633095Y157480D01*
X632460Y157480D01*
D29*
X632460Y157480D03*
M02*
