G04 EAGLE Gerber RS-274X export*
G75*
%MOMM*%
%FSLAX34Y34*%
%LPD*%
%INSoldermask Top*%
%IPPOS*%
%AMOC8*
5,1,8,0,0,1.08239X$1,22.5*%
G01*
%ADD10C,3.703200*%
%ADD11P,1.951982X8X22.500000*%
%ADD12C,1.803400*%
%ADD13C,2.743200*%
%ADD14P,1.649562X8X292.500000*%
%ADD15P,1.649562X8X112.500000*%
%ADD16C,1.625600*%
%ADD17C,1.511200*%
%ADD18C,1.511200*%
%ADD19R,1.511200X1.511200*%
%ADD20C,1.524000*%
%ADD21P,1.649562X8X202.500000*%
%ADD22P,1.649562X8X22.500000*%
%ADD23C,2.298700*%
%ADD24C,1.625600*%
%ADD25C,1.611200*%
%ADD26C,0.959600*%

G36*
X147285Y420105D02*
X147285Y420105D01*
X147333Y420119D01*
X147423Y420137D01*
X148332Y420458D01*
X148376Y420483D01*
X148460Y420520D01*
X149275Y421035D01*
X149312Y421069D01*
X149385Y421124D01*
X150065Y421808D01*
X150094Y421849D01*
X150153Y421919D01*
X150664Y422737D01*
X150682Y422784D01*
X150725Y422865D01*
X151040Y423776D01*
X151048Y423826D01*
X151072Y423915D01*
X151177Y424873D01*
X151174Y424903D01*
X151180Y424942D01*
X151180Y425043D01*
X151175Y425071D01*
X151177Y425107D01*
X151078Y426080D01*
X151065Y426129D01*
X151048Y426219D01*
X150736Y427146D01*
X150711Y427190D01*
X150676Y427275D01*
X150165Y428109D01*
X150131Y428147D01*
X150077Y428221D01*
X149393Y428921D01*
X149352Y428950D01*
X149283Y429010D01*
X148461Y429540D01*
X148414Y429560D01*
X148334Y429604D01*
X147414Y429937D01*
X147365Y429946D01*
X147276Y429971D01*
X146305Y430091D01*
X146295Y430091D01*
X146283Y430094D01*
X145980Y430121D01*
X145930Y430116D01*
X145831Y430116D01*
X144874Y429974D01*
X144826Y429958D01*
X144736Y429938D01*
X143834Y429586D01*
X143791Y429560D01*
X143709Y429520D01*
X142908Y428977D01*
X142872Y428941D01*
X142800Y428884D01*
X142140Y428176D01*
X142113Y428134D01*
X142056Y428062D01*
X141570Y427225D01*
X141553Y427177D01*
X141513Y427094D01*
X141226Y426170D01*
X141220Y426120D01*
X141199Y426030D01*
X141133Y425165D01*
X141131Y425157D01*
X141131Y425139D01*
X141128Y425098D01*
X141124Y425069D01*
X141124Y425017D01*
X141129Y424990D01*
X141232Y424023D01*
X141246Y423975D01*
X141263Y423884D01*
X141582Y422954D01*
X141607Y422910D01*
X141643Y422825D01*
X142162Y421989D01*
X142195Y421952D01*
X142250Y421878D01*
X142941Y421178D01*
X142983Y421149D01*
X143052Y421088D01*
X143882Y420560D01*
X143929Y420541D01*
X144010Y420498D01*
X144937Y420167D01*
X144987Y420159D01*
X145075Y420135D01*
X146028Y420022D01*
X146132Y420002D01*
X146136Y420002D01*
X146139Y420000D01*
X146327Y419994D01*
X147285Y420105D01*
G37*
G36*
X147285Y341365D02*
X147285Y341365D01*
X147333Y341379D01*
X147423Y341397D01*
X148332Y341718D01*
X148376Y341743D01*
X148460Y341780D01*
X149275Y342295D01*
X149312Y342329D01*
X149385Y342384D01*
X150065Y343068D01*
X150094Y343109D01*
X150153Y343179D01*
X150664Y343997D01*
X150682Y344044D01*
X150725Y344125D01*
X151040Y345036D01*
X151048Y345086D01*
X151072Y345175D01*
X151177Y346133D01*
X151174Y346163D01*
X151180Y346202D01*
X151180Y346303D01*
X151175Y346331D01*
X151177Y346367D01*
X151078Y347340D01*
X151065Y347389D01*
X151048Y347479D01*
X150736Y348406D01*
X150711Y348450D01*
X150676Y348535D01*
X150165Y349369D01*
X150131Y349407D01*
X150077Y349481D01*
X149393Y350181D01*
X149352Y350210D01*
X149283Y350270D01*
X148461Y350800D01*
X148414Y350820D01*
X148334Y350864D01*
X147414Y351197D01*
X147365Y351206D01*
X147276Y351231D01*
X146305Y351351D01*
X146295Y351351D01*
X146283Y351354D01*
X145980Y351381D01*
X145930Y351376D01*
X145831Y351376D01*
X144874Y351234D01*
X144826Y351218D01*
X144736Y351198D01*
X143834Y350846D01*
X143791Y350820D01*
X143709Y350780D01*
X142908Y350237D01*
X142872Y350201D01*
X142800Y350144D01*
X142140Y349436D01*
X142113Y349394D01*
X142056Y349322D01*
X141570Y348485D01*
X141553Y348437D01*
X141513Y348354D01*
X141226Y347430D01*
X141220Y347380D01*
X141199Y347290D01*
X141133Y346425D01*
X141131Y346417D01*
X141131Y346399D01*
X141128Y346358D01*
X141124Y346329D01*
X141124Y346277D01*
X141129Y346250D01*
X141232Y345283D01*
X141246Y345235D01*
X141263Y345144D01*
X141582Y344214D01*
X141607Y344170D01*
X141643Y344085D01*
X142162Y343249D01*
X142195Y343212D01*
X142250Y343138D01*
X142941Y342438D01*
X142983Y342409D01*
X143052Y342348D01*
X143882Y341820D01*
X143929Y341801D01*
X144010Y341758D01*
X144937Y341427D01*
X144987Y341419D01*
X145075Y341395D01*
X146028Y341282D01*
X146132Y341262D01*
X146136Y341262D01*
X146139Y341260D01*
X146327Y341254D01*
X147285Y341365D01*
G37*
G36*
X82845Y213908D02*
X82845Y213908D01*
X82893Y213922D01*
X82983Y213940D01*
X83892Y214261D01*
X83936Y214286D01*
X84020Y214323D01*
X84835Y214838D01*
X84872Y214872D01*
X84945Y214927D01*
X85625Y215611D01*
X85654Y215652D01*
X85713Y215722D01*
X86224Y216540D01*
X86242Y216587D01*
X86285Y216668D01*
X86600Y217579D01*
X86608Y217629D01*
X86632Y217718D01*
X86737Y218676D01*
X86734Y218706D01*
X86740Y218745D01*
X86740Y218846D01*
X86735Y218874D01*
X86737Y218910D01*
X86638Y219883D01*
X86625Y219932D01*
X86608Y220022D01*
X86296Y220949D01*
X86271Y220993D01*
X86236Y221078D01*
X85725Y221912D01*
X85691Y221950D01*
X85637Y222024D01*
X84953Y222724D01*
X84912Y222753D01*
X84843Y222813D01*
X84021Y223343D01*
X83974Y223363D01*
X83894Y223407D01*
X82974Y223740D01*
X82925Y223749D01*
X82836Y223774D01*
X81865Y223894D01*
X81855Y223894D01*
X81843Y223897D01*
X81540Y223924D01*
X81490Y223919D01*
X81391Y223919D01*
X80434Y223777D01*
X80386Y223761D01*
X80296Y223741D01*
X79394Y223389D01*
X79351Y223363D01*
X79269Y223323D01*
X78468Y222780D01*
X78432Y222744D01*
X78360Y222687D01*
X77700Y221979D01*
X77673Y221937D01*
X77616Y221865D01*
X77130Y221028D01*
X77113Y220980D01*
X77073Y220897D01*
X76786Y219973D01*
X76780Y219923D01*
X76759Y219833D01*
X76693Y218968D01*
X76691Y218960D01*
X76691Y218942D01*
X76688Y218901D01*
X76684Y218872D01*
X76684Y218820D01*
X76689Y218793D01*
X76792Y217826D01*
X76806Y217778D01*
X76823Y217687D01*
X77142Y216757D01*
X77167Y216713D01*
X77203Y216628D01*
X77722Y215792D01*
X77755Y215755D01*
X77810Y215681D01*
X78501Y214981D01*
X78543Y214952D01*
X78612Y214891D01*
X79442Y214363D01*
X79489Y214344D01*
X79570Y214301D01*
X80497Y213970D01*
X80547Y213962D01*
X80635Y213938D01*
X81588Y213825D01*
X81692Y213805D01*
X81696Y213805D01*
X81699Y213803D01*
X81887Y213797D01*
X82845Y213908D01*
G37*
G36*
X147234Y465393D02*
X147234Y465393D01*
X147282Y465407D01*
X147372Y465425D01*
X148281Y465746D01*
X148325Y465771D01*
X148409Y465808D01*
X149224Y466323D01*
X149261Y466357D01*
X149334Y466412D01*
X150014Y467096D01*
X150043Y467137D01*
X150102Y467207D01*
X150613Y468025D01*
X150631Y468072D01*
X150674Y468153D01*
X150989Y469064D01*
X150997Y469114D01*
X151021Y469203D01*
X151126Y470161D01*
X151123Y470191D01*
X151129Y470230D01*
X151129Y470331D01*
X151124Y470359D01*
X151126Y470395D01*
X151027Y471368D01*
X151014Y471417D01*
X150997Y471507D01*
X150685Y472434D01*
X150660Y472478D01*
X150625Y472563D01*
X150114Y473397D01*
X150080Y473435D01*
X150026Y473509D01*
X149342Y474209D01*
X149301Y474238D01*
X149232Y474298D01*
X148410Y474828D01*
X148363Y474848D01*
X148283Y474892D01*
X147363Y475225D01*
X147314Y475234D01*
X147225Y475259D01*
X146254Y475379D01*
X146244Y475379D01*
X146232Y475382D01*
X145929Y475409D01*
X145879Y475404D01*
X145780Y475404D01*
X144823Y475262D01*
X144775Y475246D01*
X144685Y475226D01*
X143783Y474874D01*
X143740Y474848D01*
X143658Y474808D01*
X142857Y474265D01*
X142821Y474229D01*
X142749Y474172D01*
X142089Y473464D01*
X142062Y473422D01*
X142005Y473350D01*
X141519Y472513D01*
X141502Y472465D01*
X141462Y472382D01*
X141175Y471458D01*
X141169Y471408D01*
X141148Y471318D01*
X141082Y470453D01*
X141080Y470445D01*
X141080Y470427D01*
X141077Y470386D01*
X141073Y470357D01*
X141073Y470305D01*
X141078Y470278D01*
X141181Y469311D01*
X141195Y469263D01*
X141212Y469172D01*
X141531Y468242D01*
X141556Y468198D01*
X141592Y468113D01*
X142111Y467277D01*
X142144Y467240D01*
X142199Y467166D01*
X142890Y466466D01*
X142932Y466437D01*
X143001Y466376D01*
X143831Y465848D01*
X143878Y465829D01*
X143959Y465786D01*
X144886Y465455D01*
X144936Y465447D01*
X145024Y465423D01*
X145977Y465310D01*
X146081Y465290D01*
X146085Y465290D01*
X146088Y465288D01*
X146276Y465282D01*
X147234Y465393D01*
G37*
G36*
X82210Y465368D02*
X82210Y465368D01*
X82258Y465382D01*
X82348Y465400D01*
X83257Y465721D01*
X83301Y465746D01*
X83385Y465783D01*
X84200Y466298D01*
X84237Y466332D01*
X84310Y466387D01*
X84990Y467071D01*
X85019Y467112D01*
X85078Y467182D01*
X85589Y468000D01*
X85607Y468047D01*
X85650Y468128D01*
X85965Y469039D01*
X85973Y469089D01*
X85997Y469178D01*
X86102Y470136D01*
X86099Y470166D01*
X86105Y470205D01*
X86105Y470306D01*
X86100Y470334D01*
X86102Y470370D01*
X86003Y471343D01*
X85990Y471392D01*
X85973Y471482D01*
X85661Y472409D01*
X85636Y472453D01*
X85601Y472538D01*
X85090Y473372D01*
X85056Y473410D01*
X85002Y473484D01*
X84318Y474184D01*
X84277Y474213D01*
X84208Y474273D01*
X83386Y474803D01*
X83339Y474823D01*
X83259Y474867D01*
X82339Y475200D01*
X82290Y475209D01*
X82201Y475234D01*
X81230Y475354D01*
X81220Y475354D01*
X81208Y475357D01*
X80905Y475384D01*
X80855Y475379D01*
X80756Y475379D01*
X79799Y475237D01*
X79751Y475221D01*
X79661Y475201D01*
X78759Y474849D01*
X78716Y474823D01*
X78634Y474783D01*
X77833Y474240D01*
X77797Y474204D01*
X77725Y474147D01*
X77065Y473439D01*
X77038Y473397D01*
X76981Y473325D01*
X76495Y472488D01*
X76478Y472440D01*
X76438Y472357D01*
X76151Y471433D01*
X76145Y471383D01*
X76124Y471293D01*
X76058Y470428D01*
X76056Y470420D01*
X76056Y470402D01*
X76053Y470361D01*
X76049Y470332D01*
X76049Y470280D01*
X76054Y470253D01*
X76157Y469286D01*
X76171Y469238D01*
X76188Y469147D01*
X76507Y468217D01*
X76532Y468173D01*
X76568Y468088D01*
X77087Y467252D01*
X77120Y467215D01*
X77175Y467141D01*
X77866Y466441D01*
X77908Y466412D01*
X77977Y466351D01*
X78807Y465823D01*
X78854Y465804D01*
X78935Y465761D01*
X79862Y465430D01*
X79912Y465422D01*
X80000Y465398D01*
X80953Y465285D01*
X81057Y465265D01*
X81061Y465265D01*
X81064Y465263D01*
X81252Y465257D01*
X82210Y465368D01*
G37*
G36*
X82210Y420130D02*
X82210Y420130D01*
X82258Y420144D01*
X82348Y420162D01*
X83257Y420483D01*
X83301Y420508D01*
X83385Y420545D01*
X84200Y421060D01*
X84237Y421094D01*
X84310Y421149D01*
X84990Y421833D01*
X85019Y421874D01*
X85078Y421944D01*
X85589Y422762D01*
X85607Y422809D01*
X85650Y422890D01*
X85965Y423801D01*
X85973Y423851D01*
X85997Y423940D01*
X86102Y424898D01*
X86099Y424928D01*
X86105Y424967D01*
X86105Y425068D01*
X86100Y425096D01*
X86102Y425132D01*
X86003Y426105D01*
X85990Y426154D01*
X85973Y426244D01*
X85661Y427171D01*
X85636Y427215D01*
X85601Y427300D01*
X85090Y428134D01*
X85056Y428172D01*
X85002Y428246D01*
X84318Y428946D01*
X84277Y428975D01*
X84208Y429035D01*
X83386Y429565D01*
X83339Y429585D01*
X83259Y429629D01*
X82339Y429962D01*
X82290Y429971D01*
X82201Y429996D01*
X81230Y430116D01*
X81220Y430116D01*
X81208Y430119D01*
X80905Y430146D01*
X80855Y430141D01*
X80756Y430141D01*
X79799Y429999D01*
X79751Y429983D01*
X79661Y429963D01*
X78759Y429611D01*
X78716Y429585D01*
X78634Y429545D01*
X77833Y429002D01*
X77797Y428966D01*
X77725Y428909D01*
X77065Y428201D01*
X77038Y428159D01*
X76981Y428087D01*
X76495Y427250D01*
X76478Y427202D01*
X76438Y427119D01*
X76151Y426195D01*
X76145Y426145D01*
X76124Y426055D01*
X76058Y425190D01*
X76056Y425182D01*
X76056Y425164D01*
X76053Y425123D01*
X76049Y425094D01*
X76049Y425042D01*
X76054Y425015D01*
X76157Y424048D01*
X76171Y424000D01*
X76188Y423909D01*
X76507Y422979D01*
X76532Y422935D01*
X76568Y422850D01*
X77087Y422014D01*
X77120Y421977D01*
X77175Y421903D01*
X77866Y421203D01*
X77908Y421174D01*
X77977Y421113D01*
X78807Y420585D01*
X78854Y420566D01*
X78935Y420523D01*
X79862Y420192D01*
X79912Y420184D01*
X80000Y420160D01*
X80953Y420047D01*
X81057Y420027D01*
X81061Y420027D01*
X81064Y420025D01*
X81252Y420019D01*
X82210Y420130D01*
G37*
G36*
X147234Y386653D02*
X147234Y386653D01*
X147282Y386667D01*
X147372Y386685D01*
X148281Y387006D01*
X148325Y387031D01*
X148409Y387068D01*
X149224Y387583D01*
X149261Y387617D01*
X149334Y387672D01*
X150014Y388356D01*
X150043Y388397D01*
X150102Y388467D01*
X150613Y389285D01*
X150631Y389332D01*
X150674Y389413D01*
X150989Y390324D01*
X150997Y390374D01*
X151021Y390463D01*
X151126Y391421D01*
X151123Y391451D01*
X151129Y391490D01*
X151129Y391591D01*
X151124Y391619D01*
X151126Y391655D01*
X151027Y392628D01*
X151014Y392677D01*
X150997Y392767D01*
X150685Y393694D01*
X150660Y393738D01*
X150625Y393823D01*
X150114Y394657D01*
X150080Y394695D01*
X150026Y394769D01*
X149342Y395469D01*
X149301Y395498D01*
X149232Y395558D01*
X148410Y396088D01*
X148363Y396108D01*
X148283Y396152D01*
X147363Y396485D01*
X147314Y396494D01*
X147225Y396519D01*
X146254Y396639D01*
X146244Y396639D01*
X146232Y396642D01*
X145929Y396669D01*
X145879Y396664D01*
X145780Y396664D01*
X144823Y396522D01*
X144775Y396506D01*
X144685Y396486D01*
X143783Y396134D01*
X143740Y396108D01*
X143658Y396068D01*
X142857Y395525D01*
X142821Y395489D01*
X142749Y395432D01*
X142089Y394724D01*
X142062Y394682D01*
X142005Y394610D01*
X141519Y393773D01*
X141502Y393725D01*
X141462Y393642D01*
X141175Y392718D01*
X141169Y392668D01*
X141148Y392578D01*
X141082Y391713D01*
X141080Y391705D01*
X141080Y391687D01*
X141077Y391646D01*
X141073Y391617D01*
X141073Y391565D01*
X141078Y391538D01*
X141181Y390571D01*
X141195Y390523D01*
X141212Y390432D01*
X141531Y389502D01*
X141556Y389458D01*
X141592Y389373D01*
X142111Y388537D01*
X142144Y388500D01*
X142199Y388426D01*
X142890Y387726D01*
X142932Y387697D01*
X143001Y387636D01*
X143831Y387108D01*
X143878Y387089D01*
X143959Y387046D01*
X144886Y386715D01*
X144936Y386707D01*
X145024Y386683D01*
X145977Y386570D01*
X146081Y386550D01*
X146085Y386550D01*
X146088Y386548D01*
X146276Y386542D01*
X147234Y386653D01*
G37*
G36*
X82210Y386628D02*
X82210Y386628D01*
X82258Y386642D01*
X82348Y386660D01*
X83257Y386981D01*
X83301Y387006D01*
X83385Y387043D01*
X84200Y387558D01*
X84237Y387592D01*
X84310Y387647D01*
X84990Y388331D01*
X85019Y388372D01*
X85078Y388442D01*
X85589Y389260D01*
X85607Y389307D01*
X85650Y389388D01*
X85965Y390299D01*
X85973Y390349D01*
X85997Y390438D01*
X86102Y391396D01*
X86099Y391426D01*
X86105Y391465D01*
X86105Y391566D01*
X86100Y391594D01*
X86102Y391630D01*
X86003Y392603D01*
X85990Y392652D01*
X85973Y392742D01*
X85661Y393669D01*
X85636Y393713D01*
X85601Y393798D01*
X85090Y394632D01*
X85056Y394670D01*
X85002Y394744D01*
X84318Y395444D01*
X84277Y395473D01*
X84208Y395533D01*
X83386Y396063D01*
X83339Y396083D01*
X83259Y396127D01*
X82339Y396460D01*
X82290Y396469D01*
X82201Y396494D01*
X81230Y396614D01*
X81220Y396614D01*
X81208Y396617D01*
X80905Y396644D01*
X80855Y396639D01*
X80756Y396639D01*
X79799Y396497D01*
X79751Y396481D01*
X79661Y396461D01*
X78759Y396109D01*
X78716Y396083D01*
X78634Y396043D01*
X77833Y395500D01*
X77797Y395464D01*
X77725Y395407D01*
X77065Y394699D01*
X77038Y394657D01*
X76981Y394585D01*
X76495Y393748D01*
X76478Y393700D01*
X76438Y393617D01*
X76151Y392693D01*
X76145Y392643D01*
X76124Y392553D01*
X76058Y391688D01*
X76056Y391680D01*
X76056Y391662D01*
X76053Y391621D01*
X76049Y391592D01*
X76049Y391540D01*
X76054Y391513D01*
X76157Y390546D01*
X76171Y390498D01*
X76188Y390407D01*
X76507Y389477D01*
X76532Y389433D01*
X76568Y389348D01*
X77087Y388512D01*
X77120Y388475D01*
X77175Y388401D01*
X77866Y387701D01*
X77908Y387672D01*
X77977Y387611D01*
X78807Y387083D01*
X78854Y387064D01*
X78935Y387021D01*
X79862Y386690D01*
X79912Y386682D01*
X80000Y386658D01*
X80953Y386545D01*
X81057Y386525D01*
X81061Y386525D01*
X81064Y386523D01*
X81252Y386517D01*
X82210Y386628D01*
G37*
G36*
X82210Y341390D02*
X82210Y341390D01*
X82258Y341404D01*
X82348Y341422D01*
X83257Y341743D01*
X83301Y341768D01*
X83385Y341805D01*
X84200Y342320D01*
X84237Y342354D01*
X84310Y342409D01*
X84990Y343093D01*
X85019Y343134D01*
X85078Y343204D01*
X85589Y344022D01*
X85607Y344069D01*
X85650Y344150D01*
X85965Y345061D01*
X85973Y345111D01*
X85997Y345200D01*
X86102Y346158D01*
X86099Y346188D01*
X86105Y346227D01*
X86105Y346328D01*
X86100Y346356D01*
X86102Y346392D01*
X86003Y347365D01*
X85990Y347414D01*
X85973Y347504D01*
X85661Y348431D01*
X85636Y348475D01*
X85601Y348560D01*
X85090Y349394D01*
X85056Y349432D01*
X85002Y349506D01*
X84318Y350206D01*
X84277Y350235D01*
X84208Y350295D01*
X83386Y350825D01*
X83339Y350845D01*
X83259Y350889D01*
X82339Y351222D01*
X82290Y351231D01*
X82201Y351256D01*
X81230Y351376D01*
X81220Y351376D01*
X81208Y351379D01*
X80905Y351406D01*
X80855Y351401D01*
X80756Y351401D01*
X79799Y351259D01*
X79751Y351243D01*
X79661Y351223D01*
X78759Y350871D01*
X78716Y350845D01*
X78634Y350805D01*
X77833Y350262D01*
X77797Y350226D01*
X77725Y350169D01*
X77065Y349461D01*
X77038Y349419D01*
X76981Y349347D01*
X76495Y348510D01*
X76478Y348462D01*
X76438Y348379D01*
X76151Y347455D01*
X76145Y347405D01*
X76124Y347315D01*
X76058Y346450D01*
X76056Y346442D01*
X76056Y346424D01*
X76053Y346383D01*
X76049Y346354D01*
X76049Y346302D01*
X76054Y346275D01*
X76157Y345308D01*
X76171Y345260D01*
X76188Y345169D01*
X76507Y344239D01*
X76532Y344195D01*
X76568Y344110D01*
X77087Y343274D01*
X77120Y343237D01*
X77175Y343163D01*
X77866Y342463D01*
X77908Y342434D01*
X77977Y342373D01*
X78807Y341845D01*
X78854Y341826D01*
X78935Y341783D01*
X79862Y341452D01*
X79912Y341444D01*
X80000Y341420D01*
X80953Y341307D01*
X81057Y341287D01*
X81061Y341287D01*
X81064Y341285D01*
X81252Y341279D01*
X82210Y341390D01*
G37*
G36*
X147869Y300293D02*
X147869Y300293D01*
X147917Y300307D01*
X148007Y300325D01*
X148916Y300646D01*
X148960Y300671D01*
X149044Y300708D01*
X149859Y301223D01*
X149896Y301257D01*
X149969Y301312D01*
X150649Y301996D01*
X150678Y302037D01*
X150737Y302107D01*
X151248Y302925D01*
X151266Y302972D01*
X151309Y303053D01*
X151624Y303964D01*
X151632Y304014D01*
X151656Y304103D01*
X151761Y305061D01*
X151758Y305091D01*
X151764Y305130D01*
X151764Y305231D01*
X151759Y305259D01*
X151761Y305295D01*
X151662Y306268D01*
X151649Y306317D01*
X151632Y306407D01*
X151320Y307334D01*
X151295Y307378D01*
X151260Y307463D01*
X150749Y308297D01*
X150715Y308335D01*
X150661Y308409D01*
X149977Y309109D01*
X149936Y309138D01*
X149867Y309198D01*
X149045Y309728D01*
X148998Y309748D01*
X148918Y309792D01*
X147998Y310125D01*
X147949Y310134D01*
X147860Y310159D01*
X146889Y310279D01*
X146879Y310279D01*
X146867Y310282D01*
X146564Y310309D01*
X146514Y310304D01*
X146415Y310304D01*
X145458Y310162D01*
X145410Y310146D01*
X145320Y310126D01*
X144418Y309774D01*
X144375Y309748D01*
X144293Y309708D01*
X143492Y309165D01*
X143456Y309129D01*
X143384Y309072D01*
X142724Y308364D01*
X142697Y308322D01*
X142640Y308250D01*
X142154Y307413D01*
X142137Y307365D01*
X142097Y307282D01*
X141810Y306358D01*
X141804Y306308D01*
X141783Y306218D01*
X141717Y305353D01*
X141715Y305345D01*
X141715Y305327D01*
X141712Y305286D01*
X141708Y305257D01*
X141708Y305205D01*
X141713Y305178D01*
X141816Y304211D01*
X141830Y304163D01*
X141847Y304072D01*
X142166Y303142D01*
X142191Y303098D01*
X142227Y303013D01*
X142746Y302177D01*
X142779Y302140D01*
X142834Y302066D01*
X143525Y301366D01*
X143567Y301337D01*
X143636Y301276D01*
X144466Y300748D01*
X144513Y300729D01*
X144594Y300686D01*
X145521Y300355D01*
X145571Y300347D01*
X145659Y300323D01*
X146612Y300210D01*
X146716Y300190D01*
X146720Y300190D01*
X146723Y300188D01*
X146911Y300182D01*
X147869Y300293D01*
G37*
G36*
X82845Y300268D02*
X82845Y300268D01*
X82893Y300282D01*
X82983Y300300D01*
X83892Y300621D01*
X83936Y300646D01*
X84020Y300683D01*
X84835Y301198D01*
X84872Y301232D01*
X84945Y301287D01*
X85625Y301971D01*
X85654Y302012D01*
X85713Y302082D01*
X86224Y302900D01*
X86242Y302947D01*
X86285Y303028D01*
X86600Y303939D01*
X86608Y303989D01*
X86632Y304078D01*
X86737Y305036D01*
X86734Y305066D01*
X86740Y305105D01*
X86740Y305206D01*
X86735Y305234D01*
X86737Y305270D01*
X86638Y306243D01*
X86625Y306292D01*
X86608Y306382D01*
X86296Y307309D01*
X86271Y307353D01*
X86236Y307438D01*
X85725Y308272D01*
X85691Y308310D01*
X85637Y308384D01*
X84953Y309084D01*
X84912Y309113D01*
X84843Y309173D01*
X84021Y309703D01*
X83974Y309723D01*
X83894Y309767D01*
X82974Y310100D01*
X82925Y310109D01*
X82836Y310134D01*
X81865Y310254D01*
X81855Y310254D01*
X81843Y310257D01*
X81540Y310284D01*
X81490Y310279D01*
X81391Y310279D01*
X80434Y310137D01*
X80386Y310121D01*
X80296Y310101D01*
X79394Y309749D01*
X79351Y309723D01*
X79269Y309683D01*
X78468Y309140D01*
X78432Y309104D01*
X78360Y309047D01*
X77700Y308339D01*
X77673Y308297D01*
X77616Y308225D01*
X77130Y307388D01*
X77113Y307340D01*
X77073Y307257D01*
X76786Y306333D01*
X76780Y306283D01*
X76759Y306193D01*
X76693Y305328D01*
X76691Y305320D01*
X76691Y305302D01*
X76688Y305261D01*
X76684Y305232D01*
X76684Y305180D01*
X76689Y305153D01*
X76792Y304186D01*
X76806Y304138D01*
X76823Y304047D01*
X77142Y303117D01*
X77167Y303073D01*
X77203Y302988D01*
X77722Y302152D01*
X77755Y302115D01*
X77810Y302041D01*
X78501Y301341D01*
X78543Y301312D01*
X78612Y301251D01*
X79442Y300723D01*
X79489Y300704D01*
X79570Y300661D01*
X80497Y300330D01*
X80547Y300322D01*
X80635Y300298D01*
X81588Y300185D01*
X81692Y300165D01*
X81696Y300165D01*
X81699Y300163D01*
X81887Y300157D01*
X82845Y300268D01*
G37*
G36*
X82845Y255030D02*
X82845Y255030D01*
X82893Y255044D01*
X82983Y255062D01*
X83892Y255383D01*
X83936Y255408D01*
X84020Y255445D01*
X84835Y255960D01*
X84872Y255994D01*
X84945Y256049D01*
X85625Y256733D01*
X85654Y256774D01*
X85713Y256844D01*
X86224Y257662D01*
X86242Y257709D01*
X86285Y257790D01*
X86600Y258701D01*
X86608Y258751D01*
X86632Y258840D01*
X86737Y259798D01*
X86734Y259828D01*
X86740Y259867D01*
X86740Y259968D01*
X86735Y259996D01*
X86737Y260032D01*
X86638Y261005D01*
X86625Y261054D01*
X86608Y261144D01*
X86296Y262071D01*
X86271Y262115D01*
X86236Y262200D01*
X85725Y263034D01*
X85691Y263072D01*
X85637Y263146D01*
X84953Y263846D01*
X84912Y263875D01*
X84843Y263935D01*
X84021Y264465D01*
X83974Y264485D01*
X83894Y264529D01*
X82974Y264862D01*
X82925Y264871D01*
X82836Y264896D01*
X81865Y265016D01*
X81855Y265016D01*
X81843Y265019D01*
X81540Y265046D01*
X81490Y265041D01*
X81391Y265041D01*
X80434Y264899D01*
X80386Y264883D01*
X80296Y264863D01*
X79394Y264511D01*
X79351Y264485D01*
X79269Y264445D01*
X78468Y263902D01*
X78432Y263866D01*
X78360Y263809D01*
X77700Y263101D01*
X77673Y263059D01*
X77616Y262987D01*
X77130Y262150D01*
X77113Y262102D01*
X77073Y262019D01*
X76786Y261095D01*
X76780Y261045D01*
X76759Y260955D01*
X76693Y260090D01*
X76691Y260082D01*
X76691Y260064D01*
X76688Y260023D01*
X76684Y259994D01*
X76684Y259942D01*
X76689Y259915D01*
X76792Y258948D01*
X76806Y258900D01*
X76823Y258809D01*
X77142Y257879D01*
X77167Y257835D01*
X77203Y257750D01*
X77722Y256914D01*
X77755Y256877D01*
X77810Y256803D01*
X78501Y256103D01*
X78543Y256074D01*
X78612Y256013D01*
X79442Y255485D01*
X79489Y255466D01*
X79570Y255423D01*
X80497Y255092D01*
X80547Y255084D01*
X80635Y255060D01*
X81588Y254947D01*
X81692Y254927D01*
X81696Y254927D01*
X81699Y254925D01*
X81887Y254919D01*
X82845Y255030D01*
G37*
G36*
X147920Y255005D02*
X147920Y255005D01*
X147968Y255019D01*
X148058Y255037D01*
X148967Y255358D01*
X149011Y255383D01*
X149095Y255420D01*
X149910Y255935D01*
X149947Y255969D01*
X150020Y256024D01*
X150700Y256708D01*
X150729Y256749D01*
X150788Y256819D01*
X151299Y257637D01*
X151317Y257684D01*
X151360Y257765D01*
X151675Y258676D01*
X151683Y258726D01*
X151707Y258815D01*
X151812Y259773D01*
X151809Y259803D01*
X151815Y259842D01*
X151815Y259943D01*
X151810Y259971D01*
X151812Y260007D01*
X151713Y260980D01*
X151700Y261029D01*
X151683Y261119D01*
X151371Y262046D01*
X151346Y262090D01*
X151311Y262175D01*
X150800Y263009D01*
X150766Y263047D01*
X150712Y263121D01*
X150028Y263821D01*
X149987Y263850D01*
X149918Y263910D01*
X149096Y264440D01*
X149049Y264460D01*
X148969Y264504D01*
X148049Y264837D01*
X148000Y264846D01*
X147911Y264871D01*
X146940Y264991D01*
X146930Y264991D01*
X146918Y264994D01*
X146615Y265021D01*
X146565Y265016D01*
X146466Y265016D01*
X145509Y264874D01*
X145461Y264858D01*
X145371Y264838D01*
X144469Y264486D01*
X144426Y264460D01*
X144344Y264420D01*
X143543Y263877D01*
X143507Y263841D01*
X143435Y263784D01*
X142775Y263076D01*
X142748Y263034D01*
X142691Y262962D01*
X142205Y262125D01*
X142188Y262077D01*
X142148Y261994D01*
X141861Y261070D01*
X141855Y261020D01*
X141834Y260930D01*
X141768Y260065D01*
X141766Y260057D01*
X141766Y260039D01*
X141763Y259998D01*
X141759Y259969D01*
X141759Y259917D01*
X141764Y259890D01*
X141867Y258923D01*
X141881Y258875D01*
X141898Y258784D01*
X142217Y257854D01*
X142242Y257810D01*
X142278Y257725D01*
X142797Y256889D01*
X142830Y256852D01*
X142885Y256778D01*
X143576Y256078D01*
X143618Y256049D01*
X143687Y255988D01*
X144517Y255460D01*
X144564Y255441D01*
X144645Y255398D01*
X145572Y255067D01*
X145622Y255059D01*
X145710Y255035D01*
X146663Y254922D01*
X146767Y254902D01*
X146771Y254902D01*
X146774Y254900D01*
X146962Y254894D01*
X147920Y255005D01*
G37*
G36*
X147869Y213933D02*
X147869Y213933D01*
X147917Y213947D01*
X148007Y213965D01*
X148916Y214286D01*
X148960Y214311D01*
X149044Y214348D01*
X149859Y214863D01*
X149896Y214897D01*
X149969Y214952D01*
X150649Y215636D01*
X150678Y215677D01*
X150737Y215747D01*
X151248Y216565D01*
X151266Y216612D01*
X151309Y216693D01*
X151624Y217604D01*
X151632Y217654D01*
X151656Y217743D01*
X151761Y218701D01*
X151758Y218731D01*
X151764Y218770D01*
X151764Y218871D01*
X151759Y218899D01*
X151761Y218935D01*
X151662Y219908D01*
X151649Y219957D01*
X151632Y220047D01*
X151320Y220974D01*
X151295Y221018D01*
X151260Y221103D01*
X150749Y221937D01*
X150715Y221975D01*
X150661Y222049D01*
X149977Y222749D01*
X149936Y222778D01*
X149867Y222838D01*
X149045Y223368D01*
X148998Y223388D01*
X148918Y223432D01*
X147998Y223765D01*
X147949Y223774D01*
X147860Y223799D01*
X146889Y223919D01*
X146879Y223919D01*
X146867Y223922D01*
X146564Y223949D01*
X146514Y223944D01*
X146415Y223944D01*
X145458Y223802D01*
X145410Y223786D01*
X145320Y223766D01*
X144418Y223414D01*
X144375Y223388D01*
X144293Y223348D01*
X143492Y222805D01*
X143456Y222769D01*
X143384Y222712D01*
X142724Y222004D01*
X142697Y221962D01*
X142640Y221890D01*
X142154Y221053D01*
X142137Y221005D01*
X142097Y220922D01*
X141810Y219998D01*
X141804Y219948D01*
X141783Y219858D01*
X141717Y218993D01*
X141715Y218985D01*
X141715Y218967D01*
X141712Y218926D01*
X141708Y218897D01*
X141708Y218845D01*
X141713Y218818D01*
X141816Y217851D01*
X141830Y217803D01*
X141847Y217712D01*
X142166Y216782D01*
X142191Y216738D01*
X142227Y216653D01*
X142746Y215817D01*
X142779Y215780D01*
X142834Y215706D01*
X143525Y215006D01*
X143567Y214977D01*
X143636Y214916D01*
X144466Y214388D01*
X144513Y214369D01*
X144594Y214326D01*
X145521Y213995D01*
X145571Y213987D01*
X145659Y213963D01*
X146612Y213850D01*
X146716Y213830D01*
X146720Y213830D01*
X146723Y213828D01*
X146911Y213822D01*
X147869Y213933D01*
G37*
G36*
X82845Y168670D02*
X82845Y168670D01*
X82893Y168684D01*
X82983Y168702D01*
X83892Y169023D01*
X83936Y169048D01*
X84020Y169085D01*
X84835Y169600D01*
X84872Y169634D01*
X84945Y169689D01*
X85625Y170373D01*
X85654Y170414D01*
X85713Y170484D01*
X86224Y171302D01*
X86242Y171349D01*
X86285Y171430D01*
X86600Y172341D01*
X86608Y172391D01*
X86632Y172480D01*
X86737Y173438D01*
X86734Y173468D01*
X86740Y173507D01*
X86740Y173608D01*
X86735Y173636D01*
X86737Y173672D01*
X86638Y174645D01*
X86625Y174694D01*
X86608Y174784D01*
X86296Y175711D01*
X86271Y175755D01*
X86236Y175840D01*
X85725Y176674D01*
X85691Y176712D01*
X85637Y176786D01*
X84953Y177486D01*
X84912Y177515D01*
X84843Y177575D01*
X84021Y178105D01*
X83974Y178125D01*
X83894Y178169D01*
X82974Y178502D01*
X82925Y178511D01*
X82836Y178536D01*
X81865Y178656D01*
X81855Y178656D01*
X81843Y178659D01*
X81540Y178686D01*
X81490Y178681D01*
X81391Y178681D01*
X80434Y178539D01*
X80386Y178523D01*
X80296Y178503D01*
X79394Y178151D01*
X79351Y178125D01*
X79269Y178085D01*
X78468Y177542D01*
X78432Y177506D01*
X78360Y177449D01*
X77700Y176741D01*
X77673Y176699D01*
X77616Y176627D01*
X77130Y175790D01*
X77113Y175742D01*
X77073Y175659D01*
X76786Y174735D01*
X76780Y174685D01*
X76759Y174595D01*
X76693Y173730D01*
X76691Y173722D01*
X76691Y173704D01*
X76688Y173663D01*
X76684Y173634D01*
X76684Y173582D01*
X76689Y173555D01*
X76792Y172588D01*
X76806Y172540D01*
X76823Y172449D01*
X77142Y171519D01*
X77167Y171475D01*
X77203Y171390D01*
X77722Y170554D01*
X77755Y170517D01*
X77810Y170443D01*
X78501Y169743D01*
X78543Y169714D01*
X78612Y169653D01*
X79442Y169125D01*
X79489Y169106D01*
X79570Y169063D01*
X80497Y168732D01*
X80547Y168724D01*
X80635Y168700D01*
X81588Y168587D01*
X81692Y168567D01*
X81696Y168567D01*
X81699Y168565D01*
X81887Y168559D01*
X82845Y168670D01*
G37*
G36*
X147920Y168645D02*
X147920Y168645D01*
X147968Y168659D01*
X148058Y168677D01*
X148967Y168998D01*
X149011Y169023D01*
X149095Y169060D01*
X149910Y169575D01*
X149947Y169609D01*
X150020Y169664D01*
X150700Y170348D01*
X150729Y170389D01*
X150788Y170459D01*
X151299Y171277D01*
X151317Y171324D01*
X151360Y171405D01*
X151675Y172316D01*
X151683Y172366D01*
X151707Y172455D01*
X151812Y173413D01*
X151809Y173443D01*
X151815Y173482D01*
X151815Y173583D01*
X151810Y173611D01*
X151812Y173647D01*
X151713Y174620D01*
X151700Y174669D01*
X151683Y174759D01*
X151371Y175686D01*
X151346Y175730D01*
X151311Y175815D01*
X150800Y176649D01*
X150766Y176687D01*
X150712Y176761D01*
X150028Y177461D01*
X149987Y177490D01*
X149918Y177550D01*
X149096Y178080D01*
X149049Y178100D01*
X148969Y178144D01*
X148049Y178477D01*
X148000Y178486D01*
X147911Y178511D01*
X146940Y178631D01*
X146930Y178631D01*
X146918Y178634D01*
X146615Y178661D01*
X146565Y178656D01*
X146466Y178656D01*
X145509Y178514D01*
X145461Y178498D01*
X145371Y178478D01*
X144469Y178126D01*
X144426Y178100D01*
X144344Y178060D01*
X143543Y177517D01*
X143507Y177481D01*
X143435Y177424D01*
X142775Y176716D01*
X142748Y176674D01*
X142691Y176602D01*
X142205Y175765D01*
X142188Y175717D01*
X142148Y175634D01*
X141861Y174710D01*
X141855Y174660D01*
X141834Y174570D01*
X141768Y173705D01*
X141766Y173697D01*
X141766Y173679D01*
X141763Y173638D01*
X141759Y173609D01*
X141759Y173557D01*
X141764Y173530D01*
X141867Y172563D01*
X141881Y172515D01*
X141898Y172424D01*
X142217Y171494D01*
X142242Y171450D01*
X142278Y171365D01*
X142797Y170529D01*
X142830Y170492D01*
X142885Y170418D01*
X143576Y169718D01*
X143618Y169689D01*
X143687Y169628D01*
X144517Y169100D01*
X144564Y169081D01*
X144645Y169038D01*
X145572Y168707D01*
X145622Y168699D01*
X145710Y168675D01*
X146663Y168562D01*
X146767Y168542D01*
X146771Y168542D01*
X146774Y168540D01*
X146962Y168534D01*
X147920Y168645D01*
G37*
G36*
X152949Y121223D02*
X152949Y121223D01*
X152997Y121237D01*
X153087Y121255D01*
X153996Y121576D01*
X154040Y121601D01*
X154124Y121638D01*
X154939Y122153D01*
X154976Y122187D01*
X155049Y122242D01*
X155729Y122926D01*
X155758Y122967D01*
X155817Y123037D01*
X156328Y123855D01*
X156346Y123902D01*
X156389Y123983D01*
X156704Y124894D01*
X156712Y124944D01*
X156736Y125033D01*
X156841Y125991D01*
X156838Y126021D01*
X156844Y126060D01*
X156844Y126161D01*
X156839Y126189D01*
X156841Y126225D01*
X156742Y127198D01*
X156729Y127247D01*
X156712Y127337D01*
X156400Y128264D01*
X156375Y128308D01*
X156340Y128393D01*
X155829Y129227D01*
X155795Y129265D01*
X155741Y129339D01*
X155057Y130039D01*
X155016Y130068D01*
X154947Y130128D01*
X154125Y130658D01*
X154078Y130678D01*
X153998Y130722D01*
X153078Y131055D01*
X153029Y131064D01*
X152940Y131089D01*
X151969Y131209D01*
X151959Y131209D01*
X151947Y131212D01*
X151644Y131239D01*
X151594Y131234D01*
X151495Y131234D01*
X150538Y131092D01*
X150490Y131076D01*
X150400Y131056D01*
X149498Y130704D01*
X149455Y130678D01*
X149373Y130638D01*
X148572Y130095D01*
X148536Y130059D01*
X148464Y130002D01*
X147804Y129294D01*
X147777Y129252D01*
X147720Y129180D01*
X147234Y128343D01*
X147217Y128295D01*
X147177Y128212D01*
X146890Y127288D01*
X146884Y127238D01*
X146863Y127148D01*
X146797Y126283D01*
X146795Y126275D01*
X146795Y126257D01*
X146792Y126216D01*
X146788Y126187D01*
X146788Y126135D01*
X146793Y126108D01*
X146896Y125141D01*
X146910Y125093D01*
X146927Y125002D01*
X147246Y124072D01*
X147271Y124028D01*
X147307Y123943D01*
X147826Y123107D01*
X147859Y123070D01*
X147914Y122996D01*
X148605Y122296D01*
X148647Y122267D01*
X148716Y122206D01*
X149546Y121678D01*
X149593Y121659D01*
X149674Y121616D01*
X150601Y121285D01*
X150651Y121277D01*
X150739Y121253D01*
X151692Y121140D01*
X151796Y121120D01*
X151800Y121120D01*
X151803Y121118D01*
X151991Y121112D01*
X152949Y121223D01*
G37*
G36*
X87925Y121198D02*
X87925Y121198D01*
X87973Y121212D01*
X88063Y121230D01*
X88972Y121551D01*
X89016Y121576D01*
X89100Y121613D01*
X89915Y122128D01*
X89952Y122162D01*
X90025Y122217D01*
X90705Y122901D01*
X90734Y122942D01*
X90793Y123012D01*
X91304Y123830D01*
X91322Y123877D01*
X91365Y123958D01*
X91680Y124869D01*
X91688Y124919D01*
X91712Y125008D01*
X91817Y125966D01*
X91814Y125996D01*
X91820Y126035D01*
X91820Y126136D01*
X91815Y126164D01*
X91817Y126200D01*
X91718Y127173D01*
X91705Y127222D01*
X91688Y127312D01*
X91376Y128239D01*
X91351Y128283D01*
X91316Y128368D01*
X90805Y129202D01*
X90771Y129240D01*
X90717Y129314D01*
X90033Y130014D01*
X89992Y130043D01*
X89923Y130103D01*
X89101Y130633D01*
X89054Y130653D01*
X88974Y130697D01*
X88054Y131030D01*
X88005Y131039D01*
X87916Y131064D01*
X86945Y131184D01*
X86935Y131184D01*
X86923Y131187D01*
X86620Y131214D01*
X86570Y131209D01*
X86471Y131209D01*
X85514Y131067D01*
X85466Y131051D01*
X85376Y131031D01*
X84474Y130679D01*
X84431Y130653D01*
X84349Y130613D01*
X83548Y130070D01*
X83512Y130034D01*
X83440Y129977D01*
X82780Y129269D01*
X82753Y129227D01*
X82696Y129155D01*
X82210Y128318D01*
X82193Y128270D01*
X82153Y128187D01*
X81866Y127263D01*
X81860Y127213D01*
X81839Y127123D01*
X81773Y126258D01*
X81771Y126250D01*
X81771Y126232D01*
X81768Y126191D01*
X81764Y126162D01*
X81764Y126110D01*
X81769Y126083D01*
X81872Y125116D01*
X81886Y125068D01*
X81903Y124977D01*
X82222Y124047D01*
X82247Y124003D01*
X82283Y123918D01*
X82802Y123082D01*
X82835Y123045D01*
X82890Y122971D01*
X83581Y122271D01*
X83623Y122242D01*
X83692Y122181D01*
X84522Y121653D01*
X84569Y121634D01*
X84650Y121591D01*
X85577Y121260D01*
X85627Y121252D01*
X85715Y121228D01*
X86668Y121115D01*
X86772Y121095D01*
X86776Y121095D01*
X86779Y121093D01*
X86967Y121087D01*
X87925Y121198D01*
G37*
G36*
X87925Y75960D02*
X87925Y75960D01*
X87973Y75974D01*
X88063Y75992D01*
X88972Y76313D01*
X89016Y76338D01*
X89100Y76375D01*
X89915Y76890D01*
X89952Y76924D01*
X90025Y76979D01*
X90705Y77663D01*
X90734Y77704D01*
X90793Y77774D01*
X91304Y78592D01*
X91322Y78639D01*
X91365Y78720D01*
X91680Y79631D01*
X91688Y79681D01*
X91712Y79770D01*
X91817Y80728D01*
X91814Y80758D01*
X91820Y80797D01*
X91820Y80898D01*
X91815Y80926D01*
X91817Y80962D01*
X91718Y81935D01*
X91705Y81984D01*
X91688Y82074D01*
X91376Y83001D01*
X91351Y83045D01*
X91316Y83130D01*
X90805Y83964D01*
X90771Y84002D01*
X90717Y84076D01*
X90033Y84776D01*
X89992Y84805D01*
X89923Y84865D01*
X89101Y85395D01*
X89054Y85415D01*
X88974Y85459D01*
X88054Y85792D01*
X88005Y85801D01*
X87916Y85826D01*
X86945Y85946D01*
X86935Y85946D01*
X86923Y85949D01*
X86620Y85976D01*
X86570Y85971D01*
X86471Y85971D01*
X85514Y85829D01*
X85466Y85813D01*
X85376Y85793D01*
X84474Y85441D01*
X84431Y85415D01*
X84349Y85375D01*
X83548Y84832D01*
X83512Y84796D01*
X83440Y84739D01*
X82780Y84031D01*
X82753Y83989D01*
X82696Y83917D01*
X82210Y83080D01*
X82193Y83032D01*
X82153Y82949D01*
X81866Y82025D01*
X81860Y81975D01*
X81839Y81885D01*
X81773Y81020D01*
X81771Y81012D01*
X81771Y80994D01*
X81768Y80953D01*
X81764Y80924D01*
X81764Y80872D01*
X81769Y80845D01*
X81872Y79878D01*
X81886Y79830D01*
X81903Y79739D01*
X82222Y78809D01*
X82247Y78765D01*
X82283Y78680D01*
X82802Y77844D01*
X82835Y77807D01*
X82890Y77733D01*
X83581Y77033D01*
X83623Y77004D01*
X83692Y76943D01*
X84522Y76415D01*
X84569Y76396D01*
X84650Y76353D01*
X85577Y76022D01*
X85627Y76014D01*
X85715Y75990D01*
X86668Y75877D01*
X86772Y75857D01*
X86776Y75857D01*
X86779Y75855D01*
X86967Y75849D01*
X87925Y75960D01*
G37*
G36*
X153000Y75935D02*
X153000Y75935D01*
X153048Y75949D01*
X153138Y75967D01*
X154047Y76288D01*
X154091Y76313D01*
X154175Y76350D01*
X154990Y76865D01*
X155027Y76899D01*
X155100Y76954D01*
X155780Y77638D01*
X155809Y77679D01*
X155868Y77749D01*
X156379Y78567D01*
X156397Y78614D01*
X156440Y78695D01*
X156755Y79606D01*
X156763Y79656D01*
X156787Y79745D01*
X156892Y80703D01*
X156889Y80733D01*
X156895Y80772D01*
X156895Y80873D01*
X156890Y80901D01*
X156892Y80937D01*
X156793Y81910D01*
X156780Y81959D01*
X156763Y82049D01*
X156451Y82976D01*
X156426Y83020D01*
X156391Y83105D01*
X155880Y83939D01*
X155846Y83977D01*
X155792Y84051D01*
X155108Y84751D01*
X155067Y84780D01*
X154998Y84840D01*
X154176Y85370D01*
X154129Y85390D01*
X154049Y85434D01*
X153129Y85767D01*
X153080Y85776D01*
X152991Y85801D01*
X152020Y85921D01*
X152010Y85921D01*
X151998Y85924D01*
X151695Y85951D01*
X151645Y85946D01*
X151546Y85946D01*
X150589Y85804D01*
X150541Y85788D01*
X150451Y85768D01*
X149549Y85416D01*
X149506Y85390D01*
X149424Y85350D01*
X148623Y84807D01*
X148587Y84771D01*
X148515Y84714D01*
X147855Y84006D01*
X147828Y83964D01*
X147771Y83892D01*
X147285Y83055D01*
X147268Y83007D01*
X147228Y82924D01*
X146941Y82000D01*
X146935Y81950D01*
X146914Y81860D01*
X146848Y80995D01*
X146846Y80987D01*
X146846Y80969D01*
X146843Y80928D01*
X146839Y80899D01*
X146839Y80847D01*
X146844Y80820D01*
X146947Y79853D01*
X146961Y79805D01*
X146978Y79714D01*
X147297Y78784D01*
X147322Y78740D01*
X147358Y78655D01*
X147877Y77819D01*
X147910Y77782D01*
X147965Y77708D01*
X148656Y77008D01*
X148698Y76979D01*
X148767Y76918D01*
X149597Y76390D01*
X149644Y76371D01*
X149725Y76328D01*
X150652Y75997D01*
X150702Y75989D01*
X150790Y75965D01*
X151743Y75852D01*
X151847Y75832D01*
X151851Y75832D01*
X151854Y75830D01*
X152042Y75824D01*
X153000Y75935D01*
G37*
D10*
X50800Y952500D03*
X1549400Y939800D03*
X1536700Y63500D03*
X50800Y38100D03*
D11*
X730885Y254000D03*
D12*
X705485Y254000D03*
D13*
X197485Y946912D02*
X172085Y946912D01*
X172085Y721868D02*
X197485Y721868D01*
X691515Y946912D02*
X716915Y946912D01*
X716915Y721868D02*
X691515Y721868D01*
D14*
X904240Y916940D03*
X904240Y891540D03*
X955675Y916940D03*
X955675Y891540D03*
D15*
X903605Y723900D03*
X903605Y825500D03*
X955040Y723265D03*
X955040Y824865D03*
D16*
X698500Y212240D03*
X698500Y192240D03*
X698500Y172240D03*
X698500Y152240D03*
X698500Y132240D03*
X698500Y112240D03*
X698500Y92240D03*
X698500Y72240D03*
D17*
X422275Y512255D02*
X422275Y525335D01*
X447675Y525335D02*
X447675Y512255D01*
X473075Y512255D02*
X473075Y525335D01*
X498475Y525335D02*
X498475Y512255D01*
X523875Y512255D02*
X523875Y525335D01*
X549275Y525335D02*
X549275Y512255D01*
X416115Y493395D02*
X403035Y493395D01*
X403035Y467995D02*
X416115Y467995D01*
X416115Y442595D02*
X403035Y442595D01*
X403035Y417195D02*
X416115Y417195D01*
X416115Y391795D02*
X403035Y391795D01*
X403035Y366395D02*
X416115Y366395D01*
X416115Y340995D02*
X403035Y340995D01*
X403035Y315595D02*
X416115Y315595D01*
X416115Y290195D02*
X403035Y290195D01*
X403035Y264795D02*
X416115Y264795D01*
X416115Y239395D02*
X403035Y239395D01*
X403035Y213995D02*
X416115Y213995D01*
X555435Y493395D02*
X568515Y493395D01*
X568515Y467995D02*
X555435Y467995D01*
X555435Y442595D02*
X568515Y442595D01*
X568515Y417195D02*
X555435Y417195D01*
X555435Y391795D02*
X568515Y391795D01*
X568515Y366395D02*
X555435Y366395D01*
X555435Y340995D02*
X568515Y340995D01*
X568515Y315595D02*
X555435Y315595D01*
X555435Y290195D02*
X568515Y290195D01*
X568515Y264795D02*
X555435Y264795D01*
X555435Y239395D02*
X568515Y239395D01*
X568515Y213995D02*
X555435Y213995D01*
X523875Y220535D02*
X523875Y207455D01*
X498475Y207455D02*
X498475Y220535D01*
X473075Y220535D02*
X473075Y207455D01*
D18*
X523875Y404495D03*
X523875Y379095D03*
D19*
X276000Y808900D03*
X276000Y867900D03*
X612000Y928900D03*
X612000Y748900D03*
D20*
X1007491Y437515D02*
X1020699Y437515D01*
X1020699Y412115D02*
X1007491Y412115D01*
X1007491Y285115D02*
X1020699Y285115D01*
X1020699Y259715D02*
X1007491Y259715D01*
X1007491Y386715D02*
X1020699Y386715D01*
X1020699Y361315D02*
X1007491Y361315D01*
X1007491Y310515D02*
X1020699Y310515D01*
X1020699Y335915D02*
X1007491Y335915D01*
X1007491Y234315D02*
X1020699Y234315D01*
X1083691Y234315D02*
X1096899Y234315D01*
X1096899Y259715D02*
X1083691Y259715D01*
X1083691Y285115D02*
X1096899Y285115D01*
X1096899Y310515D02*
X1083691Y310515D01*
X1083691Y335915D02*
X1096899Y335915D01*
X1096899Y361315D02*
X1083691Y361315D01*
X1083691Y386715D02*
X1096899Y386715D01*
X1096899Y412115D02*
X1083691Y412115D01*
X1083691Y437515D02*
X1096899Y437515D01*
D15*
X1005840Y724535D03*
X1005840Y826135D03*
X1054100Y723900D03*
X1054100Y825500D03*
D14*
X1005840Y917575D03*
X1005840Y892175D03*
X1054100Y917575D03*
X1054100Y892175D03*
D21*
X295910Y525145D03*
X194310Y525145D03*
D22*
X93980Y525780D03*
X119380Y525780D03*
D23*
X105728Y867410D02*
X84773Y867410D01*
X84773Y816610D02*
X105728Y816610D01*
D24*
X94742Y605790D02*
X80518Y605790D01*
X80518Y631190D02*
X94742Y631190D01*
D25*
X1419920Y731280D03*
X1299920Y851280D03*
X1279920Y791280D03*
X1419920Y851280D03*
X1299920Y731280D03*
X1420555Y544590D03*
X1300555Y664590D03*
X1280555Y604590D03*
X1420555Y664590D03*
X1300555Y544590D03*
X1420555Y358535D03*
X1300555Y478535D03*
X1280555Y418535D03*
X1420555Y478535D03*
X1300555Y358535D03*
X1420555Y173115D03*
X1300555Y293115D03*
X1280555Y233115D03*
X1420555Y293115D03*
X1300555Y173115D03*
D23*
X1516063Y739775D02*
X1537018Y739775D01*
X1537018Y790575D02*
X1516063Y790575D01*
X1516063Y841375D02*
X1537018Y841375D01*
X1537653Y554355D02*
X1516698Y554355D01*
X1516698Y605155D02*
X1537653Y605155D01*
X1537653Y655955D02*
X1516698Y655955D01*
X1517333Y368300D02*
X1538288Y368300D01*
X1538288Y419100D02*
X1517333Y419100D01*
X1517333Y469900D02*
X1538288Y469900D01*
X1538288Y181610D02*
X1517333Y181610D01*
X1517333Y232410D02*
X1538288Y232410D01*
X1538288Y283210D02*
X1517333Y283210D01*
D26*
X750570Y539750D03*
X746760Y488950D03*
X746125Y438150D03*
X730885Y314325D03*
X666115Y199390D03*
X666750Y136525D03*
X632460Y246380D03*
X632460Y157480D03*
M02*
