M48
;GenerationSoftware,Autodesk,EAGLE,9.4.2*%
;CreationDate,2019-08-01T17:21:04Z*%
FMAT,2
ICI,OFF
METRIC,TZ,000.000
T7C0.350
T6C0.800
T5C0.813
T4C0.914
T3C1.194
T2C1.321
T1C2.794
%
G90
M71
T1
X17780Y71120
X17780Y20320
T2
X10160Y20320
X25400Y20320
X25400Y71120
X10160Y71120
T3
X17780Y3175
X12700Y3175
X22860Y3175
T4
X66040Y64770
X41910Y7620
X68580Y30480
X71120Y30480
X66040Y19050
X68580Y19050
X71311Y88074
X66040Y7620
X68580Y7620
X71120Y7620
X34290Y7620
X36830Y7620
X39370Y7620
X66231Y88074
X68771Y88074
X71120Y19050
X66040Y76264
X68580Y76264
X71120Y76264
X68580Y64770
X71120Y64770
X66040Y53340
X68580Y53340
X71120Y53340
X66040Y41910
X68580Y41910
X71120Y41910
X66040Y30480
T5
X10160Y90170
X7620Y90170
X10160Y82550
X7620Y82550
X26670Y90170
X35560Y58420
X35560Y50800
X71120Y15240
X16510Y82550
X60960Y15240
X26670Y82550
X16510Y90170
T6
X52625Y44450
X50625Y44450
X48625Y44450
X46625Y44450
X44625Y44450
X42625Y44450
X40625Y44450
X20710Y28870
X41910Y93980
X44450Y93980
X46990Y93980
X49530Y93980
X52070Y93980
X54610Y93980
X40640Y91440
X40640Y88900
X40640Y86360
X40640Y83820
X40640Y81280
X40640Y78740
X40640Y76200
X40640Y73660
X40640Y71120
X40640Y68580
X40640Y66040
X40640Y63500
X55880Y91440
X55880Y88900
X55880Y86360
X55880Y83820
X55880Y81280
X55880Y78740
X55880Y76200
X55880Y73660
X55880Y71120
X55880Y68580
X55880Y66040
X55880Y63500
X52070Y63500
X49530Y63500
X46990Y63500
X52070Y82550
X52070Y80010
X14810Y28870
X8710Y62470
X26710Y62470
X54625Y44450
T7
X68580Y48895
X64135Y72390
X71120Y72390
X39370Y10160
X14795Y28892
X20701Y28892
X8700Y62484
X26733Y62484
X40640Y49530
X43180Y81280
X59690Y44450
X52070Y68580
X48895Y55880
X52070Y66040
X46355Y82550
X41910Y10160
M30