G04 EAGLE Gerber RS-274X export*
G75*
%MOMM*%
%FSLAX34Y34*%
%LPD*%
%INTop Copper*%
%IPPOS*%
%AMOC8*
5,1,8,0,0,1.08239X$1,22.5*%
G01*
%ADD10P,1.732040X8X202.500000*%
%ADD11C,1.600200*%
%ADD12P,1.429621X8X202.500000*%
%ADD13C,1.879600*%
%ADD14C,2.540000*%
%ADD15C,1.320800*%
%ADD16C,1.422400*%
%ADD17P,1.429621X8X22.500000*%
%ADD18C,1.320800*%
%ADD19P,1.429621X8X292.500000*%
%ADD20P,1.429621X8X112.500000*%
%ADD21C,1.422400*%
%ADD22R,1.308000X1.308000*%
%ADD23C,2.095500*%
%ADD24C,1.879600*%
%ADD25C,0.152400*%
%ADD26C,1.270000*%
%ADD27C,0.756400*%


D10*
X661700Y364800D03*
D11*
X687100Y364800D03*
D12*
X550100Y503700D03*
X524700Y503700D03*
X550900Y443700D03*
X525500Y443700D03*
D13*
X233188Y80206D03*
X298212Y80206D03*
X233188Y34994D03*
X298212Y34994D03*
D14*
X976522Y641600D02*
X976522Y667000D01*
X751478Y667000D02*
X751478Y641600D01*
X756778Y163400D02*
X756778Y138000D01*
X981822Y138000D02*
X981822Y163400D01*
D15*
X379904Y160000D02*
X366696Y160000D01*
X366696Y185400D02*
X379904Y185400D01*
X379904Y312400D02*
X366696Y312400D01*
X366696Y337800D02*
X379904Y337800D01*
X379904Y210800D02*
X366696Y210800D01*
X366696Y236200D02*
X379904Y236200D01*
X379904Y287000D02*
X366696Y287000D01*
X366696Y261600D02*
X379904Y261600D01*
X379904Y363200D02*
X366696Y363200D01*
X366696Y388600D02*
X379904Y388600D01*
X379904Y414000D02*
X366696Y414000D01*
X366696Y439400D02*
X379904Y439400D01*
X379904Y464800D02*
X366696Y464800D01*
X366696Y490200D02*
X379904Y490200D01*
X379904Y515600D02*
X366696Y515600D01*
X366696Y541000D02*
X379904Y541000D01*
X379904Y566400D02*
X366696Y566400D01*
X366696Y591800D02*
X379904Y591800D01*
X379904Y617200D02*
X366696Y617200D01*
X366696Y642600D02*
X379904Y642600D01*
X227504Y642600D02*
X214296Y642600D01*
X214296Y617200D02*
X227504Y617200D01*
X227504Y591800D02*
X214296Y591800D01*
X214296Y566400D02*
X227504Y566400D01*
X227504Y541000D02*
X214296Y541000D01*
X214296Y515600D02*
X227504Y515600D01*
X227504Y490200D02*
X214296Y490200D01*
X214296Y464800D02*
X227504Y464800D01*
X227504Y439400D02*
X214296Y439400D01*
X214296Y414000D02*
X227504Y414000D01*
X227504Y388600D02*
X214296Y388600D01*
X214296Y363200D02*
X227504Y363200D01*
X227504Y337800D02*
X214296Y337800D01*
X214296Y312400D02*
X227504Y312400D01*
X227504Y287000D02*
X214296Y287000D01*
X214296Y261600D02*
X227504Y261600D01*
X227504Y236200D02*
X214296Y236200D01*
X214296Y210800D02*
X227504Y210800D01*
X227504Y185400D02*
X214296Y185400D01*
X214296Y160000D02*
X227504Y160000D01*
D16*
X443400Y664188D02*
X443400Y678412D01*
X468800Y678412D02*
X468800Y664188D01*
X494200Y664188D02*
X494200Y678412D01*
X48412Y468400D02*
X34188Y468400D01*
X34188Y443000D02*
X48412Y443000D01*
X48412Y417600D02*
X34188Y417600D01*
X34188Y392200D02*
X48412Y392200D01*
X48412Y367700D02*
X34188Y367700D01*
X34188Y342300D02*
X48412Y342300D01*
X48412Y316900D02*
X34188Y316900D01*
X34188Y291500D02*
X48412Y291500D01*
D12*
X419700Y32500D03*
X394300Y32500D03*
D17*
X458700Y32500D03*
X484100Y32500D03*
D18*
X478700Y449870D03*
X478700Y498130D03*
D19*
X592500Y464100D03*
X592500Y362500D03*
D20*
X417500Y83900D03*
X417500Y185500D03*
X457500Y61900D03*
X457500Y163500D03*
D13*
X-72512Y722606D03*
X-7488Y722606D03*
X-72512Y677394D03*
X-7488Y677394D03*
X1042488Y122606D03*
X1107512Y122606D03*
X1042488Y77394D03*
X1107512Y77394D03*
X-72512Y422606D03*
X-7488Y422606D03*
X-72512Y377394D03*
X-7488Y377394D03*
X-72512Y572606D03*
X-7488Y572606D03*
X-72512Y527394D03*
X-7488Y527394D03*
X-72512Y272606D03*
X-7488Y272606D03*
X-72512Y227394D03*
X-7488Y227394D03*
X-72512Y122606D03*
X-7488Y122606D03*
X-72512Y77394D03*
X-7488Y77394D03*
X1042488Y722606D03*
X1107512Y722606D03*
X1042488Y677394D03*
X1107512Y677394D03*
X1042488Y572606D03*
X1107512Y572606D03*
X1042488Y527394D03*
X1107512Y527394D03*
X1042488Y422606D03*
X1107512Y422606D03*
X1042488Y377394D03*
X1107512Y377394D03*
X1042488Y272606D03*
X1107512Y272606D03*
X1042488Y227394D03*
X1107512Y227394D03*
D21*
X685900Y324000D03*
X665900Y324000D03*
X645900Y324000D03*
X625900Y324000D03*
X605900Y324000D03*
X585900Y324000D03*
X565900Y324000D03*
X545900Y324000D03*
D22*
X897300Y236300D03*
X838300Y236300D03*
X777300Y572300D03*
X957300Y572300D03*
D23*
X830300Y81078D02*
X830300Y60123D01*
X881100Y60123D02*
X881100Y81078D01*
D24*
X556400Y727502D02*
X556400Y746298D01*
X581800Y746298D02*
X581800Y727502D01*
X607200Y727502D02*
X607200Y746298D01*
X632600Y746298D02*
X632600Y727502D01*
X658000Y727502D02*
X658000Y746298D01*
X683400Y746298D02*
X683400Y727502D01*
D12*
X658600Y666600D03*
X633200Y666600D03*
X418600Y737800D03*
X393200Y737800D03*
D25*
X687100Y587900D02*
X687100Y364800D01*
X500000Y645000D02*
X494200Y650800D01*
X500000Y645000D02*
X630000Y645000D01*
X687100Y587900D01*
X687100Y364800D02*
X687100Y325200D01*
X685900Y324000D01*
X494200Y650800D02*
X494200Y671300D01*
X545900Y324000D02*
X545900Y300900D01*
X506600Y261600D02*
X373300Y261600D01*
X506600Y261600D02*
X545900Y300900D01*
X605900Y324000D02*
X605900Y334100D01*
X600000Y340000D02*
X430000Y340000D01*
X402400Y312400D02*
X373300Y312400D01*
X600000Y340000D02*
X605900Y334100D01*
X430000Y340000D02*
X402400Y312400D01*
X412800Y337800D02*
X373300Y337800D01*
X625900Y334100D02*
X625900Y324000D01*
X420000Y345000D02*
X412800Y337800D01*
X420000Y345000D02*
X615000Y345000D01*
X625900Y334100D01*
X530800Y210800D02*
X373300Y210800D01*
X565900Y245900D02*
X565900Y324000D01*
X565900Y245900D02*
X530800Y210800D01*
X41300Y443000D02*
X-12000Y443000D01*
X-72512Y382488D02*
X-72512Y377394D01*
X-72512Y382488D02*
X-12000Y443000D01*
X550100Y503700D02*
X550100Y569900D01*
X468800Y651200D02*
X468800Y671300D01*
X468800Y651200D02*
X550100Y569900D01*
X468800Y671300D02*
X468800Y688800D01*
X480000Y700000D01*
X645000Y700000D01*
X660000Y685000D01*
X660000Y668000D01*
X658600Y666600D01*
X661700Y364800D02*
X665900Y360600D01*
X665900Y324000D01*
D26*
X756778Y150700D02*
X830300Y77178D01*
X830300Y70600D01*
X881100Y193500D02*
X838300Y236300D01*
X881100Y193500D02*
X881100Y70600D01*
X981822Y150700D02*
X981822Y193178D01*
X938700Y236300D02*
X897300Y236300D01*
X938700Y236300D02*
X981822Y193178D01*
D25*
X957300Y572300D02*
X976522Y591522D01*
X976522Y654300D01*
X62700Y367700D02*
X41300Y367700D01*
X75000Y380000D02*
X75000Y515000D01*
X126400Y566400D01*
X220900Y566400D01*
X75000Y380000D02*
X62700Y367700D01*
X52300Y342300D02*
X41300Y342300D01*
X52300Y342300D02*
X85000Y375000D01*
X85000Y515000D01*
X125000Y555000D01*
X286800Y591800D02*
X373300Y591800D01*
X250000Y555000D02*
X125000Y555000D01*
X250000Y555000D02*
X286800Y591800D01*
X61900Y316900D02*
X41300Y316900D01*
D27*
X95000Y505000D03*
X95000Y555000D03*
D25*
X170000Y630000D01*
X347600Y642600D02*
X373300Y642600D01*
X95000Y350000D02*
X61900Y316900D01*
X95000Y350000D02*
X95000Y505000D01*
X170000Y630000D02*
X335000Y630000D01*
X347600Y642600D01*
X61500Y291500D02*
X41300Y291500D01*
X115000Y345000D02*
X115000Y515000D01*
X130000Y530000D01*
X306400Y566400D02*
X373300Y566400D01*
X115000Y345000D02*
X61500Y291500D01*
X130000Y530000D02*
X270000Y530000D01*
X306400Y566400D01*
D27*
X270000Y225000D03*
D25*
X255800Y210800D01*
X220900Y210800D01*
X1032606Y722606D02*
X1042488Y722606D01*
X1032606Y722606D02*
X1010000Y700000D01*
X1010000Y560000D02*
X585000Y135000D01*
X185000Y135000D01*
X155000Y165000D01*
X155000Y270000D01*
X172000Y287000D02*
X220900Y287000D01*
X1010000Y560000D02*
X1010000Y700000D01*
X172000Y287000D02*
X155000Y270000D01*
X594882Y125000D02*
X1042488Y572606D01*
X594882Y125000D02*
X175000Y125000D01*
X140000Y160000D01*
X140000Y290000D01*
X162400Y312400D01*
X220900Y312400D01*
X904882Y285000D02*
X1042488Y422606D01*
X904882Y285000D02*
X775000Y285000D01*
X605000Y115000D02*
X165000Y115000D01*
X125000Y155000D01*
X157800Y337800D02*
X220900Y337800D01*
X605000Y115000D02*
X775000Y285000D01*
X125000Y305000D02*
X125000Y155000D01*
X125000Y305000D02*
X157800Y337800D01*
X949882Y30000D02*
X1042488Y122606D01*
X575000Y30000D02*
X500000Y105000D01*
X220900Y464800D02*
X220700Y465000D01*
X575000Y30000D02*
X949882Y30000D01*
X140000Y105000D02*
X100000Y145000D01*
X100000Y310000D01*
X135000Y345000D01*
X135000Y450000D01*
X150000Y465000D01*
X220700Y465000D01*
X140000Y105000D02*
X500000Y105000D01*
D27*
X350000Y350000D03*
D25*
X335000Y350000D01*
X280000Y405000D01*
D27*
X280000Y405000D03*
D25*
X592500Y427500D02*
X592500Y464100D01*
X553600Y388600D02*
X373300Y388600D01*
X553600Y388600D02*
X592500Y427500D01*
X296000Y414000D02*
X220900Y414000D01*
X321400Y388600D02*
X373300Y388600D01*
X321400Y388600D02*
X296000Y414000D01*
X737178Y640000D02*
X751478Y654300D01*
X737178Y640000D02*
X645000Y640000D01*
X633200Y651800D01*
X633200Y666600D01*
X533400Y666600D01*
X520000Y680000D01*
D27*
X520000Y680000D03*
M02*
