G04 EAGLE Gerber RS-274X export*
G75*
%MOMM*%
%FSLAX34Y34*%
%LPD*%
%IN*%
%IPPOS*%
%AMOC8*
5,1,8,0,0,1.08239X$1,22.5*%
G01*
%ADD10C,0.254000*%


D10*
X-100000Y0D02*
X1130000Y0D01*
X1130000Y785000D01*
X-100000Y785000D01*
X-100000Y0D01*
X47500Y29427D02*
X47425Y28284D01*
X47276Y27148D01*
X47052Y26024D01*
X46755Y24917D01*
X46387Y23832D01*
X45949Y22774D01*
X45442Y21746D01*
X44869Y20754D01*
X44232Y19801D01*
X43535Y18892D01*
X42779Y18031D01*
X41969Y17221D01*
X41108Y16465D01*
X40199Y15768D01*
X39246Y15131D01*
X38254Y14558D01*
X37226Y14051D01*
X36168Y13613D01*
X35083Y13245D01*
X33976Y12948D01*
X32852Y12725D01*
X31716Y12575D01*
X30573Y12500D01*
X29427Y12500D01*
X28284Y12575D01*
X27148Y12725D01*
X26024Y12948D01*
X24917Y13245D01*
X23832Y13613D01*
X22774Y14051D01*
X21746Y14558D01*
X20754Y15131D01*
X19801Y15768D01*
X18892Y16465D01*
X18031Y17221D01*
X17221Y18031D01*
X16465Y18892D01*
X15768Y19801D01*
X15131Y20754D01*
X14558Y21746D01*
X14051Y22774D01*
X13613Y23832D01*
X13245Y24917D01*
X12948Y26024D01*
X12725Y27148D01*
X12575Y28284D01*
X12500Y29427D01*
X12500Y30573D01*
X12575Y31716D01*
X12725Y32852D01*
X12948Y33976D01*
X13245Y35083D01*
X13613Y36168D01*
X14051Y37226D01*
X14558Y38254D01*
X15131Y39246D01*
X15768Y40199D01*
X16465Y41108D01*
X17221Y41969D01*
X18031Y42779D01*
X18892Y43535D01*
X19801Y44232D01*
X20754Y44869D01*
X21746Y45442D01*
X22774Y45949D01*
X23832Y46387D01*
X24917Y46755D01*
X26024Y47052D01*
X27148Y47276D01*
X28284Y47425D01*
X29427Y47500D01*
X30573Y47500D01*
X31716Y47425D01*
X32852Y47276D01*
X33976Y47052D01*
X35083Y46755D01*
X36168Y46387D01*
X37226Y45949D01*
X38254Y45442D01*
X39246Y44869D01*
X40199Y44232D01*
X41108Y43535D01*
X41969Y42779D01*
X42779Y41969D01*
X43535Y41108D01*
X44232Y40199D01*
X44869Y39246D01*
X45442Y38254D01*
X45949Y37226D01*
X46387Y36168D01*
X46755Y35083D01*
X47052Y33976D01*
X47276Y32852D01*
X47425Y31716D01*
X47500Y30573D01*
X47500Y29427D01*
X1017500Y29427D02*
X1017425Y28284D01*
X1017276Y27148D01*
X1017052Y26024D01*
X1016755Y24917D01*
X1016387Y23832D01*
X1015949Y22774D01*
X1015442Y21746D01*
X1014869Y20754D01*
X1014232Y19801D01*
X1013535Y18892D01*
X1012779Y18031D01*
X1011969Y17221D01*
X1011108Y16465D01*
X1010199Y15768D01*
X1009246Y15131D01*
X1008254Y14558D01*
X1007226Y14051D01*
X1006168Y13613D01*
X1005083Y13245D01*
X1003976Y12948D01*
X1002852Y12725D01*
X1001716Y12575D01*
X1000573Y12500D01*
X999427Y12500D01*
X998284Y12575D01*
X997148Y12725D01*
X996024Y12948D01*
X994917Y13245D01*
X993832Y13613D01*
X992774Y14051D01*
X991746Y14558D01*
X990754Y15131D01*
X989801Y15768D01*
X988892Y16465D01*
X988031Y17221D01*
X987221Y18031D01*
X986465Y18892D01*
X985768Y19801D01*
X985131Y20754D01*
X984558Y21746D01*
X984051Y22774D01*
X983613Y23832D01*
X983245Y24917D01*
X982948Y26024D01*
X982725Y27148D01*
X982575Y28284D01*
X982500Y29427D01*
X982500Y30573D01*
X982575Y31716D01*
X982725Y32852D01*
X982948Y33976D01*
X983245Y35083D01*
X983613Y36168D01*
X984051Y37226D01*
X984558Y38254D01*
X985131Y39246D01*
X985768Y40199D01*
X986465Y41108D01*
X987221Y41969D01*
X988031Y42779D01*
X988892Y43535D01*
X989801Y44232D01*
X990754Y44869D01*
X991746Y45442D01*
X992774Y45949D01*
X993832Y46387D01*
X994917Y46755D01*
X996024Y47052D01*
X997148Y47276D01*
X998284Y47425D01*
X999427Y47500D01*
X1000573Y47500D01*
X1001716Y47425D01*
X1002852Y47276D01*
X1003976Y47052D01*
X1005083Y46755D01*
X1006168Y46387D01*
X1007226Y45949D01*
X1008254Y45442D01*
X1009246Y44869D01*
X1010199Y44232D01*
X1011108Y43535D01*
X1011969Y42779D01*
X1012779Y41969D01*
X1013535Y41108D01*
X1014232Y40199D01*
X1014869Y39246D01*
X1015442Y38254D01*
X1015949Y37226D01*
X1016387Y36168D01*
X1016755Y35083D01*
X1017052Y33976D01*
X1017276Y32852D01*
X1017425Y31716D01*
X1017500Y30573D01*
X1017500Y29427D01*
X47500Y754427D02*
X47425Y753284D01*
X47276Y752148D01*
X47052Y751024D01*
X46755Y749917D01*
X46387Y748832D01*
X45949Y747774D01*
X45442Y746746D01*
X44869Y745754D01*
X44232Y744801D01*
X43535Y743892D01*
X42779Y743031D01*
X41969Y742221D01*
X41108Y741465D01*
X40199Y740768D01*
X39246Y740131D01*
X38254Y739558D01*
X37226Y739051D01*
X36168Y738613D01*
X35083Y738245D01*
X33976Y737948D01*
X32852Y737725D01*
X31716Y737575D01*
X30573Y737500D01*
X29427Y737500D01*
X28284Y737575D01*
X27148Y737725D01*
X26024Y737948D01*
X24917Y738245D01*
X23832Y738613D01*
X22774Y739051D01*
X21746Y739558D01*
X20754Y740131D01*
X19801Y740768D01*
X18892Y741465D01*
X18031Y742221D01*
X17221Y743031D01*
X16465Y743892D01*
X15768Y744801D01*
X15131Y745754D01*
X14558Y746746D01*
X14051Y747774D01*
X13613Y748832D01*
X13245Y749917D01*
X12948Y751024D01*
X12725Y752148D01*
X12575Y753284D01*
X12500Y754427D01*
X12500Y755573D01*
X12575Y756716D01*
X12725Y757852D01*
X12948Y758976D01*
X13245Y760083D01*
X13613Y761168D01*
X14051Y762226D01*
X14558Y763254D01*
X15131Y764246D01*
X15768Y765199D01*
X16465Y766108D01*
X17221Y766969D01*
X18031Y767779D01*
X18892Y768535D01*
X19801Y769232D01*
X20754Y769869D01*
X21746Y770442D01*
X22774Y770949D01*
X23832Y771387D01*
X24917Y771755D01*
X26024Y772052D01*
X27148Y772276D01*
X28284Y772425D01*
X29427Y772500D01*
X30573Y772500D01*
X31716Y772425D01*
X32852Y772276D01*
X33976Y772052D01*
X35083Y771755D01*
X36168Y771387D01*
X37226Y770949D01*
X38254Y770442D01*
X39246Y769869D01*
X40199Y769232D01*
X41108Y768535D01*
X41969Y767779D01*
X42779Y766969D01*
X43535Y766108D01*
X44232Y765199D01*
X44869Y764246D01*
X45442Y763254D01*
X45949Y762226D01*
X46387Y761168D01*
X46755Y760083D01*
X47052Y758976D01*
X47276Y757852D01*
X47425Y756716D01*
X47500Y755573D01*
X47500Y754427D01*
X1017500Y754427D02*
X1017425Y753284D01*
X1017276Y752148D01*
X1017052Y751024D01*
X1016755Y749917D01*
X1016387Y748832D01*
X1015949Y747774D01*
X1015442Y746746D01*
X1014869Y745754D01*
X1014232Y744801D01*
X1013535Y743892D01*
X1012779Y743031D01*
X1011969Y742221D01*
X1011108Y741465D01*
X1010199Y740768D01*
X1009246Y740131D01*
X1008254Y739558D01*
X1007226Y739051D01*
X1006168Y738613D01*
X1005083Y738245D01*
X1003976Y737948D01*
X1002852Y737725D01*
X1001716Y737575D01*
X1000573Y737500D01*
X999427Y737500D01*
X998284Y737575D01*
X997148Y737725D01*
X996024Y737948D01*
X994917Y738245D01*
X993832Y738613D01*
X992774Y739051D01*
X991746Y739558D01*
X990754Y740131D01*
X989801Y740768D01*
X988892Y741465D01*
X988031Y742221D01*
X987221Y743031D01*
X986465Y743892D01*
X985768Y744801D01*
X985131Y745754D01*
X984558Y746746D01*
X984051Y747774D01*
X983613Y748832D01*
X983245Y749917D01*
X982948Y751024D01*
X982725Y752148D01*
X982575Y753284D01*
X982500Y754427D01*
X982500Y755573D01*
X982575Y756716D01*
X982725Y757852D01*
X982948Y758976D01*
X983245Y760083D01*
X983613Y761168D01*
X984051Y762226D01*
X984558Y763254D01*
X985131Y764246D01*
X985768Y765199D01*
X986465Y766108D01*
X987221Y766969D01*
X988031Y767779D01*
X988892Y768535D01*
X989801Y769232D01*
X990754Y769869D01*
X991746Y770442D01*
X992774Y770949D01*
X993832Y771387D01*
X994917Y771755D01*
X996024Y772052D01*
X997148Y772276D01*
X998284Y772425D01*
X999427Y772500D01*
X1000573Y772500D01*
X1001716Y772425D01*
X1002852Y772276D01*
X1003976Y772052D01*
X1005083Y771755D01*
X1006168Y771387D01*
X1007226Y770949D01*
X1008254Y770442D01*
X1009246Y769869D01*
X1010199Y769232D01*
X1011108Y768535D01*
X1011969Y767779D01*
X1012779Y766969D01*
X1013535Y766108D01*
X1014232Y765199D01*
X1014869Y764246D01*
X1015442Y763254D01*
X1015949Y762226D01*
X1016387Y761168D01*
X1016755Y760083D01*
X1017052Y758976D01*
X1017276Y757852D01*
X1017425Y756716D01*
X1017500Y755573D01*
X1017500Y754427D01*
M02*
