M48
;GenerationSoftware,Autodesk,EAGLE,9.4.2*%
;CreationDate,2019-07-31T22:04:17Z*%
FMAT,2
ICI,OFF
METRIC,TZ,000.000
T9C0.350
T8C0.800
T7C0.813
T6C0.900
T5C0.914
T4C1.016
T3C1.321
T2C1.397
T1C3.500
%
G90
M71
T1
X4445Y96520
X81280Y96520
X81915Y3810
X4445Y3810
T2
X79439Y38100
X6350Y11430
X79439Y33020
X79439Y15621
X79439Y27940
X79375Y55435
X79375Y50355
X79375Y45275
X79312Y72708
X79312Y67628
X79312Y62547
X79439Y10541
X79439Y20701
X6985Y89281
X6985Y84201
X6350Y54610
X6350Y49530
X6350Y41910
X6350Y36830
X6350Y29210
X6350Y24130
X6350Y16510
T3
X15938Y74727
X15938Y97231
X67882Y97231
X67882Y74727
T4
X18428Y41694
X11925Y37173
X18428Y37173
X11925Y50127
X18428Y54648
X11925Y54648
X18428Y50127
X9957Y67221
X16459Y67221
X9957Y62700
X16459Y62700
X18491Y16802
X11989Y16802
X11989Y12281
X18491Y12281
X11989Y29248
X18491Y29248
X11989Y24727
X18491Y24727
X11925Y41694
T5
X3937Y77851
X3937Y75311
T6
X73730Y59475
X73793Y9692
X61793Y21692
X59793Y15691
X73793Y38964
X59793Y32964
X61793Y38964
X73793Y26963
X61793Y43347
X73793Y55346
X73793Y21692
X61793Y26963
X59793Y49346
X61793Y55346
X73793Y43347
X61729Y59475
X73730Y71476
X59729Y65475
X61729Y71476
X61793Y9692
T7
X42355Y55181
X42355Y42482
X42355Y39942
X42355Y52641
X42355Y50101
X42355Y45021
X42355Y47561
X42355Y37402
X49974Y37402
X49974Y39942
X49974Y42482
X49974Y45021
X49974Y47561
X49974Y50101
X49974Y52641
X49974Y55181
X49974Y57721
X54991Y29781
X54991Y19622
X55245Y12700
X55245Y2540
X54991Y32067
X54991Y34608
X55245Y14922
X55245Y17463
X19431Y70295
X9271Y70295
X1778Y70358
X4318Y70358
X41910Y34354
X41910Y31813
X54991Y67056
X54991Y69596
X54927Y49911
X54927Y52451
X55054Y64770
X55054Y54610
X54991Y47688
X54991Y37529
X42355Y57721
T8
X31432Y39815
X33973Y39815
X37783Y39815
X37783Y44894
X37783Y42355
X37783Y57594
X37783Y60134
X37783Y62674
X37783Y65214
X37783Y67755
X22542Y39815
X22542Y42355
X22542Y44894
X22542Y47434
X22542Y49974
X22542Y52514
X22542Y55054
X22542Y57594
X22542Y60134
X28892Y39815
X22542Y65214
X22542Y67755
X36513Y70295
X33973Y70295
X31432Y70295
X28892Y70295
X26352Y70295
X23812Y70295
X22542Y62674
X23099Y31750
X25099Y31750
X27099Y31750
X29099Y31750
X31099Y31750
X33099Y31750
X35099Y31750
X37099Y31750
X37783Y47434
X37783Y49974
X37783Y52514
X37783Y55054
X58660Y77430
X58660Y95430
X25060Y89330
X25060Y83430
X33973Y56324
X33973Y58864
T9
X46545Y67755
X14605Y58102
M30