G04 EAGLE Gerber RS-274X export*
G75*
%MOMM*%
%FSLAX34Y34*%
%LPD*%
%INSoldermask Top*%
%IPPOS*%
%AMOC8*
5,1,8,0,0,1.08239X$1,22.5*%
G01*
%ADD10C,3.703200*%
%ADD11C,2.743200*%
%ADD12R,1.511200X1.511200*%
%ADD13C,2.298700*%
%ADD14C,1.611200*%
%ADD15P,1.649562X8X22.500000*%
%ADD16C,1.879600*%
%ADD17P,1.649562X8X292.500000*%
%ADD18R,0.812800X2.413000*%
%ADD19P,1.649562X8X202.500000*%
%ADD20P,1.649562X8X112.500000*%
%ADD21C,1.524000*%
%ADD22C,1.524000*%
%ADD23C,2.082800*%
%ADD24C,1.625600*%
%ADD25P,1.951982X8X202.500000*%
%ADD26C,1.803400*%
%ADD27C,1.625600*%
%ADD28C,0.959600*%

G36*
X312969Y855918D02*
X312969Y855918D01*
X313017Y855932D01*
X313107Y855950D01*
X314016Y856271D01*
X314060Y856296D01*
X314144Y856333D01*
X314959Y856848D01*
X314996Y856882D01*
X315069Y856937D01*
X315749Y857621D01*
X315778Y857662D01*
X315837Y857732D01*
X316348Y858550D01*
X316366Y858597D01*
X316409Y858678D01*
X316724Y859589D01*
X316732Y859639D01*
X316756Y859728D01*
X316861Y860686D01*
X316858Y860716D01*
X316864Y860755D01*
X316864Y860856D01*
X316859Y860884D01*
X316861Y860920D01*
X316762Y861893D01*
X316749Y861942D01*
X316732Y862032D01*
X316420Y862959D01*
X316395Y863003D01*
X316360Y863088D01*
X315849Y863922D01*
X315815Y863960D01*
X315761Y864034D01*
X315077Y864734D01*
X315036Y864763D01*
X314967Y864823D01*
X314145Y865353D01*
X314098Y865373D01*
X314018Y865417D01*
X313098Y865750D01*
X313049Y865759D01*
X312960Y865784D01*
X311989Y865904D01*
X311979Y865904D01*
X311967Y865907D01*
X311664Y865934D01*
X311614Y865929D01*
X311515Y865929D01*
X310558Y865787D01*
X310510Y865771D01*
X310420Y865751D01*
X309518Y865399D01*
X309475Y865373D01*
X309393Y865333D01*
X308592Y864790D01*
X308556Y864754D01*
X308484Y864697D01*
X307824Y863989D01*
X307797Y863947D01*
X307740Y863875D01*
X307254Y863038D01*
X307237Y862990D01*
X307197Y862907D01*
X306910Y861983D01*
X306904Y861933D01*
X306883Y861843D01*
X306817Y860978D01*
X306815Y860970D01*
X306815Y860952D01*
X306812Y860911D01*
X306808Y860882D01*
X306808Y860830D01*
X306813Y860803D01*
X306916Y859836D01*
X306930Y859788D01*
X306947Y859697D01*
X307266Y858767D01*
X307291Y858723D01*
X307327Y858638D01*
X307846Y857802D01*
X307879Y857765D01*
X307934Y857691D01*
X308625Y856991D01*
X308667Y856962D01*
X308736Y856901D01*
X309566Y856373D01*
X309613Y856354D01*
X309694Y856311D01*
X310621Y855980D01*
X310671Y855972D01*
X310759Y855948D01*
X311712Y855835D01*
X311816Y855815D01*
X311820Y855815D01*
X311823Y855813D01*
X312011Y855807D01*
X312969Y855918D01*
G37*
G36*
X247945Y855893D02*
X247945Y855893D01*
X247993Y855907D01*
X248083Y855925D01*
X248992Y856246D01*
X249036Y856271D01*
X249120Y856308D01*
X249935Y856823D01*
X249972Y856857D01*
X250045Y856912D01*
X250725Y857596D01*
X250754Y857637D01*
X250813Y857707D01*
X251324Y858525D01*
X251342Y858572D01*
X251385Y858653D01*
X251700Y859564D01*
X251708Y859614D01*
X251732Y859703D01*
X251837Y860661D01*
X251834Y860691D01*
X251840Y860730D01*
X251840Y860831D01*
X251835Y860859D01*
X251837Y860895D01*
X251738Y861868D01*
X251725Y861917D01*
X251708Y862007D01*
X251396Y862934D01*
X251371Y862978D01*
X251336Y863063D01*
X250825Y863897D01*
X250791Y863935D01*
X250737Y864009D01*
X250053Y864709D01*
X250012Y864738D01*
X249943Y864798D01*
X249121Y865328D01*
X249074Y865348D01*
X248994Y865392D01*
X248074Y865725D01*
X248025Y865734D01*
X247936Y865759D01*
X246965Y865879D01*
X246955Y865879D01*
X246943Y865882D01*
X246640Y865909D01*
X246590Y865904D01*
X246491Y865904D01*
X245534Y865762D01*
X245486Y865746D01*
X245396Y865726D01*
X244494Y865374D01*
X244451Y865348D01*
X244369Y865308D01*
X243568Y864765D01*
X243532Y864729D01*
X243460Y864672D01*
X242800Y863964D01*
X242773Y863922D01*
X242716Y863850D01*
X242230Y863013D01*
X242213Y862965D01*
X242173Y862882D01*
X241886Y861958D01*
X241880Y861908D01*
X241859Y861818D01*
X241793Y860953D01*
X241791Y860945D01*
X241791Y860927D01*
X241788Y860886D01*
X241784Y860857D01*
X241784Y860805D01*
X241789Y860778D01*
X241892Y859811D01*
X241906Y859763D01*
X241923Y859672D01*
X242242Y858742D01*
X242267Y858698D01*
X242303Y858613D01*
X242822Y857777D01*
X242855Y857740D01*
X242910Y857666D01*
X243601Y856966D01*
X243643Y856937D01*
X243712Y856876D01*
X244542Y856348D01*
X244589Y856329D01*
X244670Y856286D01*
X245597Y855955D01*
X245647Y855947D01*
X245735Y855923D01*
X246688Y855810D01*
X246792Y855790D01*
X246796Y855790D01*
X246799Y855788D01*
X246987Y855782D01*
X247945Y855893D01*
G37*
G36*
X247945Y810655D02*
X247945Y810655D01*
X247993Y810669D01*
X248083Y810687D01*
X248992Y811008D01*
X249036Y811033D01*
X249120Y811070D01*
X249935Y811585D01*
X249972Y811619D01*
X250045Y811674D01*
X250725Y812358D01*
X250754Y812399D01*
X250813Y812469D01*
X251324Y813287D01*
X251342Y813334D01*
X251385Y813415D01*
X251700Y814326D01*
X251708Y814376D01*
X251732Y814465D01*
X251837Y815423D01*
X251834Y815453D01*
X251840Y815492D01*
X251840Y815593D01*
X251835Y815621D01*
X251837Y815657D01*
X251738Y816630D01*
X251725Y816679D01*
X251708Y816769D01*
X251396Y817696D01*
X251371Y817740D01*
X251336Y817825D01*
X250825Y818659D01*
X250791Y818697D01*
X250737Y818771D01*
X250053Y819471D01*
X250012Y819500D01*
X249943Y819560D01*
X249121Y820090D01*
X249074Y820110D01*
X248994Y820154D01*
X248074Y820487D01*
X248025Y820496D01*
X247936Y820521D01*
X246965Y820641D01*
X246955Y820641D01*
X246943Y820644D01*
X246640Y820671D01*
X246590Y820666D01*
X246491Y820666D01*
X245534Y820524D01*
X245486Y820508D01*
X245396Y820488D01*
X244494Y820136D01*
X244451Y820110D01*
X244369Y820070D01*
X243568Y819527D01*
X243532Y819491D01*
X243460Y819434D01*
X242800Y818726D01*
X242773Y818684D01*
X242716Y818612D01*
X242230Y817775D01*
X242213Y817727D01*
X242173Y817644D01*
X241886Y816720D01*
X241880Y816670D01*
X241859Y816580D01*
X241793Y815715D01*
X241791Y815707D01*
X241791Y815689D01*
X241788Y815648D01*
X241784Y815619D01*
X241784Y815567D01*
X241789Y815540D01*
X241892Y814573D01*
X241906Y814525D01*
X241923Y814434D01*
X242242Y813504D01*
X242267Y813460D01*
X242303Y813375D01*
X242822Y812539D01*
X242855Y812502D01*
X242910Y812428D01*
X243601Y811728D01*
X243643Y811699D01*
X243712Y811638D01*
X244542Y811110D01*
X244589Y811091D01*
X244670Y811048D01*
X245597Y810717D01*
X245647Y810709D01*
X245735Y810685D01*
X246688Y810572D01*
X246792Y810552D01*
X246796Y810552D01*
X246799Y810550D01*
X246987Y810544D01*
X247945Y810655D01*
G37*
G36*
X313020Y810630D02*
X313020Y810630D01*
X313068Y810644D01*
X313158Y810662D01*
X314067Y810983D01*
X314111Y811008D01*
X314195Y811045D01*
X315010Y811560D01*
X315047Y811594D01*
X315120Y811649D01*
X315800Y812333D01*
X315829Y812374D01*
X315888Y812444D01*
X316399Y813262D01*
X316417Y813309D01*
X316460Y813390D01*
X316775Y814301D01*
X316783Y814351D01*
X316807Y814440D01*
X316912Y815398D01*
X316909Y815428D01*
X316915Y815467D01*
X316915Y815568D01*
X316910Y815596D01*
X316912Y815632D01*
X316813Y816605D01*
X316800Y816654D01*
X316783Y816744D01*
X316471Y817671D01*
X316446Y817715D01*
X316411Y817800D01*
X315900Y818634D01*
X315866Y818672D01*
X315812Y818746D01*
X315128Y819446D01*
X315087Y819475D01*
X315018Y819535D01*
X314196Y820065D01*
X314149Y820085D01*
X314069Y820129D01*
X313149Y820462D01*
X313100Y820471D01*
X313011Y820496D01*
X312040Y820616D01*
X312030Y820616D01*
X312018Y820619D01*
X311715Y820646D01*
X311665Y820641D01*
X311566Y820641D01*
X310609Y820499D01*
X310561Y820483D01*
X310471Y820463D01*
X309569Y820111D01*
X309526Y820085D01*
X309444Y820045D01*
X308643Y819502D01*
X308607Y819466D01*
X308535Y819409D01*
X307875Y818701D01*
X307848Y818659D01*
X307791Y818587D01*
X307305Y817750D01*
X307288Y817702D01*
X307248Y817619D01*
X306961Y816695D01*
X306955Y816645D01*
X306934Y816555D01*
X306868Y815690D01*
X306866Y815682D01*
X306866Y815664D01*
X306863Y815623D01*
X306859Y815594D01*
X306859Y815542D01*
X306864Y815515D01*
X306967Y814548D01*
X306981Y814500D01*
X306998Y814409D01*
X307317Y813479D01*
X307342Y813435D01*
X307378Y813350D01*
X307897Y812514D01*
X307930Y812477D01*
X307985Y812403D01*
X308676Y811703D01*
X308718Y811674D01*
X308787Y811613D01*
X309617Y811085D01*
X309664Y811066D01*
X309745Y811023D01*
X310672Y810692D01*
X310722Y810684D01*
X310810Y810660D01*
X311763Y810547D01*
X311867Y810527D01*
X311871Y810527D01*
X311874Y810525D01*
X312062Y810519D01*
X313020Y810630D01*
G37*
D10*
X673100Y965200D03*
X38100Y965200D03*
X38100Y38100D03*
X673100Y38100D03*
D11*
X27178Y165100D02*
X27178Y190500D01*
X252222Y190500D02*
X252222Y165100D01*
X252222Y673100D02*
X252222Y698500D01*
X27178Y698500D02*
X27178Y673100D01*
D12*
X169000Y263300D03*
X110000Y263300D03*
X49000Y599300D03*
X229000Y599300D03*
D13*
X114300Y86678D02*
X114300Y65723D01*
X165100Y65723D02*
X165100Y86678D01*
D14*
X340300Y239000D03*
X460300Y119000D03*
X480300Y179000D03*
X340300Y119000D03*
X460300Y239000D03*
D15*
X584200Y101600D03*
X571500Y120650D03*
X558800Y101600D03*
D16*
X558800Y139700D03*
X558800Y241300D03*
D17*
X584200Y482600D03*
X584200Y381000D03*
D18*
X499110Y347218D03*
X511810Y347218D03*
X524510Y347218D03*
X537210Y347218D03*
X537210Y399542D03*
X524510Y399542D03*
X511810Y399542D03*
X499110Y399542D03*
D13*
X330200Y86678D02*
X330200Y65723D01*
X381000Y65723D02*
X381000Y86678D01*
X431800Y86678D02*
X431800Y65723D01*
D19*
X609600Y38100D03*
X508000Y38100D03*
D20*
X635000Y76200D03*
X635000Y177800D03*
D17*
X673100Y177800D03*
X673100Y76200D03*
D20*
X673100Y203200D03*
X673100Y304800D03*
D17*
X635000Y304800D03*
X635000Y203200D03*
D20*
X635000Y330200D03*
X635000Y431800D03*
D17*
X673100Y431800D03*
X673100Y330200D03*
D19*
X685800Y457200D03*
X635000Y457200D03*
D17*
X520700Y254000D03*
X520700Y152400D03*
D19*
X457200Y279400D03*
X355600Y279400D03*
D15*
X495300Y292100D03*
X546100Y292100D03*
D20*
X457200Y304800D03*
X457200Y355600D03*
D21*
X400304Y939800D02*
X387096Y939800D01*
X387096Y914400D02*
X400304Y914400D01*
X400304Y889000D02*
X387096Y889000D01*
X387096Y863600D02*
X400304Y863600D01*
X400304Y838200D02*
X387096Y838200D01*
X387096Y812800D02*
X400304Y812800D01*
X400304Y787400D02*
X387096Y787400D01*
X387096Y762000D02*
X400304Y762000D01*
X400304Y736600D02*
X387096Y736600D01*
X387096Y711200D02*
X400304Y711200D01*
X400304Y685800D02*
X387096Y685800D01*
X387096Y660400D02*
X400304Y660400D01*
X400304Y635000D02*
X387096Y635000D01*
X387096Y609600D02*
X400304Y609600D01*
X400304Y584200D02*
X387096Y584200D01*
X387096Y558800D02*
X400304Y558800D01*
X400304Y533400D02*
X387096Y533400D01*
X387096Y508000D02*
X400304Y508000D01*
X400304Y482600D02*
X387096Y482600D01*
X387096Y457200D02*
X400304Y457200D01*
X539496Y457200D02*
X552704Y457200D01*
X552704Y482600D02*
X539496Y482600D01*
X539496Y508000D02*
X552704Y508000D01*
X552704Y533400D02*
X539496Y533400D01*
X539496Y558800D02*
X552704Y558800D01*
X552704Y584200D02*
X539496Y584200D01*
X539496Y609600D02*
X552704Y609600D01*
X552704Y635000D02*
X539496Y635000D01*
X539496Y660400D02*
X552704Y660400D01*
X552704Y685800D02*
X539496Y685800D01*
X539496Y711200D02*
X552704Y711200D01*
X552704Y736600D02*
X539496Y736600D01*
X539496Y762000D02*
X552704Y762000D01*
X552704Y787400D02*
X539496Y787400D01*
X539496Y812800D02*
X552704Y812800D01*
X552704Y838200D02*
X539496Y838200D01*
X539496Y863600D02*
X552704Y863600D01*
X552704Y889000D02*
X539496Y889000D01*
X539496Y914400D02*
X552704Y914400D01*
X552704Y939800D02*
X539496Y939800D01*
D22*
X304800Y623570D03*
X304800Y671830D03*
D17*
X292100Y749300D03*
X292100Y723900D03*
D20*
X292100Y539750D03*
X292100Y565150D03*
D15*
X292100Y393700D03*
X393700Y393700D03*
D20*
X317500Y723900D03*
X317500Y749300D03*
X419100Y368300D03*
X419100Y393700D03*
D23*
X419100Y326898D02*
X419100Y308102D01*
X393700Y308102D02*
X393700Y326898D01*
X368300Y326898D02*
X368300Y308102D01*
X342900Y308102D02*
X342900Y326898D01*
X317500Y326898D02*
X317500Y308102D01*
X292100Y308102D02*
X292100Y326898D01*
D24*
X299212Y444500D02*
X284988Y444500D01*
X284988Y469900D02*
X299212Y469900D01*
X299212Y495300D02*
X284988Y495300D01*
D25*
X177800Y774700D03*
D26*
X203200Y774700D03*
D27*
X197000Y812800D03*
X177000Y812800D03*
X157000Y812800D03*
X137000Y812800D03*
X117000Y812800D03*
X97000Y812800D03*
X77000Y812800D03*
X57000Y812800D03*
D19*
X304800Y914400D03*
X203200Y914400D03*
D15*
X152400Y901700D03*
X177800Y901700D03*
X152400Y965200D03*
X177800Y965200D03*
D19*
X304800Y952500D03*
X203200Y952500D03*
D28*
X101600Y844550D03*
X63500Y838200D03*
X419500Y279800D03*
X292100Y781050D03*
X355600Y685800D03*
M02*
