G04 EAGLE Gerber RS-274X export*
G75*
%MOMM*%
%FSLAX34Y34*%
%LPD*%
%INBottom Copper*%
%IPPOS*%
%AMOC8*
5,1,8,0,0,1.08239X$1,22.5*%
G01*
%ADD10P,1.732040X8X202.500000*%
%ADD11C,1.600200*%
%ADD12C,1.879600*%
%ADD13C,2.540000*%
%ADD14C,1.422400*%
%ADD15P,1.429621X8X22.500000*%
%ADD16P,1.429621X8X202.500000*%
%ADD17C,1.422400*%
%ADD18C,1.308000*%
%ADD19C,1.308000*%
%ADD20R,1.308000X1.308000*%
%ADD21P,1.814519X8X22.500000*%
%ADD22C,2.095500*%
%ADD23C,1.408000*%
%ADD24C,1.676400*%
%ADD25C,0.254000*%
%ADD26C,0.756400*%
%ADD27C,1.270000*%


D10*
X711200Y431800D03*
D11*
X736600Y431800D03*
D12*
X96012Y371094D03*
X30988Y371094D03*
X96012Y416306D03*
X30988Y416306D03*
D13*
X114300Y751078D02*
X139700Y751078D01*
X139700Y976122D02*
X114300Y976122D01*
X622300Y976122D02*
X647700Y976122D01*
X647700Y751078D02*
X622300Y751078D01*
D14*
X70612Y304800D02*
X56388Y304800D01*
X56388Y279400D02*
X70612Y279400D01*
X70612Y254000D02*
X56388Y254000D01*
D15*
X50800Y469900D03*
X76200Y469900D03*
D16*
X203200Y469900D03*
X101600Y469900D03*
D17*
X730400Y381000D03*
X710400Y381000D03*
X690400Y381000D03*
X670400Y381000D03*
X650400Y381000D03*
X630400Y381000D03*
X610400Y381000D03*
X590400Y381000D03*
D18*
X317500Y641160D02*
X317500Y654240D01*
X342900Y654240D02*
X342900Y641160D01*
X368300Y641160D02*
X368300Y654240D01*
X393700Y654240D02*
X393700Y641160D01*
X419100Y641160D02*
X419100Y654240D01*
X444500Y654240D02*
X444500Y641160D01*
X311340Y622300D02*
X298260Y622300D01*
X298260Y596900D02*
X311340Y596900D01*
X311340Y571500D02*
X298260Y571500D01*
X298260Y546100D02*
X311340Y546100D01*
X311340Y520700D02*
X298260Y520700D01*
X298260Y495300D02*
X311340Y495300D01*
X311340Y469900D02*
X298260Y469900D01*
X298260Y444500D02*
X311340Y444500D01*
X311340Y419100D02*
X298260Y419100D01*
X298260Y393700D02*
X311340Y393700D01*
X311340Y368300D02*
X298260Y368300D01*
X298260Y342900D02*
X311340Y342900D01*
X450660Y622300D02*
X463740Y622300D01*
X463740Y596900D02*
X450660Y596900D01*
X450660Y571500D02*
X463740Y571500D01*
X463740Y546100D02*
X450660Y546100D01*
X450660Y520700D02*
X463740Y520700D01*
X463740Y495300D02*
X450660Y495300D01*
X450660Y469900D02*
X463740Y469900D01*
X463740Y444500D02*
X450660Y444500D01*
X450660Y419100D02*
X463740Y419100D01*
X463740Y393700D02*
X450660Y393700D01*
X450660Y368300D02*
X463740Y368300D01*
X463740Y342900D02*
X450660Y342900D01*
X419100Y349440D02*
X419100Y336360D01*
X393700Y336360D02*
X393700Y349440D01*
X368300Y349440D02*
X368300Y336360D01*
D19*
X419100Y533400D03*
X419100Y508000D03*
D20*
X212500Y834300D03*
X212500Y893300D03*
X548500Y954300D03*
X548500Y774300D03*
D21*
X355600Y165100D03*
X355600Y139700D03*
X533400Y165100D03*
X533400Y139700D03*
X355600Y114300D03*
X355600Y190500D03*
X533400Y190500D03*
X533400Y114300D03*
X355600Y215900D03*
X533400Y215900D03*
X355600Y88900D03*
X533400Y88900D03*
X355600Y241300D03*
X533400Y241300D03*
X355600Y63500D03*
X533400Y63500D03*
D22*
X86678Y685800D02*
X65723Y685800D01*
X65723Y635000D02*
X86678Y635000D01*
X86678Y165100D02*
X65723Y165100D01*
X65723Y114300D02*
X86678Y114300D01*
D15*
X203200Y254000D03*
X190500Y273050D03*
X177800Y254000D03*
X241300Y279400D03*
X342900Y279400D03*
D23*
X294700Y78500D03*
X174700Y198500D03*
X154700Y138500D03*
X294700Y198500D03*
X174700Y78500D03*
D24*
X114300Y88900D03*
X114300Y190500D03*
D25*
X96012Y371094D02*
X63500Y371094D01*
X60706Y371094D01*
X50800Y381000D01*
X50800Y469900D01*
X63500Y371094D02*
X25400Y332994D01*
X25400Y266700D02*
X38100Y254000D01*
X63500Y254000D01*
X25400Y266700D02*
X25400Y332994D01*
X431800Y837600D02*
X548500Y954300D01*
X431800Y837600D02*
X431800Y609600D01*
X444500Y596900D01*
X457200Y596900D01*
X431800Y609600D02*
X406400Y584200D01*
X342900Y584200D01*
X330200Y571500D01*
X330200Y558800D01*
X317500Y546100D01*
X304800Y546100D01*
X279400Y520700D01*
X76200Y520700D01*
X50800Y495300D01*
X50800Y469900D01*
X457200Y596900D02*
X584200Y596900D01*
X711200Y469900D01*
X711200Y431800D01*
X711200Y381800D01*
X710800Y381400D01*
X710400Y381000D01*
X698500Y88900D02*
X533400Y88900D01*
X698500Y88900D02*
X711200Y101600D01*
X711200Y381000D01*
X710800Y381400D01*
X533400Y88900D02*
X355600Y88900D01*
X174700Y78500D02*
X124700Y78500D01*
X114300Y88900D01*
X38100Y228600D02*
X63500Y254000D01*
X38100Y88900D02*
X50800Y76200D01*
X101600Y76200D01*
X114300Y88900D01*
X38100Y88900D02*
X38100Y228600D01*
X203200Y469900D02*
X304800Y469900D01*
X101600Y469900D02*
X76200Y469900D01*
X582422Y698500D02*
X635000Y751078D01*
X582422Y698500D02*
X508000Y698500D01*
X482600Y673100D01*
X482600Y635000D01*
X469900Y622300D01*
X457200Y622300D01*
X241300Y254000D02*
X203200Y254000D01*
X241300Y254000D02*
X266700Y279400D01*
X266700Y330200D02*
X241300Y355600D01*
D26*
X241300Y355600D03*
D25*
X266700Y330200D02*
X266700Y279400D01*
X548500Y774300D02*
X548500Y827900D01*
X635000Y914400D01*
X635000Y976122D01*
D27*
X127000Y976122D02*
X127000Y889000D01*
X181700Y834300D02*
X212500Y834300D01*
X181700Y834300D02*
X127000Y889000D01*
D25*
X736600Y431800D02*
X736600Y387200D01*
X730400Y381000D01*
X457200Y342900D02*
X444500Y342900D01*
X431800Y355600D01*
X431800Y368300D01*
X444500Y381000D01*
X590400Y381000D01*
X469900Y368300D02*
X457200Y368300D01*
X469900Y368300D02*
X482600Y355600D01*
X673100Y355600D01*
X690400Y372900D02*
X690400Y381000D01*
X690400Y372900D02*
X673100Y355600D01*
X482600Y393700D02*
X457200Y393700D01*
X482600Y393700D02*
X495300Y406400D01*
X635000Y406400D01*
X650400Y391000D02*
X650400Y381000D01*
X650400Y391000D02*
X635000Y406400D01*
X647700Y419100D02*
X457200Y419100D01*
X647700Y419100D02*
X670400Y396400D01*
X670400Y381000D01*
D27*
X127000Y736600D02*
X76200Y685800D01*
X127000Y736600D02*
X127000Y751078D01*
X212500Y893300D02*
X237000Y893300D01*
X254000Y876300D01*
X254000Y774700D01*
X190500Y711200D02*
X152400Y711200D01*
X127000Y685800D01*
X127000Y647700D01*
X114300Y635000D01*
X76200Y635000D01*
X190500Y711200D02*
X254000Y774700D01*
D25*
X266700Y393700D02*
X304800Y393700D01*
X266700Y393700D02*
X177800Y304800D01*
X63500Y304800D01*
X96012Y416306D02*
X98806Y419100D01*
X304800Y419100D01*
X330200Y444500D02*
X342900Y431800D01*
X330200Y444500D02*
X304800Y444500D01*
X342900Y431800D02*
X342900Y279400D01*
X355600Y266700D01*
X508000Y266700D01*
X533400Y241300D01*
X355600Y266700D02*
X292100Y266700D01*
X203200Y177800D01*
X203200Y88900D01*
X192800Y78500D01*
X190500Y273050D02*
X196850Y279400D01*
X241300Y279400D01*
X174700Y198500D02*
X122300Y198500D01*
X114300Y190500D01*
X174700Y198500D02*
X177800Y201600D01*
X177800Y254000D01*
X294700Y198500D02*
X317500Y175700D01*
X317500Y88900D01*
X342900Y63500D01*
X355600Y63500D01*
X130500Y114300D02*
X76200Y114300D01*
X130500Y114300D02*
X154700Y138500D01*
M02*
