G04 EAGLE Gerber RS-274X export*
G75*
%MOMM*%
%FSLAX34Y34*%
%LPD*%
%IN*%
%IPPOS*%
%AMOC8*
5,1,8,0,0,1.08239X$1,22.5*%
G01*
%ADD10C,0.254000*%


D10*
X0Y0D02*
X761800Y0D01*
X761800Y1000000D01*
X0Y1000000D01*
X0Y0D01*
X55600Y964627D02*
X55525Y963484D01*
X55376Y962348D01*
X55152Y961224D01*
X54855Y960117D01*
X54487Y959032D01*
X54049Y957974D01*
X53542Y956946D01*
X52969Y955954D01*
X52332Y955001D01*
X51635Y954092D01*
X50879Y953231D01*
X50069Y952421D01*
X49208Y951665D01*
X48299Y950968D01*
X47346Y950331D01*
X46354Y949758D01*
X45326Y949251D01*
X44268Y948813D01*
X43183Y948445D01*
X42076Y948148D01*
X40952Y947925D01*
X39816Y947775D01*
X38673Y947700D01*
X37527Y947700D01*
X36384Y947775D01*
X35248Y947925D01*
X34124Y948148D01*
X33017Y948445D01*
X31932Y948813D01*
X30874Y949251D01*
X29846Y949758D01*
X28854Y950331D01*
X27901Y950968D01*
X26992Y951665D01*
X26131Y952421D01*
X25321Y953231D01*
X24565Y954092D01*
X23868Y955001D01*
X23231Y955954D01*
X22658Y956946D01*
X22151Y957974D01*
X21713Y959032D01*
X21345Y960117D01*
X21048Y961224D01*
X20825Y962348D01*
X20675Y963484D01*
X20600Y964627D01*
X20600Y965773D01*
X20675Y966916D01*
X20825Y968052D01*
X21048Y969176D01*
X21345Y970283D01*
X21713Y971368D01*
X22151Y972426D01*
X22658Y973454D01*
X23231Y974446D01*
X23868Y975399D01*
X24565Y976308D01*
X25321Y977169D01*
X26131Y977979D01*
X26992Y978735D01*
X27901Y979432D01*
X28854Y980069D01*
X29846Y980642D01*
X30874Y981149D01*
X31932Y981587D01*
X33017Y981955D01*
X34124Y982252D01*
X35248Y982476D01*
X36384Y982625D01*
X37527Y982700D01*
X38673Y982700D01*
X39816Y982625D01*
X40952Y982476D01*
X42076Y982252D01*
X43183Y981955D01*
X44268Y981587D01*
X45326Y981149D01*
X46354Y980642D01*
X47346Y980069D01*
X48299Y979432D01*
X49208Y978735D01*
X50069Y977979D01*
X50879Y977169D01*
X51635Y976308D01*
X52332Y975399D01*
X52969Y974446D01*
X53542Y973454D01*
X54049Y972426D01*
X54487Y971368D01*
X54855Y970283D01*
X55152Y969176D01*
X55376Y968052D01*
X55525Y966916D01*
X55600Y965773D01*
X55600Y964627D01*
X741400Y964627D02*
X741325Y963484D01*
X741176Y962348D01*
X740952Y961224D01*
X740655Y960117D01*
X740287Y959032D01*
X739849Y957974D01*
X739342Y956946D01*
X738769Y955954D01*
X738132Y955001D01*
X737435Y954092D01*
X736679Y953231D01*
X735869Y952421D01*
X735008Y951665D01*
X734099Y950968D01*
X733146Y950331D01*
X732154Y949758D01*
X731126Y949251D01*
X730068Y948813D01*
X728983Y948445D01*
X727876Y948148D01*
X726752Y947925D01*
X725616Y947775D01*
X724473Y947700D01*
X723327Y947700D01*
X722184Y947775D01*
X721048Y947925D01*
X719924Y948148D01*
X718817Y948445D01*
X717732Y948813D01*
X716674Y949251D01*
X715646Y949758D01*
X714654Y950331D01*
X713701Y950968D01*
X712792Y951665D01*
X711931Y952421D01*
X711121Y953231D01*
X710365Y954092D01*
X709668Y955001D01*
X709031Y955954D01*
X708458Y956946D01*
X707951Y957974D01*
X707513Y959032D01*
X707145Y960117D01*
X706848Y961224D01*
X706625Y962348D01*
X706475Y963484D01*
X706400Y964627D01*
X706400Y965773D01*
X706475Y966916D01*
X706625Y968052D01*
X706848Y969176D01*
X707145Y970283D01*
X707513Y971368D01*
X707951Y972426D01*
X708458Y973454D01*
X709031Y974446D01*
X709668Y975399D01*
X710365Y976308D01*
X711121Y977169D01*
X711931Y977979D01*
X712792Y978735D01*
X713701Y979432D01*
X714654Y980069D01*
X715646Y980642D01*
X716674Y981149D01*
X717732Y981587D01*
X718817Y981955D01*
X719924Y982252D01*
X721048Y982476D01*
X722184Y982625D01*
X723327Y982700D01*
X724473Y982700D01*
X725616Y982625D01*
X726752Y982476D01*
X727876Y982252D01*
X728983Y981955D01*
X730068Y981587D01*
X731126Y981149D01*
X732154Y980642D01*
X733146Y980069D01*
X734099Y979432D01*
X735008Y978735D01*
X735869Y977979D01*
X736679Y977169D01*
X737435Y976308D01*
X738132Y975399D01*
X738769Y974446D01*
X739342Y973454D01*
X739849Y972426D01*
X740287Y971368D01*
X740655Y970283D01*
X740952Y969176D01*
X741176Y968052D01*
X741325Y966916D01*
X741400Y965773D01*
X741400Y964627D01*
X55600Y37527D02*
X55525Y36384D01*
X55376Y35248D01*
X55152Y34124D01*
X54855Y33017D01*
X54487Y31932D01*
X54049Y30874D01*
X53542Y29846D01*
X52969Y28854D01*
X52332Y27901D01*
X51635Y26992D01*
X50879Y26131D01*
X50069Y25321D01*
X49208Y24565D01*
X48299Y23868D01*
X47346Y23231D01*
X46354Y22658D01*
X45326Y22151D01*
X44268Y21713D01*
X43183Y21345D01*
X42076Y21048D01*
X40952Y20825D01*
X39816Y20675D01*
X38673Y20600D01*
X37527Y20600D01*
X36384Y20675D01*
X35248Y20825D01*
X34124Y21048D01*
X33017Y21345D01*
X31932Y21713D01*
X30874Y22151D01*
X29846Y22658D01*
X28854Y23231D01*
X27901Y23868D01*
X26992Y24565D01*
X26131Y25321D01*
X25321Y26131D01*
X24565Y26992D01*
X23868Y27901D01*
X23231Y28854D01*
X22658Y29846D01*
X22151Y30874D01*
X21713Y31932D01*
X21345Y33017D01*
X21048Y34124D01*
X20825Y35248D01*
X20675Y36384D01*
X20600Y37527D01*
X20600Y38673D01*
X20675Y39816D01*
X20825Y40952D01*
X21048Y42076D01*
X21345Y43183D01*
X21713Y44268D01*
X22151Y45326D01*
X22658Y46354D01*
X23231Y47346D01*
X23868Y48299D01*
X24565Y49208D01*
X25321Y50069D01*
X26131Y50879D01*
X26992Y51635D01*
X27901Y52332D01*
X28854Y52969D01*
X29846Y53542D01*
X30874Y54049D01*
X31932Y54487D01*
X33017Y54855D01*
X34124Y55152D01*
X35248Y55376D01*
X36384Y55525D01*
X37527Y55600D01*
X38673Y55600D01*
X39816Y55525D01*
X40952Y55376D01*
X42076Y55152D01*
X43183Y54855D01*
X44268Y54487D01*
X45326Y54049D01*
X46354Y53542D01*
X47346Y52969D01*
X48299Y52332D01*
X49208Y51635D01*
X50069Y50879D01*
X50879Y50069D01*
X51635Y49208D01*
X52332Y48299D01*
X52969Y47346D01*
X53542Y46354D01*
X54049Y45326D01*
X54487Y44268D01*
X54855Y43183D01*
X55152Y42076D01*
X55376Y40952D01*
X55525Y39816D01*
X55600Y38673D01*
X55600Y37527D01*
X741400Y37527D02*
X741325Y36384D01*
X741176Y35248D01*
X740952Y34124D01*
X740655Y33017D01*
X740287Y31932D01*
X739849Y30874D01*
X739342Y29846D01*
X738769Y28854D01*
X738132Y27901D01*
X737435Y26992D01*
X736679Y26131D01*
X735869Y25321D01*
X735008Y24565D01*
X734099Y23868D01*
X733146Y23231D01*
X732154Y22658D01*
X731126Y22151D01*
X730068Y21713D01*
X728983Y21345D01*
X727876Y21048D01*
X726752Y20825D01*
X725616Y20675D01*
X724473Y20600D01*
X723327Y20600D01*
X722184Y20675D01*
X721048Y20825D01*
X719924Y21048D01*
X718817Y21345D01*
X717732Y21713D01*
X716674Y22151D01*
X715646Y22658D01*
X714654Y23231D01*
X713701Y23868D01*
X712792Y24565D01*
X711931Y25321D01*
X711121Y26131D01*
X710365Y26992D01*
X709668Y27901D01*
X709031Y28854D01*
X708458Y29846D01*
X707951Y30874D01*
X707513Y31932D01*
X707145Y33017D01*
X706848Y34124D01*
X706625Y35248D01*
X706475Y36384D01*
X706400Y37527D01*
X706400Y38673D01*
X706475Y39816D01*
X706625Y40952D01*
X706848Y42076D01*
X707145Y43183D01*
X707513Y44268D01*
X707951Y45326D01*
X708458Y46354D01*
X709031Y47346D01*
X709668Y48299D01*
X710365Y49208D01*
X711121Y50069D01*
X711931Y50879D01*
X712792Y51635D01*
X713701Y52332D01*
X714654Y52969D01*
X715646Y53542D01*
X716674Y54049D01*
X717732Y54487D01*
X718817Y54855D01*
X719924Y55152D01*
X721048Y55376D01*
X722184Y55525D01*
X723327Y55600D01*
X724473Y55600D01*
X725616Y55525D01*
X726752Y55376D01*
X727876Y55152D01*
X728983Y54855D01*
X730068Y54487D01*
X731126Y54049D01*
X732154Y53542D01*
X733146Y52969D01*
X734099Y52332D01*
X735008Y51635D01*
X735869Y50879D01*
X736679Y50069D01*
X737435Y49208D01*
X738132Y48299D01*
X738769Y47346D01*
X739342Y46354D01*
X739849Y45326D01*
X740287Y44268D01*
X740655Y43183D01*
X740952Y42076D01*
X741176Y40952D01*
X741325Y39816D01*
X741400Y38673D01*
X741400Y37527D01*
M02*
