G04 EAGLE Gerber RS-274X export*
G75*
%MOMM*%
%FSLAX34Y34*%
%LPD*%
%INSilkscreen Top*%
%IPPOS*%
%AMOC8*
5,1,8,0,0,1.08239X$1,22.5*%
G01*
%ADD10C,0.203200*%
%ADD11C,0.152400*%
%ADD12C,0.127000*%
%ADD13C,0.050800*%
%ADD14R,1.143000X0.635000*%
%ADD15R,4.064000X0.635000*%
%ADD16R,0.508000X10.160000*%
%ADD17R,0.127000X3.937000*%
%ADD18R,0.508000X4.826000*%
%ADD19C,0.177800*%
%ADD20C,0.254000*%
%ADD21R,0.508000X0.508000*%
%ADD22C,0.101600*%
%ADD23C,0.076200*%
%ADD24R,2.540000X0.508000*%
%ADD25R,0.762000X1.905000*%


D10*
X242316Y699516D02*
X242316Y722884D01*
X242316Y712498D02*
X255298Y712498D01*
X255298Y722884D02*
X255298Y699516D01*
X264734Y712498D02*
X271225Y712498D01*
X271384Y712496D01*
X271543Y712490D01*
X271703Y712480D01*
X271861Y712467D01*
X272020Y712449D01*
X272177Y712428D01*
X272335Y712402D01*
X272491Y712373D01*
X272647Y712340D01*
X272802Y712303D01*
X272956Y712263D01*
X273109Y712218D01*
X273261Y712170D01*
X273412Y712119D01*
X273561Y712063D01*
X273709Y712004D01*
X273855Y711941D01*
X274000Y711875D01*
X274143Y711805D01*
X274285Y711732D01*
X274424Y711655D01*
X274562Y711575D01*
X274698Y711491D01*
X274831Y711404D01*
X274963Y711314D01*
X275092Y711221D01*
X275218Y711124D01*
X275343Y711025D01*
X275465Y710922D01*
X275584Y710817D01*
X275701Y710708D01*
X275815Y710597D01*
X275926Y710483D01*
X276035Y710366D01*
X276140Y710247D01*
X276243Y710125D01*
X276342Y710000D01*
X276439Y709874D01*
X276532Y709745D01*
X276622Y709613D01*
X276709Y709480D01*
X276793Y709344D01*
X276873Y709206D01*
X276950Y709067D01*
X277023Y708925D01*
X277093Y708782D01*
X277159Y708637D01*
X277222Y708491D01*
X277281Y708343D01*
X277337Y708194D01*
X277388Y708043D01*
X277436Y707891D01*
X277481Y707738D01*
X277521Y707584D01*
X277558Y707429D01*
X277591Y707273D01*
X277620Y707117D01*
X277646Y706959D01*
X277667Y706802D01*
X277685Y706643D01*
X277698Y706485D01*
X277708Y706325D01*
X277714Y706166D01*
X277716Y706007D01*
X277714Y705848D01*
X277708Y705689D01*
X277698Y705529D01*
X277685Y705371D01*
X277667Y705212D01*
X277646Y705055D01*
X277620Y704897D01*
X277591Y704741D01*
X277558Y704585D01*
X277521Y704430D01*
X277481Y704276D01*
X277436Y704123D01*
X277388Y703971D01*
X277337Y703820D01*
X277281Y703671D01*
X277222Y703523D01*
X277159Y703377D01*
X277093Y703232D01*
X277023Y703089D01*
X276950Y702947D01*
X276873Y702808D01*
X276793Y702670D01*
X276709Y702534D01*
X276622Y702401D01*
X276532Y702269D01*
X276439Y702140D01*
X276342Y702014D01*
X276243Y701889D01*
X276140Y701767D01*
X276035Y701648D01*
X275926Y701531D01*
X275815Y701417D01*
X275701Y701306D01*
X275584Y701197D01*
X275465Y701092D01*
X275343Y700989D01*
X275218Y700890D01*
X275092Y700793D01*
X274963Y700700D01*
X274831Y700610D01*
X274698Y700523D01*
X274562Y700439D01*
X274424Y700359D01*
X274285Y700282D01*
X274143Y700209D01*
X274000Y700139D01*
X273855Y700073D01*
X273709Y700010D01*
X273561Y699951D01*
X273412Y699895D01*
X273261Y699844D01*
X273109Y699796D01*
X272956Y699751D01*
X272802Y699711D01*
X272647Y699674D01*
X272491Y699641D01*
X272335Y699612D01*
X272177Y699586D01*
X272020Y699565D01*
X271861Y699547D01*
X271703Y699534D01*
X271543Y699524D01*
X271384Y699518D01*
X271225Y699516D01*
X264734Y699516D01*
X264734Y722884D01*
X271225Y722884D01*
X271368Y722882D01*
X271511Y722876D01*
X271654Y722866D01*
X271796Y722852D01*
X271938Y722835D01*
X272080Y722813D01*
X272221Y722788D01*
X272361Y722758D01*
X272500Y722725D01*
X272638Y722688D01*
X272775Y722647D01*
X272911Y722603D01*
X273046Y722554D01*
X273179Y722502D01*
X273311Y722447D01*
X273441Y722387D01*
X273570Y722324D01*
X273697Y722258D01*
X273822Y722188D01*
X273944Y722115D01*
X274065Y722038D01*
X274184Y721958D01*
X274300Y721875D01*
X274415Y721789D01*
X274526Y721700D01*
X274636Y721607D01*
X274742Y721512D01*
X274846Y721413D01*
X274947Y721312D01*
X275046Y721208D01*
X275141Y721102D01*
X275234Y720992D01*
X275323Y720881D01*
X275409Y720766D01*
X275492Y720650D01*
X275572Y720531D01*
X275649Y720410D01*
X275722Y720287D01*
X275792Y720163D01*
X275858Y720036D01*
X275921Y719907D01*
X275981Y719777D01*
X276036Y719645D01*
X276088Y719512D01*
X276137Y719377D01*
X276181Y719241D01*
X276222Y719104D01*
X276259Y718966D01*
X276292Y718827D01*
X276322Y718687D01*
X276347Y718546D01*
X276369Y718404D01*
X276386Y718262D01*
X276400Y718120D01*
X276410Y717977D01*
X276416Y717834D01*
X276418Y717691D01*
X276416Y717548D01*
X276410Y717405D01*
X276400Y717262D01*
X276386Y717120D01*
X276369Y716978D01*
X276347Y716836D01*
X276322Y716695D01*
X276292Y716555D01*
X276259Y716416D01*
X276222Y716278D01*
X276181Y716141D01*
X276137Y716005D01*
X276088Y715870D01*
X276036Y715737D01*
X275981Y715605D01*
X275921Y715475D01*
X275858Y715346D01*
X275792Y715219D01*
X275722Y715095D01*
X275649Y714972D01*
X275572Y714851D01*
X275492Y714732D01*
X275409Y714616D01*
X275323Y714501D01*
X275234Y714390D01*
X275141Y714280D01*
X275046Y714174D01*
X274947Y714070D01*
X274846Y713969D01*
X274742Y713870D01*
X274636Y713775D01*
X274526Y713682D01*
X274415Y713593D01*
X274300Y713507D01*
X274184Y713424D01*
X274065Y713344D01*
X273944Y713267D01*
X273822Y713194D01*
X273697Y713124D01*
X273570Y713058D01*
X273441Y712995D01*
X273311Y712935D01*
X273179Y712880D01*
X273046Y712828D01*
X272911Y712779D01*
X272775Y712735D01*
X272638Y712694D01*
X272500Y712657D01*
X272361Y712624D01*
X272221Y712594D01*
X272080Y712569D01*
X271938Y712547D01*
X271796Y712530D01*
X271654Y712516D01*
X271511Y712506D01*
X271368Y712500D01*
X271225Y712498D01*
X284863Y708604D02*
X300442Y708604D01*
X308432Y706007D02*
X308432Y716393D01*
X308434Y716552D01*
X308440Y716711D01*
X308450Y716871D01*
X308463Y717029D01*
X308481Y717188D01*
X308502Y717345D01*
X308528Y717503D01*
X308557Y717659D01*
X308590Y717815D01*
X308627Y717970D01*
X308667Y718124D01*
X308712Y718277D01*
X308760Y718429D01*
X308811Y718580D01*
X308867Y718729D01*
X308926Y718877D01*
X308989Y719023D01*
X309055Y719168D01*
X309125Y719311D01*
X309198Y719453D01*
X309275Y719592D01*
X309355Y719730D01*
X309439Y719866D01*
X309526Y719999D01*
X309616Y720131D01*
X309709Y720260D01*
X309806Y720386D01*
X309905Y720511D01*
X310008Y720633D01*
X310113Y720752D01*
X310222Y720869D01*
X310333Y720983D01*
X310447Y721094D01*
X310564Y721203D01*
X310683Y721308D01*
X310805Y721411D01*
X310930Y721510D01*
X311056Y721607D01*
X311185Y721700D01*
X311317Y721790D01*
X311450Y721877D01*
X311586Y721961D01*
X311724Y722041D01*
X311863Y722118D01*
X312005Y722191D01*
X312148Y722261D01*
X312293Y722327D01*
X312439Y722390D01*
X312587Y722449D01*
X312736Y722505D01*
X312887Y722556D01*
X313039Y722604D01*
X313192Y722649D01*
X313346Y722689D01*
X313501Y722726D01*
X313657Y722759D01*
X313813Y722788D01*
X313971Y722814D01*
X314128Y722835D01*
X314287Y722853D01*
X314445Y722866D01*
X314605Y722876D01*
X314764Y722882D01*
X314923Y722884D01*
X315082Y722882D01*
X315241Y722876D01*
X315401Y722866D01*
X315559Y722853D01*
X315718Y722835D01*
X315875Y722814D01*
X316033Y722788D01*
X316189Y722759D01*
X316345Y722726D01*
X316500Y722689D01*
X316654Y722649D01*
X316807Y722604D01*
X316959Y722556D01*
X317110Y722505D01*
X317259Y722449D01*
X317407Y722390D01*
X317553Y722327D01*
X317698Y722261D01*
X317841Y722191D01*
X317983Y722118D01*
X318122Y722041D01*
X318260Y721961D01*
X318396Y721877D01*
X318529Y721790D01*
X318661Y721700D01*
X318790Y721607D01*
X318916Y721510D01*
X319041Y721411D01*
X319163Y721308D01*
X319282Y721203D01*
X319399Y721094D01*
X319513Y720983D01*
X319624Y720869D01*
X319733Y720752D01*
X319838Y720633D01*
X319941Y720511D01*
X320040Y720386D01*
X320137Y720260D01*
X320230Y720131D01*
X320320Y719999D01*
X320407Y719866D01*
X320491Y719730D01*
X320571Y719592D01*
X320648Y719453D01*
X320721Y719311D01*
X320791Y719168D01*
X320857Y719023D01*
X320920Y718877D01*
X320979Y718729D01*
X321035Y718580D01*
X321086Y718429D01*
X321134Y718277D01*
X321179Y718124D01*
X321219Y717970D01*
X321256Y717815D01*
X321289Y717659D01*
X321318Y717503D01*
X321344Y717345D01*
X321365Y717188D01*
X321383Y717029D01*
X321396Y716871D01*
X321406Y716711D01*
X321412Y716552D01*
X321414Y716393D01*
X321414Y706007D01*
X321412Y705848D01*
X321406Y705689D01*
X321396Y705529D01*
X321383Y705371D01*
X321365Y705212D01*
X321344Y705055D01*
X321318Y704897D01*
X321289Y704741D01*
X321256Y704585D01*
X321219Y704430D01*
X321179Y704276D01*
X321134Y704123D01*
X321086Y703971D01*
X321035Y703820D01*
X320979Y703671D01*
X320920Y703523D01*
X320857Y703377D01*
X320791Y703232D01*
X320721Y703089D01*
X320648Y702947D01*
X320571Y702808D01*
X320491Y702670D01*
X320407Y702534D01*
X320320Y702401D01*
X320230Y702269D01*
X320137Y702140D01*
X320040Y702014D01*
X319941Y701889D01*
X319838Y701767D01*
X319733Y701648D01*
X319624Y701531D01*
X319513Y701417D01*
X319399Y701306D01*
X319282Y701197D01*
X319163Y701092D01*
X319041Y700989D01*
X318916Y700890D01*
X318790Y700793D01*
X318661Y700700D01*
X318529Y700610D01*
X318396Y700523D01*
X318260Y700439D01*
X318122Y700359D01*
X317983Y700282D01*
X317841Y700209D01*
X317698Y700139D01*
X317553Y700073D01*
X317407Y700010D01*
X317259Y699951D01*
X317110Y699895D01*
X316959Y699844D01*
X316807Y699796D01*
X316654Y699751D01*
X316500Y699711D01*
X316345Y699674D01*
X316189Y699641D01*
X316033Y699612D01*
X315875Y699586D01*
X315718Y699565D01*
X315559Y699547D01*
X315401Y699534D01*
X315241Y699524D01*
X315082Y699518D01*
X314923Y699516D01*
X314764Y699518D01*
X314605Y699524D01*
X314445Y699534D01*
X314287Y699547D01*
X314128Y699565D01*
X313971Y699586D01*
X313813Y699612D01*
X313657Y699641D01*
X313501Y699674D01*
X313346Y699711D01*
X313192Y699751D01*
X313039Y699796D01*
X312887Y699844D01*
X312736Y699895D01*
X312587Y699951D01*
X312439Y700010D01*
X312293Y700073D01*
X312148Y700139D01*
X312005Y700209D01*
X311863Y700282D01*
X311724Y700359D01*
X311586Y700439D01*
X311450Y700523D01*
X311317Y700610D01*
X311185Y700700D01*
X311056Y700793D01*
X310930Y700890D01*
X310805Y700989D01*
X310683Y701092D01*
X310564Y701197D01*
X310447Y701306D01*
X310333Y701417D01*
X310222Y701531D01*
X310113Y701648D01*
X310008Y701767D01*
X309905Y701889D01*
X309806Y702014D01*
X309709Y702140D01*
X309616Y702269D01*
X309526Y702401D01*
X309439Y702534D01*
X309355Y702670D01*
X309275Y702808D01*
X309198Y702947D01*
X309125Y703089D01*
X309055Y703232D01*
X308989Y703377D01*
X308926Y703523D01*
X308867Y703671D01*
X308811Y703820D01*
X308760Y703971D01*
X308712Y704123D01*
X308667Y704276D01*
X308627Y704430D01*
X308590Y704585D01*
X308557Y704741D01*
X308528Y704897D01*
X308502Y705055D01*
X308481Y705212D01*
X308463Y705371D01*
X308450Y705529D01*
X308440Y705689D01*
X308434Y705848D01*
X308432Y706007D01*
X330007Y706007D02*
X330007Y722884D01*
X330007Y706007D02*
X330009Y705848D01*
X330015Y705689D01*
X330025Y705529D01*
X330038Y705371D01*
X330056Y705212D01*
X330077Y705055D01*
X330103Y704897D01*
X330132Y704741D01*
X330165Y704585D01*
X330202Y704430D01*
X330242Y704276D01*
X330287Y704123D01*
X330335Y703971D01*
X330386Y703820D01*
X330442Y703671D01*
X330501Y703523D01*
X330564Y703377D01*
X330630Y703232D01*
X330700Y703089D01*
X330773Y702947D01*
X330850Y702808D01*
X330930Y702670D01*
X331014Y702534D01*
X331101Y702401D01*
X331191Y702269D01*
X331284Y702140D01*
X331381Y702014D01*
X331480Y701889D01*
X331583Y701767D01*
X331688Y701648D01*
X331797Y701531D01*
X331908Y701417D01*
X332022Y701306D01*
X332139Y701197D01*
X332258Y701092D01*
X332380Y700989D01*
X332505Y700890D01*
X332631Y700793D01*
X332760Y700700D01*
X332892Y700610D01*
X333025Y700523D01*
X333161Y700439D01*
X333299Y700359D01*
X333438Y700282D01*
X333580Y700209D01*
X333723Y700139D01*
X333868Y700073D01*
X334014Y700010D01*
X334162Y699951D01*
X334311Y699895D01*
X334462Y699844D01*
X334614Y699796D01*
X334767Y699751D01*
X334921Y699711D01*
X335076Y699674D01*
X335232Y699641D01*
X335388Y699612D01*
X335546Y699586D01*
X335703Y699565D01*
X335862Y699547D01*
X336020Y699534D01*
X336180Y699524D01*
X336339Y699518D01*
X336498Y699516D01*
X336657Y699518D01*
X336816Y699524D01*
X336976Y699534D01*
X337134Y699547D01*
X337293Y699565D01*
X337450Y699586D01*
X337608Y699612D01*
X337764Y699641D01*
X337920Y699674D01*
X338075Y699711D01*
X338229Y699751D01*
X338382Y699796D01*
X338534Y699844D01*
X338685Y699895D01*
X338834Y699951D01*
X338982Y700010D01*
X339128Y700073D01*
X339273Y700139D01*
X339416Y700209D01*
X339558Y700282D01*
X339697Y700359D01*
X339835Y700439D01*
X339971Y700523D01*
X340104Y700610D01*
X340236Y700700D01*
X340365Y700793D01*
X340491Y700890D01*
X340616Y700989D01*
X340738Y701092D01*
X340857Y701197D01*
X340974Y701306D01*
X341088Y701417D01*
X341199Y701531D01*
X341308Y701648D01*
X341413Y701767D01*
X341516Y701889D01*
X341615Y702014D01*
X341712Y702140D01*
X341805Y702269D01*
X341895Y702401D01*
X341982Y702534D01*
X342066Y702670D01*
X342146Y702808D01*
X342223Y702947D01*
X342296Y703089D01*
X342366Y703232D01*
X342432Y703377D01*
X342495Y703523D01*
X342554Y703671D01*
X342610Y703820D01*
X342661Y703971D01*
X342709Y704123D01*
X342754Y704276D01*
X342794Y704430D01*
X342831Y704585D01*
X342864Y704741D01*
X342893Y704897D01*
X342919Y705055D01*
X342940Y705212D01*
X342958Y705371D01*
X342971Y705529D01*
X342981Y705689D01*
X342987Y705848D01*
X342989Y706007D01*
X342989Y722884D01*
X351675Y708604D02*
X367254Y708604D01*
X376034Y699516D02*
X376034Y722884D01*
X383823Y709902D01*
X391612Y722884D01*
X391612Y699516D01*
X401142Y699516D02*
X401142Y722884D01*
X407633Y722884D01*
X407792Y722882D01*
X407951Y722876D01*
X408111Y722866D01*
X408269Y722853D01*
X408428Y722835D01*
X408585Y722814D01*
X408743Y722788D01*
X408899Y722759D01*
X409055Y722726D01*
X409210Y722689D01*
X409364Y722649D01*
X409517Y722604D01*
X409669Y722556D01*
X409820Y722505D01*
X409969Y722449D01*
X410117Y722390D01*
X410263Y722327D01*
X410408Y722261D01*
X410551Y722191D01*
X410693Y722118D01*
X410832Y722041D01*
X410970Y721961D01*
X411106Y721877D01*
X411239Y721790D01*
X411371Y721700D01*
X411500Y721607D01*
X411626Y721510D01*
X411751Y721411D01*
X411873Y721308D01*
X411992Y721203D01*
X412109Y721094D01*
X412223Y720983D01*
X412334Y720869D01*
X412443Y720752D01*
X412548Y720633D01*
X412651Y720511D01*
X412750Y720386D01*
X412847Y720260D01*
X412940Y720131D01*
X413030Y719999D01*
X413117Y719866D01*
X413201Y719730D01*
X413281Y719592D01*
X413358Y719453D01*
X413431Y719311D01*
X413501Y719168D01*
X413567Y719023D01*
X413630Y718877D01*
X413689Y718729D01*
X413745Y718580D01*
X413796Y718429D01*
X413844Y718277D01*
X413889Y718124D01*
X413929Y717970D01*
X413966Y717815D01*
X413999Y717659D01*
X414028Y717503D01*
X414054Y717345D01*
X414075Y717188D01*
X414093Y717029D01*
X414106Y716871D01*
X414116Y716711D01*
X414122Y716552D01*
X414124Y716393D01*
X414122Y716234D01*
X414116Y716075D01*
X414106Y715915D01*
X414093Y715757D01*
X414075Y715598D01*
X414054Y715441D01*
X414028Y715283D01*
X413999Y715127D01*
X413966Y714971D01*
X413929Y714816D01*
X413889Y714662D01*
X413844Y714509D01*
X413796Y714357D01*
X413745Y714206D01*
X413689Y714057D01*
X413630Y713909D01*
X413567Y713763D01*
X413501Y713618D01*
X413431Y713475D01*
X413358Y713333D01*
X413281Y713194D01*
X413201Y713056D01*
X413117Y712920D01*
X413030Y712787D01*
X412940Y712655D01*
X412847Y712526D01*
X412750Y712400D01*
X412651Y712275D01*
X412548Y712153D01*
X412443Y712034D01*
X412334Y711917D01*
X412223Y711803D01*
X412109Y711692D01*
X411992Y711583D01*
X411873Y711478D01*
X411751Y711375D01*
X411626Y711276D01*
X411500Y711179D01*
X411371Y711086D01*
X411239Y710996D01*
X411106Y710909D01*
X410970Y710825D01*
X410832Y710745D01*
X410693Y710668D01*
X410551Y710595D01*
X410408Y710525D01*
X410263Y710459D01*
X410117Y710396D01*
X409969Y710337D01*
X409820Y710281D01*
X409669Y710230D01*
X409517Y710182D01*
X409364Y710137D01*
X409210Y710097D01*
X409055Y710060D01*
X408899Y710027D01*
X408743Y709998D01*
X408585Y709972D01*
X408428Y709951D01*
X408269Y709933D01*
X408111Y709920D01*
X407951Y709910D01*
X407792Y709904D01*
X407633Y709902D01*
X401142Y709902D01*
X421177Y699516D02*
X427668Y699516D01*
X427827Y699518D01*
X427986Y699524D01*
X428146Y699534D01*
X428304Y699547D01*
X428463Y699565D01*
X428620Y699586D01*
X428778Y699612D01*
X428934Y699641D01*
X429090Y699674D01*
X429245Y699711D01*
X429399Y699751D01*
X429552Y699796D01*
X429704Y699844D01*
X429855Y699895D01*
X430004Y699951D01*
X430152Y700010D01*
X430298Y700073D01*
X430443Y700139D01*
X430586Y700209D01*
X430728Y700282D01*
X430867Y700359D01*
X431005Y700439D01*
X431141Y700523D01*
X431274Y700610D01*
X431406Y700700D01*
X431535Y700793D01*
X431661Y700890D01*
X431786Y700989D01*
X431908Y701092D01*
X432027Y701197D01*
X432144Y701306D01*
X432258Y701417D01*
X432369Y701531D01*
X432478Y701648D01*
X432583Y701767D01*
X432686Y701889D01*
X432785Y702014D01*
X432882Y702140D01*
X432975Y702269D01*
X433065Y702401D01*
X433152Y702534D01*
X433236Y702670D01*
X433316Y702808D01*
X433393Y702947D01*
X433466Y703089D01*
X433536Y703232D01*
X433602Y703377D01*
X433665Y703523D01*
X433724Y703671D01*
X433780Y703820D01*
X433831Y703971D01*
X433879Y704123D01*
X433924Y704276D01*
X433964Y704430D01*
X434001Y704585D01*
X434034Y704741D01*
X434063Y704897D01*
X434089Y705055D01*
X434110Y705212D01*
X434128Y705371D01*
X434141Y705529D01*
X434151Y705689D01*
X434157Y705848D01*
X434159Y706007D01*
X434157Y706166D01*
X434151Y706325D01*
X434141Y706485D01*
X434128Y706643D01*
X434110Y706802D01*
X434089Y706959D01*
X434063Y707117D01*
X434034Y707273D01*
X434001Y707429D01*
X433964Y707584D01*
X433924Y707738D01*
X433879Y707891D01*
X433831Y708043D01*
X433780Y708194D01*
X433724Y708343D01*
X433665Y708491D01*
X433602Y708637D01*
X433536Y708782D01*
X433466Y708925D01*
X433393Y709067D01*
X433316Y709206D01*
X433236Y709344D01*
X433152Y709480D01*
X433065Y709613D01*
X432975Y709745D01*
X432882Y709874D01*
X432785Y710000D01*
X432686Y710125D01*
X432583Y710247D01*
X432478Y710366D01*
X432369Y710483D01*
X432258Y710597D01*
X432144Y710708D01*
X432027Y710817D01*
X431908Y710922D01*
X431786Y711025D01*
X431661Y711124D01*
X431535Y711221D01*
X431406Y711314D01*
X431274Y711404D01*
X431141Y711491D01*
X431005Y711575D01*
X430867Y711655D01*
X430728Y711732D01*
X430586Y711805D01*
X430443Y711875D01*
X430298Y711941D01*
X430152Y712004D01*
X430004Y712063D01*
X429855Y712119D01*
X429704Y712170D01*
X429552Y712218D01*
X429399Y712263D01*
X429245Y712303D01*
X429090Y712340D01*
X428934Y712373D01*
X428778Y712402D01*
X428620Y712428D01*
X428463Y712449D01*
X428304Y712467D01*
X428146Y712480D01*
X427986Y712490D01*
X427827Y712496D01*
X427668Y712498D01*
X428967Y722884D02*
X421177Y722884D01*
X428967Y722884D02*
X429110Y722882D01*
X429253Y722876D01*
X429396Y722866D01*
X429538Y722852D01*
X429680Y722835D01*
X429822Y722813D01*
X429963Y722788D01*
X430103Y722758D01*
X430242Y722725D01*
X430380Y722688D01*
X430517Y722647D01*
X430653Y722603D01*
X430788Y722554D01*
X430921Y722502D01*
X431053Y722447D01*
X431183Y722387D01*
X431312Y722324D01*
X431439Y722258D01*
X431564Y722188D01*
X431686Y722115D01*
X431807Y722038D01*
X431926Y721958D01*
X432042Y721875D01*
X432157Y721789D01*
X432268Y721700D01*
X432378Y721607D01*
X432484Y721512D01*
X432588Y721413D01*
X432689Y721312D01*
X432788Y721208D01*
X432883Y721102D01*
X432976Y720992D01*
X433065Y720881D01*
X433151Y720766D01*
X433234Y720650D01*
X433314Y720531D01*
X433391Y720410D01*
X433464Y720287D01*
X433534Y720163D01*
X433600Y720036D01*
X433663Y719907D01*
X433723Y719777D01*
X433778Y719645D01*
X433830Y719512D01*
X433879Y719377D01*
X433923Y719241D01*
X433964Y719104D01*
X434001Y718966D01*
X434034Y718827D01*
X434064Y718687D01*
X434089Y718546D01*
X434111Y718404D01*
X434128Y718262D01*
X434142Y718120D01*
X434152Y717977D01*
X434158Y717834D01*
X434160Y717691D01*
X434158Y717548D01*
X434152Y717405D01*
X434142Y717262D01*
X434128Y717120D01*
X434111Y716978D01*
X434089Y716836D01*
X434064Y716695D01*
X434034Y716555D01*
X434001Y716416D01*
X433964Y716278D01*
X433923Y716141D01*
X433879Y716005D01*
X433830Y715870D01*
X433778Y715737D01*
X433723Y715605D01*
X433663Y715475D01*
X433600Y715346D01*
X433534Y715219D01*
X433464Y715095D01*
X433391Y714972D01*
X433314Y714851D01*
X433234Y714732D01*
X433151Y714616D01*
X433065Y714501D01*
X432976Y714390D01*
X432883Y714280D01*
X432788Y714174D01*
X432689Y714070D01*
X432588Y713969D01*
X432484Y713870D01*
X432378Y713775D01*
X432268Y713682D01*
X432157Y713593D01*
X432042Y713507D01*
X431926Y713424D01*
X431807Y713344D01*
X431686Y713267D01*
X431564Y713194D01*
X431439Y713124D01*
X431312Y713058D01*
X431183Y712995D01*
X431053Y712935D01*
X430921Y712880D01*
X430788Y712828D01*
X430653Y712779D01*
X430517Y712735D01*
X430380Y712694D01*
X430242Y712657D01*
X430103Y712624D01*
X429963Y712594D01*
X429822Y712569D01*
X429680Y712547D01*
X429538Y712530D01*
X429396Y712516D01*
X429253Y712506D01*
X429110Y712500D01*
X428967Y712498D01*
X423774Y712498D01*
X442150Y708604D02*
X457729Y708604D01*
X466439Y699516D02*
X466439Y722884D01*
X466439Y699516D02*
X476825Y699516D01*
X484534Y699516D02*
X494920Y699516D01*
X484534Y699516D02*
X484534Y722884D01*
X494920Y722884D01*
X492323Y712498D02*
X484534Y712498D01*
X502605Y722884D02*
X502605Y699516D01*
X502605Y722884D02*
X509096Y722884D01*
X509255Y722882D01*
X509414Y722876D01*
X509574Y722866D01*
X509732Y722853D01*
X509891Y722835D01*
X510048Y722814D01*
X510206Y722788D01*
X510362Y722759D01*
X510518Y722726D01*
X510673Y722689D01*
X510827Y722649D01*
X510980Y722604D01*
X511132Y722556D01*
X511283Y722505D01*
X511432Y722449D01*
X511580Y722390D01*
X511726Y722327D01*
X511871Y722261D01*
X512014Y722191D01*
X512156Y722118D01*
X512295Y722041D01*
X512433Y721961D01*
X512569Y721877D01*
X512702Y721790D01*
X512834Y721700D01*
X512963Y721607D01*
X513089Y721510D01*
X513214Y721411D01*
X513336Y721308D01*
X513455Y721203D01*
X513572Y721094D01*
X513686Y720983D01*
X513797Y720869D01*
X513906Y720752D01*
X514011Y720633D01*
X514114Y720511D01*
X514213Y720386D01*
X514310Y720260D01*
X514403Y720131D01*
X514493Y719999D01*
X514580Y719866D01*
X514664Y719730D01*
X514744Y719592D01*
X514821Y719453D01*
X514894Y719311D01*
X514964Y719168D01*
X515030Y719023D01*
X515093Y718877D01*
X515152Y718729D01*
X515208Y718580D01*
X515259Y718429D01*
X515307Y718277D01*
X515352Y718124D01*
X515392Y717970D01*
X515429Y717815D01*
X515462Y717659D01*
X515491Y717503D01*
X515517Y717345D01*
X515538Y717188D01*
X515556Y717029D01*
X515569Y716871D01*
X515579Y716711D01*
X515585Y716552D01*
X515587Y716393D01*
X515587Y706007D01*
X515585Y705848D01*
X515579Y705689D01*
X515569Y705529D01*
X515556Y705371D01*
X515538Y705212D01*
X515517Y705055D01*
X515491Y704897D01*
X515462Y704741D01*
X515429Y704585D01*
X515392Y704430D01*
X515352Y704276D01*
X515307Y704123D01*
X515259Y703971D01*
X515208Y703820D01*
X515152Y703671D01*
X515093Y703523D01*
X515030Y703377D01*
X514964Y703232D01*
X514894Y703089D01*
X514821Y702947D01*
X514744Y702808D01*
X514664Y702670D01*
X514580Y702534D01*
X514493Y702401D01*
X514403Y702269D01*
X514310Y702140D01*
X514213Y702014D01*
X514114Y701889D01*
X514011Y701767D01*
X513906Y701648D01*
X513797Y701531D01*
X513686Y701417D01*
X513572Y701306D01*
X513455Y701197D01*
X513336Y701092D01*
X513214Y700989D01*
X513089Y700890D01*
X512963Y700793D01*
X512834Y700700D01*
X512702Y700610D01*
X512569Y700523D01*
X512433Y700439D01*
X512295Y700359D01*
X512156Y700282D01*
X512014Y700209D01*
X511871Y700139D01*
X511726Y700073D01*
X511580Y700010D01*
X511432Y699951D01*
X511283Y699895D01*
X511132Y699844D01*
X510980Y699795D01*
X510827Y699751D01*
X510673Y699711D01*
X510518Y699674D01*
X510362Y699641D01*
X510206Y699612D01*
X510048Y699586D01*
X509891Y699565D01*
X509732Y699547D01*
X509573Y699534D01*
X509414Y699524D01*
X509255Y699518D01*
X509096Y699516D01*
X502605Y699516D01*
X191516Y37084D02*
X199305Y13716D01*
X207095Y37084D01*
X213693Y31891D02*
X220184Y37084D01*
X220184Y13716D01*
X213693Y13716D02*
X226675Y13716D01*
X234150Y13716D02*
X234150Y15014D01*
X235448Y15014D01*
X235448Y13716D01*
X234150Y13716D01*
X242923Y31891D02*
X249414Y37084D01*
X249414Y13716D01*
X242923Y13716D02*
X255905Y13716D01*
X105228Y251248D02*
X89916Y251248D01*
X89916Y276648D02*
X105228Y276648D01*
X97572Y268992D02*
X97572Y284304D01*
D11*
X96847Y297994D02*
X91715Y300047D01*
X91620Y300087D01*
X91527Y300131D01*
X91436Y300178D01*
X91347Y300228D01*
X91260Y300282D01*
X91175Y300340D01*
X91092Y300400D01*
X91011Y300464D01*
X90934Y300531D01*
X90858Y300600D01*
X90786Y300673D01*
X90716Y300748D01*
X90649Y300826D01*
X90586Y300906D01*
X90525Y300989D01*
X90468Y301074D01*
X90414Y301161D01*
X90363Y301251D01*
X90316Y301342D01*
X90273Y301435D01*
X90233Y301529D01*
X90196Y301625D01*
X90164Y301722D01*
X90135Y301821D01*
X90110Y301920D01*
X90089Y302020D01*
X90072Y302122D01*
X90058Y302223D01*
X90049Y302325D01*
X90044Y302428D01*
X90042Y302530D01*
X90044Y302633D01*
X90051Y302735D01*
X90061Y302837D01*
X90076Y302939D01*
X90094Y303040D01*
X90116Y303140D01*
X90142Y303239D01*
X90171Y303337D01*
X90205Y303434D01*
X90242Y303530D01*
X90283Y303624D01*
X90327Y303717D01*
X90375Y303807D01*
X90427Y303896D01*
X90481Y303983D01*
X90539Y304067D01*
X90601Y304149D01*
X90665Y304229D01*
X90733Y304306D01*
X90803Y304381D01*
X90876Y304453D01*
X90952Y304522D01*
X91031Y304588D01*
X91112Y304651D01*
X91195Y304711D01*
X91281Y304767D01*
X91368Y304820D01*
X91458Y304870D01*
X91550Y304916D01*
X91643Y304959D01*
X91738Y304998D01*
X91834Y305033D01*
X91932Y305065D01*
X92030Y305093D01*
X92130Y305117D01*
X92231Y305137D01*
X92332Y305153D01*
X92434Y305165D01*
X92536Y305174D01*
X92638Y305178D01*
X92741Y305179D01*
X92742Y305180D02*
X93022Y305172D01*
X93302Y305158D01*
X93581Y305137D01*
X93860Y305110D01*
X94138Y305076D01*
X94416Y305035D01*
X94692Y304987D01*
X94967Y304933D01*
X95240Y304872D01*
X95512Y304805D01*
X95783Y304731D01*
X96051Y304651D01*
X96318Y304564D01*
X96582Y304471D01*
X96844Y304371D01*
X97104Y304265D01*
X97361Y304153D01*
X96847Y297994D02*
X96942Y297954D01*
X97035Y297910D01*
X97126Y297863D01*
X97215Y297813D01*
X97302Y297759D01*
X97387Y297701D01*
X97470Y297641D01*
X97551Y297577D01*
X97628Y297510D01*
X97704Y297441D01*
X97776Y297368D01*
X97846Y297293D01*
X97913Y297215D01*
X97976Y297135D01*
X98037Y297052D01*
X98094Y296967D01*
X98148Y296880D01*
X98199Y296790D01*
X98246Y296699D01*
X98289Y296606D01*
X98329Y296512D01*
X98366Y296416D01*
X98398Y296319D01*
X98427Y296220D01*
X98452Y296121D01*
X98473Y296021D01*
X98490Y295919D01*
X98504Y295818D01*
X98513Y295716D01*
X98518Y295613D01*
X98520Y295511D01*
X98518Y295408D01*
X98511Y295306D01*
X98501Y295204D01*
X98486Y295102D01*
X98468Y295001D01*
X98446Y294901D01*
X98420Y294802D01*
X98391Y294704D01*
X98357Y294607D01*
X98320Y294511D01*
X98279Y294417D01*
X98235Y294324D01*
X98187Y294234D01*
X98135Y294145D01*
X98081Y294058D01*
X98023Y293974D01*
X97961Y293892D01*
X97897Y293812D01*
X97829Y293735D01*
X97759Y293660D01*
X97686Y293588D01*
X97610Y293519D01*
X97531Y293453D01*
X97450Y293390D01*
X97367Y293330D01*
X97281Y293274D01*
X97194Y293221D01*
X97104Y293171D01*
X97012Y293125D01*
X96919Y293082D01*
X96824Y293043D01*
X96728Y293008D01*
X96630Y292976D01*
X96532Y292948D01*
X96432Y292924D01*
X96331Y292904D01*
X96230Y292888D01*
X96128Y292876D01*
X96026Y292867D01*
X95924Y292863D01*
X95821Y292862D01*
X95820Y292862D02*
X95409Y292873D01*
X94998Y292893D01*
X94587Y292923D01*
X94177Y292963D01*
X93769Y293013D01*
X93361Y293072D01*
X92955Y293141D01*
X92551Y293219D01*
X92149Y293307D01*
X91749Y293405D01*
X91351Y293512D01*
X90956Y293628D01*
X90564Y293753D01*
X90175Y293888D01*
X105206Y292862D02*
X105206Y305179D01*
X104693Y310312D02*
X104693Y311338D01*
X105719Y311338D01*
X105719Y310312D01*
X104693Y310312D01*
X115039Y292862D02*
X120171Y292862D01*
X115039Y292862D02*
X114929Y292864D01*
X114819Y292870D01*
X114710Y292880D01*
X114601Y292893D01*
X114492Y292911D01*
X114385Y292932D01*
X114278Y292958D01*
X114172Y292987D01*
X114067Y293020D01*
X113963Y293056D01*
X113861Y293096D01*
X113760Y293140D01*
X113661Y293188D01*
X113563Y293239D01*
X113468Y293293D01*
X113374Y293351D01*
X113283Y293412D01*
X113194Y293476D01*
X113107Y293544D01*
X113023Y293614D01*
X112941Y293687D01*
X112862Y293764D01*
X112785Y293843D01*
X112712Y293925D01*
X112642Y294009D01*
X112574Y294096D01*
X112510Y294185D01*
X112449Y294276D01*
X112391Y294370D01*
X112337Y294465D01*
X112286Y294563D01*
X112238Y294662D01*
X112194Y294763D01*
X112154Y294865D01*
X112118Y294969D01*
X112085Y295074D01*
X112056Y295180D01*
X112030Y295287D01*
X112009Y295394D01*
X111991Y295503D01*
X111978Y295612D01*
X111968Y295721D01*
X111962Y295831D01*
X111960Y295941D01*
X111960Y302100D01*
X111962Y302210D01*
X111968Y302320D01*
X111978Y302429D01*
X111991Y302538D01*
X112009Y302647D01*
X112030Y302754D01*
X112056Y302861D01*
X112085Y302967D01*
X112118Y303072D01*
X112154Y303176D01*
X112194Y303278D01*
X112238Y303379D01*
X112286Y303478D01*
X112337Y303576D01*
X112391Y303671D01*
X112449Y303765D01*
X112510Y303856D01*
X112574Y303945D01*
X112642Y304032D01*
X112712Y304116D01*
X112785Y304198D01*
X112862Y304277D01*
X112941Y304354D01*
X113023Y304427D01*
X113107Y304497D01*
X113194Y304565D01*
X113283Y304629D01*
X113374Y304690D01*
X113468Y304748D01*
X113563Y304802D01*
X113661Y304853D01*
X113760Y304901D01*
X113861Y304945D01*
X113963Y304985D01*
X114067Y305021D01*
X114172Y305054D01*
X114278Y305083D01*
X114385Y305109D01*
X114492Y305130D01*
X114601Y305148D01*
X114710Y305161D01*
X114819Y305171D01*
X114929Y305177D01*
X115039Y305179D01*
X120171Y305179D01*
X120171Y289783D01*
X120169Y289673D01*
X120163Y289563D01*
X120153Y289454D01*
X120140Y289345D01*
X120122Y289236D01*
X120101Y289129D01*
X120075Y289022D01*
X120046Y288916D01*
X120013Y288811D01*
X119977Y288707D01*
X119937Y288605D01*
X119893Y288504D01*
X119845Y288405D01*
X119794Y288307D01*
X119740Y288212D01*
X119682Y288118D01*
X119621Y288027D01*
X119557Y287938D01*
X119489Y287851D01*
X119419Y287767D01*
X119346Y287685D01*
X119269Y287606D01*
X119190Y287530D01*
X119108Y287456D01*
X119024Y287386D01*
X118937Y287318D01*
X118848Y287254D01*
X118757Y287193D01*
X118663Y287135D01*
X118568Y287081D01*
X118470Y287030D01*
X118371Y286982D01*
X118270Y286938D01*
X118168Y286898D01*
X118064Y286862D01*
X117960Y286829D01*
X117854Y286800D01*
X117747Y286774D01*
X117639Y286753D01*
X117530Y286735D01*
X117421Y286722D01*
X117312Y286712D01*
X117202Y286706D01*
X117092Y286704D01*
X117092Y286703D02*
X112986Y286703D01*
X737870Y419100D02*
X740410Y419100D01*
X737870Y419100D02*
X737870Y421640D01*
X737870Y419100D02*
X735330Y419100D01*
X737870Y419100D02*
X737870Y416560D01*
X698500Y431800D02*
X698508Y432423D01*
X698531Y433046D01*
X698569Y433669D01*
X698622Y434290D01*
X698691Y434909D01*
X698775Y435527D01*
X698874Y436142D01*
X698988Y436755D01*
X699117Y437365D01*
X699261Y437972D01*
X699420Y438575D01*
X699594Y439173D01*
X699782Y439768D01*
X699985Y440357D01*
X700202Y440941D01*
X700433Y441520D01*
X700679Y442093D01*
X700939Y442660D01*
X701212Y443220D01*
X701499Y443773D01*
X701800Y444320D01*
X702114Y444858D01*
X702441Y445389D01*
X702781Y445911D01*
X703133Y446426D01*
X703499Y446931D01*
X703876Y447427D01*
X704266Y447914D01*
X704667Y448391D01*
X705080Y448858D01*
X705504Y449314D01*
X705939Y449761D01*
X706386Y450196D01*
X706842Y450620D01*
X707309Y451033D01*
X707786Y451434D01*
X708273Y451824D01*
X708769Y452201D01*
X709274Y452567D01*
X709789Y452919D01*
X710311Y453259D01*
X710842Y453586D01*
X711380Y453900D01*
X711927Y454201D01*
X712480Y454488D01*
X713040Y454761D01*
X713607Y455021D01*
X714180Y455267D01*
X714759Y455498D01*
X715343Y455715D01*
X715932Y455918D01*
X716527Y456106D01*
X717125Y456280D01*
X717728Y456439D01*
X718335Y456583D01*
X718945Y456712D01*
X719558Y456826D01*
X720173Y456925D01*
X720791Y457009D01*
X721410Y457078D01*
X722031Y457131D01*
X722654Y457169D01*
X723277Y457192D01*
X723900Y457200D01*
X724523Y457192D01*
X725146Y457169D01*
X725769Y457131D01*
X726390Y457078D01*
X727009Y457009D01*
X727627Y456925D01*
X728242Y456826D01*
X728855Y456712D01*
X729465Y456583D01*
X730072Y456439D01*
X730675Y456280D01*
X731273Y456106D01*
X731868Y455918D01*
X732457Y455715D01*
X733041Y455498D01*
X733620Y455267D01*
X734193Y455021D01*
X734760Y454761D01*
X735320Y454488D01*
X735873Y454201D01*
X736420Y453900D01*
X736958Y453586D01*
X737489Y453259D01*
X738011Y452919D01*
X738526Y452567D01*
X739031Y452201D01*
X739527Y451824D01*
X740014Y451434D01*
X740491Y451033D01*
X740958Y450620D01*
X741414Y450196D01*
X741861Y449761D01*
X742296Y449314D01*
X742720Y448858D01*
X743133Y448391D01*
X743534Y447914D01*
X743924Y447427D01*
X744301Y446931D01*
X744667Y446426D01*
X745019Y445911D01*
X745359Y445389D01*
X745686Y444858D01*
X746000Y444320D01*
X746301Y443773D01*
X746588Y443220D01*
X746861Y442660D01*
X747121Y442093D01*
X747367Y441520D01*
X747598Y440941D01*
X747815Y440357D01*
X748018Y439768D01*
X748206Y439173D01*
X748380Y438575D01*
X748539Y437972D01*
X748683Y437365D01*
X748812Y436755D01*
X748926Y436142D01*
X749025Y435527D01*
X749109Y434909D01*
X749178Y434290D01*
X749231Y433669D01*
X749269Y433046D01*
X749292Y432423D01*
X749300Y431800D01*
X749292Y431177D01*
X749269Y430554D01*
X749231Y429931D01*
X749178Y429310D01*
X749109Y428691D01*
X749025Y428073D01*
X748926Y427458D01*
X748812Y426845D01*
X748683Y426235D01*
X748539Y425628D01*
X748380Y425025D01*
X748206Y424427D01*
X748018Y423832D01*
X747815Y423243D01*
X747598Y422659D01*
X747367Y422080D01*
X747121Y421507D01*
X746861Y420940D01*
X746588Y420380D01*
X746301Y419827D01*
X746000Y419280D01*
X745686Y418742D01*
X745359Y418211D01*
X745019Y417689D01*
X744667Y417174D01*
X744301Y416669D01*
X743924Y416173D01*
X743534Y415686D01*
X743133Y415209D01*
X742720Y414742D01*
X742296Y414286D01*
X741861Y413839D01*
X741414Y413404D01*
X740958Y412980D01*
X740491Y412567D01*
X740014Y412166D01*
X739527Y411776D01*
X739031Y411399D01*
X738526Y411033D01*
X738011Y410681D01*
X737489Y410341D01*
X736958Y410014D01*
X736420Y409700D01*
X735873Y409399D01*
X735320Y409112D01*
X734760Y408839D01*
X734193Y408579D01*
X733620Y408333D01*
X733041Y408102D01*
X732457Y407885D01*
X731868Y407682D01*
X731273Y407494D01*
X730675Y407320D01*
X730072Y407161D01*
X729465Y407017D01*
X728855Y406888D01*
X728242Y406774D01*
X727627Y406675D01*
X727009Y406591D01*
X726390Y406522D01*
X725769Y406469D01*
X725146Y406431D01*
X724523Y406408D01*
X723900Y406400D01*
X723277Y406408D01*
X722654Y406431D01*
X722031Y406469D01*
X721410Y406522D01*
X720791Y406591D01*
X720173Y406675D01*
X719558Y406774D01*
X718945Y406888D01*
X718335Y407017D01*
X717728Y407161D01*
X717125Y407320D01*
X716527Y407494D01*
X715932Y407682D01*
X715343Y407885D01*
X714759Y408102D01*
X714180Y408333D01*
X713607Y408579D01*
X713040Y408839D01*
X712480Y409112D01*
X711927Y409399D01*
X711380Y409700D01*
X710842Y410014D01*
X710311Y410341D01*
X709789Y410681D01*
X709274Y411033D01*
X708769Y411399D01*
X708273Y411776D01*
X707786Y412166D01*
X707309Y412567D01*
X706842Y412980D01*
X706386Y413404D01*
X705939Y413839D01*
X705504Y414286D01*
X705080Y414742D01*
X704667Y415209D01*
X704266Y415686D01*
X703876Y416173D01*
X703499Y416669D01*
X703133Y417174D01*
X702781Y417689D01*
X702441Y418211D01*
X702114Y418742D01*
X701800Y419280D01*
X701499Y419827D01*
X701212Y420380D01*
X700939Y420940D01*
X700679Y421507D01*
X700433Y422080D01*
X700202Y422659D01*
X699985Y423243D01*
X699782Y423832D01*
X699594Y424427D01*
X699420Y425025D01*
X699261Y425628D01*
X699117Y426235D01*
X698988Y426845D01*
X698874Y427458D01*
X698775Y428073D01*
X698691Y428691D01*
X698622Y429310D01*
X698569Y429931D01*
X698531Y430554D01*
X698508Y431177D01*
X698500Y431800D01*
D12*
X688303Y407035D02*
X685763Y407035D01*
X685663Y407037D01*
X685564Y407043D01*
X685464Y407053D01*
X685366Y407066D01*
X685267Y407084D01*
X685170Y407105D01*
X685074Y407130D01*
X684978Y407159D01*
X684884Y407192D01*
X684791Y407228D01*
X684700Y407268D01*
X684610Y407312D01*
X684522Y407359D01*
X684436Y407409D01*
X684352Y407463D01*
X684270Y407520D01*
X684191Y407580D01*
X684113Y407644D01*
X684039Y407710D01*
X683967Y407779D01*
X683898Y407851D01*
X683832Y407925D01*
X683768Y408003D01*
X683708Y408082D01*
X683651Y408164D01*
X683597Y408248D01*
X683547Y408334D01*
X683500Y408422D01*
X683456Y408512D01*
X683416Y408603D01*
X683380Y408696D01*
X683347Y408790D01*
X683318Y408886D01*
X683293Y408982D01*
X683272Y409079D01*
X683254Y409178D01*
X683241Y409276D01*
X683231Y409376D01*
X683225Y409475D01*
X683223Y409575D01*
X683223Y415925D01*
X683225Y416025D01*
X683231Y416124D01*
X683241Y416224D01*
X683254Y416322D01*
X683272Y416421D01*
X683293Y416518D01*
X683318Y416614D01*
X683347Y416710D01*
X683380Y416804D01*
X683416Y416897D01*
X683456Y416988D01*
X683500Y417078D01*
X683547Y417166D01*
X683597Y417252D01*
X683651Y417336D01*
X683708Y417418D01*
X683768Y417497D01*
X683832Y417575D01*
X683898Y417649D01*
X683967Y417721D01*
X684039Y417790D01*
X684113Y417856D01*
X684191Y417920D01*
X684270Y417980D01*
X684352Y418037D01*
X684436Y418091D01*
X684522Y418141D01*
X684610Y418188D01*
X684700Y418232D01*
X684791Y418272D01*
X684884Y418308D01*
X684978Y418341D01*
X685074Y418370D01*
X685170Y418395D01*
X685267Y418416D01*
X685366Y418434D01*
X685464Y418447D01*
X685564Y418457D01*
X685663Y418463D01*
X685763Y418465D01*
X688303Y418465D01*
X692785Y415925D02*
X695960Y418465D01*
X695960Y407035D01*
X692785Y407035D02*
X699135Y407035D01*
D10*
X85090Y363220D02*
X41910Y363220D01*
X41910Y424180D02*
X85090Y424180D01*
X33020Y403860D02*
X33020Y383720D01*
X93980Y383420D02*
X93980Y403860D01*
X45720Y393700D02*
X45725Y394136D01*
X45741Y394572D01*
X45768Y395008D01*
X45806Y395443D01*
X45854Y395876D01*
X45912Y396309D01*
X45982Y396740D01*
X46062Y397169D01*
X46152Y397596D01*
X46253Y398020D01*
X46364Y398442D01*
X46486Y398861D01*
X46617Y399277D01*
X46759Y399690D01*
X46911Y400099D01*
X47073Y400504D01*
X47245Y400905D01*
X47427Y401302D01*
X47618Y401694D01*
X47819Y402081D01*
X48030Y402464D01*
X48250Y402841D01*
X48479Y403212D01*
X48716Y403578D01*
X48963Y403938D01*
X49219Y404292D01*
X49483Y404639D01*
X49756Y404980D01*
X50037Y405313D01*
X50326Y405640D01*
X50623Y405960D01*
X50928Y406272D01*
X51240Y406577D01*
X51560Y406874D01*
X51887Y407163D01*
X52220Y407444D01*
X52561Y407717D01*
X52908Y407981D01*
X53262Y408237D01*
X53622Y408484D01*
X53988Y408721D01*
X54359Y408950D01*
X54736Y409170D01*
X55119Y409381D01*
X55506Y409582D01*
X55898Y409773D01*
X56295Y409955D01*
X56696Y410127D01*
X57101Y410289D01*
X57510Y410441D01*
X57923Y410583D01*
X58339Y410714D01*
X58758Y410836D01*
X59180Y410947D01*
X59604Y411048D01*
X60031Y411138D01*
X60460Y411218D01*
X60891Y411288D01*
X61324Y411346D01*
X61757Y411394D01*
X62192Y411432D01*
X62628Y411459D01*
X63064Y411475D01*
X63500Y411480D01*
X63936Y411475D01*
X64372Y411459D01*
X64808Y411432D01*
X65243Y411394D01*
X65676Y411346D01*
X66109Y411288D01*
X66540Y411218D01*
X66969Y411138D01*
X67396Y411048D01*
X67820Y410947D01*
X68242Y410836D01*
X68661Y410714D01*
X69077Y410583D01*
X69490Y410441D01*
X69899Y410289D01*
X70304Y410127D01*
X70705Y409955D01*
X71102Y409773D01*
X71494Y409582D01*
X71881Y409381D01*
X72264Y409170D01*
X72641Y408950D01*
X73012Y408721D01*
X73378Y408484D01*
X73738Y408237D01*
X74092Y407981D01*
X74439Y407717D01*
X74780Y407444D01*
X75113Y407163D01*
X75440Y406874D01*
X75760Y406577D01*
X76072Y406272D01*
X76377Y405960D01*
X76674Y405640D01*
X76963Y405313D01*
X77244Y404980D01*
X77517Y404639D01*
X77781Y404292D01*
X78037Y403938D01*
X78284Y403578D01*
X78521Y403212D01*
X78750Y402841D01*
X78970Y402464D01*
X79181Y402081D01*
X79382Y401694D01*
X79573Y401302D01*
X79755Y400905D01*
X79927Y400504D01*
X80089Y400099D01*
X80241Y399690D01*
X80383Y399277D01*
X80514Y398861D01*
X80636Y398442D01*
X80747Y398020D01*
X80848Y397596D01*
X80938Y397169D01*
X81018Y396740D01*
X81088Y396309D01*
X81146Y395876D01*
X81194Y395443D01*
X81232Y395008D01*
X81259Y394572D01*
X81275Y394136D01*
X81280Y393700D01*
X81275Y393264D01*
X81259Y392828D01*
X81232Y392392D01*
X81194Y391957D01*
X81146Y391524D01*
X81088Y391091D01*
X81018Y390660D01*
X80938Y390231D01*
X80848Y389804D01*
X80747Y389380D01*
X80636Y388958D01*
X80514Y388539D01*
X80383Y388123D01*
X80241Y387710D01*
X80089Y387301D01*
X79927Y386896D01*
X79755Y386495D01*
X79573Y386098D01*
X79382Y385706D01*
X79181Y385319D01*
X78970Y384936D01*
X78750Y384559D01*
X78521Y384188D01*
X78284Y383822D01*
X78037Y383462D01*
X77781Y383108D01*
X77517Y382761D01*
X77244Y382420D01*
X76963Y382087D01*
X76674Y381760D01*
X76377Y381440D01*
X76072Y381128D01*
X75760Y380823D01*
X75440Y380526D01*
X75113Y380237D01*
X74780Y379956D01*
X74439Y379683D01*
X74092Y379419D01*
X73738Y379163D01*
X73378Y378916D01*
X73012Y378679D01*
X72641Y378450D01*
X72264Y378230D01*
X71881Y378019D01*
X71494Y377818D01*
X71102Y377627D01*
X70705Y377445D01*
X70304Y377273D01*
X69899Y377111D01*
X69490Y376959D01*
X69077Y376817D01*
X68661Y376686D01*
X68242Y376564D01*
X67820Y376453D01*
X67396Y376352D01*
X66969Y376262D01*
X66540Y376182D01*
X66109Y376112D01*
X65676Y376054D01*
X65243Y376006D01*
X64808Y375968D01*
X64372Y375941D01*
X63936Y375925D01*
X63500Y375920D01*
X63064Y375925D01*
X62628Y375941D01*
X62192Y375968D01*
X61757Y376006D01*
X61324Y376054D01*
X60891Y376112D01*
X60460Y376182D01*
X60031Y376262D01*
X59604Y376352D01*
X59180Y376453D01*
X58758Y376564D01*
X58339Y376686D01*
X57923Y376817D01*
X57510Y376959D01*
X57101Y377111D01*
X56696Y377273D01*
X56295Y377445D01*
X55898Y377627D01*
X55506Y377818D01*
X55119Y378019D01*
X54736Y378230D01*
X54359Y378450D01*
X53988Y378679D01*
X53622Y378916D01*
X53262Y379163D01*
X52908Y379419D01*
X52561Y379683D01*
X52220Y379956D01*
X51887Y380237D01*
X51560Y380526D01*
X51240Y380823D01*
X50928Y381128D01*
X50623Y381440D01*
X50326Y381760D01*
X50037Y382087D01*
X49756Y382420D01*
X49483Y382761D01*
X49219Y383108D01*
X48963Y383462D01*
X48716Y383822D01*
X48479Y384188D01*
X48250Y384559D01*
X48030Y384936D01*
X47819Y385319D01*
X47618Y385706D01*
X47427Y386098D01*
X47245Y386495D01*
X47073Y386896D01*
X46911Y387301D01*
X46759Y387710D01*
X46617Y388123D01*
X46486Y388539D01*
X46364Y388958D01*
X46253Y389380D01*
X46152Y389804D01*
X46062Y390231D01*
X45982Y390660D01*
X45912Y391091D01*
X45854Y391524D01*
X45806Y391957D01*
X45768Y392392D01*
X45741Y392828D01*
X45725Y393264D01*
X45720Y393700D01*
D11*
X181610Y737870D02*
X181610Y989330D01*
X72390Y989330D02*
X72390Y737870D01*
D13*
X156210Y812800D02*
X156210Y914400D01*
X97790Y914400D02*
X97790Y812800D01*
D11*
X90170Y806450D02*
X90170Y755650D01*
X158750Y755650D02*
X163830Y755650D01*
X152400Y755650D02*
X152400Y806450D01*
X101600Y755650D02*
X90170Y755650D01*
X101600Y755650D02*
X101600Y806450D01*
X163830Y806450D02*
X163830Y755650D01*
X163830Y806450D02*
X152400Y806450D01*
X163830Y755650D02*
X163830Y749300D01*
X147320Y749300D01*
X147320Y751840D02*
X158750Y751840D01*
X158750Y755650D01*
X152400Y755650D01*
X101600Y806450D02*
X90170Y806450D01*
X163830Y920750D02*
X163830Y971550D01*
X95250Y971550D02*
X90170Y971550D01*
X101600Y971550D02*
X101600Y920750D01*
X152400Y971550D02*
X163830Y971550D01*
X152400Y971550D02*
X152400Y920750D01*
X90170Y920750D02*
X90170Y971550D01*
X90170Y920750D02*
X101600Y920750D01*
X90170Y971550D02*
X90170Y977900D01*
X106680Y977900D01*
X106680Y975360D02*
X95250Y975360D01*
X95250Y971550D01*
X101600Y971550D01*
X152400Y920750D02*
X163830Y920750D01*
D13*
X127000Y915670D02*
X127000Y811530D01*
D11*
X110490Y989330D02*
X72390Y989330D01*
X143510Y989330D02*
X181610Y989330D01*
X110490Y737870D02*
X72390Y737870D01*
X143510Y737870D02*
X181610Y737870D01*
D14*
X153035Y809625D03*
X100965Y809625D03*
D15*
X127000Y809625D03*
D14*
X100965Y917575D03*
X153035Y917575D03*
D15*
X127000Y917575D03*
D16*
X102870Y863600D03*
X151130Y863600D03*
D17*
X146685Y940435D03*
X107315Y940435D03*
X107315Y786765D03*
X146685Y786765D03*
D18*
X149860Y782320D03*
X104140Y782320D03*
X104140Y944880D03*
X149860Y944880D03*
D19*
X186309Y737489D02*
X202311Y737489D01*
X186309Y737489D02*
X186309Y744601D01*
X193421Y744601D02*
X193421Y737489D01*
X189865Y750482D02*
X186309Y754927D01*
X202311Y754927D01*
X202311Y750482D02*
X202311Y759372D01*
D11*
X580390Y737870D02*
X580390Y989330D01*
X689610Y989330D02*
X689610Y737870D01*
D13*
X605790Y812800D02*
X605790Y914400D01*
X664210Y914400D02*
X664210Y812800D01*
D11*
X671830Y920750D02*
X671830Y971550D01*
X603250Y971550D02*
X598170Y971550D01*
X609600Y971550D02*
X609600Y920750D01*
X660400Y971550D02*
X671830Y971550D01*
X660400Y971550D02*
X660400Y920750D01*
X598170Y920750D02*
X598170Y971550D01*
X598170Y920750D02*
X609600Y920750D01*
X598170Y971550D02*
X598170Y977900D01*
X614680Y977900D01*
X614680Y975360D02*
X603250Y975360D01*
X603250Y971550D01*
X609600Y971550D01*
X660400Y920750D02*
X671830Y920750D01*
X598170Y806450D02*
X598170Y755650D01*
X666750Y755650D02*
X671830Y755650D01*
X660400Y755650D02*
X660400Y806450D01*
X609600Y755650D02*
X598170Y755650D01*
X609600Y755650D02*
X609600Y806450D01*
X671830Y806450D02*
X671830Y755650D01*
X671830Y806450D02*
X660400Y806450D01*
X671830Y755650D02*
X671830Y749300D01*
X655320Y749300D01*
X655320Y751840D02*
X666750Y751840D01*
X666750Y755650D01*
X660400Y755650D01*
X609600Y806450D02*
X598170Y806450D01*
D13*
X635000Y811530D02*
X635000Y915670D01*
D11*
X651510Y737870D02*
X689610Y737870D01*
X618490Y737870D02*
X580390Y737870D01*
X651510Y989330D02*
X689610Y989330D01*
X618490Y989330D02*
X580390Y989330D01*
D14*
X608965Y917575D03*
X661035Y917575D03*
D15*
X635000Y917575D03*
D14*
X661035Y809625D03*
X608965Y809625D03*
D15*
X635000Y809625D03*
D16*
X659130Y863600D03*
X610870Y863600D03*
D17*
X615315Y786765D03*
X654685Y786765D03*
X654685Y940435D03*
X615315Y940435D03*
D18*
X612140Y944880D03*
X657860Y944880D03*
X657860Y782320D03*
X612140Y782320D03*
D19*
X575691Y967828D02*
X559689Y967828D01*
X559689Y974940D01*
X566801Y974940D02*
X566801Y967828D01*
X559689Y985711D02*
X559691Y985837D01*
X559697Y985962D01*
X559707Y986088D01*
X559721Y986212D01*
X559738Y986337D01*
X559760Y986461D01*
X559785Y986584D01*
X559815Y986706D01*
X559848Y986827D01*
X559885Y986947D01*
X559926Y987066D01*
X559970Y987184D01*
X560018Y987300D01*
X560070Y987415D01*
X560125Y987527D01*
X560184Y987638D01*
X560246Y987748D01*
X560312Y987855D01*
X560381Y987960D01*
X560453Y988063D01*
X560529Y988163D01*
X560607Y988261D01*
X560689Y988357D01*
X560773Y988450D01*
X560861Y988540D01*
X560951Y988628D01*
X561044Y988712D01*
X561140Y988794D01*
X561238Y988872D01*
X561338Y988948D01*
X561441Y989020D01*
X561546Y989089D01*
X561653Y989155D01*
X561763Y989217D01*
X561874Y989276D01*
X561986Y989331D01*
X562101Y989383D01*
X562217Y989431D01*
X562335Y989475D01*
X562454Y989516D01*
X562574Y989553D01*
X562695Y989586D01*
X562817Y989616D01*
X562940Y989641D01*
X563064Y989663D01*
X563189Y989680D01*
X563313Y989694D01*
X563439Y989704D01*
X563564Y989710D01*
X563690Y989712D01*
X559689Y985711D02*
X559691Y985570D01*
X559697Y985430D01*
X559706Y985290D01*
X559720Y985150D01*
X559737Y985011D01*
X559758Y984872D01*
X559783Y984733D01*
X559811Y984596D01*
X559844Y984459D01*
X559880Y984323D01*
X559920Y984188D01*
X559963Y984055D01*
X560010Y983922D01*
X560061Y983791D01*
X560115Y983662D01*
X560173Y983534D01*
X560234Y983407D01*
X560299Y983282D01*
X560367Y983160D01*
X560438Y983039D01*
X560513Y982919D01*
X560591Y982803D01*
X560672Y982688D01*
X560756Y982575D01*
X560844Y982465D01*
X560934Y982357D01*
X561027Y982252D01*
X561123Y982150D01*
X561222Y982050D01*
X561323Y981952D01*
X561427Y981858D01*
X561534Y981766D01*
X561643Y981678D01*
X561754Y981592D01*
X561868Y981510D01*
X561984Y981430D01*
X562102Y981354D01*
X562222Y981281D01*
X562344Y981212D01*
X562468Y981145D01*
X562594Y981082D01*
X562721Y981023D01*
X562850Y980967D01*
X562980Y980915D01*
X563112Y980866D01*
X563245Y980821D01*
X566802Y988377D02*
X566711Y988469D01*
X566618Y988559D01*
X566523Y988645D01*
X566425Y988729D01*
X566324Y988809D01*
X566221Y988887D01*
X566116Y988961D01*
X566008Y989032D01*
X565899Y989100D01*
X565787Y989164D01*
X565674Y989226D01*
X565559Y989283D01*
X565442Y989338D01*
X565323Y989389D01*
X565203Y989436D01*
X565082Y989479D01*
X564960Y989519D01*
X564836Y989555D01*
X564711Y989588D01*
X564586Y989617D01*
X564459Y989642D01*
X564332Y989663D01*
X564204Y989680D01*
X564076Y989694D01*
X563948Y989703D01*
X563819Y989709D01*
X563690Y989711D01*
X566801Y988378D02*
X575691Y980821D01*
X575691Y989711D01*
D11*
X73660Y317500D02*
X53340Y317500D01*
X76200Y264160D02*
X76200Y243840D01*
X76200Y264160D02*
X73660Y266700D01*
X50800Y264160D02*
X50800Y243840D01*
X50800Y264160D02*
X53340Y266700D01*
X50800Y243840D02*
X53340Y241300D01*
X73660Y241300D02*
X76200Y243840D01*
X73660Y241300D02*
X53340Y241300D01*
X73660Y266700D02*
X76200Y269240D01*
X76200Y289560D01*
X73660Y292100D01*
X76200Y294640D01*
X76200Y314960D02*
X73660Y317500D01*
X76200Y314960D02*
X76200Y294640D01*
X50800Y269240D02*
X53340Y266700D01*
X50800Y289560D02*
X53340Y292100D01*
X50800Y294640D01*
X50800Y314960D02*
X53340Y317500D01*
X50800Y289560D02*
X50800Y269240D01*
X50800Y294640D02*
X50800Y314960D01*
D12*
X37465Y301766D02*
X39384Y299367D01*
X37465Y301766D02*
X46101Y301766D01*
X46101Y299367D02*
X46101Y304165D01*
X39624Y278765D02*
X39532Y278763D01*
X39441Y278757D01*
X39350Y278748D01*
X39259Y278734D01*
X39169Y278717D01*
X39080Y278695D01*
X38992Y278670D01*
X38905Y278642D01*
X38819Y278609D01*
X38735Y278573D01*
X38652Y278534D01*
X38571Y278491D01*
X38492Y278444D01*
X38415Y278395D01*
X38340Y278342D01*
X38268Y278286D01*
X38198Y278227D01*
X38130Y278165D01*
X38065Y278100D01*
X38003Y278032D01*
X37944Y277962D01*
X37888Y277890D01*
X37835Y277815D01*
X37786Y277738D01*
X37739Y277659D01*
X37696Y277578D01*
X37657Y277495D01*
X37621Y277411D01*
X37588Y277325D01*
X37560Y277238D01*
X37535Y277150D01*
X37513Y277061D01*
X37496Y276971D01*
X37482Y276880D01*
X37473Y276789D01*
X37467Y276698D01*
X37465Y276606D01*
X37467Y276503D01*
X37473Y276401D01*
X37482Y276299D01*
X37495Y276197D01*
X37512Y276096D01*
X37533Y275995D01*
X37557Y275896D01*
X37586Y275797D01*
X37617Y275700D01*
X37653Y275603D01*
X37691Y275508D01*
X37734Y275415D01*
X37780Y275323D01*
X37829Y275233D01*
X37881Y275145D01*
X37937Y275058D01*
X37996Y274974D01*
X38057Y274893D01*
X38122Y274813D01*
X38190Y274736D01*
X38261Y274661D01*
X38334Y274590D01*
X38410Y274521D01*
X38488Y274454D01*
X38569Y274391D01*
X38652Y274331D01*
X38737Y274274D01*
X38824Y274220D01*
X38914Y274169D01*
X39005Y274122D01*
X39097Y274078D01*
X39192Y274037D01*
X39287Y274000D01*
X39384Y273967D01*
X41303Y278045D02*
X41237Y278112D01*
X41168Y278176D01*
X41097Y278237D01*
X41023Y278295D01*
X40947Y278350D01*
X40869Y278402D01*
X40789Y278451D01*
X40707Y278497D01*
X40623Y278539D01*
X40537Y278578D01*
X40450Y278613D01*
X40362Y278644D01*
X40272Y278672D01*
X40182Y278697D01*
X40090Y278718D01*
X39998Y278735D01*
X39905Y278748D01*
X39812Y278757D01*
X39718Y278763D01*
X39624Y278765D01*
X41303Y278045D02*
X46101Y273967D01*
X46101Y278765D01*
X46101Y250966D02*
X46101Y248567D01*
X46101Y250966D02*
X46099Y251063D01*
X46093Y251159D01*
X46084Y251255D01*
X46070Y251351D01*
X46053Y251446D01*
X46031Y251540D01*
X46006Y251633D01*
X45978Y251726D01*
X45945Y251817D01*
X45909Y251906D01*
X45869Y251994D01*
X45826Y252081D01*
X45780Y252166D01*
X45730Y252248D01*
X45676Y252329D01*
X45620Y252407D01*
X45560Y252483D01*
X45498Y252557D01*
X45432Y252628D01*
X45364Y252696D01*
X45293Y252762D01*
X45219Y252824D01*
X45143Y252884D01*
X45065Y252940D01*
X44984Y252994D01*
X44902Y253044D01*
X44817Y253090D01*
X44730Y253133D01*
X44642Y253173D01*
X44553Y253209D01*
X44462Y253242D01*
X44369Y253270D01*
X44276Y253295D01*
X44182Y253317D01*
X44087Y253334D01*
X43991Y253348D01*
X43895Y253357D01*
X43799Y253363D01*
X43702Y253365D01*
X43605Y253363D01*
X43509Y253357D01*
X43413Y253348D01*
X43317Y253334D01*
X43222Y253317D01*
X43128Y253295D01*
X43035Y253270D01*
X42942Y253242D01*
X42851Y253209D01*
X42762Y253173D01*
X42674Y253133D01*
X42587Y253090D01*
X42503Y253044D01*
X42420Y252994D01*
X42339Y252940D01*
X42261Y252884D01*
X42185Y252824D01*
X42111Y252762D01*
X42040Y252696D01*
X41972Y252628D01*
X41906Y252557D01*
X41844Y252483D01*
X41784Y252407D01*
X41728Y252329D01*
X41674Y252248D01*
X41624Y252166D01*
X41578Y252081D01*
X41535Y251994D01*
X41495Y251906D01*
X41459Y251817D01*
X41426Y251726D01*
X41398Y251633D01*
X41373Y251540D01*
X41351Y251446D01*
X41334Y251351D01*
X41320Y251255D01*
X41311Y251159D01*
X41305Y251063D01*
X41303Y250966D01*
X37465Y251446D02*
X37465Y248567D01*
X37465Y251446D02*
X37467Y251532D01*
X37473Y251618D01*
X37482Y251704D01*
X37496Y251789D01*
X37513Y251873D01*
X37534Y251957D01*
X37559Y252039D01*
X37587Y252120D01*
X37619Y252200D01*
X37655Y252279D01*
X37694Y252355D01*
X37737Y252430D01*
X37782Y252503D01*
X37831Y252574D01*
X37884Y252642D01*
X37939Y252709D01*
X37997Y252772D01*
X38058Y252833D01*
X38121Y252891D01*
X38188Y252946D01*
X38256Y252999D01*
X38327Y253048D01*
X38400Y253093D01*
X38475Y253136D01*
X38551Y253175D01*
X38630Y253211D01*
X38710Y253243D01*
X38791Y253271D01*
X38873Y253296D01*
X38957Y253317D01*
X39041Y253334D01*
X39126Y253348D01*
X39212Y253357D01*
X39298Y253363D01*
X39384Y253365D01*
X39470Y253363D01*
X39556Y253357D01*
X39642Y253348D01*
X39727Y253334D01*
X39811Y253317D01*
X39895Y253296D01*
X39977Y253271D01*
X40058Y253243D01*
X40138Y253211D01*
X40217Y253175D01*
X40293Y253136D01*
X40368Y253093D01*
X40441Y253048D01*
X40512Y252999D01*
X40580Y252946D01*
X40647Y252891D01*
X40710Y252833D01*
X40771Y252772D01*
X40829Y252709D01*
X40884Y252642D01*
X40937Y252574D01*
X40986Y252503D01*
X41031Y252430D01*
X41074Y252355D01*
X41113Y252279D01*
X41149Y252200D01*
X41181Y252120D01*
X41209Y252039D01*
X41234Y251957D01*
X41255Y251873D01*
X41272Y251789D01*
X41286Y251704D01*
X41295Y251618D01*
X41301Y251532D01*
X41303Y251446D01*
X41303Y249527D01*
X80645Y291136D02*
X89535Y291136D01*
X89635Y291134D01*
X89734Y291128D01*
X89834Y291118D01*
X89932Y291105D01*
X90031Y291087D01*
X90128Y291066D01*
X90224Y291041D01*
X90320Y291012D01*
X90414Y290979D01*
X90507Y290943D01*
X90598Y290903D01*
X90688Y290859D01*
X90776Y290812D01*
X90862Y290762D01*
X90946Y290708D01*
X91028Y290651D01*
X91107Y290591D01*
X91185Y290527D01*
X91259Y290461D01*
X91331Y290392D01*
X91400Y290320D01*
X91466Y290246D01*
X91530Y290168D01*
X91590Y290089D01*
X91647Y290007D01*
X91701Y289923D01*
X91751Y289837D01*
X91798Y289749D01*
X91842Y289659D01*
X91882Y289568D01*
X91918Y289475D01*
X91951Y289381D01*
X91980Y289285D01*
X92005Y289189D01*
X92026Y289092D01*
X92044Y288993D01*
X92057Y288895D01*
X92067Y288795D01*
X92073Y288696D01*
X92075Y288596D01*
X92075Y287326D01*
X92075Y297117D02*
X80645Y297117D01*
X80645Y300292D01*
X80647Y300403D01*
X80653Y300513D01*
X80662Y300624D01*
X80676Y300734D01*
X80693Y300843D01*
X80714Y300952D01*
X80739Y301060D01*
X80768Y301167D01*
X80800Y301273D01*
X80836Y301378D01*
X80876Y301481D01*
X80919Y301583D01*
X80966Y301684D01*
X81017Y301783D01*
X81070Y301880D01*
X81127Y301974D01*
X81188Y302067D01*
X81251Y302158D01*
X81318Y302247D01*
X81388Y302333D01*
X81461Y302416D01*
X81536Y302498D01*
X81614Y302576D01*
X81696Y302651D01*
X81779Y302724D01*
X81865Y302794D01*
X81954Y302861D01*
X82045Y302924D01*
X82138Y302985D01*
X82233Y303042D01*
X82329Y303095D01*
X82428Y303146D01*
X82529Y303193D01*
X82631Y303236D01*
X82734Y303276D01*
X82839Y303312D01*
X82945Y303344D01*
X83052Y303373D01*
X83160Y303398D01*
X83269Y303419D01*
X83378Y303436D01*
X83488Y303450D01*
X83599Y303459D01*
X83709Y303465D01*
X83820Y303467D01*
X83931Y303465D01*
X84041Y303459D01*
X84152Y303450D01*
X84262Y303436D01*
X84371Y303419D01*
X84480Y303398D01*
X84588Y303373D01*
X84695Y303344D01*
X84801Y303312D01*
X84906Y303276D01*
X85009Y303236D01*
X85111Y303193D01*
X85212Y303146D01*
X85311Y303095D01*
X85408Y303042D01*
X85502Y302985D01*
X85595Y302924D01*
X85686Y302861D01*
X85775Y302794D01*
X85861Y302724D01*
X85944Y302651D01*
X86026Y302576D01*
X86104Y302498D01*
X86179Y302416D01*
X86252Y302333D01*
X86322Y302247D01*
X86389Y302158D01*
X86452Y302067D01*
X86513Y301974D01*
X86570Y301880D01*
X86623Y301783D01*
X86674Y301684D01*
X86721Y301583D01*
X86764Y301481D01*
X86804Y301378D01*
X86840Y301273D01*
X86872Y301167D01*
X86901Y301060D01*
X86926Y300952D01*
X86947Y300843D01*
X86964Y300734D01*
X86978Y300624D01*
X86987Y300513D01*
X86993Y300403D01*
X86995Y300292D01*
X86995Y297117D01*
X83185Y307975D02*
X80645Y311150D01*
X92075Y311150D01*
X92075Y307975D02*
X92075Y314325D01*
D11*
X75901Y478758D02*
X75682Y479058D01*
X75455Y479352D01*
X75221Y479640D01*
X74980Y479923D01*
X74733Y480200D01*
X74478Y480471D01*
X74217Y480735D01*
X73950Y480993D01*
X73677Y481244D01*
X73397Y481489D01*
X73112Y481727D01*
X72821Y481957D01*
X72524Y482181D01*
X72222Y482397D01*
X71915Y482606D01*
X71603Y482807D01*
X71286Y483001D01*
X70964Y483187D01*
X70638Y483365D01*
X70308Y483535D01*
X69974Y483697D01*
X69636Y483850D01*
X69294Y483996D01*
X68949Y484133D01*
X68600Y484261D01*
X68249Y484381D01*
X67894Y484493D01*
X67537Y484595D01*
X67178Y484690D01*
X66817Y484775D01*
X66453Y484851D01*
X66088Y484919D01*
X65721Y484977D01*
X65353Y485027D01*
X64984Y485068D01*
X64614Y485099D01*
X64243Y485122D01*
X63872Y485135D01*
X63500Y485140D01*
X63128Y485135D01*
X62757Y485122D01*
X62385Y485099D01*
X62015Y485067D01*
X61645Y485027D01*
X61277Y484977D01*
X60909Y484918D01*
X60544Y484851D01*
X60180Y484774D01*
X59818Y484688D01*
X59458Y484594D01*
X59101Y484491D01*
X58746Y484380D01*
X58394Y484259D01*
X58045Y484130D01*
X57700Y483993D01*
X57358Y483847D01*
X57019Y483693D01*
X56684Y483531D01*
X56354Y483361D01*
X56028Y483182D01*
X55706Y482996D01*
X55388Y482802D01*
X55076Y482600D01*
X54769Y482391D01*
X54467Y482174D01*
X54170Y481950D01*
X53878Y481719D01*
X53593Y481481D01*
X53313Y481235D01*
X53040Y480983D01*
X52772Y480725D01*
X52512Y480460D01*
X52257Y480189D01*
X52009Y479911D01*
X51769Y479628D01*
X51535Y479339D01*
X51308Y479044D01*
X63500Y454660D02*
X63865Y454664D01*
X64230Y454677D01*
X64594Y454699D01*
X64957Y454730D01*
X65320Y454769D01*
X65682Y454817D01*
X66042Y454874D01*
X66401Y454939D01*
X66759Y455012D01*
X67114Y455095D01*
X67467Y455185D01*
X67819Y455285D01*
X68167Y455392D01*
X68513Y455508D01*
X68856Y455632D01*
X69196Y455765D01*
X69533Y455905D01*
X69866Y456053D01*
X70196Y456210D01*
X70522Y456374D01*
X70844Y456546D01*
X71161Y456726D01*
X71474Y456913D01*
X71783Y457107D01*
X72087Y457309D01*
X72386Y457519D01*
X72680Y457735D01*
X72968Y457958D01*
X73251Y458188D01*
X73529Y458425D01*
X73801Y458668D01*
X74067Y458918D01*
X74327Y459174D01*
X74580Y459437D01*
X74828Y459705D01*
X75068Y459979D01*
X75303Y460259D01*
X75530Y460544D01*
X63500Y454660D02*
X63135Y454664D01*
X62770Y454677D01*
X62406Y454699D01*
X62043Y454730D01*
X61680Y454769D01*
X61318Y454817D01*
X60958Y454874D01*
X60599Y454939D01*
X60241Y455012D01*
X59886Y455095D01*
X59533Y455185D01*
X59181Y455285D01*
X58833Y455392D01*
X58487Y455508D01*
X58144Y455632D01*
X57804Y455765D01*
X57467Y455905D01*
X57134Y456053D01*
X56804Y456210D01*
X56478Y456374D01*
X56156Y456546D01*
X55839Y456726D01*
X55526Y456913D01*
X55217Y457107D01*
X54913Y457309D01*
X54614Y457519D01*
X54320Y457735D01*
X54032Y457958D01*
X53749Y458188D01*
X53471Y458425D01*
X53199Y458668D01*
X52933Y458918D01*
X52673Y459174D01*
X52420Y459437D01*
X52172Y459705D01*
X51932Y459979D01*
X51697Y460259D01*
X51470Y460544D01*
D20*
X63500Y490220D02*
X63994Y490214D01*
X64488Y490196D01*
X64982Y490166D01*
X65475Y490124D01*
X65966Y490070D01*
X66456Y490004D01*
X66944Y489926D01*
X67431Y489836D01*
X67915Y489735D01*
X68396Y489621D01*
X68874Y489496D01*
X69350Y489360D01*
X69821Y489212D01*
X70289Y489052D01*
X70753Y488881D01*
X71213Y488699D01*
X71668Y488506D01*
X72119Y488302D01*
X72564Y488087D01*
X73004Y487861D01*
X73438Y487624D01*
X73866Y487377D01*
X74288Y487120D01*
X74704Y486852D01*
X75113Y486574D01*
X75515Y486287D01*
X75911Y485990D01*
X76298Y485683D01*
X76679Y485367D01*
X77051Y485042D01*
X77416Y484707D01*
X77772Y484364D01*
X78119Y484013D01*
X78459Y483653D01*
X78789Y483285D01*
X79110Y482909D01*
X63500Y490220D02*
X63012Y490214D01*
X62525Y490197D01*
X62038Y490167D01*
X61551Y490126D01*
X61066Y490074D01*
X60582Y490009D01*
X60100Y489933D01*
X59620Y489846D01*
X59142Y489747D01*
X58667Y489637D01*
X58194Y489515D01*
X57725Y489382D01*
X57258Y489237D01*
X56796Y489082D01*
X56337Y488915D01*
X55882Y488738D01*
X55432Y488549D01*
X54987Y488350D01*
X54546Y488140D01*
X54110Y487920D01*
X53680Y487689D01*
X53256Y487448D01*
X52838Y487197D01*
X52425Y486936D01*
X52019Y486665D01*
X51620Y486385D01*
X51227Y486095D01*
X50842Y485795D01*
X50464Y485486D01*
X50093Y485169D01*
X49731Y484842D01*
X49376Y484507D01*
X49029Y484164D01*
X48691Y483812D01*
X48361Y483453D01*
X48040Y483085D01*
X47727Y482710D01*
X47424Y482327D01*
X47130Y481938D01*
X46846Y481541D01*
X46571Y481138D01*
X46306Y480728D01*
X46051Y480312D01*
X45806Y479890D01*
X45571Y479462D01*
X63500Y449580D02*
X63990Y449586D01*
X64480Y449604D01*
X64969Y449633D01*
X65458Y449675D01*
X65945Y449728D01*
X66431Y449792D01*
X66915Y449869D01*
X67397Y449957D01*
X67877Y450057D01*
X68355Y450168D01*
X68829Y450291D01*
X69301Y450426D01*
X69769Y450571D01*
X70233Y450728D01*
X70694Y450896D01*
X71150Y451075D01*
X71602Y451265D01*
X72049Y451466D01*
X72491Y451678D01*
X72928Y451900D01*
X73360Y452132D01*
X73786Y452375D01*
X74205Y452629D01*
X74619Y452892D01*
X75026Y453165D01*
X75426Y453448D01*
X75820Y453741D01*
X76206Y454042D01*
X76585Y454354D01*
X76956Y454674D01*
X77319Y455003D01*
X77675Y455340D01*
X78022Y455687D01*
X78360Y456041D01*
X78690Y456404D01*
X79012Y456774D01*
X63500Y449580D02*
X63003Y449586D01*
X62506Y449604D01*
X62010Y449635D01*
X61515Y449677D01*
X61021Y449732D01*
X60528Y449798D01*
X60038Y449877D01*
X59549Y449968D01*
X59063Y450070D01*
X58579Y450185D01*
X58099Y450311D01*
X57621Y450449D01*
X57147Y450598D01*
X56677Y450759D01*
X56211Y450932D01*
X55749Y451116D01*
X55292Y451311D01*
X54840Y451517D01*
X54393Y451734D01*
X53952Y451963D01*
X53516Y452201D01*
X53086Y452451D01*
X52663Y452711D01*
X52245Y452981D01*
X51835Y453261D01*
X51432Y453551D01*
X51035Y453851D01*
X50647Y454161D01*
X50266Y454480D01*
X49893Y454808D01*
X49528Y455145D01*
X49171Y455491D01*
X48823Y455846D01*
X48484Y456209D01*
X48153Y456580D01*
X47832Y456960D01*
X47520Y457347D01*
X47218Y457741D01*
X46926Y458143D01*
X46643Y458552D01*
X46371Y458967D01*
X46108Y459390D01*
X45857Y459818D01*
D12*
X83185Y474345D02*
X83185Y485775D01*
X83185Y474345D02*
X88265Y474345D01*
X93091Y474345D02*
X98171Y474345D01*
X93091Y474345D02*
X93091Y485775D01*
X98171Y485775D01*
X96901Y480695D02*
X93091Y480695D01*
X102972Y485775D02*
X102972Y474345D01*
X102972Y485775D02*
X106147Y485775D01*
X106258Y485773D01*
X106368Y485767D01*
X106479Y485758D01*
X106589Y485744D01*
X106698Y485727D01*
X106807Y485706D01*
X106915Y485681D01*
X107022Y485652D01*
X107128Y485620D01*
X107233Y485584D01*
X107336Y485544D01*
X107438Y485501D01*
X107539Y485454D01*
X107638Y485403D01*
X107735Y485350D01*
X107829Y485293D01*
X107922Y485232D01*
X108013Y485169D01*
X108102Y485102D01*
X108188Y485032D01*
X108271Y484959D01*
X108353Y484884D01*
X108431Y484806D01*
X108506Y484724D01*
X108579Y484641D01*
X108649Y484555D01*
X108716Y484466D01*
X108779Y484375D01*
X108840Y484282D01*
X108897Y484188D01*
X108950Y484091D01*
X109001Y483992D01*
X109048Y483891D01*
X109091Y483789D01*
X109131Y483686D01*
X109167Y483581D01*
X109199Y483475D01*
X109228Y483368D01*
X109253Y483260D01*
X109274Y483151D01*
X109291Y483042D01*
X109305Y482932D01*
X109314Y482821D01*
X109320Y482711D01*
X109322Y482600D01*
X109322Y477520D01*
X109320Y477409D01*
X109314Y477299D01*
X109305Y477188D01*
X109291Y477078D01*
X109274Y476969D01*
X109253Y476860D01*
X109228Y476752D01*
X109199Y476645D01*
X109167Y476539D01*
X109131Y476434D01*
X109091Y476331D01*
X109048Y476229D01*
X109001Y476128D01*
X108950Y476029D01*
X108897Y475932D01*
X108840Y475838D01*
X108779Y475745D01*
X108716Y475654D01*
X108649Y475565D01*
X108579Y475479D01*
X108506Y475396D01*
X108431Y475314D01*
X108353Y475236D01*
X108271Y475161D01*
X108188Y475088D01*
X108102Y475018D01*
X108013Y474951D01*
X107922Y474888D01*
X107829Y474827D01*
X107734Y474770D01*
X107638Y474717D01*
X107539Y474666D01*
X107438Y474619D01*
X107336Y474576D01*
X107233Y474536D01*
X107128Y474500D01*
X107022Y474468D01*
X106915Y474439D01*
X106807Y474414D01*
X106698Y474393D01*
X106589Y474376D01*
X106479Y474362D01*
X106368Y474353D01*
X106258Y474347D01*
X106147Y474345D01*
X102972Y474345D01*
X114783Y474345D02*
X118593Y474345D01*
X118693Y474347D01*
X118792Y474353D01*
X118892Y474363D01*
X118990Y474376D01*
X119089Y474394D01*
X119186Y474415D01*
X119282Y474440D01*
X119378Y474469D01*
X119472Y474502D01*
X119565Y474538D01*
X119656Y474578D01*
X119746Y474622D01*
X119834Y474669D01*
X119920Y474719D01*
X120004Y474773D01*
X120086Y474830D01*
X120165Y474890D01*
X120243Y474954D01*
X120317Y475020D01*
X120389Y475089D01*
X120458Y475161D01*
X120524Y475235D01*
X120588Y475313D01*
X120648Y475392D01*
X120705Y475474D01*
X120759Y475558D01*
X120809Y475644D01*
X120856Y475732D01*
X120900Y475822D01*
X120940Y475913D01*
X120976Y476006D01*
X121009Y476100D01*
X121038Y476196D01*
X121063Y476292D01*
X121084Y476389D01*
X121102Y476488D01*
X121115Y476586D01*
X121125Y476686D01*
X121131Y476785D01*
X121133Y476885D01*
X121133Y478155D01*
X121131Y478255D01*
X121125Y478354D01*
X121115Y478454D01*
X121102Y478552D01*
X121084Y478651D01*
X121063Y478748D01*
X121038Y478844D01*
X121009Y478940D01*
X120976Y479034D01*
X120940Y479127D01*
X120900Y479218D01*
X120856Y479308D01*
X120809Y479396D01*
X120759Y479482D01*
X120705Y479566D01*
X120648Y479648D01*
X120588Y479727D01*
X120524Y479805D01*
X120458Y479879D01*
X120389Y479951D01*
X120317Y480020D01*
X120243Y480086D01*
X120165Y480150D01*
X120086Y480210D01*
X120004Y480267D01*
X119920Y480321D01*
X119834Y480371D01*
X119746Y480418D01*
X119656Y480462D01*
X119565Y480502D01*
X119472Y480538D01*
X119378Y480571D01*
X119282Y480600D01*
X119186Y480625D01*
X119089Y480646D01*
X118990Y480664D01*
X118892Y480677D01*
X118792Y480687D01*
X118693Y480693D01*
X118593Y480695D01*
X114783Y480695D01*
X114783Y485775D01*
X121133Y485775D01*
D11*
X193040Y454660D02*
X193140Y454662D01*
X193239Y454668D01*
X193339Y454678D01*
X193437Y454691D01*
X193536Y454709D01*
X193633Y454730D01*
X193729Y454755D01*
X193825Y454784D01*
X193919Y454817D01*
X194012Y454853D01*
X194103Y454893D01*
X194193Y454937D01*
X194281Y454984D01*
X194367Y455034D01*
X194451Y455088D01*
X194533Y455145D01*
X194612Y455205D01*
X194690Y455269D01*
X194764Y455335D01*
X194836Y455404D01*
X194905Y455476D01*
X194971Y455550D01*
X195035Y455628D01*
X195095Y455707D01*
X195152Y455789D01*
X195206Y455873D01*
X195256Y455959D01*
X195303Y456047D01*
X195347Y456137D01*
X195387Y456228D01*
X195423Y456321D01*
X195456Y456415D01*
X195485Y456511D01*
X195510Y456607D01*
X195531Y456704D01*
X195549Y456803D01*
X195562Y456901D01*
X195572Y457001D01*
X195578Y457100D01*
X195580Y457200D01*
X195580Y482600D02*
X195578Y482700D01*
X195572Y482799D01*
X195562Y482899D01*
X195549Y482997D01*
X195531Y483096D01*
X195510Y483193D01*
X195485Y483289D01*
X195456Y483385D01*
X195423Y483479D01*
X195387Y483572D01*
X195347Y483663D01*
X195303Y483753D01*
X195256Y483841D01*
X195206Y483927D01*
X195152Y484011D01*
X195095Y484093D01*
X195035Y484172D01*
X194971Y484250D01*
X194905Y484324D01*
X194836Y484396D01*
X194764Y484465D01*
X194690Y484531D01*
X194612Y484595D01*
X194533Y484655D01*
X194451Y484712D01*
X194367Y484766D01*
X194281Y484816D01*
X194193Y484863D01*
X194103Y484907D01*
X194012Y484947D01*
X193919Y484983D01*
X193825Y485016D01*
X193729Y485045D01*
X193633Y485070D01*
X193536Y485091D01*
X193437Y485109D01*
X193339Y485122D01*
X193239Y485132D01*
X193140Y485138D01*
X193040Y485140D01*
X111760Y485140D02*
X111660Y485138D01*
X111561Y485132D01*
X111461Y485122D01*
X111363Y485109D01*
X111264Y485091D01*
X111167Y485070D01*
X111071Y485045D01*
X110975Y485016D01*
X110881Y484983D01*
X110788Y484947D01*
X110697Y484907D01*
X110607Y484863D01*
X110519Y484816D01*
X110433Y484766D01*
X110349Y484712D01*
X110267Y484655D01*
X110188Y484595D01*
X110110Y484531D01*
X110036Y484465D01*
X109964Y484396D01*
X109895Y484324D01*
X109829Y484250D01*
X109765Y484172D01*
X109705Y484093D01*
X109648Y484011D01*
X109594Y483927D01*
X109544Y483841D01*
X109497Y483753D01*
X109453Y483663D01*
X109413Y483572D01*
X109377Y483479D01*
X109344Y483385D01*
X109315Y483289D01*
X109290Y483193D01*
X109269Y483096D01*
X109251Y482997D01*
X109238Y482899D01*
X109228Y482799D01*
X109222Y482700D01*
X109220Y482600D01*
X109220Y457200D02*
X109222Y457100D01*
X109228Y457001D01*
X109238Y456901D01*
X109251Y456803D01*
X109269Y456704D01*
X109290Y456607D01*
X109315Y456511D01*
X109344Y456415D01*
X109377Y456321D01*
X109413Y456228D01*
X109453Y456137D01*
X109497Y456047D01*
X109544Y455959D01*
X109594Y455873D01*
X109648Y455789D01*
X109705Y455707D01*
X109765Y455628D01*
X109829Y455550D01*
X109895Y455476D01*
X109964Y455404D01*
X110036Y455335D01*
X110110Y455269D01*
X110188Y455205D01*
X110267Y455145D01*
X110349Y455088D01*
X110433Y455034D01*
X110519Y454984D01*
X110607Y454937D01*
X110697Y454893D01*
X110788Y454853D01*
X110881Y454817D01*
X110975Y454784D01*
X111071Y454755D01*
X111167Y454730D01*
X111264Y454709D01*
X111363Y454691D01*
X111461Y454678D01*
X111561Y454668D01*
X111660Y454662D01*
X111760Y454660D01*
X186690Y454660D02*
X193040Y454660D01*
X186690Y454660D02*
X185420Y455930D01*
X186690Y485140D02*
X193040Y485140D01*
X186690Y485140D02*
X185420Y483870D01*
X119380Y455930D02*
X118110Y454660D01*
X119380Y455930D02*
X185420Y455930D01*
X119380Y483870D02*
X118110Y485140D01*
X119380Y483870D02*
X185420Y483870D01*
X118110Y454660D02*
X111760Y454660D01*
X111760Y485140D02*
X118110Y485140D01*
D12*
X175978Y450215D02*
X175978Y438785D01*
X175978Y450215D02*
X179153Y450215D01*
X179264Y450213D01*
X179374Y450207D01*
X179485Y450198D01*
X179595Y450184D01*
X179704Y450167D01*
X179813Y450146D01*
X179921Y450121D01*
X180028Y450092D01*
X180134Y450060D01*
X180239Y450024D01*
X180342Y449984D01*
X180444Y449941D01*
X180545Y449894D01*
X180644Y449843D01*
X180741Y449790D01*
X180835Y449733D01*
X180928Y449672D01*
X181019Y449609D01*
X181108Y449542D01*
X181194Y449472D01*
X181277Y449399D01*
X181359Y449324D01*
X181437Y449246D01*
X181512Y449164D01*
X181585Y449081D01*
X181655Y448995D01*
X181722Y448906D01*
X181785Y448815D01*
X181846Y448722D01*
X181903Y448627D01*
X181956Y448531D01*
X182007Y448432D01*
X182054Y448331D01*
X182097Y448229D01*
X182137Y448126D01*
X182173Y448021D01*
X182205Y447915D01*
X182234Y447808D01*
X182259Y447700D01*
X182280Y447591D01*
X182297Y447482D01*
X182311Y447372D01*
X182320Y447261D01*
X182326Y447151D01*
X182328Y447040D01*
X182326Y446929D01*
X182320Y446819D01*
X182311Y446708D01*
X182297Y446598D01*
X182280Y446489D01*
X182259Y446380D01*
X182234Y446272D01*
X182205Y446165D01*
X182173Y446059D01*
X182137Y445954D01*
X182097Y445851D01*
X182054Y445749D01*
X182007Y445648D01*
X181956Y445549D01*
X181903Y445452D01*
X181846Y445358D01*
X181785Y445265D01*
X181722Y445174D01*
X181655Y445085D01*
X181585Y444999D01*
X181512Y444916D01*
X181437Y444834D01*
X181359Y444756D01*
X181277Y444681D01*
X181194Y444608D01*
X181108Y444538D01*
X181019Y444471D01*
X180928Y444408D01*
X180835Y444347D01*
X180740Y444290D01*
X180644Y444237D01*
X180545Y444186D01*
X180444Y444139D01*
X180342Y444096D01*
X180239Y444056D01*
X180134Y444020D01*
X180028Y443988D01*
X179921Y443959D01*
X179813Y443934D01*
X179704Y443913D01*
X179595Y443896D01*
X179485Y443882D01*
X179374Y443873D01*
X179264Y443867D01*
X179153Y443865D01*
X175978Y443865D01*
X179788Y443865D02*
X182328Y438785D01*
X187325Y438785D02*
X191135Y438785D01*
X191235Y438787D01*
X191334Y438793D01*
X191434Y438803D01*
X191532Y438816D01*
X191631Y438834D01*
X191728Y438855D01*
X191824Y438880D01*
X191920Y438909D01*
X192014Y438942D01*
X192107Y438978D01*
X192198Y439018D01*
X192288Y439062D01*
X192376Y439109D01*
X192462Y439159D01*
X192546Y439213D01*
X192628Y439270D01*
X192707Y439330D01*
X192785Y439394D01*
X192859Y439460D01*
X192931Y439529D01*
X193000Y439601D01*
X193066Y439675D01*
X193130Y439753D01*
X193190Y439832D01*
X193247Y439914D01*
X193301Y439998D01*
X193351Y440084D01*
X193398Y440172D01*
X193442Y440262D01*
X193482Y440353D01*
X193518Y440446D01*
X193551Y440540D01*
X193580Y440636D01*
X193605Y440732D01*
X193626Y440829D01*
X193644Y440928D01*
X193657Y441026D01*
X193667Y441126D01*
X193673Y441225D01*
X193675Y441325D01*
X193675Y442595D01*
X193673Y442695D01*
X193667Y442794D01*
X193657Y442894D01*
X193644Y442992D01*
X193626Y443091D01*
X193605Y443188D01*
X193580Y443284D01*
X193551Y443380D01*
X193518Y443474D01*
X193482Y443567D01*
X193442Y443658D01*
X193398Y443748D01*
X193351Y443836D01*
X193301Y443922D01*
X193247Y444006D01*
X193190Y444088D01*
X193130Y444167D01*
X193066Y444245D01*
X193000Y444319D01*
X192931Y444391D01*
X192859Y444460D01*
X192785Y444526D01*
X192707Y444590D01*
X192628Y444650D01*
X192546Y444707D01*
X192462Y444761D01*
X192376Y444811D01*
X192288Y444858D01*
X192198Y444902D01*
X192107Y444942D01*
X192014Y444978D01*
X191920Y445011D01*
X191824Y445040D01*
X191728Y445065D01*
X191631Y445086D01*
X191532Y445104D01*
X191434Y445117D01*
X191334Y445127D01*
X191235Y445133D01*
X191135Y445135D01*
X187325Y445135D01*
X187325Y450215D01*
X193675Y450215D01*
D21*
X730400Y381000D03*
X710400Y381000D03*
X690400Y381000D03*
X670400Y381000D03*
X650400Y381000D03*
X630400Y381000D03*
X610400Y381000D03*
X590400Y381000D03*
D12*
X191000Y749600D02*
X191000Y979600D01*
X191000Y749600D02*
X571000Y749600D01*
X571000Y979600D01*
X191000Y979600D01*
D22*
X341508Y871792D02*
X341508Y860108D01*
X341508Y866599D02*
X347999Y866599D01*
X347999Y871792D02*
X347999Y860108D01*
X353723Y860108D02*
X353723Y871792D01*
X353723Y860108D02*
X358915Y860108D01*
X363775Y860108D02*
X363775Y871792D01*
X370266Y871792D02*
X363775Y864652D01*
X366372Y867248D02*
X370266Y860108D01*
X374768Y864652D02*
X382557Y864652D01*
X387609Y860108D02*
X391504Y860108D01*
X391603Y860110D01*
X391703Y860116D01*
X391802Y860125D01*
X391900Y860138D01*
X391998Y860155D01*
X392096Y860176D01*
X392192Y860201D01*
X392287Y860229D01*
X392381Y860261D01*
X392474Y860296D01*
X392566Y860335D01*
X392656Y860378D01*
X392744Y860423D01*
X392831Y860473D01*
X392915Y860525D01*
X392998Y860581D01*
X393078Y860639D01*
X393156Y860701D01*
X393231Y860766D01*
X393304Y860834D01*
X393374Y860904D01*
X393442Y860977D01*
X393507Y861052D01*
X393569Y861130D01*
X393627Y861210D01*
X393683Y861293D01*
X393735Y861377D01*
X393785Y861464D01*
X393830Y861552D01*
X393873Y861642D01*
X393912Y861734D01*
X393947Y861827D01*
X393979Y861921D01*
X394007Y862016D01*
X394032Y862112D01*
X394053Y862210D01*
X394070Y862308D01*
X394083Y862406D01*
X394092Y862505D01*
X394098Y862605D01*
X394100Y862704D01*
X394100Y864003D01*
X394098Y864102D01*
X394092Y864202D01*
X394083Y864301D01*
X394070Y864399D01*
X394053Y864497D01*
X394032Y864595D01*
X394007Y864691D01*
X393979Y864786D01*
X393947Y864880D01*
X393912Y864973D01*
X393873Y865065D01*
X393830Y865155D01*
X393785Y865243D01*
X393735Y865330D01*
X393683Y865414D01*
X393627Y865497D01*
X393569Y865577D01*
X393507Y865655D01*
X393442Y865730D01*
X393374Y865803D01*
X393304Y865873D01*
X393231Y865941D01*
X393156Y866006D01*
X393078Y866068D01*
X392998Y866126D01*
X392915Y866182D01*
X392831Y866234D01*
X392744Y866284D01*
X392656Y866329D01*
X392566Y866372D01*
X392474Y866411D01*
X392381Y866446D01*
X392287Y866478D01*
X392192Y866506D01*
X392096Y866531D01*
X391998Y866552D01*
X391900Y866569D01*
X391802Y866582D01*
X391703Y866591D01*
X391603Y866597D01*
X391504Y866599D01*
X387609Y866599D01*
X387609Y871792D01*
X394100Y871792D01*
X399533Y871792D02*
X399533Y860108D01*
X403427Y865301D02*
X399533Y871792D01*
X403427Y865301D02*
X407322Y871792D01*
X407322Y860108D01*
X412755Y865950D02*
X412758Y866180D01*
X412766Y866410D01*
X412780Y866639D01*
X412799Y866868D01*
X412824Y867097D01*
X412854Y867324D01*
X412889Y867552D01*
X412930Y867778D01*
X412976Y868003D01*
X413028Y868227D01*
X413085Y868449D01*
X413147Y868671D01*
X413215Y868890D01*
X413288Y869108D01*
X413366Y869325D01*
X413449Y869539D01*
X413537Y869751D01*
X413630Y869961D01*
X413729Y870169D01*
X413728Y870169D02*
X413761Y870259D01*
X413797Y870348D01*
X413837Y870436D01*
X413881Y870521D01*
X413928Y870605D01*
X413978Y870687D01*
X414032Y870767D01*
X414088Y870844D01*
X414148Y870920D01*
X414211Y870993D01*
X414276Y871063D01*
X414345Y871131D01*
X414416Y871195D01*
X414489Y871257D01*
X414565Y871316D01*
X414643Y871372D01*
X414724Y871425D01*
X414806Y871474D01*
X414890Y871520D01*
X414977Y871563D01*
X415064Y871602D01*
X415154Y871638D01*
X415244Y871670D01*
X415336Y871698D01*
X415429Y871723D01*
X415523Y871744D01*
X415617Y871761D01*
X415712Y871775D01*
X415808Y871784D01*
X415904Y871790D01*
X416000Y871792D01*
X416096Y871790D01*
X416192Y871784D01*
X416288Y871775D01*
X416383Y871761D01*
X416477Y871744D01*
X416571Y871723D01*
X416664Y871698D01*
X416756Y871670D01*
X416846Y871638D01*
X416936Y871602D01*
X417023Y871563D01*
X417110Y871520D01*
X417194Y871474D01*
X417276Y871425D01*
X417357Y871372D01*
X417435Y871316D01*
X417511Y871257D01*
X417584Y871195D01*
X417655Y871131D01*
X417724Y871063D01*
X417789Y870993D01*
X417852Y870920D01*
X417912Y870844D01*
X417968Y870767D01*
X418022Y870687D01*
X418072Y870605D01*
X418119Y870521D01*
X418163Y870436D01*
X418203Y870348D01*
X418239Y870259D01*
X418272Y870169D01*
X418273Y870169D02*
X418372Y869962D01*
X418465Y869752D01*
X418553Y869539D01*
X418636Y869325D01*
X418714Y869109D01*
X418787Y868891D01*
X418855Y868671D01*
X418917Y868450D01*
X418974Y868227D01*
X419026Y868003D01*
X419072Y867778D01*
X419113Y867552D01*
X419148Y867325D01*
X419178Y867097D01*
X419203Y866868D01*
X419222Y866639D01*
X419236Y866410D01*
X419244Y866180D01*
X419247Y865950D01*
X412755Y865950D02*
X412758Y865720D01*
X412766Y865490D01*
X412780Y865261D01*
X412799Y865032D01*
X412824Y864803D01*
X412854Y864575D01*
X412889Y864348D01*
X412930Y864122D01*
X412976Y863897D01*
X413028Y863673D01*
X413085Y863450D01*
X413147Y863229D01*
X413215Y863009D01*
X413288Y862791D01*
X413366Y862575D01*
X413449Y862361D01*
X413537Y862149D01*
X413630Y861938D01*
X413729Y861731D01*
X413728Y861731D02*
X413761Y861641D01*
X413797Y861552D01*
X413838Y861464D01*
X413881Y861379D01*
X413928Y861295D01*
X413978Y861213D01*
X414032Y861133D01*
X414088Y861056D01*
X414148Y860980D01*
X414211Y860907D01*
X414276Y860837D01*
X414345Y860769D01*
X414416Y860705D01*
X414489Y860643D01*
X414565Y860584D01*
X414643Y860528D01*
X414724Y860475D01*
X414806Y860426D01*
X414890Y860380D01*
X414977Y860337D01*
X415064Y860298D01*
X415154Y860262D01*
X415244Y860230D01*
X415336Y860202D01*
X415429Y860177D01*
X415523Y860156D01*
X415617Y860139D01*
X415712Y860125D01*
X415808Y860116D01*
X415904Y860110D01*
X416000Y860108D01*
X418272Y861731D02*
X418371Y861938D01*
X418464Y862149D01*
X418552Y862361D01*
X418635Y862575D01*
X418713Y862791D01*
X418786Y863009D01*
X418854Y863229D01*
X418916Y863450D01*
X418973Y863673D01*
X419025Y863897D01*
X419071Y864122D01*
X419112Y864348D01*
X419147Y864575D01*
X419177Y864803D01*
X419202Y865032D01*
X419221Y865261D01*
X419235Y865490D01*
X419243Y865720D01*
X419246Y865950D01*
X418272Y861731D02*
X418239Y861641D01*
X418203Y861552D01*
X418163Y861464D01*
X418119Y861379D01*
X418072Y861295D01*
X418022Y861213D01*
X417968Y861133D01*
X417912Y861056D01*
X417852Y860980D01*
X417789Y860907D01*
X417724Y860837D01*
X417655Y860769D01*
X417584Y860705D01*
X417511Y860643D01*
X417435Y860584D01*
X417357Y860528D01*
X417276Y860475D01*
X417194Y860426D01*
X417110Y860380D01*
X417023Y860337D01*
X416936Y860298D01*
X416846Y860262D01*
X416756Y860230D01*
X416664Y860202D01*
X416571Y860177D01*
X416477Y860156D01*
X416383Y860139D01*
X416288Y860125D01*
X416192Y860116D01*
X416096Y860110D01*
X416000Y860108D01*
X413404Y862704D02*
X418597Y869196D01*
X424185Y860108D02*
X428080Y860108D01*
X428179Y860110D01*
X428279Y860116D01*
X428378Y860125D01*
X428476Y860138D01*
X428574Y860155D01*
X428672Y860176D01*
X428768Y860201D01*
X428863Y860229D01*
X428957Y860261D01*
X429050Y860296D01*
X429142Y860335D01*
X429232Y860378D01*
X429320Y860423D01*
X429407Y860473D01*
X429491Y860525D01*
X429574Y860581D01*
X429654Y860639D01*
X429732Y860701D01*
X429807Y860766D01*
X429880Y860834D01*
X429950Y860904D01*
X430018Y860977D01*
X430083Y861052D01*
X430145Y861130D01*
X430203Y861210D01*
X430259Y861293D01*
X430311Y861377D01*
X430361Y861464D01*
X430406Y861552D01*
X430449Y861642D01*
X430488Y861734D01*
X430523Y861827D01*
X430555Y861921D01*
X430583Y862016D01*
X430608Y862112D01*
X430629Y862210D01*
X430646Y862308D01*
X430659Y862406D01*
X430668Y862505D01*
X430674Y862605D01*
X430676Y862704D01*
X430676Y864003D01*
X430674Y864102D01*
X430668Y864202D01*
X430659Y864301D01*
X430646Y864399D01*
X430629Y864497D01*
X430608Y864595D01*
X430583Y864691D01*
X430555Y864786D01*
X430523Y864880D01*
X430488Y864973D01*
X430449Y865065D01*
X430406Y865155D01*
X430361Y865243D01*
X430311Y865330D01*
X430259Y865414D01*
X430203Y865497D01*
X430145Y865577D01*
X430083Y865655D01*
X430018Y865730D01*
X429950Y865803D01*
X429880Y865873D01*
X429807Y865941D01*
X429732Y866006D01*
X429654Y866068D01*
X429574Y866126D01*
X429491Y866182D01*
X429407Y866234D01*
X429320Y866284D01*
X429232Y866329D01*
X429142Y866372D01*
X429050Y866411D01*
X428957Y866446D01*
X428863Y866478D01*
X428768Y866506D01*
X428672Y866531D01*
X428574Y866552D01*
X428476Y866569D01*
X428378Y866582D01*
X428279Y866591D01*
X428179Y866597D01*
X428080Y866599D01*
X424185Y866599D01*
X424185Y871792D01*
X430676Y871792D01*
D23*
X243992Y899379D02*
X241381Y897291D01*
X243992Y899379D02*
X243992Y889981D01*
X246602Y889981D02*
X241381Y889981D01*
X254880Y889981D02*
X258012Y899379D01*
X261145Y889981D01*
X260362Y892331D02*
X255663Y892331D01*
X266608Y889981D02*
X268697Y889981D01*
X266608Y889981D02*
X266519Y889983D01*
X266431Y889989D01*
X266343Y889998D01*
X266255Y890011D01*
X266168Y890028D01*
X266082Y890048D01*
X265997Y890073D01*
X265912Y890100D01*
X265829Y890132D01*
X265748Y890166D01*
X265668Y890205D01*
X265590Y890246D01*
X265513Y890291D01*
X265439Y890339D01*
X265366Y890390D01*
X265296Y890444D01*
X265229Y890502D01*
X265163Y890562D01*
X265101Y890624D01*
X265041Y890690D01*
X264983Y890757D01*
X264929Y890827D01*
X264878Y890900D01*
X264830Y890974D01*
X264785Y891051D01*
X264744Y891129D01*
X264705Y891209D01*
X264671Y891290D01*
X264639Y891373D01*
X264612Y891458D01*
X264587Y891543D01*
X264567Y891629D01*
X264550Y891716D01*
X264537Y891804D01*
X264528Y891892D01*
X264522Y891980D01*
X264520Y892069D01*
X264520Y897291D01*
X264522Y897382D01*
X264528Y897473D01*
X264538Y897564D01*
X264552Y897654D01*
X264569Y897743D01*
X264591Y897831D01*
X264617Y897919D01*
X264646Y898005D01*
X264679Y898090D01*
X264716Y898173D01*
X264756Y898255D01*
X264800Y898335D01*
X264847Y898413D01*
X264898Y898489D01*
X264951Y898562D01*
X265008Y898633D01*
X265069Y898702D01*
X265132Y898767D01*
X265197Y898830D01*
X265266Y898890D01*
X265337Y898948D01*
X265410Y899001D01*
X265486Y899052D01*
X265564Y899099D01*
X265644Y899143D01*
X265726Y899183D01*
X265809Y899220D01*
X265894Y899253D01*
X265980Y899282D01*
X266068Y899308D01*
X266156Y899330D01*
X266245Y899347D01*
X266335Y899361D01*
X266426Y899371D01*
X266517Y899377D01*
X266608Y899379D01*
X268697Y899379D01*
X244253Y839380D02*
X244348Y839378D01*
X244442Y839372D01*
X244536Y839363D01*
X244630Y839350D01*
X244723Y839333D01*
X244815Y839312D01*
X244907Y839287D01*
X244997Y839259D01*
X245086Y839227D01*
X245174Y839192D01*
X245260Y839153D01*
X245345Y839111D01*
X245428Y839065D01*
X245509Y839016D01*
X245588Y838964D01*
X245665Y838909D01*
X245739Y838850D01*
X245811Y838789D01*
X245881Y838725D01*
X245948Y838658D01*
X246012Y838588D01*
X246073Y838516D01*
X246132Y838442D01*
X246187Y838365D01*
X246239Y838286D01*
X246288Y838205D01*
X246334Y838122D01*
X246376Y838037D01*
X246415Y837951D01*
X246450Y837863D01*
X246482Y837774D01*
X246510Y837684D01*
X246535Y837592D01*
X246556Y837500D01*
X246573Y837407D01*
X246586Y837313D01*
X246595Y837219D01*
X246601Y837125D01*
X246603Y837030D01*
X244253Y839379D02*
X244145Y839377D01*
X244036Y839371D01*
X243928Y839361D01*
X243821Y839348D01*
X243714Y839330D01*
X243607Y839309D01*
X243502Y839284D01*
X243397Y839255D01*
X243294Y839223D01*
X243192Y839186D01*
X243091Y839146D01*
X242992Y839103D01*
X242894Y839056D01*
X242798Y839005D01*
X242704Y838951D01*
X242612Y838894D01*
X242522Y838833D01*
X242434Y838769D01*
X242349Y838703D01*
X242266Y838633D01*
X242186Y838560D01*
X242108Y838484D01*
X242033Y838406D01*
X241961Y838325D01*
X241892Y838241D01*
X241826Y838155D01*
X241763Y838067D01*
X241704Y837976D01*
X241647Y837884D01*
X241594Y837789D01*
X241545Y837693D01*
X241499Y837594D01*
X241456Y837495D01*
X241417Y837393D01*
X241382Y837291D01*
X245819Y835202D02*
X245888Y835271D01*
X245954Y835342D01*
X246018Y835415D01*
X246079Y835491D01*
X246137Y835570D01*
X246191Y835650D01*
X246243Y835733D01*
X246291Y835817D01*
X246337Y835903D01*
X246378Y835991D01*
X246417Y836081D01*
X246452Y836172D01*
X246483Y836264D01*
X246511Y836357D01*
X246535Y836451D01*
X246555Y836546D01*
X246572Y836642D01*
X246585Y836739D01*
X246594Y836836D01*
X246600Y836933D01*
X246602Y837030D01*
X245819Y835202D02*
X241381Y829981D01*
X246602Y829981D01*
X254880Y829981D02*
X258012Y839379D01*
X261145Y829981D01*
X260362Y832331D02*
X255663Y832331D01*
X266608Y829981D02*
X268697Y829981D01*
X266608Y829981D02*
X266519Y829983D01*
X266431Y829989D01*
X266343Y829998D01*
X266255Y830011D01*
X266168Y830028D01*
X266082Y830048D01*
X265997Y830073D01*
X265912Y830100D01*
X265829Y830132D01*
X265748Y830166D01*
X265668Y830205D01*
X265590Y830246D01*
X265513Y830291D01*
X265439Y830339D01*
X265366Y830390D01*
X265296Y830444D01*
X265229Y830502D01*
X265163Y830562D01*
X265101Y830624D01*
X265041Y830690D01*
X264983Y830757D01*
X264929Y830827D01*
X264878Y830900D01*
X264830Y830974D01*
X264785Y831051D01*
X264744Y831129D01*
X264705Y831209D01*
X264671Y831290D01*
X264639Y831373D01*
X264612Y831458D01*
X264587Y831543D01*
X264567Y831629D01*
X264550Y831716D01*
X264537Y831804D01*
X264528Y831892D01*
X264522Y831980D01*
X264520Y832069D01*
X264520Y837291D01*
X264522Y837382D01*
X264528Y837473D01*
X264538Y837564D01*
X264552Y837654D01*
X264569Y837743D01*
X264591Y837831D01*
X264617Y837919D01*
X264646Y838005D01*
X264679Y838090D01*
X264716Y838173D01*
X264756Y838255D01*
X264800Y838335D01*
X264847Y838413D01*
X264898Y838489D01*
X264951Y838562D01*
X265008Y838633D01*
X265069Y838702D01*
X265132Y838767D01*
X265197Y838830D01*
X265266Y838890D01*
X265337Y838948D01*
X265410Y839001D01*
X265486Y839052D01*
X265564Y839099D01*
X265644Y839143D01*
X265726Y839183D01*
X265809Y839220D01*
X265894Y839253D01*
X265980Y839282D01*
X266068Y839308D01*
X266156Y839330D01*
X266245Y839347D01*
X266335Y839361D01*
X266426Y839371D01*
X266517Y839377D01*
X266608Y839379D01*
X268697Y839379D01*
X491381Y953636D02*
X497646Y953636D01*
X506011Y959379D02*
X509144Y949981D01*
X512277Y959379D01*
X515590Y954158D02*
X515590Y952069D01*
X515590Y954158D02*
X515592Y954248D01*
X515598Y954337D01*
X515607Y954427D01*
X515621Y954516D01*
X515638Y954604D01*
X515659Y954691D01*
X515684Y954778D01*
X515713Y954863D01*
X515745Y954947D01*
X515780Y955029D01*
X515820Y955110D01*
X515862Y955189D01*
X515908Y955266D01*
X515958Y955341D01*
X516010Y955414D01*
X516066Y955485D01*
X516124Y955553D01*
X516186Y955618D01*
X516250Y955681D01*
X516317Y955741D01*
X516386Y955798D01*
X516458Y955852D01*
X516532Y955903D01*
X516608Y955951D01*
X516686Y955995D01*
X516766Y956036D01*
X516848Y956074D01*
X516931Y956108D01*
X517016Y956138D01*
X517102Y956165D01*
X517188Y956188D01*
X517276Y956207D01*
X517365Y956222D01*
X517454Y956234D01*
X517543Y956242D01*
X517633Y956246D01*
X517723Y956246D01*
X517813Y956242D01*
X517902Y956234D01*
X517991Y956222D01*
X518080Y956207D01*
X518168Y956188D01*
X518254Y956165D01*
X518340Y956138D01*
X518425Y956108D01*
X518508Y956074D01*
X518590Y956036D01*
X518670Y955995D01*
X518748Y955951D01*
X518824Y955903D01*
X518898Y955852D01*
X518970Y955798D01*
X519039Y955741D01*
X519106Y955681D01*
X519170Y955618D01*
X519232Y955553D01*
X519290Y955485D01*
X519346Y955414D01*
X519398Y955341D01*
X519448Y955266D01*
X519494Y955189D01*
X519536Y955110D01*
X519576Y955029D01*
X519611Y954947D01*
X519643Y954863D01*
X519672Y954778D01*
X519697Y954691D01*
X519718Y954604D01*
X519735Y954516D01*
X519749Y954427D01*
X519758Y954337D01*
X519764Y954248D01*
X519766Y954158D01*
X519767Y954158D02*
X519767Y952069D01*
X519766Y952069D02*
X519764Y951979D01*
X519758Y951890D01*
X519749Y951800D01*
X519735Y951711D01*
X519718Y951623D01*
X519697Y951536D01*
X519672Y951449D01*
X519643Y951364D01*
X519611Y951280D01*
X519576Y951198D01*
X519536Y951117D01*
X519494Y951038D01*
X519448Y950961D01*
X519398Y950886D01*
X519346Y950813D01*
X519290Y950742D01*
X519232Y950674D01*
X519170Y950609D01*
X519106Y950546D01*
X519039Y950486D01*
X518970Y950429D01*
X518898Y950375D01*
X518824Y950324D01*
X518748Y950276D01*
X518670Y950232D01*
X518590Y950191D01*
X518508Y950153D01*
X518425Y950119D01*
X518340Y950089D01*
X518254Y950062D01*
X518168Y950039D01*
X518080Y950020D01*
X517991Y950005D01*
X517902Y949993D01*
X517813Y949985D01*
X517723Y949981D01*
X517633Y949981D01*
X517543Y949985D01*
X517454Y949993D01*
X517365Y950005D01*
X517276Y950020D01*
X517188Y950039D01*
X517102Y950062D01*
X517016Y950089D01*
X516931Y950119D01*
X516848Y950153D01*
X516766Y950191D01*
X516686Y950232D01*
X516608Y950276D01*
X516532Y950324D01*
X516458Y950375D01*
X516386Y950429D01*
X516317Y950486D01*
X516250Y950546D01*
X516186Y950609D01*
X516124Y950674D01*
X516066Y950742D01*
X516010Y950813D01*
X515958Y950886D01*
X515908Y950961D01*
X515862Y951038D01*
X515820Y951117D01*
X515780Y951198D01*
X515745Y951280D01*
X515713Y951364D01*
X515684Y951449D01*
X515659Y951536D01*
X515638Y951623D01*
X515621Y951711D01*
X515607Y951800D01*
X515598Y951890D01*
X515592Y951979D01*
X515590Y952069D01*
X497646Y773636D02*
X491381Y773636D01*
X494514Y770503D02*
X494514Y776768D01*
X506011Y779379D02*
X509144Y769981D01*
X512277Y779379D01*
X515590Y774158D02*
X515590Y772069D01*
X515590Y774158D02*
X515592Y774248D01*
X515598Y774337D01*
X515607Y774427D01*
X515621Y774516D01*
X515638Y774604D01*
X515659Y774691D01*
X515684Y774778D01*
X515713Y774863D01*
X515745Y774947D01*
X515780Y775029D01*
X515820Y775110D01*
X515862Y775189D01*
X515908Y775266D01*
X515958Y775341D01*
X516010Y775414D01*
X516066Y775485D01*
X516124Y775553D01*
X516186Y775618D01*
X516250Y775681D01*
X516317Y775741D01*
X516386Y775798D01*
X516458Y775852D01*
X516532Y775903D01*
X516608Y775951D01*
X516686Y775995D01*
X516766Y776036D01*
X516848Y776074D01*
X516931Y776108D01*
X517016Y776138D01*
X517102Y776165D01*
X517188Y776188D01*
X517276Y776207D01*
X517365Y776222D01*
X517454Y776234D01*
X517543Y776242D01*
X517633Y776246D01*
X517723Y776246D01*
X517813Y776242D01*
X517902Y776234D01*
X517991Y776222D01*
X518080Y776207D01*
X518168Y776188D01*
X518254Y776165D01*
X518340Y776138D01*
X518425Y776108D01*
X518508Y776074D01*
X518590Y776036D01*
X518670Y775995D01*
X518748Y775951D01*
X518824Y775903D01*
X518898Y775852D01*
X518970Y775798D01*
X519039Y775741D01*
X519106Y775681D01*
X519170Y775618D01*
X519232Y775553D01*
X519290Y775485D01*
X519346Y775414D01*
X519398Y775341D01*
X519448Y775266D01*
X519494Y775189D01*
X519536Y775110D01*
X519576Y775029D01*
X519611Y774947D01*
X519643Y774863D01*
X519672Y774778D01*
X519697Y774691D01*
X519718Y774604D01*
X519735Y774516D01*
X519749Y774427D01*
X519758Y774337D01*
X519764Y774248D01*
X519766Y774158D01*
X519767Y774158D02*
X519767Y772069D01*
X519766Y772069D02*
X519764Y771979D01*
X519758Y771890D01*
X519749Y771800D01*
X519735Y771711D01*
X519718Y771623D01*
X519697Y771536D01*
X519672Y771449D01*
X519643Y771364D01*
X519611Y771280D01*
X519576Y771198D01*
X519536Y771117D01*
X519494Y771038D01*
X519448Y770961D01*
X519398Y770886D01*
X519346Y770813D01*
X519290Y770742D01*
X519232Y770674D01*
X519170Y770609D01*
X519106Y770546D01*
X519039Y770486D01*
X518970Y770429D01*
X518898Y770375D01*
X518824Y770324D01*
X518748Y770276D01*
X518670Y770232D01*
X518590Y770191D01*
X518508Y770153D01*
X518425Y770119D01*
X518340Y770089D01*
X518254Y770062D01*
X518168Y770039D01*
X518080Y770020D01*
X517991Y770005D01*
X517902Y769993D01*
X517813Y769985D01*
X517723Y769981D01*
X517633Y769981D01*
X517543Y769985D01*
X517454Y769993D01*
X517365Y770005D01*
X517276Y770020D01*
X517188Y770039D01*
X517102Y770062D01*
X517016Y770089D01*
X516931Y770119D01*
X516848Y770153D01*
X516766Y770191D01*
X516686Y770232D01*
X516608Y770276D01*
X516532Y770324D01*
X516458Y770375D01*
X516386Y770429D01*
X516317Y770486D01*
X516250Y770546D01*
X516186Y770609D01*
X516124Y770674D01*
X516066Y770742D01*
X516010Y770813D01*
X515958Y770886D01*
X515908Y770961D01*
X515862Y771038D01*
X515820Y771117D01*
X515780Y771198D01*
X515745Y771280D01*
X515713Y771364D01*
X515684Y771449D01*
X515659Y771536D01*
X515638Y771623D01*
X515621Y771711D01*
X515607Y771800D01*
X515598Y771890D01*
X515592Y771979D01*
X515590Y772069D01*
D12*
X342900Y254000D02*
X342900Y50800D01*
X342900Y254000D02*
X546100Y254000D01*
X546100Y50800D01*
X520700Y50800D01*
X368300Y50800D02*
X342900Y50800D01*
X520700Y50800D02*
X520700Y190500D01*
X368300Y190500D01*
X368300Y50800D01*
D22*
X375158Y203708D02*
X375158Y215392D01*
X378404Y215392D01*
X378517Y215390D01*
X378630Y215384D01*
X378743Y215374D01*
X378856Y215360D01*
X378968Y215343D01*
X379079Y215321D01*
X379189Y215296D01*
X379299Y215266D01*
X379407Y215233D01*
X379514Y215196D01*
X379620Y215156D01*
X379724Y215111D01*
X379827Y215063D01*
X379928Y215012D01*
X380027Y214957D01*
X380124Y214899D01*
X380219Y214837D01*
X380312Y214772D01*
X380402Y214704D01*
X380490Y214633D01*
X380576Y214558D01*
X380659Y214481D01*
X380739Y214401D01*
X380816Y214318D01*
X380891Y214232D01*
X380962Y214144D01*
X381030Y214054D01*
X381095Y213961D01*
X381157Y213866D01*
X381215Y213769D01*
X381270Y213670D01*
X381321Y213569D01*
X381369Y213466D01*
X381414Y213362D01*
X381454Y213256D01*
X381491Y213149D01*
X381524Y213041D01*
X381554Y212931D01*
X381579Y212821D01*
X381601Y212710D01*
X381618Y212598D01*
X381632Y212485D01*
X381642Y212372D01*
X381648Y212259D01*
X381650Y212146D01*
X381649Y212146D02*
X381649Y206954D01*
X381650Y206954D02*
X381648Y206841D01*
X381642Y206728D01*
X381632Y206615D01*
X381618Y206502D01*
X381601Y206390D01*
X381579Y206279D01*
X381554Y206169D01*
X381524Y206059D01*
X381491Y205951D01*
X381454Y205844D01*
X381414Y205738D01*
X381369Y205634D01*
X381321Y205531D01*
X381270Y205430D01*
X381215Y205331D01*
X381157Y205234D01*
X381095Y205139D01*
X381030Y205046D01*
X380962Y204956D01*
X380891Y204868D01*
X380816Y204782D01*
X380739Y204699D01*
X380659Y204619D01*
X380576Y204542D01*
X380490Y204467D01*
X380402Y204396D01*
X380312Y204328D01*
X380219Y204263D01*
X380124Y204201D01*
X380027Y204143D01*
X379928Y204088D01*
X379827Y204037D01*
X379724Y203989D01*
X379620Y203944D01*
X379514Y203904D01*
X379407Y203867D01*
X379299Y203834D01*
X379189Y203804D01*
X379079Y203779D01*
X378968Y203757D01*
X378856Y203740D01*
X378743Y203726D01*
X378630Y203716D01*
X378517Y203710D01*
X378404Y203708D01*
X375158Y203708D01*
X387373Y203708D02*
X387373Y215392D01*
X392565Y215392D01*
X392565Y210199D02*
X387373Y210199D01*
X397425Y215392D02*
X397425Y203708D01*
X397425Y215392D02*
X400671Y215392D01*
X400784Y215390D01*
X400897Y215384D01*
X401010Y215374D01*
X401123Y215360D01*
X401235Y215343D01*
X401346Y215321D01*
X401456Y215296D01*
X401566Y215266D01*
X401674Y215233D01*
X401781Y215196D01*
X401887Y215156D01*
X401991Y215111D01*
X402094Y215063D01*
X402195Y215012D01*
X402294Y214957D01*
X402391Y214899D01*
X402486Y214837D01*
X402579Y214772D01*
X402669Y214704D01*
X402757Y214633D01*
X402843Y214558D01*
X402926Y214481D01*
X403006Y214401D01*
X403083Y214318D01*
X403158Y214232D01*
X403229Y214144D01*
X403297Y214054D01*
X403362Y213961D01*
X403424Y213866D01*
X403482Y213769D01*
X403537Y213670D01*
X403588Y213569D01*
X403636Y213466D01*
X403681Y213362D01*
X403721Y213256D01*
X403758Y213149D01*
X403791Y213041D01*
X403821Y212931D01*
X403846Y212821D01*
X403868Y212710D01*
X403885Y212598D01*
X403899Y212485D01*
X403909Y212372D01*
X403915Y212259D01*
X403917Y212146D01*
X403915Y212033D01*
X403909Y211920D01*
X403899Y211807D01*
X403885Y211694D01*
X403868Y211582D01*
X403846Y211471D01*
X403821Y211361D01*
X403791Y211251D01*
X403758Y211143D01*
X403721Y211036D01*
X403681Y210930D01*
X403636Y210826D01*
X403588Y210723D01*
X403537Y210622D01*
X403482Y210523D01*
X403424Y210426D01*
X403362Y210331D01*
X403297Y210238D01*
X403229Y210148D01*
X403158Y210060D01*
X403083Y209974D01*
X403006Y209891D01*
X402926Y209811D01*
X402843Y209734D01*
X402757Y209659D01*
X402669Y209588D01*
X402579Y209520D01*
X402486Y209455D01*
X402391Y209393D01*
X402294Y209335D01*
X402195Y209280D01*
X402094Y209229D01*
X401991Y209181D01*
X401887Y209136D01*
X401781Y209096D01*
X401674Y209059D01*
X401566Y209026D01*
X401456Y208996D01*
X401346Y208971D01*
X401235Y208949D01*
X401123Y208932D01*
X401010Y208918D01*
X400897Y208908D01*
X400784Y208902D01*
X400671Y208900D01*
X400671Y208901D02*
X397425Y208901D01*
X408342Y205655D02*
X408342Y215392D01*
X408342Y205655D02*
X408344Y205568D01*
X408350Y205480D01*
X408360Y205394D01*
X408373Y205307D01*
X408391Y205222D01*
X408412Y205137D01*
X408437Y205053D01*
X408466Y204971D01*
X408499Y204890D01*
X408535Y204810D01*
X408574Y204732D01*
X408618Y204656D01*
X408664Y204582D01*
X408714Y204511D01*
X408767Y204441D01*
X408823Y204374D01*
X408882Y204310D01*
X408944Y204248D01*
X409008Y204189D01*
X409075Y204133D01*
X409145Y204080D01*
X409216Y204030D01*
X409290Y203984D01*
X409366Y203940D01*
X409444Y203901D01*
X409524Y203865D01*
X409605Y203832D01*
X409687Y203803D01*
X409771Y203778D01*
X409856Y203757D01*
X409941Y203739D01*
X410028Y203726D01*
X410114Y203716D01*
X410202Y203710D01*
X410289Y203708D01*
X416501Y208252D02*
X419422Y208252D01*
X416501Y208252D02*
X416407Y208250D01*
X416313Y208244D01*
X416220Y208235D01*
X416127Y208221D01*
X416035Y208204D01*
X415943Y208182D01*
X415853Y208158D01*
X415763Y208129D01*
X415675Y208097D01*
X415588Y208061D01*
X415503Y208021D01*
X415420Y207978D01*
X415338Y207932D01*
X415258Y207882D01*
X415181Y207829D01*
X415106Y207773D01*
X415033Y207714D01*
X414962Y207652D01*
X414894Y207587D01*
X414829Y207519D01*
X414767Y207448D01*
X414708Y207375D01*
X414652Y207300D01*
X414599Y207223D01*
X414549Y207143D01*
X414503Y207061D01*
X414460Y206978D01*
X414420Y206893D01*
X414384Y206806D01*
X414352Y206718D01*
X414323Y206628D01*
X414299Y206538D01*
X414277Y206446D01*
X414260Y206354D01*
X414246Y206261D01*
X414237Y206168D01*
X414231Y206074D01*
X414229Y205980D01*
X414231Y205886D01*
X414237Y205792D01*
X414246Y205699D01*
X414260Y205606D01*
X414277Y205514D01*
X414299Y205422D01*
X414323Y205332D01*
X414352Y205242D01*
X414384Y205154D01*
X414420Y205067D01*
X414460Y204982D01*
X414503Y204899D01*
X414549Y204817D01*
X414599Y204737D01*
X414652Y204660D01*
X414708Y204585D01*
X414767Y204512D01*
X414829Y204441D01*
X414894Y204373D01*
X414962Y204308D01*
X415033Y204246D01*
X415106Y204187D01*
X415181Y204131D01*
X415258Y204078D01*
X415338Y204028D01*
X415420Y203982D01*
X415503Y203939D01*
X415588Y203899D01*
X415675Y203863D01*
X415763Y203831D01*
X415853Y203802D01*
X415943Y203778D01*
X416035Y203756D01*
X416127Y203739D01*
X416220Y203725D01*
X416313Y203716D01*
X416407Y203710D01*
X416501Y203708D01*
X419422Y203708D01*
X419422Y209550D01*
X419420Y209637D01*
X419414Y209725D01*
X419404Y209811D01*
X419391Y209898D01*
X419373Y209983D01*
X419352Y210068D01*
X419327Y210152D01*
X419298Y210234D01*
X419265Y210315D01*
X419229Y210395D01*
X419190Y210473D01*
X419146Y210549D01*
X419100Y210623D01*
X419050Y210694D01*
X418997Y210764D01*
X418941Y210831D01*
X418882Y210895D01*
X418820Y210957D01*
X418756Y211016D01*
X418689Y211072D01*
X418619Y211125D01*
X418548Y211175D01*
X418474Y211221D01*
X418398Y211265D01*
X418320Y211304D01*
X418240Y211340D01*
X418159Y211373D01*
X418077Y211402D01*
X417993Y211427D01*
X417908Y211448D01*
X417823Y211466D01*
X417736Y211479D01*
X417650Y211489D01*
X417562Y211495D01*
X417475Y211497D01*
X414878Y211497D01*
X424194Y199813D02*
X425492Y199813D01*
X429387Y211497D01*
X424194Y211497D02*
X426790Y203708D01*
X435666Y203708D02*
X438912Y203708D01*
X435666Y203708D02*
X435579Y203710D01*
X435491Y203716D01*
X435405Y203726D01*
X435318Y203739D01*
X435233Y203757D01*
X435148Y203778D01*
X435064Y203803D01*
X434982Y203832D01*
X434901Y203865D01*
X434821Y203901D01*
X434743Y203940D01*
X434667Y203984D01*
X434593Y204030D01*
X434522Y204080D01*
X434452Y204133D01*
X434385Y204189D01*
X434321Y204248D01*
X434259Y204310D01*
X434200Y204374D01*
X434144Y204441D01*
X434091Y204511D01*
X434041Y204582D01*
X433995Y204656D01*
X433951Y204732D01*
X433912Y204810D01*
X433876Y204890D01*
X433843Y204971D01*
X433814Y205053D01*
X433789Y205137D01*
X433768Y205222D01*
X433750Y205307D01*
X433737Y205394D01*
X433727Y205480D01*
X433721Y205568D01*
X433719Y205655D01*
X433719Y208901D01*
X433721Y209002D01*
X433727Y209102D01*
X433737Y209202D01*
X433750Y209302D01*
X433768Y209401D01*
X433789Y209500D01*
X433814Y209597D01*
X433843Y209694D01*
X433876Y209789D01*
X433912Y209883D01*
X433952Y209975D01*
X433995Y210066D01*
X434042Y210155D01*
X434092Y210242D01*
X434146Y210328D01*
X434203Y210411D01*
X434263Y210491D01*
X434326Y210570D01*
X434393Y210646D01*
X434462Y210719D01*
X434534Y210789D01*
X434608Y210857D01*
X434685Y210922D01*
X434765Y210983D01*
X434847Y211042D01*
X434931Y211097D01*
X435017Y211149D01*
X435105Y211198D01*
X435195Y211243D01*
X435287Y211285D01*
X435380Y211323D01*
X435475Y211357D01*
X435570Y211388D01*
X435667Y211415D01*
X435765Y211438D01*
X435864Y211458D01*
X435964Y211473D01*
X436064Y211485D01*
X436164Y211493D01*
X436265Y211497D01*
X436365Y211497D01*
X436466Y211493D01*
X436566Y211485D01*
X436666Y211473D01*
X436766Y211458D01*
X436865Y211438D01*
X436963Y211415D01*
X437060Y211388D01*
X437155Y211357D01*
X437250Y211323D01*
X437343Y211285D01*
X437435Y211243D01*
X437525Y211198D01*
X437613Y211149D01*
X437699Y211097D01*
X437783Y211042D01*
X437865Y210983D01*
X437945Y210922D01*
X438022Y210857D01*
X438096Y210789D01*
X438168Y210719D01*
X438237Y210646D01*
X438304Y210570D01*
X438367Y210491D01*
X438427Y210411D01*
X438484Y210328D01*
X438538Y210242D01*
X438588Y210155D01*
X438635Y210066D01*
X438678Y209975D01*
X438718Y209883D01*
X438754Y209789D01*
X438787Y209694D01*
X438816Y209597D01*
X438841Y209500D01*
X438862Y209401D01*
X438880Y209302D01*
X438893Y209202D01*
X438903Y209102D01*
X438909Y209002D01*
X438911Y208901D01*
X438912Y208901D02*
X438912Y207603D01*
X433719Y207603D01*
X444072Y203708D02*
X444072Y211497D01*
X447967Y211497D01*
X447967Y210199D01*
X458329Y215392D02*
X458329Y203708D01*
X462223Y208901D02*
X458329Y215392D01*
X462223Y208901D02*
X466118Y215392D01*
X466118Y203708D01*
X471367Y203708D02*
X471367Y211497D01*
X471043Y214743D02*
X471043Y215392D01*
X471692Y215392D01*
X471692Y214743D01*
X471043Y214743D01*
X476391Y211497D02*
X476391Y203708D01*
X476391Y211497D02*
X479637Y211497D01*
X479724Y211495D01*
X479812Y211489D01*
X479898Y211479D01*
X479985Y211466D01*
X480070Y211448D01*
X480155Y211427D01*
X480239Y211402D01*
X480321Y211373D01*
X480402Y211340D01*
X480482Y211304D01*
X480560Y211265D01*
X480636Y211221D01*
X480710Y211175D01*
X480781Y211125D01*
X480851Y211072D01*
X480918Y211016D01*
X480982Y210957D01*
X481044Y210896D01*
X481103Y210831D01*
X481159Y210764D01*
X481212Y210694D01*
X481262Y210623D01*
X481308Y210549D01*
X481352Y210473D01*
X481391Y210395D01*
X481427Y210315D01*
X481460Y210234D01*
X481489Y210152D01*
X481514Y210068D01*
X481535Y209983D01*
X481553Y209898D01*
X481566Y209811D01*
X481576Y209725D01*
X481582Y209637D01*
X481584Y209550D01*
X481584Y203708D01*
X486607Y203708D02*
X486607Y211497D01*
X486283Y214743D02*
X486283Y215392D01*
X486932Y215392D01*
X486932Y214743D01*
X486283Y214743D01*
D12*
X520700Y50800D02*
X520700Y44450D01*
X495300Y44450D01*
X476250Y50800D01*
X374650Y50800D01*
X368300Y50800D01*
X374650Y50800D02*
X374650Y25400D01*
X495300Y25400D01*
X495300Y44450D01*
D11*
X96520Y721360D02*
X6350Y721360D01*
X96520Y721360D02*
X96520Y692150D01*
X96520Y679450D02*
X96520Y641350D01*
X96520Y628650D02*
X96520Y599440D01*
X6350Y599440D02*
X6350Y721360D01*
X6350Y599440D02*
X96520Y599440D01*
X-24130Y694690D02*
X-24130Y721360D01*
X6350Y721360D01*
X6350Y599440D02*
X-24130Y599440D01*
X-24130Y676910D02*
X-11430Y680720D01*
X-24130Y676910D02*
X-24130Y643890D01*
X-11430Y680720D02*
X-11430Y690880D01*
X-24130Y694690D01*
X-24130Y676910D01*
X-11430Y629920D02*
X-24130Y626110D01*
X-24130Y599440D01*
X-11430Y640080D02*
X-24130Y643890D01*
X-24130Y626110D01*
X-11430Y629920D02*
X-11430Y640080D01*
D12*
X70485Y702310D02*
X73025Y699135D01*
X70485Y702310D02*
X81915Y702310D01*
X81915Y699135D02*
X81915Y705485D01*
X73343Y657226D02*
X73239Y657224D01*
X73134Y657218D01*
X73030Y657209D01*
X72927Y657196D01*
X72824Y657178D01*
X72722Y657158D01*
X72620Y657133D01*
X72520Y657105D01*
X72420Y657073D01*
X72322Y657037D01*
X72225Y656998D01*
X72130Y656956D01*
X72036Y656910D01*
X71944Y656860D01*
X71854Y656808D01*
X71766Y656752D01*
X71680Y656692D01*
X71596Y656630D01*
X71515Y656565D01*
X71436Y656497D01*
X71359Y656425D01*
X71286Y656352D01*
X71214Y656275D01*
X71146Y656196D01*
X71081Y656115D01*
X71019Y656031D01*
X70959Y655945D01*
X70903Y655857D01*
X70851Y655767D01*
X70801Y655675D01*
X70755Y655581D01*
X70713Y655486D01*
X70674Y655389D01*
X70638Y655291D01*
X70606Y655191D01*
X70578Y655091D01*
X70553Y654989D01*
X70533Y654887D01*
X70515Y654784D01*
X70502Y654681D01*
X70493Y654577D01*
X70487Y654472D01*
X70485Y654368D01*
X70487Y654250D01*
X70493Y654131D01*
X70502Y654013D01*
X70515Y653896D01*
X70533Y653779D01*
X70553Y653662D01*
X70578Y653546D01*
X70606Y653431D01*
X70639Y653318D01*
X70674Y653205D01*
X70714Y653093D01*
X70756Y652983D01*
X70803Y652874D01*
X70853Y652766D01*
X70906Y652661D01*
X70963Y652557D01*
X71023Y652455D01*
X71086Y652355D01*
X71153Y652257D01*
X71222Y652161D01*
X71295Y652068D01*
X71371Y651977D01*
X71449Y651888D01*
X71531Y651802D01*
X71615Y651719D01*
X71701Y651638D01*
X71791Y651561D01*
X71882Y651486D01*
X71976Y651414D01*
X72073Y651345D01*
X72171Y651280D01*
X72272Y651217D01*
X72375Y651158D01*
X72479Y651102D01*
X72585Y651050D01*
X72693Y651001D01*
X72802Y650956D01*
X72913Y650914D01*
X73025Y650876D01*
X75565Y656273D02*
X75490Y656349D01*
X75411Y656424D01*
X75330Y656495D01*
X75246Y656564D01*
X75160Y656629D01*
X75072Y656691D01*
X74982Y656751D01*
X74890Y656807D01*
X74795Y656860D01*
X74699Y656909D01*
X74601Y656955D01*
X74502Y656998D01*
X74401Y657037D01*
X74299Y657072D01*
X74196Y657104D01*
X74092Y657132D01*
X73987Y657157D01*
X73880Y657178D01*
X73774Y657195D01*
X73667Y657208D01*
X73559Y657217D01*
X73451Y657223D01*
X73343Y657225D01*
X75565Y656273D02*
X81915Y650875D01*
X81915Y657225D01*
D11*
X96520Y200660D02*
X6350Y200660D01*
X96520Y200660D02*
X96520Y171450D01*
X96520Y158750D02*
X96520Y120650D01*
X96520Y107950D02*
X96520Y78740D01*
X6350Y78740D02*
X6350Y200660D01*
X6350Y78740D02*
X96520Y78740D01*
X-24130Y173990D02*
X-24130Y200660D01*
X6350Y200660D01*
X6350Y78740D02*
X-24130Y78740D01*
X-24130Y156210D02*
X-11430Y160020D01*
X-24130Y156210D02*
X-24130Y123190D01*
X-11430Y160020D02*
X-11430Y170180D01*
X-24130Y173990D01*
X-24130Y156210D01*
X-11430Y109220D02*
X-24130Y105410D01*
X-24130Y78740D01*
X-11430Y119380D02*
X-24130Y123190D01*
X-24130Y105410D01*
X-11430Y109220D02*
X-11430Y119380D01*
D12*
X70485Y181610D02*
X73025Y178435D01*
X70485Y181610D02*
X81915Y181610D01*
X81915Y178435D02*
X81915Y184785D01*
X73343Y136526D02*
X73239Y136524D01*
X73134Y136518D01*
X73030Y136509D01*
X72927Y136496D01*
X72824Y136478D01*
X72722Y136458D01*
X72620Y136433D01*
X72520Y136405D01*
X72420Y136373D01*
X72322Y136337D01*
X72225Y136298D01*
X72130Y136256D01*
X72036Y136210D01*
X71944Y136160D01*
X71854Y136108D01*
X71766Y136052D01*
X71680Y135992D01*
X71596Y135930D01*
X71515Y135865D01*
X71436Y135797D01*
X71359Y135725D01*
X71286Y135652D01*
X71214Y135575D01*
X71146Y135496D01*
X71081Y135415D01*
X71019Y135331D01*
X70959Y135245D01*
X70903Y135157D01*
X70851Y135067D01*
X70801Y134975D01*
X70755Y134881D01*
X70713Y134786D01*
X70674Y134689D01*
X70638Y134591D01*
X70606Y134491D01*
X70578Y134391D01*
X70553Y134289D01*
X70533Y134187D01*
X70515Y134084D01*
X70502Y133981D01*
X70493Y133877D01*
X70487Y133772D01*
X70485Y133668D01*
X70487Y133550D01*
X70493Y133431D01*
X70502Y133313D01*
X70515Y133196D01*
X70533Y133079D01*
X70553Y132962D01*
X70578Y132846D01*
X70606Y132731D01*
X70639Y132618D01*
X70674Y132505D01*
X70714Y132393D01*
X70756Y132283D01*
X70803Y132174D01*
X70853Y132066D01*
X70906Y131961D01*
X70963Y131857D01*
X71023Y131755D01*
X71086Y131655D01*
X71153Y131557D01*
X71222Y131461D01*
X71295Y131368D01*
X71371Y131277D01*
X71449Y131188D01*
X71531Y131102D01*
X71615Y131019D01*
X71701Y130938D01*
X71791Y130861D01*
X71882Y130786D01*
X71976Y130714D01*
X72073Y130645D01*
X72171Y130580D01*
X72272Y130517D01*
X72375Y130458D01*
X72479Y130402D01*
X72585Y130350D01*
X72693Y130301D01*
X72802Y130256D01*
X72913Y130214D01*
X73025Y130176D01*
X75565Y135573D02*
X75490Y135649D01*
X75411Y135724D01*
X75330Y135795D01*
X75246Y135864D01*
X75160Y135929D01*
X75072Y135991D01*
X74982Y136051D01*
X74890Y136107D01*
X74795Y136160D01*
X74699Y136209D01*
X74601Y136255D01*
X74502Y136298D01*
X74401Y136337D01*
X74299Y136372D01*
X74196Y136404D01*
X74092Y136432D01*
X73987Y136457D01*
X73880Y136478D01*
X73774Y136495D01*
X73667Y136508D01*
X73559Y136517D01*
X73451Y136523D01*
X73343Y136525D01*
X75565Y135573D02*
X81915Y130175D01*
X81915Y136525D01*
D11*
X169554Y237490D02*
X169160Y238003D01*
X168779Y238525D01*
X168410Y239056D01*
X168055Y239595D01*
X167712Y240144D01*
X167383Y240700D01*
X167067Y241264D01*
X166766Y241836D01*
X166478Y242415D01*
X166204Y243000D01*
X165945Y243592D01*
X165700Y244190D01*
X165469Y244794D01*
X165253Y245404D01*
X165052Y246018D01*
X164866Y246637D01*
X164696Y247261D01*
X164540Y247888D01*
X164399Y248519D01*
X164274Y249153D01*
X164164Y249790D01*
X164070Y250430D01*
X163991Y251071D01*
X163928Y251714D01*
X163881Y252359D01*
X163849Y253005D01*
X163832Y253651D01*
X163832Y254297D01*
X163847Y254944D01*
X163877Y255589D01*
X163924Y256234D01*
X163986Y256877D01*
X164063Y257519D01*
X164156Y258159D01*
X164265Y258796D01*
X164389Y259431D01*
X164528Y260062D01*
X164683Y260689D01*
X164852Y261313D01*
X165037Y261933D01*
X165237Y262547D01*
X165451Y263157D01*
X165681Y263762D01*
X165925Y264360D01*
X166183Y264953D01*
X166455Y265539D01*
X166742Y266118D01*
X167043Y266690D01*
X167357Y267255D01*
X167685Y267812D01*
X168027Y268361D01*
X168381Y268902D01*
X168749Y269433D01*
X169129Y269956D01*
X169522Y270469D01*
X169928Y270973D01*
X170345Y271466D01*
X170774Y271950D01*
X171215Y272422D01*
X171667Y272884D01*
X172131Y273335D01*
X172605Y273775D01*
X173089Y274203D01*
X173584Y274619D01*
X174088Y275023D01*
X174603Y275414D01*
X175126Y275793D01*
X175659Y276159D01*
X176201Y276513D01*
X176750Y276852D01*
X177308Y277179D01*
X177874Y277492D01*
X178447Y277791D01*
X179027Y278076D01*
X179614Y278347D01*
X180207Y278604D01*
X180806Y278846D01*
X181411Y279074D01*
X182022Y279287D01*
X182637Y279485D01*
X198368Y279485D02*
X198983Y279286D01*
X199594Y279074D01*
X200199Y278846D01*
X200798Y278604D01*
X201391Y278347D01*
X201978Y278076D01*
X202558Y277791D01*
X203131Y277492D01*
X203697Y277179D01*
X204255Y276852D01*
X204805Y276512D01*
X205346Y276159D01*
X205879Y275793D01*
X206402Y275414D01*
X206917Y275022D01*
X207421Y274619D01*
X207916Y274202D01*
X208401Y273775D01*
X208875Y273335D01*
X209338Y272884D01*
X209790Y272422D01*
X210231Y271949D01*
X210660Y271466D01*
X211077Y270972D01*
X211483Y270469D01*
X211876Y269956D01*
X212256Y269433D01*
X212624Y268901D01*
X212978Y268361D01*
X213320Y267812D01*
X213648Y267255D01*
X213962Y266690D01*
X214263Y266118D01*
X214550Y265539D01*
X214822Y264952D01*
X215081Y264360D01*
X215324Y263761D01*
X215554Y263157D01*
X215768Y262547D01*
X215968Y261932D01*
X216153Y261313D01*
X216323Y260689D01*
X216477Y260061D01*
X216616Y259430D01*
X216740Y258796D01*
X216849Y258158D01*
X216942Y257519D01*
X217019Y256877D01*
X217081Y256234D01*
X217128Y255589D01*
X217158Y254943D01*
X217173Y254297D01*
X217173Y253651D01*
X217156Y253004D01*
X217124Y252359D01*
X217077Y251714D01*
X217014Y251071D01*
X216935Y250429D01*
X216841Y249790D01*
X216731Y249153D01*
X216606Y248518D01*
X216465Y247887D01*
X216309Y247260D01*
X216138Y246637D01*
X215952Y246018D01*
X215751Y245403D01*
X215536Y244794D01*
X215305Y244190D01*
X215060Y243592D01*
X214801Y243000D01*
X214527Y242414D01*
X214239Y241835D01*
X213937Y241264D01*
X213622Y240699D01*
X213293Y240143D01*
X212950Y239595D01*
X212594Y239055D01*
X212226Y238524D01*
X211844Y238002D01*
X211450Y237490D01*
X169550Y237490D01*
X167960Y251460D02*
X163950Y251460D01*
X187640Y251460D02*
X193360Y251460D01*
X213040Y251460D02*
X217050Y251460D01*
D12*
X222885Y264160D02*
X222885Y269240D01*
X222887Y269351D01*
X222893Y269461D01*
X222902Y269572D01*
X222916Y269682D01*
X222933Y269791D01*
X222954Y269900D01*
X222979Y270008D01*
X223008Y270115D01*
X223040Y270221D01*
X223076Y270326D01*
X223116Y270429D01*
X223159Y270531D01*
X223206Y270632D01*
X223257Y270731D01*
X223310Y270828D01*
X223367Y270922D01*
X223428Y271015D01*
X223491Y271106D01*
X223558Y271195D01*
X223628Y271281D01*
X223701Y271364D01*
X223776Y271446D01*
X223854Y271524D01*
X223936Y271599D01*
X224019Y271672D01*
X224105Y271742D01*
X224194Y271809D01*
X224285Y271872D01*
X224378Y271933D01*
X224473Y271990D01*
X224569Y272043D01*
X224668Y272094D01*
X224769Y272141D01*
X224871Y272184D01*
X224974Y272224D01*
X225079Y272260D01*
X225185Y272292D01*
X225292Y272321D01*
X225400Y272346D01*
X225509Y272367D01*
X225618Y272384D01*
X225728Y272398D01*
X225839Y272407D01*
X225949Y272413D01*
X226060Y272415D01*
X226171Y272413D01*
X226281Y272407D01*
X226392Y272398D01*
X226502Y272384D01*
X226611Y272367D01*
X226720Y272346D01*
X226828Y272321D01*
X226935Y272292D01*
X227041Y272260D01*
X227146Y272224D01*
X227249Y272184D01*
X227351Y272141D01*
X227452Y272094D01*
X227551Y272043D01*
X227648Y271990D01*
X227742Y271933D01*
X227835Y271872D01*
X227926Y271809D01*
X228015Y271742D01*
X228101Y271672D01*
X228184Y271599D01*
X228266Y271524D01*
X228344Y271446D01*
X228419Y271364D01*
X228492Y271281D01*
X228562Y271195D01*
X228629Y271106D01*
X228692Y271015D01*
X228753Y270922D01*
X228810Y270828D01*
X228863Y270731D01*
X228914Y270632D01*
X228961Y270531D01*
X229004Y270429D01*
X229044Y270326D01*
X229080Y270221D01*
X229112Y270115D01*
X229141Y270008D01*
X229166Y269900D01*
X229187Y269791D01*
X229204Y269682D01*
X229218Y269572D01*
X229227Y269461D01*
X229233Y269351D01*
X229235Y269240D01*
X229235Y264160D01*
X229233Y264049D01*
X229227Y263939D01*
X229218Y263828D01*
X229204Y263718D01*
X229187Y263609D01*
X229166Y263500D01*
X229141Y263392D01*
X229112Y263285D01*
X229080Y263179D01*
X229044Y263074D01*
X229004Y262971D01*
X228961Y262869D01*
X228914Y262768D01*
X228863Y262669D01*
X228810Y262572D01*
X228753Y262478D01*
X228692Y262385D01*
X228629Y262294D01*
X228562Y262205D01*
X228492Y262119D01*
X228419Y262036D01*
X228344Y261954D01*
X228266Y261876D01*
X228184Y261801D01*
X228101Y261728D01*
X228015Y261658D01*
X227926Y261591D01*
X227835Y261528D01*
X227742Y261467D01*
X227647Y261410D01*
X227551Y261357D01*
X227452Y261306D01*
X227351Y261259D01*
X227249Y261216D01*
X227146Y261176D01*
X227041Y261140D01*
X226935Y261108D01*
X226828Y261079D01*
X226720Y261054D01*
X226611Y261033D01*
X226502Y261016D01*
X226392Y261002D01*
X226281Y260993D01*
X226171Y260987D01*
X226060Y260985D01*
X225949Y260987D01*
X225839Y260993D01*
X225728Y261002D01*
X225618Y261016D01*
X225509Y261033D01*
X225400Y261054D01*
X225292Y261079D01*
X225185Y261108D01*
X225079Y261140D01*
X224974Y261176D01*
X224871Y261216D01*
X224769Y261259D01*
X224668Y261306D01*
X224569Y261357D01*
X224473Y261410D01*
X224378Y261467D01*
X224285Y261528D01*
X224194Y261591D01*
X224105Y261658D01*
X224019Y261728D01*
X223936Y261801D01*
X223854Y261876D01*
X223776Y261954D01*
X223701Y262036D01*
X223628Y262119D01*
X223558Y262205D01*
X223491Y262294D01*
X223428Y262385D01*
X223367Y262478D01*
X223310Y262573D01*
X223257Y262669D01*
X223206Y262768D01*
X223159Y262869D01*
X223116Y262971D01*
X223076Y263074D01*
X223040Y263179D01*
X223008Y263285D01*
X222979Y263392D01*
X222954Y263500D01*
X222933Y263609D01*
X222916Y263718D01*
X222902Y263828D01*
X222893Y263939D01*
X222887Y264049D01*
X222885Y264160D01*
X227965Y263525D02*
X230505Y260985D01*
X233946Y269875D02*
X237121Y272415D01*
X237121Y260985D01*
X233946Y260985D02*
X240296Y260985D01*
D11*
X248920Y292100D02*
X248922Y292200D01*
X248928Y292299D01*
X248938Y292399D01*
X248951Y292497D01*
X248969Y292596D01*
X248990Y292693D01*
X249015Y292789D01*
X249044Y292885D01*
X249077Y292979D01*
X249113Y293072D01*
X249153Y293163D01*
X249197Y293253D01*
X249244Y293341D01*
X249294Y293427D01*
X249348Y293511D01*
X249405Y293593D01*
X249465Y293672D01*
X249529Y293750D01*
X249595Y293824D01*
X249664Y293896D01*
X249736Y293965D01*
X249810Y294031D01*
X249888Y294095D01*
X249967Y294155D01*
X250049Y294212D01*
X250133Y294266D01*
X250219Y294316D01*
X250307Y294363D01*
X250397Y294407D01*
X250488Y294447D01*
X250581Y294483D01*
X250675Y294516D01*
X250771Y294545D01*
X250867Y294570D01*
X250964Y294591D01*
X251063Y294609D01*
X251161Y294622D01*
X251261Y294632D01*
X251360Y294638D01*
X251460Y294640D01*
X248920Y266700D02*
X248922Y266600D01*
X248928Y266501D01*
X248938Y266401D01*
X248951Y266303D01*
X248969Y266204D01*
X248990Y266107D01*
X249015Y266011D01*
X249044Y265915D01*
X249077Y265821D01*
X249113Y265728D01*
X249153Y265637D01*
X249197Y265547D01*
X249244Y265459D01*
X249294Y265373D01*
X249348Y265289D01*
X249405Y265207D01*
X249465Y265128D01*
X249529Y265050D01*
X249595Y264976D01*
X249664Y264904D01*
X249736Y264835D01*
X249810Y264769D01*
X249888Y264705D01*
X249967Y264645D01*
X250049Y264588D01*
X250133Y264534D01*
X250219Y264484D01*
X250307Y264437D01*
X250397Y264393D01*
X250488Y264353D01*
X250581Y264317D01*
X250675Y264284D01*
X250771Y264255D01*
X250867Y264230D01*
X250964Y264209D01*
X251063Y264191D01*
X251161Y264178D01*
X251261Y264168D01*
X251360Y264162D01*
X251460Y264160D01*
X332740Y264160D02*
X332840Y264162D01*
X332939Y264168D01*
X333039Y264178D01*
X333137Y264191D01*
X333236Y264209D01*
X333333Y264230D01*
X333429Y264255D01*
X333525Y264284D01*
X333619Y264317D01*
X333712Y264353D01*
X333803Y264393D01*
X333893Y264437D01*
X333981Y264484D01*
X334067Y264534D01*
X334151Y264588D01*
X334233Y264645D01*
X334312Y264705D01*
X334390Y264769D01*
X334464Y264835D01*
X334536Y264904D01*
X334605Y264976D01*
X334671Y265050D01*
X334735Y265128D01*
X334795Y265207D01*
X334852Y265289D01*
X334906Y265373D01*
X334956Y265459D01*
X335003Y265547D01*
X335047Y265637D01*
X335087Y265728D01*
X335123Y265821D01*
X335156Y265915D01*
X335185Y266011D01*
X335210Y266107D01*
X335231Y266204D01*
X335249Y266303D01*
X335262Y266401D01*
X335272Y266501D01*
X335278Y266600D01*
X335280Y266700D01*
X335280Y292100D02*
X335278Y292200D01*
X335272Y292299D01*
X335262Y292399D01*
X335249Y292497D01*
X335231Y292596D01*
X335210Y292693D01*
X335185Y292789D01*
X335156Y292885D01*
X335123Y292979D01*
X335087Y293072D01*
X335047Y293163D01*
X335003Y293253D01*
X334956Y293341D01*
X334906Y293427D01*
X334852Y293511D01*
X334795Y293593D01*
X334735Y293672D01*
X334671Y293750D01*
X334605Y293824D01*
X334536Y293896D01*
X334464Y293965D01*
X334390Y294031D01*
X334312Y294095D01*
X334233Y294155D01*
X334151Y294212D01*
X334067Y294266D01*
X333981Y294316D01*
X333893Y294363D01*
X333803Y294407D01*
X333712Y294447D01*
X333619Y294483D01*
X333525Y294516D01*
X333429Y294545D01*
X333333Y294570D01*
X333236Y294591D01*
X333137Y294609D01*
X333039Y294622D01*
X332939Y294632D01*
X332840Y294638D01*
X332740Y294640D01*
X257810Y294640D02*
X251460Y294640D01*
X257810Y294640D02*
X259080Y293370D01*
X257810Y264160D02*
X251460Y264160D01*
X257810Y264160D02*
X259080Y265430D01*
X325120Y293370D02*
X326390Y294640D01*
X325120Y293370D02*
X259080Y293370D01*
X325120Y265430D02*
X326390Y264160D01*
X325120Y265430D02*
X259080Y265430D01*
X326390Y294640D02*
X332740Y294640D01*
X332740Y264160D02*
X326390Y264160D01*
D12*
X250825Y299085D02*
X250825Y310515D01*
X254000Y310515D01*
X254111Y310513D01*
X254221Y310507D01*
X254332Y310498D01*
X254442Y310484D01*
X254551Y310467D01*
X254660Y310446D01*
X254768Y310421D01*
X254875Y310392D01*
X254981Y310360D01*
X255086Y310324D01*
X255189Y310284D01*
X255291Y310241D01*
X255392Y310194D01*
X255491Y310143D01*
X255588Y310090D01*
X255682Y310033D01*
X255775Y309972D01*
X255866Y309909D01*
X255955Y309842D01*
X256041Y309772D01*
X256124Y309699D01*
X256206Y309624D01*
X256284Y309546D01*
X256359Y309464D01*
X256432Y309381D01*
X256502Y309295D01*
X256569Y309206D01*
X256632Y309115D01*
X256693Y309022D01*
X256750Y308927D01*
X256803Y308831D01*
X256854Y308732D01*
X256901Y308631D01*
X256944Y308529D01*
X256984Y308426D01*
X257020Y308321D01*
X257052Y308215D01*
X257081Y308108D01*
X257106Y308000D01*
X257127Y307891D01*
X257144Y307782D01*
X257158Y307672D01*
X257167Y307561D01*
X257173Y307451D01*
X257175Y307340D01*
X257173Y307229D01*
X257167Y307119D01*
X257158Y307008D01*
X257144Y306898D01*
X257127Y306789D01*
X257106Y306680D01*
X257081Y306572D01*
X257052Y306465D01*
X257020Y306359D01*
X256984Y306254D01*
X256944Y306151D01*
X256901Y306049D01*
X256854Y305948D01*
X256803Y305849D01*
X256750Y305752D01*
X256693Y305658D01*
X256632Y305565D01*
X256569Y305474D01*
X256502Y305385D01*
X256432Y305299D01*
X256359Y305216D01*
X256284Y305134D01*
X256206Y305056D01*
X256124Y304981D01*
X256041Y304908D01*
X255955Y304838D01*
X255866Y304771D01*
X255775Y304708D01*
X255682Y304647D01*
X255587Y304590D01*
X255491Y304537D01*
X255392Y304486D01*
X255291Y304439D01*
X255189Y304396D01*
X255086Y304356D01*
X254981Y304320D01*
X254875Y304288D01*
X254768Y304259D01*
X254660Y304234D01*
X254551Y304213D01*
X254442Y304196D01*
X254332Y304182D01*
X254221Y304173D01*
X254111Y304167D01*
X254000Y304165D01*
X250825Y304165D01*
X254635Y304165D02*
X257175Y299085D01*
X262172Y307975D02*
X265347Y310515D01*
X265347Y299085D01*
X262172Y299085D02*
X268522Y299085D01*
D10*
X324700Y213500D02*
X324700Y63500D01*
X139700Y63500D01*
X139700Y213500D01*
X324700Y213500D01*
D13*
X216154Y158242D02*
X216154Y154206D01*
X216156Y154129D01*
X216162Y154051D01*
X216171Y153975D01*
X216185Y153898D01*
X216202Y153823D01*
X216223Y153749D01*
X216248Y153675D01*
X216276Y153603D01*
X216308Y153533D01*
X216343Y153464D01*
X216382Y153397D01*
X216424Y153332D01*
X216469Y153269D01*
X216517Y153208D01*
X216568Y153150D01*
X216622Y153095D01*
X216679Y153042D01*
X216738Y152993D01*
X216800Y152946D01*
X216864Y152902D01*
X216930Y152862D01*
X216998Y152825D01*
X217068Y152791D01*
X217139Y152761D01*
X217212Y152735D01*
X217286Y152712D01*
X217361Y152693D01*
X217436Y152678D01*
X217513Y152666D01*
X217590Y152658D01*
X217667Y152654D01*
X217745Y152654D01*
X217822Y152658D01*
X217899Y152666D01*
X217976Y152678D01*
X218051Y152693D01*
X218126Y152712D01*
X218200Y152735D01*
X218273Y152761D01*
X218344Y152791D01*
X218414Y152825D01*
X218482Y152862D01*
X218548Y152902D01*
X218612Y152946D01*
X218674Y152993D01*
X218733Y153042D01*
X218790Y153095D01*
X218844Y153150D01*
X218895Y153208D01*
X218943Y153269D01*
X218988Y153332D01*
X219030Y153397D01*
X219069Y153464D01*
X219104Y153533D01*
X219136Y153603D01*
X219164Y153675D01*
X219189Y153749D01*
X219210Y153823D01*
X219227Y153898D01*
X219241Y153975D01*
X219250Y154051D01*
X219256Y154129D01*
X219258Y154206D01*
X219258Y158242D01*
X223010Y158242D02*
X223010Y152654D01*
X223010Y155448D02*
X222234Y155914D01*
X222183Y155947D01*
X222134Y155983D01*
X222088Y156022D01*
X222045Y156065D01*
X222004Y156109D01*
X221966Y156157D01*
X221932Y156207D01*
X221901Y156259D01*
X221873Y156313D01*
X221849Y156368D01*
X221828Y156426D01*
X221812Y156484D01*
X221799Y156543D01*
X221790Y156603D01*
X221785Y156663D01*
X221784Y156724D01*
X221787Y156785D01*
X221794Y156845D01*
X221805Y156905D01*
X221820Y156963D01*
X221838Y157021D01*
X221860Y157078D01*
X221886Y157132D01*
X221916Y157185D01*
X221949Y157236D01*
X221985Y157285D01*
X222024Y157331D01*
X222066Y157375D01*
X222111Y157416D01*
X222158Y157453D01*
X222208Y157488D01*
X222260Y157519D01*
X222314Y157547D01*
X222370Y157571D01*
X222427Y157591D01*
X222485Y157608D01*
X222544Y157621D01*
X222641Y157637D01*
X222739Y157649D01*
X222837Y157656D01*
X222936Y157660D01*
X223034Y157661D01*
X223133Y157657D01*
X223231Y157649D01*
X223329Y157637D01*
X223426Y157621D01*
X223522Y157602D01*
X223618Y157578D01*
X223713Y157551D01*
X223806Y157520D01*
X223898Y157485D01*
X223989Y157447D01*
X224078Y157405D01*
X224166Y157360D01*
X224251Y157311D01*
X223010Y155448D02*
X223786Y154982D01*
X223837Y154949D01*
X223886Y154913D01*
X223932Y154874D01*
X223975Y154831D01*
X224016Y154787D01*
X224054Y154739D01*
X224088Y154689D01*
X224119Y154637D01*
X224147Y154583D01*
X224171Y154528D01*
X224192Y154470D01*
X224208Y154412D01*
X224221Y154353D01*
X224230Y154293D01*
X224235Y154233D01*
X224236Y154172D01*
X224233Y154111D01*
X224226Y154051D01*
X224215Y153991D01*
X224200Y153933D01*
X224182Y153875D01*
X224160Y153818D01*
X224134Y153764D01*
X224104Y153711D01*
X224071Y153660D01*
X224035Y153611D01*
X223996Y153565D01*
X223954Y153521D01*
X223909Y153480D01*
X223862Y153443D01*
X223812Y153408D01*
X223760Y153377D01*
X223706Y153349D01*
X223650Y153325D01*
X223593Y153305D01*
X223535Y153288D01*
X223476Y153275D01*
X223475Y153275D02*
X223378Y153259D01*
X223280Y153247D01*
X223182Y153240D01*
X223083Y153236D01*
X222985Y153235D01*
X222886Y153239D01*
X222788Y153247D01*
X222690Y153259D01*
X222593Y153275D01*
X222497Y153294D01*
X222401Y153318D01*
X222306Y153345D01*
X222213Y153376D01*
X222121Y153411D01*
X222030Y153449D01*
X221941Y153491D01*
X221853Y153536D01*
X221768Y153585D01*
X226578Y152654D02*
X228441Y152654D01*
X228511Y152656D01*
X228580Y152662D01*
X228649Y152672D01*
X228717Y152685D01*
X228785Y152703D01*
X228851Y152724D01*
X228916Y152749D01*
X228980Y152777D01*
X229042Y152809D01*
X229102Y152844D01*
X229160Y152883D01*
X229215Y152925D01*
X229269Y152970D01*
X229319Y153018D01*
X229367Y153068D01*
X229412Y153122D01*
X229454Y153177D01*
X229493Y153235D01*
X229528Y153295D01*
X229560Y153357D01*
X229588Y153421D01*
X229613Y153486D01*
X229634Y153552D01*
X229652Y153620D01*
X229665Y153688D01*
X229675Y153757D01*
X229681Y153826D01*
X229683Y153896D01*
X229683Y154517D01*
X229681Y154587D01*
X229675Y154656D01*
X229665Y154725D01*
X229652Y154793D01*
X229634Y154861D01*
X229613Y154927D01*
X229588Y154992D01*
X229560Y155056D01*
X229528Y155118D01*
X229493Y155178D01*
X229454Y155236D01*
X229412Y155291D01*
X229367Y155345D01*
X229319Y155395D01*
X229269Y155443D01*
X229215Y155488D01*
X229160Y155530D01*
X229102Y155569D01*
X229042Y155604D01*
X228980Y155636D01*
X228916Y155664D01*
X228851Y155689D01*
X228785Y155710D01*
X228717Y155728D01*
X228649Y155741D01*
X228580Y155751D01*
X228511Y155757D01*
X228441Y155759D01*
X228441Y155758D02*
X226578Y155758D01*
X226578Y158242D01*
X229683Y158242D01*
D11*
X101600Y160020D02*
X101600Y119380D01*
X127000Y119380D01*
X127000Y160020D01*
X101600Y160020D01*
X114300Y146050D02*
X114300Y139700D01*
X120650Y129540D02*
X107950Y129540D01*
X114300Y139700D01*
X114300Y124460D01*
X120650Y129540D02*
X114300Y139700D01*
X120650Y139700D01*
X114300Y139700D02*
X107950Y139700D01*
D24*
X114300Y153670D03*
D25*
X114300Y109855D03*
X114300Y169545D03*
D12*
X131445Y141224D02*
X142875Y141224D01*
X131445Y141224D02*
X131445Y144399D01*
X131447Y144510D01*
X131453Y144620D01*
X131462Y144731D01*
X131476Y144841D01*
X131493Y144950D01*
X131514Y145059D01*
X131539Y145167D01*
X131568Y145274D01*
X131600Y145380D01*
X131636Y145485D01*
X131676Y145588D01*
X131719Y145690D01*
X131766Y145791D01*
X131817Y145890D01*
X131870Y145987D01*
X131927Y146081D01*
X131988Y146174D01*
X132051Y146265D01*
X132118Y146354D01*
X132188Y146440D01*
X132261Y146523D01*
X132336Y146605D01*
X132414Y146683D01*
X132496Y146758D01*
X132579Y146831D01*
X132665Y146901D01*
X132754Y146968D01*
X132845Y147031D01*
X132938Y147092D01*
X133033Y147149D01*
X133129Y147202D01*
X133228Y147253D01*
X133329Y147300D01*
X133431Y147343D01*
X133534Y147383D01*
X133639Y147419D01*
X133745Y147451D01*
X133852Y147480D01*
X133960Y147505D01*
X134069Y147526D01*
X134178Y147543D01*
X134288Y147557D01*
X134399Y147566D01*
X134509Y147572D01*
X134620Y147574D01*
X139700Y147574D01*
X139811Y147572D01*
X139921Y147566D01*
X140032Y147557D01*
X140142Y147543D01*
X140251Y147526D01*
X140360Y147505D01*
X140468Y147480D01*
X140575Y147451D01*
X140681Y147419D01*
X140786Y147383D01*
X140889Y147343D01*
X140991Y147300D01*
X141092Y147253D01*
X141191Y147202D01*
X141288Y147149D01*
X141382Y147092D01*
X141475Y147031D01*
X141566Y146968D01*
X141655Y146901D01*
X141741Y146831D01*
X141824Y146758D01*
X141906Y146683D01*
X141984Y146605D01*
X142059Y146523D01*
X142132Y146440D01*
X142202Y146354D01*
X142269Y146265D01*
X142332Y146174D01*
X142393Y146081D01*
X142450Y145987D01*
X142503Y145890D01*
X142554Y145791D01*
X142601Y145690D01*
X142644Y145588D01*
X142684Y145485D01*
X142720Y145380D01*
X142752Y145274D01*
X142781Y145167D01*
X142806Y145059D01*
X142827Y144950D01*
X142844Y144841D01*
X142858Y144731D01*
X142867Y144620D01*
X142873Y144510D01*
X142875Y144399D01*
X142875Y141224D01*
X133985Y153035D02*
X131445Y156210D01*
X142875Y156210D01*
X142875Y153035D02*
X142875Y159385D01*
M02*
