M48
;GenerationSoftware,Autodesk,EAGLE,9.4.2*%
;CreationDate,2019-08-01T16:17:45Z*%
FMAT,2
ICI,OFF
METRIC,TZ,000.000
T10C0.350
T9C0.800
T8C0.813
T7C0.900
T6C0.914
T5C1.016
T4C1.118
T3C1.321
T2C1.397
T1C3.500
%
G90
M71
T1
X67310Y96520
X3810Y96520
X3810Y3810
X67310Y3810
T2
X11430Y7620
X33020Y7620
X16510Y7620
X43180Y7620
X38100Y7620
T3
X2718Y68580
X2718Y17780
X25222Y17780
X25222Y68580
T4
X31750Y31750
X34290Y31750
X36830Y31750
X39370Y31750
X41910Y31750
X29210Y31750
X55880Y13970
X55880Y24130
T5
X31191Y81559
X24689Y81559
X31191Y86081
X24689Y86081
T6
X29210Y44450
X29210Y49530
X29210Y46990
T7
X48030Y17900
X34030Y11900
X46030Y23900
X34030Y23900
X46030Y11900
T8
X58420Y48260
X58420Y38100
X50800Y3810
X63500Y7620
X63500Y17780
X67310Y17780
X67310Y7620
X67310Y20320
X67310Y30480
X63500Y30480
X63500Y20320
X63500Y33020
X63500Y43180
X67310Y43180
X67310Y33020
X68580Y45720
X63500Y45720
X52070Y25400
X52070Y15240
X45720Y27940
X35560Y27940
X49530Y29210
X54610Y29210
X45720Y30480
X45720Y35560
X39370Y93980
X39370Y91440
X39370Y88900
X39370Y86360
X39370Y83820
X39370Y81280
X39370Y78740
X39370Y76200
X39370Y73660
X39370Y71120
X39370Y68580
X39370Y66040
X39370Y63500
X39370Y60960
X39370Y58420
X39370Y55880
X39370Y53340
X39370Y50800
X39370Y48260
X39370Y45720
X54610Y45720
X54610Y48260
X54610Y50800
X54610Y53340
X54610Y55880
X54610Y58420
X54610Y60960
X54610Y63500
X54610Y66040
X54610Y68580
X54610Y71120
X54610Y73660
X54610Y76200
X54610Y78740
X54610Y81280
X54610Y83820
X54610Y86360
X54610Y88900
X54610Y91440
X54610Y93980
X30480Y62357
X30480Y67183
X29210Y74930
X29210Y72390
X29210Y53975
X29210Y56515
X29210Y39370
X39370Y39370
X31750Y72390
X31750Y74930
X41910Y36830
X41910Y39370
X17780Y77470
X20320Y77470
X20320Y95250
X60960Y3810
X58420Y10160
X57150Y12065
X55880Y10160
X30480Y91440
X20320Y91440
X15240Y90170
X17780Y90170
X15240Y96520
X17780Y96520
X30480Y95250
T9
X13700Y81280
X11700Y81280
X9700Y81280
X7700Y81280
X5700Y81280
X11000Y26330
X16900Y26330
X22900Y59930
X19700Y81280
X17700Y81280
X4900Y59930
X15700Y81280
T10
X35560Y68580
X29210Y78105
X41950Y27980
X6350Y83820
X10160Y84455
M30