G04 EAGLE Gerber RS-274X export*
G75*
%MOMM*%
%FSLAX34Y34*%
%LPD*%
%INSoldermask Top*%
%IPPOS*%
%AMOC8*
5,1,8,0,0,1.08239X$1,22.5*%
G01*
%ADD10C,3.703200*%
%ADD11P,1.951982X8X292.500000*%
%ADD12C,1.803400*%
%ADD13C,2.743200*%
%ADD14P,1.649562X8X292.500000*%
%ADD15P,1.649562X8X112.500000*%
%ADD16C,2.082800*%
%ADD17C,1.625600*%
%ADD18C,1.511200*%
%ADD19C,1.511200*%
%ADD20R,1.511200X1.511200*%
%ADD21C,1.524000*%
%ADD22P,1.649562X8X202.500000*%
%ADD23P,1.649562X8X22.500000*%
%ADD24C,2.298700*%
%ADD25C,1.625600*%
%ADD26C,1.611200*%

G36*
X178349Y667323D02*
X178349Y667323D01*
X178397Y667337D01*
X178487Y667355D01*
X179396Y667676D01*
X179440Y667701D01*
X179524Y667738D01*
X180339Y668253D01*
X180376Y668287D01*
X180449Y668342D01*
X181129Y669026D01*
X181158Y669067D01*
X181217Y669137D01*
X181728Y669955D01*
X181746Y670002D01*
X181789Y670083D01*
X182104Y670994D01*
X182112Y671044D01*
X182136Y671133D01*
X182241Y672091D01*
X182238Y672121D01*
X182244Y672160D01*
X182244Y672261D01*
X182239Y672289D01*
X182241Y672325D01*
X182142Y673298D01*
X182129Y673347D01*
X182112Y673437D01*
X181800Y674364D01*
X181775Y674408D01*
X181740Y674493D01*
X181229Y675327D01*
X181195Y675365D01*
X181141Y675439D01*
X180457Y676139D01*
X180416Y676168D01*
X180347Y676228D01*
X179525Y676758D01*
X179478Y676778D01*
X179398Y676822D01*
X178478Y677155D01*
X178429Y677164D01*
X178340Y677189D01*
X177369Y677309D01*
X177359Y677309D01*
X177347Y677312D01*
X177044Y677339D01*
X176994Y677334D01*
X176895Y677334D01*
X175938Y677192D01*
X175890Y677176D01*
X175800Y677156D01*
X174898Y676804D01*
X174855Y676778D01*
X174773Y676738D01*
X173972Y676195D01*
X173936Y676159D01*
X173864Y676102D01*
X173204Y675394D01*
X173177Y675352D01*
X173120Y675280D01*
X172634Y674443D01*
X172617Y674395D01*
X172577Y674312D01*
X172290Y673388D01*
X172284Y673338D01*
X172263Y673248D01*
X172197Y672383D01*
X172195Y672375D01*
X172195Y672357D01*
X172192Y672316D01*
X172188Y672287D01*
X172188Y672235D01*
X172193Y672208D01*
X172296Y671241D01*
X172310Y671193D01*
X172327Y671102D01*
X172646Y670172D01*
X172671Y670128D01*
X172707Y670043D01*
X173226Y669207D01*
X173259Y669170D01*
X173314Y669096D01*
X174005Y668396D01*
X174047Y668367D01*
X174116Y668306D01*
X174946Y667778D01*
X174993Y667759D01*
X175074Y667716D01*
X176001Y667385D01*
X176051Y667377D01*
X176139Y667353D01*
X177092Y667240D01*
X177196Y667220D01*
X177200Y667220D01*
X177203Y667218D01*
X177391Y667212D01*
X178349Y667323D01*
G37*
G36*
X113325Y667298D02*
X113325Y667298D01*
X113373Y667312D01*
X113463Y667330D01*
X114372Y667651D01*
X114416Y667676D01*
X114500Y667713D01*
X115315Y668228D01*
X115352Y668262D01*
X115425Y668317D01*
X116105Y669001D01*
X116134Y669042D01*
X116193Y669112D01*
X116704Y669930D01*
X116722Y669977D01*
X116765Y670058D01*
X117080Y670969D01*
X117088Y671019D01*
X117112Y671108D01*
X117217Y672066D01*
X117214Y672096D01*
X117220Y672135D01*
X117220Y672236D01*
X117215Y672264D01*
X117217Y672300D01*
X117118Y673273D01*
X117105Y673322D01*
X117088Y673412D01*
X116776Y674339D01*
X116751Y674383D01*
X116716Y674468D01*
X116205Y675302D01*
X116171Y675340D01*
X116117Y675414D01*
X115433Y676114D01*
X115392Y676143D01*
X115323Y676203D01*
X114501Y676733D01*
X114454Y676753D01*
X114374Y676797D01*
X113454Y677130D01*
X113405Y677139D01*
X113316Y677164D01*
X112345Y677284D01*
X112335Y677284D01*
X112323Y677287D01*
X112020Y677314D01*
X111970Y677309D01*
X111871Y677309D01*
X110914Y677167D01*
X110866Y677151D01*
X110776Y677131D01*
X109874Y676779D01*
X109831Y676753D01*
X109749Y676713D01*
X108948Y676170D01*
X108912Y676134D01*
X108840Y676077D01*
X108180Y675369D01*
X108153Y675327D01*
X108096Y675255D01*
X107610Y674418D01*
X107593Y674370D01*
X107553Y674287D01*
X107266Y673363D01*
X107260Y673313D01*
X107239Y673223D01*
X107173Y672358D01*
X107171Y672350D01*
X107171Y672332D01*
X107168Y672291D01*
X107164Y672262D01*
X107164Y672210D01*
X107169Y672183D01*
X107272Y671216D01*
X107286Y671168D01*
X107303Y671077D01*
X107622Y670147D01*
X107647Y670103D01*
X107683Y670018D01*
X108202Y669182D01*
X108235Y669145D01*
X108290Y669071D01*
X108981Y668371D01*
X109023Y668342D01*
X109092Y668281D01*
X109922Y667753D01*
X109969Y667734D01*
X110050Y667691D01*
X110977Y667360D01*
X111027Y667352D01*
X111115Y667328D01*
X112068Y667215D01*
X112172Y667195D01*
X112176Y667195D01*
X112179Y667193D01*
X112367Y667187D01*
X113325Y667298D01*
G37*
G36*
X113325Y622060D02*
X113325Y622060D01*
X113373Y622074D01*
X113463Y622092D01*
X114372Y622413D01*
X114416Y622438D01*
X114500Y622475D01*
X115315Y622990D01*
X115352Y623024D01*
X115425Y623079D01*
X116105Y623763D01*
X116134Y623804D01*
X116193Y623874D01*
X116704Y624692D01*
X116722Y624739D01*
X116765Y624820D01*
X117080Y625731D01*
X117088Y625781D01*
X117112Y625870D01*
X117217Y626828D01*
X117214Y626858D01*
X117220Y626897D01*
X117220Y626998D01*
X117215Y627026D01*
X117217Y627062D01*
X117118Y628035D01*
X117105Y628084D01*
X117088Y628174D01*
X116776Y629101D01*
X116751Y629145D01*
X116716Y629230D01*
X116205Y630064D01*
X116171Y630102D01*
X116117Y630176D01*
X115433Y630876D01*
X115392Y630905D01*
X115323Y630965D01*
X114501Y631495D01*
X114454Y631515D01*
X114374Y631559D01*
X113454Y631892D01*
X113405Y631901D01*
X113316Y631926D01*
X112345Y632046D01*
X112335Y632046D01*
X112323Y632049D01*
X112020Y632076D01*
X111970Y632071D01*
X111871Y632071D01*
X110914Y631929D01*
X110866Y631913D01*
X110776Y631893D01*
X109874Y631541D01*
X109831Y631515D01*
X109749Y631475D01*
X108948Y630932D01*
X108912Y630896D01*
X108840Y630839D01*
X108180Y630131D01*
X108153Y630089D01*
X108096Y630017D01*
X107610Y629180D01*
X107593Y629132D01*
X107553Y629049D01*
X107266Y628125D01*
X107260Y628075D01*
X107239Y627985D01*
X107173Y627120D01*
X107171Y627112D01*
X107171Y627094D01*
X107168Y627053D01*
X107164Y627024D01*
X107164Y626972D01*
X107169Y626945D01*
X107272Y625978D01*
X107286Y625930D01*
X107303Y625839D01*
X107622Y624909D01*
X107647Y624865D01*
X107683Y624780D01*
X108202Y623944D01*
X108235Y623907D01*
X108290Y623833D01*
X108981Y623133D01*
X109023Y623104D01*
X109092Y623043D01*
X109922Y622515D01*
X109969Y622496D01*
X110050Y622453D01*
X110977Y622122D01*
X111027Y622114D01*
X111115Y622090D01*
X112068Y621977D01*
X112172Y621957D01*
X112176Y621957D01*
X112179Y621955D01*
X112367Y621949D01*
X113325Y622060D01*
G37*
G36*
X178400Y622035D02*
X178400Y622035D01*
X178448Y622049D01*
X178538Y622067D01*
X179447Y622388D01*
X179491Y622413D01*
X179575Y622450D01*
X180390Y622965D01*
X180427Y622999D01*
X180500Y623054D01*
X181180Y623738D01*
X181209Y623779D01*
X181268Y623849D01*
X181779Y624667D01*
X181797Y624714D01*
X181840Y624795D01*
X182155Y625706D01*
X182163Y625756D01*
X182187Y625845D01*
X182292Y626803D01*
X182289Y626833D01*
X182295Y626872D01*
X182295Y626973D01*
X182290Y627001D01*
X182292Y627037D01*
X182193Y628010D01*
X182180Y628059D01*
X182163Y628149D01*
X181851Y629076D01*
X181826Y629120D01*
X181791Y629205D01*
X181280Y630039D01*
X181246Y630077D01*
X181192Y630151D01*
X180508Y630851D01*
X180467Y630880D01*
X180398Y630940D01*
X179576Y631470D01*
X179529Y631490D01*
X179449Y631534D01*
X178529Y631867D01*
X178480Y631876D01*
X178391Y631901D01*
X177420Y632021D01*
X177410Y632021D01*
X177398Y632024D01*
X177095Y632051D01*
X177045Y632046D01*
X176946Y632046D01*
X175989Y631904D01*
X175941Y631888D01*
X175851Y631868D01*
X174949Y631516D01*
X174906Y631490D01*
X174824Y631450D01*
X174023Y630907D01*
X173987Y630871D01*
X173915Y630814D01*
X173255Y630106D01*
X173228Y630064D01*
X173171Y629992D01*
X172685Y629155D01*
X172668Y629107D01*
X172628Y629024D01*
X172341Y628100D01*
X172335Y628050D01*
X172314Y627960D01*
X172248Y627095D01*
X172246Y627087D01*
X172246Y627069D01*
X172243Y627028D01*
X172239Y626999D01*
X172239Y626947D01*
X172244Y626920D01*
X172347Y625953D01*
X172361Y625905D01*
X172378Y625814D01*
X172697Y624884D01*
X172722Y624840D01*
X172758Y624755D01*
X173277Y623919D01*
X173310Y623882D01*
X173365Y623808D01*
X174056Y623108D01*
X174098Y623079D01*
X174167Y623018D01*
X174997Y622490D01*
X175044Y622471D01*
X175125Y622428D01*
X176052Y622097D01*
X176102Y622089D01*
X176190Y622065D01*
X177143Y621952D01*
X177247Y621932D01*
X177251Y621932D01*
X177254Y621930D01*
X177442Y621924D01*
X178400Y622035D01*
G37*
G36*
X198034Y412053D02*
X198034Y412053D01*
X198082Y412067D01*
X198172Y412085D01*
X199081Y412406D01*
X199125Y412431D01*
X199209Y412468D01*
X200024Y412983D01*
X200061Y413017D01*
X200134Y413072D01*
X200814Y413756D01*
X200843Y413797D01*
X200902Y413867D01*
X201413Y414685D01*
X201431Y414732D01*
X201474Y414813D01*
X201789Y415724D01*
X201797Y415774D01*
X201821Y415863D01*
X201926Y416821D01*
X201923Y416851D01*
X201929Y416890D01*
X201929Y416991D01*
X201924Y417019D01*
X201926Y417055D01*
X201827Y418028D01*
X201814Y418077D01*
X201797Y418167D01*
X201485Y419094D01*
X201460Y419138D01*
X201425Y419223D01*
X200914Y420057D01*
X200880Y420095D01*
X200826Y420169D01*
X200142Y420869D01*
X200101Y420898D01*
X200032Y420958D01*
X199210Y421488D01*
X199163Y421508D01*
X199083Y421552D01*
X198163Y421885D01*
X198114Y421894D01*
X198025Y421919D01*
X197054Y422039D01*
X197044Y422039D01*
X197032Y422042D01*
X196729Y422069D01*
X196679Y422064D01*
X196580Y422064D01*
X195623Y421922D01*
X195575Y421906D01*
X195485Y421886D01*
X194583Y421534D01*
X194540Y421508D01*
X194458Y421468D01*
X193657Y420925D01*
X193621Y420889D01*
X193549Y420832D01*
X192889Y420124D01*
X192862Y420082D01*
X192805Y420010D01*
X192319Y419173D01*
X192302Y419125D01*
X192262Y419042D01*
X191975Y418118D01*
X191969Y418068D01*
X191948Y417978D01*
X191882Y417113D01*
X191880Y417105D01*
X191880Y417087D01*
X191877Y417046D01*
X191873Y417017D01*
X191873Y416965D01*
X191878Y416938D01*
X191981Y415971D01*
X191995Y415923D01*
X192012Y415832D01*
X192331Y414902D01*
X192356Y414858D01*
X192392Y414773D01*
X192911Y413937D01*
X192944Y413900D01*
X192999Y413826D01*
X193690Y413126D01*
X193732Y413097D01*
X193801Y413036D01*
X194631Y412508D01*
X194678Y412489D01*
X194759Y412446D01*
X195686Y412115D01*
X195736Y412107D01*
X195824Y412083D01*
X196777Y411970D01*
X196881Y411950D01*
X196885Y411950D01*
X196888Y411948D01*
X197076Y411942D01*
X198034Y412053D01*
G37*
G36*
X133010Y412028D02*
X133010Y412028D01*
X133058Y412042D01*
X133148Y412060D01*
X134057Y412381D01*
X134101Y412406D01*
X134185Y412443D01*
X135000Y412958D01*
X135037Y412992D01*
X135110Y413047D01*
X135790Y413731D01*
X135819Y413772D01*
X135878Y413842D01*
X136389Y414660D01*
X136407Y414707D01*
X136450Y414788D01*
X136765Y415699D01*
X136773Y415749D01*
X136797Y415838D01*
X136902Y416796D01*
X136899Y416826D01*
X136905Y416865D01*
X136905Y416966D01*
X136900Y416994D01*
X136902Y417030D01*
X136803Y418003D01*
X136790Y418052D01*
X136773Y418142D01*
X136461Y419069D01*
X136436Y419113D01*
X136401Y419198D01*
X135890Y420032D01*
X135856Y420070D01*
X135802Y420144D01*
X135118Y420844D01*
X135077Y420873D01*
X135008Y420933D01*
X134186Y421463D01*
X134139Y421483D01*
X134059Y421527D01*
X133139Y421860D01*
X133090Y421869D01*
X133001Y421894D01*
X132030Y422014D01*
X132020Y422014D01*
X132008Y422017D01*
X131705Y422044D01*
X131655Y422039D01*
X131556Y422039D01*
X130599Y421897D01*
X130551Y421881D01*
X130461Y421861D01*
X129559Y421509D01*
X129516Y421483D01*
X129434Y421443D01*
X128633Y420900D01*
X128597Y420864D01*
X128525Y420807D01*
X127865Y420099D01*
X127838Y420057D01*
X127781Y419985D01*
X127295Y419148D01*
X127278Y419100D01*
X127238Y419017D01*
X126951Y418093D01*
X126945Y418043D01*
X126924Y417953D01*
X126858Y417088D01*
X126856Y417080D01*
X126856Y417062D01*
X126853Y417021D01*
X126849Y416992D01*
X126849Y416940D01*
X126854Y416913D01*
X126957Y415946D01*
X126971Y415898D01*
X126988Y415807D01*
X127307Y414877D01*
X127332Y414833D01*
X127368Y414748D01*
X127887Y413912D01*
X127920Y413875D01*
X127975Y413801D01*
X128666Y413101D01*
X128708Y413072D01*
X128777Y413011D01*
X129607Y412483D01*
X129654Y412464D01*
X129735Y412421D01*
X130662Y412090D01*
X130712Y412082D01*
X130800Y412058D01*
X131753Y411945D01*
X131857Y411925D01*
X131861Y411925D01*
X131864Y411923D01*
X132052Y411917D01*
X133010Y412028D01*
G37*
G36*
X133010Y366790D02*
X133010Y366790D01*
X133058Y366804D01*
X133148Y366822D01*
X134057Y367143D01*
X134101Y367168D01*
X134185Y367205D01*
X135000Y367720D01*
X135037Y367754D01*
X135110Y367809D01*
X135790Y368493D01*
X135819Y368534D01*
X135878Y368604D01*
X136389Y369422D01*
X136407Y369469D01*
X136450Y369550D01*
X136765Y370461D01*
X136773Y370511D01*
X136797Y370600D01*
X136902Y371558D01*
X136899Y371588D01*
X136905Y371627D01*
X136905Y371728D01*
X136900Y371756D01*
X136902Y371792D01*
X136803Y372765D01*
X136790Y372814D01*
X136773Y372904D01*
X136461Y373831D01*
X136436Y373875D01*
X136401Y373960D01*
X135890Y374794D01*
X135856Y374832D01*
X135802Y374906D01*
X135118Y375606D01*
X135077Y375635D01*
X135008Y375695D01*
X134186Y376225D01*
X134139Y376245D01*
X134059Y376289D01*
X133139Y376622D01*
X133090Y376631D01*
X133001Y376656D01*
X132030Y376776D01*
X132020Y376776D01*
X132008Y376779D01*
X131705Y376806D01*
X131655Y376801D01*
X131556Y376801D01*
X130599Y376659D01*
X130551Y376643D01*
X130461Y376623D01*
X129559Y376271D01*
X129516Y376245D01*
X129434Y376205D01*
X128633Y375662D01*
X128597Y375626D01*
X128525Y375569D01*
X127865Y374861D01*
X127838Y374819D01*
X127781Y374747D01*
X127295Y373910D01*
X127278Y373862D01*
X127238Y373779D01*
X126951Y372855D01*
X126945Y372805D01*
X126924Y372715D01*
X126858Y371850D01*
X126856Y371842D01*
X126856Y371824D01*
X126853Y371783D01*
X126849Y371754D01*
X126849Y371702D01*
X126854Y371675D01*
X126957Y370708D01*
X126971Y370660D01*
X126988Y370569D01*
X127307Y369639D01*
X127332Y369595D01*
X127368Y369510D01*
X127887Y368674D01*
X127920Y368637D01*
X127975Y368563D01*
X128666Y367863D01*
X128708Y367834D01*
X128777Y367773D01*
X129607Y367245D01*
X129654Y367226D01*
X129735Y367183D01*
X130662Y366852D01*
X130712Y366844D01*
X130800Y366820D01*
X131753Y366707D01*
X131857Y366687D01*
X131861Y366687D01*
X131864Y366685D01*
X132052Y366679D01*
X133010Y366790D01*
G37*
G36*
X198085Y366765D02*
X198085Y366765D01*
X198133Y366779D01*
X198223Y366797D01*
X199132Y367118D01*
X199176Y367143D01*
X199260Y367180D01*
X200075Y367695D01*
X200112Y367729D01*
X200185Y367784D01*
X200865Y368468D01*
X200894Y368509D01*
X200953Y368579D01*
X201464Y369397D01*
X201482Y369444D01*
X201525Y369525D01*
X201840Y370436D01*
X201848Y370486D01*
X201872Y370575D01*
X201977Y371533D01*
X201974Y371563D01*
X201980Y371602D01*
X201980Y371703D01*
X201975Y371731D01*
X201977Y371767D01*
X201878Y372740D01*
X201865Y372789D01*
X201848Y372879D01*
X201536Y373806D01*
X201511Y373850D01*
X201476Y373935D01*
X200965Y374769D01*
X200931Y374807D01*
X200877Y374881D01*
X200193Y375581D01*
X200152Y375610D01*
X200083Y375670D01*
X199261Y376200D01*
X199214Y376220D01*
X199134Y376264D01*
X198214Y376597D01*
X198165Y376606D01*
X198076Y376631D01*
X197105Y376751D01*
X197095Y376751D01*
X197083Y376754D01*
X196780Y376781D01*
X196730Y376776D01*
X196631Y376776D01*
X195674Y376634D01*
X195626Y376618D01*
X195536Y376598D01*
X194634Y376246D01*
X194591Y376220D01*
X194509Y376180D01*
X193708Y375637D01*
X193672Y375601D01*
X193600Y375544D01*
X192940Y374836D01*
X192913Y374794D01*
X192856Y374722D01*
X192370Y373885D01*
X192353Y373837D01*
X192313Y373754D01*
X192026Y372830D01*
X192020Y372780D01*
X191999Y372690D01*
X191933Y371825D01*
X191931Y371817D01*
X191931Y371799D01*
X191928Y371758D01*
X191924Y371729D01*
X191924Y371677D01*
X191929Y371650D01*
X192032Y370683D01*
X192046Y370635D01*
X192063Y370544D01*
X192382Y369614D01*
X192407Y369570D01*
X192443Y369485D01*
X192962Y368649D01*
X192995Y368612D01*
X193050Y368538D01*
X193741Y367838D01*
X193783Y367809D01*
X193852Y367748D01*
X194682Y367220D01*
X194729Y367201D01*
X194810Y367158D01*
X195737Y366827D01*
X195787Y366819D01*
X195875Y366795D01*
X196828Y366682D01*
X196932Y366662D01*
X196936Y366662D01*
X196939Y366660D01*
X197127Y366654D01*
X198085Y366765D01*
G37*
G36*
X198669Y287593D02*
X198669Y287593D01*
X198717Y287607D01*
X198807Y287625D01*
X199716Y287946D01*
X199760Y287971D01*
X199844Y288008D01*
X200659Y288523D01*
X200696Y288557D01*
X200769Y288612D01*
X201449Y289296D01*
X201478Y289337D01*
X201537Y289407D01*
X202048Y290225D01*
X202066Y290272D01*
X202109Y290353D01*
X202424Y291264D01*
X202432Y291314D01*
X202456Y291403D01*
X202561Y292361D01*
X202558Y292391D01*
X202564Y292430D01*
X202564Y292531D01*
X202559Y292559D01*
X202561Y292595D01*
X202462Y293568D01*
X202449Y293617D01*
X202432Y293707D01*
X202120Y294634D01*
X202095Y294678D01*
X202060Y294763D01*
X201549Y295597D01*
X201515Y295635D01*
X201461Y295709D01*
X200777Y296409D01*
X200736Y296438D01*
X200667Y296498D01*
X199845Y297028D01*
X199798Y297048D01*
X199718Y297092D01*
X198798Y297425D01*
X198749Y297434D01*
X198660Y297459D01*
X197689Y297579D01*
X197679Y297579D01*
X197667Y297582D01*
X197364Y297609D01*
X197314Y297604D01*
X197215Y297604D01*
X196258Y297462D01*
X196210Y297446D01*
X196120Y297426D01*
X195218Y297074D01*
X195175Y297048D01*
X195093Y297008D01*
X194292Y296465D01*
X194256Y296429D01*
X194184Y296372D01*
X193524Y295664D01*
X193497Y295622D01*
X193440Y295550D01*
X192954Y294713D01*
X192937Y294665D01*
X192897Y294582D01*
X192610Y293658D01*
X192604Y293608D01*
X192583Y293518D01*
X192517Y292653D01*
X192515Y292645D01*
X192515Y292627D01*
X192512Y292586D01*
X192508Y292557D01*
X192508Y292505D01*
X192513Y292478D01*
X192616Y291511D01*
X192630Y291463D01*
X192647Y291372D01*
X192966Y290442D01*
X192991Y290398D01*
X193027Y290313D01*
X193546Y289477D01*
X193579Y289440D01*
X193634Y289366D01*
X194325Y288666D01*
X194367Y288637D01*
X194436Y288576D01*
X195266Y288048D01*
X195313Y288029D01*
X195394Y287986D01*
X196321Y287655D01*
X196371Y287647D01*
X196459Y287623D01*
X197412Y287510D01*
X197516Y287490D01*
X197520Y287490D01*
X197523Y287488D01*
X197711Y287482D01*
X198669Y287593D01*
G37*
G36*
X133645Y287568D02*
X133645Y287568D01*
X133693Y287582D01*
X133783Y287600D01*
X134692Y287921D01*
X134736Y287946D01*
X134820Y287983D01*
X135635Y288498D01*
X135672Y288532D01*
X135745Y288587D01*
X136425Y289271D01*
X136454Y289312D01*
X136513Y289382D01*
X137024Y290200D01*
X137042Y290247D01*
X137085Y290328D01*
X137400Y291239D01*
X137408Y291289D01*
X137432Y291378D01*
X137537Y292336D01*
X137534Y292366D01*
X137540Y292405D01*
X137540Y292506D01*
X137535Y292534D01*
X137537Y292570D01*
X137438Y293543D01*
X137425Y293592D01*
X137408Y293682D01*
X137096Y294609D01*
X137071Y294653D01*
X137036Y294738D01*
X136525Y295572D01*
X136491Y295610D01*
X136437Y295684D01*
X135753Y296384D01*
X135712Y296413D01*
X135643Y296473D01*
X134821Y297003D01*
X134774Y297023D01*
X134694Y297067D01*
X133774Y297400D01*
X133725Y297409D01*
X133636Y297434D01*
X132665Y297554D01*
X132655Y297554D01*
X132643Y297557D01*
X132340Y297584D01*
X132290Y297579D01*
X132191Y297579D01*
X131234Y297437D01*
X131186Y297421D01*
X131096Y297401D01*
X130194Y297049D01*
X130151Y297023D01*
X130069Y296983D01*
X129268Y296440D01*
X129232Y296404D01*
X129160Y296347D01*
X128500Y295639D01*
X128473Y295597D01*
X128416Y295525D01*
X127930Y294688D01*
X127913Y294640D01*
X127873Y294557D01*
X127586Y293633D01*
X127580Y293583D01*
X127559Y293493D01*
X127493Y292628D01*
X127491Y292620D01*
X127491Y292602D01*
X127488Y292561D01*
X127484Y292532D01*
X127484Y292480D01*
X127489Y292453D01*
X127592Y291486D01*
X127606Y291438D01*
X127623Y291347D01*
X127942Y290417D01*
X127967Y290373D01*
X128003Y290288D01*
X128522Y289452D01*
X128555Y289415D01*
X128610Y289341D01*
X129301Y288641D01*
X129343Y288612D01*
X129412Y288551D01*
X130242Y288023D01*
X130289Y288004D01*
X130370Y287961D01*
X131297Y287630D01*
X131347Y287622D01*
X131435Y287598D01*
X132388Y287485D01*
X132492Y287465D01*
X132496Y287465D01*
X132499Y287463D01*
X132687Y287457D01*
X133645Y287568D01*
G37*
G36*
X133645Y242330D02*
X133645Y242330D01*
X133693Y242344D01*
X133783Y242362D01*
X134692Y242683D01*
X134736Y242708D01*
X134820Y242745D01*
X135635Y243260D01*
X135672Y243294D01*
X135745Y243349D01*
X136425Y244033D01*
X136454Y244074D01*
X136513Y244144D01*
X137024Y244962D01*
X137042Y245009D01*
X137085Y245090D01*
X137400Y246001D01*
X137408Y246051D01*
X137432Y246140D01*
X137537Y247098D01*
X137534Y247128D01*
X137540Y247167D01*
X137540Y247268D01*
X137535Y247296D01*
X137537Y247332D01*
X137438Y248305D01*
X137425Y248354D01*
X137408Y248444D01*
X137096Y249371D01*
X137071Y249415D01*
X137036Y249500D01*
X136525Y250334D01*
X136491Y250372D01*
X136437Y250446D01*
X135753Y251146D01*
X135712Y251175D01*
X135643Y251235D01*
X134821Y251765D01*
X134774Y251785D01*
X134694Y251829D01*
X133774Y252162D01*
X133725Y252171D01*
X133636Y252196D01*
X132665Y252316D01*
X132655Y252316D01*
X132643Y252319D01*
X132340Y252346D01*
X132290Y252341D01*
X132191Y252341D01*
X131234Y252199D01*
X131186Y252183D01*
X131096Y252163D01*
X130194Y251811D01*
X130151Y251785D01*
X130069Y251745D01*
X129268Y251202D01*
X129232Y251166D01*
X129160Y251109D01*
X128500Y250401D01*
X128473Y250359D01*
X128416Y250287D01*
X127930Y249450D01*
X127913Y249402D01*
X127873Y249319D01*
X127586Y248395D01*
X127580Y248345D01*
X127559Y248255D01*
X127493Y247390D01*
X127491Y247382D01*
X127491Y247364D01*
X127488Y247323D01*
X127484Y247294D01*
X127484Y247242D01*
X127489Y247215D01*
X127592Y246248D01*
X127606Y246200D01*
X127623Y246109D01*
X127942Y245179D01*
X127967Y245135D01*
X128003Y245050D01*
X128522Y244214D01*
X128555Y244177D01*
X128610Y244103D01*
X129301Y243403D01*
X129343Y243374D01*
X129412Y243313D01*
X130242Y242785D01*
X130289Y242766D01*
X130370Y242723D01*
X131297Y242392D01*
X131347Y242384D01*
X131435Y242360D01*
X132388Y242247D01*
X132492Y242227D01*
X132496Y242227D01*
X132499Y242225D01*
X132687Y242219D01*
X133645Y242330D01*
G37*
G36*
X198720Y242305D02*
X198720Y242305D01*
X198768Y242319D01*
X198858Y242337D01*
X199767Y242658D01*
X199811Y242683D01*
X199895Y242720D01*
X200710Y243235D01*
X200747Y243269D01*
X200820Y243324D01*
X201500Y244008D01*
X201529Y244049D01*
X201588Y244119D01*
X202099Y244937D01*
X202117Y244984D01*
X202160Y245065D01*
X202475Y245976D01*
X202483Y246026D01*
X202507Y246115D01*
X202612Y247073D01*
X202609Y247103D01*
X202615Y247142D01*
X202615Y247243D01*
X202610Y247271D01*
X202612Y247307D01*
X202513Y248280D01*
X202500Y248329D01*
X202483Y248419D01*
X202171Y249346D01*
X202146Y249390D01*
X202111Y249475D01*
X201600Y250309D01*
X201566Y250347D01*
X201512Y250421D01*
X200828Y251121D01*
X200787Y251150D01*
X200718Y251210D01*
X199896Y251740D01*
X199849Y251760D01*
X199769Y251804D01*
X198849Y252137D01*
X198800Y252146D01*
X198711Y252171D01*
X197740Y252291D01*
X197730Y252291D01*
X197718Y252294D01*
X197415Y252321D01*
X197365Y252316D01*
X197266Y252316D01*
X196309Y252174D01*
X196261Y252158D01*
X196171Y252138D01*
X195269Y251786D01*
X195226Y251760D01*
X195144Y251720D01*
X194343Y251177D01*
X194307Y251141D01*
X194235Y251084D01*
X193575Y250376D01*
X193548Y250334D01*
X193491Y250262D01*
X193005Y249425D01*
X192988Y249377D01*
X192948Y249294D01*
X192661Y248370D01*
X192655Y248320D01*
X192634Y248230D01*
X192568Y247365D01*
X192566Y247357D01*
X192566Y247339D01*
X192563Y247298D01*
X192559Y247269D01*
X192559Y247217D01*
X192564Y247190D01*
X192667Y246223D01*
X192681Y246175D01*
X192698Y246084D01*
X193017Y245154D01*
X193042Y245110D01*
X193078Y245025D01*
X193597Y244189D01*
X193630Y244152D01*
X193685Y244078D01*
X194376Y243378D01*
X194418Y243349D01*
X194487Y243288D01*
X195317Y242760D01*
X195364Y242741D01*
X195445Y242698D01*
X196372Y242367D01*
X196422Y242359D01*
X196510Y242335D01*
X197463Y242222D01*
X197567Y242202D01*
X197571Y242202D01*
X197574Y242200D01*
X197762Y242194D01*
X198720Y242305D01*
G37*
G36*
X198669Y163133D02*
X198669Y163133D01*
X198717Y163147D01*
X198807Y163165D01*
X199716Y163486D01*
X199760Y163511D01*
X199844Y163548D01*
X200659Y164063D01*
X200696Y164097D01*
X200769Y164152D01*
X201449Y164836D01*
X201478Y164877D01*
X201537Y164947D01*
X202048Y165765D01*
X202066Y165812D01*
X202109Y165893D01*
X202424Y166804D01*
X202432Y166854D01*
X202456Y166943D01*
X202561Y167901D01*
X202558Y167931D01*
X202564Y167970D01*
X202564Y168071D01*
X202559Y168099D01*
X202561Y168135D01*
X202462Y169108D01*
X202449Y169157D01*
X202432Y169247D01*
X202120Y170174D01*
X202095Y170218D01*
X202060Y170303D01*
X201549Y171137D01*
X201515Y171175D01*
X201461Y171249D01*
X200777Y171949D01*
X200736Y171978D01*
X200667Y172038D01*
X199845Y172568D01*
X199798Y172588D01*
X199718Y172632D01*
X198798Y172965D01*
X198749Y172974D01*
X198660Y172999D01*
X197689Y173119D01*
X197679Y173119D01*
X197667Y173122D01*
X197364Y173149D01*
X197314Y173144D01*
X197215Y173144D01*
X196258Y173002D01*
X196210Y172986D01*
X196120Y172966D01*
X195218Y172614D01*
X195175Y172588D01*
X195093Y172548D01*
X194292Y172005D01*
X194256Y171969D01*
X194184Y171912D01*
X193524Y171204D01*
X193497Y171162D01*
X193440Y171090D01*
X192954Y170253D01*
X192937Y170205D01*
X192897Y170122D01*
X192610Y169198D01*
X192604Y169148D01*
X192583Y169058D01*
X192517Y168193D01*
X192515Y168185D01*
X192515Y168167D01*
X192512Y168126D01*
X192508Y168097D01*
X192508Y168045D01*
X192513Y168018D01*
X192616Y167051D01*
X192630Y167003D01*
X192647Y166912D01*
X192966Y165982D01*
X192991Y165938D01*
X193027Y165853D01*
X193546Y165017D01*
X193579Y164980D01*
X193634Y164906D01*
X194325Y164206D01*
X194367Y164177D01*
X194436Y164116D01*
X195266Y163588D01*
X195313Y163569D01*
X195394Y163526D01*
X196321Y163195D01*
X196371Y163187D01*
X196459Y163163D01*
X197412Y163050D01*
X197516Y163030D01*
X197520Y163030D01*
X197523Y163028D01*
X197711Y163022D01*
X198669Y163133D01*
G37*
G36*
X133645Y163108D02*
X133645Y163108D01*
X133693Y163122D01*
X133783Y163140D01*
X134692Y163461D01*
X134736Y163486D01*
X134820Y163523D01*
X135635Y164038D01*
X135672Y164072D01*
X135745Y164127D01*
X136425Y164811D01*
X136454Y164852D01*
X136513Y164922D01*
X137024Y165740D01*
X137042Y165787D01*
X137085Y165868D01*
X137400Y166779D01*
X137408Y166829D01*
X137432Y166918D01*
X137537Y167876D01*
X137534Y167906D01*
X137540Y167945D01*
X137540Y168046D01*
X137535Y168074D01*
X137537Y168110D01*
X137438Y169083D01*
X137425Y169132D01*
X137408Y169222D01*
X137096Y170149D01*
X137071Y170193D01*
X137036Y170278D01*
X136525Y171112D01*
X136491Y171150D01*
X136437Y171224D01*
X135753Y171924D01*
X135712Y171953D01*
X135643Y172013D01*
X134821Y172543D01*
X134774Y172563D01*
X134694Y172607D01*
X133774Y172940D01*
X133725Y172949D01*
X133636Y172974D01*
X132665Y173094D01*
X132655Y173094D01*
X132643Y173097D01*
X132340Y173124D01*
X132290Y173119D01*
X132191Y173119D01*
X131234Y172977D01*
X131186Y172961D01*
X131096Y172941D01*
X130194Y172589D01*
X130151Y172563D01*
X130069Y172523D01*
X129268Y171980D01*
X129232Y171944D01*
X129160Y171887D01*
X128500Y171179D01*
X128473Y171137D01*
X128416Y171065D01*
X127930Y170228D01*
X127913Y170180D01*
X127873Y170097D01*
X127586Y169173D01*
X127580Y169123D01*
X127559Y169033D01*
X127493Y168168D01*
X127491Y168160D01*
X127491Y168142D01*
X127488Y168101D01*
X127484Y168072D01*
X127484Y168020D01*
X127489Y167993D01*
X127592Y167026D01*
X127606Y166978D01*
X127623Y166887D01*
X127942Y165957D01*
X127967Y165913D01*
X128003Y165828D01*
X128522Y164992D01*
X128555Y164955D01*
X128610Y164881D01*
X129301Y164181D01*
X129343Y164152D01*
X129412Y164091D01*
X130242Y163563D01*
X130289Y163544D01*
X130370Y163501D01*
X131297Y163170D01*
X131347Y163162D01*
X131435Y163138D01*
X132388Y163025D01*
X132492Y163005D01*
X132496Y163005D01*
X132499Y163003D01*
X132687Y162997D01*
X133645Y163108D01*
G37*
G36*
X133645Y117870D02*
X133645Y117870D01*
X133693Y117884D01*
X133783Y117902D01*
X134692Y118223D01*
X134736Y118248D01*
X134820Y118285D01*
X135635Y118800D01*
X135672Y118834D01*
X135745Y118889D01*
X136425Y119573D01*
X136454Y119614D01*
X136513Y119684D01*
X137024Y120502D01*
X137042Y120549D01*
X137085Y120630D01*
X137400Y121541D01*
X137408Y121591D01*
X137432Y121680D01*
X137537Y122638D01*
X137534Y122668D01*
X137540Y122707D01*
X137540Y122808D01*
X137535Y122836D01*
X137537Y122872D01*
X137438Y123845D01*
X137425Y123894D01*
X137408Y123984D01*
X137096Y124911D01*
X137071Y124955D01*
X137036Y125040D01*
X136525Y125874D01*
X136491Y125912D01*
X136437Y125986D01*
X135753Y126686D01*
X135712Y126715D01*
X135643Y126775D01*
X134821Y127305D01*
X134774Y127325D01*
X134694Y127369D01*
X133774Y127702D01*
X133725Y127711D01*
X133636Y127736D01*
X132665Y127856D01*
X132655Y127856D01*
X132643Y127859D01*
X132340Y127886D01*
X132290Y127881D01*
X132191Y127881D01*
X131234Y127739D01*
X131186Y127723D01*
X131096Y127703D01*
X130194Y127351D01*
X130151Y127325D01*
X130069Y127285D01*
X129268Y126742D01*
X129232Y126706D01*
X129160Y126649D01*
X128500Y125941D01*
X128473Y125899D01*
X128416Y125827D01*
X127930Y124990D01*
X127913Y124942D01*
X127873Y124859D01*
X127586Y123935D01*
X127580Y123885D01*
X127559Y123795D01*
X127493Y122930D01*
X127491Y122922D01*
X127491Y122904D01*
X127488Y122863D01*
X127484Y122834D01*
X127484Y122782D01*
X127489Y122755D01*
X127592Y121788D01*
X127606Y121740D01*
X127623Y121649D01*
X127942Y120719D01*
X127967Y120675D01*
X128003Y120590D01*
X128522Y119754D01*
X128555Y119717D01*
X128610Y119643D01*
X129301Y118943D01*
X129343Y118914D01*
X129412Y118853D01*
X130242Y118325D01*
X130289Y118306D01*
X130370Y118263D01*
X131297Y117932D01*
X131347Y117924D01*
X131435Y117900D01*
X132388Y117787D01*
X132492Y117767D01*
X132496Y117767D01*
X132499Y117765D01*
X132687Y117759D01*
X133645Y117870D01*
G37*
G36*
X198720Y117845D02*
X198720Y117845D01*
X198768Y117859D01*
X198858Y117877D01*
X199767Y118198D01*
X199811Y118223D01*
X199895Y118260D01*
X200710Y118775D01*
X200747Y118809D01*
X200820Y118864D01*
X201500Y119548D01*
X201529Y119589D01*
X201588Y119659D01*
X202099Y120477D01*
X202117Y120524D01*
X202160Y120605D01*
X202475Y121516D01*
X202483Y121566D01*
X202507Y121655D01*
X202612Y122613D01*
X202609Y122643D01*
X202615Y122682D01*
X202615Y122783D01*
X202610Y122811D01*
X202612Y122847D01*
X202513Y123820D01*
X202500Y123869D01*
X202483Y123959D01*
X202171Y124886D01*
X202146Y124930D01*
X202111Y125015D01*
X201600Y125849D01*
X201566Y125887D01*
X201512Y125961D01*
X200828Y126661D01*
X200787Y126690D01*
X200718Y126750D01*
X199896Y127280D01*
X199849Y127300D01*
X199769Y127344D01*
X198849Y127677D01*
X198800Y127686D01*
X198711Y127711D01*
X197740Y127831D01*
X197730Y127831D01*
X197718Y127834D01*
X197415Y127861D01*
X197365Y127856D01*
X197266Y127856D01*
X196309Y127714D01*
X196261Y127698D01*
X196171Y127678D01*
X195269Y127326D01*
X195226Y127300D01*
X195144Y127260D01*
X194343Y126717D01*
X194307Y126681D01*
X194235Y126624D01*
X193575Y125916D01*
X193548Y125874D01*
X193491Y125802D01*
X193005Y124965D01*
X192988Y124917D01*
X192948Y124834D01*
X192661Y123910D01*
X192655Y123860D01*
X192634Y123770D01*
X192568Y122905D01*
X192566Y122897D01*
X192566Y122879D01*
X192563Y122838D01*
X192559Y122809D01*
X192559Y122757D01*
X192564Y122730D01*
X192667Y121763D01*
X192681Y121715D01*
X192698Y121624D01*
X193017Y120694D01*
X193042Y120650D01*
X193078Y120565D01*
X193597Y119729D01*
X193630Y119692D01*
X193685Y119618D01*
X194376Y118918D01*
X194418Y118889D01*
X194487Y118828D01*
X195317Y118300D01*
X195364Y118281D01*
X195445Y118238D01*
X196372Y117907D01*
X196422Y117899D01*
X196510Y117875D01*
X197463Y117762D01*
X197567Y117742D01*
X197571Y117742D01*
X197574Y117740D01*
X197762Y117734D01*
X198720Y117845D01*
G37*
D10*
X38100Y965200D03*
X965200Y762000D03*
X635000Y165100D03*
X38100Y38100D03*
D11*
X482600Y386715D03*
D12*
X482600Y412115D03*
D13*
X184785Y972312D02*
X159385Y972312D01*
X159385Y747268D02*
X184785Y747268D01*
X678815Y972312D02*
X704215Y972312D01*
X704215Y747268D02*
X678815Y747268D01*
D14*
X777240Y955040D03*
X777240Y929640D03*
X828675Y955040D03*
X828675Y929640D03*
D15*
X776605Y800100D03*
X776605Y901700D03*
X828040Y799465D03*
X828040Y901065D03*
D16*
X196977Y501269D03*
X131953Y501269D03*
X196977Y546481D03*
X131953Y546481D03*
D17*
X555140Y266700D03*
X535140Y266700D03*
X515140Y266700D03*
X495140Y266700D03*
X475140Y266700D03*
X455140Y266700D03*
X435140Y266700D03*
X415140Y266700D03*
D18*
X269875Y613855D02*
X269875Y626935D01*
X295275Y626935D02*
X295275Y613855D01*
X320675Y613855D02*
X320675Y626935D01*
X346075Y626935D02*
X346075Y613855D01*
X371475Y613855D02*
X371475Y626935D01*
X396875Y626935D02*
X396875Y613855D01*
X263715Y594995D02*
X250635Y594995D01*
X250635Y569595D02*
X263715Y569595D01*
X263715Y544195D02*
X250635Y544195D01*
X250635Y518795D02*
X263715Y518795D01*
X263715Y493395D02*
X250635Y493395D01*
X250635Y467995D02*
X263715Y467995D01*
X263715Y442595D02*
X250635Y442595D01*
X250635Y417195D02*
X263715Y417195D01*
X263715Y391795D02*
X250635Y391795D01*
X250635Y366395D02*
X263715Y366395D01*
X263715Y340995D02*
X250635Y340995D01*
X250635Y315595D02*
X263715Y315595D01*
X403035Y594995D02*
X416115Y594995D01*
X416115Y569595D02*
X403035Y569595D01*
X403035Y544195D02*
X416115Y544195D01*
X416115Y518795D02*
X403035Y518795D01*
X403035Y493395D02*
X416115Y493395D01*
X416115Y467995D02*
X403035Y467995D01*
X403035Y442595D02*
X416115Y442595D01*
X416115Y417195D02*
X403035Y417195D01*
X403035Y391795D02*
X416115Y391795D01*
X416115Y366395D02*
X403035Y366395D01*
X403035Y340995D02*
X416115Y340995D01*
X416115Y315595D02*
X403035Y315595D01*
X371475Y322135D02*
X371475Y309055D01*
X346075Y309055D02*
X346075Y322135D01*
X320675Y322135D02*
X320675Y309055D01*
D19*
X371475Y506095D03*
X371475Y480695D03*
D20*
X263300Y834300D03*
X263300Y893300D03*
X599300Y954300D03*
X599300Y774300D03*
D21*
X588899Y640715D02*
X575691Y640715D01*
X575691Y615315D02*
X588899Y615315D01*
X588899Y488315D02*
X575691Y488315D01*
X575691Y462915D02*
X588899Y462915D01*
X588899Y589915D02*
X575691Y589915D01*
X575691Y564515D02*
X588899Y564515D01*
X588899Y513715D02*
X575691Y513715D01*
X575691Y539115D02*
X588899Y539115D01*
X588899Y437515D02*
X575691Y437515D01*
X651891Y437515D02*
X665099Y437515D01*
X665099Y462915D02*
X651891Y462915D01*
X651891Y488315D02*
X665099Y488315D01*
X665099Y513715D02*
X651891Y513715D01*
X651891Y539115D02*
X665099Y539115D01*
X665099Y564515D02*
X651891Y564515D01*
X651891Y589915D02*
X665099Y589915D01*
X665099Y615315D02*
X651891Y615315D01*
X651891Y640715D02*
X665099Y640715D01*
D15*
X878840Y800735D03*
X878840Y902335D03*
X927100Y800100D03*
X927100Y901700D03*
D14*
X878840Y955675D03*
X878840Y930275D03*
X927100Y955675D03*
X927100Y930275D03*
D22*
X207010Y702945D03*
X105410Y702945D03*
D23*
X30480Y703580D03*
X55880Y703580D03*
D24*
X72073Y892810D02*
X93028Y892810D01*
X93028Y842010D02*
X72073Y842010D01*
D25*
X59182Y778510D02*
X44958Y778510D01*
X44958Y753110D02*
X59182Y753110D01*
D26*
X861120Y566180D03*
X741120Y686180D03*
X721120Y626180D03*
X861120Y686180D03*
X741120Y566180D03*
X861755Y392190D03*
X741755Y512190D03*
X721755Y452190D03*
X861755Y512190D03*
X741755Y392190D03*
X861755Y218835D03*
X741755Y338835D03*
X721755Y278835D03*
X861755Y338835D03*
X741755Y218835D03*
X861755Y46115D03*
X741755Y166115D03*
X721755Y106115D03*
X861755Y166115D03*
X741755Y46115D03*
D24*
X931863Y574675D02*
X952818Y574675D01*
X952818Y625475D02*
X931863Y625475D01*
X931863Y676275D02*
X952818Y676275D01*
X953453Y401955D02*
X932498Y401955D01*
X932498Y452755D02*
X953453Y452755D01*
X953453Y503555D02*
X932498Y503555D01*
X933133Y228600D02*
X954088Y228600D01*
X954088Y279400D02*
X933133Y279400D01*
X933133Y330200D02*
X954088Y330200D01*
X954088Y54610D02*
X933133Y54610D01*
X933133Y105410D02*
X954088Y105410D01*
X954088Y156210D02*
X933133Y156210D01*
X86678Y546100D02*
X65723Y546100D01*
X65723Y495300D02*
X86678Y495300D01*
X86678Y419100D02*
X65723Y419100D01*
X65723Y368300D02*
X86678Y368300D01*
X86678Y292100D02*
X65723Y292100D01*
X65723Y241300D02*
X86678Y241300D01*
X86678Y165100D02*
X65723Y165100D01*
X65723Y114300D02*
X86678Y114300D01*
M02*
