G04 EAGLE Gerber RS-274X export*
G75*
%MOMM*%
%FSLAX34Y34*%
%LPD*%
%INSoldermask Bottom*%
%IPPOS*%
%AMOC8*
5,1,8,0,0,1.08239X$1,22.5*%
G01*
%ADD10C,3.703200*%
%ADD11P,1.951982X8X202.500000*%
%ADD12C,1.803400*%
%ADD13C,2.743200*%
%ADD14C,1.625600*%
%ADD15P,1.649562X8X22.500000*%
%ADD16P,1.649562X8X202.500000*%
%ADD17C,1.625600*%
%ADD18C,1.511200*%
%ADD19C,1.511200*%
%ADD20R,1.511200X1.511200*%
%ADD21P,2.034460X8X22.500000*%
%ADD22C,2.298700*%

G36*
X96074Y406913D02*
X96074Y406913D01*
X96095Y406911D01*
X97786Y407063D01*
X97832Y407076D01*
X97908Y407086D01*
X99537Y407565D01*
X99565Y407579D01*
X99586Y407583D01*
X99611Y407597D01*
X99652Y407612D01*
X101156Y408399D01*
X101195Y408428D01*
X101260Y408467D01*
X102582Y409533D01*
X102614Y409569D01*
X102671Y409620D01*
X103760Y410923D01*
X103783Y410964D01*
X103830Y411025D01*
X104643Y412516D01*
X104658Y412561D01*
X104692Y412630D01*
X105199Y414250D01*
X105205Y414298D01*
X105224Y414372D01*
X105405Y416055D01*
X105430Y416253D01*
X105427Y416304D01*
X105431Y416395D01*
X105258Y418104D01*
X105245Y418150D01*
X105233Y418226D01*
X104730Y419868D01*
X104708Y419911D01*
X104682Y419983D01*
X103868Y421496D01*
X103838Y421533D01*
X103798Y421599D01*
X102705Y422923D01*
X102668Y422955D01*
X102617Y423011D01*
X101286Y424097D01*
X101243Y424120D01*
X101182Y424166D01*
X99665Y424971D01*
X99619Y424986D01*
X99550Y425018D01*
X98697Y425274D01*
X97904Y425512D01*
X97857Y425518D01*
X97782Y425536D01*
X96195Y425688D01*
X96178Y425695D01*
X96084Y425736D01*
X96074Y425736D01*
X96066Y425740D01*
X95879Y425751D01*
X94200Y425598D01*
X94153Y425585D01*
X94078Y425575D01*
X92461Y425097D01*
X92418Y425076D01*
X92346Y425051D01*
X90854Y424267D01*
X90816Y424237D01*
X90750Y424199D01*
X89439Y423139D01*
X89408Y423103D01*
X89351Y423052D01*
X88272Y421757D01*
X88248Y421715D01*
X88202Y421654D01*
X87396Y420173D01*
X87381Y420128D01*
X87348Y420059D01*
X86847Y418450D01*
X86841Y418402D01*
X86822Y418328D01*
X86647Y416675D01*
X86600Y416419D01*
X86600Y416397D01*
X86593Y416237D01*
X86778Y414520D01*
X86791Y414473D01*
X86803Y414398D01*
X87319Y412749D01*
X87341Y412706D01*
X87367Y412635D01*
X88195Y411118D01*
X88225Y411080D01*
X88265Y411015D01*
X89373Y409689D01*
X89409Y409658D01*
X89461Y409602D01*
X90806Y408518D01*
X90848Y408495D01*
X90910Y408449D01*
X92441Y407648D01*
X92487Y407634D01*
X92556Y407602D01*
X94213Y407114D01*
X94261Y407109D01*
X94336Y407091D01*
X95804Y406959D01*
X95832Y406943D01*
X95871Y406937D01*
X95908Y406922D01*
X96004Y406917D01*
X96054Y406909D01*
X96074Y406913D01*
G37*
G36*
X31050Y406888D02*
X31050Y406888D01*
X31071Y406886D01*
X32762Y407038D01*
X32808Y407051D01*
X32884Y407061D01*
X34513Y407540D01*
X34541Y407554D01*
X34562Y407558D01*
X34587Y407572D01*
X34628Y407587D01*
X36132Y408374D01*
X36171Y408403D01*
X36236Y408442D01*
X37558Y409508D01*
X37590Y409544D01*
X37647Y409595D01*
X38736Y410898D01*
X38759Y410939D01*
X38806Y411000D01*
X39619Y412491D01*
X39634Y412536D01*
X39668Y412605D01*
X40175Y414225D01*
X40181Y414273D01*
X40200Y414347D01*
X40381Y416030D01*
X40406Y416228D01*
X40403Y416279D01*
X40407Y416370D01*
X40234Y418079D01*
X40221Y418125D01*
X40209Y418201D01*
X39706Y419843D01*
X39684Y419886D01*
X39658Y419958D01*
X38844Y421471D01*
X38814Y421508D01*
X38774Y421574D01*
X37681Y422898D01*
X37644Y422930D01*
X37593Y422986D01*
X36262Y424072D01*
X36219Y424095D01*
X36158Y424141D01*
X34641Y424946D01*
X34595Y424961D01*
X34526Y424993D01*
X33673Y425249D01*
X32880Y425487D01*
X32833Y425493D01*
X32758Y425511D01*
X31171Y425663D01*
X31154Y425670D01*
X31060Y425711D01*
X31050Y425711D01*
X31042Y425715D01*
X30855Y425726D01*
X29176Y425573D01*
X29129Y425560D01*
X29054Y425550D01*
X27437Y425072D01*
X27394Y425051D01*
X27322Y425026D01*
X25830Y424242D01*
X25792Y424212D01*
X25726Y424174D01*
X24415Y423114D01*
X24384Y423078D01*
X24327Y423027D01*
X23248Y421732D01*
X23224Y421690D01*
X23178Y421629D01*
X22372Y420148D01*
X22357Y420103D01*
X22324Y420034D01*
X21823Y418425D01*
X21817Y418377D01*
X21798Y418303D01*
X21623Y416650D01*
X21576Y416394D01*
X21576Y416372D01*
X21569Y416212D01*
X21754Y414495D01*
X21767Y414448D01*
X21779Y414373D01*
X22295Y412724D01*
X22317Y412681D01*
X22343Y412610D01*
X23171Y411093D01*
X23201Y411055D01*
X23241Y410990D01*
X24349Y409664D01*
X24385Y409633D01*
X24437Y409577D01*
X25782Y408493D01*
X25824Y408470D01*
X25886Y408424D01*
X27417Y407623D01*
X27463Y407609D01*
X27532Y407577D01*
X29189Y407089D01*
X29237Y407084D01*
X29312Y407066D01*
X30780Y406934D01*
X30808Y406918D01*
X30847Y406912D01*
X30884Y406897D01*
X30980Y406892D01*
X31030Y406884D01*
X31050Y406888D01*
G37*
G36*
X31050Y361650D02*
X31050Y361650D01*
X31071Y361648D01*
X32762Y361800D01*
X32808Y361813D01*
X32884Y361823D01*
X34513Y362302D01*
X34541Y362316D01*
X34562Y362320D01*
X34587Y362334D01*
X34628Y362349D01*
X36132Y363136D01*
X36171Y363165D01*
X36236Y363204D01*
X37558Y364270D01*
X37590Y364306D01*
X37647Y364357D01*
X38736Y365660D01*
X38759Y365701D01*
X38806Y365762D01*
X39619Y367253D01*
X39634Y367298D01*
X39668Y367367D01*
X40175Y368987D01*
X40181Y369035D01*
X40200Y369109D01*
X40381Y370792D01*
X40406Y370990D01*
X40403Y371041D01*
X40407Y371132D01*
X40234Y372841D01*
X40221Y372887D01*
X40209Y372963D01*
X39706Y374605D01*
X39684Y374648D01*
X39658Y374720D01*
X38844Y376233D01*
X38814Y376270D01*
X38774Y376336D01*
X37681Y377660D01*
X37644Y377692D01*
X37593Y377748D01*
X36262Y378834D01*
X36219Y378857D01*
X36158Y378903D01*
X34641Y379708D01*
X34595Y379723D01*
X34526Y379755D01*
X33673Y380011D01*
X32880Y380249D01*
X32833Y380255D01*
X32758Y380273D01*
X31171Y380425D01*
X31154Y380432D01*
X31060Y380473D01*
X31050Y380473D01*
X31042Y380477D01*
X30855Y380488D01*
X29176Y380335D01*
X29129Y380322D01*
X29054Y380312D01*
X27437Y379834D01*
X27394Y379813D01*
X27322Y379788D01*
X25830Y379004D01*
X25792Y378974D01*
X25726Y378936D01*
X24415Y377876D01*
X24384Y377840D01*
X24327Y377789D01*
X23248Y376494D01*
X23224Y376452D01*
X23178Y376391D01*
X22372Y374910D01*
X22357Y374865D01*
X22324Y374796D01*
X21823Y373187D01*
X21817Y373139D01*
X21798Y373065D01*
X21623Y371412D01*
X21576Y371156D01*
X21576Y371134D01*
X21569Y370974D01*
X21754Y369257D01*
X21767Y369210D01*
X21779Y369135D01*
X22295Y367486D01*
X22317Y367443D01*
X22343Y367372D01*
X23171Y365855D01*
X23201Y365817D01*
X23241Y365752D01*
X24349Y364426D01*
X24385Y364395D01*
X24437Y364339D01*
X25782Y363255D01*
X25824Y363232D01*
X25886Y363186D01*
X27417Y362385D01*
X27463Y362371D01*
X27532Y362339D01*
X29189Y361851D01*
X29237Y361846D01*
X29312Y361828D01*
X30780Y361696D01*
X30808Y361680D01*
X30847Y361674D01*
X30884Y361659D01*
X30980Y361654D01*
X31030Y361646D01*
X31050Y361650D01*
G37*
G36*
X96125Y361625D02*
X96125Y361625D01*
X96146Y361623D01*
X97837Y361775D01*
X97883Y361788D01*
X97959Y361798D01*
X99588Y362277D01*
X99616Y362291D01*
X99637Y362295D01*
X99662Y362309D01*
X99703Y362324D01*
X101207Y363111D01*
X101246Y363140D01*
X101311Y363179D01*
X102633Y364245D01*
X102665Y364281D01*
X102722Y364332D01*
X103811Y365635D01*
X103834Y365676D01*
X103881Y365737D01*
X104694Y367228D01*
X104709Y367273D01*
X104743Y367342D01*
X105250Y368962D01*
X105256Y369010D01*
X105275Y369084D01*
X105456Y370767D01*
X105481Y370965D01*
X105478Y371016D01*
X105482Y371107D01*
X105309Y372816D01*
X105296Y372862D01*
X105284Y372938D01*
X104781Y374580D01*
X104759Y374623D01*
X104733Y374695D01*
X103919Y376208D01*
X103889Y376245D01*
X103849Y376311D01*
X102756Y377635D01*
X102719Y377667D01*
X102668Y377723D01*
X101337Y378809D01*
X101294Y378832D01*
X101233Y378878D01*
X99716Y379683D01*
X99670Y379698D01*
X99601Y379730D01*
X98748Y379986D01*
X97955Y380224D01*
X97908Y380230D01*
X97833Y380248D01*
X96246Y380400D01*
X96229Y380407D01*
X96135Y380448D01*
X96125Y380448D01*
X96117Y380452D01*
X95930Y380463D01*
X94251Y380310D01*
X94204Y380297D01*
X94129Y380287D01*
X92512Y379809D01*
X92469Y379788D01*
X92397Y379763D01*
X90905Y378979D01*
X90867Y378949D01*
X90801Y378911D01*
X89490Y377851D01*
X89459Y377815D01*
X89402Y377764D01*
X88323Y376469D01*
X88299Y376427D01*
X88253Y376366D01*
X87447Y374885D01*
X87432Y374840D01*
X87399Y374771D01*
X86898Y373162D01*
X86892Y373114D01*
X86873Y373040D01*
X86698Y371387D01*
X86651Y371131D01*
X86651Y371109D01*
X86644Y370949D01*
X86829Y369232D01*
X86842Y369185D01*
X86854Y369110D01*
X87370Y367461D01*
X87392Y367418D01*
X87418Y367347D01*
X88246Y365830D01*
X88276Y365792D01*
X88316Y365727D01*
X89424Y364401D01*
X89460Y364370D01*
X89512Y364314D01*
X90857Y363230D01*
X90899Y363207D01*
X90961Y363161D01*
X92492Y362360D01*
X92538Y362346D01*
X92607Y362314D01*
X94264Y361826D01*
X94312Y361821D01*
X94387Y361803D01*
X95855Y361671D01*
X95883Y361655D01*
X95922Y361649D01*
X95959Y361634D01*
X96055Y361629D01*
X96105Y361621D01*
X96125Y361625D01*
G37*
D10*
X38100Y965200D03*
X723900Y965200D03*
X38100Y38100D03*
X723900Y38100D03*
D11*
X660400Y431800D03*
D12*
X685800Y431800D03*
D13*
X139700Y751078D02*
X114300Y751078D01*
X114300Y976122D02*
X139700Y976122D01*
X622300Y976122D02*
X647700Y976122D01*
X647700Y751078D02*
X622300Y751078D01*
D14*
X70612Y304800D02*
X56388Y304800D01*
X56388Y279400D02*
X70612Y279400D01*
X70612Y254000D02*
X56388Y254000D01*
D15*
X50800Y469900D03*
X76200Y469900D03*
D16*
X203200Y469900D03*
X101600Y469900D03*
D17*
X679600Y381000D03*
X659600Y381000D03*
X639600Y381000D03*
X619600Y381000D03*
X599600Y381000D03*
X579600Y381000D03*
X559600Y381000D03*
X539600Y381000D03*
D18*
X317500Y641160D02*
X317500Y654240D01*
X342900Y654240D02*
X342900Y641160D01*
X368300Y641160D02*
X368300Y654240D01*
X393700Y654240D02*
X393700Y641160D01*
X419100Y641160D02*
X419100Y654240D01*
X444500Y654240D02*
X444500Y641160D01*
X311340Y622300D02*
X298260Y622300D01*
X298260Y596900D02*
X311340Y596900D01*
X311340Y571500D02*
X298260Y571500D01*
X298260Y546100D02*
X311340Y546100D01*
X311340Y520700D02*
X298260Y520700D01*
X298260Y495300D02*
X311340Y495300D01*
X311340Y469900D02*
X298260Y469900D01*
X298260Y444500D02*
X311340Y444500D01*
X311340Y419100D02*
X298260Y419100D01*
X298260Y393700D02*
X311340Y393700D01*
X311340Y368300D02*
X298260Y368300D01*
X298260Y342900D02*
X311340Y342900D01*
X450660Y622300D02*
X463740Y622300D01*
X463740Y596900D02*
X450660Y596900D01*
X450660Y571500D02*
X463740Y571500D01*
X463740Y546100D02*
X450660Y546100D01*
X450660Y520700D02*
X463740Y520700D01*
X463740Y495300D02*
X450660Y495300D01*
X450660Y469900D02*
X463740Y469900D01*
X463740Y444500D02*
X450660Y444500D01*
X450660Y419100D02*
X463740Y419100D01*
X463740Y393700D02*
X450660Y393700D01*
X450660Y368300D02*
X463740Y368300D01*
X463740Y342900D02*
X450660Y342900D01*
X419100Y349440D02*
X419100Y336360D01*
X393700Y336360D02*
X393700Y349440D01*
X368300Y349440D02*
X368300Y336360D01*
D19*
X419100Y533400D03*
X419100Y508000D03*
D20*
X212500Y834300D03*
X212500Y893300D03*
X548500Y954300D03*
X548500Y774300D03*
D21*
X406400Y165100D03*
X406400Y139700D03*
X584200Y165100D03*
X584200Y139700D03*
X406400Y114300D03*
X406400Y190500D03*
X584200Y190500D03*
X584200Y114300D03*
X406400Y215900D03*
X584200Y215900D03*
X406400Y88900D03*
X584200Y88900D03*
X406400Y241300D03*
X584200Y241300D03*
X406400Y63500D03*
X584200Y63500D03*
D22*
X86678Y685800D02*
X65723Y685800D01*
X65723Y635000D02*
X86678Y635000D01*
X86678Y165100D02*
X65723Y165100D01*
X65723Y114300D02*
X86678Y114300D01*
M02*
