G04 EAGLE Gerber RS-274X export*
G75*
%MOMM*%
%FSLAX34Y34*%
%LPD*%
%INBottom Copper*%
%IPPOS*%
%AMOC8*
5,1,8,0,0,1.08239X$1,22.5*%
G01*
%ADD10C,2.540000*%
%ADD11R,1.308000X1.308000*%
%ADD12C,2.095500*%
%ADD13C,1.408000*%
%ADD14P,1.429621X8X22.500000*%
%ADD15C,1.676400*%
%ADD16P,1.429621X8X292.500000*%
%ADD17P,1.429621X8X202.500000*%
%ADD18P,1.429621X8X112.500000*%
%ADD19R,1.800000X3.200000*%
%ADD20C,1.320800*%
%ADD21C,1.320800*%
%ADD22C,1.879600*%
%ADD23C,1.422400*%
%ADD24P,1.732040X8X202.500000*%
%ADD25C,1.600200*%
%ADD26C,1.422400*%
%ADD27C,1.879600*%
%ADD28C,0.254000*%
%ADD29C,0.756400*%
%ADD30C,1.270000*%


D10*
X27178Y165100D02*
X27178Y190500D01*
X252222Y190500D02*
X252222Y165100D01*
X252222Y673100D02*
X252222Y698500D01*
X27178Y698500D02*
X27178Y673100D01*
D11*
X169000Y263300D03*
X110000Y263300D03*
X49000Y599300D03*
X229000Y599300D03*
D12*
X114300Y86678D02*
X114300Y65723D01*
X165100Y65723D02*
X165100Y86678D01*
D13*
X340300Y239000D03*
X460300Y119000D03*
X480300Y179000D03*
X340300Y119000D03*
X460300Y239000D03*
D14*
X584200Y101600D03*
X571500Y120650D03*
X558800Y101600D03*
D15*
X558800Y139700D03*
X558800Y241300D03*
D16*
X584200Y482600D03*
X584200Y381000D03*
D12*
X330200Y86678D02*
X330200Y65723D01*
X381000Y65723D02*
X381000Y86678D01*
X431800Y86678D02*
X431800Y65723D01*
D17*
X609600Y38100D03*
X508000Y38100D03*
D18*
X635000Y76200D03*
X635000Y177800D03*
D16*
X673100Y177800D03*
X673100Y76200D03*
D18*
X673100Y203200D03*
X673100Y304800D03*
D16*
X635000Y304800D03*
X635000Y203200D03*
D18*
X635000Y330200D03*
X635000Y431800D03*
D16*
X673100Y431800D03*
X673100Y330200D03*
D17*
X685800Y457200D03*
X635000Y457200D03*
D16*
X520700Y254000D03*
X520700Y152400D03*
D17*
X457200Y279400D03*
X355600Y279400D03*
D14*
X495300Y292100D03*
X546100Y292100D03*
D18*
X457200Y304800D03*
X457200Y355600D03*
D19*
X353000Y177800D03*
X409000Y177800D03*
D20*
X400304Y939800D02*
X387096Y939800D01*
X387096Y914400D02*
X400304Y914400D01*
X400304Y889000D02*
X387096Y889000D01*
X387096Y863600D02*
X400304Y863600D01*
X400304Y838200D02*
X387096Y838200D01*
X387096Y812800D02*
X400304Y812800D01*
X400304Y787400D02*
X387096Y787400D01*
X387096Y762000D02*
X400304Y762000D01*
X400304Y736600D02*
X387096Y736600D01*
X387096Y711200D02*
X400304Y711200D01*
X400304Y685800D02*
X387096Y685800D01*
X387096Y660400D02*
X400304Y660400D01*
X400304Y635000D02*
X387096Y635000D01*
X387096Y609600D02*
X400304Y609600D01*
X400304Y584200D02*
X387096Y584200D01*
X387096Y558800D02*
X400304Y558800D01*
X400304Y533400D02*
X387096Y533400D01*
X387096Y508000D02*
X400304Y508000D01*
X400304Y482600D02*
X387096Y482600D01*
X387096Y457200D02*
X400304Y457200D01*
X539496Y457200D02*
X552704Y457200D01*
X552704Y482600D02*
X539496Y482600D01*
X539496Y508000D02*
X552704Y508000D01*
X552704Y533400D02*
X539496Y533400D01*
X539496Y558800D02*
X552704Y558800D01*
X552704Y584200D02*
X539496Y584200D01*
X539496Y609600D02*
X552704Y609600D01*
X552704Y635000D02*
X539496Y635000D01*
X539496Y660400D02*
X552704Y660400D01*
X552704Y685800D02*
X539496Y685800D01*
X539496Y711200D02*
X552704Y711200D01*
X552704Y736600D02*
X539496Y736600D01*
X539496Y762000D02*
X552704Y762000D01*
X552704Y787400D02*
X539496Y787400D01*
X539496Y812800D02*
X552704Y812800D01*
X552704Y838200D02*
X539496Y838200D01*
X539496Y863600D02*
X552704Y863600D01*
X552704Y889000D02*
X539496Y889000D01*
X539496Y914400D02*
X552704Y914400D01*
X552704Y939800D02*
X539496Y939800D01*
D21*
X304800Y623570D03*
X304800Y671830D03*
D16*
X292100Y749300D03*
X292100Y723900D03*
D18*
X292100Y539750D03*
X292100Y565150D03*
D14*
X292100Y393700D03*
X393700Y393700D03*
D18*
X317500Y723900D03*
X317500Y749300D03*
X419100Y368300D03*
X419100Y393700D03*
D22*
X419100Y326898D02*
X419100Y308102D01*
X393700Y308102D02*
X393700Y326898D01*
X368300Y326898D02*
X368300Y308102D01*
X342900Y308102D02*
X342900Y326898D01*
X317500Y326898D02*
X317500Y308102D01*
X292100Y308102D02*
X292100Y326898D01*
D23*
X299212Y444500D02*
X284988Y444500D01*
X284988Y469900D02*
X299212Y469900D01*
X299212Y495300D02*
X284988Y495300D01*
D24*
X177800Y774700D03*
D25*
X203200Y774700D03*
D26*
X197000Y812800D03*
X177000Y812800D03*
X157000Y812800D03*
X137000Y812800D03*
X117000Y812800D03*
X97000Y812800D03*
X77000Y812800D03*
X57000Y812800D03*
D27*
X311912Y815594D03*
X246888Y815594D03*
X311912Y860806D03*
X246888Y860806D03*
D17*
X304800Y914400D03*
X203200Y914400D03*
D14*
X152400Y901700D03*
X177800Y901700D03*
X152400Y965200D03*
X177800Y965200D03*
D17*
X304800Y952500D03*
X203200Y952500D03*
D28*
X252222Y622522D02*
X229000Y599300D01*
X252222Y622522D02*
X252222Y685800D01*
X190500Y889000D02*
X393700Y889000D01*
X165100Y863600D02*
X88900Y863600D01*
X77000Y851700D01*
X77000Y812800D01*
X165100Y863600D02*
X190500Y889000D01*
X387350Y844550D02*
X393700Y838200D01*
X387350Y844550D02*
X101600Y844550D01*
D29*
X101600Y844550D03*
X63500Y838200D03*
D28*
X57000Y831700D01*
X57000Y812800D01*
X157000Y812800D02*
X157000Y823750D01*
X165100Y831850D01*
X355600Y831850D01*
X374650Y812800D01*
X393700Y812800D01*
X129700Y800100D02*
X117000Y812800D01*
X336550Y800100D02*
X349250Y787400D01*
X393700Y787400D01*
X336550Y800100D02*
X129700Y800100D01*
D30*
X27178Y163322D02*
X114300Y76200D01*
X27178Y163322D02*
X27178Y177800D01*
D28*
X460300Y119000D02*
X541400Y119000D01*
X558800Y101600D01*
X558800Y136400D02*
X558800Y139700D01*
X558800Y136400D02*
X541400Y119000D01*
X571500Y120650D02*
X571500Y88900D01*
X584200Y76200D01*
X596900Y76200D01*
X609600Y88900D01*
X609600Y368300D02*
X596900Y381000D01*
X584200Y381000D01*
X609600Y368300D02*
X609600Y88900D01*
D30*
X169000Y224700D02*
X169000Y263300D01*
X169000Y224700D02*
X215900Y177800D01*
X252222Y177800D01*
X353000Y177800D01*
D28*
X353000Y155000D01*
X361950Y146050D01*
X514350Y146050D01*
X520700Y152400D01*
X546100Y482600D02*
X584200Y482600D01*
D30*
X165100Y114300D02*
X165100Y76200D01*
X110000Y169400D02*
X110000Y263300D01*
X110000Y169400D02*
X165100Y114300D01*
X165100Y76200D02*
X165100Y50800D01*
X190500Y25400D01*
X368300Y25400D02*
X381000Y38100D01*
X381000Y76200D01*
X368300Y25400D02*
X190500Y25400D01*
X381000Y38100D02*
X393700Y25400D01*
X495300Y25400D01*
X508000Y38100D01*
X330200Y76200D02*
X330200Y108900D01*
X340300Y119000D01*
D28*
X609600Y38100D02*
X635000Y63500D01*
X635000Y76200D01*
X673100Y177800D02*
X673100Y203200D01*
X635000Y304800D02*
X635000Y330200D01*
X635000Y177800D02*
X673100Y139700D01*
X673100Y76200D01*
X635000Y203200D02*
X635000Y266700D01*
X673100Y304800D01*
X673100Y330200D02*
X673100Y393700D01*
X635000Y431800D01*
X635000Y457200D01*
X495300Y279400D02*
X520700Y254000D01*
X495300Y279400D02*
X495300Y292100D01*
X457200Y304800D02*
X457200Y279400D01*
D30*
X410200Y179000D02*
X409000Y177800D01*
X410200Y179000D02*
X480300Y179000D01*
D28*
X409000Y177800D02*
X409000Y226000D01*
X355600Y279400D01*
X325120Y671830D02*
X304800Y671830D01*
X325120Y671830D02*
X336550Y660400D01*
X393700Y660400D01*
X304800Y711200D02*
X292100Y723900D01*
X304800Y711200D02*
X304800Y671830D01*
X304800Y623570D02*
X325120Y623570D01*
X336550Y635000D01*
X393700Y635000D01*
X304800Y577850D02*
X292100Y565150D01*
X304800Y577850D02*
X304800Y623570D01*
X558800Y241300D02*
X546100Y228600D01*
X470700Y228600D02*
X460300Y239000D01*
X470700Y228600D02*
X546100Y228600D01*
X457200Y711200D02*
X393700Y711200D01*
X457200Y711200D02*
X482600Y685800D01*
X546100Y685800D01*
X292100Y444500D02*
X292100Y393700D01*
X342900Y342900D01*
X342900Y317500D01*
X419500Y279800D02*
X460300Y239000D01*
X419500Y279800D02*
X407200Y292100D01*
X349250Y292100D02*
X342900Y298450D01*
X342900Y317500D01*
X349250Y292100D02*
X407200Y292100D01*
D29*
X419500Y279800D03*
D28*
X393700Y736600D02*
X482600Y736600D01*
X520700Y698500D01*
X565150Y698500D01*
X571500Y692150D01*
X571500Y679450D01*
X565150Y673100D01*
X501650Y673100D02*
X419100Y590550D01*
X419100Y393700D01*
X501650Y673100D02*
X565150Y673100D01*
X419100Y393700D02*
X393700Y393700D01*
X419100Y368300D02*
X419100Y317500D01*
X393700Y609600D02*
X374650Y609600D01*
X349250Y584200D01*
X349250Y368300D02*
X368300Y349250D01*
X368300Y317500D01*
X349250Y368300D02*
X349250Y584200D01*
X381000Y584200D02*
X393700Y584200D01*
X381000Y584200D02*
X361950Y565150D01*
X361950Y381000D02*
X393700Y349250D01*
X393700Y317500D01*
X361950Y381000D02*
X361950Y565150D01*
X203200Y539750D02*
X203200Y774700D01*
X247650Y495300D02*
X292100Y495300D01*
X247650Y495300D02*
X203200Y539750D01*
X390906Y860806D02*
X393700Y863600D01*
X390906Y860806D02*
X311912Y860806D01*
X203200Y914400D02*
X190500Y914400D01*
X177800Y901700D01*
X190500Y952500D02*
X203200Y952500D01*
X190500Y952500D02*
X177800Y965200D01*
X685800Y457200D02*
X685800Y444500D01*
X673100Y431800D01*
X584200Y266700D02*
X584200Y101600D01*
X584200Y266700D02*
X558800Y292100D01*
X546100Y292100D01*
X152400Y901700D02*
X152400Y965200D01*
X152400Y901700D02*
X133350Y882650D01*
X82550Y882650D02*
X38100Y838200D01*
X38100Y762000D01*
X57150Y742950D01*
X57150Y607450D01*
X49000Y599300D01*
X82550Y882650D02*
X133350Y882650D01*
X177800Y774700D02*
X50800Y774700D01*
X38100Y762000D01*
X177800Y774700D02*
X190500Y787400D01*
X285750Y787400D01*
X292100Y781050D01*
D29*
X292100Y781050D03*
D28*
X317500Y723900D02*
X355600Y685800D01*
X393700Y685800D01*
X317500Y723900D02*
X292100Y749300D01*
X292100Y781050D01*
X685800Y666750D02*
X685800Y457200D01*
X685800Y666750D02*
X641350Y711200D01*
X546100Y711200D01*
D29*
X355600Y685800D03*
D28*
X393700Y914400D02*
X304800Y914400D01*
X317500Y939800D02*
X393700Y939800D01*
X317500Y939800D02*
X304800Y952500D01*
M02*
