G04 EAGLE Gerber RS-274X export*
G75*
%MOMM*%
%FSLAX34Y34*%
%LPD*%
%IN*%
%IPPOS*%
%AMOC8*
5,1,8,0,0,1.08239X$1,22.5*%
G01*
%ADD10C,0.254000*%


D10*
X0Y0D02*
X711000Y0D01*
X711000Y1000000D01*
X0Y1000000D01*
X0Y0D01*
X690600Y964627D02*
X690525Y963484D01*
X690376Y962348D01*
X690152Y961224D01*
X689855Y960117D01*
X689487Y959032D01*
X689049Y957974D01*
X688542Y956946D01*
X687969Y955954D01*
X687332Y955001D01*
X686635Y954092D01*
X685879Y953231D01*
X685069Y952421D01*
X684208Y951665D01*
X683299Y950968D01*
X682346Y950331D01*
X681354Y949758D01*
X680326Y949251D01*
X679268Y948813D01*
X678183Y948445D01*
X677076Y948148D01*
X675952Y947925D01*
X674816Y947775D01*
X673673Y947700D01*
X672527Y947700D01*
X671384Y947775D01*
X670248Y947925D01*
X669124Y948148D01*
X668017Y948445D01*
X666932Y948813D01*
X665874Y949251D01*
X664846Y949758D01*
X663854Y950331D01*
X662901Y950968D01*
X661992Y951665D01*
X661131Y952421D01*
X660321Y953231D01*
X659565Y954092D01*
X658868Y955001D01*
X658231Y955954D01*
X657658Y956946D01*
X657151Y957974D01*
X656713Y959032D01*
X656345Y960117D01*
X656048Y961224D01*
X655825Y962348D01*
X655675Y963484D01*
X655600Y964627D01*
X655600Y965773D01*
X655675Y966916D01*
X655825Y968052D01*
X656048Y969176D01*
X656345Y970283D01*
X656713Y971368D01*
X657151Y972426D01*
X657658Y973454D01*
X658231Y974446D01*
X658868Y975399D01*
X659565Y976308D01*
X660321Y977169D01*
X661131Y977979D01*
X661992Y978735D01*
X662901Y979432D01*
X663854Y980069D01*
X664846Y980642D01*
X665874Y981149D01*
X666932Y981587D01*
X668017Y981955D01*
X669124Y982252D01*
X670248Y982476D01*
X671384Y982625D01*
X672527Y982700D01*
X673673Y982700D01*
X674816Y982625D01*
X675952Y982476D01*
X677076Y982252D01*
X678183Y981955D01*
X679268Y981587D01*
X680326Y981149D01*
X681354Y980642D01*
X682346Y980069D01*
X683299Y979432D01*
X684208Y978735D01*
X685069Y977979D01*
X685879Y977169D01*
X686635Y976308D01*
X687332Y975399D01*
X687969Y974446D01*
X688542Y973454D01*
X689049Y972426D01*
X689487Y971368D01*
X689855Y970283D01*
X690152Y969176D01*
X690376Y968052D01*
X690525Y966916D01*
X690600Y965773D01*
X690600Y964627D01*
X55600Y964627D02*
X55525Y963484D01*
X55376Y962348D01*
X55152Y961224D01*
X54855Y960117D01*
X54487Y959032D01*
X54049Y957974D01*
X53542Y956946D01*
X52969Y955954D01*
X52332Y955001D01*
X51635Y954092D01*
X50879Y953231D01*
X50069Y952421D01*
X49208Y951665D01*
X48299Y950968D01*
X47346Y950331D01*
X46354Y949758D01*
X45326Y949251D01*
X44268Y948813D01*
X43183Y948445D01*
X42076Y948148D01*
X40952Y947925D01*
X39816Y947775D01*
X38673Y947700D01*
X37527Y947700D01*
X36384Y947775D01*
X35248Y947925D01*
X34124Y948148D01*
X33017Y948445D01*
X31932Y948813D01*
X30874Y949251D01*
X29846Y949758D01*
X28854Y950331D01*
X27901Y950968D01*
X26992Y951665D01*
X26131Y952421D01*
X25321Y953231D01*
X24565Y954092D01*
X23868Y955001D01*
X23231Y955954D01*
X22658Y956946D01*
X22151Y957974D01*
X21713Y959032D01*
X21345Y960117D01*
X21048Y961224D01*
X20825Y962348D01*
X20675Y963484D01*
X20600Y964627D01*
X20600Y965773D01*
X20675Y966916D01*
X20825Y968052D01*
X21048Y969176D01*
X21345Y970283D01*
X21713Y971368D01*
X22151Y972426D01*
X22658Y973454D01*
X23231Y974446D01*
X23868Y975399D01*
X24565Y976308D01*
X25321Y977169D01*
X26131Y977979D01*
X26992Y978735D01*
X27901Y979432D01*
X28854Y980069D01*
X29846Y980642D01*
X30874Y981149D01*
X31932Y981587D01*
X33017Y981955D01*
X34124Y982252D01*
X35248Y982476D01*
X36384Y982625D01*
X37527Y982700D01*
X38673Y982700D01*
X39816Y982625D01*
X40952Y982476D01*
X42076Y982252D01*
X43183Y981955D01*
X44268Y981587D01*
X45326Y981149D01*
X46354Y980642D01*
X47346Y980069D01*
X48299Y979432D01*
X49208Y978735D01*
X50069Y977979D01*
X50879Y977169D01*
X51635Y976308D01*
X52332Y975399D01*
X52969Y974446D01*
X53542Y973454D01*
X54049Y972426D01*
X54487Y971368D01*
X54855Y970283D01*
X55152Y969176D01*
X55376Y968052D01*
X55525Y966916D01*
X55600Y965773D01*
X55600Y964627D01*
X55600Y37527D02*
X55525Y36384D01*
X55376Y35248D01*
X55152Y34124D01*
X54855Y33017D01*
X54487Y31932D01*
X54049Y30874D01*
X53542Y29846D01*
X52969Y28854D01*
X52332Y27901D01*
X51635Y26992D01*
X50879Y26131D01*
X50069Y25321D01*
X49208Y24565D01*
X48299Y23868D01*
X47346Y23231D01*
X46354Y22658D01*
X45326Y22151D01*
X44268Y21713D01*
X43183Y21345D01*
X42076Y21048D01*
X40952Y20825D01*
X39816Y20675D01*
X38673Y20600D01*
X37527Y20600D01*
X36384Y20675D01*
X35248Y20825D01*
X34124Y21048D01*
X33017Y21345D01*
X31932Y21713D01*
X30874Y22151D01*
X29846Y22658D01*
X28854Y23231D01*
X27901Y23868D01*
X26992Y24565D01*
X26131Y25321D01*
X25321Y26131D01*
X24565Y26992D01*
X23868Y27901D01*
X23231Y28854D01*
X22658Y29846D01*
X22151Y30874D01*
X21713Y31932D01*
X21345Y33017D01*
X21048Y34124D01*
X20825Y35248D01*
X20675Y36384D01*
X20600Y37527D01*
X20600Y38673D01*
X20675Y39816D01*
X20825Y40952D01*
X21048Y42076D01*
X21345Y43183D01*
X21713Y44268D01*
X22151Y45326D01*
X22658Y46354D01*
X23231Y47346D01*
X23868Y48299D01*
X24565Y49208D01*
X25321Y50069D01*
X26131Y50879D01*
X26992Y51635D01*
X27901Y52332D01*
X28854Y52969D01*
X29846Y53542D01*
X30874Y54049D01*
X31932Y54487D01*
X33017Y54855D01*
X34124Y55152D01*
X35248Y55376D01*
X36384Y55525D01*
X37527Y55600D01*
X38673Y55600D01*
X39816Y55525D01*
X40952Y55376D01*
X42076Y55152D01*
X43183Y54855D01*
X44268Y54487D01*
X45326Y54049D01*
X46354Y53542D01*
X47346Y52969D01*
X48299Y52332D01*
X49208Y51635D01*
X50069Y50879D01*
X50879Y50069D01*
X51635Y49208D01*
X52332Y48299D01*
X52969Y47346D01*
X53542Y46354D01*
X54049Y45326D01*
X54487Y44268D01*
X54855Y43183D01*
X55152Y42076D01*
X55376Y40952D01*
X55525Y39816D01*
X55600Y38673D01*
X55600Y37527D01*
X690600Y37527D02*
X690525Y36384D01*
X690376Y35248D01*
X690152Y34124D01*
X689855Y33017D01*
X689487Y31932D01*
X689049Y30874D01*
X688542Y29846D01*
X687969Y28854D01*
X687332Y27901D01*
X686635Y26992D01*
X685879Y26131D01*
X685069Y25321D01*
X684208Y24565D01*
X683299Y23868D01*
X682346Y23231D01*
X681354Y22658D01*
X680326Y22151D01*
X679268Y21713D01*
X678183Y21345D01*
X677076Y21048D01*
X675952Y20825D01*
X674816Y20675D01*
X673673Y20600D01*
X672527Y20600D01*
X671384Y20675D01*
X670248Y20825D01*
X669124Y21048D01*
X668017Y21345D01*
X666932Y21713D01*
X665874Y22151D01*
X664846Y22658D01*
X663854Y23231D01*
X662901Y23868D01*
X661992Y24565D01*
X661131Y25321D01*
X660321Y26131D01*
X659565Y26992D01*
X658868Y27901D01*
X658231Y28854D01*
X657658Y29846D01*
X657151Y30874D01*
X656713Y31932D01*
X656345Y33017D01*
X656048Y34124D01*
X655825Y35248D01*
X655675Y36384D01*
X655600Y37527D01*
X655600Y38673D01*
X655675Y39816D01*
X655825Y40952D01*
X656048Y42076D01*
X656345Y43183D01*
X656713Y44268D01*
X657151Y45326D01*
X657658Y46354D01*
X658231Y47346D01*
X658868Y48299D01*
X659565Y49208D01*
X660321Y50069D01*
X661131Y50879D01*
X661992Y51635D01*
X662901Y52332D01*
X663854Y52969D01*
X664846Y53542D01*
X665874Y54049D01*
X666932Y54487D01*
X668017Y54855D01*
X669124Y55152D01*
X670248Y55376D01*
X671384Y55525D01*
X672527Y55600D01*
X673673Y55600D01*
X674816Y55525D01*
X675952Y55376D01*
X677076Y55152D01*
X678183Y54855D01*
X679268Y54487D01*
X680326Y54049D01*
X681354Y53542D01*
X682346Y52969D01*
X683299Y52332D01*
X684208Y51635D01*
X685069Y50879D01*
X685879Y50069D01*
X686635Y49208D01*
X687332Y48299D01*
X687969Y47346D01*
X688542Y46354D01*
X689049Y45326D01*
X689487Y44268D01*
X689855Y43183D01*
X690152Y42076D01*
X690376Y40952D01*
X690525Y39816D01*
X690600Y38673D01*
X690600Y37527D01*
M02*
