G04 EAGLE Gerber RS-274X export*
G75*
%MOMM*%
%FSLAX34Y34*%
%LPD*%
%INSoldermask Top*%
%IPPOS*%
%AMOC8*
5,1,8,0,0,1.08239X$1,22.5*%
G01*
%ADD10C,3.703200*%
%ADD11P,1.951982X8X112.500000*%
%ADD12C,1.803400*%
%ADD13C,2.743200*%
%ADD14P,1.649562X8X112.500000*%
%ADD15P,1.649562X8X292.500000*%
%ADD16C,2.082800*%
%ADD17C,1.625600*%
%ADD18C,1.511200*%
%ADD19C,1.511200*%
%ADD20R,1.511200X1.511200*%
%ADD21C,1.524000*%
%ADD22P,1.649562X8X202.500000*%
%ADD23P,1.649562X8X22.500000*%
%ADD24C,2.298700*%
%ADD25C,1.625600*%
%ADD26C,1.611200*%
%ADD27C,0.959600*%

G36*
X165649Y667323D02*
X165649Y667323D01*
X165697Y667337D01*
X165787Y667355D01*
X166696Y667676D01*
X166740Y667701D01*
X166824Y667738D01*
X167639Y668253D01*
X167676Y668287D01*
X167749Y668342D01*
X168429Y669026D01*
X168458Y669067D01*
X168517Y669137D01*
X169028Y669955D01*
X169046Y670002D01*
X169089Y670083D01*
X169404Y670994D01*
X169412Y671044D01*
X169436Y671133D01*
X169541Y672091D01*
X169538Y672121D01*
X169544Y672160D01*
X169544Y672261D01*
X169539Y672289D01*
X169541Y672325D01*
X169442Y673298D01*
X169429Y673347D01*
X169412Y673437D01*
X169100Y674364D01*
X169075Y674408D01*
X169040Y674493D01*
X168529Y675327D01*
X168495Y675365D01*
X168441Y675439D01*
X167757Y676139D01*
X167716Y676168D01*
X167647Y676228D01*
X166825Y676758D01*
X166778Y676778D01*
X166698Y676822D01*
X165778Y677155D01*
X165729Y677164D01*
X165640Y677189D01*
X164669Y677309D01*
X164659Y677309D01*
X164647Y677312D01*
X164344Y677339D01*
X164294Y677334D01*
X164195Y677334D01*
X163238Y677192D01*
X163190Y677176D01*
X163100Y677156D01*
X162198Y676804D01*
X162155Y676778D01*
X162073Y676738D01*
X161272Y676195D01*
X161236Y676159D01*
X161164Y676102D01*
X160504Y675394D01*
X160477Y675352D01*
X160420Y675280D01*
X159934Y674443D01*
X159917Y674395D01*
X159877Y674312D01*
X159590Y673388D01*
X159584Y673338D01*
X159563Y673248D01*
X159497Y672383D01*
X159495Y672375D01*
X159495Y672357D01*
X159492Y672316D01*
X159488Y672287D01*
X159488Y672235D01*
X159493Y672208D01*
X159596Y671241D01*
X159610Y671193D01*
X159627Y671102D01*
X159946Y670172D01*
X159971Y670128D01*
X160007Y670043D01*
X160526Y669207D01*
X160559Y669170D01*
X160614Y669096D01*
X161305Y668396D01*
X161347Y668367D01*
X161416Y668306D01*
X162246Y667778D01*
X162293Y667759D01*
X162374Y667716D01*
X163301Y667385D01*
X163351Y667377D01*
X163439Y667353D01*
X164392Y667240D01*
X164496Y667220D01*
X164500Y667220D01*
X164503Y667218D01*
X164691Y667212D01*
X165649Y667323D01*
G37*
G36*
X100625Y667298D02*
X100625Y667298D01*
X100673Y667312D01*
X100763Y667330D01*
X101672Y667651D01*
X101716Y667676D01*
X101800Y667713D01*
X102615Y668228D01*
X102652Y668262D01*
X102725Y668317D01*
X103405Y669001D01*
X103434Y669042D01*
X103493Y669112D01*
X104004Y669930D01*
X104022Y669977D01*
X104065Y670058D01*
X104380Y670969D01*
X104388Y671019D01*
X104412Y671108D01*
X104517Y672066D01*
X104514Y672096D01*
X104520Y672135D01*
X104520Y672236D01*
X104515Y672264D01*
X104517Y672300D01*
X104418Y673273D01*
X104405Y673322D01*
X104388Y673412D01*
X104076Y674339D01*
X104051Y674383D01*
X104016Y674468D01*
X103505Y675302D01*
X103471Y675340D01*
X103417Y675414D01*
X102733Y676114D01*
X102692Y676143D01*
X102623Y676203D01*
X101801Y676733D01*
X101754Y676753D01*
X101674Y676797D01*
X100754Y677130D01*
X100705Y677139D01*
X100616Y677164D01*
X99645Y677284D01*
X99635Y677284D01*
X99623Y677287D01*
X99320Y677314D01*
X99270Y677309D01*
X99171Y677309D01*
X98214Y677167D01*
X98166Y677151D01*
X98076Y677131D01*
X97174Y676779D01*
X97131Y676753D01*
X97049Y676713D01*
X96248Y676170D01*
X96212Y676134D01*
X96140Y676077D01*
X95480Y675369D01*
X95453Y675327D01*
X95396Y675255D01*
X94910Y674418D01*
X94893Y674370D01*
X94853Y674287D01*
X94566Y673363D01*
X94560Y673313D01*
X94539Y673223D01*
X94473Y672358D01*
X94471Y672350D01*
X94471Y672332D01*
X94468Y672291D01*
X94464Y672262D01*
X94464Y672210D01*
X94469Y672183D01*
X94572Y671216D01*
X94586Y671168D01*
X94603Y671077D01*
X94922Y670147D01*
X94947Y670103D01*
X94983Y670018D01*
X95502Y669182D01*
X95535Y669145D01*
X95590Y669071D01*
X96281Y668371D01*
X96323Y668342D01*
X96392Y668281D01*
X97222Y667753D01*
X97269Y667734D01*
X97350Y667691D01*
X98277Y667360D01*
X98327Y667352D01*
X98415Y667328D01*
X99368Y667215D01*
X99472Y667195D01*
X99476Y667195D01*
X99479Y667193D01*
X99667Y667187D01*
X100625Y667298D01*
G37*
G36*
X100625Y622060D02*
X100625Y622060D01*
X100673Y622074D01*
X100763Y622092D01*
X101672Y622413D01*
X101716Y622438D01*
X101800Y622475D01*
X102615Y622990D01*
X102652Y623024D01*
X102725Y623079D01*
X103405Y623763D01*
X103434Y623804D01*
X103493Y623874D01*
X104004Y624692D01*
X104022Y624739D01*
X104065Y624820D01*
X104380Y625731D01*
X104388Y625781D01*
X104412Y625870D01*
X104517Y626828D01*
X104514Y626858D01*
X104520Y626897D01*
X104520Y626998D01*
X104515Y627026D01*
X104517Y627062D01*
X104418Y628035D01*
X104405Y628084D01*
X104388Y628174D01*
X104076Y629101D01*
X104051Y629145D01*
X104016Y629230D01*
X103505Y630064D01*
X103471Y630102D01*
X103417Y630176D01*
X102733Y630876D01*
X102692Y630905D01*
X102623Y630965D01*
X101801Y631495D01*
X101754Y631515D01*
X101674Y631559D01*
X100754Y631892D01*
X100705Y631901D01*
X100616Y631926D01*
X99645Y632046D01*
X99635Y632046D01*
X99623Y632049D01*
X99320Y632076D01*
X99270Y632071D01*
X99171Y632071D01*
X98214Y631929D01*
X98166Y631913D01*
X98076Y631893D01*
X97174Y631541D01*
X97131Y631515D01*
X97049Y631475D01*
X96248Y630932D01*
X96212Y630896D01*
X96140Y630839D01*
X95480Y630131D01*
X95453Y630089D01*
X95396Y630017D01*
X94910Y629180D01*
X94893Y629132D01*
X94853Y629049D01*
X94566Y628125D01*
X94560Y628075D01*
X94539Y627985D01*
X94473Y627120D01*
X94471Y627112D01*
X94471Y627094D01*
X94468Y627053D01*
X94464Y627024D01*
X94464Y626972D01*
X94469Y626945D01*
X94572Y625978D01*
X94586Y625930D01*
X94603Y625839D01*
X94922Y624909D01*
X94947Y624865D01*
X94983Y624780D01*
X95502Y623944D01*
X95535Y623907D01*
X95590Y623833D01*
X96281Y623133D01*
X96323Y623104D01*
X96392Y623043D01*
X97222Y622515D01*
X97269Y622496D01*
X97350Y622453D01*
X98277Y622122D01*
X98327Y622114D01*
X98415Y622090D01*
X99368Y621977D01*
X99472Y621957D01*
X99476Y621957D01*
X99479Y621955D01*
X99667Y621949D01*
X100625Y622060D01*
G37*
G36*
X165700Y622035D02*
X165700Y622035D01*
X165748Y622049D01*
X165838Y622067D01*
X166747Y622388D01*
X166791Y622413D01*
X166875Y622450D01*
X167690Y622965D01*
X167727Y622999D01*
X167800Y623054D01*
X168480Y623738D01*
X168509Y623779D01*
X168568Y623849D01*
X169079Y624667D01*
X169097Y624714D01*
X169140Y624795D01*
X169455Y625706D01*
X169463Y625756D01*
X169487Y625845D01*
X169592Y626803D01*
X169589Y626833D01*
X169595Y626872D01*
X169595Y626973D01*
X169590Y627001D01*
X169592Y627037D01*
X169493Y628010D01*
X169480Y628059D01*
X169463Y628149D01*
X169151Y629076D01*
X169126Y629120D01*
X169091Y629205D01*
X168580Y630039D01*
X168546Y630077D01*
X168492Y630151D01*
X167808Y630851D01*
X167767Y630880D01*
X167698Y630940D01*
X166876Y631470D01*
X166829Y631490D01*
X166749Y631534D01*
X165829Y631867D01*
X165780Y631876D01*
X165691Y631901D01*
X164720Y632021D01*
X164710Y632021D01*
X164698Y632024D01*
X164395Y632051D01*
X164345Y632046D01*
X164246Y632046D01*
X163289Y631904D01*
X163241Y631888D01*
X163151Y631868D01*
X162249Y631516D01*
X162206Y631490D01*
X162124Y631450D01*
X161323Y630907D01*
X161287Y630871D01*
X161215Y630814D01*
X160555Y630106D01*
X160528Y630064D01*
X160471Y629992D01*
X159985Y629155D01*
X159968Y629107D01*
X159928Y629024D01*
X159641Y628100D01*
X159635Y628050D01*
X159614Y627960D01*
X159548Y627095D01*
X159546Y627087D01*
X159546Y627069D01*
X159543Y627028D01*
X159539Y626999D01*
X159539Y626947D01*
X159544Y626920D01*
X159647Y625953D01*
X159661Y625905D01*
X159678Y625814D01*
X159997Y624884D01*
X160022Y624840D01*
X160058Y624755D01*
X160577Y623919D01*
X160610Y623882D01*
X160665Y623808D01*
X161356Y623108D01*
X161398Y623079D01*
X161467Y623018D01*
X162297Y622490D01*
X162344Y622471D01*
X162425Y622428D01*
X163352Y622097D01*
X163402Y622089D01*
X163490Y622065D01*
X164443Y621952D01*
X164547Y621932D01*
X164551Y621932D01*
X164554Y621930D01*
X164742Y621924D01*
X165700Y622035D01*
G37*
G36*
X185334Y412053D02*
X185334Y412053D01*
X185382Y412067D01*
X185472Y412085D01*
X186381Y412406D01*
X186425Y412431D01*
X186509Y412468D01*
X187324Y412983D01*
X187361Y413017D01*
X187434Y413072D01*
X188114Y413756D01*
X188143Y413797D01*
X188202Y413867D01*
X188713Y414685D01*
X188731Y414732D01*
X188774Y414813D01*
X189089Y415724D01*
X189097Y415774D01*
X189121Y415863D01*
X189226Y416821D01*
X189223Y416851D01*
X189229Y416890D01*
X189229Y416991D01*
X189224Y417019D01*
X189226Y417055D01*
X189127Y418028D01*
X189114Y418077D01*
X189097Y418167D01*
X188785Y419094D01*
X188760Y419138D01*
X188725Y419223D01*
X188214Y420057D01*
X188180Y420095D01*
X188126Y420169D01*
X187442Y420869D01*
X187401Y420898D01*
X187332Y420958D01*
X186510Y421488D01*
X186463Y421508D01*
X186383Y421552D01*
X185463Y421885D01*
X185414Y421894D01*
X185325Y421919D01*
X184354Y422039D01*
X184344Y422039D01*
X184332Y422042D01*
X184029Y422069D01*
X183979Y422064D01*
X183880Y422064D01*
X182923Y421922D01*
X182875Y421906D01*
X182785Y421886D01*
X181883Y421534D01*
X181840Y421508D01*
X181758Y421468D01*
X180957Y420925D01*
X180921Y420889D01*
X180849Y420832D01*
X180189Y420124D01*
X180162Y420082D01*
X180105Y420010D01*
X179619Y419173D01*
X179602Y419125D01*
X179562Y419042D01*
X179275Y418118D01*
X179269Y418068D01*
X179248Y417978D01*
X179182Y417113D01*
X179180Y417105D01*
X179180Y417087D01*
X179177Y417046D01*
X179173Y417017D01*
X179173Y416965D01*
X179178Y416938D01*
X179281Y415971D01*
X179295Y415923D01*
X179312Y415832D01*
X179631Y414902D01*
X179656Y414858D01*
X179692Y414773D01*
X180211Y413937D01*
X180244Y413900D01*
X180299Y413826D01*
X180990Y413126D01*
X181032Y413097D01*
X181101Y413036D01*
X181931Y412508D01*
X181978Y412489D01*
X182059Y412446D01*
X182986Y412115D01*
X183036Y412107D01*
X183124Y412083D01*
X184077Y411970D01*
X184181Y411950D01*
X184185Y411950D01*
X184188Y411948D01*
X184376Y411942D01*
X185334Y412053D01*
G37*
G36*
X120310Y412028D02*
X120310Y412028D01*
X120358Y412042D01*
X120448Y412060D01*
X121357Y412381D01*
X121401Y412406D01*
X121485Y412443D01*
X122300Y412958D01*
X122337Y412992D01*
X122410Y413047D01*
X123090Y413731D01*
X123119Y413772D01*
X123178Y413842D01*
X123689Y414660D01*
X123707Y414707D01*
X123750Y414788D01*
X124065Y415699D01*
X124073Y415749D01*
X124097Y415838D01*
X124202Y416796D01*
X124199Y416826D01*
X124205Y416865D01*
X124205Y416966D01*
X124200Y416994D01*
X124202Y417030D01*
X124103Y418003D01*
X124090Y418052D01*
X124073Y418142D01*
X123761Y419069D01*
X123736Y419113D01*
X123701Y419198D01*
X123190Y420032D01*
X123156Y420070D01*
X123102Y420144D01*
X122418Y420844D01*
X122377Y420873D01*
X122308Y420933D01*
X121486Y421463D01*
X121439Y421483D01*
X121359Y421527D01*
X120439Y421860D01*
X120390Y421869D01*
X120301Y421894D01*
X119330Y422014D01*
X119320Y422014D01*
X119308Y422017D01*
X119005Y422044D01*
X118955Y422039D01*
X118856Y422039D01*
X117899Y421897D01*
X117851Y421881D01*
X117761Y421861D01*
X116859Y421509D01*
X116816Y421483D01*
X116734Y421443D01*
X115933Y420900D01*
X115897Y420864D01*
X115825Y420807D01*
X115165Y420099D01*
X115138Y420057D01*
X115081Y419985D01*
X114595Y419148D01*
X114578Y419100D01*
X114538Y419017D01*
X114251Y418093D01*
X114245Y418043D01*
X114224Y417953D01*
X114158Y417088D01*
X114156Y417080D01*
X114156Y417062D01*
X114153Y417021D01*
X114149Y416992D01*
X114149Y416940D01*
X114154Y416913D01*
X114257Y415946D01*
X114271Y415898D01*
X114288Y415807D01*
X114607Y414877D01*
X114632Y414833D01*
X114668Y414748D01*
X115187Y413912D01*
X115220Y413875D01*
X115275Y413801D01*
X115966Y413101D01*
X116008Y413072D01*
X116077Y413011D01*
X116907Y412483D01*
X116954Y412464D01*
X117035Y412421D01*
X117962Y412090D01*
X118012Y412082D01*
X118100Y412058D01*
X119053Y411945D01*
X119157Y411925D01*
X119161Y411925D01*
X119164Y411923D01*
X119352Y411917D01*
X120310Y412028D01*
G37*
G36*
X120310Y366790D02*
X120310Y366790D01*
X120358Y366804D01*
X120448Y366822D01*
X121357Y367143D01*
X121401Y367168D01*
X121485Y367205D01*
X122300Y367720D01*
X122337Y367754D01*
X122410Y367809D01*
X123090Y368493D01*
X123119Y368534D01*
X123178Y368604D01*
X123689Y369422D01*
X123707Y369469D01*
X123750Y369550D01*
X124065Y370461D01*
X124073Y370511D01*
X124097Y370600D01*
X124202Y371558D01*
X124199Y371588D01*
X124205Y371627D01*
X124205Y371728D01*
X124200Y371756D01*
X124202Y371792D01*
X124103Y372765D01*
X124090Y372814D01*
X124073Y372904D01*
X123761Y373831D01*
X123736Y373875D01*
X123701Y373960D01*
X123190Y374794D01*
X123156Y374832D01*
X123102Y374906D01*
X122418Y375606D01*
X122377Y375635D01*
X122308Y375695D01*
X121486Y376225D01*
X121439Y376245D01*
X121359Y376289D01*
X120439Y376622D01*
X120390Y376631D01*
X120301Y376656D01*
X119330Y376776D01*
X119320Y376776D01*
X119308Y376779D01*
X119005Y376806D01*
X118955Y376801D01*
X118856Y376801D01*
X117899Y376659D01*
X117851Y376643D01*
X117761Y376623D01*
X116859Y376271D01*
X116816Y376245D01*
X116734Y376205D01*
X115933Y375662D01*
X115897Y375626D01*
X115825Y375569D01*
X115165Y374861D01*
X115138Y374819D01*
X115081Y374747D01*
X114595Y373910D01*
X114578Y373862D01*
X114538Y373779D01*
X114251Y372855D01*
X114245Y372805D01*
X114224Y372715D01*
X114158Y371850D01*
X114156Y371842D01*
X114156Y371824D01*
X114153Y371783D01*
X114149Y371754D01*
X114149Y371702D01*
X114154Y371675D01*
X114257Y370708D01*
X114271Y370660D01*
X114288Y370569D01*
X114607Y369639D01*
X114632Y369595D01*
X114668Y369510D01*
X115187Y368674D01*
X115220Y368637D01*
X115275Y368563D01*
X115966Y367863D01*
X116008Y367834D01*
X116077Y367773D01*
X116907Y367245D01*
X116954Y367226D01*
X117035Y367183D01*
X117962Y366852D01*
X118012Y366844D01*
X118100Y366820D01*
X119053Y366707D01*
X119157Y366687D01*
X119161Y366687D01*
X119164Y366685D01*
X119352Y366679D01*
X120310Y366790D01*
G37*
G36*
X185385Y366765D02*
X185385Y366765D01*
X185433Y366779D01*
X185523Y366797D01*
X186432Y367118D01*
X186476Y367143D01*
X186560Y367180D01*
X187375Y367695D01*
X187412Y367729D01*
X187485Y367784D01*
X188165Y368468D01*
X188194Y368509D01*
X188253Y368579D01*
X188764Y369397D01*
X188782Y369444D01*
X188825Y369525D01*
X189140Y370436D01*
X189148Y370486D01*
X189172Y370575D01*
X189277Y371533D01*
X189274Y371563D01*
X189280Y371602D01*
X189280Y371703D01*
X189275Y371731D01*
X189277Y371767D01*
X189178Y372740D01*
X189165Y372789D01*
X189148Y372879D01*
X188836Y373806D01*
X188811Y373850D01*
X188776Y373935D01*
X188265Y374769D01*
X188231Y374807D01*
X188177Y374881D01*
X187493Y375581D01*
X187452Y375610D01*
X187383Y375670D01*
X186561Y376200D01*
X186514Y376220D01*
X186434Y376264D01*
X185514Y376597D01*
X185465Y376606D01*
X185376Y376631D01*
X184405Y376751D01*
X184395Y376751D01*
X184383Y376754D01*
X184080Y376781D01*
X184030Y376776D01*
X183931Y376776D01*
X182974Y376634D01*
X182926Y376618D01*
X182836Y376598D01*
X181934Y376246D01*
X181891Y376220D01*
X181809Y376180D01*
X181008Y375637D01*
X180972Y375601D01*
X180900Y375544D01*
X180240Y374836D01*
X180213Y374794D01*
X180156Y374722D01*
X179670Y373885D01*
X179653Y373837D01*
X179613Y373754D01*
X179326Y372830D01*
X179320Y372780D01*
X179299Y372690D01*
X179233Y371825D01*
X179231Y371817D01*
X179231Y371799D01*
X179228Y371758D01*
X179224Y371729D01*
X179224Y371677D01*
X179229Y371650D01*
X179332Y370683D01*
X179346Y370635D01*
X179363Y370544D01*
X179682Y369614D01*
X179707Y369570D01*
X179743Y369485D01*
X180262Y368649D01*
X180295Y368612D01*
X180350Y368538D01*
X181041Y367838D01*
X181083Y367809D01*
X181152Y367748D01*
X181982Y367220D01*
X182029Y367201D01*
X182110Y367158D01*
X183037Y366827D01*
X183087Y366819D01*
X183175Y366795D01*
X184128Y366682D01*
X184232Y366662D01*
X184236Y366662D01*
X184239Y366660D01*
X184427Y366654D01*
X185385Y366765D01*
G37*
G36*
X185969Y287593D02*
X185969Y287593D01*
X186017Y287607D01*
X186107Y287625D01*
X187016Y287946D01*
X187060Y287971D01*
X187144Y288008D01*
X187959Y288523D01*
X187996Y288557D01*
X188069Y288612D01*
X188749Y289296D01*
X188778Y289337D01*
X188837Y289407D01*
X189348Y290225D01*
X189366Y290272D01*
X189409Y290353D01*
X189724Y291264D01*
X189732Y291314D01*
X189756Y291403D01*
X189861Y292361D01*
X189858Y292391D01*
X189864Y292430D01*
X189864Y292531D01*
X189859Y292559D01*
X189861Y292595D01*
X189762Y293568D01*
X189749Y293617D01*
X189732Y293707D01*
X189420Y294634D01*
X189395Y294678D01*
X189360Y294763D01*
X188849Y295597D01*
X188815Y295635D01*
X188761Y295709D01*
X188077Y296409D01*
X188036Y296438D01*
X187967Y296498D01*
X187145Y297028D01*
X187098Y297048D01*
X187018Y297092D01*
X186098Y297425D01*
X186049Y297434D01*
X185960Y297459D01*
X184989Y297579D01*
X184979Y297579D01*
X184967Y297582D01*
X184664Y297609D01*
X184614Y297604D01*
X184515Y297604D01*
X183558Y297462D01*
X183510Y297446D01*
X183420Y297426D01*
X182518Y297074D01*
X182475Y297048D01*
X182393Y297008D01*
X181592Y296465D01*
X181556Y296429D01*
X181484Y296372D01*
X180824Y295664D01*
X180797Y295622D01*
X180740Y295550D01*
X180254Y294713D01*
X180237Y294665D01*
X180197Y294582D01*
X179910Y293658D01*
X179904Y293608D01*
X179883Y293518D01*
X179817Y292653D01*
X179815Y292645D01*
X179815Y292627D01*
X179812Y292586D01*
X179808Y292557D01*
X179808Y292505D01*
X179813Y292478D01*
X179916Y291511D01*
X179930Y291463D01*
X179947Y291372D01*
X180266Y290442D01*
X180291Y290398D01*
X180327Y290313D01*
X180846Y289477D01*
X180879Y289440D01*
X180934Y289366D01*
X181625Y288666D01*
X181667Y288637D01*
X181736Y288576D01*
X182566Y288048D01*
X182613Y288029D01*
X182694Y287986D01*
X183621Y287655D01*
X183671Y287647D01*
X183759Y287623D01*
X184712Y287510D01*
X184816Y287490D01*
X184820Y287490D01*
X184823Y287488D01*
X185011Y287482D01*
X185969Y287593D01*
G37*
G36*
X120945Y287568D02*
X120945Y287568D01*
X120993Y287582D01*
X121083Y287600D01*
X121992Y287921D01*
X122036Y287946D01*
X122120Y287983D01*
X122935Y288498D01*
X122972Y288532D01*
X123045Y288587D01*
X123725Y289271D01*
X123754Y289312D01*
X123813Y289382D01*
X124324Y290200D01*
X124342Y290247D01*
X124385Y290328D01*
X124700Y291239D01*
X124708Y291289D01*
X124732Y291378D01*
X124837Y292336D01*
X124834Y292366D01*
X124840Y292405D01*
X124840Y292506D01*
X124835Y292534D01*
X124837Y292570D01*
X124738Y293543D01*
X124725Y293592D01*
X124708Y293682D01*
X124396Y294609D01*
X124371Y294653D01*
X124336Y294738D01*
X123825Y295572D01*
X123791Y295610D01*
X123737Y295684D01*
X123053Y296384D01*
X123012Y296413D01*
X122943Y296473D01*
X122121Y297003D01*
X122074Y297023D01*
X121994Y297067D01*
X121074Y297400D01*
X121025Y297409D01*
X120936Y297434D01*
X119965Y297554D01*
X119955Y297554D01*
X119943Y297557D01*
X119640Y297584D01*
X119590Y297579D01*
X119491Y297579D01*
X118534Y297437D01*
X118486Y297421D01*
X118396Y297401D01*
X117494Y297049D01*
X117451Y297023D01*
X117369Y296983D01*
X116568Y296440D01*
X116532Y296404D01*
X116460Y296347D01*
X115800Y295639D01*
X115773Y295597D01*
X115716Y295525D01*
X115230Y294688D01*
X115213Y294640D01*
X115173Y294557D01*
X114886Y293633D01*
X114880Y293583D01*
X114859Y293493D01*
X114793Y292628D01*
X114791Y292620D01*
X114791Y292602D01*
X114788Y292561D01*
X114784Y292532D01*
X114784Y292480D01*
X114789Y292453D01*
X114892Y291486D01*
X114906Y291438D01*
X114923Y291347D01*
X115242Y290417D01*
X115267Y290373D01*
X115303Y290288D01*
X115822Y289452D01*
X115855Y289415D01*
X115910Y289341D01*
X116601Y288641D01*
X116643Y288612D01*
X116712Y288551D01*
X117542Y288023D01*
X117589Y288004D01*
X117670Y287961D01*
X118597Y287630D01*
X118647Y287622D01*
X118735Y287598D01*
X119688Y287485D01*
X119792Y287465D01*
X119796Y287465D01*
X119799Y287463D01*
X119987Y287457D01*
X120945Y287568D01*
G37*
G36*
X120945Y242330D02*
X120945Y242330D01*
X120993Y242344D01*
X121083Y242362D01*
X121992Y242683D01*
X122036Y242708D01*
X122120Y242745D01*
X122935Y243260D01*
X122972Y243294D01*
X123045Y243349D01*
X123725Y244033D01*
X123754Y244074D01*
X123813Y244144D01*
X124324Y244962D01*
X124342Y245009D01*
X124385Y245090D01*
X124700Y246001D01*
X124708Y246051D01*
X124732Y246140D01*
X124837Y247098D01*
X124834Y247128D01*
X124840Y247167D01*
X124840Y247268D01*
X124835Y247296D01*
X124837Y247332D01*
X124738Y248305D01*
X124725Y248354D01*
X124708Y248444D01*
X124396Y249371D01*
X124371Y249415D01*
X124336Y249500D01*
X123825Y250334D01*
X123791Y250372D01*
X123737Y250446D01*
X123053Y251146D01*
X123012Y251175D01*
X122943Y251235D01*
X122121Y251765D01*
X122074Y251785D01*
X121994Y251829D01*
X121074Y252162D01*
X121025Y252171D01*
X120936Y252196D01*
X119965Y252316D01*
X119955Y252316D01*
X119943Y252319D01*
X119640Y252346D01*
X119590Y252341D01*
X119491Y252341D01*
X118534Y252199D01*
X118486Y252183D01*
X118396Y252163D01*
X117494Y251811D01*
X117451Y251785D01*
X117369Y251745D01*
X116568Y251202D01*
X116532Y251166D01*
X116460Y251109D01*
X115800Y250401D01*
X115773Y250359D01*
X115716Y250287D01*
X115230Y249450D01*
X115213Y249402D01*
X115173Y249319D01*
X114886Y248395D01*
X114880Y248345D01*
X114859Y248255D01*
X114793Y247390D01*
X114791Y247382D01*
X114791Y247364D01*
X114788Y247323D01*
X114784Y247294D01*
X114784Y247242D01*
X114789Y247215D01*
X114892Y246248D01*
X114906Y246200D01*
X114923Y246109D01*
X115242Y245179D01*
X115267Y245135D01*
X115303Y245050D01*
X115822Y244214D01*
X115855Y244177D01*
X115910Y244103D01*
X116601Y243403D01*
X116643Y243374D01*
X116712Y243313D01*
X117542Y242785D01*
X117589Y242766D01*
X117670Y242723D01*
X118597Y242392D01*
X118647Y242384D01*
X118735Y242360D01*
X119688Y242247D01*
X119792Y242227D01*
X119796Y242227D01*
X119799Y242225D01*
X119987Y242219D01*
X120945Y242330D01*
G37*
G36*
X186020Y242305D02*
X186020Y242305D01*
X186068Y242319D01*
X186158Y242337D01*
X187067Y242658D01*
X187111Y242683D01*
X187195Y242720D01*
X188010Y243235D01*
X188047Y243269D01*
X188120Y243324D01*
X188800Y244008D01*
X188829Y244049D01*
X188888Y244119D01*
X189399Y244937D01*
X189417Y244984D01*
X189460Y245065D01*
X189775Y245976D01*
X189783Y246026D01*
X189807Y246115D01*
X189912Y247073D01*
X189909Y247103D01*
X189915Y247142D01*
X189915Y247243D01*
X189910Y247271D01*
X189912Y247307D01*
X189813Y248280D01*
X189800Y248329D01*
X189783Y248419D01*
X189471Y249346D01*
X189446Y249390D01*
X189411Y249475D01*
X188900Y250309D01*
X188866Y250347D01*
X188812Y250421D01*
X188128Y251121D01*
X188087Y251150D01*
X188018Y251210D01*
X187196Y251740D01*
X187149Y251760D01*
X187069Y251804D01*
X186149Y252137D01*
X186100Y252146D01*
X186011Y252171D01*
X185040Y252291D01*
X185030Y252291D01*
X185018Y252294D01*
X184715Y252321D01*
X184665Y252316D01*
X184566Y252316D01*
X183609Y252174D01*
X183561Y252158D01*
X183471Y252138D01*
X182569Y251786D01*
X182526Y251760D01*
X182444Y251720D01*
X181643Y251177D01*
X181607Y251141D01*
X181535Y251084D01*
X180875Y250376D01*
X180848Y250334D01*
X180791Y250262D01*
X180305Y249425D01*
X180288Y249377D01*
X180248Y249294D01*
X179961Y248370D01*
X179955Y248320D01*
X179934Y248230D01*
X179868Y247365D01*
X179866Y247357D01*
X179866Y247339D01*
X179863Y247298D01*
X179859Y247269D01*
X179859Y247217D01*
X179864Y247190D01*
X179967Y246223D01*
X179981Y246175D01*
X179998Y246084D01*
X180317Y245154D01*
X180342Y245110D01*
X180378Y245025D01*
X180897Y244189D01*
X180930Y244152D01*
X180985Y244078D01*
X181676Y243378D01*
X181718Y243349D01*
X181787Y243288D01*
X182617Y242760D01*
X182664Y242741D01*
X182745Y242698D01*
X183672Y242367D01*
X183722Y242359D01*
X183810Y242335D01*
X184763Y242222D01*
X184867Y242202D01*
X184871Y242202D01*
X184874Y242200D01*
X185062Y242194D01*
X186020Y242305D01*
G37*
G36*
X185969Y163133D02*
X185969Y163133D01*
X186017Y163147D01*
X186107Y163165D01*
X187016Y163486D01*
X187060Y163511D01*
X187144Y163548D01*
X187959Y164063D01*
X187996Y164097D01*
X188069Y164152D01*
X188749Y164836D01*
X188778Y164877D01*
X188837Y164947D01*
X189348Y165765D01*
X189366Y165812D01*
X189409Y165893D01*
X189724Y166804D01*
X189732Y166854D01*
X189756Y166943D01*
X189861Y167901D01*
X189858Y167931D01*
X189864Y167970D01*
X189864Y168071D01*
X189859Y168099D01*
X189861Y168135D01*
X189762Y169108D01*
X189749Y169157D01*
X189732Y169247D01*
X189420Y170174D01*
X189395Y170218D01*
X189360Y170303D01*
X188849Y171137D01*
X188815Y171175D01*
X188761Y171249D01*
X188077Y171949D01*
X188036Y171978D01*
X187967Y172038D01*
X187145Y172568D01*
X187098Y172588D01*
X187018Y172632D01*
X186098Y172965D01*
X186049Y172974D01*
X185960Y172999D01*
X184989Y173119D01*
X184979Y173119D01*
X184967Y173122D01*
X184664Y173149D01*
X184614Y173144D01*
X184515Y173144D01*
X183558Y173002D01*
X183510Y172986D01*
X183420Y172966D01*
X182518Y172614D01*
X182475Y172588D01*
X182393Y172548D01*
X181592Y172005D01*
X181556Y171969D01*
X181484Y171912D01*
X180824Y171204D01*
X180797Y171162D01*
X180740Y171090D01*
X180254Y170253D01*
X180237Y170205D01*
X180197Y170122D01*
X179910Y169198D01*
X179904Y169148D01*
X179883Y169058D01*
X179817Y168193D01*
X179815Y168185D01*
X179815Y168167D01*
X179812Y168126D01*
X179808Y168097D01*
X179808Y168045D01*
X179813Y168018D01*
X179916Y167051D01*
X179930Y167003D01*
X179947Y166912D01*
X180266Y165982D01*
X180291Y165938D01*
X180327Y165853D01*
X180846Y165017D01*
X180879Y164980D01*
X180934Y164906D01*
X181625Y164206D01*
X181667Y164177D01*
X181736Y164116D01*
X182566Y163588D01*
X182613Y163569D01*
X182694Y163526D01*
X183621Y163195D01*
X183671Y163187D01*
X183759Y163163D01*
X184712Y163050D01*
X184816Y163030D01*
X184820Y163030D01*
X184823Y163028D01*
X185011Y163022D01*
X185969Y163133D01*
G37*
G36*
X120945Y163108D02*
X120945Y163108D01*
X120993Y163122D01*
X121083Y163140D01*
X121992Y163461D01*
X122036Y163486D01*
X122120Y163523D01*
X122935Y164038D01*
X122972Y164072D01*
X123045Y164127D01*
X123725Y164811D01*
X123754Y164852D01*
X123813Y164922D01*
X124324Y165740D01*
X124342Y165787D01*
X124385Y165868D01*
X124700Y166779D01*
X124708Y166829D01*
X124732Y166918D01*
X124837Y167876D01*
X124834Y167906D01*
X124840Y167945D01*
X124840Y168046D01*
X124835Y168074D01*
X124837Y168110D01*
X124738Y169083D01*
X124725Y169132D01*
X124708Y169222D01*
X124396Y170149D01*
X124371Y170193D01*
X124336Y170278D01*
X123825Y171112D01*
X123791Y171150D01*
X123737Y171224D01*
X123053Y171924D01*
X123012Y171953D01*
X122943Y172013D01*
X122121Y172543D01*
X122074Y172563D01*
X121994Y172607D01*
X121074Y172940D01*
X121025Y172949D01*
X120936Y172974D01*
X119965Y173094D01*
X119955Y173094D01*
X119943Y173097D01*
X119640Y173124D01*
X119590Y173119D01*
X119491Y173119D01*
X118534Y172977D01*
X118486Y172961D01*
X118396Y172941D01*
X117494Y172589D01*
X117451Y172563D01*
X117369Y172523D01*
X116568Y171980D01*
X116532Y171944D01*
X116460Y171887D01*
X115800Y171179D01*
X115773Y171137D01*
X115716Y171065D01*
X115230Y170228D01*
X115213Y170180D01*
X115173Y170097D01*
X114886Y169173D01*
X114880Y169123D01*
X114859Y169033D01*
X114793Y168168D01*
X114791Y168160D01*
X114791Y168142D01*
X114788Y168101D01*
X114784Y168072D01*
X114784Y168020D01*
X114789Y167993D01*
X114892Y167026D01*
X114906Y166978D01*
X114923Y166887D01*
X115242Y165957D01*
X115267Y165913D01*
X115303Y165828D01*
X115822Y164992D01*
X115855Y164955D01*
X115910Y164881D01*
X116601Y164181D01*
X116643Y164152D01*
X116712Y164091D01*
X117542Y163563D01*
X117589Y163544D01*
X117670Y163501D01*
X118597Y163170D01*
X118647Y163162D01*
X118735Y163138D01*
X119688Y163025D01*
X119792Y163005D01*
X119796Y163005D01*
X119799Y163003D01*
X119987Y162997D01*
X120945Y163108D01*
G37*
G36*
X120945Y117870D02*
X120945Y117870D01*
X120993Y117884D01*
X121083Y117902D01*
X121992Y118223D01*
X122036Y118248D01*
X122120Y118285D01*
X122935Y118800D01*
X122972Y118834D01*
X123045Y118889D01*
X123725Y119573D01*
X123754Y119614D01*
X123813Y119684D01*
X124324Y120502D01*
X124342Y120549D01*
X124385Y120630D01*
X124700Y121541D01*
X124708Y121591D01*
X124732Y121680D01*
X124837Y122638D01*
X124834Y122668D01*
X124840Y122707D01*
X124840Y122808D01*
X124835Y122836D01*
X124837Y122872D01*
X124738Y123845D01*
X124725Y123894D01*
X124708Y123984D01*
X124396Y124911D01*
X124371Y124955D01*
X124336Y125040D01*
X123825Y125874D01*
X123791Y125912D01*
X123737Y125986D01*
X123053Y126686D01*
X123012Y126715D01*
X122943Y126775D01*
X122121Y127305D01*
X122074Y127325D01*
X121994Y127369D01*
X121074Y127702D01*
X121025Y127711D01*
X120936Y127736D01*
X119965Y127856D01*
X119955Y127856D01*
X119943Y127859D01*
X119640Y127886D01*
X119590Y127881D01*
X119491Y127881D01*
X118534Y127739D01*
X118486Y127723D01*
X118396Y127703D01*
X117494Y127351D01*
X117451Y127325D01*
X117369Y127285D01*
X116568Y126742D01*
X116532Y126706D01*
X116460Y126649D01*
X115800Y125941D01*
X115773Y125899D01*
X115716Y125827D01*
X115230Y124990D01*
X115213Y124942D01*
X115173Y124859D01*
X114886Y123935D01*
X114880Y123885D01*
X114859Y123795D01*
X114793Y122930D01*
X114791Y122922D01*
X114791Y122904D01*
X114788Y122863D01*
X114784Y122834D01*
X114784Y122782D01*
X114789Y122755D01*
X114892Y121788D01*
X114906Y121740D01*
X114923Y121649D01*
X115242Y120719D01*
X115267Y120675D01*
X115303Y120590D01*
X115822Y119754D01*
X115855Y119717D01*
X115910Y119643D01*
X116601Y118943D01*
X116643Y118914D01*
X116712Y118853D01*
X117542Y118325D01*
X117589Y118306D01*
X117670Y118263D01*
X118597Y117932D01*
X118647Y117924D01*
X118735Y117900D01*
X119688Y117787D01*
X119792Y117767D01*
X119796Y117767D01*
X119799Y117765D01*
X119987Y117759D01*
X120945Y117870D01*
G37*
G36*
X186020Y117845D02*
X186020Y117845D01*
X186068Y117859D01*
X186158Y117877D01*
X187067Y118198D01*
X187111Y118223D01*
X187195Y118260D01*
X188010Y118775D01*
X188047Y118809D01*
X188120Y118864D01*
X188800Y119548D01*
X188829Y119589D01*
X188888Y119659D01*
X189399Y120477D01*
X189417Y120524D01*
X189460Y120605D01*
X189775Y121516D01*
X189783Y121566D01*
X189807Y121655D01*
X189912Y122613D01*
X189909Y122643D01*
X189915Y122682D01*
X189915Y122783D01*
X189910Y122811D01*
X189912Y122847D01*
X189813Y123820D01*
X189800Y123869D01*
X189783Y123959D01*
X189471Y124886D01*
X189446Y124930D01*
X189411Y125015D01*
X188900Y125849D01*
X188866Y125887D01*
X188812Y125961D01*
X188128Y126661D01*
X188087Y126690D01*
X188018Y126750D01*
X187196Y127280D01*
X187149Y127300D01*
X187069Y127344D01*
X186149Y127677D01*
X186100Y127686D01*
X186011Y127711D01*
X185040Y127831D01*
X185030Y127831D01*
X185018Y127834D01*
X184715Y127861D01*
X184665Y127856D01*
X184566Y127856D01*
X183609Y127714D01*
X183561Y127698D01*
X183471Y127678D01*
X182569Y127326D01*
X182526Y127300D01*
X182444Y127260D01*
X181643Y126717D01*
X181607Y126681D01*
X181535Y126624D01*
X180875Y125916D01*
X180848Y125874D01*
X180791Y125802D01*
X180305Y124965D01*
X180288Y124917D01*
X180248Y124834D01*
X179961Y123910D01*
X179955Y123860D01*
X179934Y123770D01*
X179868Y122905D01*
X179866Y122897D01*
X179866Y122879D01*
X179863Y122838D01*
X179859Y122809D01*
X179859Y122757D01*
X179864Y122730D01*
X179967Y121763D01*
X179981Y121715D01*
X179998Y121624D01*
X180317Y120694D01*
X180342Y120650D01*
X180378Y120565D01*
X180897Y119729D01*
X180930Y119692D01*
X180985Y119618D01*
X181676Y118918D01*
X181718Y118889D01*
X181787Y118828D01*
X182617Y118300D01*
X182664Y118281D01*
X182745Y118238D01*
X183672Y117907D01*
X183722Y117899D01*
X183810Y117875D01*
X184763Y117762D01*
X184867Y117742D01*
X184871Y117742D01*
X184874Y117740D01*
X185062Y117734D01*
X186020Y117845D01*
G37*
D10*
X44450Y965200D03*
X812800Y965200D03*
X819150Y38100D03*
X44450Y38100D03*
D11*
X419100Y343535D03*
D12*
X419100Y318135D03*
D13*
X172085Y972312D02*
X146685Y972312D01*
X146685Y747268D02*
X172085Y747268D01*
X666115Y972312D02*
X691515Y972312D01*
X691515Y747268D02*
X666115Y747268D01*
D14*
X549910Y670560D03*
X549910Y695960D03*
X549275Y499110D03*
X549275Y524510D03*
D15*
X550545Y647700D03*
X550545Y546100D03*
X549910Y476885D03*
X549910Y375285D03*
D16*
X184277Y501269D03*
X119253Y501269D03*
X184277Y546481D03*
X119253Y546481D03*
D17*
X370990Y317500D03*
X350990Y317500D03*
X330990Y317500D03*
X310990Y317500D03*
X290990Y317500D03*
X270990Y317500D03*
X250990Y317500D03*
X230990Y317500D03*
D18*
X238125Y696405D02*
X238125Y709485D01*
X263525Y709485D02*
X263525Y696405D01*
X288925Y696405D02*
X288925Y709485D01*
X314325Y709485D02*
X314325Y696405D01*
X339725Y696405D02*
X339725Y709485D01*
X365125Y709485D02*
X365125Y696405D01*
X231965Y677545D02*
X218885Y677545D01*
X218885Y652145D02*
X231965Y652145D01*
X231965Y626745D02*
X218885Y626745D01*
X218885Y601345D02*
X231965Y601345D01*
X231965Y575945D02*
X218885Y575945D01*
X218885Y550545D02*
X231965Y550545D01*
X231965Y525145D02*
X218885Y525145D01*
X218885Y499745D02*
X231965Y499745D01*
X231965Y474345D02*
X218885Y474345D01*
X218885Y448945D02*
X231965Y448945D01*
X231965Y423545D02*
X218885Y423545D01*
X218885Y398145D02*
X231965Y398145D01*
X371285Y677545D02*
X384365Y677545D01*
X384365Y652145D02*
X371285Y652145D01*
X371285Y626745D02*
X384365Y626745D01*
X384365Y601345D02*
X371285Y601345D01*
X371285Y575945D02*
X384365Y575945D01*
X384365Y550545D02*
X371285Y550545D01*
X371285Y525145D02*
X384365Y525145D01*
X384365Y499745D02*
X371285Y499745D01*
X371285Y474345D02*
X384365Y474345D01*
X384365Y448945D02*
X371285Y448945D01*
X371285Y423545D02*
X384365Y423545D01*
X384365Y398145D02*
X371285Y398145D01*
X339725Y404685D02*
X339725Y391605D01*
X314325Y391605D02*
X314325Y404685D01*
X288925Y404685D02*
X288925Y391605D01*
D19*
X339725Y588645D03*
X339725Y563245D03*
D20*
X250600Y834300D03*
X250600Y893300D03*
X586600Y954300D03*
X586600Y774300D03*
D21*
X430149Y577215D02*
X416941Y577215D01*
X416941Y551815D02*
X430149Y551815D01*
X430149Y424815D02*
X416941Y424815D01*
X416941Y399415D02*
X430149Y399415D01*
X430149Y526415D02*
X416941Y526415D01*
X416941Y501015D02*
X430149Y501015D01*
X430149Y450215D02*
X416941Y450215D01*
X416941Y475615D02*
X430149Y475615D01*
X430149Y374015D02*
X416941Y374015D01*
X493141Y374015D02*
X506349Y374015D01*
X506349Y399415D02*
X493141Y399415D01*
X493141Y424815D02*
X506349Y424815D01*
X506349Y450215D02*
X493141Y450215D01*
X493141Y475615D02*
X506349Y475615D01*
X506349Y501015D02*
X493141Y501015D01*
X493141Y526415D02*
X506349Y526415D01*
X506349Y551815D02*
X493141Y551815D01*
X493141Y577215D02*
X506349Y577215D01*
D15*
X549910Y297815D03*
X549910Y196215D03*
X552450Y127000D03*
X552450Y25400D03*
D14*
X549910Y320675D03*
X549910Y346075D03*
X552450Y149225D03*
X552450Y174625D03*
D22*
X194310Y702945D03*
X92710Y702945D03*
D23*
X17780Y703580D03*
X43180Y703580D03*
D24*
X59373Y892810D02*
X80328Y892810D01*
X80328Y842010D02*
X59373Y842010D01*
D25*
X46482Y778510D02*
X32258Y778510D01*
X32258Y753110D02*
X46482Y753110D01*
D26*
X737295Y594755D03*
X617295Y714755D03*
X597295Y654755D03*
X737295Y714755D03*
X617295Y594755D03*
X737930Y433465D03*
X617930Y553465D03*
X597930Y493465D03*
X737930Y553465D03*
X617930Y433465D03*
X737930Y269635D03*
X617930Y389635D03*
X597930Y329635D03*
X737930Y389635D03*
X617930Y269635D03*
X737930Y96915D03*
X617930Y216915D03*
X597930Y156915D03*
X737930Y216915D03*
X617930Y96915D03*
D24*
X782638Y625475D02*
X803593Y625475D01*
X803593Y676275D02*
X782638Y676275D01*
X782638Y727075D02*
X803593Y727075D01*
X804228Y452755D02*
X783273Y452755D01*
X783273Y503555D02*
X804228Y503555D01*
X804228Y554355D02*
X783273Y554355D01*
X783908Y279400D02*
X804863Y279400D01*
X804863Y330200D02*
X783908Y330200D01*
X783908Y381000D02*
X804863Y381000D01*
X804863Y105410D02*
X783908Y105410D01*
X783908Y156210D02*
X804863Y156210D01*
X804863Y207010D02*
X783908Y207010D01*
X73978Y546100D02*
X53023Y546100D01*
X53023Y495300D02*
X73978Y495300D01*
X73978Y419100D02*
X53023Y419100D01*
X53023Y368300D02*
X73978Y368300D01*
X73978Y292100D02*
X53023Y292100D01*
X53023Y241300D02*
X73978Y241300D01*
X73978Y165100D02*
X53023Y165100D01*
X53023Y114300D02*
X73978Y114300D01*
D27*
X465455Y677545D03*
X146050Y581025D03*
M02*
