M48
;GenerationSoftware,Autodesk,EAGLE,9.3.1*%
;CreationDate,2019-07-21T13:04:43Z*%
FMAT,2
ICI,OFF
METRIC,TZ,000.000
T9C0.350
T8C0.800
T7C0.813
T6C0.900
T5C0.914
T4C1.016
T3C1.321
T2C1.397
T1C3.500
%
G90
M71
T1
X5080Y95250
X154940Y93980
X153670Y6350
X5080Y3810
T2
X152718Y60515
X152718Y65596
X152781Y23241
X152781Y18161
X152781Y46990
X152781Y41910
X152718Y55435
X152781Y36830
X152654Y84138
X152654Y79058
X152654Y73978
X9525Y81661
X9525Y86741
X152781Y28321
T3
X70422Y72187
X70422Y94691
X18479Y94691
X18479Y72187
T4
X8179Y30518
X14681Y30518
X8179Y25997
X14681Y25997
X14618Y39154
X14618Y34633
X14618Y42507
X8115Y42507
X14618Y47028
X8115Y47028
X8115Y34633
X15189Y8090
X8179Y21882
X14681Y21882
X15189Y12611
X8179Y17361
X14681Y17361
X8115Y39154
X8687Y8090
X8687Y12611
T5
X8763Y63119
X8763Y60579
T6
X130055Y35854
X142056Y47853
X130055Y47853
X142056Y35854
X130055Y54459
X128055Y41854
X128055Y60459
X130055Y66459
X142056Y54459
X129992Y73128
X141992Y85128
X127992Y79128
X129992Y85128
X142056Y66459
X130055Y17312
X142056Y29311
X128055Y23311
X130055Y29311
X142056Y17312
X141992Y73128
T7
X90424Y89154
X9398Y52578
X11938Y52578
X19431Y52514
X73089Y25400
X70549Y25400
X90424Y91694
X95567Y91694
X95567Y89154
X90360Y72390
X90360Y82550
X95504Y72327
X95504Y82487
X101409Y43751
X101409Y41212
X101409Y28511
X101409Y25971
X101409Y38672
X101409Y36132
X101409Y31051
X101409Y33592
X101409Y23431
X109029Y23431
X109029Y25971
X109029Y28511
X109029Y31051
X109029Y33592
X109029Y36132
X109029Y38672
X109029Y41212
X109029Y43751
X100584Y72454
X100584Y82614
X105410Y72390
X105410Y82550
X100584Y91757
X100584Y89217
X105410Y91757
X105410Y89217
X29591Y52514
T8
X56197Y34100
X69850Y19224
X69850Y21224
X56197Y26479
X56197Y29019
X56197Y31559
X52387Y37910
X61200Y74890
X61200Y92890
X27600Y86790
X56197Y39180
X27600Y80890
X56197Y23939
X52387Y40450
X47307Y21400
X49847Y21400
X56197Y36640
X52387Y21400
X56197Y21400
X56197Y41720
X56197Y44259
X56197Y46799
X56197Y49339
X40958Y21400
X40958Y23939
X40958Y26479
X40958Y29019
X40958Y31559
X40958Y34100
X40958Y36640
X40958Y39180
X40958Y41720
X40958Y44259
X40958Y46799
X40958Y49339
X42228Y51879
X54927Y51879
X52387Y51879
X49847Y51879
X47307Y51879
X44767Y51879
X69850Y7224
X69850Y9224
X69850Y11224
X69850Y13224
X69850Y15224
X69850Y17224
T9
X74613Y43815
X73089Y31432
X74676Y48895
X63246Y15748
X63246Y24638
X66675Y13652
X66612Y19939
X75057Y53975
M30