M48
;GenerationSoftware,Autodesk,EAGLE,9.4.2*%
;CreationDate,2019-08-10T20:15:42Z*%
FMAT,2
ICI,OFF
METRIC,TZ,000.000
T9C0.350
T8C0.800
T7C0.813
T6C0.900
T5C0.914
T4C1.016
T3C1.321
T2C1.397
T1C3.500
%
G90
M71
T1
X4445Y5080
X154940Y5080
X5715Y94615
X154305Y94615
T2
X101600Y7620
X129540Y7620
X88900Y7620
X83820Y7620
X111760Y7620
X53340Y7620
X106680Y7620
X124460Y7620
X119380Y7620
X147320Y7620
X142240Y7620
X137160Y7620
X17780Y92710
X22860Y92710
X22860Y7620
X17780Y7620
X12700Y7620
X40640Y7620
X35560Y7620
X30480Y7620
X58420Y7620
X48260Y7620
X76200Y7620
X71120Y7620
X66040Y7620
X93980Y7620
T3
X21590Y81102
X29388Y92710
X51892Y92710
X21590Y58598
T4
X116129Y94971
X122631Y94971
X5639Y42189
X122631Y90449
X126289Y94971
X132791Y94971
X126289Y90449
X132791Y90449
X136449Y94971
X142951Y94971
X136449Y90449
X142951Y90449
X65329Y94971
X71831Y94971
X12141Y42189
X12141Y46711
X5639Y46711
X65329Y90449
X71831Y90449
X75489Y94971
X81991Y94971
X75489Y90449
X81991Y90449
X85649Y94971
X92151Y94971
X85649Y90449
X116129Y90449
X92151Y90449
X95809Y94971
X102311Y94971
X95809Y90449
X102311Y90449
X105969Y94971
X112471Y94971
X105969Y90449
X112471Y90449
T5
X7620Y67310
X7620Y69850
T6
X47220Y13710
X53220Y27710
X59220Y13710
X47220Y25710
X29440Y13710
X41440Y25710
X59220Y25710
X41440Y13710
X29440Y25710
X11660Y13710
X23660Y25710
X17660Y27710
X23660Y13710
X11660Y25710
X136120Y13710
X148120Y25710
X142120Y27710
X35440Y27710
X148120Y13710
X136120Y25710
X118340Y13710
X130340Y25710
X124340Y27710
X130340Y13710
X118340Y25710
X100560Y13710
X112560Y25710
X106560Y27710
X112560Y13710
X100560Y25710
X82780Y13710
X94780Y25710
X88780Y27710
X94780Y13710
X82780Y25710
X65000Y13710
X77000Y25710
X71000Y27710
X77000Y13710
X65000Y25710
T7
X137160Y45720
X140970Y63500
X96520Y67310
X93980Y67310
X147320Y53340
X144780Y53340
X132080Y53340
X129540Y53340
X142240Y53340
X139700Y53340
X134620Y53340
X137160Y53340
X127000Y53340
X127000Y45720
X129540Y45720
X132080Y45720
X134620Y45720
X139700Y45720
X142240Y45720
X144780Y45720
X147320Y45720
X148590Y33020
X146050Y33020
X130810Y33020
X128270Y33020
X113030Y33020
X110490Y33020
X95250Y33020
X92710Y33020
X5080Y50800
X7620Y50800
X77470Y33020
X74930Y33020
X59690Y33020
X57150Y33020
X41910Y33020
X39370Y33020
X24130Y33020
X21590Y33020
X143510Y33020
X133350Y33020
X124460Y66040
X124460Y76200
X133350Y81280
X140970Y66040
X140970Y78740
X140970Y81280
X140970Y68580
X140970Y71120
X140970Y76200
X140970Y73660
X133350Y78740
X133350Y76200
X133350Y73660
X133350Y71120
X133350Y68580
X133350Y66040
X133350Y63500
X36830Y33020
X125730Y33020
X8890Y33020
X19050Y33020
X26670Y33020
X44450Y33020
X54610Y33020
X62230Y33020
X72390Y33020
X15240Y41910
X15240Y52070
X80010Y33020
X90170Y33020
X97790Y33020
X107950Y33020
X115570Y33020
X120650Y77470
X120650Y67310
T8
X73660Y52070
X82550Y72390
X82550Y69850
X82550Y67310
X82550Y64770
X82550Y62230
X82550Y59690
X82550Y57150
X68580Y82550
X71120Y82550
X73660Y82550
X76200Y82550
X78740Y82550
X81280Y82550
X67310Y80010
X67310Y77470
X67310Y74930
X82550Y54610
X82550Y52070
X67310Y69850
X67310Y67310
X67310Y64770
X92710Y49610
X92710Y51610
X92710Y53610
X92710Y55610
X92710Y57610
X92710Y59610
X92710Y61610
X78740Y52070
X76200Y52070
X67310Y52070
X67310Y72390
X78740Y71120
X78740Y68580
X38345Y84795
X92710Y47610
X50345Y51195
X32345Y51195
X67310Y62230
X67310Y59690
X67310Y57150
X67310Y54610
X82550Y80010
X82550Y77470
X82550Y74930
X44245Y84795
T9
X75565Y69850
X89535Y64770
M30