G04 EAGLE Gerber RS-274X export*
G75*
%MOMM*%
%FSLAX34Y34*%
%LPD*%
%INBottom Copper*%
%IPPOS*%
%AMOC8*
5,1,8,0,0,1.08239X$1,22.5*%
G01*
%ADD10P,1.732040X8X22.500000*%
%ADD11C,1.600200*%
%ADD12C,1.879600*%
%ADD13C,2.540000*%
%ADD14C,1.320800*%
%ADD15P,1.429621X8X202.500000*%
%ADD16P,1.429621X8X22.500000*%
%ADD17P,1.429621X8X292.500000*%
%ADD18C,1.422400*%
%ADD19C,1.422400*%
%ADD20C,1.408000*%
%ADD21C,1.308000*%
%ADD22C,1.308000*%
%ADD23R,1.308000X1.308000*%
%ADD24C,2.095500*%
%ADD25C,0.152400*%
%ADD26C,0.812800*%
%ADD27C,1.270000*%
%ADD28C,0.756400*%


D10*
X965200Y673100D03*
D11*
X939800Y673100D03*
D12*
X121412Y421894D03*
X56388Y421894D03*
X121412Y467106D03*
X56388Y467106D03*
D13*
X293878Y914400D02*
X293878Y939800D01*
X518922Y939800D02*
X518922Y914400D01*
X228600Y585978D02*
X203200Y585978D01*
X203200Y811022D02*
X228600Y811022D01*
D14*
X1473200Y540004D02*
X1473200Y526796D01*
X1447800Y526796D02*
X1447800Y540004D01*
X1320800Y540004D02*
X1320800Y526796D01*
X1295400Y526796D02*
X1295400Y540004D01*
X1422400Y540004D02*
X1422400Y526796D01*
X1397000Y526796D02*
X1397000Y540004D01*
X1346200Y540004D02*
X1346200Y526796D01*
X1371600Y526796D02*
X1371600Y540004D01*
X1270000Y540004D02*
X1270000Y526796D01*
X1270000Y463804D02*
X1270000Y450596D01*
X1295400Y450596D02*
X1295400Y463804D01*
X1320800Y463804D02*
X1320800Y450596D01*
X1346200Y450596D02*
X1346200Y463804D01*
X1371600Y463804D02*
X1371600Y450596D01*
X1397000Y450596D02*
X1397000Y463804D01*
X1422400Y463804D02*
X1422400Y450596D01*
X1447800Y450596D02*
X1447800Y463804D01*
X1473200Y463804D02*
X1473200Y450596D01*
D15*
X1485900Y330200D03*
X1460500Y330200D03*
X1308100Y330200D03*
X1282700Y330200D03*
X1130300Y330200D03*
X1104900Y330200D03*
X952500Y330200D03*
X927100Y330200D03*
D16*
X50800Y508000D03*
X76200Y508000D03*
D15*
X774700Y330200D03*
X749300Y330200D03*
X596900Y330200D03*
X571500Y330200D03*
X419100Y330200D03*
X393700Y330200D03*
X241300Y330200D03*
X215900Y330200D03*
X1435100Y330200D03*
X1333500Y330200D03*
X1257300Y330200D03*
X1155700Y330200D03*
X1079500Y330200D03*
X977900Y330200D03*
X901700Y330200D03*
X800100Y330200D03*
D17*
X152400Y520700D03*
X152400Y419100D03*
D15*
X723900Y330200D03*
X622300Y330200D03*
X546100Y330200D03*
X444500Y330200D03*
X368300Y330200D03*
X266700Y330200D03*
X190500Y330200D03*
X88900Y330200D03*
D12*
X653288Y949706D03*
X718312Y949706D03*
X653288Y904494D03*
X718312Y904494D03*
X754888Y949706D03*
X819912Y949706D03*
X754888Y904494D03*
X819912Y904494D03*
X856488Y949706D03*
X921512Y949706D03*
X856488Y904494D03*
X921512Y904494D03*
X958088Y949706D03*
X1023112Y949706D03*
X958088Y904494D03*
X1023112Y904494D03*
X1059688Y949706D03*
X1124712Y949706D03*
X1059688Y904494D03*
X1124712Y904494D03*
X1161288Y949706D03*
X1226312Y949706D03*
X1161288Y904494D03*
X1226312Y904494D03*
X1262888Y949706D03*
X1327912Y949706D03*
X1262888Y904494D03*
X1327912Y904494D03*
X1364488Y949706D03*
X1429512Y949706D03*
X1364488Y904494D03*
X1429512Y904494D03*
D18*
X83312Y673100D02*
X69088Y673100D01*
X69088Y698500D02*
X83312Y698500D01*
D19*
X927100Y616100D03*
X927100Y596100D03*
X927100Y576100D03*
X927100Y556100D03*
X927100Y536100D03*
X927100Y516100D03*
X927100Y496100D03*
X927100Y476100D03*
D20*
X294400Y137100D03*
X414400Y257100D03*
X354400Y277100D03*
X414400Y137100D03*
X294400Y257100D03*
X116600Y137100D03*
X236600Y257100D03*
X176600Y277100D03*
X236600Y137100D03*
X116600Y257100D03*
D14*
X1155446Y660400D02*
X1168654Y660400D01*
X1168654Y685800D02*
X1155446Y685800D01*
X1155446Y812800D02*
X1168654Y812800D01*
X1168654Y838200D02*
X1155446Y838200D01*
X1155446Y711200D02*
X1168654Y711200D01*
X1168654Y736600D02*
X1155446Y736600D01*
X1155446Y787400D02*
X1168654Y787400D01*
X1168654Y762000D02*
X1155446Y762000D01*
X1092454Y838200D02*
X1079246Y838200D01*
X1079246Y812800D02*
X1092454Y812800D01*
X1092454Y787400D02*
X1079246Y787400D01*
X1079246Y762000D02*
X1092454Y762000D01*
X1092454Y736600D02*
X1079246Y736600D01*
X1079246Y711200D02*
X1092454Y711200D01*
X1092454Y685800D02*
X1079246Y685800D01*
X1079246Y660400D02*
X1092454Y660400D01*
D21*
X685800Y818960D02*
X685800Y832040D01*
X711200Y832040D02*
X711200Y818960D01*
X736600Y818960D02*
X736600Y832040D01*
X762000Y832040D02*
X762000Y818960D01*
X787400Y818960D02*
X787400Y832040D01*
X812800Y832040D02*
X812800Y818960D01*
X679640Y800100D02*
X666560Y800100D01*
X666560Y774700D02*
X679640Y774700D01*
X679640Y749300D02*
X666560Y749300D01*
X666560Y723900D02*
X679640Y723900D01*
X679640Y698500D02*
X666560Y698500D01*
X666560Y673100D02*
X679640Y673100D01*
X679640Y647700D02*
X666560Y647700D01*
X666560Y622300D02*
X679640Y622300D01*
X679640Y596900D02*
X666560Y596900D01*
X666560Y571500D02*
X679640Y571500D01*
X679640Y546100D02*
X666560Y546100D01*
X666560Y520700D02*
X679640Y520700D01*
X818960Y800100D02*
X832040Y800100D01*
X832040Y774700D02*
X818960Y774700D01*
X818960Y749300D02*
X832040Y749300D01*
X832040Y723900D02*
X818960Y723900D01*
X818960Y698500D02*
X832040Y698500D01*
X832040Y673100D02*
X818960Y673100D01*
X818960Y647700D02*
X832040Y647700D01*
X832040Y622300D02*
X818960Y622300D01*
X818960Y596900D02*
X832040Y596900D01*
X832040Y571500D02*
X818960Y571500D01*
X818960Y546100D02*
X832040Y546100D01*
X832040Y520700D02*
X818960Y520700D01*
X787400Y527240D02*
X787400Y514160D01*
X762000Y514160D02*
X762000Y527240D01*
X736600Y527240D02*
X736600Y514160D01*
D22*
X787400Y711200D03*
X787400Y685800D03*
D23*
X383450Y847950D03*
X442450Y847950D03*
X503450Y511950D03*
X323450Y511950D03*
D20*
X1361200Y137100D03*
X1481200Y257100D03*
X1421200Y277100D03*
X1481200Y137100D03*
X1361200Y257100D03*
X1183400Y137100D03*
X1303400Y257100D03*
X1243400Y277100D03*
X1303400Y137100D03*
X1183400Y257100D03*
X1005600Y137100D03*
X1125600Y257100D03*
X1065600Y277100D03*
X1125600Y137100D03*
X1005600Y257100D03*
X827800Y137100D03*
X947800Y257100D03*
X887800Y277100D03*
X947800Y137100D03*
X827800Y257100D03*
X650000Y137100D03*
X770000Y257100D03*
X710000Y277100D03*
X770000Y137100D03*
X650000Y257100D03*
X472200Y137100D03*
X592200Y257100D03*
X532200Y277100D03*
X592200Y137100D03*
X472200Y257100D03*
D24*
X228600Y916623D02*
X228600Y937578D01*
X177800Y937578D02*
X177800Y916623D01*
X1371600Y86678D02*
X1371600Y65723D01*
X1422400Y65723D02*
X1422400Y86678D01*
X1473200Y86678D02*
X1473200Y65723D01*
X1193800Y65723D02*
X1193800Y86678D01*
X1244600Y86678D02*
X1244600Y65723D01*
X1295400Y65723D02*
X1295400Y86678D01*
X1016000Y86678D02*
X1016000Y65723D01*
X1066800Y65723D02*
X1066800Y86678D01*
X1117600Y86678D02*
X1117600Y65723D01*
X838200Y65723D02*
X838200Y86678D01*
X889000Y86678D02*
X889000Y65723D01*
X939800Y65723D02*
X939800Y86678D01*
X660400Y86678D02*
X660400Y65723D01*
X711200Y65723D02*
X711200Y86678D01*
X762000Y86678D02*
X762000Y65723D01*
X482600Y65723D02*
X482600Y86678D01*
X533400Y86678D02*
X533400Y65723D01*
X584200Y65723D02*
X584200Y86678D01*
X304800Y86678D02*
X304800Y65723D01*
X355600Y65723D02*
X355600Y86678D01*
X406400Y86678D02*
X406400Y65723D01*
X127000Y65723D02*
X127000Y86678D01*
X177800Y86678D02*
X177800Y65723D01*
X228600Y65723D02*
X228600Y86678D01*
D14*
X1485900Y679196D02*
X1485900Y692404D01*
X1460500Y692404D02*
X1460500Y679196D01*
X1333500Y679196D02*
X1333500Y692404D01*
X1308100Y692404D02*
X1308100Y679196D01*
X1435100Y679196D02*
X1435100Y692404D01*
X1409700Y692404D02*
X1409700Y679196D01*
X1358900Y679196D02*
X1358900Y692404D01*
X1384300Y692404D02*
X1384300Y679196D01*
X1282700Y679196D02*
X1282700Y692404D01*
X1257300Y692404D02*
X1257300Y679196D01*
X1257300Y616204D02*
X1257300Y602996D01*
X1282700Y602996D02*
X1282700Y616204D01*
X1308100Y616204D02*
X1308100Y602996D01*
X1333500Y602996D02*
X1333500Y616204D01*
X1358900Y616204D02*
X1358900Y602996D01*
X1384300Y602996D02*
X1384300Y616204D01*
X1409700Y616204D02*
X1409700Y602996D01*
X1435100Y602996D02*
X1435100Y616204D01*
X1460500Y616204D02*
X1460500Y602996D01*
X1485900Y602996D02*
X1485900Y616204D01*
D25*
X653288Y949706D02*
X653288Y970788D01*
X660400Y977900D01*
X762000Y977900D01*
X863600Y977900D01*
X965200Y977900D01*
X1435100Y977900D01*
X1460500Y952500D01*
X1460500Y876300D01*
X754888Y949706D02*
X754888Y970788D01*
X762000Y977900D01*
X856488Y970788D02*
X856488Y949706D01*
X856488Y970788D02*
X863600Y977900D01*
X958088Y970788D02*
X958088Y949706D01*
X958088Y970788D02*
X965200Y977900D01*
X1059688Y904494D02*
X1087882Y876300D01*
X1336294Y876300D02*
X1364488Y904494D01*
X1162050Y876300D02*
X1087882Y876300D01*
X1162050Y876300D02*
X1263650Y876300D01*
X1336294Y876300D01*
X1161288Y877062D02*
X1161288Y904494D01*
X1161288Y877062D02*
X1162050Y876300D01*
X1262888Y877062D02*
X1262888Y904494D01*
X1262888Y877062D02*
X1263650Y876300D01*
X1336294Y876300D02*
X1460500Y876300D01*
X50800Y647700D02*
X50800Y508000D01*
X50800Y647700D02*
X76200Y673100D01*
X50800Y508000D02*
X50800Y492506D01*
X121412Y421894D01*
X467750Y476250D02*
X503450Y511950D01*
X467750Y476250D02*
X203200Y476250D01*
X177800Y450850D01*
X177800Y412750D01*
X165100Y400050D01*
X127000Y400050D02*
X120650Y406400D01*
X121412Y407162D01*
X121412Y421894D01*
X127000Y400050D02*
X165100Y400050D01*
X1485900Y685800D02*
X1485900Y850900D01*
X1460500Y876300D01*
X1162050Y685800D02*
X1162050Y660400D01*
X1162050Y685800D02*
X1162050Y711200D01*
X1162050Y838200D02*
X1162050Y876300D01*
X1270000Y533400D02*
X1270000Y514350D01*
X1276350Y508000D01*
X1479550Y508000D01*
X1498600Y527050D01*
X1498600Y552450D02*
X1460500Y590550D01*
X1460500Y609600D01*
X1498600Y552450D02*
X1498600Y527050D01*
X965200Y634200D02*
X927100Y596100D01*
X965200Y634200D02*
X965200Y673100D01*
X670306Y904494D02*
X653288Y904494D01*
X670306Y904494D02*
X723900Y850900D01*
X723900Y749300D01*
X704850Y730250D01*
X704850Y628650D01*
X698500Y622300D01*
X673100Y622300D01*
X754888Y850138D02*
X754888Y904494D01*
X754888Y850138D02*
X749300Y844550D01*
X749300Y762000D01*
X711200Y723900D01*
X711200Y603250D01*
X704850Y596900D01*
X673100Y596900D01*
X850900Y898906D02*
X856488Y904494D01*
X850900Y898906D02*
X850900Y863600D01*
X844550Y857250D01*
X781050Y857250D01*
X774700Y850900D01*
X774700Y774700D02*
X717550Y717550D01*
X717550Y577850D01*
X711200Y571500D01*
X673100Y571500D01*
X774700Y774700D02*
X774700Y850900D01*
X904494Y850900D02*
X958088Y904494D01*
X904494Y850900D02*
X806450Y850900D01*
X800100Y844550D01*
X800100Y787400D01*
X723900Y711200D01*
X723900Y539750D02*
X704850Y520700D01*
X673100Y520700D01*
X723900Y539750D02*
X723900Y711200D01*
X189745Y467106D02*
X121412Y467106D01*
X189745Y467106D02*
X201937Y479298D01*
X434848Y479298D01*
X501650Y546100D02*
X673100Y546100D01*
X501650Y546100D02*
X434848Y479298D01*
X222250Y520700D02*
X152400Y520700D01*
X222250Y520700D02*
X254000Y488950D01*
X438150Y488950D01*
X596900Y647700D01*
X673100Y647700D01*
X76200Y508000D02*
X76200Y482600D01*
X120650Y438150D02*
X146050Y438150D01*
X152400Y431800D01*
X152400Y419100D01*
X120650Y438150D02*
X76200Y482600D01*
D26*
X215900Y585978D02*
X289928Y511950D01*
X323450Y511950D01*
D27*
X518922Y817372D02*
X518922Y927100D01*
X518922Y817372D02*
X495300Y793750D01*
X387350Y793750D01*
X383450Y797650D01*
X383450Y847950D01*
D25*
X88900Y330200D02*
X88900Y284800D01*
X116600Y257100D01*
X266700Y284800D02*
X266700Y330200D01*
X266700Y284800D02*
X294400Y257100D01*
X444500Y284800D02*
X444500Y330200D01*
X444500Y284800D02*
X472200Y257100D01*
X622300Y284800D02*
X622300Y330200D01*
X622300Y284800D02*
X650000Y257100D01*
X800100Y284800D02*
X800100Y330200D01*
X800100Y284800D02*
X827800Y257100D01*
X977900Y284800D02*
X977900Y330200D01*
X977900Y284800D02*
X1005600Y257100D01*
X1155700Y284800D02*
X1155700Y330200D01*
X1155700Y284800D02*
X1183400Y257100D01*
X1333500Y284800D02*
X1333500Y330200D01*
X1333500Y284800D02*
X1361200Y257100D01*
X1270000Y457200D02*
X1257300Y457200D01*
X1085850Y628650D02*
X1085850Y660400D01*
X1085850Y628650D02*
X1257300Y457200D01*
X927100Y496100D02*
X888200Y496100D01*
X850900Y533400D02*
X806450Y533400D01*
X755650Y584200D01*
X755650Y698500D01*
D28*
X755650Y698500D03*
D25*
X850900Y533400D02*
X888200Y496100D01*
X870100Y476100D02*
X825500Y520700D01*
X870100Y476100D02*
X927100Y476100D01*
X850900Y571500D02*
X825500Y571500D01*
X850900Y571500D02*
X886300Y536100D01*
X927100Y536100D01*
X844550Y596900D02*
X825500Y596900D01*
X844550Y596900D02*
X885350Y556100D01*
X927100Y556100D01*
D27*
X293878Y927100D02*
X228600Y927100D01*
X177800Y927100D02*
X177800Y895350D01*
X203200Y869950D01*
X442450Y852950D02*
X442450Y847950D01*
X442450Y852950D02*
X425450Y869950D01*
X203200Y869950D01*
D25*
X76200Y698500D02*
X558800Y698500D01*
X584200Y673100D01*
X673100Y673100D01*
D13*
X887800Y277100D02*
X887800Y77400D01*
X889000Y76200D01*
X1065600Y77400D02*
X1065600Y277100D01*
X1065600Y77400D02*
X1066800Y76200D01*
X1243400Y77400D02*
X1243400Y277100D01*
X1243400Y77400D02*
X1244600Y76200D01*
X1421200Y77400D02*
X1421200Y277100D01*
X1421200Y77400D02*
X1422400Y76200D01*
D25*
X1481200Y257100D02*
X1485900Y261800D01*
X1485900Y330200D01*
X1485900Y444500D01*
X1473200Y457200D01*
X1308100Y261800D02*
X1303400Y257100D01*
X1308100Y261800D02*
X1308100Y330200D01*
X1308100Y361950D01*
X1333500Y387350D01*
X1422400Y387350D01*
X1447800Y412750D01*
X1447800Y457200D01*
X1130300Y261800D02*
X1125600Y257100D01*
X1130300Y261800D02*
X1130300Y330200D01*
X1130300Y374650D01*
X1149350Y393700D01*
X1384300Y393700D02*
X1422400Y431800D01*
X1422400Y457200D01*
X1384300Y393700D02*
X1149350Y393700D01*
X952500Y261800D02*
X947800Y257100D01*
X952500Y261800D02*
X952500Y330200D01*
X952500Y355600D01*
X996950Y400050D01*
X1358900Y400050D01*
X1397000Y438150D01*
X1397000Y457200D01*
D13*
X1005600Y137100D02*
X1005600Y86600D01*
X1016000Y76200D01*
X1125600Y84200D02*
X1125600Y137100D01*
X1125600Y84200D02*
X1117600Y76200D01*
X827800Y86600D02*
X827800Y137100D01*
X827800Y86600D02*
X838200Y76200D01*
X947800Y84200D02*
X947800Y137100D01*
X947800Y84200D02*
X939800Y76200D01*
X1303400Y84200D02*
X1303400Y137100D01*
X1303400Y84200D02*
X1295400Y76200D01*
X1183400Y86600D02*
X1183400Y137100D01*
X1183400Y86600D02*
X1193800Y76200D01*
X1481200Y84200D02*
X1481200Y137100D01*
X1481200Y84200D02*
X1473200Y76200D01*
X1361200Y86600D02*
X1361200Y137100D01*
X1361200Y86600D02*
X1371600Y76200D01*
X177800Y275900D02*
X176600Y277100D01*
X177800Y275900D02*
X177800Y76200D01*
X354400Y77400D02*
X354400Y277100D01*
X354400Y77400D02*
X355600Y76200D01*
X532200Y77400D02*
X532200Y277100D01*
X532200Y77400D02*
X533400Y76200D01*
X710000Y77400D02*
X710000Y277100D01*
X710000Y77400D02*
X711200Y76200D01*
X294400Y86600D02*
X294400Y137100D01*
X294400Y86600D02*
X304800Y76200D01*
X414400Y84200D02*
X414400Y137100D01*
X414400Y84200D02*
X406400Y76200D01*
X116600Y86600D02*
X116600Y137100D01*
X116600Y86600D02*
X127000Y76200D01*
X236600Y84200D02*
X236600Y137100D01*
X236600Y84200D02*
X228600Y76200D01*
X592200Y84200D02*
X592200Y137100D01*
X592200Y84200D02*
X584200Y76200D01*
X472200Y86600D02*
X472200Y137100D01*
X472200Y86600D02*
X482600Y76200D01*
X770000Y84200D02*
X770000Y137100D01*
X770000Y84200D02*
X762000Y76200D01*
X650000Y86600D02*
X650000Y137100D01*
X650000Y86600D02*
X660400Y76200D01*
D25*
X770000Y257100D02*
X774700Y261800D01*
X774700Y330200D01*
X774700Y368300D01*
X812800Y406400D01*
X1339850Y406400D01*
X1371600Y438150D01*
X1371600Y457200D01*
X596900Y261800D02*
X592200Y257100D01*
X596900Y261800D02*
X596900Y330200D01*
X596900Y368300D01*
X641350Y412750D01*
X1320800Y412750D01*
X1346200Y438150D01*
X1346200Y457200D01*
X419100Y261800D02*
X414400Y257100D01*
X419100Y261800D02*
X419100Y330200D01*
X419100Y361950D01*
X476250Y419100D02*
X1301750Y419100D01*
X1320800Y438150D01*
X1320800Y457200D01*
X476250Y419100D02*
X419100Y361950D01*
X241300Y261800D02*
X236600Y257100D01*
X241300Y261800D02*
X241300Y330200D01*
X241300Y368300D01*
X1282700Y425450D02*
X1295400Y438150D01*
X1295400Y457200D01*
X298450Y425450D02*
X241300Y368300D01*
X298450Y425450D02*
X1282700Y425450D01*
X1435100Y330200D02*
X1460500Y330200D01*
X1282700Y330200D02*
X1257300Y330200D01*
X1104900Y330200D02*
X1079500Y330200D01*
X927100Y330200D02*
X901700Y330200D01*
X749300Y330200D02*
X723900Y330200D01*
X571500Y330200D02*
X546100Y330200D01*
X393700Y330200D02*
X368300Y330200D01*
X215900Y330200D02*
X190500Y330200D01*
X781050Y711200D02*
X787400Y711200D01*
X1051306Y949706D02*
X1059688Y949706D01*
X1051306Y949706D02*
X1035050Y933450D01*
X984250Y933450D01*
X977900Y927100D01*
X977900Y781050D02*
X895350Y698500D01*
X977900Y781050D02*
X977900Y927100D01*
X895350Y698500D02*
X825500Y698500D01*
X1138682Y927100D02*
X1161288Y949706D01*
X1138682Y927100D02*
X990600Y927100D01*
X984250Y920750D01*
X984250Y781050D01*
X876300Y673100D01*
X825500Y673100D01*
X1233932Y920750D02*
X1262888Y949706D01*
X1233932Y920750D02*
X996950Y920750D01*
X990600Y914400D01*
X990600Y781050D01*
X857250Y647700D01*
X825500Y647700D01*
X1330960Y916178D02*
X1364488Y949706D01*
X998728Y916178D02*
X996950Y914400D01*
X996950Y781050D01*
X838200Y622300D01*
X825500Y622300D01*
X998728Y916178D02*
X1330960Y916178D01*
X939800Y628800D02*
X927100Y616100D01*
X939800Y628800D02*
X939800Y673100D01*
X1098550Y825500D02*
X1085850Y838200D01*
X1358900Y749300D02*
X1358900Y685800D01*
X1282700Y825500D02*
X1098550Y825500D01*
X1282700Y825500D02*
X1358900Y749300D01*
X1098550Y800100D02*
X1085850Y812800D01*
X1098550Y800100D02*
X1270000Y800100D01*
X1333500Y736600D01*
X1333500Y685800D01*
X1098550Y774700D02*
X1085850Y787400D01*
X1263650Y774700D02*
X1308100Y730250D01*
X1308100Y685800D01*
X1263650Y774700D02*
X1098550Y774700D01*
X1092200Y762000D02*
X1085850Y762000D01*
X1092200Y762000D02*
X1104900Y749300D01*
X1257300Y749300D01*
X1282700Y723900D01*
X1282700Y685800D01*
M02*
