G04 EAGLE Gerber RS-274X export*
G75*
%MOMM*%
%FSLAX34Y34*%
%LPD*%
%INTop Copper*%
%IPPOS*%
%AMOC8*
5,1,8,0,0,1.08239X$1,22.5*%
G01*
%ADD10P,1.732040X8X22.500000*%
%ADD11C,1.600200*%
%ADD12C,1.879600*%
%ADD13C,2.540000*%
%ADD14C,1.320800*%
%ADD15P,1.429621X8X202.500000*%
%ADD16P,1.429621X8X22.500000*%
%ADD17P,1.429621X8X292.500000*%
%ADD18C,1.422400*%
%ADD19C,1.422400*%
%ADD20C,1.408000*%
%ADD21C,1.308000*%
%ADD22C,1.308000*%
%ADD23R,1.308000X1.308000*%
%ADD24C,2.095500*%
%ADD25C,0.152400*%
%ADD26C,0.756400*%


D10*
X965200Y673100D03*
D11*
X939800Y673100D03*
D12*
X121412Y421894D03*
X56388Y421894D03*
X121412Y467106D03*
X56388Y467106D03*
D13*
X293878Y914400D02*
X293878Y939800D01*
X518922Y939800D02*
X518922Y914400D01*
X228600Y585978D02*
X203200Y585978D01*
X203200Y811022D02*
X228600Y811022D01*
D14*
X1473200Y540004D02*
X1473200Y526796D01*
X1447800Y526796D02*
X1447800Y540004D01*
X1320800Y540004D02*
X1320800Y526796D01*
X1295400Y526796D02*
X1295400Y540004D01*
X1422400Y540004D02*
X1422400Y526796D01*
X1397000Y526796D02*
X1397000Y540004D01*
X1346200Y540004D02*
X1346200Y526796D01*
X1371600Y526796D02*
X1371600Y540004D01*
X1270000Y540004D02*
X1270000Y526796D01*
X1270000Y463804D02*
X1270000Y450596D01*
X1295400Y450596D02*
X1295400Y463804D01*
X1320800Y463804D02*
X1320800Y450596D01*
X1346200Y450596D02*
X1346200Y463804D01*
X1371600Y463804D02*
X1371600Y450596D01*
X1397000Y450596D02*
X1397000Y463804D01*
X1422400Y463804D02*
X1422400Y450596D01*
X1447800Y450596D02*
X1447800Y463804D01*
X1473200Y463804D02*
X1473200Y450596D01*
D15*
X1485900Y330200D03*
X1460500Y330200D03*
X1308100Y330200D03*
X1282700Y330200D03*
X1130300Y330200D03*
X1104900Y330200D03*
X952500Y330200D03*
X927100Y330200D03*
D16*
X50800Y508000D03*
X76200Y508000D03*
D15*
X774700Y330200D03*
X749300Y330200D03*
X596900Y330200D03*
X571500Y330200D03*
X419100Y330200D03*
X393700Y330200D03*
X241300Y330200D03*
X215900Y330200D03*
X1435100Y330200D03*
X1333500Y330200D03*
X1257300Y330200D03*
X1155700Y330200D03*
X1079500Y330200D03*
X977900Y330200D03*
X901700Y330200D03*
X800100Y330200D03*
D17*
X152400Y520700D03*
X152400Y419100D03*
D15*
X723900Y330200D03*
X622300Y330200D03*
X546100Y330200D03*
X444500Y330200D03*
X368300Y330200D03*
X266700Y330200D03*
X190500Y330200D03*
X88900Y330200D03*
D12*
X653288Y949706D03*
X718312Y949706D03*
X653288Y904494D03*
X718312Y904494D03*
X754888Y949706D03*
X819912Y949706D03*
X754888Y904494D03*
X819912Y904494D03*
X856488Y949706D03*
X921512Y949706D03*
X856488Y904494D03*
X921512Y904494D03*
X958088Y949706D03*
X1023112Y949706D03*
X958088Y904494D03*
X1023112Y904494D03*
X1059688Y949706D03*
X1124712Y949706D03*
X1059688Y904494D03*
X1124712Y904494D03*
X1161288Y949706D03*
X1226312Y949706D03*
X1161288Y904494D03*
X1226312Y904494D03*
X1262888Y949706D03*
X1327912Y949706D03*
X1262888Y904494D03*
X1327912Y904494D03*
X1364488Y949706D03*
X1429512Y949706D03*
X1364488Y904494D03*
X1429512Y904494D03*
D18*
X83312Y673100D02*
X69088Y673100D01*
X69088Y698500D02*
X83312Y698500D01*
D19*
X927100Y616100D03*
X927100Y596100D03*
X927100Y576100D03*
X927100Y556100D03*
X927100Y536100D03*
X927100Y516100D03*
X927100Y496100D03*
X927100Y476100D03*
D20*
X294400Y137100D03*
X414400Y257100D03*
X354400Y277100D03*
X414400Y137100D03*
X294400Y257100D03*
X116600Y137100D03*
X236600Y257100D03*
X176600Y277100D03*
X236600Y137100D03*
X116600Y257100D03*
D14*
X1155446Y660400D02*
X1168654Y660400D01*
X1168654Y685800D02*
X1155446Y685800D01*
X1155446Y812800D02*
X1168654Y812800D01*
X1168654Y838200D02*
X1155446Y838200D01*
X1155446Y711200D02*
X1168654Y711200D01*
X1168654Y736600D02*
X1155446Y736600D01*
X1155446Y787400D02*
X1168654Y787400D01*
X1168654Y762000D02*
X1155446Y762000D01*
X1092454Y838200D02*
X1079246Y838200D01*
X1079246Y812800D02*
X1092454Y812800D01*
X1092454Y787400D02*
X1079246Y787400D01*
X1079246Y762000D02*
X1092454Y762000D01*
X1092454Y736600D02*
X1079246Y736600D01*
X1079246Y711200D02*
X1092454Y711200D01*
X1092454Y685800D02*
X1079246Y685800D01*
X1079246Y660400D02*
X1092454Y660400D01*
D21*
X685800Y818960D02*
X685800Y832040D01*
X711200Y832040D02*
X711200Y818960D01*
X736600Y818960D02*
X736600Y832040D01*
X762000Y832040D02*
X762000Y818960D01*
X787400Y818960D02*
X787400Y832040D01*
X812800Y832040D02*
X812800Y818960D01*
X679640Y800100D02*
X666560Y800100D01*
X666560Y774700D02*
X679640Y774700D01*
X679640Y749300D02*
X666560Y749300D01*
X666560Y723900D02*
X679640Y723900D01*
X679640Y698500D02*
X666560Y698500D01*
X666560Y673100D02*
X679640Y673100D01*
X679640Y647700D02*
X666560Y647700D01*
X666560Y622300D02*
X679640Y622300D01*
X679640Y596900D02*
X666560Y596900D01*
X666560Y571500D02*
X679640Y571500D01*
X679640Y546100D02*
X666560Y546100D01*
X666560Y520700D02*
X679640Y520700D01*
X818960Y800100D02*
X832040Y800100D01*
X832040Y774700D02*
X818960Y774700D01*
X818960Y749300D02*
X832040Y749300D01*
X832040Y723900D02*
X818960Y723900D01*
X818960Y698500D02*
X832040Y698500D01*
X832040Y673100D02*
X818960Y673100D01*
X818960Y647700D02*
X832040Y647700D01*
X832040Y622300D02*
X818960Y622300D01*
X818960Y596900D02*
X832040Y596900D01*
X832040Y571500D02*
X818960Y571500D01*
X818960Y546100D02*
X832040Y546100D01*
X832040Y520700D02*
X818960Y520700D01*
X787400Y527240D02*
X787400Y514160D01*
X762000Y514160D02*
X762000Y527240D01*
X736600Y527240D02*
X736600Y514160D01*
D22*
X787400Y711200D03*
X787400Y685800D03*
D23*
X383450Y847950D03*
X442450Y847950D03*
X503450Y511950D03*
X323450Y511950D03*
D20*
X1361200Y137100D03*
X1481200Y257100D03*
X1421200Y277100D03*
X1481200Y137100D03*
X1361200Y257100D03*
X1183400Y137100D03*
X1303400Y257100D03*
X1243400Y277100D03*
X1303400Y137100D03*
X1183400Y257100D03*
X1005600Y137100D03*
X1125600Y257100D03*
X1065600Y277100D03*
X1125600Y137100D03*
X1005600Y257100D03*
X827800Y137100D03*
X947800Y257100D03*
X887800Y277100D03*
X947800Y137100D03*
X827800Y257100D03*
X650000Y137100D03*
X770000Y257100D03*
X710000Y277100D03*
X770000Y137100D03*
X650000Y257100D03*
X472200Y137100D03*
X592200Y257100D03*
X532200Y277100D03*
X592200Y137100D03*
X472200Y257100D03*
D24*
X228600Y916623D02*
X228600Y937578D01*
X177800Y937578D02*
X177800Y916623D01*
X1371600Y86678D02*
X1371600Y65723D01*
X1422400Y65723D02*
X1422400Y86678D01*
X1473200Y86678D02*
X1473200Y65723D01*
X1193800Y65723D02*
X1193800Y86678D01*
X1244600Y86678D02*
X1244600Y65723D01*
X1295400Y65723D02*
X1295400Y86678D01*
X1016000Y86678D02*
X1016000Y65723D01*
X1066800Y65723D02*
X1066800Y86678D01*
X1117600Y86678D02*
X1117600Y65723D01*
X838200Y65723D02*
X838200Y86678D01*
X889000Y86678D02*
X889000Y65723D01*
X939800Y65723D02*
X939800Y86678D01*
X660400Y86678D02*
X660400Y65723D01*
X711200Y65723D02*
X711200Y86678D01*
X762000Y86678D02*
X762000Y65723D01*
X482600Y65723D02*
X482600Y86678D01*
X533400Y86678D02*
X533400Y65723D01*
X584200Y65723D02*
X584200Y86678D01*
X304800Y86678D02*
X304800Y65723D01*
X355600Y65723D02*
X355600Y86678D01*
X406400Y86678D02*
X406400Y65723D01*
X127000Y65723D02*
X127000Y86678D01*
X177800Y86678D02*
X177800Y65723D01*
X228600Y65723D02*
X228600Y86678D01*
D14*
X1485900Y679196D02*
X1485900Y692404D01*
X1460500Y692404D02*
X1460500Y679196D01*
X1333500Y679196D02*
X1333500Y692404D01*
X1308100Y692404D02*
X1308100Y679196D01*
X1435100Y679196D02*
X1435100Y692404D01*
X1409700Y692404D02*
X1409700Y679196D01*
X1358900Y679196D02*
X1358900Y692404D01*
X1384300Y692404D02*
X1384300Y679196D01*
X1282700Y679196D02*
X1282700Y692404D01*
X1257300Y692404D02*
X1257300Y679196D01*
X1257300Y616204D02*
X1257300Y602996D01*
X1282700Y602996D02*
X1282700Y616204D01*
X1308100Y616204D02*
X1308100Y602996D01*
X1333500Y602996D02*
X1333500Y616204D01*
X1358900Y616204D02*
X1358900Y602996D01*
X1384300Y602996D02*
X1384300Y616204D01*
X1409700Y616204D02*
X1409700Y602996D01*
X1435100Y602996D02*
X1435100Y616204D01*
X1460500Y616204D02*
X1460500Y602996D01*
X1485900Y602996D02*
X1485900Y616204D01*
D25*
X503450Y693950D02*
X503450Y511950D01*
X503450Y693950D02*
X533400Y723900D01*
X673100Y723900D01*
X679450Y730250D01*
X768350Y730250D01*
X812800Y774700D01*
X825500Y774700D01*
X857250Y774700D01*
X882650Y800100D01*
X882650Y939800D01*
X872744Y949706D01*
X856488Y949706D01*
X857250Y774700D02*
X901700Y730250D01*
X958850Y730250D01*
X965200Y723900D01*
X965200Y673100D01*
X927900Y596900D02*
X927100Y596100D01*
X1460500Y609600D02*
X1460500Y635000D01*
X1485900Y660400D01*
X1485900Y685800D01*
X1270000Y533400D02*
X1238250Y565150D01*
X1257300Y673100D02*
X1257300Y685800D01*
X1238250Y654050D02*
X1238250Y565150D01*
X1238250Y654050D02*
X1257300Y673100D01*
X1231900Y660400D02*
X1162050Y660400D01*
X1231900Y660400D02*
X1238250Y654050D01*
X266700Y760222D02*
X215900Y811022D01*
X266700Y760222D02*
X266700Y368300D01*
X266700Y330200D01*
X1270000Y387350D02*
X1270000Y457200D01*
X1289050Y368300D02*
X1327150Y368300D01*
X1333500Y361950D01*
X1333500Y330200D01*
X1289050Y368300D02*
X1270000Y387350D01*
X264922Y762000D02*
X215900Y811022D01*
X711200Y762000D02*
X749300Y800100D01*
X825500Y800100D01*
X711200Y762000D02*
X264922Y762000D01*
X1250950Y368300D02*
X1270000Y387350D01*
X1250950Y368300D02*
X1168400Y368300D01*
X1155700Y355600D01*
X1155700Y330200D01*
X1155700Y355600D02*
X1143000Y368300D01*
X990600Y368300D01*
X977900Y355600D01*
X88900Y355600D02*
X88900Y330200D01*
X88900Y355600D02*
X101600Y368300D01*
X266700Y368300D01*
X431800Y368300D02*
X444500Y355600D01*
X431800Y368300D02*
X266700Y368300D01*
X444500Y355600D02*
X444500Y330200D01*
X444500Y355600D02*
X457200Y368300D01*
X609600Y368300D01*
X622300Y355600D01*
X622300Y330200D01*
X977900Y330200D02*
X977900Y355600D01*
X965200Y368300D01*
X812800Y368300D01*
X787400Y368300D02*
X635000Y368300D01*
X622300Y355600D01*
X800100Y349250D02*
X800100Y330200D01*
X800100Y355600D02*
X812800Y368300D01*
X800100Y355600D02*
X787400Y368300D01*
X800100Y355600D02*
X800100Y330200D01*
X1485900Y609600D02*
X1517650Y577850D01*
X1517650Y374650D01*
X1504950Y361950D01*
X1333500Y361950D01*
D26*
X755650Y698500D03*
D25*
X673100Y698500D01*
X825500Y546100D02*
X850900Y546100D01*
X880900Y576100D01*
X927100Y576100D01*
X1435100Y590550D02*
X1435100Y609600D01*
X1435100Y590550D02*
X1473200Y552450D01*
X1473200Y533400D01*
X1409700Y590550D02*
X1409700Y609600D01*
X1409700Y590550D02*
X1447800Y552450D01*
X1447800Y533400D01*
X1384300Y590550D02*
X1384300Y609600D01*
X1384300Y590550D02*
X1422400Y552450D01*
X1422400Y533400D01*
X1358900Y590550D02*
X1358900Y609600D01*
X1358900Y590550D02*
X1397000Y552450D01*
X1397000Y533400D01*
X1333500Y590550D02*
X1333500Y609600D01*
X1333500Y590550D02*
X1371600Y552450D01*
X1371600Y533400D01*
X1308100Y590550D02*
X1308100Y609600D01*
X1308100Y590550D02*
X1346200Y552450D01*
X1346200Y533400D01*
X1282700Y590550D02*
X1282700Y609600D01*
X1282700Y590550D02*
X1320800Y552450D01*
X1320800Y533400D01*
X1257300Y590550D02*
X1257300Y609600D01*
X1257300Y590550D02*
X1295400Y552450D01*
X1295400Y533400D01*
X869950Y685800D02*
X787400Y685800D01*
X869950Y685800D02*
X914400Y641350D01*
X1003300Y641350D01*
X1047750Y685800D02*
X1085850Y685800D01*
X1047750Y685800D02*
X1003300Y641350D01*
X863600Y711200D02*
X787400Y711200D01*
X863600Y711200D02*
X920750Y654050D01*
X990600Y654050D01*
X1047750Y711200D01*
X1085850Y711200D01*
X876300Y723900D02*
X825500Y723900D01*
X876300Y723900D02*
X927100Y673100D01*
X939800Y673100D01*
X1162050Y736600D02*
X1282700Y736600D01*
X1295400Y723900D01*
X1295400Y660400D01*
X1320800Y635000D01*
X1435100Y635000D01*
X1460500Y660400D01*
X1460500Y685800D01*
X1289050Y762000D02*
X1162050Y762000D01*
X1289050Y762000D02*
X1320800Y730250D01*
X1320800Y666750D01*
X1339850Y647700D01*
X1416050Y647700D02*
X1435100Y666750D01*
X1435100Y685800D01*
X1416050Y647700D02*
X1339850Y647700D01*
X1301750Y787400D02*
X1162050Y787400D01*
X1301750Y787400D02*
X1346200Y742950D01*
X1346200Y673100D02*
X1358900Y660400D01*
X1403350Y660400D01*
X1409700Y666750D01*
X1409700Y685800D01*
X1346200Y673100D02*
X1346200Y742950D01*
X1314450Y812800D02*
X1162050Y812800D01*
X1314450Y812800D02*
X1384300Y742950D01*
X1384300Y685800D01*
M02*
