G04 EAGLE Gerber RS-274X export*
G75*
%MOMM*%
%FSLAX34Y34*%
%LPD*%
%INTop Copper*%
%IPPOS*%
%AMOC8*
5,1,8,0,0,1.08239X$1,22.5*%
G01*
%ADD10P,1.732040X8X292.500000*%
%ADD11C,1.600200*%
%ADD12C,2.540000*%
%ADD13P,1.429621X8X292.500000*%
%ADD14P,1.429621X8X112.500000*%
%ADD15C,1.879600*%
%ADD16C,1.422400*%
%ADD17C,1.308000*%
%ADD18C,1.308000*%
%ADD19R,1.308000X1.308000*%
%ADD20C,1.320800*%
%ADD21P,1.429621X8X202.500000*%
%ADD22P,1.429621X8X22.500000*%
%ADD23C,2.095500*%
%ADD24C,1.422400*%
%ADD25C,1.408000*%
%ADD26C,0.152400*%
%ADD27C,1.270000*%


D10*
X482600Y386715D03*
D11*
X482600Y412115D03*
D12*
X184785Y972312D02*
X159385Y972312D01*
X159385Y747268D02*
X184785Y747268D01*
X678815Y972312D02*
X704215Y972312D01*
X704215Y747268D02*
X678815Y747268D01*
D13*
X777240Y955040D03*
X777240Y929640D03*
X828675Y955040D03*
X828675Y929640D03*
D14*
X776605Y800100D03*
X776605Y901700D03*
X828040Y799465D03*
X828040Y901065D03*
D15*
X196977Y501269D03*
X131953Y501269D03*
X196977Y546481D03*
X131953Y546481D03*
D16*
X555140Y266700D03*
X535140Y266700D03*
X515140Y266700D03*
X495140Y266700D03*
X475140Y266700D03*
X455140Y266700D03*
X435140Y266700D03*
X415140Y266700D03*
D17*
X269875Y613855D02*
X269875Y626935D01*
X295275Y626935D02*
X295275Y613855D01*
X320675Y613855D02*
X320675Y626935D01*
X346075Y626935D02*
X346075Y613855D01*
X371475Y613855D02*
X371475Y626935D01*
X396875Y626935D02*
X396875Y613855D01*
X263715Y594995D02*
X250635Y594995D01*
X250635Y569595D02*
X263715Y569595D01*
X263715Y544195D02*
X250635Y544195D01*
X250635Y518795D02*
X263715Y518795D01*
X263715Y493395D02*
X250635Y493395D01*
X250635Y467995D02*
X263715Y467995D01*
X263715Y442595D02*
X250635Y442595D01*
X250635Y417195D02*
X263715Y417195D01*
X263715Y391795D02*
X250635Y391795D01*
X250635Y366395D02*
X263715Y366395D01*
X263715Y340995D02*
X250635Y340995D01*
X250635Y315595D02*
X263715Y315595D01*
X403035Y594995D02*
X416115Y594995D01*
X416115Y569595D02*
X403035Y569595D01*
X403035Y544195D02*
X416115Y544195D01*
X416115Y518795D02*
X403035Y518795D01*
X403035Y493395D02*
X416115Y493395D01*
X416115Y467995D02*
X403035Y467995D01*
X403035Y442595D02*
X416115Y442595D01*
X416115Y417195D02*
X403035Y417195D01*
X403035Y391795D02*
X416115Y391795D01*
X416115Y366395D02*
X403035Y366395D01*
X403035Y340995D02*
X416115Y340995D01*
X416115Y315595D02*
X403035Y315595D01*
X371475Y322135D02*
X371475Y309055D01*
X346075Y309055D02*
X346075Y322135D01*
X320675Y322135D02*
X320675Y309055D01*
D18*
X371475Y506095D03*
X371475Y480695D03*
D19*
X263300Y834300D03*
X263300Y893300D03*
X599300Y954300D03*
X599300Y774300D03*
D20*
X588899Y640715D02*
X575691Y640715D01*
X575691Y615315D02*
X588899Y615315D01*
X588899Y488315D02*
X575691Y488315D01*
X575691Y462915D02*
X588899Y462915D01*
X588899Y589915D02*
X575691Y589915D01*
X575691Y564515D02*
X588899Y564515D01*
X588899Y513715D02*
X575691Y513715D01*
X575691Y539115D02*
X588899Y539115D01*
X588899Y437515D02*
X575691Y437515D01*
X651891Y437515D02*
X665099Y437515D01*
X665099Y462915D02*
X651891Y462915D01*
X651891Y488315D02*
X665099Y488315D01*
X665099Y513715D02*
X651891Y513715D01*
X651891Y539115D02*
X665099Y539115D01*
X665099Y564515D02*
X651891Y564515D01*
X651891Y589915D02*
X665099Y589915D01*
X665099Y615315D02*
X651891Y615315D01*
X651891Y640715D02*
X665099Y640715D01*
D15*
X196977Y371729D03*
X131953Y371729D03*
X196977Y416941D03*
X131953Y416941D03*
X197612Y247269D03*
X132588Y247269D03*
X197612Y292481D03*
X132588Y292481D03*
X197612Y122809D03*
X132588Y122809D03*
X197612Y168021D03*
X132588Y168021D03*
X177292Y626999D03*
X112268Y626999D03*
X177292Y672211D03*
X112268Y672211D03*
D14*
X878840Y800735D03*
X878840Y902335D03*
X927100Y800100D03*
X927100Y901700D03*
D13*
X878840Y955675D03*
X878840Y930275D03*
X927100Y955675D03*
X927100Y930275D03*
D21*
X207010Y702945D03*
X105410Y702945D03*
D22*
X30480Y703580D03*
X55880Y703580D03*
D23*
X72073Y892810D02*
X93028Y892810D01*
X93028Y842010D02*
X72073Y842010D01*
D24*
X59182Y778510D02*
X44958Y778510D01*
X44958Y753110D02*
X59182Y753110D01*
D25*
X861120Y566180D03*
X741120Y686180D03*
X721120Y626180D03*
X861120Y686180D03*
X741120Y566180D03*
X861755Y392190D03*
X741755Y512190D03*
X721755Y452190D03*
X861755Y512190D03*
X741755Y392190D03*
X861755Y218835D03*
X741755Y338835D03*
X721755Y278835D03*
X861755Y338835D03*
X741755Y218835D03*
X861755Y46115D03*
X741755Y166115D03*
X721755Y106115D03*
X861755Y166115D03*
X741755Y46115D03*
D23*
X931863Y574675D02*
X952818Y574675D01*
X952818Y625475D02*
X931863Y625475D01*
X931863Y676275D02*
X952818Y676275D01*
X953453Y401955D02*
X932498Y401955D01*
X932498Y452755D02*
X953453Y452755D01*
X953453Y503555D02*
X932498Y503555D01*
X933133Y228600D02*
X954088Y228600D01*
X954088Y279400D02*
X933133Y279400D01*
X933133Y330200D02*
X954088Y330200D01*
X954088Y54610D02*
X933133Y54610D01*
X933133Y105410D02*
X954088Y105410D01*
X954088Y156210D02*
X933133Y156210D01*
X86678Y546100D02*
X65723Y546100D01*
X65723Y495300D02*
X86678Y495300D01*
X86678Y419100D02*
X65723Y419100D01*
X65723Y368300D02*
X86678Y368300D01*
X86678Y292100D02*
X65723Y292100D01*
X65723Y241300D02*
X86678Y241300D01*
X86678Y165100D02*
X65723Y165100D01*
X65723Y114300D02*
X86678Y114300D01*
D26*
X582295Y640715D02*
X582295Y683895D01*
X622300Y723900D02*
X723900Y723900D01*
X776605Y776605D01*
X776605Y800100D01*
X622300Y723900D02*
X582295Y683895D01*
X582930Y615950D02*
X582295Y615315D01*
X582930Y615950D02*
X603250Y615950D01*
X603250Y685800D01*
X635000Y717550D02*
X768350Y717550D01*
X828040Y777240D01*
X828040Y799465D01*
X635000Y717550D02*
X603250Y685800D01*
X608965Y589915D02*
X582295Y589915D01*
X647700Y711200D02*
X812800Y711200D01*
X878840Y777240D02*
X878840Y800735D01*
X615950Y596900D02*
X608965Y589915D01*
X615950Y596900D02*
X615950Y679450D01*
X647700Y711200D01*
X812800Y711200D02*
X878840Y777240D01*
X429895Y417195D02*
X409575Y417195D01*
X429895Y417195D02*
X533400Y520700D01*
X533400Y552450D01*
X545465Y564515D01*
X582295Y564515D01*
X615315Y564515D01*
X628650Y577850D02*
X628650Y673100D01*
X857250Y704850D02*
X927100Y774700D01*
X927100Y800100D01*
X628650Y577850D02*
X615315Y564515D01*
X628650Y673100D02*
X660400Y704850D01*
X857250Y704850D01*
X214503Y518795D02*
X196977Y501269D01*
X307975Y569595D02*
X330200Y569595D01*
X409575Y569595D01*
X257175Y518795D02*
X214503Y518795D01*
X257175Y518795D02*
X281940Y543560D01*
X307975Y569595D01*
X281940Y636940D02*
X599300Y954300D01*
X281940Y636940D02*
X281940Y543560D01*
X462915Y406400D02*
X482600Y386715D01*
X462915Y406400D02*
X393700Y406400D01*
X330200Y469900D01*
X330200Y569595D01*
X482600Y386715D02*
X531495Y386715D01*
X582295Y437515D01*
X292100Y375920D02*
X257175Y340995D01*
X292100Y469900D02*
X279400Y482600D01*
X177800Y482600D01*
X165100Y495300D01*
X165100Y584200D01*
X203200Y622300D01*
X203200Y647700D02*
X177800Y673100D01*
X177292Y672592D01*
X177292Y672211D01*
X292100Y469900D02*
X292100Y375920D01*
X203200Y622300D02*
X203200Y647700D01*
X599300Y774300D02*
X691515Y866515D01*
X691515Y972312D01*
X497205Y340995D02*
X409575Y340995D01*
X515140Y323060D02*
X515140Y266700D01*
X515140Y323060D02*
X497205Y340995D01*
X76200Y728980D02*
X52070Y753110D01*
X76200Y728980D02*
X76200Y584200D01*
X114300Y546100D01*
X114300Y482600D01*
X128905Y467995D01*
X257175Y467995D01*
D27*
X722460Y105410D02*
X943610Y105410D01*
X722460Y105410D02*
X721755Y106115D01*
X722320Y279400D02*
X943610Y279400D01*
X722320Y279400D02*
X721755Y278835D01*
X722320Y452755D02*
X942975Y452755D01*
X722320Y452755D02*
X721755Y452190D01*
X721825Y625475D02*
X942340Y625475D01*
X721825Y625475D02*
X721120Y626180D01*
X861755Y218835D02*
X933845Y218835D01*
X943610Y228600D01*
X934975Y338835D02*
X861755Y338835D01*
X934975Y338835D02*
X943610Y330200D01*
X870250Y54610D02*
X861755Y46115D01*
X870250Y54610D02*
X943610Y54610D01*
X933705Y166115D02*
X861755Y166115D01*
X933705Y166115D02*
X943610Y156210D01*
X934340Y512190D02*
X861755Y512190D01*
X934340Y512190D02*
X942975Y503555D01*
X933210Y392190D02*
X861755Y392190D01*
X933210Y392190D02*
X942975Y401955D01*
X932435Y686180D02*
X861120Y686180D01*
X932435Y686180D02*
X942340Y676275D01*
X869615Y574675D02*
X861120Y566180D01*
X869615Y574675D02*
X942340Y574675D01*
M02*
