G04 EAGLE Gerber RS-274X export*
G75*
%MOMM*%
%FSLAX34Y34*%
%LPD*%
%INBottom Copper*%
%IPPOS*%
%AMOC8*
5,1,8,0,0,1.08239X$1,22.5*%
G01*
%ADD10P,1.732040X8X292.500000*%
%ADD11C,1.600200*%
%ADD12C,2.540000*%
%ADD13P,1.429621X8X292.500000*%
%ADD14P,1.429621X8X112.500000*%
%ADD15C,1.879600*%
%ADD16C,1.422400*%
%ADD17C,1.308000*%
%ADD18C,1.308000*%
%ADD19R,1.308000X1.308000*%
%ADD20C,1.320800*%
%ADD21P,1.429621X8X202.500000*%
%ADD22P,1.429621X8X22.500000*%
%ADD23C,2.095500*%
%ADD24C,1.422400*%
%ADD25C,1.408000*%
%ADD26C,0.152400*%
%ADD27C,0.609600*%


D10*
X482600Y386715D03*
D11*
X482600Y412115D03*
D12*
X184785Y972312D02*
X159385Y972312D01*
X159385Y747268D02*
X184785Y747268D01*
X678815Y972312D02*
X704215Y972312D01*
X704215Y747268D02*
X678815Y747268D01*
D13*
X777240Y955040D03*
X777240Y929640D03*
X828675Y955040D03*
X828675Y929640D03*
D14*
X776605Y800100D03*
X776605Y901700D03*
X828040Y799465D03*
X828040Y901065D03*
D15*
X196977Y501269D03*
X131953Y501269D03*
X196977Y546481D03*
X131953Y546481D03*
D16*
X555140Y266700D03*
X535140Y266700D03*
X515140Y266700D03*
X495140Y266700D03*
X475140Y266700D03*
X455140Y266700D03*
X435140Y266700D03*
X415140Y266700D03*
D17*
X269875Y613855D02*
X269875Y626935D01*
X295275Y626935D02*
X295275Y613855D01*
X320675Y613855D02*
X320675Y626935D01*
X346075Y626935D02*
X346075Y613855D01*
X371475Y613855D02*
X371475Y626935D01*
X396875Y626935D02*
X396875Y613855D01*
X263715Y594995D02*
X250635Y594995D01*
X250635Y569595D02*
X263715Y569595D01*
X263715Y544195D02*
X250635Y544195D01*
X250635Y518795D02*
X263715Y518795D01*
X263715Y493395D02*
X250635Y493395D01*
X250635Y467995D02*
X263715Y467995D01*
X263715Y442595D02*
X250635Y442595D01*
X250635Y417195D02*
X263715Y417195D01*
X263715Y391795D02*
X250635Y391795D01*
X250635Y366395D02*
X263715Y366395D01*
X263715Y340995D02*
X250635Y340995D01*
X250635Y315595D02*
X263715Y315595D01*
X403035Y594995D02*
X416115Y594995D01*
X416115Y569595D02*
X403035Y569595D01*
X403035Y544195D02*
X416115Y544195D01*
X416115Y518795D02*
X403035Y518795D01*
X403035Y493395D02*
X416115Y493395D01*
X416115Y467995D02*
X403035Y467995D01*
X403035Y442595D02*
X416115Y442595D01*
X416115Y417195D02*
X403035Y417195D01*
X403035Y391795D02*
X416115Y391795D01*
X416115Y366395D02*
X403035Y366395D01*
X403035Y340995D02*
X416115Y340995D01*
X416115Y315595D02*
X403035Y315595D01*
X371475Y322135D02*
X371475Y309055D01*
X346075Y309055D02*
X346075Y322135D01*
X320675Y322135D02*
X320675Y309055D01*
D18*
X371475Y506095D03*
X371475Y480695D03*
D19*
X263300Y834300D03*
X263300Y893300D03*
X599300Y954300D03*
X599300Y774300D03*
D20*
X588899Y640715D02*
X575691Y640715D01*
X575691Y615315D02*
X588899Y615315D01*
X588899Y488315D02*
X575691Y488315D01*
X575691Y462915D02*
X588899Y462915D01*
X588899Y589915D02*
X575691Y589915D01*
X575691Y564515D02*
X588899Y564515D01*
X588899Y513715D02*
X575691Y513715D01*
X575691Y539115D02*
X588899Y539115D01*
X588899Y437515D02*
X575691Y437515D01*
X651891Y437515D02*
X665099Y437515D01*
X665099Y462915D02*
X651891Y462915D01*
X651891Y488315D02*
X665099Y488315D01*
X665099Y513715D02*
X651891Y513715D01*
X651891Y539115D02*
X665099Y539115D01*
X665099Y564515D02*
X651891Y564515D01*
X651891Y589915D02*
X665099Y589915D01*
X665099Y615315D02*
X651891Y615315D01*
X651891Y640715D02*
X665099Y640715D01*
D15*
X196977Y371729D03*
X131953Y371729D03*
X196977Y416941D03*
X131953Y416941D03*
X197612Y247269D03*
X132588Y247269D03*
X197612Y292481D03*
X132588Y292481D03*
X197612Y122809D03*
X132588Y122809D03*
X197612Y168021D03*
X132588Y168021D03*
X177292Y626999D03*
X112268Y626999D03*
X177292Y672211D03*
X112268Y672211D03*
D14*
X878840Y800735D03*
X878840Y902335D03*
X927100Y800100D03*
X927100Y901700D03*
D13*
X878840Y955675D03*
X878840Y930275D03*
X927100Y955675D03*
X927100Y930275D03*
D21*
X207010Y702945D03*
X105410Y702945D03*
D22*
X30480Y703580D03*
X55880Y703580D03*
D23*
X72073Y892810D02*
X93028Y892810D01*
X93028Y842010D02*
X72073Y842010D01*
D24*
X59182Y778510D02*
X44958Y778510D01*
X44958Y753110D02*
X59182Y753110D01*
D25*
X861120Y566180D03*
X741120Y686180D03*
X721120Y626180D03*
X861120Y686180D03*
X741120Y566180D03*
X861755Y392190D03*
X741755Y512190D03*
X721755Y452190D03*
X861755Y512190D03*
X741755Y392190D03*
X861755Y218835D03*
X741755Y338835D03*
X721755Y278835D03*
X861755Y338835D03*
X741755Y218835D03*
X861755Y46115D03*
X741755Y166115D03*
X721755Y106115D03*
X861755Y166115D03*
X741755Y46115D03*
D23*
X931863Y574675D02*
X952818Y574675D01*
X952818Y625475D02*
X931863Y625475D01*
X931863Y676275D02*
X952818Y676275D01*
X953453Y401955D02*
X932498Y401955D01*
X932498Y452755D02*
X953453Y452755D01*
X953453Y503555D02*
X932498Y503555D01*
X933133Y228600D02*
X954088Y228600D01*
X954088Y279400D02*
X933133Y279400D01*
X933133Y330200D02*
X954088Y330200D01*
X954088Y54610D02*
X933133Y54610D01*
X933133Y105410D02*
X954088Y105410D01*
X954088Y156210D02*
X933133Y156210D01*
X86678Y546100D02*
X65723Y546100D01*
X65723Y495300D02*
X86678Y495300D01*
X86678Y419100D02*
X65723Y419100D01*
X65723Y368300D02*
X86678Y368300D01*
X86678Y292100D02*
X65723Y292100D01*
X65723Y241300D02*
X86678Y241300D01*
X86678Y165100D02*
X65723Y165100D01*
X65723Y114300D02*
X86678Y114300D01*
D26*
X409575Y493395D02*
X436245Y493395D01*
X482600Y539750D02*
X482600Y609600D01*
X513715Y640715D01*
X582295Y640715D01*
X482600Y539750D02*
X436245Y493395D01*
X448945Y467995D02*
X409575Y467995D01*
X501650Y520700D02*
X501650Y596900D01*
X520065Y615315D01*
X582295Y615315D01*
X501650Y520700D02*
X448945Y467995D01*
X411480Y444500D02*
X409575Y442595D01*
X411480Y444500D02*
X457200Y444500D01*
X520700Y508000D01*
X520700Y584200D01*
X526415Y589915D01*
X582295Y589915D01*
X776605Y901700D02*
X776605Y929005D01*
X777240Y929640D01*
X828675Y929640D02*
X828675Y901700D01*
X828040Y901065D01*
X878840Y902335D02*
X878840Y930275D01*
X927100Y930275D02*
X927100Y901700D01*
X482600Y386715D02*
X535140Y334175D01*
X535140Y266700D01*
X180721Y139700D02*
X101600Y139700D01*
X180721Y139700D02*
X197612Y122809D01*
X101600Y139700D02*
X76200Y114300D01*
X76200Y241300D02*
X101600Y266700D01*
X178181Y266700D01*
X197612Y247269D01*
X76200Y368300D02*
X101600Y393700D01*
X175006Y393700D01*
X196977Y371729D01*
X76200Y495300D02*
X101600Y520700D01*
X177546Y520700D01*
X196977Y501269D01*
X30480Y160020D02*
X76200Y114300D01*
X30480Y160020D02*
X30480Y241300D01*
X30480Y368300D01*
X30480Y495300D01*
X30480Y596900D01*
X30480Y703580D01*
X30480Y241300D02*
X76200Y241300D01*
X76200Y368300D02*
X30480Y368300D01*
X30480Y495300D02*
X76200Y495300D01*
X52070Y778510D02*
X41910Y778510D01*
X30480Y767080D02*
X30480Y703580D01*
X30480Y767080D02*
X41910Y778510D01*
X177292Y626999D02*
X147193Y596900D01*
X30480Y596900D01*
X599300Y954300D02*
X776500Y954300D01*
X777240Y955040D01*
X828675Y955040D01*
X878205Y955040D01*
X878840Y955675D02*
X927100Y955675D01*
X88900Y533400D02*
X76200Y546100D01*
X88900Y533400D02*
X183896Y533400D01*
X196977Y546481D01*
X215900Y527558D01*
X215900Y444500D01*
X243205Y417195D01*
X257175Y417195D01*
X90043Y405257D02*
X76200Y419100D01*
X185293Y405257D02*
X196977Y416941D01*
X185293Y405257D02*
X90043Y405257D01*
X196977Y416941D02*
X222123Y391795D01*
X257175Y391795D01*
X88900Y279400D02*
X76200Y292100D01*
X88900Y279400D02*
X184531Y279400D01*
X197612Y292481D01*
X228600Y323469D01*
X228600Y355600D01*
X239395Y366395D01*
X257175Y366395D01*
X76200Y165100D02*
X88900Y152400D01*
X181991Y152400D02*
X197612Y168021D01*
X181991Y152400D02*
X88900Y152400D01*
X197612Y168021D02*
X257175Y227584D01*
X257175Y315595D01*
X257175Y442595D02*
X228600Y471170D01*
X228600Y681355D02*
X207010Y702945D01*
X228600Y681355D02*
X228600Y471170D01*
X104775Y703580D02*
X55880Y703580D01*
X104775Y703580D02*
X105410Y702945D01*
X518668Y747268D02*
X691515Y747268D01*
X409575Y638175D02*
X409575Y594995D01*
X409575Y638175D02*
X518668Y747268D01*
X691515Y747268D02*
X738632Y747268D01*
X741755Y46115D02*
X763665Y46115D01*
X800100Y82550D02*
X800100Y139700D01*
X800100Y215900D01*
X800100Y393700D01*
X800100Y565150D01*
X800100Y685800D01*
X800100Y82550D02*
X763665Y46115D01*
X800100Y685800D02*
X738632Y747268D01*
X741755Y218835D02*
X797165Y218835D01*
X800100Y215900D01*
X741755Y392190D02*
X743265Y393700D01*
X800100Y393700D01*
X799070Y566180D02*
X741120Y566180D01*
X799070Y566180D02*
X800100Y565150D01*
X658495Y437515D02*
X658495Y186055D01*
X704850Y139700D02*
X800100Y139700D01*
X704850Y139700D02*
X658495Y186055D01*
D27*
X172085Y747268D02*
X259117Y834300D01*
X263300Y834300D01*
D26*
X482600Y412115D02*
X555140Y339575D01*
X555140Y266700D01*
X409575Y518795D02*
X404495Y518795D01*
X387350Y438150D02*
X393700Y431800D01*
X462915Y431800D02*
X482600Y412115D01*
X387350Y501650D02*
X404495Y518795D01*
X387350Y501650D02*
X387350Y438150D01*
X393700Y431800D02*
X462915Y431800D01*
X281305Y493395D02*
X257175Y493395D01*
X281305Y493395D02*
X292100Y482600D01*
X292100Y279400D01*
X330200Y241300D01*
X419100Y241300D01*
X435140Y257340D01*
X435140Y266700D01*
X409575Y272265D02*
X409575Y315595D01*
X409575Y272265D02*
X415140Y266700D01*
X409575Y366395D02*
X433705Y366395D01*
X475140Y324960D02*
X475140Y266700D01*
X475140Y324960D02*
X433705Y366395D01*
X446405Y391795D02*
X409575Y391795D01*
X446405Y391795D02*
X495300Y342900D01*
X495300Y266860D01*
X495140Y266700D01*
D27*
X82550Y892810D02*
X162052Y972312D01*
X172085Y972312D01*
X212010Y842010D02*
X82550Y842010D01*
X212010Y842010D02*
X263300Y893300D01*
D26*
X658495Y640715D02*
X703960Y686180D01*
X741120Y686180D01*
X686435Y615315D02*
X658495Y615315D01*
X717550Y584200D02*
X717550Y533400D01*
X738760Y512190D01*
X741755Y512190D01*
X717550Y584200D02*
X686435Y615315D01*
X672465Y589915D02*
X658495Y589915D01*
X672465Y589915D02*
X673100Y590550D01*
X698500Y565150D01*
X721615Y338835D02*
X741755Y338835D01*
X698500Y361950D02*
X698500Y565150D01*
X698500Y361950D02*
X721615Y338835D01*
X673735Y564515D02*
X658495Y564515D01*
X673735Y564515D02*
X679450Y558800D01*
X679450Y196850D01*
X710185Y166115D02*
X741755Y166115D01*
X710185Y166115D02*
X679450Y196850D01*
M02*
