G04 EAGLE Gerber RS-274X export*
G75*
%MOMM*%
%FSLAX34Y34*%
%LPD*%
%INSoldermask Bottom*%
%IPPOS*%
%AMOC8*
5,1,8,0,0,1.08239X$1,22.5*%
G01*
%ADD10C,3.703200*%
%ADD11P,1.951982X8X292.500000*%
%ADD12C,1.803400*%
%ADD13C,2.743200*%
%ADD14P,1.649562X8X292.500000*%
%ADD15P,1.649562X8X112.500000*%
%ADD16C,2.082800*%
%ADD17C,1.625600*%
%ADD18C,1.511200*%
%ADD19C,1.511200*%
%ADD20R,1.511200X1.511200*%
%ADD21C,1.524000*%
%ADD22P,1.649562X8X202.500000*%
%ADD23P,1.649562X8X22.500000*%
%ADD24C,2.298700*%
%ADD25C,1.625600*%
%ADD26C,1.611200*%

G36*
X177354Y662818D02*
X177354Y662818D01*
X177375Y662816D01*
X179066Y662968D01*
X179112Y662981D01*
X179188Y662991D01*
X180817Y663470D01*
X180845Y663484D01*
X180866Y663488D01*
X180891Y663502D01*
X180932Y663517D01*
X182436Y664304D01*
X182475Y664333D01*
X182540Y664372D01*
X183862Y665438D01*
X183894Y665474D01*
X183951Y665525D01*
X185040Y666828D01*
X185063Y666869D01*
X185110Y666930D01*
X185923Y668421D01*
X185938Y668466D01*
X185972Y668535D01*
X186479Y670155D01*
X186485Y670203D01*
X186504Y670277D01*
X186685Y671960D01*
X186710Y672158D01*
X186707Y672209D01*
X186711Y672300D01*
X186538Y674009D01*
X186525Y674055D01*
X186513Y674131D01*
X186010Y675773D01*
X185988Y675816D01*
X185962Y675888D01*
X185148Y677401D01*
X185118Y677438D01*
X185078Y677504D01*
X183985Y678828D01*
X183948Y678860D01*
X183897Y678916D01*
X182566Y680002D01*
X182523Y680025D01*
X182462Y680071D01*
X180945Y680876D01*
X180899Y680891D01*
X180830Y680923D01*
X179977Y681179D01*
X179184Y681417D01*
X179137Y681423D01*
X179062Y681441D01*
X177475Y681593D01*
X177458Y681600D01*
X177364Y681641D01*
X177354Y681641D01*
X177346Y681645D01*
X177159Y681656D01*
X175480Y681503D01*
X175433Y681490D01*
X175358Y681480D01*
X173741Y681002D01*
X173698Y680981D01*
X173626Y680956D01*
X172134Y680172D01*
X172096Y680142D01*
X172030Y680104D01*
X170719Y679044D01*
X170688Y679008D01*
X170631Y678957D01*
X169552Y677662D01*
X169528Y677620D01*
X169482Y677559D01*
X168676Y676078D01*
X168661Y676033D01*
X168628Y675964D01*
X168127Y674355D01*
X168121Y674307D01*
X168102Y674233D01*
X167927Y672580D01*
X167880Y672324D01*
X167880Y672302D01*
X167873Y672142D01*
X168058Y670425D01*
X168071Y670378D01*
X168083Y670303D01*
X168599Y668654D01*
X168621Y668611D01*
X168647Y668540D01*
X169475Y667023D01*
X169505Y666985D01*
X169545Y666920D01*
X170653Y665594D01*
X170689Y665563D01*
X170741Y665507D01*
X172086Y664423D01*
X172128Y664400D01*
X172190Y664354D01*
X173721Y663553D01*
X173767Y663539D01*
X173836Y663507D01*
X175493Y663019D01*
X175541Y663014D01*
X175616Y662996D01*
X177084Y662864D01*
X177112Y662848D01*
X177151Y662842D01*
X177188Y662827D01*
X177284Y662822D01*
X177334Y662814D01*
X177354Y662818D01*
G37*
G36*
X112330Y662793D02*
X112330Y662793D01*
X112351Y662791D01*
X114042Y662943D01*
X114088Y662956D01*
X114164Y662966D01*
X115793Y663445D01*
X115821Y663459D01*
X115842Y663463D01*
X115867Y663477D01*
X115908Y663492D01*
X117412Y664279D01*
X117451Y664308D01*
X117516Y664347D01*
X118838Y665413D01*
X118870Y665449D01*
X118927Y665500D01*
X120016Y666803D01*
X120039Y666844D01*
X120086Y666905D01*
X120899Y668396D01*
X120914Y668441D01*
X120948Y668510D01*
X121455Y670130D01*
X121461Y670178D01*
X121480Y670252D01*
X121661Y671935D01*
X121686Y672133D01*
X121683Y672184D01*
X121687Y672275D01*
X121514Y673984D01*
X121501Y674030D01*
X121489Y674106D01*
X120986Y675748D01*
X120964Y675791D01*
X120938Y675863D01*
X120124Y677376D01*
X120094Y677413D01*
X120054Y677479D01*
X118961Y678803D01*
X118924Y678835D01*
X118873Y678891D01*
X117542Y679977D01*
X117499Y680000D01*
X117438Y680046D01*
X115921Y680851D01*
X115875Y680866D01*
X115806Y680898D01*
X114953Y681154D01*
X114160Y681392D01*
X114113Y681398D01*
X114038Y681416D01*
X112451Y681568D01*
X112434Y681575D01*
X112340Y681616D01*
X112330Y681616D01*
X112322Y681620D01*
X112135Y681631D01*
X110456Y681478D01*
X110409Y681465D01*
X110334Y681455D01*
X108717Y680977D01*
X108674Y680956D01*
X108602Y680931D01*
X107110Y680147D01*
X107072Y680117D01*
X107006Y680079D01*
X105695Y679019D01*
X105664Y678983D01*
X105607Y678932D01*
X104528Y677637D01*
X104504Y677595D01*
X104458Y677534D01*
X103652Y676053D01*
X103637Y676008D01*
X103604Y675939D01*
X103103Y674330D01*
X103097Y674282D01*
X103078Y674208D01*
X102903Y672555D01*
X102856Y672299D01*
X102856Y672277D01*
X102849Y672117D01*
X103034Y670400D01*
X103047Y670353D01*
X103059Y670278D01*
X103575Y668629D01*
X103597Y668586D01*
X103623Y668515D01*
X104451Y666998D01*
X104481Y666960D01*
X104521Y666895D01*
X105629Y665569D01*
X105665Y665538D01*
X105717Y665482D01*
X107062Y664398D01*
X107104Y664375D01*
X107166Y664329D01*
X108697Y663528D01*
X108743Y663514D01*
X108812Y663482D01*
X110469Y662994D01*
X110517Y662989D01*
X110592Y662971D01*
X112060Y662839D01*
X112088Y662823D01*
X112127Y662817D01*
X112164Y662802D01*
X112260Y662797D01*
X112310Y662789D01*
X112330Y662793D01*
G37*
G36*
X112330Y617555D02*
X112330Y617555D01*
X112351Y617553D01*
X114042Y617705D01*
X114088Y617718D01*
X114164Y617728D01*
X115793Y618207D01*
X115821Y618221D01*
X115842Y618225D01*
X115867Y618239D01*
X115908Y618254D01*
X117412Y619041D01*
X117451Y619070D01*
X117516Y619109D01*
X118838Y620175D01*
X118870Y620211D01*
X118927Y620262D01*
X120016Y621565D01*
X120039Y621606D01*
X120086Y621667D01*
X120899Y623158D01*
X120914Y623203D01*
X120948Y623272D01*
X121455Y624892D01*
X121461Y624940D01*
X121480Y625014D01*
X121661Y626697D01*
X121686Y626895D01*
X121683Y626946D01*
X121687Y627037D01*
X121514Y628746D01*
X121501Y628792D01*
X121489Y628868D01*
X120986Y630510D01*
X120964Y630553D01*
X120938Y630625D01*
X120124Y632138D01*
X120094Y632175D01*
X120054Y632241D01*
X118961Y633565D01*
X118924Y633597D01*
X118873Y633653D01*
X117542Y634739D01*
X117499Y634762D01*
X117438Y634808D01*
X115921Y635613D01*
X115875Y635628D01*
X115806Y635660D01*
X114953Y635916D01*
X114160Y636154D01*
X114113Y636160D01*
X114038Y636178D01*
X112451Y636330D01*
X112434Y636337D01*
X112340Y636378D01*
X112330Y636378D01*
X112322Y636382D01*
X112135Y636393D01*
X110456Y636240D01*
X110409Y636227D01*
X110334Y636217D01*
X108717Y635739D01*
X108674Y635718D01*
X108602Y635693D01*
X107110Y634909D01*
X107072Y634879D01*
X107006Y634841D01*
X105695Y633781D01*
X105664Y633745D01*
X105607Y633694D01*
X104528Y632399D01*
X104504Y632357D01*
X104458Y632296D01*
X103652Y630815D01*
X103637Y630770D01*
X103604Y630701D01*
X103103Y629092D01*
X103097Y629044D01*
X103078Y628970D01*
X102903Y627317D01*
X102856Y627061D01*
X102856Y627039D01*
X102849Y626879D01*
X103034Y625162D01*
X103047Y625115D01*
X103059Y625040D01*
X103575Y623391D01*
X103597Y623348D01*
X103623Y623277D01*
X104451Y621760D01*
X104481Y621722D01*
X104521Y621657D01*
X105629Y620331D01*
X105665Y620300D01*
X105717Y620244D01*
X107062Y619160D01*
X107104Y619137D01*
X107166Y619091D01*
X108697Y618290D01*
X108743Y618276D01*
X108812Y618244D01*
X110469Y617756D01*
X110517Y617751D01*
X110592Y617733D01*
X112060Y617601D01*
X112088Y617585D01*
X112127Y617579D01*
X112164Y617564D01*
X112260Y617559D01*
X112310Y617551D01*
X112330Y617555D01*
G37*
G36*
X177405Y617530D02*
X177405Y617530D01*
X177426Y617528D01*
X179117Y617680D01*
X179163Y617693D01*
X179239Y617703D01*
X180868Y618182D01*
X180896Y618196D01*
X180917Y618200D01*
X180942Y618214D01*
X180983Y618229D01*
X182487Y619016D01*
X182526Y619045D01*
X182591Y619084D01*
X183913Y620150D01*
X183945Y620186D01*
X184002Y620237D01*
X185091Y621540D01*
X185114Y621581D01*
X185161Y621642D01*
X185974Y623133D01*
X185989Y623178D01*
X186023Y623247D01*
X186530Y624867D01*
X186536Y624915D01*
X186555Y624989D01*
X186736Y626672D01*
X186761Y626870D01*
X186758Y626921D01*
X186762Y627012D01*
X186589Y628721D01*
X186576Y628767D01*
X186564Y628843D01*
X186061Y630485D01*
X186039Y630528D01*
X186013Y630600D01*
X185199Y632113D01*
X185169Y632150D01*
X185129Y632216D01*
X184036Y633540D01*
X183999Y633572D01*
X183948Y633628D01*
X182617Y634714D01*
X182574Y634737D01*
X182513Y634783D01*
X180996Y635588D01*
X180950Y635603D01*
X180881Y635635D01*
X180028Y635891D01*
X179235Y636129D01*
X179188Y636135D01*
X179113Y636153D01*
X177526Y636305D01*
X177509Y636312D01*
X177415Y636353D01*
X177405Y636353D01*
X177397Y636357D01*
X177210Y636368D01*
X175531Y636215D01*
X175484Y636202D01*
X175409Y636192D01*
X173792Y635714D01*
X173749Y635693D01*
X173677Y635668D01*
X172185Y634884D01*
X172147Y634854D01*
X172081Y634816D01*
X170770Y633756D01*
X170739Y633720D01*
X170682Y633669D01*
X169603Y632374D01*
X169579Y632332D01*
X169533Y632271D01*
X168727Y630790D01*
X168712Y630745D01*
X168679Y630676D01*
X168178Y629067D01*
X168172Y629019D01*
X168153Y628945D01*
X167978Y627292D01*
X167931Y627036D01*
X167931Y627014D01*
X167924Y626854D01*
X168109Y625137D01*
X168122Y625090D01*
X168134Y625015D01*
X168650Y623366D01*
X168672Y623323D01*
X168698Y623252D01*
X169526Y621735D01*
X169556Y621697D01*
X169596Y621632D01*
X170704Y620306D01*
X170740Y620275D01*
X170792Y620219D01*
X172137Y619135D01*
X172179Y619112D01*
X172241Y619066D01*
X173772Y618265D01*
X173818Y618251D01*
X173887Y618219D01*
X175544Y617731D01*
X175592Y617726D01*
X175667Y617708D01*
X177135Y617576D01*
X177163Y617560D01*
X177202Y617554D01*
X177239Y617539D01*
X177335Y617534D01*
X177385Y617526D01*
X177405Y617530D01*
G37*
G36*
X197039Y407548D02*
X197039Y407548D01*
X197060Y407546D01*
X198751Y407698D01*
X198797Y407711D01*
X198873Y407721D01*
X200502Y408200D01*
X200530Y408214D01*
X200551Y408218D01*
X200576Y408232D01*
X200617Y408247D01*
X202121Y409034D01*
X202160Y409063D01*
X202225Y409102D01*
X203547Y410168D01*
X203579Y410204D01*
X203636Y410255D01*
X204725Y411558D01*
X204748Y411599D01*
X204795Y411660D01*
X205608Y413151D01*
X205623Y413196D01*
X205657Y413265D01*
X206164Y414885D01*
X206170Y414933D01*
X206189Y415007D01*
X206370Y416690D01*
X206395Y416888D01*
X206392Y416939D01*
X206396Y417030D01*
X206223Y418739D01*
X206210Y418785D01*
X206198Y418861D01*
X205695Y420503D01*
X205673Y420546D01*
X205647Y420618D01*
X204833Y422131D01*
X204803Y422168D01*
X204763Y422234D01*
X203670Y423558D01*
X203633Y423590D01*
X203582Y423646D01*
X202251Y424732D01*
X202208Y424755D01*
X202147Y424801D01*
X200630Y425606D01*
X200584Y425621D01*
X200515Y425653D01*
X199662Y425909D01*
X198869Y426147D01*
X198822Y426153D01*
X198747Y426171D01*
X197160Y426323D01*
X197143Y426330D01*
X197049Y426371D01*
X197039Y426371D01*
X197031Y426375D01*
X196844Y426386D01*
X195165Y426233D01*
X195118Y426220D01*
X195043Y426210D01*
X193426Y425732D01*
X193383Y425711D01*
X193311Y425686D01*
X191819Y424902D01*
X191781Y424872D01*
X191715Y424834D01*
X190404Y423774D01*
X190373Y423738D01*
X190316Y423687D01*
X189237Y422392D01*
X189213Y422350D01*
X189167Y422289D01*
X188361Y420808D01*
X188346Y420763D01*
X188313Y420694D01*
X187812Y419085D01*
X187806Y419037D01*
X187787Y418963D01*
X187612Y417310D01*
X187565Y417054D01*
X187565Y417032D01*
X187558Y416872D01*
X187743Y415155D01*
X187756Y415108D01*
X187768Y415033D01*
X188284Y413384D01*
X188306Y413341D01*
X188332Y413270D01*
X189160Y411753D01*
X189190Y411715D01*
X189230Y411650D01*
X190338Y410324D01*
X190374Y410293D01*
X190426Y410237D01*
X191771Y409153D01*
X191813Y409130D01*
X191875Y409084D01*
X193406Y408283D01*
X193452Y408269D01*
X193521Y408237D01*
X195178Y407749D01*
X195226Y407744D01*
X195301Y407726D01*
X196769Y407594D01*
X196797Y407578D01*
X196836Y407572D01*
X196873Y407557D01*
X196969Y407552D01*
X197019Y407544D01*
X197039Y407548D01*
G37*
G36*
X132015Y407523D02*
X132015Y407523D01*
X132036Y407521D01*
X133727Y407673D01*
X133773Y407686D01*
X133849Y407696D01*
X135478Y408175D01*
X135506Y408189D01*
X135527Y408193D01*
X135552Y408207D01*
X135593Y408222D01*
X137097Y409009D01*
X137136Y409038D01*
X137201Y409077D01*
X138523Y410143D01*
X138555Y410179D01*
X138612Y410230D01*
X139701Y411533D01*
X139724Y411574D01*
X139771Y411635D01*
X140584Y413126D01*
X140599Y413171D01*
X140633Y413240D01*
X141140Y414860D01*
X141146Y414908D01*
X141165Y414982D01*
X141346Y416665D01*
X141371Y416863D01*
X141368Y416914D01*
X141372Y417005D01*
X141199Y418714D01*
X141186Y418760D01*
X141174Y418836D01*
X140671Y420478D01*
X140649Y420521D01*
X140623Y420593D01*
X139809Y422106D01*
X139779Y422143D01*
X139739Y422209D01*
X138646Y423533D01*
X138609Y423565D01*
X138558Y423621D01*
X137227Y424707D01*
X137184Y424730D01*
X137123Y424776D01*
X135606Y425581D01*
X135560Y425596D01*
X135491Y425628D01*
X134638Y425884D01*
X133845Y426122D01*
X133798Y426128D01*
X133723Y426146D01*
X132136Y426298D01*
X132119Y426305D01*
X132025Y426346D01*
X132015Y426346D01*
X132007Y426350D01*
X131820Y426361D01*
X130141Y426208D01*
X130094Y426195D01*
X130019Y426185D01*
X128402Y425707D01*
X128359Y425686D01*
X128287Y425661D01*
X126795Y424877D01*
X126757Y424847D01*
X126691Y424809D01*
X125380Y423749D01*
X125349Y423713D01*
X125292Y423662D01*
X124213Y422367D01*
X124189Y422325D01*
X124143Y422264D01*
X123337Y420783D01*
X123322Y420738D01*
X123289Y420669D01*
X122788Y419060D01*
X122782Y419012D01*
X122763Y418938D01*
X122588Y417285D01*
X122541Y417029D01*
X122541Y417007D01*
X122534Y416847D01*
X122719Y415130D01*
X122732Y415083D01*
X122744Y415008D01*
X123260Y413359D01*
X123282Y413316D01*
X123308Y413245D01*
X124136Y411728D01*
X124166Y411690D01*
X124206Y411625D01*
X125314Y410299D01*
X125350Y410268D01*
X125402Y410212D01*
X126747Y409128D01*
X126789Y409105D01*
X126851Y409059D01*
X128382Y408258D01*
X128428Y408244D01*
X128497Y408212D01*
X130154Y407724D01*
X130202Y407719D01*
X130277Y407701D01*
X131745Y407569D01*
X131773Y407553D01*
X131812Y407547D01*
X131849Y407532D01*
X131945Y407527D01*
X131995Y407519D01*
X132015Y407523D01*
G37*
G36*
X132015Y362285D02*
X132015Y362285D01*
X132036Y362283D01*
X133727Y362435D01*
X133773Y362448D01*
X133849Y362458D01*
X135478Y362937D01*
X135506Y362951D01*
X135527Y362955D01*
X135552Y362969D01*
X135593Y362984D01*
X137097Y363771D01*
X137136Y363800D01*
X137201Y363839D01*
X138523Y364905D01*
X138555Y364941D01*
X138612Y364992D01*
X139701Y366295D01*
X139724Y366336D01*
X139771Y366397D01*
X140584Y367888D01*
X140599Y367933D01*
X140633Y368002D01*
X141140Y369622D01*
X141146Y369670D01*
X141165Y369744D01*
X141346Y371427D01*
X141371Y371625D01*
X141368Y371676D01*
X141372Y371767D01*
X141199Y373476D01*
X141186Y373522D01*
X141174Y373598D01*
X140671Y375240D01*
X140649Y375283D01*
X140623Y375355D01*
X139809Y376868D01*
X139779Y376905D01*
X139739Y376971D01*
X138646Y378295D01*
X138609Y378327D01*
X138558Y378383D01*
X137227Y379469D01*
X137184Y379492D01*
X137123Y379538D01*
X135606Y380343D01*
X135560Y380358D01*
X135491Y380390D01*
X134638Y380646D01*
X133845Y380884D01*
X133798Y380890D01*
X133723Y380908D01*
X132136Y381060D01*
X132119Y381067D01*
X132025Y381108D01*
X132015Y381108D01*
X132007Y381112D01*
X131820Y381123D01*
X130141Y380970D01*
X130094Y380957D01*
X130019Y380947D01*
X128402Y380469D01*
X128359Y380448D01*
X128287Y380423D01*
X126795Y379639D01*
X126757Y379609D01*
X126691Y379571D01*
X125380Y378511D01*
X125349Y378475D01*
X125292Y378424D01*
X124213Y377129D01*
X124189Y377087D01*
X124143Y377026D01*
X123337Y375545D01*
X123322Y375500D01*
X123289Y375431D01*
X122788Y373822D01*
X122782Y373774D01*
X122763Y373700D01*
X122588Y372047D01*
X122541Y371791D01*
X122541Y371769D01*
X122534Y371609D01*
X122719Y369892D01*
X122732Y369845D01*
X122744Y369770D01*
X123260Y368121D01*
X123282Y368078D01*
X123308Y368007D01*
X124136Y366490D01*
X124166Y366452D01*
X124206Y366387D01*
X125314Y365061D01*
X125350Y365030D01*
X125402Y364974D01*
X126747Y363890D01*
X126789Y363867D01*
X126851Y363821D01*
X128382Y363020D01*
X128428Y363006D01*
X128497Y362974D01*
X130154Y362486D01*
X130202Y362481D01*
X130277Y362463D01*
X131745Y362331D01*
X131773Y362315D01*
X131812Y362309D01*
X131849Y362294D01*
X131945Y362289D01*
X131995Y362281D01*
X132015Y362285D01*
G37*
G36*
X197090Y362260D02*
X197090Y362260D01*
X197111Y362258D01*
X198802Y362410D01*
X198848Y362423D01*
X198924Y362433D01*
X200553Y362912D01*
X200581Y362926D01*
X200602Y362930D01*
X200627Y362944D01*
X200668Y362959D01*
X202172Y363746D01*
X202211Y363775D01*
X202276Y363814D01*
X203598Y364880D01*
X203630Y364916D01*
X203687Y364967D01*
X204776Y366270D01*
X204799Y366311D01*
X204846Y366372D01*
X205659Y367863D01*
X205674Y367908D01*
X205708Y367977D01*
X206215Y369597D01*
X206221Y369645D01*
X206240Y369719D01*
X206421Y371402D01*
X206446Y371600D01*
X206443Y371651D01*
X206447Y371742D01*
X206274Y373451D01*
X206261Y373497D01*
X206249Y373573D01*
X205746Y375215D01*
X205724Y375258D01*
X205698Y375330D01*
X204884Y376843D01*
X204854Y376880D01*
X204814Y376946D01*
X203721Y378270D01*
X203684Y378302D01*
X203633Y378358D01*
X202302Y379444D01*
X202259Y379467D01*
X202198Y379513D01*
X200681Y380318D01*
X200635Y380333D01*
X200566Y380365D01*
X199713Y380621D01*
X198920Y380859D01*
X198873Y380865D01*
X198798Y380883D01*
X197211Y381035D01*
X197194Y381042D01*
X197100Y381083D01*
X197090Y381083D01*
X197082Y381087D01*
X196895Y381098D01*
X195216Y380945D01*
X195169Y380932D01*
X195094Y380922D01*
X193477Y380444D01*
X193434Y380423D01*
X193362Y380398D01*
X191870Y379614D01*
X191832Y379584D01*
X191766Y379546D01*
X190455Y378486D01*
X190424Y378450D01*
X190367Y378399D01*
X189288Y377104D01*
X189264Y377062D01*
X189218Y377001D01*
X188412Y375520D01*
X188397Y375475D01*
X188364Y375406D01*
X187863Y373797D01*
X187857Y373749D01*
X187838Y373675D01*
X187663Y372022D01*
X187616Y371766D01*
X187616Y371744D01*
X187609Y371584D01*
X187794Y369867D01*
X187807Y369820D01*
X187819Y369745D01*
X188335Y368096D01*
X188357Y368053D01*
X188383Y367982D01*
X189211Y366465D01*
X189241Y366427D01*
X189281Y366362D01*
X190389Y365036D01*
X190425Y365005D01*
X190477Y364949D01*
X191822Y363865D01*
X191864Y363842D01*
X191926Y363796D01*
X193457Y362995D01*
X193503Y362981D01*
X193572Y362949D01*
X195229Y362461D01*
X195277Y362456D01*
X195352Y362438D01*
X196820Y362306D01*
X196848Y362290D01*
X196887Y362284D01*
X196924Y362269D01*
X197020Y362264D01*
X197070Y362256D01*
X197090Y362260D01*
G37*
G36*
X197674Y283088D02*
X197674Y283088D01*
X197695Y283086D01*
X199386Y283238D01*
X199432Y283251D01*
X199508Y283261D01*
X201137Y283740D01*
X201165Y283754D01*
X201186Y283758D01*
X201211Y283772D01*
X201252Y283787D01*
X202756Y284574D01*
X202795Y284603D01*
X202860Y284642D01*
X204182Y285708D01*
X204214Y285744D01*
X204271Y285795D01*
X205360Y287098D01*
X205383Y287139D01*
X205430Y287200D01*
X206243Y288691D01*
X206258Y288736D01*
X206292Y288805D01*
X206799Y290425D01*
X206805Y290473D01*
X206824Y290547D01*
X207005Y292230D01*
X207030Y292428D01*
X207027Y292479D01*
X207031Y292570D01*
X206858Y294279D01*
X206845Y294325D01*
X206833Y294401D01*
X206330Y296043D01*
X206308Y296086D01*
X206282Y296158D01*
X205468Y297671D01*
X205438Y297708D01*
X205398Y297774D01*
X204305Y299098D01*
X204268Y299130D01*
X204217Y299186D01*
X202886Y300272D01*
X202843Y300295D01*
X202782Y300341D01*
X201265Y301146D01*
X201219Y301161D01*
X201150Y301193D01*
X200297Y301449D01*
X199504Y301687D01*
X199457Y301693D01*
X199382Y301711D01*
X197795Y301863D01*
X197778Y301870D01*
X197684Y301911D01*
X197674Y301911D01*
X197666Y301915D01*
X197479Y301926D01*
X195800Y301773D01*
X195753Y301760D01*
X195678Y301750D01*
X194061Y301272D01*
X194018Y301251D01*
X193946Y301226D01*
X192454Y300442D01*
X192416Y300412D01*
X192350Y300374D01*
X191039Y299314D01*
X191008Y299278D01*
X190951Y299227D01*
X189872Y297932D01*
X189848Y297890D01*
X189802Y297829D01*
X188996Y296348D01*
X188981Y296303D01*
X188948Y296234D01*
X188447Y294625D01*
X188441Y294577D01*
X188422Y294503D01*
X188247Y292850D01*
X188200Y292594D01*
X188200Y292572D01*
X188193Y292412D01*
X188378Y290695D01*
X188391Y290648D01*
X188403Y290573D01*
X188919Y288924D01*
X188941Y288881D01*
X188967Y288810D01*
X189795Y287293D01*
X189825Y287255D01*
X189865Y287190D01*
X190973Y285864D01*
X191009Y285833D01*
X191061Y285777D01*
X192406Y284693D01*
X192448Y284670D01*
X192510Y284624D01*
X194041Y283823D01*
X194087Y283809D01*
X194156Y283777D01*
X195813Y283289D01*
X195861Y283284D01*
X195936Y283266D01*
X197404Y283134D01*
X197432Y283118D01*
X197471Y283112D01*
X197508Y283097D01*
X197604Y283092D01*
X197654Y283084D01*
X197674Y283088D01*
G37*
G36*
X132650Y283063D02*
X132650Y283063D01*
X132671Y283061D01*
X134362Y283213D01*
X134408Y283226D01*
X134484Y283236D01*
X136113Y283715D01*
X136141Y283729D01*
X136162Y283733D01*
X136187Y283747D01*
X136228Y283762D01*
X137732Y284549D01*
X137771Y284578D01*
X137836Y284617D01*
X139158Y285683D01*
X139190Y285719D01*
X139247Y285770D01*
X140336Y287073D01*
X140359Y287114D01*
X140406Y287175D01*
X141219Y288666D01*
X141234Y288711D01*
X141268Y288780D01*
X141775Y290400D01*
X141781Y290448D01*
X141800Y290522D01*
X141981Y292205D01*
X142006Y292403D01*
X142003Y292454D01*
X142007Y292545D01*
X141834Y294254D01*
X141821Y294300D01*
X141809Y294376D01*
X141306Y296018D01*
X141284Y296061D01*
X141258Y296133D01*
X140444Y297646D01*
X140414Y297683D01*
X140374Y297749D01*
X139281Y299073D01*
X139244Y299105D01*
X139193Y299161D01*
X137862Y300247D01*
X137819Y300270D01*
X137758Y300316D01*
X136241Y301121D01*
X136195Y301136D01*
X136126Y301168D01*
X135273Y301424D01*
X134480Y301662D01*
X134433Y301668D01*
X134358Y301686D01*
X132771Y301838D01*
X132754Y301845D01*
X132660Y301886D01*
X132650Y301886D01*
X132642Y301890D01*
X132455Y301901D01*
X130776Y301748D01*
X130729Y301735D01*
X130654Y301725D01*
X129037Y301247D01*
X128994Y301226D01*
X128922Y301201D01*
X127430Y300417D01*
X127392Y300387D01*
X127326Y300349D01*
X126015Y299289D01*
X125984Y299253D01*
X125927Y299202D01*
X124848Y297907D01*
X124824Y297865D01*
X124778Y297804D01*
X123972Y296323D01*
X123957Y296278D01*
X123924Y296209D01*
X123423Y294600D01*
X123417Y294552D01*
X123398Y294478D01*
X123223Y292825D01*
X123176Y292569D01*
X123176Y292547D01*
X123169Y292387D01*
X123354Y290670D01*
X123367Y290623D01*
X123379Y290548D01*
X123895Y288899D01*
X123917Y288856D01*
X123943Y288785D01*
X124771Y287268D01*
X124801Y287230D01*
X124841Y287165D01*
X125949Y285839D01*
X125985Y285808D01*
X126037Y285752D01*
X127382Y284668D01*
X127424Y284645D01*
X127486Y284599D01*
X129017Y283798D01*
X129063Y283784D01*
X129132Y283752D01*
X130789Y283264D01*
X130837Y283259D01*
X130912Y283241D01*
X132380Y283109D01*
X132408Y283093D01*
X132447Y283087D01*
X132484Y283072D01*
X132580Y283067D01*
X132630Y283059D01*
X132650Y283063D01*
G37*
G36*
X132650Y237825D02*
X132650Y237825D01*
X132671Y237823D01*
X134362Y237975D01*
X134408Y237988D01*
X134484Y237998D01*
X136113Y238477D01*
X136141Y238491D01*
X136162Y238495D01*
X136187Y238509D01*
X136228Y238524D01*
X137732Y239311D01*
X137771Y239340D01*
X137836Y239379D01*
X139158Y240445D01*
X139190Y240481D01*
X139247Y240532D01*
X140336Y241835D01*
X140359Y241876D01*
X140406Y241937D01*
X141219Y243428D01*
X141234Y243473D01*
X141268Y243542D01*
X141775Y245162D01*
X141781Y245210D01*
X141800Y245284D01*
X141981Y246967D01*
X142006Y247165D01*
X142003Y247216D01*
X142007Y247307D01*
X141834Y249016D01*
X141821Y249062D01*
X141809Y249138D01*
X141306Y250780D01*
X141284Y250823D01*
X141258Y250895D01*
X140444Y252408D01*
X140414Y252445D01*
X140374Y252511D01*
X139281Y253835D01*
X139244Y253867D01*
X139193Y253923D01*
X137862Y255009D01*
X137819Y255032D01*
X137758Y255078D01*
X136241Y255883D01*
X136195Y255898D01*
X136126Y255930D01*
X135273Y256186D01*
X134480Y256424D01*
X134433Y256430D01*
X134358Y256448D01*
X132771Y256600D01*
X132754Y256607D01*
X132660Y256648D01*
X132650Y256648D01*
X132642Y256652D01*
X132455Y256663D01*
X130776Y256510D01*
X130729Y256497D01*
X130654Y256487D01*
X129037Y256009D01*
X128994Y255988D01*
X128922Y255963D01*
X127430Y255179D01*
X127392Y255149D01*
X127326Y255111D01*
X126015Y254051D01*
X125984Y254015D01*
X125927Y253964D01*
X124848Y252669D01*
X124824Y252627D01*
X124778Y252566D01*
X123972Y251085D01*
X123957Y251040D01*
X123924Y250971D01*
X123423Y249362D01*
X123417Y249314D01*
X123398Y249240D01*
X123223Y247587D01*
X123176Y247331D01*
X123176Y247309D01*
X123169Y247149D01*
X123354Y245432D01*
X123367Y245385D01*
X123379Y245310D01*
X123895Y243661D01*
X123917Y243618D01*
X123943Y243547D01*
X124771Y242030D01*
X124801Y241992D01*
X124841Y241927D01*
X125949Y240601D01*
X125985Y240570D01*
X126037Y240514D01*
X127382Y239430D01*
X127424Y239407D01*
X127486Y239361D01*
X129017Y238560D01*
X129063Y238546D01*
X129132Y238514D01*
X130789Y238026D01*
X130837Y238021D01*
X130912Y238003D01*
X132380Y237871D01*
X132408Y237855D01*
X132447Y237849D01*
X132484Y237834D01*
X132580Y237829D01*
X132630Y237821D01*
X132650Y237825D01*
G37*
G36*
X197725Y237800D02*
X197725Y237800D01*
X197746Y237798D01*
X199437Y237950D01*
X199483Y237963D01*
X199559Y237973D01*
X201188Y238452D01*
X201216Y238466D01*
X201237Y238470D01*
X201262Y238484D01*
X201303Y238499D01*
X202807Y239286D01*
X202846Y239315D01*
X202911Y239354D01*
X204233Y240420D01*
X204265Y240456D01*
X204322Y240507D01*
X205411Y241810D01*
X205434Y241851D01*
X205481Y241912D01*
X206294Y243403D01*
X206309Y243448D01*
X206343Y243517D01*
X206850Y245137D01*
X206856Y245185D01*
X206875Y245259D01*
X207056Y246942D01*
X207081Y247140D01*
X207078Y247191D01*
X207082Y247282D01*
X206909Y248991D01*
X206896Y249037D01*
X206884Y249113D01*
X206381Y250755D01*
X206359Y250798D01*
X206333Y250870D01*
X205519Y252383D01*
X205489Y252420D01*
X205449Y252486D01*
X204356Y253810D01*
X204319Y253842D01*
X204268Y253898D01*
X202937Y254984D01*
X202894Y255007D01*
X202833Y255053D01*
X201316Y255858D01*
X201270Y255873D01*
X201201Y255905D01*
X200348Y256161D01*
X199555Y256399D01*
X199508Y256405D01*
X199433Y256423D01*
X197846Y256575D01*
X197829Y256582D01*
X197735Y256623D01*
X197725Y256623D01*
X197717Y256627D01*
X197530Y256638D01*
X195851Y256485D01*
X195804Y256472D01*
X195729Y256462D01*
X194112Y255984D01*
X194069Y255963D01*
X193997Y255938D01*
X192505Y255154D01*
X192467Y255124D01*
X192401Y255086D01*
X191090Y254026D01*
X191059Y253990D01*
X191002Y253939D01*
X189923Y252644D01*
X189899Y252602D01*
X189853Y252541D01*
X189047Y251060D01*
X189032Y251015D01*
X188999Y250946D01*
X188498Y249337D01*
X188492Y249289D01*
X188473Y249215D01*
X188298Y247562D01*
X188251Y247306D01*
X188251Y247284D01*
X188244Y247124D01*
X188429Y245407D01*
X188442Y245360D01*
X188454Y245285D01*
X188970Y243636D01*
X188992Y243593D01*
X189018Y243522D01*
X189846Y242005D01*
X189876Y241967D01*
X189916Y241902D01*
X191024Y240576D01*
X191060Y240545D01*
X191112Y240489D01*
X192457Y239405D01*
X192499Y239382D01*
X192561Y239336D01*
X194092Y238535D01*
X194138Y238521D01*
X194207Y238489D01*
X195864Y238001D01*
X195912Y237996D01*
X195987Y237978D01*
X197455Y237846D01*
X197483Y237830D01*
X197522Y237824D01*
X197559Y237809D01*
X197655Y237804D01*
X197705Y237796D01*
X197725Y237800D01*
G37*
G36*
X197674Y158628D02*
X197674Y158628D01*
X197695Y158626D01*
X199386Y158778D01*
X199432Y158791D01*
X199508Y158801D01*
X201137Y159280D01*
X201165Y159294D01*
X201186Y159298D01*
X201211Y159312D01*
X201252Y159327D01*
X202756Y160114D01*
X202795Y160143D01*
X202860Y160182D01*
X204182Y161248D01*
X204214Y161284D01*
X204271Y161335D01*
X205360Y162638D01*
X205383Y162679D01*
X205430Y162740D01*
X206243Y164231D01*
X206258Y164276D01*
X206292Y164345D01*
X206799Y165965D01*
X206805Y166013D01*
X206824Y166087D01*
X207005Y167770D01*
X207030Y167968D01*
X207027Y168019D01*
X207031Y168110D01*
X206858Y169819D01*
X206845Y169865D01*
X206833Y169941D01*
X206330Y171583D01*
X206308Y171626D01*
X206282Y171698D01*
X205468Y173211D01*
X205438Y173248D01*
X205398Y173314D01*
X204305Y174638D01*
X204268Y174670D01*
X204217Y174726D01*
X202886Y175812D01*
X202843Y175835D01*
X202782Y175881D01*
X201265Y176686D01*
X201219Y176701D01*
X201150Y176733D01*
X200297Y176989D01*
X199504Y177227D01*
X199457Y177233D01*
X199382Y177251D01*
X197795Y177403D01*
X197778Y177410D01*
X197684Y177451D01*
X197674Y177451D01*
X197666Y177455D01*
X197479Y177466D01*
X195800Y177313D01*
X195753Y177300D01*
X195678Y177290D01*
X194061Y176812D01*
X194018Y176791D01*
X193946Y176766D01*
X192454Y175982D01*
X192416Y175952D01*
X192350Y175914D01*
X191039Y174854D01*
X191008Y174818D01*
X190951Y174767D01*
X189872Y173472D01*
X189848Y173430D01*
X189802Y173369D01*
X188996Y171888D01*
X188981Y171843D01*
X188948Y171774D01*
X188447Y170165D01*
X188441Y170117D01*
X188422Y170043D01*
X188247Y168390D01*
X188200Y168134D01*
X188200Y168112D01*
X188193Y167952D01*
X188378Y166235D01*
X188391Y166188D01*
X188403Y166113D01*
X188919Y164464D01*
X188941Y164421D01*
X188967Y164350D01*
X189795Y162833D01*
X189825Y162795D01*
X189865Y162730D01*
X190973Y161404D01*
X191009Y161373D01*
X191061Y161317D01*
X192406Y160233D01*
X192448Y160210D01*
X192510Y160164D01*
X194041Y159363D01*
X194087Y159349D01*
X194156Y159317D01*
X195813Y158829D01*
X195861Y158824D01*
X195936Y158806D01*
X197404Y158674D01*
X197432Y158658D01*
X197471Y158652D01*
X197508Y158637D01*
X197604Y158632D01*
X197654Y158624D01*
X197674Y158628D01*
G37*
G36*
X132650Y158603D02*
X132650Y158603D01*
X132671Y158601D01*
X134362Y158753D01*
X134408Y158766D01*
X134484Y158776D01*
X136113Y159255D01*
X136141Y159269D01*
X136162Y159273D01*
X136187Y159287D01*
X136228Y159302D01*
X137732Y160089D01*
X137771Y160118D01*
X137836Y160157D01*
X139158Y161223D01*
X139190Y161259D01*
X139247Y161310D01*
X140336Y162613D01*
X140359Y162654D01*
X140406Y162715D01*
X141219Y164206D01*
X141234Y164251D01*
X141268Y164320D01*
X141775Y165940D01*
X141781Y165988D01*
X141800Y166062D01*
X141981Y167745D01*
X142006Y167943D01*
X142003Y167994D01*
X142007Y168085D01*
X141834Y169794D01*
X141821Y169840D01*
X141809Y169916D01*
X141306Y171558D01*
X141284Y171601D01*
X141258Y171673D01*
X140444Y173186D01*
X140414Y173223D01*
X140374Y173289D01*
X139281Y174613D01*
X139244Y174645D01*
X139193Y174701D01*
X137862Y175787D01*
X137819Y175810D01*
X137758Y175856D01*
X136241Y176661D01*
X136195Y176676D01*
X136126Y176708D01*
X135273Y176964D01*
X134480Y177202D01*
X134433Y177208D01*
X134358Y177226D01*
X132771Y177378D01*
X132754Y177385D01*
X132660Y177426D01*
X132650Y177426D01*
X132642Y177430D01*
X132455Y177441D01*
X130776Y177288D01*
X130729Y177275D01*
X130654Y177265D01*
X129037Y176787D01*
X128994Y176766D01*
X128922Y176741D01*
X127430Y175957D01*
X127392Y175927D01*
X127326Y175889D01*
X126015Y174829D01*
X125984Y174793D01*
X125927Y174742D01*
X124848Y173447D01*
X124824Y173405D01*
X124778Y173344D01*
X123972Y171863D01*
X123957Y171818D01*
X123924Y171749D01*
X123423Y170140D01*
X123417Y170092D01*
X123398Y170018D01*
X123223Y168365D01*
X123176Y168109D01*
X123176Y168087D01*
X123169Y167927D01*
X123354Y166210D01*
X123367Y166163D01*
X123379Y166088D01*
X123895Y164439D01*
X123917Y164396D01*
X123943Y164325D01*
X124771Y162808D01*
X124801Y162770D01*
X124841Y162705D01*
X125949Y161379D01*
X125985Y161348D01*
X126037Y161292D01*
X127382Y160208D01*
X127424Y160185D01*
X127486Y160139D01*
X129017Y159338D01*
X129063Y159324D01*
X129132Y159292D01*
X130789Y158804D01*
X130837Y158799D01*
X130912Y158781D01*
X132380Y158649D01*
X132408Y158633D01*
X132447Y158627D01*
X132484Y158612D01*
X132580Y158607D01*
X132630Y158599D01*
X132650Y158603D01*
G37*
G36*
X132650Y113365D02*
X132650Y113365D01*
X132671Y113363D01*
X134362Y113515D01*
X134408Y113528D01*
X134484Y113538D01*
X136113Y114017D01*
X136141Y114031D01*
X136162Y114035D01*
X136187Y114049D01*
X136228Y114064D01*
X137732Y114851D01*
X137771Y114880D01*
X137836Y114919D01*
X139158Y115985D01*
X139190Y116021D01*
X139247Y116072D01*
X140336Y117375D01*
X140359Y117416D01*
X140406Y117477D01*
X141219Y118968D01*
X141234Y119013D01*
X141268Y119082D01*
X141775Y120702D01*
X141781Y120750D01*
X141800Y120824D01*
X141981Y122507D01*
X142006Y122705D01*
X142003Y122756D01*
X142007Y122847D01*
X141834Y124556D01*
X141821Y124602D01*
X141809Y124678D01*
X141306Y126320D01*
X141284Y126363D01*
X141258Y126435D01*
X140444Y127948D01*
X140414Y127985D01*
X140374Y128051D01*
X139281Y129375D01*
X139244Y129407D01*
X139193Y129463D01*
X137862Y130549D01*
X137819Y130572D01*
X137758Y130618D01*
X136241Y131423D01*
X136195Y131438D01*
X136126Y131470D01*
X135273Y131726D01*
X134480Y131964D01*
X134433Y131970D01*
X134358Y131988D01*
X132771Y132140D01*
X132754Y132147D01*
X132660Y132188D01*
X132650Y132188D01*
X132642Y132192D01*
X132455Y132203D01*
X130776Y132050D01*
X130729Y132037D01*
X130654Y132027D01*
X129037Y131549D01*
X128994Y131528D01*
X128922Y131503D01*
X127430Y130719D01*
X127392Y130689D01*
X127326Y130651D01*
X126015Y129591D01*
X125984Y129555D01*
X125927Y129504D01*
X124848Y128209D01*
X124824Y128167D01*
X124778Y128106D01*
X123972Y126625D01*
X123957Y126580D01*
X123924Y126511D01*
X123423Y124902D01*
X123417Y124854D01*
X123398Y124780D01*
X123223Y123127D01*
X123176Y122871D01*
X123176Y122849D01*
X123169Y122689D01*
X123354Y120972D01*
X123367Y120925D01*
X123379Y120850D01*
X123895Y119201D01*
X123917Y119158D01*
X123943Y119087D01*
X124771Y117570D01*
X124801Y117532D01*
X124841Y117467D01*
X125949Y116141D01*
X125985Y116110D01*
X126037Y116054D01*
X127382Y114970D01*
X127424Y114947D01*
X127486Y114901D01*
X129017Y114100D01*
X129063Y114086D01*
X129132Y114054D01*
X130789Y113566D01*
X130837Y113561D01*
X130912Y113543D01*
X132380Y113411D01*
X132408Y113395D01*
X132447Y113389D01*
X132484Y113374D01*
X132580Y113369D01*
X132630Y113361D01*
X132650Y113365D01*
G37*
G36*
X197725Y113340D02*
X197725Y113340D01*
X197746Y113338D01*
X199437Y113490D01*
X199483Y113503D01*
X199559Y113513D01*
X201188Y113992D01*
X201216Y114006D01*
X201237Y114010D01*
X201261Y114024D01*
X201303Y114039D01*
X202807Y114826D01*
X202846Y114855D01*
X202911Y114894D01*
X204233Y115960D01*
X204265Y115996D01*
X204322Y116047D01*
X205411Y117350D01*
X205434Y117391D01*
X205481Y117452D01*
X206294Y118943D01*
X206309Y118988D01*
X206343Y119057D01*
X206850Y120677D01*
X206856Y120725D01*
X206875Y120799D01*
X207056Y122482D01*
X207081Y122680D01*
X207078Y122731D01*
X207082Y122822D01*
X206909Y124531D01*
X206896Y124577D01*
X206884Y124653D01*
X206381Y126295D01*
X206359Y126338D01*
X206333Y126410D01*
X205519Y127923D01*
X205489Y127960D01*
X205449Y128026D01*
X204356Y129350D01*
X204319Y129382D01*
X204268Y129438D01*
X202937Y130524D01*
X202894Y130547D01*
X202833Y130593D01*
X201316Y131398D01*
X201270Y131413D01*
X201201Y131445D01*
X200348Y131701D01*
X199555Y131939D01*
X199508Y131945D01*
X199433Y131963D01*
X197846Y132115D01*
X197829Y132122D01*
X197735Y132163D01*
X197725Y132163D01*
X197717Y132167D01*
X197530Y132178D01*
X195851Y132025D01*
X195804Y132012D01*
X195729Y132002D01*
X194112Y131524D01*
X194069Y131503D01*
X193997Y131478D01*
X192505Y130694D01*
X192467Y130664D01*
X192401Y130626D01*
X191090Y129566D01*
X191059Y129530D01*
X191002Y129479D01*
X189923Y128184D01*
X189899Y128142D01*
X189853Y128081D01*
X189047Y126600D01*
X189032Y126555D01*
X188999Y126486D01*
X188498Y124877D01*
X188492Y124829D01*
X188473Y124755D01*
X188298Y123102D01*
X188251Y122846D01*
X188251Y122824D01*
X188244Y122664D01*
X188429Y120947D01*
X188442Y120900D01*
X188454Y120825D01*
X188970Y119176D01*
X188992Y119133D01*
X189018Y119062D01*
X189846Y117545D01*
X189876Y117507D01*
X189916Y117442D01*
X191024Y116116D01*
X191060Y116085D01*
X191112Y116029D01*
X192457Y114945D01*
X192499Y114922D01*
X192561Y114876D01*
X194092Y114075D01*
X194138Y114061D01*
X194207Y114029D01*
X195864Y113541D01*
X195912Y113536D01*
X195987Y113518D01*
X197455Y113386D01*
X197483Y113370D01*
X197522Y113364D01*
X197559Y113349D01*
X197655Y113344D01*
X197705Y113336D01*
X197725Y113340D01*
G37*
D10*
X38100Y965200D03*
X965200Y762000D03*
X635000Y165100D03*
X38100Y38100D03*
D11*
X482600Y386715D03*
D12*
X482600Y412115D03*
D13*
X184785Y972312D02*
X159385Y972312D01*
X159385Y747268D02*
X184785Y747268D01*
X678815Y972312D02*
X704215Y972312D01*
X704215Y747268D02*
X678815Y747268D01*
D14*
X777240Y955040D03*
X777240Y929640D03*
X828675Y955040D03*
X828675Y929640D03*
D15*
X776605Y800100D03*
X776605Y901700D03*
X828040Y799465D03*
X828040Y901065D03*
D16*
X196977Y501269D03*
X131953Y501269D03*
X196977Y546481D03*
X131953Y546481D03*
D17*
X555140Y266700D03*
X535140Y266700D03*
X515140Y266700D03*
X495140Y266700D03*
X475140Y266700D03*
X455140Y266700D03*
X435140Y266700D03*
X415140Y266700D03*
D18*
X269875Y613855D02*
X269875Y626935D01*
X295275Y626935D02*
X295275Y613855D01*
X320675Y613855D02*
X320675Y626935D01*
X346075Y626935D02*
X346075Y613855D01*
X371475Y613855D02*
X371475Y626935D01*
X396875Y626935D02*
X396875Y613855D01*
X263715Y594995D02*
X250635Y594995D01*
X250635Y569595D02*
X263715Y569595D01*
X263715Y544195D02*
X250635Y544195D01*
X250635Y518795D02*
X263715Y518795D01*
X263715Y493395D02*
X250635Y493395D01*
X250635Y467995D02*
X263715Y467995D01*
X263715Y442595D02*
X250635Y442595D01*
X250635Y417195D02*
X263715Y417195D01*
X263715Y391795D02*
X250635Y391795D01*
X250635Y366395D02*
X263715Y366395D01*
X263715Y340995D02*
X250635Y340995D01*
X250635Y315595D02*
X263715Y315595D01*
X403035Y594995D02*
X416115Y594995D01*
X416115Y569595D02*
X403035Y569595D01*
X403035Y544195D02*
X416115Y544195D01*
X416115Y518795D02*
X403035Y518795D01*
X403035Y493395D02*
X416115Y493395D01*
X416115Y467995D02*
X403035Y467995D01*
X403035Y442595D02*
X416115Y442595D01*
X416115Y417195D02*
X403035Y417195D01*
X403035Y391795D02*
X416115Y391795D01*
X416115Y366395D02*
X403035Y366395D01*
X403035Y340995D02*
X416115Y340995D01*
X416115Y315595D02*
X403035Y315595D01*
X371475Y322135D02*
X371475Y309055D01*
X346075Y309055D02*
X346075Y322135D01*
X320675Y322135D02*
X320675Y309055D01*
D19*
X371475Y506095D03*
X371475Y480695D03*
D20*
X263300Y834300D03*
X263300Y893300D03*
X599300Y954300D03*
X599300Y774300D03*
D21*
X588899Y640715D02*
X575691Y640715D01*
X575691Y615315D02*
X588899Y615315D01*
X588899Y488315D02*
X575691Y488315D01*
X575691Y462915D02*
X588899Y462915D01*
X588899Y589915D02*
X575691Y589915D01*
X575691Y564515D02*
X588899Y564515D01*
X588899Y513715D02*
X575691Y513715D01*
X575691Y539115D02*
X588899Y539115D01*
X588899Y437515D02*
X575691Y437515D01*
X651891Y437515D02*
X665099Y437515D01*
X665099Y462915D02*
X651891Y462915D01*
X651891Y488315D02*
X665099Y488315D01*
X665099Y513715D02*
X651891Y513715D01*
X651891Y539115D02*
X665099Y539115D01*
X665099Y564515D02*
X651891Y564515D01*
X651891Y589915D02*
X665099Y589915D01*
X665099Y615315D02*
X651891Y615315D01*
X651891Y640715D02*
X665099Y640715D01*
D15*
X878840Y800735D03*
X878840Y902335D03*
X927100Y800100D03*
X927100Y901700D03*
D14*
X878840Y955675D03*
X878840Y930275D03*
X927100Y955675D03*
X927100Y930275D03*
D22*
X207010Y702945D03*
X105410Y702945D03*
D23*
X30480Y703580D03*
X55880Y703580D03*
D24*
X72073Y892810D02*
X93028Y892810D01*
X93028Y842010D02*
X72073Y842010D01*
D25*
X59182Y778510D02*
X44958Y778510D01*
X44958Y753110D02*
X59182Y753110D01*
D26*
X861120Y566180D03*
X741120Y686180D03*
X721120Y626180D03*
X861120Y686180D03*
X741120Y566180D03*
X861755Y392190D03*
X741755Y512190D03*
X721755Y452190D03*
X861755Y512190D03*
X741755Y392190D03*
X861755Y218835D03*
X741755Y338835D03*
X721755Y278835D03*
X861755Y338835D03*
X741755Y218835D03*
X861755Y46115D03*
X741755Y166115D03*
X721755Y106115D03*
X861755Y166115D03*
X741755Y46115D03*
D24*
X931863Y574675D02*
X952818Y574675D01*
X952818Y625475D02*
X931863Y625475D01*
X931863Y676275D02*
X952818Y676275D01*
X953453Y401955D02*
X932498Y401955D01*
X932498Y452755D02*
X953453Y452755D01*
X953453Y503555D02*
X932498Y503555D01*
X933133Y228600D02*
X954088Y228600D01*
X954088Y279400D02*
X933133Y279400D01*
X933133Y330200D02*
X954088Y330200D01*
X954088Y54610D02*
X933133Y54610D01*
X933133Y105410D02*
X954088Y105410D01*
X954088Y156210D02*
X933133Y156210D01*
X86678Y546100D02*
X65723Y546100D01*
X65723Y495300D02*
X86678Y495300D01*
X86678Y419100D02*
X65723Y419100D01*
X65723Y368300D02*
X86678Y368300D01*
X86678Y292100D02*
X65723Y292100D01*
X65723Y241300D02*
X86678Y241300D01*
X86678Y165100D02*
X65723Y165100D01*
X65723Y114300D02*
X86678Y114300D01*
M02*
